<?xml version="1.0" encoding="utf-8" standalone="no"?>
<!DOCTYPE svg PUBLIC "-//W3C//DTD SVG 1.1//EN"
  "http://www.w3.org/Graphics/SVG/1.1/DTD/svg11.dtd">
<svg xmlns:xlink="http://www.w3.org/1999/xlink" width="864pt" height="432pt" viewBox="0 0 864 432" xmlns="http://www.w3.org/2000/svg" version="1.1">
 <metadata>
  <rdf:RDF xmlns:dc="http://purl.org/dc/elements/1.1/" xmlns:cc="http://creativecommons.org/ns#" xmlns:rdf="http://www.w3.org/1999/02/22-rdf-syntax-ns#">
   <cc:Work>
    <dc:type rdf:resource="http://purl.org/dc/dcmitype/StillImage"/>
    <dc:date>2025-05-11T15:43:04.990276</dc:date>
    <dc:format>image/svg+xml</dc:format>
    <dc:creator>
     <cc:Agent>
      <dc:title>Matplotlib v3.8.0, https://matplotlib.org/</dc:title>
     </cc:Agent>
    </dc:creator>
   </cc:Work>
  </rdf:RDF>
 </metadata>
 <defs>
  <style type="text/css">*{stroke-linejoin: round; stroke-linecap: butt}</style>
 </defs>
 <g id="figure_1">
  <g id="patch_1">
   <path d="M 0 432 
L 864 432 
L 864 0 
L 0 0 
z
" style="fill: #ffffff"/>
  </g>
  <g id="axes_1">
   <g id="patch_2">
    <path d="M 59.045625 396.58 
L 851.04 396.58 
L 851.04 27.650625 
L 59.045625 27.650625 
z
" style="fill: #ffffff"/>
   </g>
   <g id="matplotlib.axis_1">
    <g id="xtick_1">
     <g id="text_1">
      <!-- P-256 -->
      <g style="fill: #262626" transform="translate(119.567094 416.100937) scale(0.14 -0.14)">
       <defs>
        <path id="ArialMT-50" d="M 494 0 
L 494 4581 
L 2222 4581 
Q 2678 4581 2919 4538 
Q 3256 4481 3484 4323 
Q 3713 4166 3852 3881 
Q 3991 3597 3991 3256 
Q 3991 2672 3619 2267 
Q 3247 1863 2275 1863 
L 1100 1863 
L 1100 0 
L 494 0 
z
M 1100 2403 
L 2284 2403 
Q 2872 2403 3119 2622 
Q 3366 2841 3366 3238 
Q 3366 3525 3220 3729 
Q 3075 3934 2838 4000 
Q 2684 4041 2272 4041 
L 1100 4041 
L 1100 2403 
z
" transform="scale(0.015625)"/>
        <path id="ArialMT-2d" d="M 203 1375 
L 203 1941 
L 1931 1941 
L 1931 1375 
L 203 1375 
z
" transform="scale(0.015625)"/>
        <path id="ArialMT-32" d="M 3222 541 
L 3222 0 
L 194 0 
Q 188 203 259 391 
Q 375 700 629 1000 
Q 884 1300 1366 1694 
Q 2113 2306 2375 2664 
Q 2638 3022 2638 3341 
Q 2638 3675 2398 3904 
Q 2159 4134 1775 4134 
Q 1369 4134 1125 3890 
Q 881 3647 878 3216 
L 300 3275 
Q 359 3922 746 4261 
Q 1134 4600 1788 4600 
Q 2447 4600 2831 4234 
Q 3216 3869 3216 3328 
Q 3216 3053 3103 2787 
Q 2991 2522 2730 2228 
Q 2469 1934 1863 1422 
Q 1356 997 1212 845 
Q 1069 694 975 541 
L 3222 541 
z
" transform="scale(0.015625)"/>
        <path id="ArialMT-35" d="M 266 1200 
L 856 1250 
Q 922 819 1161 601 
Q 1400 384 1738 384 
Q 2144 384 2425 690 
Q 2706 997 2706 1503 
Q 2706 1984 2436 2262 
Q 2166 2541 1728 2541 
Q 1456 2541 1237 2417 
Q 1019 2294 894 2097 
L 366 2166 
L 809 4519 
L 3088 4519 
L 3088 3981 
L 1259 3981 
L 1013 2750 
Q 1425 3038 1878 3038 
Q 2478 3038 2890 2622 
Q 3303 2206 3303 1553 
Q 3303 931 2941 478 
Q 2500 -78 1738 -78 
Q 1113 -78 717 272 
Q 322 622 266 1200 
z
" transform="scale(0.015625)"/>
        <path id="ArialMT-36" d="M 3184 3459 
L 2625 3416 
Q 2550 3747 2413 3897 
Q 2184 4138 1850 4138 
Q 1581 4138 1378 3988 
Q 1113 3794 959 3422 
Q 806 3050 800 2363 
Q 1003 2672 1297 2822 
Q 1591 2972 1913 2972 
Q 2475 2972 2870 2558 
Q 3266 2144 3266 1488 
Q 3266 1056 3080 686 
Q 2894 316 2569 119 
Q 2244 -78 1831 -78 
Q 1128 -78 684 439 
Q 241 956 241 2144 
Q 241 3472 731 4075 
Q 1159 4600 1884 4600 
Q 2425 4600 2770 4297 
Q 3116 3994 3184 3459 
z
M 888 1484 
Q 888 1194 1011 928 
Q 1134 663 1356 523 
Q 1578 384 1822 384 
Q 2178 384 2434 671 
Q 2691 959 2691 1453 
Q 2691 1928 2437 2201 
Q 2184 2475 1800 2475 
Q 1419 2475 1153 2201 
Q 888 1928 888 1484 
z
" transform="scale(0.015625)"/>
       </defs>
       <use xlink:href="#ArialMT-50"/>
       <use xlink:href="#ArialMT-2d" x="66.699219"/>
       <use xlink:href="#ArialMT-32" x="100"/>
       <use xlink:href="#ArialMT-35" x="155.615234"/>
       <use xlink:href="#ArialMT-36" x="211.230469"/>
      </g>
     </g>
    </g>
    <g id="xtick_2">
     <g id="text_2">
      <!-- x25519 -->
      <g style="fill: #262626" transform="translate(273.680656 416.100937) scale(0.14 -0.14)">
       <defs>
        <path id="ArialMT-78" d="M 47 0 
L 1259 1725 
L 138 3319 
L 841 3319 
L 1350 2541 
Q 1494 2319 1581 2169 
Q 1719 2375 1834 2534 
L 2394 3319 
L 3066 3319 
L 1919 1756 
L 3153 0 
L 2463 0 
L 1781 1031 
L 1600 1309 
L 728 0 
L 47 0 
z
" transform="scale(0.015625)"/>
        <path id="ArialMT-31" d="M 2384 0 
L 1822 0 
L 1822 3584 
Q 1619 3391 1289 3197 
Q 959 3003 697 2906 
L 697 3450 
Q 1169 3672 1522 3987 
Q 1875 4303 2022 4600 
L 2384 4600 
L 2384 0 
z
" transform="scale(0.015625)"/>
        <path id="ArialMT-39" d="M 350 1059 
L 891 1109 
Q 959 728 1153 556 
Q 1347 384 1650 384 
Q 1909 384 2104 503 
Q 2300 622 2425 820 
Q 2550 1019 2634 1356 
Q 2719 1694 2719 2044 
Q 2719 2081 2716 2156 
Q 2547 1888 2255 1720 
Q 1963 1553 1622 1553 
Q 1053 1553 659 1965 
Q 266 2378 266 3053 
Q 266 3750 677 4175 
Q 1088 4600 1706 4600 
Q 2153 4600 2523 4359 
Q 2894 4119 3086 3673 
Q 3278 3228 3278 2384 
Q 3278 1506 3087 986 
Q 2897 466 2520 194 
Q 2144 -78 1638 -78 
Q 1100 -78 759 220 
Q 419 519 350 1059 
z
M 2653 3081 
Q 2653 3566 2395 3850 
Q 2138 4134 1775 4134 
Q 1400 4134 1122 3828 
Q 844 3522 844 3034 
Q 844 2597 1108 2323 
Q 1372 2050 1759 2050 
Q 2150 2050 2401 2323 
Q 2653 2597 2653 3081 
z
" transform="scale(0.015625)"/>
       </defs>
       <use xlink:href="#ArialMT-78"/>
       <use xlink:href="#ArialMT-32" x="50"/>
       <use xlink:href="#ArialMT-35" x="105.615234"/>
       <use xlink:href="#ArialMT-35" x="161.230469"/>
       <use xlink:href="#ArialMT-31" x="216.845703"/>
       <use xlink:href="#ArialMT-39" x="272.460938"/>
      </g>
     </g>
    </g>
    <g id="xtick_3">
     <g id="text_3">
      <!-- p256_mlkem512 -->
      <g style="fill: #262626" transform="translate(403.292031 416.1425) scale(0.14 -0.14)">
       <defs>
        <path id="ArialMT-70" d="M 422 -1272 
L 422 3319 
L 934 3319 
L 934 2888 
Q 1116 3141 1344 3267 
Q 1572 3394 1897 3394 
Q 2322 3394 2647 3175 
Q 2972 2956 3137 2557 
Q 3303 2159 3303 1684 
Q 3303 1175 3120 767 
Q 2938 359 2589 142 
Q 2241 -75 1856 -75 
Q 1575 -75 1351 44 
Q 1128 163 984 344 
L 984 -1272 
L 422 -1272 
z
M 931 1641 
Q 931 1000 1190 694 
Q 1450 388 1819 388 
Q 2194 388 2461 705 
Q 2728 1022 2728 1688 
Q 2728 2322 2467 2637 
Q 2206 2953 1844 2953 
Q 1484 2953 1207 2617 
Q 931 2281 931 1641 
z
" transform="scale(0.015625)"/>
        <path id="ArialMT-5f" d="M -97 -1272 
L -97 -866 
L 3631 -866 
L 3631 -1272 
L -97 -1272 
z
" transform="scale(0.015625)"/>
        <path id="ArialMT-6d" d="M 422 0 
L 422 3319 
L 925 3319 
L 925 2853 
Q 1081 3097 1340 3245 
Q 1600 3394 1931 3394 
Q 2300 3394 2536 3241 
Q 2772 3088 2869 2813 
Q 3263 3394 3894 3394 
Q 4388 3394 4653 3120 
Q 4919 2847 4919 2278 
L 4919 0 
L 4359 0 
L 4359 2091 
Q 4359 2428 4304 2576 
Q 4250 2725 4106 2815 
Q 3963 2906 3769 2906 
Q 3419 2906 3187 2673 
Q 2956 2441 2956 1928 
L 2956 0 
L 2394 0 
L 2394 2156 
Q 2394 2531 2256 2718 
Q 2119 2906 1806 2906 
Q 1569 2906 1367 2781 
Q 1166 2656 1075 2415 
Q 984 2175 984 1722 
L 984 0 
L 422 0 
z
" transform="scale(0.015625)"/>
        <path id="ArialMT-6c" d="M 409 0 
L 409 4581 
L 972 4581 
L 972 0 
L 409 0 
z
" transform="scale(0.015625)"/>
        <path id="ArialMT-6b" d="M 425 0 
L 425 4581 
L 988 4581 
L 988 1969 
L 2319 3319 
L 3047 3319 
L 1778 2088 
L 3175 0 
L 2481 0 
L 1384 1697 
L 988 1316 
L 988 0 
L 425 0 
z
" transform="scale(0.015625)"/>
        <path id="ArialMT-65" d="M 2694 1069 
L 3275 997 
Q 3138 488 2766 206 
Q 2394 -75 1816 -75 
Q 1088 -75 661 373 
Q 234 822 234 1631 
Q 234 2469 665 2931 
Q 1097 3394 1784 3394 
Q 2450 3394 2872 2941 
Q 3294 2488 3294 1666 
Q 3294 1616 3291 1516 
L 816 1516 
Q 847 969 1125 678 
Q 1403 388 1819 388 
Q 2128 388 2347 550 
Q 2566 713 2694 1069 
z
M 847 1978 
L 2700 1978 
Q 2663 2397 2488 2606 
Q 2219 2931 1791 2931 
Q 1403 2931 1139 2672 
Q 875 2413 847 1978 
z
" transform="scale(0.015625)"/>
       </defs>
       <use xlink:href="#ArialMT-70"/>
       <use xlink:href="#ArialMT-32" x="55.615234"/>
       <use xlink:href="#ArialMT-35" x="111.230469"/>
       <use xlink:href="#ArialMT-36" x="166.845703"/>
       <use xlink:href="#ArialMT-5f" x="222.460938"/>
       <use xlink:href="#ArialMT-6d" x="278.076172"/>
       <use xlink:href="#ArialMT-6c" x="361.376953"/>
       <use xlink:href="#ArialMT-6b" x="383.59375"/>
       <use xlink:href="#ArialMT-65" x="433.59375"/>
       <use xlink:href="#ArialMT-6d" x="489.208984"/>
       <use xlink:href="#ArialMT-35" x="572.509766"/>
       <use xlink:href="#ArialMT-31" x="628.125"/>
       <use xlink:href="#ArialMT-32" x="683.740234"/>
      </g>
     </g>
    </g>
    <g id="xtick_4">
     <g id="text_4">
      <!-- x25519_mlkem512 -->
      <g style="fill: #262626" transform="translate(554.29825 416.1425) scale(0.14 -0.14)">
       <use xlink:href="#ArialMT-78"/>
       <use xlink:href="#ArialMT-32" x="50"/>
       <use xlink:href="#ArialMT-35" x="105.615234"/>
       <use xlink:href="#ArialMT-35" x="161.230469"/>
       <use xlink:href="#ArialMT-31" x="216.845703"/>
       <use xlink:href="#ArialMT-39" x="272.460938"/>
       <use xlink:href="#ArialMT-5f" x="328.076172"/>
       <use xlink:href="#ArialMT-6d" x="383.691406"/>
       <use xlink:href="#ArialMT-6c" x="466.992188"/>
       <use xlink:href="#ArialMT-6b" x="489.208984"/>
       <use xlink:href="#ArialMT-65" x="539.208984"/>
       <use xlink:href="#ArialMT-6d" x="594.824219"/>
       <use xlink:href="#ArialMT-35" x="678.125"/>
       <use xlink:href="#ArialMT-31" x="733.740234"/>
       <use xlink:href="#ArialMT-32" x="789.355469"/>
      </g>
     </g>
    </g>
    <g id="xtick_5">
     <g id="text_5">
      <!-- mlkem512 -->
      <g style="fill: #262626" transform="translate(739.553063 416.100937) scale(0.14 -0.14)">
       <use xlink:href="#ArialMT-6d"/>
       <use xlink:href="#ArialMT-6c" x="83.300781"/>
       <use xlink:href="#ArialMT-6b" x="105.517578"/>
       <use xlink:href="#ArialMT-65" x="155.517578"/>
       <use xlink:href="#ArialMT-6d" x="211.132812"/>
       <use xlink:href="#ArialMT-35" x="294.433594"/>
       <use xlink:href="#ArialMT-31" x="350.048828"/>
       <use xlink:href="#ArialMT-32" x="405.664062"/>
      </g>
     </g>
    </g>
   </g>
   <g id="matplotlib.axis_2">
    <g id="ytick_1">
     <g id="line2d_1">
      <path d="M 59.045625 366.007554 
L 851.04 366.007554 
" clip-path="url(#p8d4c9320ba)" style="fill: none; stroke: #cccccc; stroke-linecap: round"/>
     </g>
     <g id="text_6">
      <!-- 2.5 -->
      <g style="fill: #262626" transform="translate(34.255625 369.944351) scale(0.11 -0.11)">
       <defs>
        <path id="ArialMT-2e" d="M 581 0 
L 581 641 
L 1222 641 
L 1222 0 
L 581 0 
z
" transform="scale(0.015625)"/>
       </defs>
       <use xlink:href="#ArialMT-32"/>
       <use xlink:href="#ArialMT-2e" x="55.615234"/>
       <use xlink:href="#ArialMT-35" x="83.398438"/>
      </g>
     </g>
    </g>
    <g id="ytick_2">
     <g id="line2d_2">
      <path d="M 59.045625 318.304978 
L 851.04 318.304978 
" clip-path="url(#p8d4c9320ba)" style="fill: none; stroke: #cccccc; stroke-linecap: round"/>
     </g>
     <g id="text_7">
      <!-- 5.0 -->
      <g style="fill: #262626" transform="translate(34.255625 322.241774) scale(0.11 -0.11)">
       <defs>
        <path id="ArialMT-30" d="M 266 2259 
Q 266 3072 433 3567 
Q 600 4063 929 4331 
Q 1259 4600 1759 4600 
Q 2128 4600 2406 4451 
Q 2684 4303 2865 4023 
Q 3047 3744 3150 3342 
Q 3253 2941 3253 2259 
Q 3253 1453 3087 958 
Q 2922 463 2592 192 
Q 2263 -78 1759 -78 
Q 1097 -78 719 397 
Q 266 969 266 2259 
z
M 844 2259 
Q 844 1131 1108 757 
Q 1372 384 1759 384 
Q 2147 384 2411 759 
Q 2675 1134 2675 2259 
Q 2675 3391 2411 3762 
Q 2147 4134 1753 4134 
Q 1366 4134 1134 3806 
Q 844 3388 844 2259 
z
" transform="scale(0.015625)"/>
       </defs>
       <use xlink:href="#ArialMT-35"/>
       <use xlink:href="#ArialMT-2e" x="55.615234"/>
       <use xlink:href="#ArialMT-30" x="83.398438"/>
      </g>
     </g>
    </g>
    <g id="ytick_3">
     <g id="line2d_3">
      <path d="M 59.045625 270.602401 
L 851.04 270.602401 
" clip-path="url(#p8d4c9320ba)" style="fill: none; stroke: #cccccc; stroke-linecap: round"/>
     </g>
     <g id="text_8">
      <!-- 7.5 -->
      <g style="fill: #262626" transform="translate(34.255625 274.539197) scale(0.11 -0.11)">
       <defs>
        <path id="ArialMT-37" d="M 303 3981 
L 303 4522 
L 3269 4522 
L 3269 4084 
Q 2831 3619 2401 2847 
Q 1972 2075 1738 1259 
Q 1569 684 1522 0 
L 944 0 
Q 953 541 1156 1306 
Q 1359 2072 1739 2783 
Q 2119 3494 2547 3981 
L 303 3981 
z
" transform="scale(0.015625)"/>
       </defs>
       <use xlink:href="#ArialMT-37"/>
       <use xlink:href="#ArialMT-2e" x="55.615234"/>
       <use xlink:href="#ArialMT-35" x="83.398438"/>
      </g>
     </g>
    </g>
    <g id="ytick_4">
     <g id="line2d_4">
      <path d="M 59.045625 222.899824 
L 851.04 222.899824 
" clip-path="url(#p8d4c9320ba)" style="fill: none; stroke: #cccccc; stroke-linecap: round"/>
     </g>
     <g id="text_9">
      <!-- 10.0 -->
      <g style="fill: #262626" transform="translate(28.138594 226.836621) scale(0.11 -0.11)">
       <use xlink:href="#ArialMT-31"/>
       <use xlink:href="#ArialMT-30" x="55.615234"/>
       <use xlink:href="#ArialMT-2e" x="111.230469"/>
       <use xlink:href="#ArialMT-30" x="139.013672"/>
      </g>
     </g>
    </g>
    <g id="ytick_5">
     <g id="line2d_5">
      <path d="M 59.045625 175.197247 
L 851.04 175.197247 
" clip-path="url(#p8d4c9320ba)" style="fill: none; stroke: #cccccc; stroke-linecap: round"/>
     </g>
     <g id="text_10">
      <!-- 12.5 -->
      <g style="fill: #262626" transform="translate(28.138594 179.134044) scale(0.11 -0.11)">
       <use xlink:href="#ArialMT-31"/>
       <use xlink:href="#ArialMT-32" x="55.615234"/>
       <use xlink:href="#ArialMT-2e" x="111.230469"/>
       <use xlink:href="#ArialMT-35" x="139.013672"/>
      </g>
     </g>
    </g>
    <g id="ytick_6">
     <g id="line2d_6">
      <path d="M 59.045625 127.49467 
L 851.04 127.49467 
" clip-path="url(#p8d4c9320ba)" style="fill: none; stroke: #cccccc; stroke-linecap: round"/>
     </g>
     <g id="text_11">
      <!-- 15.0 -->
      <g style="fill: #262626" transform="translate(28.138594 131.431467) scale(0.11 -0.11)">
       <use xlink:href="#ArialMT-31"/>
       <use xlink:href="#ArialMT-35" x="55.615234"/>
       <use xlink:href="#ArialMT-2e" x="111.230469"/>
       <use xlink:href="#ArialMT-30" x="139.013672"/>
      </g>
     </g>
    </g>
    <g id="ytick_7">
     <g id="line2d_7">
      <path d="M 59.045625 79.792093 
L 851.04 79.792093 
" clip-path="url(#p8d4c9320ba)" style="fill: none; stroke: #cccccc; stroke-linecap: round"/>
     </g>
     <g id="text_12">
      <!-- 17.5 -->
      <g style="fill: #262626" transform="translate(28.138594 83.72889) scale(0.11 -0.11)">
       <use xlink:href="#ArialMT-31"/>
       <use xlink:href="#ArialMT-37" x="55.615234"/>
       <use xlink:href="#ArialMT-2e" x="111.230469"/>
       <use xlink:href="#ArialMT-35" x="139.013672"/>
      </g>
     </g>
    </g>
    <g id="ytick_8">
     <g id="line2d_8">
      <path d="M 59.045625 32.089516 
L 851.04 32.089516 
" clip-path="url(#p8d4c9320ba)" style="fill: none; stroke: #cccccc; stroke-linecap: round"/>
     </g>
     <g id="text_13">
      <!-- 20.0 -->
      <g style="fill: #262626" transform="translate(28.138594 36.026313) scale(0.11 -0.11)">
       <use xlink:href="#ArialMT-32"/>
       <use xlink:href="#ArialMT-30" x="55.615234"/>
       <use xlink:href="#ArialMT-2e" x="111.230469"/>
       <use xlink:href="#ArialMT-30" x="139.013672"/>
      </g>
     </g>
    </g>
    <g id="text_14">
     <!-- Handshake duration (ms) -->
     <g style="fill: #262626" transform="translate(21.612969 279.475625) rotate(-90) scale(0.12 -0.12)">
      <defs>
       <path id="ArialMT-48" d="M 513 0 
L 513 4581 
L 1119 4581 
L 1119 2700 
L 3500 2700 
L 3500 4581 
L 4106 4581 
L 4106 0 
L 3500 0 
L 3500 2159 
L 1119 2159 
L 1119 0 
L 513 0 
z
" transform="scale(0.015625)"/>
       <path id="ArialMT-61" d="M 2588 409 
Q 2275 144 1986 34 
Q 1697 -75 1366 -75 
Q 819 -75 525 192 
Q 231 459 231 875 
Q 231 1119 342 1320 
Q 453 1522 633 1644 
Q 813 1766 1038 1828 
Q 1203 1872 1538 1913 
Q 2219 1994 2541 2106 
Q 2544 2222 2544 2253 
Q 2544 2597 2384 2738 
Q 2169 2928 1744 2928 
Q 1347 2928 1158 2789 
Q 969 2650 878 2297 
L 328 2372 
Q 403 2725 575 2942 
Q 747 3159 1072 3276 
Q 1397 3394 1825 3394 
Q 2250 3394 2515 3294 
Q 2781 3194 2906 3042 
Q 3031 2891 3081 2659 
Q 3109 2516 3109 2141 
L 3109 1391 
Q 3109 606 3145 398 
Q 3181 191 3288 0 
L 2700 0 
Q 2613 175 2588 409 
z
M 2541 1666 
Q 2234 1541 1622 1453 
Q 1275 1403 1131 1340 
Q 988 1278 909 1158 
Q 831 1038 831 891 
Q 831 666 1001 516 
Q 1172 366 1500 366 
Q 1825 366 2078 508 
Q 2331 650 2450 897 
Q 2541 1088 2541 1459 
L 2541 1666 
z
" transform="scale(0.015625)"/>
       <path id="ArialMT-6e" d="M 422 0 
L 422 3319 
L 928 3319 
L 928 2847 
Q 1294 3394 1984 3394 
Q 2284 3394 2536 3286 
Q 2788 3178 2913 3003 
Q 3038 2828 3088 2588 
Q 3119 2431 3119 2041 
L 3119 0 
L 2556 0 
L 2556 2019 
Q 2556 2363 2490 2533 
Q 2425 2703 2258 2804 
Q 2091 2906 1866 2906 
Q 1506 2906 1245 2678 
Q 984 2450 984 1813 
L 984 0 
L 422 0 
z
" transform="scale(0.015625)"/>
       <path id="ArialMT-64" d="M 2575 0 
L 2575 419 
Q 2259 -75 1647 -75 
Q 1250 -75 917 144 
Q 584 363 401 755 
Q 219 1147 219 1656 
Q 219 2153 384 2558 
Q 550 2963 881 3178 
Q 1213 3394 1622 3394 
Q 1922 3394 2156 3267 
Q 2391 3141 2538 2938 
L 2538 4581 
L 3097 4581 
L 3097 0 
L 2575 0 
z
M 797 1656 
Q 797 1019 1065 703 
Q 1334 388 1700 388 
Q 2069 388 2326 689 
Q 2584 991 2584 1609 
Q 2584 2291 2321 2609 
Q 2059 2928 1675 2928 
Q 1300 2928 1048 2622 
Q 797 2316 797 1656 
z
" transform="scale(0.015625)"/>
       <path id="ArialMT-73" d="M 197 991 
L 753 1078 
Q 800 744 1014 566 
Q 1228 388 1613 388 
Q 2000 388 2187 545 
Q 2375 703 2375 916 
Q 2375 1106 2209 1216 
Q 2094 1291 1634 1406 
Q 1016 1563 777 1677 
Q 538 1791 414 1992 
Q 291 2194 291 2438 
Q 291 2659 392 2848 
Q 494 3038 669 3163 
Q 800 3259 1026 3326 
Q 1253 3394 1513 3394 
Q 1903 3394 2198 3281 
Q 2494 3169 2634 2976 
Q 2775 2784 2828 2463 
L 2278 2388 
Q 2241 2644 2061 2787 
Q 1881 2931 1553 2931 
Q 1166 2931 1000 2803 
Q 834 2675 834 2503 
Q 834 2394 903 2306 
Q 972 2216 1119 2156 
Q 1203 2125 1616 2013 
Q 2213 1853 2448 1751 
Q 2684 1650 2818 1456 
Q 2953 1263 2953 975 
Q 2953 694 2789 445 
Q 2625 197 2315 61 
Q 2006 -75 1616 -75 
Q 969 -75 630 194 
Q 291 463 197 991 
z
" transform="scale(0.015625)"/>
       <path id="ArialMT-68" d="M 422 0 
L 422 4581 
L 984 4581 
L 984 2938 
Q 1378 3394 1978 3394 
Q 2347 3394 2619 3248 
Q 2891 3103 3008 2847 
Q 3125 2591 3125 2103 
L 3125 0 
L 2563 0 
L 2563 2103 
Q 2563 2525 2380 2717 
Q 2197 2909 1863 2909 
Q 1613 2909 1392 2779 
Q 1172 2650 1078 2428 
Q 984 2206 984 1816 
L 984 0 
L 422 0 
z
" transform="scale(0.015625)"/>
       <path id="ArialMT-20" transform="scale(0.015625)"/>
       <path id="ArialMT-75" d="M 2597 0 
L 2597 488 
Q 2209 -75 1544 -75 
Q 1250 -75 995 37 
Q 741 150 617 320 
Q 494 491 444 738 
Q 409 903 409 1263 
L 409 3319 
L 972 3319 
L 972 1478 
Q 972 1038 1006 884 
Q 1059 663 1231 536 
Q 1403 409 1656 409 
Q 1909 409 2131 539 
Q 2353 669 2445 892 
Q 2538 1116 2538 1541 
L 2538 3319 
L 3100 3319 
L 3100 0 
L 2597 0 
z
" transform="scale(0.015625)"/>
       <path id="ArialMT-72" d="M 416 0 
L 416 3319 
L 922 3319 
L 922 2816 
Q 1116 3169 1280 3281 
Q 1444 3394 1641 3394 
Q 1925 3394 2219 3213 
L 2025 2691 
Q 1819 2813 1613 2813 
Q 1428 2813 1281 2702 
Q 1134 2591 1072 2394 
Q 978 2094 978 1738 
L 978 0 
L 416 0 
z
" transform="scale(0.015625)"/>
       <path id="ArialMT-74" d="M 1650 503 
L 1731 6 
Q 1494 -44 1306 -44 
Q 1000 -44 831 53 
Q 663 150 594 308 
Q 525 466 525 972 
L 525 2881 
L 113 2881 
L 113 3319 
L 525 3319 
L 525 4141 
L 1084 4478 
L 1084 3319 
L 1650 3319 
L 1650 2881 
L 1084 2881 
L 1084 941 
Q 1084 700 1114 631 
Q 1144 563 1211 522 
Q 1278 481 1403 481 
Q 1497 481 1650 503 
z
" transform="scale(0.015625)"/>
       <path id="ArialMT-69" d="M 425 3934 
L 425 4581 
L 988 4581 
L 988 3934 
L 425 3934 
z
M 425 0 
L 425 3319 
L 988 3319 
L 988 0 
L 425 0 
z
" transform="scale(0.015625)"/>
       <path id="ArialMT-6f" d="M 213 1659 
Q 213 2581 725 3025 
Q 1153 3394 1769 3394 
Q 2453 3394 2887 2945 
Q 3322 2497 3322 1706 
Q 3322 1066 3130 698 
Q 2938 331 2570 128 
Q 2203 -75 1769 -75 
Q 1072 -75 642 372 
Q 213 819 213 1659 
z
M 791 1659 
Q 791 1022 1069 705 
Q 1347 388 1769 388 
Q 2188 388 2466 706 
Q 2744 1025 2744 1678 
Q 2744 2294 2464 2611 
Q 2184 2928 1769 2928 
Q 1347 2928 1069 2612 
Q 791 2297 791 1659 
z
" transform="scale(0.015625)"/>
       <path id="ArialMT-28" d="M 1497 -1347 
Q 1031 -759 709 28 
Q 388 816 388 1659 
Q 388 2403 628 3084 
Q 909 3875 1497 4659 
L 1900 4659 
Q 1522 4009 1400 3731 
Q 1209 3300 1100 2831 
Q 966 2247 966 1656 
Q 966 153 1900 -1347 
L 1497 -1347 
z
" transform="scale(0.015625)"/>
       <path id="ArialMT-29" d="M 791 -1347 
L 388 -1347 
Q 1322 153 1322 1656 
Q 1322 2244 1188 2822 
Q 1081 3291 891 3722 
Q 769 4003 388 4659 
L 791 4659 
Q 1378 3875 1659 3084 
Q 1900 2403 1900 1659 
Q 1900 816 1576 28 
Q 1253 -759 791 -1347 
z
" transform="scale(0.015625)"/>
      </defs>
      <use xlink:href="#ArialMT-48"/>
      <use xlink:href="#ArialMT-61" x="72.216797"/>
      <use xlink:href="#ArialMT-6e" x="127.832031"/>
      <use xlink:href="#ArialMT-64" x="183.447266"/>
      <use xlink:href="#ArialMT-73" x="239.0625"/>
      <use xlink:href="#ArialMT-68" x="289.0625"/>
      <use xlink:href="#ArialMT-61" x="344.677734"/>
      <use xlink:href="#ArialMT-6b" x="400.292969"/>
      <use xlink:href="#ArialMT-65" x="450.292969"/>
      <use xlink:href="#ArialMT-20" x="505.908203"/>
      <use xlink:href="#ArialMT-64" x="533.691406"/>
      <use xlink:href="#ArialMT-75" x="589.306641"/>
      <use xlink:href="#ArialMT-72" x="644.921875"/>
      <use xlink:href="#ArialMT-61" x="678.222656"/>
      <use xlink:href="#ArialMT-74" x="733.837891"/>
      <use xlink:href="#ArialMT-69" x="761.621094"/>
      <use xlink:href="#ArialMT-6f" x="783.837891"/>
      <use xlink:href="#ArialMT-6e" x="839.453125"/>
      <use xlink:href="#ArialMT-20" x="895.068359"/>
      <use xlink:href="#ArialMT-28" x="922.851562"/>
      <use xlink:href="#ArialMT-6d" x="956.152344"/>
      <use xlink:href="#ArialMT-73" x="1039.453125"/>
      <use xlink:href="#ArialMT-29" x="1089.453125"/>
     </g>
    </g>
   </g>
   <g id="PolyCollection_1">
    <defs>
     <path id="m39714ebbc4" d="M 138.445062 -56.660075 
L 138.045063 -56.660075 
L 137.878441 -57.168552 
L 137.603658 -57.677029 
L 137.172613 -58.185507 
L 136.528525 -58.693984 
L 135.61016 -59.202461 
L 134.357969 -59.710938 
L 132.72102 -60.219416 
L 130.663161 -60.727893 
L 128.167136 -61.23637 
L 125.236293 -61.744848 
L 121.894774 -62.253325 
L 118.18791 -62.761802 
L 114.184337 -63.27028 
L 109.98005 -63.778757 
L 105.702659 -64.287234 
L 101.512681 -64.795712 
L 97.598736 -65.304189 
L 94.165136 -65.812666 
L 91.412945 -66.321143 
L 89.517779 -66.829621 
L 88.608507 -67.338098 
L 88.750358 -67.846575 
L 89.934598 -68.355053 
L 92.075698 -68.86353 
L 95.016312 -69.372007 
L 98.540071 -69.880485 
L 102.391614 -70.388962 
L 106.302116 -70.897439 
L 110.017196 -71.405916 
L 113.323158 -71.914394 
L 116.067691 -72.422871 
L 118.172157 -72.931348 
L 119.634028 -73.439826 
L 120.519338 -73.948303 
L 120.946096 -74.45678 
L 121.060927 -74.965258 
L 121.012772 -75.473735 
L 120.928837 -75.982212 
L 120.898199 -76.490689 
L 120.966737 -76.999167 
L 121.143625 -77.507644 
L 121.415792 -78.016121 
L 121.764304 -78.524599 
L 122.176647 -79.033076 
L 122.651395 -79.541553 
L 123.195328 -80.050031 
L 123.816164 -80.558508 
L 124.515308 -81.066985 
L 125.284207 -81.575462 
L 126.105642 -82.08394 
L 126.958767 -82.592417 
L 127.825061 -83.100894 
L 128.692131 -83.609372 
L 129.553577 -84.117849 
L 130.405091 -84.626326 
L 131.238873 -85.134804 
L 132.039303 -85.643281 
L 132.782356 -86.151758 
L 133.439636 -86.660235 
L 133.98588 -87.168713 
L 134.407262 -87.67719 
L 134.707354 -88.185667 
L 134.908445 -88.694145 
L 135.047531 -89.202622 
L 135.168169 -89.711099 
L 135.310671 -90.219577 
L 135.503521 -90.728054 
L 135.758315 -91.236531 
L 136.069279 -91.745008 
L 136.416957 -92.253486 
L 136.77453 -92.761963 
L 137.114716 -93.27044 
L 137.415367 -93.778918 
L 137.662622 -94.287395 
L 137.851401 -94.795872 
L 137.983843 -95.30435 
L 138.066716 -95.812827 
L 138.108838 -96.321304 
L 138.119209 -96.829781 
L 138.106077 -97.338259 
L 138.076744 -97.846736 
L 138.037726 -98.355213 
L 137.99488 -98.863691 
L 137.953339 -99.372168 
L 137.917295 -99.880645 
L 137.889817 -100.389123 
L 137.872846 -100.8976 
L 137.867385 -101.406077 
L 137.873733 -101.914555 
L 137.891593 -102.423032 
L 137.919995 -102.931509 
L 137.95712 -103.439986 
L 138.000245 -103.948464 
L 138.045957 -104.456941 
L 138.090658 -104.965418 
L 138.131194 -105.473896 
L 138.165379 -105.982373 
L 138.192242 -106.49085 
L 138.211939 -106.999328 
L 138.278186 -106.999328 
L 138.278186 -106.999328 
L 138.297883 -106.49085 
L 138.324746 -105.982373 
L 138.358931 -105.473896 
L 138.399467 -104.965418 
L 138.444168 -104.456941 
L 138.48988 -103.948464 
L 138.533005 -103.439986 
L 138.57013 -102.931509 
L 138.598532 -102.423032 
L 138.616392 -101.914555 
L 138.62274 -101.406077 
L 138.617279 -100.8976 
L 138.600308 -100.389123 
L 138.57283 -99.880645 
L 138.536786 -99.372168 
L 138.495245 -98.863691 
L 138.452399 -98.355213 
L 138.413381 -97.846736 
L 138.384048 -97.338259 
L 138.370916 -96.829781 
L 138.381287 -96.321304 
L 138.423409 -95.812827 
L 138.506282 -95.30435 
L 138.638724 -94.795872 
L 138.827503 -94.287395 
L 139.074758 -93.778918 
L 139.375409 -93.27044 
L 139.715595 -92.761963 
L 140.073168 -92.253486 
L 140.420846 -91.745008 
L 140.73181 -91.236531 
L 140.986604 -90.728054 
L 141.179454 -90.219577 
L 141.321956 -89.711099 
L 141.442594 -89.202622 
L 141.58168 -88.694145 
L 141.782771 -88.185667 
L 142.082863 -87.67719 
L 142.504245 -87.168713 
L 143.050489 -86.660235 
L 143.707769 -86.151758 
L 144.450822 -85.643281 
L 145.251252 -85.134804 
L 146.085034 -84.626326 
L 146.936548 -84.117849 
L 147.797994 -83.609372 
L 148.665064 -83.100894 
L 149.531358 -82.592417 
L 150.384483 -82.08394 
L 151.205918 -81.575462 
L 151.974817 -81.066985 
L 152.673961 -80.558508 
L 153.294797 -80.050031 
L 153.83873 -79.541553 
L 154.313478 -79.033076 
L 154.725821 -78.524599 
L 155.074333 -78.016121 
L 155.3465 -77.507644 
L 155.523388 -76.999167 
L 155.591926 -76.490689 
L 155.561288 -75.982212 
L 155.477353 -75.473735 
L 155.429198 -74.965258 
L 155.544029 -74.45678 
L 155.970787 -73.948303 
L 156.856097 -73.439826 
L 158.317968 -72.931348 
L 160.422434 -72.422871 
L 163.166967 -71.914394 
L 166.472929 -71.405916 
L 170.188009 -70.897439 
L 174.098511 -70.388962 
L 177.950054 -69.880485 
L 181.473813 -69.372007 
L 184.414427 -68.86353 
L 186.555527 -68.355053 
L 187.739767 -67.846575 
L 187.881618 -67.338098 
L 186.972346 -66.829621 
L 185.07718 -66.321143 
L 182.324989 -65.812666 
L 178.891389 -65.304189 
L 174.977444 -64.795712 
L 170.787466 -64.287234 
L 166.510075 -63.778757 
L 162.305788 -63.27028 
L 158.302215 -62.761802 
L 154.595351 -62.253325 
L 151.253832 -61.744848 
L 148.322989 -61.23637 
L 145.826964 -60.727893 
L 143.769105 -60.219416 
L 142.132156 -59.710938 
L 140.879965 -59.202461 
L 139.9616 -58.693984 
L 139.317512 -58.185507 
L 138.886467 -57.677029 
L 138.611684 -57.168552 
L 138.445062 -56.660075 
z
" style="stroke: #595959; stroke-width: 1.5"/>
    </defs>
    <g clip-path="url(#p8d4c9320ba)">
     <use xlink:href="#m39714ebbc4" x="0" y="432" style="fill: #72b6a1; stroke: #595959; stroke-width: 1.5"/>
    </g>
   </g>
   <g id="PolyCollection_2">
    <defs>
     <path id="m925cb1a095" d="M 297.045974 -52.189517 
L 296.241901 -52.189517 
L 295.967872 -52.551241 
L 295.548666 -52.912966 
L 294.932255 -53.27469 
L 294.059852 -53.636414 
L 292.86961 -53.998138 
L 291.301564 -54.359863 
L 289.303202 -54.721587 
L 286.834928 -55.083311 
L 283.87479 -55.445035 
L 280.42216 -55.806759 
L 276.500369 -56.168484 
L 272.158599 -56.530208 
L 267.473233 -56.891932 
L 262.5486 -57.253656 
L 257.516512 -57.615381 
L 252.533636 -57.977105 
L 247.775682 -58.338829 
L 243.427876 -58.700553 
L 239.672083 -59.062278 
L 236.672003 -59.424002 
L 234.558608 -59.785726 
L 233.418139 -60.14745 
L 233.284388 -60.509175 
L 234.135993 -60.870899 
L 235.898499 -61.232623 
L 238.450391 -61.594347 
L 241.632323 -61.956072 
L 245.259055 -62.317796 
L 249.133726 -62.67952 
L 253.06374 -63.041244 
L 256.87674 -63.402969 
L 260.434339 -63.764693 
L 263.641015 -64.126417 
L 266.446307 -64.488141 
L 268.839948 -64.849866 
L 270.841502 -65.21159 
L 272.487612 -65.573314 
L 273.820464 -65.935038 
L 274.8804 -66.296763 
L 275.703906 -66.658487 
L 276.326167 -67.020211 
L 276.78581 -67.381935 
L 277.128902 -67.74366 
L 277.409827 -68.105384 
L 277.688155 -68.467108 
L 278.022143 -68.828832 
L 278.460682 -69.190557 
L 279.035877 -69.552281 
L 279.758078 -69.914005 
L 280.614437 -70.275729 
L 281.57126 -70.637454 
L 282.579739 -70.999178 
L 283.584141 -71.360902 
L 284.531129 -71.722626 
L 285.378605 -72.084351 
L 286.10237 -72.446075 
L 286.699209 -72.807799 
L 287.185706 -73.169523 
L 287.593079 -73.531248 
L 287.959327 -73.892972 
L 288.320657 -74.254696 
L 288.70429 -74.61642 
L 289.12422 -74.978144 
L 289.580617 -75.339869 
L 290.062501 -75.701593 
L 290.552462 -76.063317 
L 291.031871 -76.425041 
L 291.485124 -76.786766 
L 291.902082 -77.14849 
L 292.278572 -77.510214 
L 292.615403 -77.871938 
L 292.916693 -78.233663 
L 293.188177 -78.595387 
L 293.435904 -78.957111 
L 293.665401 -79.318835 
L 293.881164 -79.68056 
L 294.08634 -80.042284 
L 294.282556 -80.404008 
L 294.469961 -80.765732 
L 294.647554 -81.127457 
L 294.813779 -81.489181 
L 294.967272 -81.850905 
L 295.107537 -82.212629 
L 295.235371 -82.574354 
L 295.352915 -82.936078 
L 295.463315 -83.297802 
L 295.570104 -83.659526 
L 295.676436 -84.021251 
L 295.784371 -84.382975 
L 295.894392 -84.744699 
L 296.005267 -85.106423 
L 296.114317 -85.468148 
L 296.218013 -85.829872 
L 296.312742 -86.191596 
L 296.395545 -86.55332 
L 296.464625 -86.915045 
L 296.519548 -87.276769 
L 296.56113 -87.638493 
L 296.591093 -88.000217 
L 296.696782 -88.000217 
L 296.696782 -88.000217 
L 296.726745 -87.638493 
L 296.768327 -87.276769 
L 296.82325 -86.915045 
L 296.89233 -86.55332 
L 296.975133 -86.191596 
L 297.069862 -85.829872 
L 297.173558 -85.468148 
L 297.282608 -85.106423 
L 297.393483 -84.744699 
L 297.503504 -84.382975 
L 297.611439 -84.021251 
L 297.717771 -83.659526 
L 297.82456 -83.297802 
L 297.93496 -82.936078 
L 298.052504 -82.574354 
L 298.180338 -82.212629 
L 298.320603 -81.850905 
L 298.474096 -81.489181 
L 298.640321 -81.127457 
L 298.817914 -80.765732 
L 299.005319 -80.404008 
L 299.201535 -80.042284 
L 299.406711 -79.68056 
L 299.622474 -79.318835 
L 299.851971 -78.957111 
L 300.099698 -78.595387 
L 300.371182 -78.233663 
L 300.672472 -77.871938 
L 301.009303 -77.510214 
L 301.385793 -77.14849 
L 301.802751 -76.786766 
L 302.256004 -76.425041 
L 302.735413 -76.063317 
L 303.225374 -75.701593 
L 303.707258 -75.339869 
L 304.163655 -74.978144 
L 304.583585 -74.61642 
L 304.967218 -74.254696 
L 305.328548 -73.892972 
L 305.694796 -73.531248 
L 306.102169 -73.169523 
L 306.588666 -72.807799 
L 307.185505 -72.446075 
L 307.90927 -72.084351 
L 308.756746 -71.722626 
L 309.703734 -71.360902 
L 310.708136 -70.999178 
L 311.716615 -70.637454 
L 312.673438 -70.275729 
L 313.529797 -69.914005 
L 314.251998 -69.552281 
L 314.827193 -69.190557 
L 315.265732 -68.828832 
L 315.59972 -68.467108 
L 315.878048 -68.105384 
L 316.158973 -67.74366 
L 316.502065 -67.381935 
L 316.961708 -67.020211 
L 317.583969 -66.658487 
L 318.407475 -66.296763 
L 319.467411 -65.935038 
L 320.800263 -65.573314 
L 322.446373 -65.21159 
L 324.447927 -64.849866 
L 326.841568 -64.488141 
L 329.64686 -64.126417 
L 332.853536 -63.764693 
L 336.411135 -63.402969 
L 340.224135 -63.041244 
L 344.154149 -62.67952 
L 348.02882 -62.317796 
L 351.655552 -61.956072 
L 354.837484 -61.594347 
L 357.389376 -61.232623 
L 359.151882 -60.870899 
L 360.003488 -60.509175 
L 359.869736 -60.14745 
L 358.729267 -59.785726 
L 356.615872 -59.424002 
L 353.615792 -59.062278 
L 349.859999 -58.700553 
L 345.512193 -58.338829 
L 340.754239 -57.977105 
L 335.771363 -57.615381 
L 330.739275 -57.253656 
L 325.814642 -56.891932 
L 321.129276 -56.530208 
L 316.787506 -56.168484 
L 312.865715 -55.806759 
L 309.413085 -55.445035 
L 306.452947 -55.083311 
L 303.984673 -54.721587 
L 301.986311 -54.359863 
L 300.418265 -53.998138 
L 299.228023 -53.636414 
L 298.35562 -53.27469 
L 297.739209 -52.912966 
L 297.320003 -52.551241 
L 297.045974 -52.189517 
z
" style="stroke: #595959; stroke-width: 1.5"/>
    </defs>
    <g clip-path="url(#p8d4c9320ba)">
     <use xlink:href="#m925cb1a095" x="0" y="432" style="fill: #e99675; stroke: #595959; stroke-width: 1.5"/>
    </g>
   </g>
   <g id="PolyCollection_3">
    <defs>
     <path id="md670e71c7d" d="M 455.304958 -187.848188 
L 454.780667 -187.848188 
L 454.63281 -189.86568 
L 454.418834 -191.883171 
L 454.118709 -193.900663 
L 453.710921 -195.918155 
L 453.174512 -197.935646 
L 452.491941 -199.953138 
L 451.652552 -201.970629 
L 450.656256 -203.988121 
L 449.516819 -206.005613 
L 448.264039 -208.023104 
L 446.944125 -210.040596 
L 445.617777 -212.058087 
L 444.355825 -214.075579 
L 443.232749 -216.093071 
L 442.318867 -218.110562 
L 441.672349 -220.128054 
L 441.332357 -222.145546 
L 441.314485 -224.163037 
L 441.60929 -226.180529 
L 442.184145 -228.19802 
L 442.988013 -230.215512 
L 443.958256 -232.233004 
L 445.028246 -234.250495 
L 446.134541 -236.267987 
L 447.222606 -238.285478 
L 448.250423 -240.30297 
L 449.189842 -242.320462 
L 450.025915 -244.337953 
L 450.754753 -246.355445 
L 451.380585 -248.372937 
L 451.912663 -250.390428 
L 452.362508 -252.40792 
L 452.741811 -254.425411 
L 453.061079 -256.442903 
L 453.328974 -258.460395 
L 453.55219 -260.477886 
L 453.735663 -262.495378 
L 453.882946 -264.512869 
L 453.996618 -266.530361 
L 454.078636 -268.547853 
L 454.130629 -270.565344 
L 454.154128 -272.582836 
L 454.150756 -274.600328 
L 454.122408 -276.617819 
L 454.071407 -278.635311 
L 454.000634 -280.652802 
L 453.913587 -282.670294 
L 453.814351 -284.687786 
L 453.707452 -286.705277 
L 453.597592 -288.722769 
L 453.4893 -290.74026 
L 453.386542 -292.757752 
L 453.29236 -294.775244 
L 453.208596 -296.792735 
L 453.13578 -298.810227 
L 453.073195 -300.827719 
L 453.019154 -302.84521 
L 452.971428 -304.862702 
L 452.927807 -306.880193 
L 452.886667 -308.897685 
L 452.847476 -310.915177 
L 452.81112 -312.932668 
L 452.779982 -314.95016 
L 452.757731 -316.967651 
L 452.748848 -318.985143 
L 452.757948 -321.002635 
L 452.789023 -323.020126 
L 452.844739 -325.037618 
L 452.925921 -327.05511 
L 453.031319 -329.072601 
L 453.157695 -331.090093 
L 453.300201 -333.107584 
L 453.452969 -335.125076 
L 453.609795 -337.142568 
L 453.764797 -339.160059 
L 453.912952 -341.177551 
L 454.050439 -343.195042 
L 454.174783 -345.212534 
L 454.284824 -347.230026 
L 454.380543 -349.247517 
L 454.462812 -351.265009 
L 454.533123 -353.282501 
L 454.593311 -355.299992 
L 454.645314 -357.317484 
L 454.690981 -359.334975 
L 454.731915 -361.352467 
L 454.769375 -363.369959 
L 454.804229 -365.38745 
L 454.836957 -367.404942 
L 454.867703 -369.422433 
L 454.896354 -371.439925 
L 454.922653 -373.457417 
L 454.946301 -375.474908 
L 454.967047 -377.4924 
L 454.984756 -379.509891 
L 454.999437 -381.527383 
L 455.011243 -383.544875 
L 455.020444 -385.562366 
L 455.027393 -387.579858 
L 455.058232 -387.579858 
L 455.058232 -387.579858 
L 455.065181 -385.562366 
L 455.074382 -383.544875 
L 455.086188 -381.527383 
L 455.100869 -379.509891 
L 455.118578 -377.4924 
L 455.139324 -375.474908 
L 455.162972 -373.457417 
L 455.189271 -371.439925 
L 455.217922 -369.422433 
L 455.248668 -367.404942 
L 455.281396 -365.38745 
L 455.31625 -363.369959 
L 455.35371 -361.352467 
L 455.394644 -359.334975 
L 455.440311 -357.317484 
L 455.492314 -355.299992 
L 455.552502 -353.282501 
L 455.622813 -351.265009 
L 455.705082 -349.247517 
L 455.800801 -347.230026 
L 455.910842 -345.212534 
L 456.035186 -343.195042 
L 456.172673 -341.177551 
L 456.320828 -339.160059 
L 456.47583 -337.142568 
L 456.632656 -335.125076 
L 456.785424 -333.107584 
L 456.92793 -331.090093 
L 457.054306 -329.072601 
L 457.159704 -327.05511 
L 457.240886 -325.037618 
L 457.296602 -323.020126 
L 457.327677 -321.002635 
L 457.336777 -318.985143 
L 457.327894 -316.967651 
L 457.305643 -314.95016 
L 457.274505 -312.932668 
L 457.238149 -310.915177 
L 457.198958 -308.897685 
L 457.157818 -306.880193 
L 457.114197 -304.862702 
L 457.066471 -302.84521 
L 457.01243 -300.827719 
L 456.949845 -298.810227 
L 456.877029 -296.792735 
L 456.793265 -294.775244 
L 456.699083 -292.757752 
L 456.596325 -290.74026 
L 456.488033 -288.722769 
L 456.378173 -286.705277 
L 456.271274 -284.687786 
L 456.172038 -282.670294 
L 456.084991 -280.652802 
L 456.014218 -278.635311 
L 455.963217 -276.617819 
L 455.934869 -274.600328 
L 455.931497 -272.582836 
L 455.954996 -270.565344 
L 456.006989 -268.547853 
L 456.089007 -266.530361 
L 456.202679 -264.512869 
L 456.349962 -262.495378 
L 456.533435 -260.477886 
L 456.756651 -258.460395 
L 457.024546 -256.442903 
L 457.343814 -254.425411 
L 457.723117 -252.40792 
L 458.172962 -250.390428 
L 458.70504 -248.372937 
L 459.330872 -246.355445 
L 460.05971 -244.337953 
L 460.895783 -242.320462 
L 461.835202 -240.30297 
L 462.863019 -238.285478 
L 463.951084 -236.267987 
L 465.057379 -234.250495 
L 466.127369 -232.233004 
L 467.097612 -230.215512 
L 467.90148 -228.19802 
L 468.476335 -226.180529 
L 468.77114 -224.163037 
L 468.753268 -222.145546 
L 468.413276 -220.128054 
L 467.766758 -218.110562 
L 466.852876 -216.093071 
L 465.7298 -214.075579 
L 464.467848 -212.058087 
L 463.1415 -210.040596 
L 461.821586 -208.023104 
L 460.568806 -206.005613 
L 459.429369 -203.988121 
L 458.433073 -201.970629 
L 457.593684 -199.953138 
L 456.911113 -197.935646 
L 456.374704 -195.918155 
L 455.966916 -193.900663 
L 455.666791 -191.883171 
L 455.452815 -189.86568 
L 455.304958 -187.848188 
z
" style="stroke: #595959; stroke-width: 1.5"/>
    </defs>
    <g clip-path="url(#p8d4c9320ba)">
     <use xlink:href="#md670e71c7d" x="0" y="432" style="fill: #95a3c3; stroke: #595959; stroke-width: 1.5"/>
    </g>
   </g>
   <g id="PolyCollection_4">
    <defs>
     <path id="m4d5106e3fe" d="M 613.64421 -87.479068 
L 613.239165 -87.479068 
L 613.049992 -88.280443 
L 612.717009 -89.081819 
L 612.159238 -89.883194 
L 611.270838 -90.684569 
L 609.92662 -91.485945 
L 607.996595 -92.28732 
L 605.370543 -93.088696 
L 601.99037 -93.890071 
L 597.884066 -94.691446 
L 593.191811 -95.492822 
L 588.173988 -96.294197 
L 583.193683 -97.095572 
L 578.672601 -97.896948 
L 575.027311 -98.698323 
L 572.599509 -99.499699 
L 571.596875 -100.301074 
L 572.058857 -101.102449 
L 573.85512 -101.903825 
L 576.715724 -102.7052 
L 580.284339 -103.506576 
L 584.181102 -104.307951 
L 588.061065 -105.109326 
L 591.65712 -105.910702 
L 594.801514 -106.712077 
L 597.425743 -107.513452 
L 599.543376 -108.314828 
L 601.22309 -109.116203 
L 602.559669 -109.917579 
L 603.649287 -110.718954 
L 604.572799 -111.520329 
L 605.387902 -112.321705 
L 606.128741 -113.12308 
L 606.810191 -113.924455 
L 607.433846 -114.725831 
L 607.993435 -115.527206 
L 608.47852 -116.328582 
L 608.876471 -117.129957 
L 609.173485 -117.931332 
L 609.355634 -118.732708 
L 609.410688 -119.534083 
L 609.330952 -120.335458 
L 609.116771 -121.136834 
L 608.779899 -121.938209 
L 608.345698 -122.739585 
L 607.853162 -123.54096 
L 607.352163 -124.342335 
L 606.897977 -125.143711 
L 606.543923 -125.945086 
L 606.333585 -126.746461 
L 606.294306 -127.547837 
L 606.43334 -128.349212 
L 606.737401 -129.150588 
L 607.175556 -129.951963 
L 607.704741 -130.753338 
L 608.276807 -131.554714 
L 608.845836 -132.356089 
L 609.374517 -133.157464 
L 609.838565 -133.95884 
L 610.228491 -134.760215 
L 610.548524 -135.561591 
L 610.813082 -136.362966 
L 611.041704 -137.164341 
L 611.253736 -137.965717 
L 611.464016 -138.767092 
L 611.680453 -139.568468 
L 611.903782 -140.369843 
L 612.129137 -141.171218 
L 612.348621 -141.972594 
L 612.55396 -142.773969 
L 612.738509 -143.575344 
L 612.898257 -144.37672 
L 613.031909 -145.178095 
L 613.140341 -145.979471 
L 613.225829 -146.780846 
L 613.291338 -147.582221 
L 613.34001 -148.383597 
L 613.374849 -149.184972 
L 613.398542 -149.986347 
L 613.413336 -150.787723 
L 613.420956 -151.589098 
L 613.422578 -152.390474 
L 613.418881 -153.191849 
L 613.410225 -153.993224 
L 613.396933 -154.7946 
L 613.379623 -155.595975 
L 613.359497 -156.39735 
L 613.338466 -157.198726 
L 613.319022 -158.000101 
L 613.303853 -158.801477 
L 613.295275 -159.602852 
L 613.294676 -160.404227 
L 613.302156 -161.205603 
L 613.316509 -162.006978 
L 613.335536 -162.808353 
L 613.356601 -163.609729 
L 613.377221 -164.411104 
L 613.395519 -165.21248 
L 613.410434 -166.013855 
L 613.421689 -166.81523 
L 613.461686 -166.81523 
L 613.461686 -166.81523 
L 613.472941 -166.013855 
L 613.487856 -165.21248 
L 613.506154 -164.411104 
L 613.526774 -163.609729 
L 613.547839 -162.808353 
L 613.566866 -162.006978 
L 613.581219 -161.205603 
L 613.588699 -160.404227 
L 613.5881 -159.602852 
L 613.579522 -158.801477 
L 613.564353 -158.000101 
L 613.544909 -157.198726 
L 613.523878 -156.39735 
L 613.503752 -155.595975 
L 613.486442 -154.7946 
L 613.47315 -153.993224 
L 613.464494 -153.191849 
L 613.460797 -152.390474 
L 613.462419 -151.589098 
L 613.470039 -150.787723 
L 613.484833 -149.986347 
L 613.508526 -149.184972 
L 613.543365 -148.383597 
L 613.592037 -147.582221 
L 613.657546 -146.780846 
L 613.743034 -145.979471 
L 613.851466 -145.178095 
L 613.985118 -144.37672 
L 614.144866 -143.575344 
L 614.329415 -142.773969 
L 614.534754 -141.972594 
L 614.754238 -141.171218 
L 614.979593 -140.369843 
L 615.202922 -139.568468 
L 615.419359 -138.767092 
L 615.629639 -137.965717 
L 615.841671 -137.164341 
L 616.070293 -136.362966 
L 616.334851 -135.561591 
L 616.654884 -134.760215 
L 617.04481 -133.95884 
L 617.508858 -133.157464 
L 618.037539 -132.356089 
L 618.606568 -131.554714 
L 619.178634 -130.753338 
L 619.707819 -129.951963 
L 620.145974 -129.150588 
L 620.450035 -128.349212 
L 620.589069 -127.547837 
L 620.54979 -126.746461 
L 620.339452 -125.945086 
L 619.985398 -125.143711 
L 619.531212 -124.342335 
L 619.030213 -123.54096 
L 618.537677 -122.739585 
L 618.103476 -121.938209 
L 617.766604 -121.136834 
L 617.552423 -120.335458 
L 617.472687 -119.534083 
L 617.527741 -118.732708 
L 617.70989 -117.931332 
L 618.006904 -117.129957 
L 618.404855 -116.328582 
L 618.88994 -115.527206 
L 619.449529 -114.725831 
L 620.073184 -113.924455 
L 620.754634 -113.12308 
L 621.495473 -112.321705 
L 622.310576 -111.520329 
L 623.234088 -110.718954 
L 624.323706 -109.917579 
L 625.660285 -109.116203 
L 627.339999 -108.314828 
L 629.457632 -107.513452 
L 632.081861 -106.712077 
L 635.226255 -105.910702 
L 638.82231 -105.109326 
L 642.702273 -104.307951 
L 646.599036 -103.506576 
L 650.167651 -102.7052 
L 653.028255 -101.903825 
L 654.824518 -101.102449 
L 655.2865 -100.301074 
L 654.283866 -99.499699 
L 651.856064 -98.698323 
L 648.210774 -97.896948 
L 643.689692 -97.095572 
L 638.709387 -96.294197 
L 633.691564 -95.492822 
L 628.999309 -94.691446 
L 624.893005 -93.890071 
L 621.512832 -93.088696 
L 618.88678 -92.28732 
L 616.956755 -91.485945 
L 615.612537 -90.684569 
L 614.724137 -89.883194 
L 614.166366 -89.081819 
L 613.833383 -88.280443 
L 613.64421 -87.479068 
z
" style="stroke: #595959; stroke-width: 1.5"/>
    </defs>
    <g clip-path="url(#p8d4c9320ba)">
     <use xlink:href="#m4d5106e3fe" x="0" y="432" style="fill: #db96c0; stroke: #595959; stroke-width: 1.5"/>
    </g>
   </g>
   <g id="PolyCollection_5">
    <defs>
     <path id="mcb802c5601" d="M 771.955492 -53.592837 
L 771.725633 -53.592837 
L 771.585976 -54.2211 
L 771.319498 -54.849363 
L 770.851721 -55.477626 
L 770.094594 -56.105889 
L 768.962843 -56.734152 
L 767.398908 -57.362415 
L 765.399296 -57.990678 
L 763.028942 -58.618941 
L 760.408495 -59.247204 
L 757.667586 -59.875467 
L 754.875391 -60.50373 
L 751.979341 -61.131993 
L 748.789774 -61.760256 
L 745.034917 -62.388519 
L 740.481911 -63.016782 
L 735.08851 -63.645045 
L 729.127643 -64.273308 
L 723.22123 -64.901571 
L 718.239891 -65.529834 
L 715.076654 -66.158097 
L 714.36984 -66.78636 
L 716.292349 -67.414623 
L 720.503477 -68.042886 
L 726.2783 -68.671149 
L 732.740294 -69.299412 
L 739.085168 -69.927675 
L 744.716224 -70.555938 
L 749.279609 -71.184201 
L 752.638765 -71.812464 
L 754.834163 -72.440727 
L 756.048799 -73.06899 
L 756.57243 -73.697253 
L 756.749417 -74.325516 
L 756.90738 -74.953779 
L 757.283521 -75.582042 
L 757.976897 -76.210305 
L 758.948728 -76.838568 
L 760.070768 -77.466831 
L 761.196991 -78.095094 
L 762.222828 -78.723357 
L 763.106848 -79.35162 
L 763.854767 -79.979883 
L 764.487372 -80.608146 
L 765.018051 -81.236409 
L 765.451882 -81.864672 
L 765.799862 -82.492935 
L 766.092692 -83.121198 
L 766.38199 -83.749461 
L 766.726545 -84.377724 
L 767.170051 -85.005987 
L 767.72167 -85.63425 
L 768.350439 -86.262513 
L 768.997926 -86.890776 
L 769.602752 -87.519039 
L 770.123168 -88.147302 
L 770.546009 -88.775565 
L 770.880458 -89.403828 
L 771.144435 -90.032091 
L 771.353391 -90.660354 
L 771.516419 -91.288617 
L 771.638361 -91.91688 
L 771.723634 -92.545143 
L 771.778408 -93.173406 
L 771.81038 -93.801669 
L 771.827233 -94.429932 
L 771.835226 -95.058195 
L 771.838631 -95.686458 
L 771.839931 -96.314721 
L 771.840377 -96.942984 
L 771.840513 -97.571247 
L 771.840551 -98.19951 
L 771.84056 -98.827773 
L 771.840562 -99.456036 
L 771.840562 -100.084299 
L 771.840562 -100.712562 
L 771.840562 -101.340825 
L 771.840562 -101.969088 
L 771.840561 -102.597351 
L 771.840556 -103.225614 
L 771.840533 -103.853877 
L 771.840447 -104.48214 
L 771.840164 -105.110403 
L 771.839325 -105.738666 
L 771.837117 -106.366929 
L 771.831957 -106.995192 
L 771.821278 -107.623455 
L 771.801795 -108.251718 
L 771.770648 -108.879981 
L 771.72745 -109.508244 
L 771.676391 -110.136507 
L 771.626804 -110.76477 
L 771.590878 -111.393033 
L 771.578925 -112.021296 
L 771.59461 -112.649559 
L 771.633146 -113.277822 
L 771.683643 -113.906085 
L 771.734062 -114.534348 
L 771.775719 -115.162611 
L 771.805144 -115.790874 
L 771.875981 -115.790874 
L 771.875981 -115.790874 
L 771.905406 -115.162611 
L 771.947063 -114.534348 
L 771.997482 -113.906085 
L 772.047979 -113.277822 
L 772.086515 -112.649559 
L 772.1022 -112.021296 
L 772.090247 -111.393033 
L 772.054321 -110.76477 
L 772.004734 -110.136507 
L 771.953675 -109.508244 
L 771.910477 -108.879981 
L 771.87933 -108.251718 
L 771.859847 -107.623455 
L 771.849168 -106.995192 
L 771.844008 -106.366929 
L 771.8418 -105.738666 
L 771.840961 -105.110403 
L 771.840678 -104.48214 
L 771.840592 -103.853877 
L 771.840569 -103.225614 
L 771.840564 -102.597351 
L 771.840563 -101.969088 
L 771.840563 -101.340825 
L 771.840563 -100.712562 
L 771.840563 -100.084299 
L 771.840563 -99.456036 
L 771.840565 -98.827773 
L 771.840574 -98.19951 
L 771.840612 -97.571247 
L 771.840748 -96.942984 
L 771.841194 -96.314721 
L 771.842494 -95.686458 
L 771.845899 -95.058195 
L 771.853892 -94.429932 
L 771.870745 -93.801669 
L 771.902717 -93.173406 
L 771.957491 -92.545143 
L 772.042764 -91.91688 
L 772.164706 -91.288617 
L 772.327734 -90.660354 
L 772.53669 -90.032091 
L 772.800667 -89.403828 
L 773.135116 -88.775565 
L 773.557957 -88.147302 
L 774.078373 -87.519039 
L 774.683199 -86.890776 
L 775.330686 -86.262513 
L 775.959455 -85.63425 
L 776.511074 -85.005987 
L 776.95458 -84.377724 
L 777.299135 -83.749461 
L 777.588433 -83.121198 
L 777.881263 -82.492935 
L 778.229243 -81.864672 
L 778.663074 -81.236409 
L 779.193753 -80.608146 
L 779.826358 -79.979883 
L 780.574277 -79.35162 
L 781.458297 -78.723357 
L 782.484134 -78.095094 
L 783.610357 -77.466831 
L 784.732397 -76.838568 
L 785.704228 -76.210305 
L 786.397604 -75.582042 
L 786.773745 -74.953779 
L 786.931708 -74.325516 
L 787.108695 -73.697253 
L 787.632326 -73.06899 
L 788.846962 -72.440727 
L 791.04236 -71.812464 
L 794.401516 -71.184201 
L 798.964901 -70.555938 
L 804.595957 -69.927675 
L 810.940831 -69.299412 
L 817.402825 -68.671149 
L 823.177648 -68.042886 
L 827.388776 -67.414623 
L 829.311285 -66.78636 
L 828.604471 -66.158097 
L 825.441234 -65.529834 
L 820.459895 -64.901571 
L 814.553482 -64.273308 
L 808.592615 -63.645045 
L 803.199214 -63.016782 
L 798.646208 -62.388519 
L 794.891351 -61.760256 
L 791.701784 -61.131993 
L 788.805734 -60.50373 
L 786.013539 -59.875467 
L 783.27263 -59.247204 
L 780.652183 -58.618941 
L 778.281829 -57.990678 
L 776.282217 -57.362415 
L 774.718282 -56.734152 
L 773.586531 -56.105889 
L 772.829404 -55.477626 
L 772.361627 -54.849363 
L 772.095149 -54.2211 
L 771.955492 -53.592837 
z
" style="stroke: #595959; stroke-width: 1.5"/>
    </defs>
    <g clip-path="url(#p8d4c9320ba)">
     <use xlink:href="#mcb802c5601" x="0" y="432" style="fill: #a2c865; stroke: #595959; stroke-width: 1.5"/>
    </g>
   </g>
   <g id="line2d_9">
    <path d="M 138.245063 365.625934 
L 138.245063 371.159433 
" clip-path="url(#p8d4c9320ba)" style="fill: none; stroke: #000000; stroke-width: 1.5; stroke-linecap: round"/>
   </g>
   <g id="line2d_10">
    <path d="M 138.245063 356.085418 
L 138.245063 341.965456 
" clip-path="url(#p8d4c9320ba)" style="fill: none; stroke: #000000; stroke-width: 1.5; stroke-linecap: round"/>
   </g>
   <g id="line2d_11">
    <path d="M 132.305105 371.159433 
L 144.18502 371.159433 
" clip-path="url(#p8d4c9320ba)" style="fill: none; stroke: #000000; stroke-width: 1.5; stroke-linecap: round"/>
   </g>
   <g id="line2d_12">
    <path d="M 132.305105 341.965456 
L 144.18502 341.965456 
" clip-path="url(#p8d4c9320ba)" style="fill: none; stroke: #000000; stroke-width: 1.5; stroke-linecap: round"/>
   </g>
   <g id="line2d_13">
    <path d="M 296.643937 372.351997 
L 296.643937 376.502121 
" clip-path="url(#p8d4c9320ba)" style="fill: none; stroke: #000000; stroke-width: 1.5; stroke-linecap: round"/>
   </g>
   <g id="line2d_14">
    <path d="M 296.643937 365.959852 
L 296.643937 356.467039 
" clip-path="url(#p8d4c9320ba)" style="fill: none; stroke: #000000; stroke-width: 1.5; stroke-linecap: round"/>
   </g>
   <g id="line2d_15">
    <path d="M 290.70398 376.502121 
L 302.583895 376.502121 
" clip-path="url(#p8d4c9320ba)" style="fill: none; stroke: #000000; stroke-width: 1.5; stroke-linecap: round"/>
   </g>
   <g id="line2d_16">
    <path d="M 290.70398 356.467039 
L 302.583895 356.467039 
" clip-path="url(#p8d4c9320ba)" style="fill: none; stroke: #000000; stroke-width: 1.5; stroke-linecap: round"/>
   </g>
   <g id="line2d_17">
    <path d="M 455.042813 211.069585 
L 455.042813 220.991721 
" clip-path="url(#p8d4c9320ba)" style="fill: none; stroke: #000000; stroke-width: 1.5; stroke-linecap: round"/>
   </g>
   <g id="line2d_18">
    <path d="M 455.042813 181.255474 
L 455.042813 136.653565 
" clip-path="url(#p8d4c9320ba)" style="fill: none; stroke: #000000; stroke-width: 1.5; stroke-linecap: round"/>
   </g>
   <g id="line2d_19">
    <path d="M 449.102855 220.991721 
L 460.98277 220.991721 
" clip-path="url(#p8d4c9320ba)" style="fill: none; stroke: #000000; stroke-width: 1.5; stroke-linecap: round"/>
   </g>
   <g id="line2d_20">
    <path d="M 449.102855 136.653565 
L 460.98277 136.653565 
" clip-path="url(#p8d4c9320ba)" style="fill: none; stroke: #000000; stroke-width: 1.5; stroke-linecap: round"/>
   </g>
   <g id="line2d_21">
    <path d="M 613.441688 332.615751 
L 613.441688 337.767629 
" clip-path="url(#p8d4c9320ba)" style="fill: none; stroke: #000000; stroke-width: 1.5; stroke-linecap: round"/>
   </g>
   <g id="line2d_22">
    <path d="M 613.441688 321.69186 
L 613.441688 305.329877 
" clip-path="url(#p8d4c9320ba)" style="fill: none; stroke: #000000; stroke-width: 1.5; stroke-linecap: round"/>
   </g>
   <g id="line2d_23">
    <path d="M 607.50173 337.767629 
L 619.381645 337.767629 
" clip-path="url(#p8d4c9320ba)" style="fill: none; stroke: #000000; stroke-width: 1.5; stroke-linecap: round"/>
   </g>
   <g id="line2d_24">
    <path d="M 607.50173 305.329877 
L 619.381645 305.329877 
" clip-path="url(#p8d4c9320ba)" style="fill: none; stroke: #000000; stroke-width: 1.5; stroke-linecap: round"/>
   </g>
   <g id="line2d_25">
    <path d="M 771.840563 366.961606 
L 771.840563 374.594018 
" clip-path="url(#p8d4c9320ba)" style="fill: none; stroke: #000000; stroke-width: 1.5; stroke-linecap: round"/>
   </g>
   <g id="line2d_26">
    <path d="M 771.840563 361.046486 
L 771.840563 352.269212 
" clip-path="url(#p8d4c9320ba)" style="fill: none; stroke: #000000; stroke-width: 1.5; stroke-linecap: round"/>
   </g>
   <g id="line2d_27">
    <path d="M 765.900605 374.594018 
L 777.78052 374.594018 
" clip-path="url(#p8d4c9320ba)" style="fill: none; stroke: #000000; stroke-width: 1.5; stroke-linecap: round"/>
   </g>
   <g id="line2d_28">
    <path d="M 765.900605 352.269212 
L 777.78052 352.269212 
" clip-path="url(#p8d4c9320ba)" style="fill: none; stroke: #000000; stroke-width: 1.5; stroke-linecap: round"/>
   </g>
   <g id="line2d_29">
    <path d="M 126.365147 362.859184 
L 150.124978 362.859184 
" clip-path="url(#p8d4c9320ba)" style="fill: none; stroke: #ff0000; stroke-width: 2"/>
   </g>
   <g id="line2d_30">
    <path d="M 284.764022 370.300786 
L 308.523853 370.300786 
" clip-path="url(#p8d4c9320ba)" style="fill: none; stroke: #ff0000; stroke-width: 2"/>
   </g>
   <g id="line2d_31">
    <path d="M 443.162897 206.490137 
L 466.922728 206.490137 
" clip-path="url(#p8d4c9320ba)" style="fill: none; stroke: #ff0000; stroke-width: 2"/>
   </g>
   <g id="line2d_32">
    <path d="M 601.561772 330.135217 
L 625.321603 330.135217 
" clip-path="url(#p8d4c9320ba)" style="fill: none; stroke: #ff0000; stroke-width: 2"/>
   </g>
   <g id="line2d_33">
    <path d="M 759.960647 364.862693 
L 783.720478 364.862693 
" clip-path="url(#p8d4c9320ba)" style="fill: none; stroke: #ff0000; stroke-width: 2"/>
   </g>
   <g id="patch_3">
    <path d="M 59.045625 396.58 
L 59.045625 27.650625 
" style="fill: none; stroke: #cccccc; stroke-width: 1.25; stroke-linejoin: miter; stroke-linecap: square"/>
   </g>
   <g id="patch_4">
    <path d="M 851.04 396.58 
L 851.04 27.650625 
" style="fill: none; stroke: #cccccc; stroke-width: 1.25; stroke-linejoin: miter; stroke-linecap: square"/>
   </g>
   <g id="patch_5">
    <path d="M 59.045625 396.58 
L 851.04 396.58 
" style="fill: none; stroke: #cccccc; stroke-width: 1.25; stroke-linejoin: miter; stroke-linecap: square"/>
   </g>
   <g id="patch_6">
    <path d="M 59.045625 27.650625 
L 851.04 27.650625 
" style="fill: none; stroke: #cccccc; stroke-width: 1.25; stroke-linejoin: miter; stroke-linecap: square"/>
   </g>
   <g id="text_15">
    <!-- Handshake duration on QUIC with ed25519 signature algorithm -->
    <g style="fill: #262626" transform="translate(286.287187 21.650625) scale(0.12 -0.12)">
     <defs>
      <path id="ArialMT-51" d="M 3966 491 
Q 4388 200 4744 66 
L 4566 -356 
Q 4072 -178 3581 206 
Q 3072 -78 2456 -78 
Q 1834 -78 1328 222 
Q 822 522 548 1065 
Q 275 1609 275 2291 
Q 275 2969 550 3525 
Q 825 4081 1333 4372 
Q 1841 4663 2469 4663 
Q 3103 4663 3612 4361 
Q 4122 4059 4389 3517 
Q 4656 2975 4656 2294 
Q 4656 1728 4484 1276 
Q 4313 825 3966 491 
z
M 2631 1266 
Q 3156 1119 3497 828 
Q 4031 1316 4031 2294 
Q 4031 2850 3842 3265 
Q 3653 3681 3289 3911 
Q 2925 4141 2472 4141 
Q 1794 4141 1347 3677 
Q 900 3213 900 2291 
Q 900 1397 1342 919 
Q 1784 441 2472 441 
Q 2797 441 3084 563 
Q 2800 747 2484 825 
L 2631 1266 
z
" transform="scale(0.015625)"/>
      <path id="ArialMT-55" d="M 3500 4581 
L 4106 4581 
L 4106 1934 
Q 4106 1244 3950 837 
Q 3794 431 3386 176 
Q 2978 -78 2316 -78 
Q 1672 -78 1262 144 
Q 853 366 678 786 
Q 503 1206 503 1934 
L 503 4581 
L 1109 4581 
L 1109 1938 
Q 1109 1341 1220 1058 
Q 1331 775 1601 622 
Q 1872 469 2263 469 
Q 2931 469 3215 772 
Q 3500 1075 3500 1938 
L 3500 4581 
z
" transform="scale(0.015625)"/>
      <path id="ArialMT-49" d="M 597 0 
L 597 4581 
L 1203 4581 
L 1203 0 
L 597 0 
z
" transform="scale(0.015625)"/>
      <path id="ArialMT-43" d="M 3763 1606 
L 4369 1453 
Q 4178 706 3683 314 
Q 3188 -78 2472 -78 
Q 1731 -78 1267 223 
Q 803 525 561 1097 
Q 319 1669 319 2325 
Q 319 3041 592 3573 
Q 866 4106 1370 4382 
Q 1875 4659 2481 4659 
Q 3169 4659 3637 4309 
Q 4106 3959 4291 3325 
L 3694 3184 
Q 3534 3684 3231 3912 
Q 2928 4141 2469 4141 
Q 1941 4141 1586 3887 
Q 1231 3634 1087 3207 
Q 944 2781 944 2328 
Q 944 1744 1114 1308 
Q 1284 872 1643 656 
Q 2003 441 2422 441 
Q 2931 441 3284 734 
Q 3638 1028 3763 1606 
z
" transform="scale(0.015625)"/>
      <path id="ArialMT-77" d="M 1034 0 
L 19 3319 
L 600 3319 
L 1128 1403 
L 1325 691 
Q 1338 744 1497 1375 
L 2025 3319 
L 2603 3319 
L 3100 1394 
L 3266 759 
L 3456 1400 
L 4025 3319 
L 4572 3319 
L 3534 0 
L 2950 0 
L 2422 1988 
L 2294 2553 
L 1622 0 
L 1034 0 
z
" transform="scale(0.015625)"/>
      <path id="ArialMT-67" d="M 319 -275 
L 866 -356 
Q 900 -609 1056 -725 
Q 1266 -881 1628 -881 
Q 2019 -881 2231 -725 
Q 2444 -569 2519 -288 
Q 2563 -116 2559 434 
Q 2191 0 1641 0 
Q 956 0 581 494 
Q 206 988 206 1678 
Q 206 2153 378 2554 
Q 550 2956 876 3175 
Q 1203 3394 1644 3394 
Q 2231 3394 2613 2919 
L 2613 3319 
L 3131 3319 
L 3131 450 
Q 3131 -325 2973 -648 
Q 2816 -972 2473 -1159 
Q 2131 -1347 1631 -1347 
Q 1038 -1347 672 -1080 
Q 306 -813 319 -275 
z
M 784 1719 
Q 784 1066 1043 766 
Q 1303 466 1694 466 
Q 2081 466 2343 764 
Q 2606 1063 2606 1700 
Q 2606 2309 2336 2618 
Q 2066 2928 1684 2928 
Q 1309 2928 1046 2623 
Q 784 2319 784 1719 
z
" transform="scale(0.015625)"/>
     </defs>
     <use xlink:href="#ArialMT-48"/>
     <use xlink:href="#ArialMT-61" x="72.216797"/>
     <use xlink:href="#ArialMT-6e" x="127.832031"/>
     <use xlink:href="#ArialMT-64" x="183.447266"/>
     <use xlink:href="#ArialMT-73" x="239.0625"/>
     <use xlink:href="#ArialMT-68" x="289.0625"/>
     <use xlink:href="#ArialMT-61" x="344.677734"/>
     <use xlink:href="#ArialMT-6b" x="400.292969"/>
     <use xlink:href="#ArialMT-65" x="450.292969"/>
     <use xlink:href="#ArialMT-20" x="505.908203"/>
     <use xlink:href="#ArialMT-64" x="533.691406"/>
     <use xlink:href="#ArialMT-75" x="589.306641"/>
     <use xlink:href="#ArialMT-72" x="644.921875"/>
     <use xlink:href="#ArialMT-61" x="678.222656"/>
     <use xlink:href="#ArialMT-74" x="733.837891"/>
     <use xlink:href="#ArialMT-69" x="761.621094"/>
     <use xlink:href="#ArialMT-6f" x="783.837891"/>
     <use xlink:href="#ArialMT-6e" x="839.453125"/>
     <use xlink:href="#ArialMT-20" x="895.068359"/>
     <use xlink:href="#ArialMT-6f" x="922.851562"/>
     <use xlink:href="#ArialMT-6e" x="978.466797"/>
     <use xlink:href="#ArialMT-20" x="1034.082031"/>
     <use xlink:href="#ArialMT-51" x="1061.865234"/>
     <use xlink:href="#ArialMT-55" x="1139.648438"/>
     <use xlink:href="#ArialMT-49" x="1211.865234"/>
     <use xlink:href="#ArialMT-43" x="1239.648438"/>
     <use xlink:href="#ArialMT-20" x="1311.865234"/>
     <use xlink:href="#ArialMT-77" x="1339.648438"/>
     <use xlink:href="#ArialMT-69" x="1411.865234"/>
     <use xlink:href="#ArialMT-74" x="1434.082031"/>
     <use xlink:href="#ArialMT-68" x="1461.865234"/>
     <use xlink:href="#ArialMT-20" x="1517.480469"/>
     <use xlink:href="#ArialMT-65" x="1545.263672"/>
     <use xlink:href="#ArialMT-64" x="1600.878906"/>
     <use xlink:href="#ArialMT-32" x="1656.494141"/>
     <use xlink:href="#ArialMT-35" x="1712.109375"/>
     <use xlink:href="#ArialMT-35" x="1767.724609"/>
     <use xlink:href="#ArialMT-31" x="1823.339844"/>
     <use xlink:href="#ArialMT-39" x="1878.955078"/>
     <use xlink:href="#ArialMT-20" x="1934.570312"/>
     <use xlink:href="#ArialMT-73" x="1962.353516"/>
     <use xlink:href="#ArialMT-69" x="2012.353516"/>
     <use xlink:href="#ArialMT-67" x="2034.570312"/>
     <use xlink:href="#ArialMT-6e" x="2090.185547"/>
     <use xlink:href="#ArialMT-61" x="2145.800781"/>
     <use xlink:href="#ArialMT-74" x="2201.416016"/>
     <use xlink:href="#ArialMT-75" x="2229.199219"/>
     <use xlink:href="#ArialMT-72" x="2284.814453"/>
     <use xlink:href="#ArialMT-65" x="2318.115234"/>
     <use xlink:href="#ArialMT-20" x="2373.730469"/>
     <use xlink:href="#ArialMT-61" x="2401.513672"/>
     <use xlink:href="#ArialMT-6c" x="2457.128906"/>
     <use xlink:href="#ArialMT-67" x="2479.345703"/>
     <use xlink:href="#ArialMT-6f" x="2534.960938"/>
     <use xlink:href="#ArialMT-72" x="2590.576172"/>
     <use xlink:href="#ArialMT-69" x="2623.876953"/>
     <use xlink:href="#ArialMT-74" x="2646.09375"/>
     <use xlink:href="#ArialMT-68" x="2673.876953"/>
     <use xlink:href="#ArialMT-6d" x="2729.492188"/>
    </g>
   </g>
  </g>
 </g>
 <defs>
  <clipPath id="p8d4c9320ba">
   <rect x="59.045625" y="27.650625" width="791.994375" height="368.929375"/>
  </clipPath>
 </defs>
</svg>
