<?xml version="1.0" encoding="utf-8" standalone="no"?>
<!DOCTYPE svg PUBLIC "-//W3C//DTD SVG 1.1//EN"
  "http://www.w3.org/Graphics/SVG/1.1/DTD/svg11.dtd">
<svg xmlns:xlink="http://www.w3.org/1999/xlink" width="864pt" height="432pt" viewBox="0 0 864 432" xmlns="http://www.w3.org/2000/svg" version="1.1">
 <metadata>
  <rdf:RDF xmlns:dc="http://purl.org/dc/elements/1.1/" xmlns:cc="http://creativecommons.org/ns#" xmlns:rdf="http://www.w3.org/1999/02/22-rdf-syntax-ns#">
   <cc:Work>
    <dc:type rdf:resource="http://purl.org/dc/dcmitype/StillImage"/>
    <dc:date>2025-05-11T15:43:05.061971</dc:date>
    <dc:format>image/svg+xml</dc:format>
    <dc:creator>
     <cc:Agent>
      <dc:title>Matplotlib v3.8.0, https://matplotlib.org/</dc:title>
     </cc:Agent>
    </dc:creator>
   </cc:Work>
  </rdf:RDF>
 </metadata>
 <defs>
  <style type="text/css">*{stroke-linejoin: round; stroke-linecap: butt}</style>
 </defs>
 <g id="figure_1">
  <g id="patch_1">
   <path d="M 0 432 
L 864 432 
L 864 0 
L 0 0 
z
" style="fill: #ffffff"/>
  </g>
  <g id="axes_1">
   <g id="patch_2">
    <path d="M 49.910625 396.58 
L 851.04 396.58 
L 851.04 27.650625 
L 49.910625 27.650625 
z
" style="fill: #ffffff"/>
   </g>
   <g id="matplotlib.axis_1">
    <g id="xtick_1">
     <g id="text_1">
      <!-- P-521 -->
      <g style="fill: #262626" transform="translate(164.754219 416.100937) scale(0.14 -0.14)">
       <defs>
        <path id="ArialMT-50" d="M 494 0 
L 494 4581 
L 2222 4581 
Q 2678 4581 2919 4538 
Q 3256 4481 3484 4323 
Q 3713 4166 3852 3881 
Q 3991 3597 3991 3256 
Q 3991 2672 3619 2267 
Q 3247 1863 2275 1863 
L 1100 1863 
L 1100 0 
L 494 0 
z
M 1100 2403 
L 2284 2403 
Q 2872 2403 3119 2622 
Q 3366 2841 3366 3238 
Q 3366 3525 3220 3729 
Q 3075 3934 2838 4000 
Q 2684 4041 2272 4041 
L 1100 4041 
L 1100 2403 
z
" transform="scale(0.015625)"/>
        <path id="ArialMT-2d" d="M 203 1375 
L 203 1941 
L 1931 1941 
L 1931 1375 
L 203 1375 
z
" transform="scale(0.015625)"/>
        <path id="ArialMT-35" d="M 266 1200 
L 856 1250 
Q 922 819 1161 601 
Q 1400 384 1738 384 
Q 2144 384 2425 690 
Q 2706 997 2706 1503 
Q 2706 1984 2436 2262 
Q 2166 2541 1728 2541 
Q 1456 2541 1237 2417 
Q 1019 2294 894 2097 
L 366 2166 
L 809 4519 
L 3088 4519 
L 3088 3981 
L 1259 3981 
L 1013 2750 
Q 1425 3038 1878 3038 
Q 2478 3038 2890 2622 
Q 3303 2206 3303 1553 
Q 3303 931 2941 478 
Q 2500 -78 1738 -78 
Q 1113 -78 717 272 
Q 322 622 266 1200 
z
" transform="scale(0.015625)"/>
        <path id="ArialMT-32" d="M 3222 541 
L 3222 0 
L 194 0 
Q 188 203 259 391 
Q 375 700 629 1000 
Q 884 1300 1366 1694 
Q 2113 2306 2375 2664 
Q 2638 3022 2638 3341 
Q 2638 3675 2398 3904 
Q 2159 4134 1775 4134 
Q 1369 4134 1125 3890 
Q 881 3647 878 3216 
L 300 3275 
Q 359 3922 746 4261 
Q 1134 4600 1788 4600 
Q 2447 4600 2831 4234 
Q 3216 3869 3216 3328 
Q 3216 3053 3103 2787 
Q 2991 2522 2730 2228 
Q 2469 1934 1863 1422 
Q 1356 997 1212 845 
Q 1069 694 975 541 
L 3222 541 
z
" transform="scale(0.015625)"/>
        <path id="ArialMT-31" d="M 2384 0 
L 1822 0 
L 1822 3584 
Q 1619 3391 1289 3197 
Q 959 3003 697 2906 
L 697 3450 
Q 1169 3672 1522 3987 
Q 1875 4303 2022 4600 
L 2384 4600 
L 2384 0 
z
" transform="scale(0.015625)"/>
       </defs>
       <use xlink:href="#ArialMT-50"/>
       <use xlink:href="#ArialMT-2d" x="66.699219"/>
       <use xlink:href="#ArialMT-35" x="100"/>
       <use xlink:href="#ArialMT-32" x="155.615234"/>
       <use xlink:href="#ArialMT-31" x="211.230469"/>
      </g>
     </g>
    </g>
    <g id="xtick_2">
     <g id="text_2">
      <!-- p521_mlkem1024 -->
      <g style="fill: #262626" transform="translate(394.831875 416.1425) scale(0.14 -0.14)">
       <defs>
        <path id="ArialMT-70" d="M 422 -1272 
L 422 3319 
L 934 3319 
L 934 2888 
Q 1116 3141 1344 3267 
Q 1572 3394 1897 3394 
Q 2322 3394 2647 3175 
Q 2972 2956 3137 2557 
Q 3303 2159 3303 1684 
Q 3303 1175 3120 767 
Q 2938 359 2589 142 
Q 2241 -75 1856 -75 
Q 1575 -75 1351 44 
Q 1128 163 984 344 
L 984 -1272 
L 422 -1272 
z
M 931 1641 
Q 931 1000 1190 694 
Q 1450 388 1819 388 
Q 2194 388 2461 705 
Q 2728 1022 2728 1688 
Q 2728 2322 2467 2637 
Q 2206 2953 1844 2953 
Q 1484 2953 1207 2617 
Q 931 2281 931 1641 
z
" transform="scale(0.015625)"/>
        <path id="ArialMT-5f" d="M -97 -1272 
L -97 -866 
L 3631 -866 
L 3631 -1272 
L -97 -1272 
z
" transform="scale(0.015625)"/>
        <path id="ArialMT-6d" d="M 422 0 
L 422 3319 
L 925 3319 
L 925 2853 
Q 1081 3097 1340 3245 
Q 1600 3394 1931 3394 
Q 2300 3394 2536 3241 
Q 2772 3088 2869 2813 
Q 3263 3394 3894 3394 
Q 4388 3394 4653 3120 
Q 4919 2847 4919 2278 
L 4919 0 
L 4359 0 
L 4359 2091 
Q 4359 2428 4304 2576 
Q 4250 2725 4106 2815 
Q 3963 2906 3769 2906 
Q 3419 2906 3187 2673 
Q 2956 2441 2956 1928 
L 2956 0 
L 2394 0 
L 2394 2156 
Q 2394 2531 2256 2718 
Q 2119 2906 1806 2906 
Q 1569 2906 1367 2781 
Q 1166 2656 1075 2415 
Q 984 2175 984 1722 
L 984 0 
L 422 0 
z
" transform="scale(0.015625)"/>
        <path id="ArialMT-6c" d="M 409 0 
L 409 4581 
L 972 4581 
L 972 0 
L 409 0 
z
" transform="scale(0.015625)"/>
        <path id="ArialMT-6b" d="M 425 0 
L 425 4581 
L 988 4581 
L 988 1969 
L 2319 3319 
L 3047 3319 
L 1778 2088 
L 3175 0 
L 2481 0 
L 1384 1697 
L 988 1316 
L 988 0 
L 425 0 
z
" transform="scale(0.015625)"/>
        <path id="ArialMT-65" d="M 2694 1069 
L 3275 997 
Q 3138 488 2766 206 
Q 2394 -75 1816 -75 
Q 1088 -75 661 373 
Q 234 822 234 1631 
Q 234 2469 665 2931 
Q 1097 3394 1784 3394 
Q 2450 3394 2872 2941 
Q 3294 2488 3294 1666 
Q 3294 1616 3291 1516 
L 816 1516 
Q 847 969 1125 678 
Q 1403 388 1819 388 
Q 2128 388 2347 550 
Q 2566 713 2694 1069 
z
M 847 1978 
L 2700 1978 
Q 2663 2397 2488 2606 
Q 2219 2931 1791 2931 
Q 1403 2931 1139 2672 
Q 875 2413 847 1978 
z
" transform="scale(0.015625)"/>
        <path id="ArialMT-30" d="M 266 2259 
Q 266 3072 433 3567 
Q 600 4063 929 4331 
Q 1259 4600 1759 4600 
Q 2128 4600 2406 4451 
Q 2684 4303 2865 4023 
Q 3047 3744 3150 3342 
Q 3253 2941 3253 2259 
Q 3253 1453 3087 958 
Q 2922 463 2592 192 
Q 2263 -78 1759 -78 
Q 1097 -78 719 397 
Q 266 969 266 2259 
z
M 844 2259 
Q 844 1131 1108 757 
Q 1372 384 1759 384 
Q 2147 384 2411 759 
Q 2675 1134 2675 2259 
Q 2675 3391 2411 3762 
Q 2147 4134 1753 4134 
Q 1366 4134 1134 3806 
Q 844 3388 844 2259 
z
" transform="scale(0.015625)"/>
        <path id="ArialMT-34" d="M 2069 0 
L 2069 1097 
L 81 1097 
L 81 1613 
L 2172 4581 
L 2631 4581 
L 2631 1613 
L 3250 1613 
L 3250 1097 
L 2631 1097 
L 2631 0 
L 2069 0 
z
M 2069 1613 
L 2069 3678 
L 634 1613 
L 2069 1613 
z
" transform="scale(0.015625)"/>
       </defs>
       <use xlink:href="#ArialMT-70"/>
       <use xlink:href="#ArialMT-35" x="55.615234"/>
       <use xlink:href="#ArialMT-32" x="111.230469"/>
       <use xlink:href="#ArialMT-31" x="166.845703"/>
       <use xlink:href="#ArialMT-5f" x="222.460938"/>
       <use xlink:href="#ArialMT-6d" x="278.076172"/>
       <use xlink:href="#ArialMT-6c" x="361.376953"/>
       <use xlink:href="#ArialMT-6b" x="383.59375"/>
       <use xlink:href="#ArialMT-65" x="433.59375"/>
       <use xlink:href="#ArialMT-6d" x="489.208984"/>
       <use xlink:href="#ArialMT-31" x="572.509766"/>
       <use xlink:href="#ArialMT-30" x="628.125"/>
       <use xlink:href="#ArialMT-32" x="683.740234"/>
       <use xlink:href="#ArialMT-34" x="739.355469"/>
      </g>
     </g>
    </g>
    <g id="xtick_3">
     <g id="text_3">
      <!-- mlkem1024 -->
      <g style="fill: #262626" transform="translate(681.338281 416.100937) scale(0.14 -0.14)">
       <use xlink:href="#ArialMT-6d"/>
       <use xlink:href="#ArialMT-6c" x="83.300781"/>
       <use xlink:href="#ArialMT-6b" x="105.517578"/>
       <use xlink:href="#ArialMT-65" x="155.517578"/>
       <use xlink:href="#ArialMT-6d" x="211.132812"/>
       <use xlink:href="#ArialMT-31" x="294.433594"/>
       <use xlink:href="#ArialMT-30" x="350.048828"/>
       <use xlink:href="#ArialMT-32" x="405.664062"/>
       <use xlink:href="#ArialMT-34" x="461.279297"/>
      </g>
     </g>
    </g>
   </g>
   <g id="matplotlib.axis_2">
    <g id="ytick_1">
     <g id="line2d_1">
      <path d="M 49.910625 354.126736 
L 851.04 354.126736 
" clip-path="url(#pb9efe0b501)" style="fill: none; stroke: #cccccc; stroke-linecap: round"/>
     </g>
     <g id="text_4">
      <!-- 5 -->
      <g style="fill: #262626" transform="translate(34.293594 358.063533) scale(0.11 -0.11)">
       <use xlink:href="#ArialMT-35"/>
      </g>
     </g>
    </g>
    <g id="ytick_2">
     <g id="line2d_2">
      <path d="M 49.910625 272.312193 
L 851.04 272.312193 
" clip-path="url(#pb9efe0b501)" style="fill: none; stroke: #cccccc; stroke-linecap: round"/>
     </g>
     <g id="text_5">
      <!-- 10 -->
      <g style="fill: #262626" transform="translate(28.176563 276.24899) scale(0.11 -0.11)">
       <use xlink:href="#ArialMT-31"/>
       <use xlink:href="#ArialMT-30" x="55.615234"/>
      </g>
     </g>
    </g>
    <g id="ytick_3">
     <g id="line2d_3">
      <path d="M 49.910625 190.497649 
L 851.04 190.497649 
" clip-path="url(#pb9efe0b501)" style="fill: none; stroke: #cccccc; stroke-linecap: round"/>
     </g>
     <g id="text_6">
      <!-- 15 -->
      <g style="fill: #262626" transform="translate(28.176563 194.434446) scale(0.11 -0.11)">
       <use xlink:href="#ArialMT-31"/>
       <use xlink:href="#ArialMT-35" x="55.615234"/>
      </g>
     </g>
    </g>
    <g id="ytick_4">
     <g id="line2d_4">
      <path d="M 49.910625 108.683106 
L 851.04 108.683106 
" clip-path="url(#pb9efe0b501)" style="fill: none; stroke: #cccccc; stroke-linecap: round"/>
     </g>
     <g id="text_7">
      <!-- 20 -->
      <g style="fill: #262626" transform="translate(28.176563 112.619903) scale(0.11 -0.11)">
       <use xlink:href="#ArialMT-32"/>
       <use xlink:href="#ArialMT-30" x="55.615234"/>
      </g>
     </g>
    </g>
    <g id="text_8">
     <!-- Handshake duration (ms) -->
     <g style="fill: #262626" transform="translate(21.650937 279.475625) rotate(-90) scale(0.12 -0.12)">
      <defs>
       <path id="ArialMT-48" d="M 513 0 
L 513 4581 
L 1119 4581 
L 1119 2700 
L 3500 2700 
L 3500 4581 
L 4106 4581 
L 4106 0 
L 3500 0 
L 3500 2159 
L 1119 2159 
L 1119 0 
L 513 0 
z
" transform="scale(0.015625)"/>
       <path id="ArialMT-61" d="M 2588 409 
Q 2275 144 1986 34 
Q 1697 -75 1366 -75 
Q 819 -75 525 192 
Q 231 459 231 875 
Q 231 1119 342 1320 
Q 453 1522 633 1644 
Q 813 1766 1038 1828 
Q 1203 1872 1538 1913 
Q 2219 1994 2541 2106 
Q 2544 2222 2544 2253 
Q 2544 2597 2384 2738 
Q 2169 2928 1744 2928 
Q 1347 2928 1158 2789 
Q 969 2650 878 2297 
L 328 2372 
Q 403 2725 575 2942 
Q 747 3159 1072 3276 
Q 1397 3394 1825 3394 
Q 2250 3394 2515 3294 
Q 2781 3194 2906 3042 
Q 3031 2891 3081 2659 
Q 3109 2516 3109 2141 
L 3109 1391 
Q 3109 606 3145 398 
Q 3181 191 3288 0 
L 2700 0 
Q 2613 175 2588 409 
z
M 2541 1666 
Q 2234 1541 1622 1453 
Q 1275 1403 1131 1340 
Q 988 1278 909 1158 
Q 831 1038 831 891 
Q 831 666 1001 516 
Q 1172 366 1500 366 
Q 1825 366 2078 508 
Q 2331 650 2450 897 
Q 2541 1088 2541 1459 
L 2541 1666 
z
" transform="scale(0.015625)"/>
       <path id="ArialMT-6e" d="M 422 0 
L 422 3319 
L 928 3319 
L 928 2847 
Q 1294 3394 1984 3394 
Q 2284 3394 2536 3286 
Q 2788 3178 2913 3003 
Q 3038 2828 3088 2588 
Q 3119 2431 3119 2041 
L 3119 0 
L 2556 0 
L 2556 2019 
Q 2556 2363 2490 2533 
Q 2425 2703 2258 2804 
Q 2091 2906 1866 2906 
Q 1506 2906 1245 2678 
Q 984 2450 984 1813 
L 984 0 
L 422 0 
z
" transform="scale(0.015625)"/>
       <path id="ArialMT-64" d="M 2575 0 
L 2575 419 
Q 2259 -75 1647 -75 
Q 1250 -75 917 144 
Q 584 363 401 755 
Q 219 1147 219 1656 
Q 219 2153 384 2558 
Q 550 2963 881 3178 
Q 1213 3394 1622 3394 
Q 1922 3394 2156 3267 
Q 2391 3141 2538 2938 
L 2538 4581 
L 3097 4581 
L 3097 0 
L 2575 0 
z
M 797 1656 
Q 797 1019 1065 703 
Q 1334 388 1700 388 
Q 2069 388 2326 689 
Q 2584 991 2584 1609 
Q 2584 2291 2321 2609 
Q 2059 2928 1675 2928 
Q 1300 2928 1048 2622 
Q 797 2316 797 1656 
z
" transform="scale(0.015625)"/>
       <path id="ArialMT-73" d="M 197 991 
L 753 1078 
Q 800 744 1014 566 
Q 1228 388 1613 388 
Q 2000 388 2187 545 
Q 2375 703 2375 916 
Q 2375 1106 2209 1216 
Q 2094 1291 1634 1406 
Q 1016 1563 777 1677 
Q 538 1791 414 1992 
Q 291 2194 291 2438 
Q 291 2659 392 2848 
Q 494 3038 669 3163 
Q 800 3259 1026 3326 
Q 1253 3394 1513 3394 
Q 1903 3394 2198 3281 
Q 2494 3169 2634 2976 
Q 2775 2784 2828 2463 
L 2278 2388 
Q 2241 2644 2061 2787 
Q 1881 2931 1553 2931 
Q 1166 2931 1000 2803 
Q 834 2675 834 2503 
Q 834 2394 903 2306 
Q 972 2216 1119 2156 
Q 1203 2125 1616 2013 
Q 2213 1853 2448 1751 
Q 2684 1650 2818 1456 
Q 2953 1263 2953 975 
Q 2953 694 2789 445 
Q 2625 197 2315 61 
Q 2006 -75 1616 -75 
Q 969 -75 630 194 
Q 291 463 197 991 
z
" transform="scale(0.015625)"/>
       <path id="ArialMT-68" d="M 422 0 
L 422 4581 
L 984 4581 
L 984 2938 
Q 1378 3394 1978 3394 
Q 2347 3394 2619 3248 
Q 2891 3103 3008 2847 
Q 3125 2591 3125 2103 
L 3125 0 
L 2563 0 
L 2563 2103 
Q 2563 2525 2380 2717 
Q 2197 2909 1863 2909 
Q 1613 2909 1392 2779 
Q 1172 2650 1078 2428 
Q 984 2206 984 1816 
L 984 0 
L 422 0 
z
" transform="scale(0.015625)"/>
       <path id="ArialMT-20" transform="scale(0.015625)"/>
       <path id="ArialMT-75" d="M 2597 0 
L 2597 488 
Q 2209 -75 1544 -75 
Q 1250 -75 995 37 
Q 741 150 617 320 
Q 494 491 444 738 
Q 409 903 409 1263 
L 409 3319 
L 972 3319 
L 972 1478 
Q 972 1038 1006 884 
Q 1059 663 1231 536 
Q 1403 409 1656 409 
Q 1909 409 2131 539 
Q 2353 669 2445 892 
Q 2538 1116 2538 1541 
L 2538 3319 
L 3100 3319 
L 3100 0 
L 2597 0 
z
" transform="scale(0.015625)"/>
       <path id="ArialMT-72" d="M 416 0 
L 416 3319 
L 922 3319 
L 922 2816 
Q 1116 3169 1280 3281 
Q 1444 3394 1641 3394 
Q 1925 3394 2219 3213 
L 2025 2691 
Q 1819 2813 1613 2813 
Q 1428 2813 1281 2702 
Q 1134 2591 1072 2394 
Q 978 2094 978 1738 
L 978 0 
L 416 0 
z
" transform="scale(0.015625)"/>
       <path id="ArialMT-74" d="M 1650 503 
L 1731 6 
Q 1494 -44 1306 -44 
Q 1000 -44 831 53 
Q 663 150 594 308 
Q 525 466 525 972 
L 525 2881 
L 113 2881 
L 113 3319 
L 525 3319 
L 525 4141 
L 1084 4478 
L 1084 3319 
L 1650 3319 
L 1650 2881 
L 1084 2881 
L 1084 941 
Q 1084 700 1114 631 
Q 1144 563 1211 522 
Q 1278 481 1403 481 
Q 1497 481 1650 503 
z
" transform="scale(0.015625)"/>
       <path id="ArialMT-69" d="M 425 3934 
L 425 4581 
L 988 4581 
L 988 3934 
L 425 3934 
z
M 425 0 
L 425 3319 
L 988 3319 
L 988 0 
L 425 0 
z
" transform="scale(0.015625)"/>
       <path id="ArialMT-6f" d="M 213 1659 
Q 213 2581 725 3025 
Q 1153 3394 1769 3394 
Q 2453 3394 2887 2945 
Q 3322 2497 3322 1706 
Q 3322 1066 3130 698 
Q 2938 331 2570 128 
Q 2203 -75 1769 -75 
Q 1072 -75 642 372 
Q 213 819 213 1659 
z
M 791 1659 
Q 791 1022 1069 705 
Q 1347 388 1769 388 
Q 2188 388 2466 706 
Q 2744 1025 2744 1678 
Q 2744 2294 2464 2611 
Q 2184 2928 1769 2928 
Q 1347 2928 1069 2612 
Q 791 2297 791 1659 
z
" transform="scale(0.015625)"/>
       <path id="ArialMT-28" d="M 1497 -1347 
Q 1031 -759 709 28 
Q 388 816 388 1659 
Q 388 2403 628 3084 
Q 909 3875 1497 4659 
L 1900 4659 
Q 1522 4009 1400 3731 
Q 1209 3300 1100 2831 
Q 966 2247 966 1656 
Q 966 153 1900 -1347 
L 1497 -1347 
z
" transform="scale(0.015625)"/>
       <path id="ArialMT-29" d="M 791 -1347 
L 388 -1347 
Q 1322 153 1322 1656 
Q 1322 2244 1188 2822 
Q 1081 3291 891 3722 
Q 769 4003 388 4659 
L 791 4659 
Q 1378 3875 1659 3084 
Q 1900 2403 1900 1659 
Q 1900 816 1576 28 
Q 1253 -759 791 -1347 
z
" transform="scale(0.015625)"/>
      </defs>
      <use xlink:href="#ArialMT-48"/>
      <use xlink:href="#ArialMT-61" x="72.216797"/>
      <use xlink:href="#ArialMT-6e" x="127.832031"/>
      <use xlink:href="#ArialMT-64" x="183.447266"/>
      <use xlink:href="#ArialMT-73" x="239.0625"/>
      <use xlink:href="#ArialMT-68" x="289.0625"/>
      <use xlink:href="#ArialMT-61" x="344.677734"/>
      <use xlink:href="#ArialMT-6b" x="400.292969"/>
      <use xlink:href="#ArialMT-65" x="450.292969"/>
      <use xlink:href="#ArialMT-20" x="505.908203"/>
      <use xlink:href="#ArialMT-64" x="533.691406"/>
      <use xlink:href="#ArialMT-75" x="589.306641"/>
      <use xlink:href="#ArialMT-72" x="644.921875"/>
      <use xlink:href="#ArialMT-61" x="678.222656"/>
      <use xlink:href="#ArialMT-74" x="733.837891"/>
      <use xlink:href="#ArialMT-69" x="761.621094"/>
      <use xlink:href="#ArialMT-6f" x="783.837891"/>
      <use xlink:href="#ArialMT-6e" x="839.453125"/>
      <use xlink:href="#ArialMT-20" x="895.068359"/>
      <use xlink:href="#ArialMT-28" x="922.851562"/>
      <use xlink:href="#ArialMT-6d" x="956.152344"/>
      <use xlink:href="#ArialMT-73" x="1039.453125"/>
      <use xlink:href="#ArialMT-29" x="1089.453125"/>
     </g>
    </g>
   </g>
   <g id="PolyCollection_1">
    <defs>
     <path id="m2238b3299d" d="M 185.238649 -79.700839 
L 181.625726 -79.700839 
L 180.303363 -80.630817 
L 178.26382 -81.560796 
L 175.28199 -82.490774 
L 171.14883 -83.420753 
L 165.716198 -84.350731 
L 158.944214 -85.280709 
L 150.939177 -86.210688 
L 141.97047 -87.140666 
L 132.459567 -88.070645 
L 122.941759 -89.000623 
L 114.008272 -89.930602 
L 106.240313 -90.86058 
L 100.146118 -91.790559 
L 96.108777 -92.720537 
L 94.349156 -93.650515 
L 94.906431 -94.580494 
L 97.638439 -95.510472 
L 102.243404 -96.440451 
L 108.301936 -97.370429 
L 115.333621 -98.300408 
L 122.857985 -99.230386 
L 130.447786 -100.160365 
L 137.764766 -101.090343 
L 144.573521 -102.020321 
L 150.735529 -102.9503 
L 156.190116 -103.880278 
L 160.930719 -104.810257 
L 164.98332 -105.740235 
L 168.390822 -106.670214 
L 171.203906 -107.600192 
L 173.476857 -108.53017 
L 175.266161 -109.460149 
L 176.630079 -110.390127 
L 177.628163 -111.320106 
L 178.320273 -112.250084 
L 178.76493 -113.180063 
L 179.017017 -114.110041 
L 179.125018 -115.04002 
L 179.128372 -115.969998 
L 179.055803 -116.899976 
L 178.925441 -117.829955 
L 178.74704 -118.759933 
L 178.525814 -119.689912 
L 178.266663 -120.61989 
L 177.977397 -121.549869 
L 177.669936 -122.479847 
L 177.359385 -123.409826 
L 177.061766 -124.339804 
L 176.79164 -125.269782 
L 176.560637 -126.199761 
L 176.377173 -127.129739 
L 176.246829 -128.059718 
L 176.172476 -128.989696 
L 176.153595 -129.919675 
L 176.185066 -130.849653 
L 176.256531 -131.779632 
L 176.353638 -132.70961 
L 176.461757 -133.639588 
L 176.57139 -134.569567 
L 176.683247 -135.499545 
L 176.810481 -136.429524 
L 176.976463 -137.359502 
L 177.208196 -138.289481 
L 177.527456 -139.219459 
L 177.942857 -140.149438 
L 178.445748 -141.079416 
L 179.011379 -142.009394 
L 179.604684 -142.939373 
L 180.188398 -143.869351 
L 180.730667 -144.79933 
L 181.209929 -145.729308 
L 181.616202 -146.659287 
L 181.949348 -147.589265 
L 182.215737 -148.519243 
L 182.424865 -149.449222 
L 182.586933 -150.3792 
L 182.711621 -151.309179 
L 182.807691 -152.239157 
L 182.882822 -153.169136 
L 182.943309 -154.099114 
L 182.993582 -155.029093 
L 183.035866 -155.959071 
L 183.070316 -156.889049 
L 183.095794 -157.819028 
L 183.111116 -158.749006 
L 183.116331 -159.678985 
L 183.113536 -160.608963 
L 183.106881 -161.538942 
L 183.101749 -162.46892 
L 183.103388 -163.398899 
L 183.11553 -164.328877 
L 183.139448 -165.258855 
L 183.173779 -166.188834 
L 183.21509 -167.118812 
L 183.258937 -168.048791 
L 183.301007 -168.978769 
L 183.338012 -169.908748 
L 183.368108 -170.838726 
L 183.390873 -171.768705 
L 183.473502 -171.768705 
L 183.473502 -171.768705 
L 183.496267 -170.838726 
L 183.526363 -169.908748 
L 183.563368 -168.978769 
L 183.605438 -168.048791 
L 183.649285 -167.118812 
L 183.690596 -166.188834 
L 183.724927 -165.258855 
L 183.748845 -164.328877 
L 183.760987 -163.398899 
L 183.762626 -162.46892 
L 183.757494 -161.538942 
L 183.750839 -160.608963 
L 183.748044 -159.678985 
L 183.753259 -158.749006 
L 183.768581 -157.819028 
L 183.794059 -156.889049 
L 183.828509 -155.959071 
L 183.870793 -155.029093 
L 183.921066 -154.099114 
L 183.981553 -153.169136 
L 184.056684 -152.239157 
L 184.152754 -151.309179 
L 184.277442 -150.3792 
L 184.43951 -149.449222 
L 184.648638 -148.519243 
L 184.915027 -147.589265 
L 185.248173 -146.659287 
L 185.654446 -145.729308 
L 186.133708 -144.79933 
L 186.675977 -143.869351 
L 187.259691 -142.939373 
L 187.852996 -142.009394 
L 188.418627 -141.079416 
L 188.921518 -140.149438 
L 189.336919 -139.219459 
L 189.656179 -138.289481 
L 189.887912 -137.359502 
L 190.053894 -136.429524 
L 190.181128 -135.499545 
L 190.292985 -134.569567 
L 190.402618 -133.639588 
L 190.510737 -132.70961 
L 190.607844 -131.779632 
L 190.679309 -130.849653 
L 190.71078 -129.919675 
L 190.691899 -128.989696 
L 190.617546 -128.059718 
L 190.487202 -127.129739 
L 190.303738 -126.199761 
L 190.072735 -125.269782 
L 189.802609 -124.339804 
L 189.50499 -123.409826 
L 189.194439 -122.479847 
L 188.886978 -121.549869 
L 188.597712 -120.61989 
L 188.338561 -119.689912 
L 188.117335 -118.759933 
L 187.938934 -117.829955 
L 187.808572 -116.899976 
L 187.736003 -115.969998 
L 187.739357 -115.04002 
L 187.847358 -114.110041 
L 188.099445 -113.180063 
L 188.544102 -112.250084 
L 189.236212 -111.320106 
L 190.234296 -110.390127 
L 191.598214 -109.460149 
L 193.387518 -108.53017 
L 195.660469 -107.600192 
L 198.473553 -106.670214 
L 201.881055 -105.740235 
L 205.933656 -104.810257 
L 210.674259 -103.880278 
L 216.128846 -102.9503 
L 222.290854 -102.020321 
L 229.099609 -101.090343 
L 236.416589 -100.160365 
L 244.00639 -99.230386 
L 251.530754 -98.300408 
L 258.562439 -97.370429 
L 264.620971 -96.440451 
L 269.225936 -95.510472 
L 271.957944 -94.580494 
L 272.515219 -93.650515 
L 270.755598 -92.720537 
L 266.718257 -91.790559 
L 260.624062 -90.86058 
L 252.856103 -89.930602 
L 243.922616 -89.000623 
L 234.404808 -88.070645 
L 224.893905 -87.140666 
L 215.925198 -86.210688 
L 207.920161 -85.280709 
L 201.148177 -84.350731 
L 195.715545 -83.420753 
L 191.582385 -82.490774 
L 188.600555 -81.560796 
L 186.561012 -80.630817 
L 185.238649 -79.700839 
z
" style="stroke: #595959; stroke-width: 1.5"/>
    </defs>
    <g clip-path="url(#pb9efe0b501)">
     <use xlink:href="#m2238b3299d" x="0" y="432" style="fill: #72b6a1; stroke: #595959; stroke-width: 1.5"/>
    </g>
   </g>
   <g id="PolyCollection_2">
    <defs>
     <path id="m784b551fc0" d="M 451.399985 -200.638346 
L 449.55064 -200.638346 
L 448.911588 -202.526645 
L 447.938735 -204.414943 
L 446.526625 -206.303241 
L 444.573206 -208.191539 
L 441.99948 -210.079837 
L 438.772391 -211.968135 
L 434.926079 -213.856433 
L 430.575482 -215.744731 
L 425.916916 -217.633029 
L 421.21291 -219.521327 
L 416.762709 -221.409626 
L 412.863978 -223.297924 
L 409.773947 -225.186222 
L 407.678273 -227.07452 
L 406.673382 -228.962818 
L 406.764002 -230.851116 
L 407.873639 -232.739414 
L 409.86333 -234.627712 
L 412.553569 -236.51601 
L 415.745544 -238.404308 
L 419.239518 -240.292606 
L 422.849646 -242.180905 
L 426.415076 -244.069203 
L 429.807217 -245.957501 
L 432.932995 -247.845799 
L 435.734114 -249.734097 
L 438.182936 -251.622395 
L 440.276177 -253.510693 
L 442.027962 -255.398991 
L 443.463609 -257.287289 
L 444.614902 -259.175587 
L 445.51695 -261.063886 
L 446.206212 -262.952184 
L 446.71909 -264.840482 
L 447.09071 -266.72878 
L 447.353786 -268.617078 
L 447.537702 -270.505376 
L 447.667997 -272.393674 
L 447.766285 -274.281972 
L 447.850465 -276.17027 
L 447.934916 -278.058568 
L 448.030447 -279.946866 
L 448.143916 -281.835165 
L 448.277714 -283.723463 
L 448.429442 -285.611761 
L 448.592184 -287.500059 
L 448.755596 -289.388357 
L 448.90777 -291.276655 
L 449.037556 -293.164953 
L 449.136807 -295.053251 
L 449.201999 -296.941549 
L 449.234791 -298.829847 
L 449.241408 -300.718146 
L 449.231034 -302.606444 
L 449.213665 -304.494742 
L 449.198 -306.38304 
L 449.189892 -308.271338 
L 449.191662 -310.159636 
L 449.202312 -312.047934 
L 449.218428 -313.936232 
L 449.235416 -315.82453 
L 449.248717 -317.712828 
L 449.254761 -319.601126 
L 449.251527 -321.489425 
L 449.238744 -323.377723 
L 449.217769 -325.266021 
L 449.19122 -327.154319 
L 449.162401 -329.042617 
L 449.134558 -330.930915 
L 449.110063 -332.819213 
L 449.08968 -334.707511 
L 449.072122 -336.595809 
L 449.054129 -338.484107 
L 449.031171 -340.372406 
L 448.998739 -342.260704 
L 448.953957 -344.149002 
L 448.897109 -346.0373 
L 448.832581 -347.925598 
L 448.768852 -349.813896 
L 448.717378 -351.702194 
L 448.690546 -353.590492 
L 448.699165 -355.47879 
L 448.750122 -357.367088 
L 448.844843 -359.255387 
L 448.978943 -361.143685 
L 449.143138 -363.031983 
L 449.325109 -364.920281 
L 449.511793 -366.808579 
L 449.69148 -368.696877 
L 449.855278 -370.585175 
L 449.997729 -372.473473 
L 450.116647 -374.361771 
L 450.21244 -376.250069 
L 450.287217 -378.138367 
L 450.343961 -380.026666 
L 450.385888 -381.914964 
L 450.416061 -383.803262 
L 450.437184 -385.69156 
L 450.45154 -387.579858 
L 450.499085 -387.579858 
L 450.499085 -387.579858 
L 450.513441 -385.69156 
L 450.534564 -383.803262 
L 450.564737 -381.914964 
L 450.606664 -380.026666 
L 450.663408 -378.138367 
L 450.738185 -376.250069 
L 450.833978 -374.361771 
L 450.952896 -372.473473 
L 451.095347 -370.585175 
L 451.259145 -368.696877 
L 451.438832 -366.808579 
L 451.625516 -364.920281 
L 451.807487 -363.031983 
L 451.971682 -361.143685 
L 452.105782 -359.255387 
L 452.200503 -357.367088 
L 452.25146 -355.47879 
L 452.260079 -353.590492 
L 452.233247 -351.702194 
L 452.181773 -349.813896 
L 452.118044 -347.925598 
L 452.053516 -346.0373 
L 451.996668 -344.149002 
L 451.951886 -342.260704 
L 451.919454 -340.372406 
L 451.896496 -338.484107 
L 451.878503 -336.595809 
L 451.860945 -334.707511 
L 451.840562 -332.819213 
L 451.816067 -330.930915 
L 451.788224 -329.042617 
L 451.759405 -327.154319 
L 451.732856 -325.266021 
L 451.711881 -323.377723 
L 451.699098 -321.489425 
L 451.695864 -319.601126 
L 451.701908 -317.712828 
L 451.715209 -315.82453 
L 451.732197 -313.936232 
L 451.748313 -312.047934 
L 451.758963 -310.159636 
L 451.760733 -308.271338 
L 451.752625 -306.38304 
L 451.73696 -304.494742 
L 451.719591 -302.606444 
L 451.709217 -300.718146 
L 451.715834 -298.829847 
L 451.748626 -296.941549 
L 451.813818 -295.053251 
L 451.913069 -293.164953 
L 452.042855 -291.276655 
L 452.195029 -289.388357 
L 452.358441 -287.500059 
L 452.521183 -285.611761 
L 452.672911 -283.723463 
L 452.806709 -281.835165 
L 452.920178 -279.946866 
L 453.015709 -278.058568 
L 453.10016 -276.17027 
L 453.18434 -274.281972 
L 453.282628 -272.393674 
L 453.412923 -270.505376 
L 453.596839 -268.617078 
L 453.859915 -266.72878 
L 454.231535 -264.840482 
L 454.744413 -262.952184 
L 455.433675 -261.063886 
L 456.335723 -259.175587 
L 457.487016 -257.287289 
L 458.922663 -255.398991 
L 460.674448 -253.510693 
L 462.767689 -251.622395 
L 465.216511 -249.734097 
L 468.01763 -247.845799 
L 471.143408 -245.957501 
L 474.535549 -244.069203 
L 478.100979 -242.180905 
L 481.711107 -240.292606 
L 485.205081 -238.404308 
L 488.397056 -236.51601 
L 491.087295 -234.627712 
L 493.076986 -232.739414 
L 494.186623 -230.851116 
L 494.277243 -228.962818 
L 493.272352 -227.07452 
L 491.176678 -225.186222 
L 488.086647 -223.297924 
L 484.187916 -221.409626 
L 479.737715 -219.521327 
L 475.033709 -217.633029 
L 470.375143 -215.744731 
L 466.024546 -213.856433 
L 462.178234 -211.968135 
L 458.951145 -210.079837 
L 456.377419 -208.191539 
L 454.424 -206.303241 
L 453.01189 -204.414943 
L 452.039037 -202.526645 
L 451.399985 -200.638346 
z
" style="stroke: #595959; stroke-width: 1.5"/>
    </defs>
    <g clip-path="url(#pb9efe0b501)">
     <use xlink:href="#m784b551fc0" x="0" y="432" style="fill: #e99675; stroke: #595959; stroke-width: 1.5"/>
    </g>
   </g>
   <g id="PolyCollection_3">
    <defs>
     <path id="me11e1f812d" d="M 717.760143 -52.189517 
L 717.276732 -52.189517 
L 717.112959 -52.814161 
L 716.851941 -53.438805 
L 716.444959 -54.063449 
L 715.824559 -54.688093 
L 714.900778 -55.312737 
L 713.55864 -55.937381 
L 711.658336 -56.562025 
L 709.039757 -57.186669 
L 705.53299 -57.811313 
L 700.975879 -58.435957 
L 695.23856 -59.060601 
L 688.253242 -59.685245 
L 680.045409 -60.309889 
L 670.760878 -60.934533 
L 660.682066 -61.559177 
L 650.227214 -62.183821 
L 639.928392 -62.808465 
L 630.387769 -63.433109 
L 622.216219 -64.057753 
L 615.962741 -64.682397 
L 612.046154 -65.307041 
L 610.701188 -65.931685 
L 611.948879 -66.556329 
L 615.596709 -67.180973 
L 621.268071 -67.805617 
L 628.455065 -68.430261 
L 636.58458 -69.054905 
L 645.086024 -69.679549 
L 653.450116 -70.304193 
L 661.271235 -70.928837 
L 668.269885 -71.553481 
L 674.295879 -72.178125 
L 679.31582 -72.802769 
L 683.390094 -73.427413 
L 686.644804 -74.052057 
L 689.243278 -74.676701 
L 691.360455 -75.301345 
L 693.162099 -75.925989 
L 694.789615 -76.550633 
L 696.350447 -77.175277 
L 697.913596 -77.799921 
L 699.509539 -78.424565 
L 701.133774 -79.049209 
L 702.753163 -79.673853 
L 704.314217 -80.298497 
L 705.752436 -80.923141 
L 707.001804 -81.547785 
L 708.003508 -82.172429 
L 708.713056 -82.797072 
L 709.105078 -83.421716 
L 709.175398 -84.04636 
L 708.940293 -84.671004 
L 708.433265 -85.295648 
L 707.700065 -85.920292 
L 706.792979 -86.544936 
L 705.765486 -87.16958 
L 704.668281 -87.794224 
L 703.547285 -88.418868 
L 702.443733 -89.043512 
L 701.395864 -89.668156 
L 700.441284 -90.2928 
L 699.618826 -90.917444 
L 698.968883 -91.542088 
L 698.531579 -92.166732 
L 698.342814 -92.791376 
L 698.428934 -93.41602 
L 698.801266 -94.040664 
L 699.452017 -94.665308 
L 700.352774 -95.289952 
L 701.456278 -95.914596 
L 702.701351 -96.53924 
L 704.020062 -97.163884 
L 705.345687 -97.788528 
L 706.6199 -98.413172 
L 707.797904 -99.037816 
L 708.850837 -99.66246 
L 709.765477 -100.287104 
L 710.541914 -100.911748 
L 711.190147 -101.536392 
L 711.726581 -102.161036 
L 712.171091 -102.78568 
L 712.544923 -103.410324 
L 712.869285 -104.034968 
L 713.164326 -104.659612 
L 713.448138 -105.284256 
L 713.735645 -105.9089 
L 714.03745 -106.533544 
L 714.3589 -107.158188 
L 714.699706 -107.782832 
L 715.054328 -108.407476 
L 715.413152 -109.03212 
L 715.764282 -109.656764 
L 716.09556 -110.281408 
L 716.396429 -110.906052 
L 716.659297 -111.530696 
L 716.880197 -112.15534 
L 717.058763 -112.779984 
L 717.197649 -113.404628 
L 717.30162 -114.029272 
L 717.735255 -114.029272 
L 717.735255 -114.029272 
L 717.839226 -113.404628 
L 717.978112 -112.779984 
L 718.156678 -112.15534 
L 718.377578 -111.530696 
L 718.640446 -110.906052 
L 718.941315 -110.281408 
L 719.272593 -109.656764 
L 719.623723 -109.03212 
L 719.982547 -108.407476 
L 720.337169 -107.782832 
L 720.677975 -107.158188 
L 720.999425 -106.533544 
L 721.30123 -105.9089 
L 721.588737 -105.284256 
L 721.872549 -104.659612 
L 722.16759 -104.034968 
L 722.491952 -103.410324 
L 722.865784 -102.78568 
L 723.310294 -102.161036 
L 723.846728 -101.536392 
L 724.494961 -100.911748 
L 725.271398 -100.287104 
L 726.186038 -99.66246 
L 727.238971 -99.037816 
L 728.416975 -98.413172 
L 729.691188 -97.788528 
L 731.016813 -97.163884 
L 732.335524 -96.53924 
L 733.580597 -95.914596 
L 734.684101 -95.289952 
L 735.584858 -94.665308 
L 736.235609 -94.040664 
L 736.607941 -93.41602 
L 736.694061 -92.791376 
L 736.505296 -92.166732 
L 736.067992 -91.542088 
L 735.418049 -90.917444 
L 734.595591 -90.2928 
L 733.641011 -89.668156 
L 732.593142 -89.043512 
L 731.48959 -88.418868 
L 730.368594 -87.794224 
L 729.271389 -87.16958 
L 728.243896 -86.544936 
L 727.33681 -85.920292 
L 726.60361 -85.295648 
L 726.096582 -84.671004 
L 725.861477 -84.04636 
L 725.931797 -83.421716 
L 726.323819 -82.797072 
L 727.033367 -82.172429 
L 728.035071 -81.547785 
L 729.284439 -80.923141 
L 730.722658 -80.298497 
L 732.283712 -79.673853 
L 733.903101 -79.049209 
L 735.527336 -78.424565 
L 737.123279 -77.799921 
L 738.686428 -77.175277 
L 740.24726 -76.550633 
L 741.874776 -75.925989 
L 743.67642 -75.301345 
L 745.793597 -74.676701 
L 748.392071 -74.052057 
L 751.646781 -73.427413 
L 755.721055 -72.802769 
L 760.740996 -72.178125 
L 766.76699 -71.553481 
L 773.76564 -70.928837 
L 781.586759 -70.304193 
L 789.950851 -69.679549 
L 798.452295 -69.054905 
L 806.58181 -68.430261 
L 813.768804 -67.805617 
L 819.440166 -67.180973 
L 823.087996 -66.556329 
L 824.335687 -65.931685 
L 822.990721 -65.307041 
L 819.074134 -64.682397 
L 812.820656 -64.057753 
L 804.649106 -63.433109 
L 795.108483 -62.808465 
L 784.809661 -62.183821 
L 774.354809 -61.559177 
L 764.275997 -60.934533 
L 754.991466 -60.309889 
L 746.783633 -59.685245 
L 739.798315 -59.060601 
L 734.060996 -58.435957 
L 729.503885 -57.811313 
L 725.997118 -57.186669 
L 723.378539 -56.562025 
L 721.478235 -55.937381 
L 720.136097 -55.312737 
L 719.212316 -54.688093 
L 718.591916 -54.063449 
L 718.184934 -53.438805 
L 717.923916 -52.814161 
L 717.760143 -52.189517 
z
" style="stroke: #595959; stroke-width: 1.5"/>
    </defs>
    <g clip-path="url(#pb9efe0b501)">
     <use xlink:href="#me11e1f812d" x="0" y="432" style="fill: #95a3c3; stroke: #595959; stroke-width: 1.5"/>
    </g>
   </g>
   <g id="line2d_5">
    <path d="M 183.432187 339.768284 
L 183.432187 344.308991 
" clip-path="url(#pb9efe0b501)" style="fill: none; stroke: #000000; stroke-width: 1.5; stroke-linecap: round"/>
   </g>
   <g id="line2d_6">
    <path d="M 183.432187 331.832273 
L 183.432187 320.419144 
" clip-path="url(#pb9efe0b501)" style="fill: none; stroke: #000000; stroke-width: 1.5; stroke-linecap: round"/>
   </g>
   <g id="line2d_7">
    <path d="M 173.41807 344.308991 
L 193.446305 344.308991 
" clip-path="url(#pb9efe0b501)" style="fill: none; stroke: #000000; stroke-width: 1.5; stroke-linecap: round"/>
   </g>
   <g id="line2d_8">
    <path d="M 173.41807 320.419144 
L 193.446305 320.419144 
" clip-path="url(#pb9efe0b501)" style="fill: none; stroke: #000000; stroke-width: 1.5; stroke-linecap: round"/>
   </g>
   <g id="line2d_9">
    <path d="M 450.475312 206.410578 
L 450.475312 213.896609 
" clip-path="url(#pb9efe0b501)" style="fill: none; stroke: #000000; stroke-width: 1.5; stroke-linecap: round"/>
   </g>
   <g id="line2d_10">
    <path d="M 450.475312 190.988537 
L 450.475312 169.225868 
" clip-path="url(#pb9efe0b501)" style="fill: none; stroke: #000000; stroke-width: 1.5; stroke-linecap: round"/>
   </g>
   <g id="line2d_11">
    <path d="M 440.461195 213.896609 
L 460.48943 213.896609 
" clip-path="url(#pb9efe0b501)" style="fill: none; stroke: #000000; stroke-width: 1.5; stroke-linecap: round"/>
   </g>
   <g id="line2d_12">
    <path d="M 440.461195 169.225868 
L 460.48943 169.225868 
" clip-path="url(#pb9efe0b501)" style="fill: none; stroke: #000000; stroke-width: 1.5; stroke-linecap: round"/>
   </g>
   <g id="line2d_13">
    <path d="M 717.518437 366.726176 
L 717.518437 373.10771 
" clip-path="url(#pb9efe0b501)" style="fill: none; stroke: #000000; stroke-width: 1.5; stroke-linecap: round"/>
   </g>
   <g id="line2d_14">
    <path d="M 717.518437 355.926656 
L 717.518437 339.891006 
" clip-path="url(#pb9efe0b501)" style="fill: none; stroke: #000000; stroke-width: 1.5; stroke-linecap: round"/>
   </g>
   <g id="line2d_15">
    <path d="M 707.50432 373.10771 
L 727.532555 373.10771 
" clip-path="url(#pb9efe0b501)" style="fill: none; stroke: #000000; stroke-width: 1.5; stroke-linecap: round"/>
   </g>
   <g id="line2d_16">
    <path d="M 707.50432 339.891006 
L 727.532555 339.891006 
" clip-path="url(#pb9efe0b501)" style="fill: none; stroke: #000000; stroke-width: 1.5; stroke-linecap: round"/>
   </g>
   <g id="line2d_17">
    <path d="M 163.403953 336.863868 
L 203.460422 336.863868 
" clip-path="url(#pb9efe0b501)" style="fill: none; stroke: #ff0000; stroke-width: 2"/>
   </g>
   <g id="line2d_18">
    <path d="M 430.447078 199.415435 
L 470.503547 199.415435 
" clip-path="url(#pb9efe0b501)" style="fill: none; stroke: #ff0000; stroke-width: 2"/>
   </g>
   <g id="line2d_19">
    <path d="M 697.490203 364.926256 
L 737.546672 364.926256 
" clip-path="url(#pb9efe0b501)" style="fill: none; stroke: #ff0000; stroke-width: 2"/>
   </g>
   <g id="patch_3">
    <path d="M 49.910625 396.58 
L 49.910625 27.650625 
" style="fill: none; stroke: #cccccc; stroke-width: 1.25; stroke-linejoin: miter; stroke-linecap: square"/>
   </g>
   <g id="patch_4">
    <path d="M 851.04 396.58 
L 851.04 27.650625 
" style="fill: none; stroke: #cccccc; stroke-width: 1.25; stroke-linejoin: miter; stroke-linecap: square"/>
   </g>
   <g id="patch_5">
    <path d="M 49.910625 396.58 
L 851.04 396.58 
" style="fill: none; stroke: #cccccc; stroke-width: 1.25; stroke-linejoin: miter; stroke-linecap: square"/>
   </g>
   <g id="patch_6">
    <path d="M 49.910625 27.650625 
L 851.04 27.650625 
" style="fill: none; stroke: #cccccc; stroke-width: 1.25; stroke-linejoin: miter; stroke-linecap: square"/>
   </g>
   <g id="text_9">
    <!-- Handshake duration on QUIC with secp521r1 signature algorithm -->
    <g style="fill: #262626" transform="translate(277.058437 21.650625) scale(0.12 -0.12)">
     <defs>
      <path id="ArialMT-51" d="M 3966 491 
Q 4388 200 4744 66 
L 4566 -356 
Q 4072 -178 3581 206 
Q 3072 -78 2456 -78 
Q 1834 -78 1328 222 
Q 822 522 548 1065 
Q 275 1609 275 2291 
Q 275 2969 550 3525 
Q 825 4081 1333 4372 
Q 1841 4663 2469 4663 
Q 3103 4663 3612 4361 
Q 4122 4059 4389 3517 
Q 4656 2975 4656 2294 
Q 4656 1728 4484 1276 
Q 4313 825 3966 491 
z
M 2631 1266 
Q 3156 1119 3497 828 
Q 4031 1316 4031 2294 
Q 4031 2850 3842 3265 
Q 3653 3681 3289 3911 
Q 2925 4141 2472 4141 
Q 1794 4141 1347 3677 
Q 900 3213 900 2291 
Q 900 1397 1342 919 
Q 1784 441 2472 441 
Q 2797 441 3084 563 
Q 2800 747 2484 825 
L 2631 1266 
z
" transform="scale(0.015625)"/>
      <path id="ArialMT-55" d="M 3500 4581 
L 4106 4581 
L 4106 1934 
Q 4106 1244 3950 837 
Q 3794 431 3386 176 
Q 2978 -78 2316 -78 
Q 1672 -78 1262 144 
Q 853 366 678 786 
Q 503 1206 503 1934 
L 503 4581 
L 1109 4581 
L 1109 1938 
Q 1109 1341 1220 1058 
Q 1331 775 1601 622 
Q 1872 469 2263 469 
Q 2931 469 3215 772 
Q 3500 1075 3500 1938 
L 3500 4581 
z
" transform="scale(0.015625)"/>
      <path id="ArialMT-49" d="M 597 0 
L 597 4581 
L 1203 4581 
L 1203 0 
L 597 0 
z
" transform="scale(0.015625)"/>
      <path id="ArialMT-43" d="M 3763 1606 
L 4369 1453 
Q 4178 706 3683 314 
Q 3188 -78 2472 -78 
Q 1731 -78 1267 223 
Q 803 525 561 1097 
Q 319 1669 319 2325 
Q 319 3041 592 3573 
Q 866 4106 1370 4382 
Q 1875 4659 2481 4659 
Q 3169 4659 3637 4309 
Q 4106 3959 4291 3325 
L 3694 3184 
Q 3534 3684 3231 3912 
Q 2928 4141 2469 4141 
Q 1941 4141 1586 3887 
Q 1231 3634 1087 3207 
Q 944 2781 944 2328 
Q 944 1744 1114 1308 
Q 1284 872 1643 656 
Q 2003 441 2422 441 
Q 2931 441 3284 734 
Q 3638 1028 3763 1606 
z
" transform="scale(0.015625)"/>
      <path id="ArialMT-77" d="M 1034 0 
L 19 3319 
L 600 3319 
L 1128 1403 
L 1325 691 
Q 1338 744 1497 1375 
L 2025 3319 
L 2603 3319 
L 3100 1394 
L 3266 759 
L 3456 1400 
L 4025 3319 
L 4572 3319 
L 3534 0 
L 2950 0 
L 2422 1988 
L 2294 2553 
L 1622 0 
L 1034 0 
z
" transform="scale(0.015625)"/>
      <path id="ArialMT-63" d="M 2588 1216 
L 3141 1144 
Q 3050 572 2676 248 
Q 2303 -75 1759 -75 
Q 1078 -75 664 370 
Q 250 816 250 1647 
Q 250 2184 428 2587 
Q 606 2991 970 3192 
Q 1334 3394 1763 3394 
Q 2303 3394 2647 3120 
Q 2991 2847 3088 2344 
L 2541 2259 
Q 2463 2594 2264 2762 
Q 2066 2931 1784 2931 
Q 1359 2931 1093 2626 
Q 828 2322 828 1663 
Q 828 994 1084 691 
Q 1341 388 1753 388 
Q 2084 388 2306 591 
Q 2528 794 2588 1216 
z
" transform="scale(0.015625)"/>
      <path id="ArialMT-67" d="M 319 -275 
L 866 -356 
Q 900 -609 1056 -725 
Q 1266 -881 1628 -881 
Q 2019 -881 2231 -725 
Q 2444 -569 2519 -288 
Q 2563 -116 2559 434 
Q 2191 0 1641 0 
Q 956 0 581 494 
Q 206 988 206 1678 
Q 206 2153 378 2554 
Q 550 2956 876 3175 
Q 1203 3394 1644 3394 
Q 2231 3394 2613 2919 
L 2613 3319 
L 3131 3319 
L 3131 450 
Q 3131 -325 2973 -648 
Q 2816 -972 2473 -1159 
Q 2131 -1347 1631 -1347 
Q 1038 -1347 672 -1080 
Q 306 -813 319 -275 
z
M 784 1719 
Q 784 1066 1043 766 
Q 1303 466 1694 466 
Q 2081 466 2343 764 
Q 2606 1063 2606 1700 
Q 2606 2309 2336 2618 
Q 2066 2928 1684 2928 
Q 1309 2928 1046 2623 
Q 784 2319 784 1719 
z
" transform="scale(0.015625)"/>
     </defs>
     <use xlink:href="#ArialMT-48"/>
     <use xlink:href="#ArialMT-61" x="72.216797"/>
     <use xlink:href="#ArialMT-6e" x="127.832031"/>
     <use xlink:href="#ArialMT-64" x="183.447266"/>
     <use xlink:href="#ArialMT-73" x="239.0625"/>
     <use xlink:href="#ArialMT-68" x="289.0625"/>
     <use xlink:href="#ArialMT-61" x="344.677734"/>
     <use xlink:href="#ArialMT-6b" x="400.292969"/>
     <use xlink:href="#ArialMT-65" x="450.292969"/>
     <use xlink:href="#ArialMT-20" x="505.908203"/>
     <use xlink:href="#ArialMT-64" x="533.691406"/>
     <use xlink:href="#ArialMT-75" x="589.306641"/>
     <use xlink:href="#ArialMT-72" x="644.921875"/>
     <use xlink:href="#ArialMT-61" x="678.222656"/>
     <use xlink:href="#ArialMT-74" x="733.837891"/>
     <use xlink:href="#ArialMT-69" x="761.621094"/>
     <use xlink:href="#ArialMT-6f" x="783.837891"/>
     <use xlink:href="#ArialMT-6e" x="839.453125"/>
     <use xlink:href="#ArialMT-20" x="895.068359"/>
     <use xlink:href="#ArialMT-6f" x="922.851562"/>
     <use xlink:href="#ArialMT-6e" x="978.466797"/>
     <use xlink:href="#ArialMT-20" x="1034.082031"/>
     <use xlink:href="#ArialMT-51" x="1061.865234"/>
     <use xlink:href="#ArialMT-55" x="1139.648438"/>
     <use xlink:href="#ArialMT-49" x="1211.865234"/>
     <use xlink:href="#ArialMT-43" x="1239.648438"/>
     <use xlink:href="#ArialMT-20" x="1311.865234"/>
     <use xlink:href="#ArialMT-77" x="1339.648438"/>
     <use xlink:href="#ArialMT-69" x="1411.865234"/>
     <use xlink:href="#ArialMT-74" x="1434.082031"/>
     <use xlink:href="#ArialMT-68" x="1461.865234"/>
     <use xlink:href="#ArialMT-20" x="1517.480469"/>
     <use xlink:href="#ArialMT-73" x="1545.263672"/>
     <use xlink:href="#ArialMT-65" x="1595.263672"/>
     <use xlink:href="#ArialMT-63" x="1650.878906"/>
     <use xlink:href="#ArialMT-70" x="1700.878906"/>
     <use xlink:href="#ArialMT-35" x="1756.494141"/>
     <use xlink:href="#ArialMT-32" x="1812.109375"/>
     <use xlink:href="#ArialMT-31" x="1867.724609"/>
     <use xlink:href="#ArialMT-72" x="1923.339844"/>
     <use xlink:href="#ArialMT-31" x="1956.640625"/>
     <use xlink:href="#ArialMT-20" x="2012.255859"/>
     <use xlink:href="#ArialMT-73" x="2040.039062"/>
     <use xlink:href="#ArialMT-69" x="2090.039062"/>
     <use xlink:href="#ArialMT-67" x="2112.255859"/>
     <use xlink:href="#ArialMT-6e" x="2167.871094"/>
     <use xlink:href="#ArialMT-61" x="2223.486328"/>
     <use xlink:href="#ArialMT-74" x="2279.101562"/>
     <use xlink:href="#ArialMT-75" x="2306.884766"/>
     <use xlink:href="#ArialMT-72" x="2362.5"/>
     <use xlink:href="#ArialMT-65" x="2395.800781"/>
     <use xlink:href="#ArialMT-20" x="2451.416016"/>
     <use xlink:href="#ArialMT-61" x="2479.199219"/>
     <use xlink:href="#ArialMT-6c" x="2534.814453"/>
     <use xlink:href="#ArialMT-67" x="2557.03125"/>
     <use xlink:href="#ArialMT-6f" x="2612.646484"/>
     <use xlink:href="#ArialMT-72" x="2668.261719"/>
     <use xlink:href="#ArialMT-69" x="2701.5625"/>
     <use xlink:href="#ArialMT-74" x="2723.779297"/>
     <use xlink:href="#ArialMT-68" x="2751.5625"/>
     <use xlink:href="#ArialMT-6d" x="2807.177734"/>
    </g>
   </g>
  </g>
 </g>
 <defs>
  <clipPath id="pb9efe0b501">
   <rect x="49.910625" y="27.650625" width="801.129375" height="368.929375"/>
  </clipPath>
 </defs>
</svg>
