<?xml version="1.0" encoding="utf-8" standalone="no"?>
<!DOCTYPE svg PUBLIC "-//W3C//DTD SVG 1.1//EN"
  "http://www.w3.org/Graphics/SVG/1.1/DTD/svg11.dtd">
<svg xmlns:xlink="http://www.w3.org/1999/xlink" width="864pt" height="432pt" viewBox="0 0 864 432" xmlns="http://www.w3.org/2000/svg" version="1.1">
 <metadata>
  <rdf:RDF xmlns:dc="http://purl.org/dc/elements/1.1/" xmlns:cc="http://creativecommons.org/ns#" xmlns:rdf="http://www.w3.org/1999/02/22-rdf-syntax-ns#">
   <cc:Work>
    <dc:type rdf:resource="http://purl.org/dc/dcmitype/StillImage"/>
    <dc:date>2025-05-11T15:43:05.146613</dc:date>
    <dc:format>image/svg+xml</dc:format>
    <dc:creator>
     <cc:Agent>
      <dc:title>Matplotlib v3.8.0, https://matplotlib.org/</dc:title>
     </cc:Agent>
    </dc:creator>
   </cc:Work>
  </rdf:RDF>
 </metadata>
 <defs>
  <style type="text/css">*{stroke-linejoin: round; stroke-linecap: butt}</style>
 </defs>
 <g id="figure_1">
  <g id="patch_1">
   <path d="M 0 432 
L 864 432 
L 864 0 
L 0 0 
z
" style="fill: #ffffff"/>
  </g>
  <g id="axes_1">
   <g id="patch_2">
    <path d="M 59.045625 396.58 
L 851.04 396.58 
L 851.04 27.650625 
L 59.045625 27.650625 
z
" style="fill: #ffffff"/>
   </g>
   <g id="matplotlib.axis_1">
    <g id="xtick_1">
     <g id="text_1">
      <!-- P-384 -->
      <g style="fill: #262626" transform="translate(119.567094 416.100937) scale(0.14 -0.14)">
       <defs>
        <path id="ArialMT-50" d="M 494 0 
L 494 4581 
L 2222 4581 
Q 2678 4581 2919 4538 
Q 3256 4481 3484 4323 
Q 3713 4166 3852 3881 
Q 3991 3597 3991 3256 
Q 3991 2672 3619 2267 
Q 3247 1863 2275 1863 
L 1100 1863 
L 1100 0 
L 494 0 
z
M 1100 2403 
L 2284 2403 
Q 2872 2403 3119 2622 
Q 3366 2841 3366 3238 
Q 3366 3525 3220 3729 
Q 3075 3934 2838 4000 
Q 2684 4041 2272 4041 
L 1100 4041 
L 1100 2403 
z
" transform="scale(0.015625)"/>
        <path id="ArialMT-2d" d="M 203 1375 
L 203 1941 
L 1931 1941 
L 1931 1375 
L 203 1375 
z
" transform="scale(0.015625)"/>
        <path id="ArialMT-33" d="M 269 1209 
L 831 1284 
Q 928 806 1161 595 
Q 1394 384 1728 384 
Q 2125 384 2398 659 
Q 2672 934 2672 1341 
Q 2672 1728 2419 1979 
Q 2166 2231 1775 2231 
Q 1616 2231 1378 2169 
L 1441 2663 
Q 1497 2656 1531 2656 
Q 1891 2656 2178 2843 
Q 2466 3031 2466 3422 
Q 2466 3731 2256 3934 
Q 2047 4138 1716 4138 
Q 1388 4138 1169 3931 
Q 950 3725 888 3313 
L 325 3413 
Q 428 3978 793 4289 
Q 1159 4600 1703 4600 
Q 2078 4600 2393 4439 
Q 2709 4278 2876 4000 
Q 3044 3722 3044 3409 
Q 3044 3113 2884 2869 
Q 2725 2625 2413 2481 
Q 2819 2388 3044 2092 
Q 3269 1797 3269 1353 
Q 3269 753 2831 336 
Q 2394 -81 1725 -81 
Q 1122 -81 723 278 
Q 325 638 269 1209 
z
" transform="scale(0.015625)"/>
        <path id="ArialMT-38" d="M 1131 2484 
Q 781 2613 612 2850 
Q 444 3088 444 3419 
Q 444 3919 803 4259 
Q 1163 4600 1759 4600 
Q 2359 4600 2725 4251 
Q 3091 3903 3091 3403 
Q 3091 3084 2923 2848 
Q 2756 2613 2416 2484 
Q 2838 2347 3058 2040 
Q 3278 1734 3278 1309 
Q 3278 722 2862 322 
Q 2447 -78 1769 -78 
Q 1091 -78 675 323 
Q 259 725 259 1325 
Q 259 1772 486 2073 
Q 713 2375 1131 2484 
z
M 1019 3438 
Q 1019 3113 1228 2906 
Q 1438 2700 1772 2700 
Q 2097 2700 2305 2904 
Q 2513 3109 2513 3406 
Q 2513 3716 2298 3927 
Q 2084 4138 1766 4138 
Q 1444 4138 1231 3931 
Q 1019 3725 1019 3438 
z
M 838 1322 
Q 838 1081 952 856 
Q 1066 631 1291 507 
Q 1516 384 1775 384 
Q 2178 384 2440 643 
Q 2703 903 2703 1303 
Q 2703 1709 2433 1975 
Q 2163 2241 1756 2241 
Q 1359 2241 1098 1978 
Q 838 1716 838 1322 
z
" transform="scale(0.015625)"/>
        <path id="ArialMT-34" d="M 2069 0 
L 2069 1097 
L 81 1097 
L 81 1613 
L 2172 4581 
L 2631 4581 
L 2631 1613 
L 3250 1613 
L 3250 1097 
L 2631 1097 
L 2631 0 
L 2069 0 
z
M 2069 1613 
L 2069 3678 
L 634 1613 
L 2069 1613 
z
" transform="scale(0.015625)"/>
       </defs>
       <use xlink:href="#ArialMT-50"/>
       <use xlink:href="#ArialMT-2d" x="66.699219"/>
       <use xlink:href="#ArialMT-33" x="100"/>
       <use xlink:href="#ArialMT-38" x="155.615234"/>
       <use xlink:href="#ArialMT-34" x="211.230469"/>
      </g>
     </g>
    </g>
    <g id="xtick_2">
     <g id="text_2">
      <!-- x448 -->
      <g style="fill: #262626" transform="translate(281.465969 416.100937) scale(0.14 -0.14)">
       <defs>
        <path id="ArialMT-78" d="M 47 0 
L 1259 1725 
L 138 3319 
L 841 3319 
L 1350 2541 
Q 1494 2319 1581 2169 
Q 1719 2375 1834 2534 
L 2394 3319 
L 3066 3319 
L 1919 1756 
L 3153 0 
L 2463 0 
L 1781 1031 
L 1600 1309 
L 728 0 
L 47 0 
z
" transform="scale(0.015625)"/>
       </defs>
       <use xlink:href="#ArialMT-78"/>
       <use xlink:href="#ArialMT-34" x="50"/>
       <use xlink:href="#ArialMT-34" x="105.615234"/>
       <use xlink:href="#ArialMT-38" x="161.230469"/>
      </g>
     </g>
    </g>
    <g id="xtick_3">
     <g id="text_3">
      <!-- p384_mlkem768 -->
      <g style="fill: #262626" transform="translate(403.292031 416.1425) scale(0.14 -0.14)">
       <defs>
        <path id="ArialMT-70" d="M 422 -1272 
L 422 3319 
L 934 3319 
L 934 2888 
Q 1116 3141 1344 3267 
Q 1572 3394 1897 3394 
Q 2322 3394 2647 3175 
Q 2972 2956 3137 2557 
Q 3303 2159 3303 1684 
Q 3303 1175 3120 767 
Q 2938 359 2589 142 
Q 2241 -75 1856 -75 
Q 1575 -75 1351 44 
Q 1128 163 984 344 
L 984 -1272 
L 422 -1272 
z
M 931 1641 
Q 931 1000 1190 694 
Q 1450 388 1819 388 
Q 2194 388 2461 705 
Q 2728 1022 2728 1688 
Q 2728 2322 2467 2637 
Q 2206 2953 1844 2953 
Q 1484 2953 1207 2617 
Q 931 2281 931 1641 
z
" transform="scale(0.015625)"/>
        <path id="ArialMT-5f" d="M -97 -1272 
L -97 -866 
L 3631 -866 
L 3631 -1272 
L -97 -1272 
z
" transform="scale(0.015625)"/>
        <path id="ArialMT-6d" d="M 422 0 
L 422 3319 
L 925 3319 
L 925 2853 
Q 1081 3097 1340 3245 
Q 1600 3394 1931 3394 
Q 2300 3394 2536 3241 
Q 2772 3088 2869 2813 
Q 3263 3394 3894 3394 
Q 4388 3394 4653 3120 
Q 4919 2847 4919 2278 
L 4919 0 
L 4359 0 
L 4359 2091 
Q 4359 2428 4304 2576 
Q 4250 2725 4106 2815 
Q 3963 2906 3769 2906 
Q 3419 2906 3187 2673 
Q 2956 2441 2956 1928 
L 2956 0 
L 2394 0 
L 2394 2156 
Q 2394 2531 2256 2718 
Q 2119 2906 1806 2906 
Q 1569 2906 1367 2781 
Q 1166 2656 1075 2415 
Q 984 2175 984 1722 
L 984 0 
L 422 0 
z
" transform="scale(0.015625)"/>
        <path id="ArialMT-6c" d="M 409 0 
L 409 4581 
L 972 4581 
L 972 0 
L 409 0 
z
" transform="scale(0.015625)"/>
        <path id="ArialMT-6b" d="M 425 0 
L 425 4581 
L 988 4581 
L 988 1969 
L 2319 3319 
L 3047 3319 
L 1778 2088 
L 3175 0 
L 2481 0 
L 1384 1697 
L 988 1316 
L 988 0 
L 425 0 
z
" transform="scale(0.015625)"/>
        <path id="ArialMT-65" d="M 2694 1069 
L 3275 997 
Q 3138 488 2766 206 
Q 2394 -75 1816 -75 
Q 1088 -75 661 373 
Q 234 822 234 1631 
Q 234 2469 665 2931 
Q 1097 3394 1784 3394 
Q 2450 3394 2872 2941 
Q 3294 2488 3294 1666 
Q 3294 1616 3291 1516 
L 816 1516 
Q 847 969 1125 678 
Q 1403 388 1819 388 
Q 2128 388 2347 550 
Q 2566 713 2694 1069 
z
M 847 1978 
L 2700 1978 
Q 2663 2397 2488 2606 
Q 2219 2931 1791 2931 
Q 1403 2931 1139 2672 
Q 875 2413 847 1978 
z
" transform="scale(0.015625)"/>
        <path id="ArialMT-37" d="M 303 3981 
L 303 4522 
L 3269 4522 
L 3269 4084 
Q 2831 3619 2401 2847 
Q 1972 2075 1738 1259 
Q 1569 684 1522 0 
L 944 0 
Q 953 541 1156 1306 
Q 1359 2072 1739 2783 
Q 2119 3494 2547 3981 
L 303 3981 
z
" transform="scale(0.015625)"/>
        <path id="ArialMT-36" d="M 3184 3459 
L 2625 3416 
Q 2550 3747 2413 3897 
Q 2184 4138 1850 4138 
Q 1581 4138 1378 3988 
Q 1113 3794 959 3422 
Q 806 3050 800 2363 
Q 1003 2672 1297 2822 
Q 1591 2972 1913 2972 
Q 2475 2972 2870 2558 
Q 3266 2144 3266 1488 
Q 3266 1056 3080 686 
Q 2894 316 2569 119 
Q 2244 -78 1831 -78 
Q 1128 -78 684 439 
Q 241 956 241 2144 
Q 241 3472 731 4075 
Q 1159 4600 1884 4600 
Q 2425 4600 2770 4297 
Q 3116 3994 3184 3459 
z
M 888 1484 
Q 888 1194 1011 928 
Q 1134 663 1356 523 
Q 1578 384 1822 384 
Q 2178 384 2434 671 
Q 2691 959 2691 1453 
Q 2691 1928 2437 2201 
Q 2184 2475 1800 2475 
Q 1419 2475 1153 2201 
Q 888 1928 888 1484 
z
" transform="scale(0.015625)"/>
       </defs>
       <use xlink:href="#ArialMT-70"/>
       <use xlink:href="#ArialMT-33" x="55.615234"/>
       <use xlink:href="#ArialMT-38" x="111.230469"/>
       <use xlink:href="#ArialMT-34" x="166.845703"/>
       <use xlink:href="#ArialMT-5f" x="222.460938"/>
       <use xlink:href="#ArialMT-6d" x="278.076172"/>
       <use xlink:href="#ArialMT-6c" x="361.376953"/>
       <use xlink:href="#ArialMT-6b" x="383.59375"/>
       <use xlink:href="#ArialMT-65" x="433.59375"/>
       <use xlink:href="#ArialMT-6d" x="489.208984"/>
       <use xlink:href="#ArialMT-37" x="572.509766"/>
       <use xlink:href="#ArialMT-36" x="628.125"/>
       <use xlink:href="#ArialMT-38" x="683.740234"/>
      </g>
     </g>
    </g>
    <g id="xtick_4">
     <g id="text_4">
      <!-- x448_mlkem768 -->
      <g style="fill: #262626" transform="translate(562.083563 416.1425) scale(0.14 -0.14)">
       <use xlink:href="#ArialMT-78"/>
       <use xlink:href="#ArialMT-34" x="50"/>
       <use xlink:href="#ArialMT-34" x="105.615234"/>
       <use xlink:href="#ArialMT-38" x="161.230469"/>
       <use xlink:href="#ArialMT-5f" x="216.845703"/>
       <use xlink:href="#ArialMT-6d" x="272.460938"/>
       <use xlink:href="#ArialMT-6c" x="355.761719"/>
       <use xlink:href="#ArialMT-6b" x="377.978516"/>
       <use xlink:href="#ArialMT-65" x="427.978516"/>
       <use xlink:href="#ArialMT-6d" x="483.59375"/>
       <use xlink:href="#ArialMT-37" x="566.894531"/>
       <use xlink:href="#ArialMT-36" x="622.509766"/>
       <use xlink:href="#ArialMT-38" x="678.125"/>
      </g>
     </g>
    </g>
    <g id="xtick_5">
     <g id="text_5">
      <!-- mlkem768 -->
      <g style="fill: #262626" transform="translate(739.553063 416.100937) scale(0.14 -0.14)">
       <use xlink:href="#ArialMT-6d"/>
       <use xlink:href="#ArialMT-6c" x="83.300781"/>
       <use xlink:href="#ArialMT-6b" x="105.517578"/>
       <use xlink:href="#ArialMT-65" x="155.517578"/>
       <use xlink:href="#ArialMT-6d" x="211.132812"/>
       <use xlink:href="#ArialMT-37" x="294.433594"/>
       <use xlink:href="#ArialMT-36" x="350.048828"/>
       <use xlink:href="#ArialMT-38" x="405.664062"/>
      </g>
     </g>
    </g>
   </g>
   <g id="matplotlib.axis_2">
    <g id="ytick_1">
     <g id="line2d_1">
      <path d="M 59.045625 391.858949 
L 851.04 391.858949 
" clip-path="url(#p93ef30eab6)" style="fill: none; stroke: #cccccc; stroke-linecap: round"/>
     </g>
     <g id="text_6">
      <!-- 2.5 -->
      <g style="fill: #262626" transform="translate(34.255625 395.795746) scale(0.11 -0.11)">
       <defs>
        <path id="ArialMT-32" d="M 3222 541 
L 3222 0 
L 194 0 
Q 188 203 259 391 
Q 375 700 629 1000 
Q 884 1300 1366 1694 
Q 2113 2306 2375 2664 
Q 2638 3022 2638 3341 
Q 2638 3675 2398 3904 
Q 2159 4134 1775 4134 
Q 1369 4134 1125 3890 
Q 881 3647 878 3216 
L 300 3275 
Q 359 3922 746 4261 
Q 1134 4600 1788 4600 
Q 2447 4600 2831 4234 
Q 3216 3869 3216 3328 
Q 3216 3053 3103 2787 
Q 2991 2522 2730 2228 
Q 2469 1934 1863 1422 
Q 1356 997 1212 845 
Q 1069 694 975 541 
L 3222 541 
z
" transform="scale(0.015625)"/>
        <path id="ArialMT-2e" d="M 581 0 
L 581 641 
L 1222 641 
L 1222 0 
L 581 0 
z
" transform="scale(0.015625)"/>
        <path id="ArialMT-35" d="M 266 1200 
L 856 1250 
Q 922 819 1161 601 
Q 1400 384 1738 384 
Q 2144 384 2425 690 
Q 2706 997 2706 1503 
Q 2706 1984 2436 2262 
Q 2166 2541 1728 2541 
Q 1456 2541 1237 2417 
Q 1019 2294 894 2097 
L 366 2166 
L 809 4519 
L 3088 4519 
L 3088 3981 
L 1259 3981 
L 1013 2750 
Q 1425 3038 1878 3038 
Q 2478 3038 2890 2622 
Q 3303 2206 3303 1553 
Q 3303 931 2941 478 
Q 2500 -78 1738 -78 
Q 1113 -78 717 272 
Q 322 622 266 1200 
z
" transform="scale(0.015625)"/>
       </defs>
       <use xlink:href="#ArialMT-32"/>
       <use xlink:href="#ArialMT-2e" x="55.615234"/>
       <use xlink:href="#ArialMT-35" x="83.398438"/>
      </g>
     </g>
    </g>
    <g id="ytick_2">
     <g id="line2d_2">
      <path d="M 59.045625 350.804939 
L 851.04 350.804939 
" clip-path="url(#p93ef30eab6)" style="fill: none; stroke: #cccccc; stroke-linecap: round"/>
     </g>
     <g id="text_7">
      <!-- 5.0 -->
      <g style="fill: #262626" transform="translate(34.255625 354.741736) scale(0.11 -0.11)">
       <defs>
        <path id="ArialMT-30" d="M 266 2259 
Q 266 3072 433 3567 
Q 600 4063 929 4331 
Q 1259 4600 1759 4600 
Q 2128 4600 2406 4451 
Q 2684 4303 2865 4023 
Q 3047 3744 3150 3342 
Q 3253 2941 3253 2259 
Q 3253 1453 3087 958 
Q 2922 463 2592 192 
Q 2263 -78 1759 -78 
Q 1097 -78 719 397 
Q 266 969 266 2259 
z
M 844 2259 
Q 844 1131 1108 757 
Q 1372 384 1759 384 
Q 2147 384 2411 759 
Q 2675 1134 2675 2259 
Q 2675 3391 2411 3762 
Q 2147 4134 1753 4134 
Q 1366 4134 1134 3806 
Q 844 3388 844 2259 
z
" transform="scale(0.015625)"/>
       </defs>
       <use xlink:href="#ArialMT-35"/>
       <use xlink:href="#ArialMT-2e" x="55.615234"/>
       <use xlink:href="#ArialMT-30" x="83.398438"/>
      </g>
     </g>
    </g>
    <g id="ytick_3">
     <g id="line2d_3">
      <path d="M 59.045625 309.75093 
L 851.04 309.75093 
" clip-path="url(#p93ef30eab6)" style="fill: none; stroke: #cccccc; stroke-linecap: round"/>
     </g>
     <g id="text_8">
      <!-- 7.5 -->
      <g style="fill: #262626" transform="translate(34.255625 313.687727) scale(0.11 -0.11)">
       <use xlink:href="#ArialMT-37"/>
       <use xlink:href="#ArialMT-2e" x="55.615234"/>
       <use xlink:href="#ArialMT-35" x="83.398438"/>
      </g>
     </g>
    </g>
    <g id="ytick_4">
     <g id="line2d_4">
      <path d="M 59.045625 268.69692 
L 851.04 268.69692 
" clip-path="url(#p93ef30eab6)" style="fill: none; stroke: #cccccc; stroke-linecap: round"/>
     </g>
     <g id="text_9">
      <!-- 10.0 -->
      <g style="fill: #262626" transform="translate(28.138594 272.633717) scale(0.11 -0.11)">
       <defs>
        <path id="ArialMT-31" d="M 2384 0 
L 1822 0 
L 1822 3584 
Q 1619 3391 1289 3197 
Q 959 3003 697 2906 
L 697 3450 
Q 1169 3672 1522 3987 
Q 1875 4303 2022 4600 
L 2384 4600 
L 2384 0 
z
" transform="scale(0.015625)"/>
       </defs>
       <use xlink:href="#ArialMT-31"/>
       <use xlink:href="#ArialMT-30" x="55.615234"/>
       <use xlink:href="#ArialMT-2e" x="111.230469"/>
       <use xlink:href="#ArialMT-30" x="139.013672"/>
      </g>
     </g>
    </g>
    <g id="ytick_5">
     <g id="line2d_5">
      <path d="M 59.045625 227.642911 
L 851.04 227.642911 
" clip-path="url(#p93ef30eab6)" style="fill: none; stroke: #cccccc; stroke-linecap: round"/>
     </g>
     <g id="text_10">
      <!-- 12.5 -->
      <g style="fill: #262626" transform="translate(28.138594 231.579708) scale(0.11 -0.11)">
       <use xlink:href="#ArialMT-31"/>
       <use xlink:href="#ArialMT-32" x="55.615234"/>
       <use xlink:href="#ArialMT-2e" x="111.230469"/>
       <use xlink:href="#ArialMT-35" x="139.013672"/>
      </g>
     </g>
    </g>
    <g id="ytick_6">
     <g id="line2d_6">
      <path d="M 59.045625 186.588902 
L 851.04 186.588902 
" clip-path="url(#p93ef30eab6)" style="fill: none; stroke: #cccccc; stroke-linecap: round"/>
     </g>
     <g id="text_11">
      <!-- 15.0 -->
      <g style="fill: #262626" transform="translate(28.138594 190.525698) scale(0.11 -0.11)">
       <use xlink:href="#ArialMT-31"/>
       <use xlink:href="#ArialMT-35" x="55.615234"/>
       <use xlink:href="#ArialMT-2e" x="111.230469"/>
       <use xlink:href="#ArialMT-30" x="139.013672"/>
      </g>
     </g>
    </g>
    <g id="ytick_7">
     <g id="line2d_7">
      <path d="M 59.045625 145.534892 
L 851.04 145.534892 
" clip-path="url(#p93ef30eab6)" style="fill: none; stroke: #cccccc; stroke-linecap: round"/>
     </g>
     <g id="text_12">
      <!-- 17.5 -->
      <g style="fill: #262626" transform="translate(28.138594 149.471689) scale(0.11 -0.11)">
       <use xlink:href="#ArialMT-31"/>
       <use xlink:href="#ArialMT-37" x="55.615234"/>
       <use xlink:href="#ArialMT-2e" x="111.230469"/>
       <use xlink:href="#ArialMT-35" x="139.013672"/>
      </g>
     </g>
    </g>
    <g id="ytick_8">
     <g id="line2d_8">
      <path d="M 59.045625 104.480883 
L 851.04 104.480883 
" clip-path="url(#p93ef30eab6)" style="fill: none; stroke: #cccccc; stroke-linecap: round"/>
     </g>
     <g id="text_13">
      <!-- 20.0 -->
      <g style="fill: #262626" transform="translate(28.138594 108.41768) scale(0.11 -0.11)">
       <use xlink:href="#ArialMT-32"/>
       <use xlink:href="#ArialMT-30" x="55.615234"/>
       <use xlink:href="#ArialMT-2e" x="111.230469"/>
       <use xlink:href="#ArialMT-30" x="139.013672"/>
      </g>
     </g>
    </g>
    <g id="ytick_9">
     <g id="line2d_9">
      <path d="M 59.045625 63.426873 
L 851.04 63.426873 
" clip-path="url(#p93ef30eab6)" style="fill: none; stroke: #cccccc; stroke-linecap: round"/>
     </g>
     <g id="text_14">
      <!-- 22.5 -->
      <g style="fill: #262626" transform="translate(28.138594 67.36367) scale(0.11 -0.11)">
       <use xlink:href="#ArialMT-32"/>
       <use xlink:href="#ArialMT-32" x="55.615234"/>
       <use xlink:href="#ArialMT-2e" x="111.230469"/>
       <use xlink:href="#ArialMT-35" x="139.013672"/>
      </g>
     </g>
    </g>
    <g id="text_15">
     <!-- Handshake duration (ms) -->
     <g style="fill: #262626" transform="translate(21.612969 279.475625) rotate(-90) scale(0.12 -0.12)">
      <defs>
       <path id="ArialMT-48" d="M 513 0 
L 513 4581 
L 1119 4581 
L 1119 2700 
L 3500 2700 
L 3500 4581 
L 4106 4581 
L 4106 0 
L 3500 0 
L 3500 2159 
L 1119 2159 
L 1119 0 
L 513 0 
z
" transform="scale(0.015625)"/>
       <path id="ArialMT-61" d="M 2588 409 
Q 2275 144 1986 34 
Q 1697 -75 1366 -75 
Q 819 -75 525 192 
Q 231 459 231 875 
Q 231 1119 342 1320 
Q 453 1522 633 1644 
Q 813 1766 1038 1828 
Q 1203 1872 1538 1913 
Q 2219 1994 2541 2106 
Q 2544 2222 2544 2253 
Q 2544 2597 2384 2738 
Q 2169 2928 1744 2928 
Q 1347 2928 1158 2789 
Q 969 2650 878 2297 
L 328 2372 
Q 403 2725 575 2942 
Q 747 3159 1072 3276 
Q 1397 3394 1825 3394 
Q 2250 3394 2515 3294 
Q 2781 3194 2906 3042 
Q 3031 2891 3081 2659 
Q 3109 2516 3109 2141 
L 3109 1391 
Q 3109 606 3145 398 
Q 3181 191 3288 0 
L 2700 0 
Q 2613 175 2588 409 
z
M 2541 1666 
Q 2234 1541 1622 1453 
Q 1275 1403 1131 1340 
Q 988 1278 909 1158 
Q 831 1038 831 891 
Q 831 666 1001 516 
Q 1172 366 1500 366 
Q 1825 366 2078 508 
Q 2331 650 2450 897 
Q 2541 1088 2541 1459 
L 2541 1666 
z
" transform="scale(0.015625)"/>
       <path id="ArialMT-6e" d="M 422 0 
L 422 3319 
L 928 3319 
L 928 2847 
Q 1294 3394 1984 3394 
Q 2284 3394 2536 3286 
Q 2788 3178 2913 3003 
Q 3038 2828 3088 2588 
Q 3119 2431 3119 2041 
L 3119 0 
L 2556 0 
L 2556 2019 
Q 2556 2363 2490 2533 
Q 2425 2703 2258 2804 
Q 2091 2906 1866 2906 
Q 1506 2906 1245 2678 
Q 984 2450 984 1813 
L 984 0 
L 422 0 
z
" transform="scale(0.015625)"/>
       <path id="ArialMT-64" d="M 2575 0 
L 2575 419 
Q 2259 -75 1647 -75 
Q 1250 -75 917 144 
Q 584 363 401 755 
Q 219 1147 219 1656 
Q 219 2153 384 2558 
Q 550 2963 881 3178 
Q 1213 3394 1622 3394 
Q 1922 3394 2156 3267 
Q 2391 3141 2538 2938 
L 2538 4581 
L 3097 4581 
L 3097 0 
L 2575 0 
z
M 797 1656 
Q 797 1019 1065 703 
Q 1334 388 1700 388 
Q 2069 388 2326 689 
Q 2584 991 2584 1609 
Q 2584 2291 2321 2609 
Q 2059 2928 1675 2928 
Q 1300 2928 1048 2622 
Q 797 2316 797 1656 
z
" transform="scale(0.015625)"/>
       <path id="ArialMT-73" d="M 197 991 
L 753 1078 
Q 800 744 1014 566 
Q 1228 388 1613 388 
Q 2000 388 2187 545 
Q 2375 703 2375 916 
Q 2375 1106 2209 1216 
Q 2094 1291 1634 1406 
Q 1016 1563 777 1677 
Q 538 1791 414 1992 
Q 291 2194 291 2438 
Q 291 2659 392 2848 
Q 494 3038 669 3163 
Q 800 3259 1026 3326 
Q 1253 3394 1513 3394 
Q 1903 3394 2198 3281 
Q 2494 3169 2634 2976 
Q 2775 2784 2828 2463 
L 2278 2388 
Q 2241 2644 2061 2787 
Q 1881 2931 1553 2931 
Q 1166 2931 1000 2803 
Q 834 2675 834 2503 
Q 834 2394 903 2306 
Q 972 2216 1119 2156 
Q 1203 2125 1616 2013 
Q 2213 1853 2448 1751 
Q 2684 1650 2818 1456 
Q 2953 1263 2953 975 
Q 2953 694 2789 445 
Q 2625 197 2315 61 
Q 2006 -75 1616 -75 
Q 969 -75 630 194 
Q 291 463 197 991 
z
" transform="scale(0.015625)"/>
       <path id="ArialMT-68" d="M 422 0 
L 422 4581 
L 984 4581 
L 984 2938 
Q 1378 3394 1978 3394 
Q 2347 3394 2619 3248 
Q 2891 3103 3008 2847 
Q 3125 2591 3125 2103 
L 3125 0 
L 2563 0 
L 2563 2103 
Q 2563 2525 2380 2717 
Q 2197 2909 1863 2909 
Q 1613 2909 1392 2779 
Q 1172 2650 1078 2428 
Q 984 2206 984 1816 
L 984 0 
L 422 0 
z
" transform="scale(0.015625)"/>
       <path id="ArialMT-20" transform="scale(0.015625)"/>
       <path id="ArialMT-75" d="M 2597 0 
L 2597 488 
Q 2209 -75 1544 -75 
Q 1250 -75 995 37 
Q 741 150 617 320 
Q 494 491 444 738 
Q 409 903 409 1263 
L 409 3319 
L 972 3319 
L 972 1478 
Q 972 1038 1006 884 
Q 1059 663 1231 536 
Q 1403 409 1656 409 
Q 1909 409 2131 539 
Q 2353 669 2445 892 
Q 2538 1116 2538 1541 
L 2538 3319 
L 3100 3319 
L 3100 0 
L 2597 0 
z
" transform="scale(0.015625)"/>
       <path id="ArialMT-72" d="M 416 0 
L 416 3319 
L 922 3319 
L 922 2816 
Q 1116 3169 1280 3281 
Q 1444 3394 1641 3394 
Q 1925 3394 2219 3213 
L 2025 2691 
Q 1819 2813 1613 2813 
Q 1428 2813 1281 2702 
Q 1134 2591 1072 2394 
Q 978 2094 978 1738 
L 978 0 
L 416 0 
z
" transform="scale(0.015625)"/>
       <path id="ArialMT-74" d="M 1650 503 
L 1731 6 
Q 1494 -44 1306 -44 
Q 1000 -44 831 53 
Q 663 150 594 308 
Q 525 466 525 972 
L 525 2881 
L 113 2881 
L 113 3319 
L 525 3319 
L 525 4141 
L 1084 4478 
L 1084 3319 
L 1650 3319 
L 1650 2881 
L 1084 2881 
L 1084 941 
Q 1084 700 1114 631 
Q 1144 563 1211 522 
Q 1278 481 1403 481 
Q 1497 481 1650 503 
z
" transform="scale(0.015625)"/>
       <path id="ArialMT-69" d="M 425 3934 
L 425 4581 
L 988 4581 
L 988 3934 
L 425 3934 
z
M 425 0 
L 425 3319 
L 988 3319 
L 988 0 
L 425 0 
z
" transform="scale(0.015625)"/>
       <path id="ArialMT-6f" d="M 213 1659 
Q 213 2581 725 3025 
Q 1153 3394 1769 3394 
Q 2453 3394 2887 2945 
Q 3322 2497 3322 1706 
Q 3322 1066 3130 698 
Q 2938 331 2570 128 
Q 2203 -75 1769 -75 
Q 1072 -75 642 372 
Q 213 819 213 1659 
z
M 791 1659 
Q 791 1022 1069 705 
Q 1347 388 1769 388 
Q 2188 388 2466 706 
Q 2744 1025 2744 1678 
Q 2744 2294 2464 2611 
Q 2184 2928 1769 2928 
Q 1347 2928 1069 2612 
Q 791 2297 791 1659 
z
" transform="scale(0.015625)"/>
       <path id="ArialMT-28" d="M 1497 -1347 
Q 1031 -759 709 28 
Q 388 816 388 1659 
Q 388 2403 628 3084 
Q 909 3875 1497 4659 
L 1900 4659 
Q 1522 4009 1400 3731 
Q 1209 3300 1100 2831 
Q 966 2247 966 1656 
Q 966 153 1900 -1347 
L 1497 -1347 
z
" transform="scale(0.015625)"/>
       <path id="ArialMT-29" d="M 791 -1347 
L 388 -1347 
Q 1322 153 1322 1656 
Q 1322 2244 1188 2822 
Q 1081 3291 891 3722 
Q 769 4003 388 4659 
L 791 4659 
Q 1378 3875 1659 3084 
Q 1900 2403 1900 1659 
Q 1900 816 1576 28 
Q 1253 -759 791 -1347 
z
" transform="scale(0.015625)"/>
      </defs>
      <use xlink:href="#ArialMT-48"/>
      <use xlink:href="#ArialMT-61" x="72.216797"/>
      <use xlink:href="#ArialMT-6e" x="127.832031"/>
      <use xlink:href="#ArialMT-64" x="183.447266"/>
      <use xlink:href="#ArialMT-73" x="239.0625"/>
      <use xlink:href="#ArialMT-68" x="289.0625"/>
      <use xlink:href="#ArialMT-61" x="344.677734"/>
      <use xlink:href="#ArialMT-6b" x="400.292969"/>
      <use xlink:href="#ArialMT-65" x="450.292969"/>
      <use xlink:href="#ArialMT-20" x="505.908203"/>
      <use xlink:href="#ArialMT-64" x="533.691406"/>
      <use xlink:href="#ArialMT-75" x="589.306641"/>
      <use xlink:href="#ArialMT-72" x="644.921875"/>
      <use xlink:href="#ArialMT-61" x="678.222656"/>
      <use xlink:href="#ArialMT-74" x="733.837891"/>
      <use xlink:href="#ArialMT-69" x="761.621094"/>
      <use xlink:href="#ArialMT-6f" x="783.837891"/>
      <use xlink:href="#ArialMT-6e" x="839.453125"/>
      <use xlink:href="#ArialMT-20" x="895.068359"/>
      <use xlink:href="#ArialMT-28" x="922.851562"/>
      <use xlink:href="#ArialMT-6d" x="956.152344"/>
      <use xlink:href="#ArialMT-73" x="1039.453125"/>
      <use xlink:href="#ArialMT-29" x="1089.453125"/>
     </g>
    </g>
   </g>
   <g id="PolyCollection_1">
    <defs>
     <path id="md6cc4db3ea" d="M 139.165768 -86.717158 
L 137.324357 -86.717158 
L 136.757678 -87.775018 
L 135.9273 -88.832878 
L 134.760944 -89.890737 
L 133.19226 -90.948597 
L 131.174919 -92.006457 
L 128.698964 -93.064316 
L 125.806327 -94.122176 
L 122.601454 -95.180036 
L 119.252887 -96.237896 
L 115.982899 -97.295755 
L 113.044691 -98.353615 
L 110.689853 -99.411475 
L 109.13175 -100.469334 
L 108.51229 -101.527194 
L 108.87933 -102.585054 
L 110.179806 -103.642914 
L 112.269967 -104.700773 
L 114.940032 -105.758633 
L 117.94745 -106.816493 
L 121.051455 -107.874352 
L 124.042226 -108.932212 
L 126.760135 -109.990072 
L 129.103489 -111.047932 
L 131.025929 -112.105791 
L 132.526503 -113.163651 
L 133.636132 -114.221511 
L 134.403853 -115.27937 
L 134.885271 -116.33723 
L 135.13443 -117.39509 
L 135.199311 -118.45295 
L 135.120404 -119.510809 
L 134.931421 -120.568669 
L 134.66113 -121.626529 
L 134.33539 -122.684388 
L 133.978689 -123.742248 
L 133.614807 -124.800108 
L 133.266494 -125.857968 
L 132.954391 -126.915827 
L 132.695579 -127.973687 
L 132.50224 -129.031547 
L 132.380844 -130.089406 
L 132.332074 -131.147266 
L 132.351482 -132.205126 
L 132.430594 -133.262986 
L 132.558148 -134.320845 
L 132.721139 -135.378705 
L 132.905562 -136.436565 
L 133.096946 -137.494424 
L 133.280957 -138.552284 
L 133.444354 -139.610144 
L 133.576431 -140.668003 
L 133.670801 -141.725863 
L 133.727112 -142.783723 
L 133.752114 -143.841583 
L 133.759537 -144.899442 
L 133.768516 -145.957302 
L 133.800686 -147.015162 
L 133.876472 -148.073021 
L 134.011394 -149.130881 
L 134.213217 -150.188741 
L 134.480605 -151.246601 
L 134.803518 -152.30446 
L 135.16518 -153.36232 
L 135.545073 -154.42018 
L 135.922235 -155.478039 
L 136.278177 -156.535899 
L 136.598912 -157.593759 
L 136.875915 -158.651619 
L 137.106043 -159.709478 
L 137.290718 -160.767338 
L 137.434678 -161.825198 
L 137.544627 -162.883057 
L 137.628024 -163.940917 
L 137.692125 -164.998777 
L 137.743313 -166.056637 
L 137.786704 -167.114496 
L 137.825978 -168.172356 
L 137.86339 -169.230216 
L 137.899921 -170.288075 
L 137.93555 -171.345935 
L 137.96959 -172.403795 
L 138.001068 -173.461655 
L 138.029076 -174.519514 
L 138.05305 -175.577374 
L 138.072929 -176.635234 
L 138.089173 -177.693093 
L 138.10265 -178.750953 
L 138.114435 -179.808813 
L 138.125571 -180.866673 
L 138.136867 -181.924532 
L 138.148763 -182.982392 
L 138.161301 -184.040252 
L 138.174188 -185.098111 
L 138.18692 -186.155971 
L 138.19893 -187.213831 
L 138.209721 -188.271691 
L 138.218952 -189.32955 
L 138.226474 -190.38741 
L 138.232317 -191.44527 
L 138.257808 -191.44527 
L 138.257808 -191.44527 
L 138.263651 -190.38741 
L 138.271173 -189.32955 
L 138.280404 -188.271691 
L 138.291195 -187.213831 
L 138.303205 -186.155971 
L 138.315937 -185.098111 
L 138.328824 -184.040252 
L 138.341362 -182.982392 
L 138.353258 -181.924532 
L 138.364554 -180.866673 
L 138.37569 -179.808813 
L 138.387475 -178.750953 
L 138.400952 -177.693093 
L 138.417196 -176.635234 
L 138.437075 -175.577374 
L 138.461049 -174.519514 
L 138.489057 -173.461655 
L 138.520535 -172.403795 
L 138.554575 -171.345935 
L 138.590204 -170.288075 
L 138.626735 -169.230216 
L 138.664147 -168.172356 
L 138.703421 -167.114496 
L 138.746812 -166.056637 
L 138.798 -164.998777 
L 138.862101 -163.940917 
L 138.945498 -162.883057 
L 139.055447 -161.825198 
L 139.199407 -160.767338 
L 139.384082 -159.709478 
L 139.61421 -158.651619 
L 139.891213 -157.593759 
L 140.211948 -156.535899 
L 140.56789 -155.478039 
L 140.945052 -154.42018 
L 141.324945 -153.36232 
L 141.686607 -152.30446 
L 142.00952 -151.246601 
L 142.276908 -150.188741 
L 142.478731 -149.130881 
L 142.613653 -148.073021 
L 142.689439 -147.015162 
L 142.721609 -145.957302 
L 142.730588 -144.899442 
L 142.738011 -143.841583 
L 142.763013 -142.783723 
L 142.819324 -141.725863 
L 142.913694 -140.668003 
L 143.045771 -139.610144 
L 143.209168 -138.552284 
L 143.393179 -137.494424 
L 143.584563 -136.436565 
L 143.768986 -135.378705 
L 143.931977 -134.320845 
L 144.059531 -133.262986 
L 144.138643 -132.205126 
L 144.158051 -131.147266 
L 144.109281 -130.089406 
L 143.987885 -129.031547 
L 143.794546 -127.973687 
L 143.535734 -126.915827 
L 143.223631 -125.857968 
L 142.875318 -124.800108 
L 142.511436 -123.742248 
L 142.154735 -122.684388 
L 141.828995 -121.626529 
L 141.558704 -120.568669 
L 141.369721 -119.510809 
L 141.290814 -118.45295 
L 141.355695 -117.39509 
L 141.604854 -116.33723 
L 142.086272 -115.27937 
L 142.853993 -114.221511 
L 143.963622 -113.163651 
L 145.464196 -112.105791 
L 147.386636 -111.047932 
L 149.72999 -109.990072 
L 152.447899 -108.932212 
L 155.43867 -107.874352 
L 158.542675 -106.816493 
L 161.550093 -105.758633 
L 164.220158 -104.700773 
L 166.310319 -103.642914 
L 167.610795 -102.585054 
L 167.977835 -101.527194 
L 167.358375 -100.469334 
L 165.800272 -99.411475 
L 163.445434 -98.353615 
L 160.507226 -97.295755 
L 157.237238 -96.237896 
L 153.888671 -95.180036 
L 150.683798 -94.122176 
L 147.791161 -93.064316 
L 145.315206 -92.006457 
L 143.297865 -90.948597 
L 141.729181 -89.890737 
L 140.562825 -88.832878 
L 139.732447 -87.775018 
L 139.165768 -86.717158 
z
" style="stroke: #595959; stroke-width: 1.5"/>
    </defs>
    <g clip-path="url(#p93ef30eab6)">
     <use xlink:href="#md6cc4db3ea" x="0" y="432" style="fill: #72b6a1; stroke: #595959; stroke-width: 1.5"/>
    </g>
   </g>
   <g id="PolyCollection_2">
    <defs>
     <path id="m7f78c06123" d="M 297.242993 -64.704368 
L 296.044882 -64.704368 
L 295.578551 -65.483717 
L 294.828394 -66.263065 
L 293.678574 -67.042414 
L 292.000537 -67.821762 
L 289.671234 -68.601111 
L 286.600081 -69.380459 
L 282.761293 -70.159808 
L 278.224814 -70.939156 
L 273.176673 -71.718505 
L 267.919678 -72.497853 
L 262.848767 -73.277202 
L 258.401617 -74.05655 
L 254.992644 -74.835899 
L 252.944529 -75.615247 
L 252.433533 -76.394595 
L 253.461892 -77.173944 
L 255.863388 -77.953292 
L 259.33924 -78.732641 
L 263.513853 -79.511989 
L 267.996172 -80.291338 
L 272.433118 -81.070686 
L 276.546019 -81.850035 
L 280.146879 -82.629383 
L 283.136751 -83.408732 
L 285.491808 -84.18808 
L 287.243625 -84.967429 
L 288.45913 -85.746777 
L 289.223691 -86.526126 
L 289.628725 -87.305474 
L 289.763681 -88.084823 
L 289.711463 -88.864171 
L 289.546112 -89.643519 
L 289.331749 -90.422868 
L 289.122028 -91.202216 
L 288.959682 -91.981565 
L 288.876016 -92.760913 
L 288.890473 -93.540262 
L 289.010621 -94.31961 
L 289.232903 -95.098959 
L 289.544391 -95.878307 
L 289.925469 -96.657656 
L 290.353047 -97.437004 
L 290.803706 -98.216353 
L 291.256174 -98.995701 
L 291.692791 -99.77505 
L 292.099911 -100.554398 
L 292.467528 -101.333747 
L 292.788525 -102.113095 
L 293.057959 -102.892443 
L 293.272663 -103.671792 
L 293.431286 -104.45114 
L 293.534729 -105.230489 
L 293.586822 -106.009837 
L 293.594984 -106.789186 
L 293.570525 -107.568534 
L 293.528304 -108.347883 
L 293.485542 -109.127231 
L 293.459851 -109.90658 
L 293.466828 -110.685928 
L 293.517755 -111.465277 
L 293.618021 -112.244625 
L 293.766695 -113.023974 
L 293.957326 -113.803322 
L 294.179685 -114.582671 
L 294.421885 -115.362019 
L 294.672267 -116.141367 
L 294.920624 -116.920716 
L 295.15864 -117.700064 
L 295.379742 -118.479413 
L 295.578703 -119.258761 
L 295.751352 -120.03811 
L 295.894557 -120.817458 
L 296.00648 -121.596807 
L 296.08694 -122.376155 
L 296.137693 -123.155504 
L 296.162488 -123.934852 
L 296.166832 -124.714201 
L 296.157499 -125.493549 
L 296.141814 -126.272898 
L 296.126802 -127.052246 
L 296.11832 -127.831594 
L 296.120328 -128.610943 
L 296.134469 -129.390291 
L 296.160106 -130.16964 
L 296.194825 -130.948988 
L 296.235277 -131.728337 
L 296.278107 -132.507685 
L 296.320685 -133.287034 
L 296.361452 -134.066382 
L 296.39984 -134.845731 
L 296.435895 -135.625079 
L 296.469809 -136.404428 
L 296.501578 -137.183776 
L 296.530874 -137.963125 
L 296.557136 -138.742473 
L 296.579786 -139.521822 
L 296.598446 -140.30117 
L 296.61306 -141.080518 
L 296.623913 -141.859867 
L 296.663962 -141.859867 
L 296.663962 -141.859867 
L 296.674815 -141.080518 
L 296.689429 -140.30117 
L 296.708089 -139.521822 
L 296.730739 -138.742473 
L 296.757001 -137.963125 
L 296.786297 -137.183776 
L 296.818066 -136.404428 
L 296.85198 -135.625079 
L 296.888035 -134.845731 
L 296.926423 -134.066382 
L 296.96719 -133.287034 
L 297.009768 -132.507685 
L 297.052598 -131.728337 
L 297.09305 -130.948988 
L 297.127769 -130.16964 
L 297.153406 -129.390291 
L 297.167547 -128.610943 
L 297.169555 -127.831594 
L 297.161073 -127.052246 
L 297.146061 -126.272898 
L 297.130376 -125.493549 
L 297.121043 -124.714201 
L 297.125387 -123.934852 
L 297.150182 -123.155504 
L 297.200935 -122.376155 
L 297.281395 -121.596807 
L 297.393318 -120.817458 
L 297.536523 -120.03811 
L 297.709172 -119.258761 
L 297.908133 -118.479413 
L 298.129235 -117.700064 
L 298.367251 -116.920716 
L 298.615608 -116.141367 
L 298.86599 -115.362019 
L 299.10819 -114.582671 
L 299.330549 -113.803322 
L 299.52118 -113.023974 
L 299.669854 -112.244625 
L 299.77012 -111.465277 
L 299.821047 -110.685928 
L 299.828024 -109.90658 
L 299.802333 -109.127231 
L 299.759571 -108.347883 
L 299.71735 -107.568534 
L 299.692891 -106.789186 
L 299.701053 -106.009837 
L 299.753146 -105.230489 
L 299.856589 -104.45114 
L 300.015212 -103.671792 
L 300.229916 -102.892443 
L 300.49935 -102.113095 
L 300.820347 -101.333747 
L 301.187964 -100.554398 
L 301.595084 -99.77505 
L 302.031701 -98.995701 
L 302.484169 -98.216353 
L 302.934828 -97.437004 
L 303.362406 -96.657656 
L 303.743484 -95.878307 
L 304.054972 -95.098959 
L 304.277254 -94.31961 
L 304.397402 -93.540262 
L 304.411859 -92.760913 
L 304.328193 -91.981565 
L 304.165847 -91.202216 
L 303.956126 -90.422868 
L 303.741763 -89.643519 
L 303.576412 -88.864171 
L 303.524194 -88.084823 
L 303.65915 -87.305474 
L 304.064184 -86.526126 
L 304.828745 -85.746777 
L 306.04425 -84.967429 
L 307.796067 -84.18808 
L 310.151124 -83.408732 
L 313.140996 -82.629383 
L 316.741856 -81.850035 
L 320.854757 -81.070686 
L 325.291703 -80.291338 
L 329.774022 -79.511989 
L 333.948635 -78.732641 
L 337.424487 -77.953292 
L 339.825983 -77.173944 
L 340.854342 -76.394595 
L 340.343346 -75.615247 
L 338.295231 -74.835899 
L 334.886258 -74.05655 
L 330.439108 -73.277202 
L 325.368197 -72.497853 
L 320.111202 -71.718505 
L 315.063061 -70.939156 
L 310.526582 -70.159808 
L 306.687794 -69.380459 
L 303.616641 -68.601111 
L 301.287338 -67.821762 
L 299.609301 -67.042414 
L 298.459481 -66.263065 
L 297.709324 -65.483717 
L 297.242993 -64.704368 
z
" style="stroke: #595959; stroke-width: 1.5"/>
    </defs>
    <g clip-path="url(#p93ef30eab6)">
     <use xlink:href="#m7f78c06123" x="0" y="432" style="fill: #e99675; stroke: #595959; stroke-width: 1.5"/>
    </g>
   </g>
   <g id="PolyCollection_3">
    <defs>
     <path id="m131c74ad9c" d="M 455.540103 -215.237677 
L 454.545522 -215.237677 
L 453.989722 -216.978507 
L 452.978532 -218.719337 
L 451.294992 -220.460167 
L 448.736649 -222.200997 
L 445.202321 -223.941827 
L 440.791506 -225.682657 
L 435.871486 -227.423487 
L 431.062064 -229.164318 
L 427.11354 -230.905148 
L 424.704594 -232.645978 
L 424.235885 -234.386808 
L 425.708678 -236.127638 
L 428.741567 -237.868468 
L 432.711661 -239.609298 
L 436.950537 -241.350128 
L 440.912024 -243.090958 
L 444.259636 -244.831789 
L 446.869364 -246.572619 
L 448.777756 -248.313449 
L 450.112658 -250.054279 
L 451.032178 -251.795109 
L 451.68196 -253.535939 
L 452.171414 -255.276769 
L 452.566383 -257.017599 
L 452.89481 -258.75843 
L 453.160512 -260.49926 
L 453.35899 -262.24009 
L 453.48965 -263.98092 
L 453.56138 -265.72175 
L 453.591668 -267.46258 
L 453.601769 -269.20341 
L 453.610946 -270.94424 
L 453.632021 -272.68507 
L 453.669392 -274.425901 
L 453.719815 -276.166731 
L 453.775635 -277.907561 
L 453.82936 -279.648391 
L 453.877686 -281.389221 
L 453.923081 -283.130051 
L 453.972147 -284.870881 
L 454.031824 -286.611711 
L 454.105689 -288.352541 
L 454.192288 -290.093372 
L 454.285902 -291.834202 
L 454.378688 -293.575032 
L 454.462865 -295.315862 
L 454.532328 -297.056692 
L 454.583817 -298.797522 
L 454.617741 -300.538352 
L 454.638254 -302.279182 
L 454.652004 -304.020012 
L 454.665611 -305.760843 
L 454.682918 -307.501673 
L 454.703457 -309.242503 
L 454.723037 -310.983333 
L 454.736199 -312.724163 
L 454.739318 -314.464993 
L 454.732824 -316.205823 
L 454.721509 -317.946653 
L 454.712815 -319.687484 
L 454.713984 -321.428314 
L 454.729405 -323.169144 
L 454.759275 -324.909974 
L 454.7999 -326.650804 
L 454.845173 -328.391634 
L 454.888397 -330.132464 
L 454.923821 -331.873294 
L 454.947605 -333.614124 
L 454.958215 -335.354955 
L 454.956316 -337.095785 
L 454.944211 -338.836615 
L 454.924992 -340.577445 
L 454.90171 -342.318275 
L 454.876945 -344.059105 
L 454.852923 -345.799935 
L 454.831931 -347.540765 
L 454.816493 -349.281595 
L 454.808972 -351.022426 
L 454.810787 -352.763256 
L 454.821841 -354.504086 
L 454.840583 -356.244916 
L 454.864603 -357.985746 
L 454.891254 -359.726576 
L 454.917918 -361.467406 
L 454.941978 -363.208236 
L 454.960883 -364.949066 
L 454.972593 -366.689897 
L 454.976302 -368.430727 
L 454.973036 -370.171557 
L 454.96568 -371.912387 
L 454.958245 -373.653217 
L 454.954597 -375.394047 
L 454.957158 -377.134877 
L 454.966184 -378.875707 
L 454.979934 -380.616537 
L 454.99558 -382.357368 
L 455.010361 -384.098198 
L 455.022426 -385.839028 
L 455.031104 -387.579858 
L 455.054521 -387.579858 
L 455.054521 -387.579858 
L 455.063199 -385.839028 
L 455.075264 -384.098198 
L 455.090045 -382.357368 
L 455.105691 -380.616537 
L 455.119441 -378.875707 
L 455.128467 -377.134877 
L 455.131028 -375.394047 
L 455.12738 -373.653217 
L 455.119945 -371.912387 
L 455.112589 -370.171557 
L 455.109323 -368.430727 
L 455.113032 -366.689897 
L 455.124742 -364.949066 
L 455.143647 -363.208236 
L 455.167707 -361.467406 
L 455.194371 -359.726576 
L 455.221022 -357.985746 
L 455.245042 -356.244916 
L 455.263784 -354.504086 
L 455.274838 -352.763256 
L 455.276653 -351.022426 
L 455.269132 -349.281595 
L 455.253694 -347.540765 
L 455.232702 -345.799935 
L 455.20868 -344.059105 
L 455.183915 -342.318275 
L 455.160633 -340.577445 
L 455.141414 -338.836615 
L 455.129309 -337.095785 
L 455.12741 -335.354955 
L 455.13802 -333.614124 
L 455.161804 -331.873294 
L 455.197228 -330.132464 
L 455.240452 -328.391634 
L 455.285725 -326.650804 
L 455.32635 -324.909974 
L 455.35622 -323.169144 
L 455.371641 -321.428314 
L 455.37281 -319.687484 
L 455.364116 -317.946653 
L 455.352801 -316.205823 
L 455.346307 -314.464993 
L 455.349426 -312.724163 
L 455.362588 -310.983333 
L 455.382168 -309.242503 
L 455.402707 -307.501673 
L 455.420014 -305.760843 
L 455.433621 -304.020012 
L 455.447371 -302.279182 
L 455.467884 -300.538352 
L 455.501808 -298.797522 
L 455.553297 -297.056692 
L 455.62276 -295.315862 
L 455.706937 -293.575032 
L 455.799723 -291.834202 
L 455.893337 -290.093372 
L 455.979936 -288.352541 
L 456.053801 -286.611711 
L 456.113478 -284.870881 
L 456.162544 -283.130051 
L 456.207939 -281.389221 
L 456.256265 -279.648391 
L 456.30999 -277.907561 
L 456.36581 -276.166731 
L 456.416233 -274.425901 
L 456.453604 -272.68507 
L 456.474679 -270.94424 
L 456.483856 -269.20341 
L 456.493957 -267.46258 
L 456.524245 -265.72175 
L 456.595975 -263.98092 
L 456.726635 -262.24009 
L 456.925113 -260.49926 
L 457.190815 -258.75843 
L 457.519242 -257.017599 
L 457.914211 -255.276769 
L 458.403665 -253.535939 
L 459.053447 -251.795109 
L 459.972967 -250.054279 
L 461.307869 -248.313449 
L 463.216261 -246.572619 
L 465.825989 -244.831789 
L 469.173601 -243.090958 
L 473.135088 -241.350128 
L 477.373964 -239.609298 
L 481.344058 -237.868468 
L 484.376947 -236.127638 
L 485.84974 -234.386808 
L 485.381031 -232.645978 
L 482.972085 -230.905148 
L 479.023561 -229.164318 
L 474.214139 -227.423487 
L 469.294119 -225.682657 
L 464.883304 -223.941827 
L 461.348976 -222.200997 
L 458.790633 -220.460167 
L 457.107093 -218.719337 
L 456.095903 -216.978507 
L 455.540103 -215.237677 
z
" style="stroke: #595959; stroke-width: 1.5"/>
    </defs>
    <g clip-path="url(#p93ef30eab6)">
     <use xlink:href="#m131c74ad9c" x="0" y="432" style="fill: #95a3c3; stroke: #595959; stroke-width: 1.5"/>
    </g>
   </g>
   <g id="PolyCollection_4">
    <defs>
     <path id="m7ea14d38aa" d="M 614.160144 -102.797501 
L 612.723231 -102.797501 
L 612.116867 -103.626713 
L 611.122906 -104.455925 
L 609.585649 -105.285136 
L 607.342646 -106.114348 
L 604.256234 -106.94356 
L 600.254543 -107.772771 
L 595.373765 -108.601983 
L 589.789891 -109.431195 
L 583.827614 -110.260406 
L 577.937816 -111.089618 
L 572.642509 -111.91883 
L 568.455403 -112.748041 
L 565.794509 -113.577253 
L 564.907377 -114.406465 
L 565.827858 -115.235676 
L 568.375529 -116.064888 
L 572.197382 -116.8941 
L 576.839909 -117.723311 
L 581.832256 -118.552523 
L 586.760145 -119.381735 
L 591.315389 -120.210946 
L 595.314666 -121.040158 
L 598.690192 -121.86937 
L 601.461257 -122.698581 
L 603.698105 -123.527793 
L 605.488467 -124.357005 
L 606.913566 -125.186216 
L 608.035996 -126.015428 
L 608.898122 -126.84464 
L 609.527339 -127.673851 
L 609.944046 -128.503063 
L 610.16902 -129.332275 
L 610.228319 -130.161486 
L 610.155109 -130.990698 
L 609.988655 -131.81991 
L 609.771146 -132.649121 
L 609.543352 -133.478333 
L 609.340297 -134.307545 
L 609.188144 -135.136756 
L 609.103129 -135.965968 
L 609.092565 -136.79518 
L 609.157159 -137.624391 
L 609.293422 -138.453603 
L 609.495161 -139.282815 
L 609.753807 -140.112027 
L 610.058139 -140.941238 
L 610.394297 -141.77045 
L 610.746742 -142.599662 
L 611.100076 -143.428873 
L 611.441046 -144.258085 
L 611.759855 -145.087297 
L 612.050305 -145.916508 
L 612.308893 -146.74572 
L 612.533511 -147.574932 
L 612.722507 -148.404143 
L 612.8745 -149.233355 
L 612.988917 -150.062567 
L 613.066776 -150.891778 
L 613.111164 -151.72099 
L 613.127085 -152.550202 
L 613.120647 -153.379413 
L 613.097933 -154.208625 
L 613.063968 -155.037837 
L 613.022167 -155.867048 
L 612.974403 -156.69626 
L 612.921606 -157.525472 
L 612.864631 -158.354683 
L 612.805033 -159.183895 
L 612.745486 -160.013107 
L 612.689702 -160.842318 
L 612.641894 -161.67153 
L 612.606004 -162.500742 
L 612.584947 -163.329953 
L 612.580093 -164.159165 
L 612.591078 -164.988377 
L 612.615932 -165.817588 
L 612.651387 -166.6468 
L 612.693288 -167.476012 
L 612.737039 -168.305223 
L 612.778099 -169.134435 
L 612.812543 -169.963647 
L 612.837661 -170.792858 
L 612.852507 -171.62207 
L 612.858252 -172.451282 
L 612.858173 -173.280493 
L 612.857193 -174.109705 
L 612.860988 -174.938917 
L 612.87483 -175.768128 
L 612.902421 -176.59734 
L 612.94503 -177.426552 
L 613.001177 -178.255763 
L 613.06696 -179.084975 
L 613.136954 -179.914187 
L 613.205405 -180.743398 
L 613.267379 -181.57261 
L 613.31956 -182.401822 
L 613.360542 -183.231033 
L 613.390622 -184.060245 
L 613.411283 -184.889457 
L 613.472092 -184.889457 
L 613.472092 -184.889457 
L 613.492753 -184.060245 
L 613.522833 -183.231033 
L 613.563815 -182.401822 
L 613.615996 -181.57261 
L 613.67797 -180.743398 
L 613.746421 -179.914187 
L 613.816415 -179.084975 
L 613.882198 -178.255763 
L 613.938345 -177.426552 
L 613.980954 -176.59734 
L 614.008545 -175.768128 
L 614.022387 -174.938917 
L 614.026182 -174.109705 
L 614.025202 -173.280493 
L 614.025123 -172.451282 
L 614.030868 -171.62207 
L 614.045714 -170.792858 
L 614.070832 -169.963647 
L 614.105276 -169.134435 
L 614.146336 -168.305223 
L 614.190087 -167.476012 
L 614.231988 -166.6468 
L 614.267443 -165.817588 
L 614.292297 -164.988377 
L 614.303282 -164.159165 
L 614.298428 -163.329953 
L 614.277371 -162.500742 
L 614.241481 -161.67153 
L 614.193673 -160.842318 
L 614.137889 -160.013107 
L 614.078342 -159.183895 
L 614.018744 -158.354683 
L 613.961769 -157.525472 
L 613.908972 -156.69626 
L 613.861208 -155.867048 
L 613.819407 -155.037837 
L 613.785442 -154.208625 
L 613.762728 -153.379413 
L 613.75629 -152.550202 
L 613.772211 -151.72099 
L 613.816599 -150.891778 
L 613.894458 -150.062567 
L 614.008875 -149.233355 
L 614.160868 -148.404143 
L 614.349864 -147.574932 
L 614.574482 -146.74572 
L 614.83307 -145.916508 
L 615.12352 -145.087297 
L 615.442329 -144.258085 
L 615.783299 -143.428873 
L 616.136633 -142.599662 
L 616.489078 -141.77045 
L 616.825236 -140.941238 
L 617.129568 -140.112027 
L 617.388214 -139.282815 
L 617.589953 -138.453603 
L 617.726216 -137.624391 
L 617.79081 -136.79518 
L 617.780246 -135.965968 
L 617.695231 -135.136756 
L 617.543078 -134.307545 
L 617.340023 -133.478333 
L 617.112229 -132.649121 
L 616.89472 -131.81991 
L 616.728266 -130.990698 
L 616.655056 -130.161486 
L 616.714355 -129.332275 
L 616.939329 -128.503063 
L 617.356036 -127.673851 
L 617.985253 -126.84464 
L 618.847379 -126.015428 
L 619.969809 -125.186216 
L 621.394908 -124.357005 
L 623.18527 -123.527793 
L 625.422118 -122.698581 
L 628.193183 -121.86937 
L 631.568709 -121.040158 
L 635.567986 -120.210946 
L 640.12323 -119.381735 
L 645.051119 -118.552523 
L 650.043466 -117.723311 
L 654.685993 -116.8941 
L 658.507846 -116.064888 
L 661.055517 -115.235676 
L 661.975998 -114.406465 
L 661.088866 -113.577253 
L 658.427972 -112.748041 
L 654.240866 -111.91883 
L 648.945559 -111.089618 
L 643.055761 -110.260406 
L 637.093484 -109.431195 
L 631.50961 -108.601983 
L 626.628832 -107.772771 
L 622.627141 -106.94356 
L 619.540729 -106.114348 
L 617.297726 -105.285136 
L 615.760469 -104.455925 
L 614.766508 -103.626713 
L 614.160144 -102.797501 
z
" style="stroke: #595959; stroke-width: 1.5"/>
    </defs>
    <g clip-path="url(#p93ef30eab6)">
     <use xlink:href="#m7ea14d38aa" x="0" y="432" style="fill: #db96c0; stroke: #595959; stroke-width: 1.5"/>
    </g>
   </g>
   <g id="PolyCollection_5">
    <defs>
     <path id="mbf21c52347" d="M 772.184 -52.189517 
L 771.497125 -52.189517 
L 771.128084 -52.767194 
L 770.449425 -53.344871 
L 769.282314 -53.922548 
L 767.405936 -54.500224 
L 764.586797 -55.077901 
L 760.63033 -55.655578 
L 755.446584 -56.233255 
L 749.11122 -56.810932 
L 741.897815 -57.388609 
L 734.262771 -57.966285 
L 726.7802 -58.543962 
L 720.04421 -59.121639 
L 714.569549 -59.699316 
L 710.720685 -60.276993 
L 708.684416 -60.85467 
L 708.481013 -61.432346 
L 709.995397 -62.010023 
L 713.00954 -62.5877 
L 717.227663 -63.165377 
L 722.297944 -63.743054 
L 727.839464 -64.320731 
L 733.478817 -64.898407 
L 738.891613 -65.476084 
L 743.837434 -66.053761 
L 748.177042 -66.631438 
L 751.867153 -67.209115 
L 754.936518 -67.786792 
L 757.453032 -68.364468 
L 759.493041 -68.942145 
L 761.121362 -69.519822 
L 762.385556 -70.097499 
L 763.322573 -70.675176 
L 763.971743 -71.252853 
L 764.386461 -71.83053 
L 764.638412 -72.408206 
L 764.812063 -72.985883 
L 764.99161 -73.56356 
L 765.245586 -74.141237 
L 765.614678 -74.718914 
L 766.106333 -75.296591 
L 766.6969 -75.874267 
L 767.339692 -76.451944 
L 767.976254 -77.029621 
L 768.548028 -77.607298 
L 769.006359 -78.184975 
L 769.319795 -78.762652 
L 769.478521 -79.340328 
L 769.496056 -79.918005 
L 769.40799 -80.495682 
L 769.266981 -81.073359 
L 769.133581 -81.651036 
L 769.063838 -82.228713 
L 769.096631 -82.806389 
L 769.244824 -83.384066 
L 769.493585 -83.961743 
L 769.806621 -84.53942 
L 770.137955 -85.117097 
L 770.444866 -85.694774 
L 770.697728 -86.27245 
L 770.884294 -86.850127 
L 771.008353 -87.427804 
L 771.084446 -88.005481 
L 771.131041 -88.583158 
L 771.164422 -89.160835 
L 771.19486 -89.738511 
L 771.225687 -90.316188 
L 771.254841 -90.893865 
L 771.277634 -91.471542 
L 771.289329 -92.049219 
L 771.286598 -92.626896 
L 771.267813 -93.204573 
L 771.232712 -93.782249 
L 771.182125 -94.359926 
L 771.118065 -94.937603 
L 771.04413 -95.51528 
L 770.965908 -96.092957 
L 770.891082 -96.670634 
L 770.829021 -97.24831 
L 770.789757 -97.825987 
L 770.782317 -98.403664 
L 770.812605 -98.981341 
L 770.88131 -99.559018 
L 770.982622 -100.136695 
L 771.104543 -100.714371 
L 771.231136 -101.292048 
L 771.346306 -101.869725 
L 771.437913 -102.447402 
L 771.50076 -103.025079 
L 771.537355 -103.602756 
L 771.556191 -104.180432 
L 771.568303 -104.758109 
L 771.583444 -105.335786 
L 771.607302 -105.913463 
L 771.64059 -106.49114 
L 771.680031 -107.068817 
L 771.720462 -107.646493 
L 771.757028 -108.22417 
L 771.786613 -108.801847 
L 771.808229 -109.379524 
L 771.872896 -109.379524 
L 771.872896 -109.379524 
L 771.894512 -108.801847 
L 771.924097 -108.22417 
L 771.960663 -107.646493 
L 772.001094 -107.068817 
L 772.040535 -106.49114 
L 772.073823 -105.913463 
L 772.097681 -105.335786 
L 772.112822 -104.758109 
L 772.124934 -104.180432 
L 772.14377 -103.602756 
L 772.180365 -103.025079 
L 772.243212 -102.447402 
L 772.334819 -101.869725 
L 772.449989 -101.292048 
L 772.576582 -100.714371 
L 772.698503 -100.136695 
L 772.799815 -99.559018 
L 772.86852 -98.981341 
L 772.898808 -98.403664 
L 772.891368 -97.825987 
L 772.852104 -97.24831 
L 772.790043 -96.670634 
L 772.715217 -96.092957 
L 772.636995 -95.51528 
L 772.56306 -94.937603 
L 772.499 -94.359926 
L 772.448413 -93.782249 
L 772.413312 -93.204573 
L 772.394527 -92.626896 
L 772.391796 -92.049219 
L 772.403491 -91.471542 
L 772.426284 -90.893865 
L 772.455438 -90.316188 
L 772.486265 -89.738511 
L 772.516703 -89.160835 
L 772.550084 -88.583158 
L 772.596679 -88.005481 
L 772.672772 -87.427804 
L 772.796831 -86.850127 
L 772.983397 -86.27245 
L 773.236259 -85.694774 
L 773.54317 -85.117097 
L 773.874504 -84.53942 
L 774.18754 -83.961743 
L 774.436301 -83.384066 
L 774.584494 -82.806389 
L 774.617287 -82.228713 
L 774.547544 -81.651036 
L 774.414144 -81.073359 
L 774.273135 -80.495682 
L 774.185069 -79.918005 
L 774.202604 -79.340328 
L 774.36133 -78.762652 
L 774.674766 -78.184975 
L 775.133097 -77.607298 
L 775.704871 -77.029621 
L 776.341433 -76.451944 
L 776.984225 -75.874267 
L 777.574792 -75.296591 
L 778.066447 -74.718914 
L 778.435539 -74.141237 
L 778.689515 -73.56356 
L 778.869062 -72.985883 
L 779.042713 -72.408206 
L 779.294664 -71.83053 
L 779.709382 -71.252853 
L 780.358552 -70.675176 
L 781.295569 -70.097499 
L 782.559763 -69.519822 
L 784.188084 -68.942145 
L 786.228093 -68.364468 
L 788.744607 -67.786792 
L 791.813972 -67.209115 
L 795.504083 -66.631438 
L 799.843691 -66.053761 
L 804.789512 -65.476084 
L 810.202308 -64.898407 
L 815.841661 -64.320731 
L 821.383181 -63.743054 
L 826.453462 -63.165377 
L 830.671585 -62.5877 
L 833.685728 -62.010023 
L 835.200113 -61.432346 
L 834.996709 -60.85467 
L 832.96044 -60.276993 
L 829.111576 -59.699316 
L 823.636915 -59.121639 
L 816.900925 -58.543962 
L 809.418354 -57.966285 
L 801.78331 -57.388609 
L 794.569905 -56.810932 
L 788.234541 -56.233255 
L 783.050795 -55.655578 
L 779.094328 -55.077901 
L 776.275189 -54.500224 
L 774.398811 -53.922548 
L 773.2317 -53.344871 
L 772.553041 -52.767194 
L 772.184 -52.189517 
z
" style="stroke: #595959; stroke-width: 1.5"/>
    </defs>
    <g clip-path="url(#p93ef30eab6)">
     <use xlink:href="#mbf21c52347" x="0" y="432" style="fill: #a2c865; stroke: #595959; stroke-width: 1.5"/>
    </g>
   </g>
   <g id="line2d_10">
    <path d="M 138.245063 331.099015 
L 138.245063 334.547552 
" clip-path="url(#p93ef30eab6)" style="fill: none; stroke: #000000; stroke-width: 1.5; stroke-linecap: round"/>
   </g>
   <g id="line2d_11">
    <path d="M 138.245063 304.619179 
L 138.245063 265.248384 
" clip-path="url(#p93ef30eab6)" style="fill: none; stroke: #000000; stroke-width: 1.5; stroke-linecap: round"/>
   </g>
   <g id="line2d_12">
    <path d="M 132.305105 334.547552 
L 144.18502 334.547552 
" clip-path="url(#p93ef30eab6)" style="fill: none; stroke: #000000; stroke-width: 1.5; stroke-linecap: round"/>
   </g>
   <g id="line2d_13">
    <path d="M 132.305105 265.248384 
L 144.18502 265.248384 
" clip-path="url(#p93ef30eab6)" style="fill: none; stroke: #000000; stroke-width: 1.5; stroke-linecap: round"/>
   </g>
   <g id="line2d_14">
    <path d="M 296.643937 356.552501 
L 296.643937 360.32947 
" clip-path="url(#p93ef30eab6)" style="fill: none; stroke: #000000; stroke-width: 1.5; stroke-linecap: round"/>
   </g>
   <g id="line2d_15">
    <path d="M 296.643937 345.632134 
L 296.643937 329.621071 
" clip-path="url(#p93ef30eab6)" style="fill: none; stroke: #000000; stroke-width: 1.5; stroke-linecap: round"/>
   </g>
   <g id="line2d_16">
    <path d="M 290.70398 360.32947 
L 302.583895 360.32947 
" clip-path="url(#p93ef30eab6)" style="fill: none; stroke: #000000; stroke-width: 1.5; stroke-linecap: round"/>
   </g>
   <g id="line2d_17">
    <path d="M 290.70398 329.621071 
L 302.583895 329.621071 
" clip-path="url(#p93ef30eab6)" style="fill: none; stroke: #000000; stroke-width: 1.5; stroke-linecap: round"/>
   </g>
   <g id="line2d_18">
    <path d="M 455.042813 199.726185 
L 455.042813 205.145314 
" clip-path="url(#p93ef30eab6)" style="fill: none; stroke: #000000; stroke-width: 1.5; stroke-linecap: round"/>
   </g>
   <g id="line2d_19">
    <path d="M 455.042813 192.008031 
L 455.042813 180.677124 
" clip-path="url(#p93ef30eab6)" style="fill: none; stroke: #000000; stroke-width: 1.5; stroke-linecap: round"/>
   </g>
   <g id="line2d_20">
    <path d="M 449.102855 205.145314 
L 460.98277 205.145314 
" clip-path="url(#p93ef30eab6)" style="fill: none; stroke: #000000; stroke-width: 1.5; stroke-linecap: round"/>
   </g>
   <g id="line2d_21">
    <path d="M 449.102855 180.677124 
L 460.98277 180.677124 
" clip-path="url(#p93ef30eab6)" style="fill: none; stroke: #000000; stroke-width: 1.5; stroke-linecap: round"/>
   </g>
   <g id="line2d_22">
    <path d="M 613.441688 318.782812 
L 613.441688 322.559781 
" clip-path="url(#p93ef30eab6)" style="fill: none; stroke: #000000; stroke-width: 1.5; stroke-linecap: round"/>
   </g>
   <g id="line2d_23">
    <path d="M 613.441688 313.322629 
L 613.441688 305.152881 
" clip-path="url(#p93ef30eab6)" style="fill: none; stroke: #000000; stroke-width: 1.5; stroke-linecap: round"/>
   </g>
   <g id="line2d_24">
    <path d="M 607.50173 322.559781 
L 619.381645 322.559781 
" clip-path="url(#p93ef30eab6)" style="fill: none; stroke: #000000; stroke-width: 1.5; stroke-linecap: round"/>
   </g>
   <g id="line2d_25">
    <path d="M 607.50173 305.152881 
L 619.381645 305.152881 
" clip-path="url(#p93ef30eab6)" style="fill: none; stroke: #000000; stroke-width: 1.5; stroke-linecap: round"/>
   </g>
   <g id="line2d_26">
    <path d="M 771.840563 371.988808 
L 771.840563 375.601561 
" clip-path="url(#p93ef30eab6)" style="fill: none; stroke: #000000; stroke-width: 1.5; stroke-linecap: round"/>
   </g>
   <g id="line2d_27">
    <path d="M 771.840563 366.898111 
L 771.840563 359.508389 
" clip-path="url(#p93ef30eab6)" style="fill: none; stroke: #000000; stroke-width: 1.5; stroke-linecap: round"/>
   </g>
   <g id="line2d_28">
    <path d="M 765.900605 375.601561 
L 777.78052 375.601561 
" clip-path="url(#p93ef30eab6)" style="fill: none; stroke: #000000; stroke-width: 1.5; stroke-linecap: round"/>
   </g>
   <g id="line2d_29">
    <path d="M 765.900605 359.508389 
L 777.78052 359.508389 
" clip-path="url(#p93ef30eab6)" style="fill: none; stroke: #000000; stroke-width: 1.5; stroke-linecap: round"/>
   </g>
   <g id="line2d_30">
    <path d="M 126.365147 329.456854 
L 150.124978 329.456854 
" clip-path="url(#p93ef30eab6)" style="fill: none; stroke: #ff0000; stroke-width: 2"/>
   </g>
   <g id="line2d_31">
    <path d="M 284.764022 354.581908 
L 308.523853 354.581908 
" clip-path="url(#p93ef30eab6)" style="fill: none; stroke: #ff0000; stroke-width: 2"/>
   </g>
   <g id="line2d_32">
    <path d="M 443.162897 197.345052 
L 466.922728 197.345052 
" clip-path="url(#p93ef30eab6)" style="fill: none; stroke: #ff0000; stroke-width: 2"/>
   </g>
   <g id="line2d_33">
    <path d="M 601.561772 316.81222 
L 625.321603 316.81222 
" clip-path="url(#p93ef30eab6)" style="fill: none; stroke: #ff0000; stroke-width: 2"/>
   </g>
   <g id="line2d_34">
    <path d="M 759.960647 369.689784 
L 783.720478 369.689784 
" clip-path="url(#p93ef30eab6)" style="fill: none; stroke: #ff0000; stroke-width: 2"/>
   </g>
   <g id="patch_3">
    <path d="M 59.045625 396.58 
L 59.045625 27.650625 
" style="fill: none; stroke: #cccccc; stroke-width: 1.25; stroke-linejoin: miter; stroke-linecap: square"/>
   </g>
   <g id="patch_4">
    <path d="M 851.04 396.58 
L 851.04 27.650625 
" style="fill: none; stroke: #cccccc; stroke-width: 1.25; stroke-linejoin: miter; stroke-linecap: square"/>
   </g>
   <g id="patch_5">
    <path d="M 59.045625 396.58 
L 851.04 396.58 
" style="fill: none; stroke: #cccccc; stroke-width: 1.25; stroke-linejoin: miter; stroke-linecap: square"/>
   </g>
   <g id="patch_6">
    <path d="M 59.045625 27.650625 
L 851.04 27.650625 
" style="fill: none; stroke: #cccccc; stroke-width: 1.25; stroke-linejoin: miter; stroke-linecap: square"/>
   </g>
   <g id="text_16">
    <!-- Handshake duration on QUIC with secp384r1 signature algorithm -->
    <g style="fill: #262626" transform="translate(281.625937 21.650625) scale(0.12 -0.12)">
     <defs>
      <path id="ArialMT-51" d="M 3966 491 
Q 4388 200 4744 66 
L 4566 -356 
Q 4072 -178 3581 206 
Q 3072 -78 2456 -78 
Q 1834 -78 1328 222 
Q 822 522 548 1065 
Q 275 1609 275 2291 
Q 275 2969 550 3525 
Q 825 4081 1333 4372 
Q 1841 4663 2469 4663 
Q 3103 4663 3612 4361 
Q 4122 4059 4389 3517 
Q 4656 2975 4656 2294 
Q 4656 1728 4484 1276 
Q 4313 825 3966 491 
z
M 2631 1266 
Q 3156 1119 3497 828 
Q 4031 1316 4031 2294 
Q 4031 2850 3842 3265 
Q 3653 3681 3289 3911 
Q 2925 4141 2472 4141 
Q 1794 4141 1347 3677 
Q 900 3213 900 2291 
Q 900 1397 1342 919 
Q 1784 441 2472 441 
Q 2797 441 3084 563 
Q 2800 747 2484 825 
L 2631 1266 
z
" transform="scale(0.015625)"/>
      <path id="ArialMT-55" d="M 3500 4581 
L 4106 4581 
L 4106 1934 
Q 4106 1244 3950 837 
Q 3794 431 3386 176 
Q 2978 -78 2316 -78 
Q 1672 -78 1262 144 
Q 853 366 678 786 
Q 503 1206 503 1934 
L 503 4581 
L 1109 4581 
L 1109 1938 
Q 1109 1341 1220 1058 
Q 1331 775 1601 622 
Q 1872 469 2263 469 
Q 2931 469 3215 772 
Q 3500 1075 3500 1938 
L 3500 4581 
z
" transform="scale(0.015625)"/>
      <path id="ArialMT-49" d="M 597 0 
L 597 4581 
L 1203 4581 
L 1203 0 
L 597 0 
z
" transform="scale(0.015625)"/>
      <path id="ArialMT-43" d="M 3763 1606 
L 4369 1453 
Q 4178 706 3683 314 
Q 3188 -78 2472 -78 
Q 1731 -78 1267 223 
Q 803 525 561 1097 
Q 319 1669 319 2325 
Q 319 3041 592 3573 
Q 866 4106 1370 4382 
Q 1875 4659 2481 4659 
Q 3169 4659 3637 4309 
Q 4106 3959 4291 3325 
L 3694 3184 
Q 3534 3684 3231 3912 
Q 2928 4141 2469 4141 
Q 1941 4141 1586 3887 
Q 1231 3634 1087 3207 
Q 944 2781 944 2328 
Q 944 1744 1114 1308 
Q 1284 872 1643 656 
Q 2003 441 2422 441 
Q 2931 441 3284 734 
Q 3638 1028 3763 1606 
z
" transform="scale(0.015625)"/>
      <path id="ArialMT-77" d="M 1034 0 
L 19 3319 
L 600 3319 
L 1128 1403 
L 1325 691 
Q 1338 744 1497 1375 
L 2025 3319 
L 2603 3319 
L 3100 1394 
L 3266 759 
L 3456 1400 
L 4025 3319 
L 4572 3319 
L 3534 0 
L 2950 0 
L 2422 1988 
L 2294 2553 
L 1622 0 
L 1034 0 
z
" transform="scale(0.015625)"/>
      <path id="ArialMT-63" d="M 2588 1216 
L 3141 1144 
Q 3050 572 2676 248 
Q 2303 -75 1759 -75 
Q 1078 -75 664 370 
Q 250 816 250 1647 
Q 250 2184 428 2587 
Q 606 2991 970 3192 
Q 1334 3394 1763 3394 
Q 2303 3394 2647 3120 
Q 2991 2847 3088 2344 
L 2541 2259 
Q 2463 2594 2264 2762 
Q 2066 2931 1784 2931 
Q 1359 2931 1093 2626 
Q 828 2322 828 1663 
Q 828 994 1084 691 
Q 1341 388 1753 388 
Q 2084 388 2306 591 
Q 2528 794 2588 1216 
z
" transform="scale(0.015625)"/>
      <path id="ArialMT-67" d="M 319 -275 
L 866 -356 
Q 900 -609 1056 -725 
Q 1266 -881 1628 -881 
Q 2019 -881 2231 -725 
Q 2444 -569 2519 -288 
Q 2563 -116 2559 434 
Q 2191 0 1641 0 
Q 956 0 581 494 
Q 206 988 206 1678 
Q 206 2153 378 2554 
Q 550 2956 876 3175 
Q 1203 3394 1644 3394 
Q 2231 3394 2613 2919 
L 2613 3319 
L 3131 3319 
L 3131 450 
Q 3131 -325 2973 -648 
Q 2816 -972 2473 -1159 
Q 2131 -1347 1631 -1347 
Q 1038 -1347 672 -1080 
Q 306 -813 319 -275 
z
M 784 1719 
Q 784 1066 1043 766 
Q 1303 466 1694 466 
Q 2081 466 2343 764 
Q 2606 1063 2606 1700 
Q 2606 2309 2336 2618 
Q 2066 2928 1684 2928 
Q 1309 2928 1046 2623 
Q 784 2319 784 1719 
z
" transform="scale(0.015625)"/>
     </defs>
     <use xlink:href="#ArialMT-48"/>
     <use xlink:href="#ArialMT-61" x="72.216797"/>
     <use xlink:href="#ArialMT-6e" x="127.832031"/>
     <use xlink:href="#ArialMT-64" x="183.447266"/>
     <use xlink:href="#ArialMT-73" x="239.0625"/>
     <use xlink:href="#ArialMT-68" x="289.0625"/>
     <use xlink:href="#ArialMT-61" x="344.677734"/>
     <use xlink:href="#ArialMT-6b" x="400.292969"/>
     <use xlink:href="#ArialMT-65" x="450.292969"/>
     <use xlink:href="#ArialMT-20" x="505.908203"/>
     <use xlink:href="#ArialMT-64" x="533.691406"/>
     <use xlink:href="#ArialMT-75" x="589.306641"/>
     <use xlink:href="#ArialMT-72" x="644.921875"/>
     <use xlink:href="#ArialMT-61" x="678.222656"/>
     <use xlink:href="#ArialMT-74" x="733.837891"/>
     <use xlink:href="#ArialMT-69" x="761.621094"/>
     <use xlink:href="#ArialMT-6f" x="783.837891"/>
     <use xlink:href="#ArialMT-6e" x="839.453125"/>
     <use xlink:href="#ArialMT-20" x="895.068359"/>
     <use xlink:href="#ArialMT-6f" x="922.851562"/>
     <use xlink:href="#ArialMT-6e" x="978.466797"/>
     <use xlink:href="#ArialMT-20" x="1034.082031"/>
     <use xlink:href="#ArialMT-51" x="1061.865234"/>
     <use xlink:href="#ArialMT-55" x="1139.648438"/>
     <use xlink:href="#ArialMT-49" x="1211.865234"/>
     <use xlink:href="#ArialMT-43" x="1239.648438"/>
     <use xlink:href="#ArialMT-20" x="1311.865234"/>
     <use xlink:href="#ArialMT-77" x="1339.648438"/>
     <use xlink:href="#ArialMT-69" x="1411.865234"/>
     <use xlink:href="#ArialMT-74" x="1434.082031"/>
     <use xlink:href="#ArialMT-68" x="1461.865234"/>
     <use xlink:href="#ArialMT-20" x="1517.480469"/>
     <use xlink:href="#ArialMT-73" x="1545.263672"/>
     <use xlink:href="#ArialMT-65" x="1595.263672"/>
     <use xlink:href="#ArialMT-63" x="1650.878906"/>
     <use xlink:href="#ArialMT-70" x="1700.878906"/>
     <use xlink:href="#ArialMT-33" x="1756.494141"/>
     <use xlink:href="#ArialMT-38" x="1812.109375"/>
     <use xlink:href="#ArialMT-34" x="1867.724609"/>
     <use xlink:href="#ArialMT-72" x="1923.339844"/>
     <use xlink:href="#ArialMT-31" x="1956.640625"/>
     <use xlink:href="#ArialMT-20" x="2012.255859"/>
     <use xlink:href="#ArialMT-73" x="2040.039062"/>
     <use xlink:href="#ArialMT-69" x="2090.039062"/>
     <use xlink:href="#ArialMT-67" x="2112.255859"/>
     <use xlink:href="#ArialMT-6e" x="2167.871094"/>
     <use xlink:href="#ArialMT-61" x="2223.486328"/>
     <use xlink:href="#ArialMT-74" x="2279.101562"/>
     <use xlink:href="#ArialMT-75" x="2306.884766"/>
     <use xlink:href="#ArialMT-72" x="2362.5"/>
     <use xlink:href="#ArialMT-65" x="2395.800781"/>
     <use xlink:href="#ArialMT-20" x="2451.416016"/>
     <use xlink:href="#ArialMT-61" x="2479.199219"/>
     <use xlink:href="#ArialMT-6c" x="2534.814453"/>
     <use xlink:href="#ArialMT-67" x="2557.03125"/>
     <use xlink:href="#ArialMT-6f" x="2612.646484"/>
     <use xlink:href="#ArialMT-72" x="2668.261719"/>
     <use xlink:href="#ArialMT-69" x="2701.5625"/>
     <use xlink:href="#ArialMT-74" x="2723.779297"/>
     <use xlink:href="#ArialMT-68" x="2751.5625"/>
     <use xlink:href="#ArialMT-6d" x="2807.177734"/>
    </g>
   </g>
  </g>
 </g>
 <defs>
  <clipPath id="p93ef30eab6">
   <rect x="59.045625" y="27.650625" width="791.994375" height="368.929375"/>
  </clipPath>
 </defs>
</svg>
