<?xml version="1.0" encoding="utf-8" standalone="no"?>
<!DOCTYPE svg PUBLIC "-//W3C//DTD SVG 1.1//EN"
  "http://www.w3.org/Graphics/SVG/1.1/DTD/svg11.dtd">
<svg xmlns:xlink="http://www.w3.org/1999/xlink" width="864pt" height="432pt" viewBox="0 0 864 432" xmlns="http://www.w3.org/2000/svg" version="1.1">
 <metadata>
  <rdf:RDF xmlns:dc="http://purl.org/dc/elements/1.1/" xmlns:cc="http://creativecommons.org/ns#" xmlns:rdf="http://www.w3.org/1999/02/22-rdf-syntax-ns#">
   <cc:Work>
    <dc:type rdf:resource="http://purl.org/dc/dcmitype/StillImage"/>
    <dc:date>2025-10-07T07:40:24.843440</dc:date>
    <dc:format>image/svg+xml</dc:format>
    <dc:creator>
     <cc:Agent>
      <dc:title>Matplotlib v3.10.3, https://matplotlib.org/</dc:title>
     </cc:Agent>
    </dc:creator>
   </cc:Work>
  </rdf:RDF>
 </metadata>
 <defs>
  <style type="text/css">*{stroke-linejoin: round; stroke-linecap: butt}</style>
 </defs>
 <g id="figure_1">
  <g id="patch_1">
   <path d="M 0 432 
L 864 432 
L 864 0 
L 0 0 
z
" style="fill: #ffffff"/>
  </g>
  <g id="axes_1">
   <g id="patch_2">
    <path d="M 78.39 361.444 
L 851.04 361.444 
L 851.04 20.16 
L 78.39 20.16 
z
" style="fill: #ffffff"/>
   </g>
   <g id="matplotlib.axis_1">
    <g id="xtick_1">
     <g id="text_1">
      <!-- P-256 -->
      <g style="fill: #262626" transform="translate(123.635625 388.12275) scale(0.24 -0.24)">
       <defs>
        <path id="ArialMT-50" d="M 494 0 
L 494 4581 
L 2222 4581 
Q 2678 4581 2919 4538 
Q 3256 4481 3484 4323 
Q 3713 4166 3852 3881 
Q 3991 3597 3991 3256 
Q 3991 2672 3619 2267 
Q 3247 1863 2275 1863 
L 1100 1863 
L 1100 0 
L 494 0 
z
M 1100 2403 
L 2284 2403 
Q 2872 2403 3119 2622 
Q 3366 2841 3366 3238 
Q 3366 3525 3220 3729 
Q 3075 3934 2838 4000 
Q 2684 4041 2272 4041 
L 1100 4041 
L 1100 2403 
z
" transform="scale(0.015625)"/>
        <path id="ArialMT-2d" d="M 203 1375 
L 203 1941 
L 1931 1941 
L 1931 1375 
L 203 1375 
z
" transform="scale(0.015625)"/>
        <path id="ArialMT-32" d="M 3222 541 
L 3222 0 
L 194 0 
Q 188 203 259 391 
Q 375 700 629 1000 
Q 884 1300 1366 1694 
Q 2113 2306 2375 2664 
Q 2638 3022 2638 3341 
Q 2638 3675 2398 3904 
Q 2159 4134 1775 4134 
Q 1369 4134 1125 3890 
Q 881 3647 878 3216 
L 300 3275 
Q 359 3922 746 4261 
Q 1134 4600 1788 4600 
Q 2447 4600 2831 4234 
Q 3216 3869 3216 3328 
Q 3216 3053 3103 2787 
Q 2991 2522 2730 2228 
Q 2469 1934 1863 1422 
Q 1356 997 1212 845 
Q 1069 694 975 541 
L 3222 541 
z
" transform="scale(0.015625)"/>
        <path id="ArialMT-35" d="M 266 1200 
L 856 1250 
Q 922 819 1161 601 
Q 1400 384 1738 384 
Q 2144 384 2425 690 
Q 2706 997 2706 1503 
Q 2706 1984 2436 2262 
Q 2166 2541 1728 2541 
Q 1456 2541 1237 2417 
Q 1019 2294 894 2097 
L 366 2166 
L 809 4519 
L 3088 4519 
L 3088 3981 
L 1259 3981 
L 1013 2750 
Q 1425 3038 1878 3038 
Q 2478 3038 2890 2622 
Q 3303 2206 3303 1553 
Q 3303 931 2941 478 
Q 2500 -78 1738 -78 
Q 1113 -78 717 272 
Q 322 622 266 1200 
z
" transform="scale(0.015625)"/>
        <path id="ArialMT-36" d="M 3184 3459 
L 2625 3416 
Q 2550 3747 2413 3897 
Q 2184 4138 1850 4138 
Q 1581 4138 1378 3988 
Q 1113 3794 959 3422 
Q 806 3050 800 2363 
Q 1003 2672 1297 2822 
Q 1591 2972 1913 2972 
Q 2475 2972 2870 2558 
Q 3266 2144 3266 1488 
Q 3266 1056 3080 686 
Q 2894 316 2569 119 
Q 2244 -78 1831 -78 
Q 1128 -78 684 439 
Q 241 956 241 2144 
Q 241 3472 731 4075 
Q 1159 4600 1884 4600 
Q 2425 4600 2770 4297 
Q 3116 3994 3184 3459 
z
M 888 1484 
Q 888 1194 1011 928 
Q 1134 663 1356 523 
Q 1578 384 1822 384 
Q 2178 384 2434 671 
Q 2691 959 2691 1453 
Q 2691 1928 2437 2201 
Q 2184 2475 1800 2475 
Q 1419 2475 1153 2201 
Q 888 1928 888 1484 
z
" transform="scale(0.015625)"/>
       </defs>
       <use xlink:href="#ArialMT-50"/>
       <use xlink:href="#ArialMT-2d" transform="translate(66.699219 0)"/>
       <use xlink:href="#ArialMT-32" transform="translate(100 0)"/>
       <use xlink:href="#ArialMT-35" transform="translate(155.615234 0)"/>
       <use xlink:href="#ArialMT-36" transform="translate(211.230469 0)"/>
      </g>
     </g>
    </g>
    <g id="xtick_2">
     <g id="text_2">
      <!-- x25519 -->
      <g style="fill: #262626" transform="translate(270.819375 388.12275) scale(0.24 -0.24)">
       <defs>
        <path id="ArialMT-78" d="M 47 0 
L 1259 1725 
L 138 3319 
L 841 3319 
L 1350 2541 
Q 1494 2319 1581 2169 
Q 1719 2375 1834 2534 
L 2394 3319 
L 3066 3319 
L 1919 1756 
L 3153 0 
L 2463 0 
L 1781 1031 
L 1600 1309 
L 728 0 
L 47 0 
z
" transform="scale(0.015625)"/>
        <path id="ArialMT-31" d="M 2384 0 
L 1822 0 
L 1822 3584 
Q 1619 3391 1289 3197 
Q 959 3003 697 2906 
L 697 3450 
Q 1169 3672 1522 3987 
Q 1875 4303 2022 4600 
L 2384 4600 
L 2384 0 
z
" transform="scale(0.015625)"/>
        <path id="ArialMT-39" d="M 350 1059 
L 891 1109 
Q 959 728 1153 556 
Q 1347 384 1650 384 
Q 1909 384 2104 503 
Q 2300 622 2425 820 
Q 2550 1019 2634 1356 
Q 2719 1694 2719 2044 
Q 2719 2081 2716 2156 
Q 2547 1888 2255 1720 
Q 1963 1553 1622 1553 
Q 1053 1553 659 1965 
Q 266 2378 266 3053 
Q 266 3750 677 4175 
Q 1088 4600 1706 4600 
Q 2153 4600 2523 4359 
Q 2894 4119 3086 3673 
Q 3278 3228 3278 2384 
Q 3278 1506 3087 986 
Q 2897 466 2520 194 
Q 2144 -78 1638 -78 
Q 1100 -78 759 220 
Q 419 519 350 1059 
z
M 2653 3081 
Q 2653 3566 2395 3850 
Q 2138 4134 1775 4134 
Q 1400 4134 1122 3828 
Q 844 3522 844 3034 
Q 844 2597 1108 2323 
Q 1372 2050 1759 2050 
Q 2150 2050 2401 2323 
Q 2653 2597 2653 3081 
z
" transform="scale(0.015625)"/>
       </defs>
       <use xlink:href="#ArialMT-78"/>
       <use xlink:href="#ArialMT-32" transform="translate(50 0)"/>
       <use xlink:href="#ArialMT-35" transform="translate(105.615234 0)"/>
       <use xlink:href="#ArialMT-35" transform="translate(161.230469 0)"/>
       <use xlink:href="#ArialMT-31" transform="translate(216.845703 0)"/>
       <use xlink:href="#ArialMT-39" transform="translate(272.460938 0)"/>
      </g>
     </g>
    </g>
    <g id="xtick_3">
     <g id="text_3">
      <!-- P-256 -->
      <g style="fill: #262626" transform="translate(432.695625 388.12275) scale(0.24 -0.24)">
       <use xlink:href="#ArialMT-50"/>
       <use xlink:href="#ArialMT-2d" transform="translate(66.699219 0)"/>
       <use xlink:href="#ArialMT-32" transform="translate(100 0)"/>
       <use xlink:href="#ArialMT-35" transform="translate(155.615234 0)"/>
       <use xlink:href="#ArialMT-36" transform="translate(211.230469 0)"/>
      </g>
      <!-- mlkem512 -->
      <g style="fill: #262626" transform="translate(409.365 413.50725) scale(0.24 -0.24)">
       <defs>
        <path id="ArialMT-6d" d="M 422 0 
L 422 3319 
L 925 3319 
L 925 2853 
Q 1081 3097 1340 3245 
Q 1600 3394 1931 3394 
Q 2300 3394 2536 3241 
Q 2772 3088 2869 2813 
Q 3263 3394 3894 3394 
Q 4388 3394 4653 3120 
Q 4919 2847 4919 2278 
L 4919 0 
L 4359 0 
L 4359 2091 
Q 4359 2428 4304 2576 
Q 4250 2725 4106 2815 
Q 3963 2906 3769 2906 
Q 3419 2906 3187 2673 
Q 2956 2441 2956 1928 
L 2956 0 
L 2394 0 
L 2394 2156 
Q 2394 2531 2256 2718 
Q 2119 2906 1806 2906 
Q 1569 2906 1367 2781 
Q 1166 2656 1075 2415 
Q 984 2175 984 1722 
L 984 0 
L 422 0 
z
" transform="scale(0.015625)"/>
        <path id="ArialMT-6c" d="M 409 0 
L 409 4581 
L 972 4581 
L 972 0 
L 409 0 
z
" transform="scale(0.015625)"/>
        <path id="ArialMT-6b" d="M 425 0 
L 425 4581 
L 988 4581 
L 988 1969 
L 2319 3319 
L 3047 3319 
L 1778 2088 
L 3175 0 
L 2481 0 
L 1384 1697 
L 988 1316 
L 988 0 
L 425 0 
z
" transform="scale(0.015625)"/>
        <path id="ArialMT-65" d="M 2694 1069 
L 3275 997 
Q 3138 488 2766 206 
Q 2394 -75 1816 -75 
Q 1088 -75 661 373 
Q 234 822 234 1631 
Q 234 2469 665 2931 
Q 1097 3394 1784 3394 
Q 2450 3394 2872 2941 
Q 3294 2488 3294 1666 
Q 3294 1616 3291 1516 
L 816 1516 
Q 847 969 1125 678 
Q 1403 388 1819 388 
Q 2128 388 2347 550 
Q 2566 713 2694 1069 
z
M 847 1978 
L 2700 1978 
Q 2663 2397 2488 2606 
Q 2219 2931 1791 2931 
Q 1403 2931 1139 2672 
Q 875 2413 847 1978 
z
" transform="scale(0.015625)"/>
       </defs>
       <use xlink:href="#ArialMT-6d"/>
       <use xlink:href="#ArialMT-6c" transform="translate(83.300781 0)"/>
       <use xlink:href="#ArialMT-6b" transform="translate(105.517578 0)"/>
       <use xlink:href="#ArialMT-65" transform="translate(155.517578 0)"/>
       <use xlink:href="#ArialMT-6d" transform="translate(211.132812 0)"/>
       <use xlink:href="#ArialMT-35" transform="translate(294.433594 0)"/>
       <use xlink:href="#ArialMT-31" transform="translate(350.048828 0)"/>
       <use xlink:href="#ArialMT-32" transform="translate(405.664062 0)"/>
      </g>
     </g>
    </g>
    <g id="xtick_4">
     <g id="text_4">
      <!-- x25519 -->
      <g style="fill: #262626" transform="translate(579.879375 388.12275) scale(0.24 -0.24)">
       <use xlink:href="#ArialMT-78"/>
       <use xlink:href="#ArialMT-32" transform="translate(50 0)"/>
       <use xlink:href="#ArialMT-35" transform="translate(105.615234 0)"/>
       <use xlink:href="#ArialMT-35" transform="translate(161.230469 0)"/>
       <use xlink:href="#ArialMT-31" transform="translate(216.845703 0)"/>
       <use xlink:href="#ArialMT-39" transform="translate(272.460938 0)"/>
      </g>
      <!-- mlkem512 -->
      <g style="fill: #262626" transform="translate(563.895 413.50725) scale(0.24 -0.24)">
       <use xlink:href="#ArialMT-6d"/>
       <use xlink:href="#ArialMT-6c" transform="translate(83.300781 0)"/>
       <use xlink:href="#ArialMT-6b" transform="translate(105.517578 0)"/>
       <use xlink:href="#ArialMT-65" transform="translate(155.517578 0)"/>
       <use xlink:href="#ArialMT-6d" transform="translate(211.132812 0)"/>
       <use xlink:href="#ArialMT-35" transform="translate(294.433594 0)"/>
       <use xlink:href="#ArialMT-31" transform="translate(350.048828 0)"/>
       <use xlink:href="#ArialMT-32" transform="translate(405.664062 0)"/>
      </g>
     </g>
    </g>
    <g id="xtick_5">
     <g id="text_5">
      <!-- mlkem512 -->
      <g style="fill: #262626" transform="translate(718.425 388.12275) scale(0.24 -0.24)">
       <use xlink:href="#ArialMT-6d"/>
       <use xlink:href="#ArialMT-6c" transform="translate(83.300781 0)"/>
       <use xlink:href="#ArialMT-6b" transform="translate(105.517578 0)"/>
       <use xlink:href="#ArialMT-65" transform="translate(155.517578 0)"/>
       <use xlink:href="#ArialMT-6d" transform="translate(211.132812 0)"/>
       <use xlink:href="#ArialMT-35" transform="translate(294.433594 0)"/>
       <use xlink:href="#ArialMT-31" transform="translate(350.048828 0)"/>
       <use xlink:href="#ArialMT-32" transform="translate(405.664062 0)"/>
      </g>
     </g>
    </g>
   </g>
   <g id="matplotlib.axis_2">
    <g id="ytick_1">
     <g id="line2d_1">
      <path d="M 78.39 361.444 
L 851.04 361.444 
" clip-path="url(#p33ddf2bd3e)" style="fill: none; stroke: #cccccc; stroke-linecap: round"/>
     </g>
     <g id="text_6">
      <!-- 0.0 -->
      <g style="fill: #262626" transform="translate(41.09 368.601812) scale(0.2 -0.2)">
       <defs>
        <path id="ArialMT-30" d="M 266 2259 
Q 266 3072 433 3567 
Q 600 4063 929 4331 
Q 1259 4600 1759 4600 
Q 2128 4600 2406 4451 
Q 2684 4303 2865 4023 
Q 3047 3744 3150 3342 
Q 3253 2941 3253 2259 
Q 3253 1453 3087 958 
Q 2922 463 2592 192 
Q 2263 -78 1759 -78 
Q 1097 -78 719 397 
Q 266 969 266 2259 
z
M 844 2259 
Q 844 1131 1108 757 
Q 1372 384 1759 384 
Q 2147 384 2411 759 
Q 2675 1134 2675 2259 
Q 2675 3391 2411 3762 
Q 2147 4134 1753 4134 
Q 1366 4134 1134 3806 
Q 844 3388 844 2259 
z
" transform="scale(0.015625)"/>
        <path id="ArialMT-2e" d="M 581 0 
L 581 641 
L 1222 641 
L 1222 0 
L 581 0 
z
" transform="scale(0.015625)"/>
       </defs>
       <use xlink:href="#ArialMT-30"/>
       <use xlink:href="#ArialMT-2e" transform="translate(55.615234 0)"/>
       <use xlink:href="#ArialMT-30" transform="translate(83.398438 0)"/>
      </g>
     </g>
    </g>
    <g id="ytick_2">
     <g id="line2d_2">
      <path d="M 78.39 318.7835 
L 851.04 318.7835 
" clip-path="url(#p33ddf2bd3e)" style="fill: none; stroke: #cccccc; stroke-linecap: round"/>
     </g>
     <g id="text_7">
      <!-- 2.5 -->
      <g style="fill: #262626" transform="translate(41.09 325.941312) scale(0.2 -0.2)">
       <use xlink:href="#ArialMT-32"/>
       <use xlink:href="#ArialMT-2e" transform="translate(55.615234 0)"/>
       <use xlink:href="#ArialMT-35" transform="translate(83.398438 0)"/>
      </g>
     </g>
    </g>
    <g id="ytick_3">
     <g id="line2d_3">
      <path d="M 78.39 276.123 
L 851.04 276.123 
" clip-path="url(#p33ddf2bd3e)" style="fill: none; stroke: #cccccc; stroke-linecap: round"/>
     </g>
     <g id="text_8">
      <!-- 5.0 -->
      <g style="fill: #262626" transform="translate(41.09 283.280813) scale(0.2 -0.2)">
       <use xlink:href="#ArialMT-35"/>
       <use xlink:href="#ArialMT-2e" transform="translate(55.615234 0)"/>
       <use xlink:href="#ArialMT-30" transform="translate(83.398438 0)"/>
      </g>
     </g>
    </g>
    <g id="ytick_4">
     <g id="line2d_4">
      <path d="M 78.39 233.4625 
L 851.04 233.4625 
" clip-path="url(#p33ddf2bd3e)" style="fill: none; stroke: #cccccc; stroke-linecap: round"/>
     </g>
     <g id="text_9">
      <!-- 7.5 -->
      <g style="fill: #262626" transform="translate(41.09 240.620313) scale(0.2 -0.2)">
       <defs>
        <path id="ArialMT-37" d="M 303 3981 
L 303 4522 
L 3269 4522 
L 3269 4084 
Q 2831 3619 2401 2847 
Q 1972 2075 1738 1259 
Q 1569 684 1522 0 
L 944 0 
Q 953 541 1156 1306 
Q 1359 2072 1739 2783 
Q 2119 3494 2547 3981 
L 303 3981 
z
" transform="scale(0.015625)"/>
       </defs>
       <use xlink:href="#ArialMT-37"/>
       <use xlink:href="#ArialMT-2e" transform="translate(55.615234 0)"/>
       <use xlink:href="#ArialMT-35" transform="translate(83.398438 0)"/>
      </g>
     </g>
    </g>
    <g id="ytick_5">
     <g id="line2d_5">
      <path d="M 78.39 190.802 
L 851.04 190.802 
" clip-path="url(#p33ddf2bd3e)" style="fill: none; stroke: #cccccc; stroke-linecap: round"/>
     </g>
     <g id="text_10">
      <!-- 10.0 -->
      <g style="fill: #262626" transform="translate(29.968125 197.959813) scale(0.2 -0.2)">
       <use xlink:href="#ArialMT-31"/>
       <use xlink:href="#ArialMT-30" transform="translate(55.615234 0)"/>
       <use xlink:href="#ArialMT-2e" transform="translate(111.230469 0)"/>
       <use xlink:href="#ArialMT-30" transform="translate(139.013672 0)"/>
      </g>
     </g>
    </g>
    <g id="ytick_6">
     <g id="line2d_6">
      <path d="M 78.39 148.1415 
L 851.04 148.1415 
" clip-path="url(#p33ddf2bd3e)" style="fill: none; stroke: #cccccc; stroke-linecap: round"/>
     </g>
     <g id="text_11">
      <!-- 12.5 -->
      <g style="fill: #262626" transform="translate(29.968125 155.299312) scale(0.2 -0.2)">
       <use xlink:href="#ArialMT-31"/>
       <use xlink:href="#ArialMT-32" transform="translate(55.615234 0)"/>
       <use xlink:href="#ArialMT-2e" transform="translate(111.230469 0)"/>
       <use xlink:href="#ArialMT-35" transform="translate(139.013672 0)"/>
      </g>
     </g>
    </g>
    <g id="ytick_7">
     <g id="line2d_7">
      <path d="M 78.39 105.481 
L 851.04 105.481 
" clip-path="url(#p33ddf2bd3e)" style="fill: none; stroke: #cccccc; stroke-linecap: round"/>
     </g>
     <g id="text_12">
      <!-- 15.0 -->
      <g style="fill: #262626" transform="translate(29.968125 112.638813) scale(0.2 -0.2)">
       <use xlink:href="#ArialMT-31"/>
       <use xlink:href="#ArialMT-35" transform="translate(55.615234 0)"/>
       <use xlink:href="#ArialMT-2e" transform="translate(111.230469 0)"/>
       <use xlink:href="#ArialMT-30" transform="translate(139.013672 0)"/>
      </g>
     </g>
    </g>
    <g id="ytick_8">
     <g id="line2d_8">
      <path d="M 78.39 62.8205 
L 851.04 62.8205 
" clip-path="url(#p33ddf2bd3e)" style="fill: none; stroke: #cccccc; stroke-linecap: round"/>
     </g>
     <g id="text_13">
      <!-- 17.5 -->
      <g style="fill: #262626" transform="translate(29.968125 69.978313) scale(0.2 -0.2)">
       <use xlink:href="#ArialMT-31"/>
       <use xlink:href="#ArialMT-37" transform="translate(55.615234 0)"/>
       <use xlink:href="#ArialMT-2e" transform="translate(111.230469 0)"/>
       <use xlink:href="#ArialMT-35" transform="translate(139.013672 0)"/>
      </g>
     </g>
    </g>
    <g id="ytick_9">
     <g id="line2d_9">
      <path d="M 78.39 20.16 
L 851.04 20.16 
" clip-path="url(#p33ddf2bd3e)" style="fill: none; stroke: #cccccc; stroke-linecap: round"/>
     </g>
     <g id="text_14">
      <!-- 20.0 -->
      <g style="fill: #262626" transform="translate(29.968125 27.317813) scale(0.2 -0.2)">
       <use xlink:href="#ArialMT-32"/>
       <use xlink:href="#ArialMT-30" transform="translate(55.615234 0)"/>
       <use xlink:href="#ArialMT-2e" transform="translate(111.230469 0)"/>
       <use xlink:href="#ArialMT-30" transform="translate(139.013672 0)"/>
      </g>
     </g>
    </g>
    <g id="text_15">
     <!-- Handshake duration (ms) -->
     <g style="fill: #262626" transform="translate(23.021563 269.389031) rotate(-90) scale(0.14 -0.14)">
      <defs>
       <path id="ArialMT-48" d="M 513 0 
L 513 4581 
L 1119 4581 
L 1119 2700 
L 3500 2700 
L 3500 4581 
L 4106 4581 
L 4106 0 
L 3500 0 
L 3500 2159 
L 1119 2159 
L 1119 0 
L 513 0 
z
" transform="scale(0.015625)"/>
       <path id="ArialMT-61" d="M 2588 409 
Q 2275 144 1986 34 
Q 1697 -75 1366 -75 
Q 819 -75 525 192 
Q 231 459 231 875 
Q 231 1119 342 1320 
Q 453 1522 633 1644 
Q 813 1766 1038 1828 
Q 1203 1872 1538 1913 
Q 2219 1994 2541 2106 
Q 2544 2222 2544 2253 
Q 2544 2597 2384 2738 
Q 2169 2928 1744 2928 
Q 1347 2928 1158 2789 
Q 969 2650 878 2297 
L 328 2372 
Q 403 2725 575 2942 
Q 747 3159 1072 3276 
Q 1397 3394 1825 3394 
Q 2250 3394 2515 3294 
Q 2781 3194 2906 3042 
Q 3031 2891 3081 2659 
Q 3109 2516 3109 2141 
L 3109 1391 
Q 3109 606 3145 398 
Q 3181 191 3288 0 
L 2700 0 
Q 2613 175 2588 409 
z
M 2541 1666 
Q 2234 1541 1622 1453 
Q 1275 1403 1131 1340 
Q 988 1278 909 1158 
Q 831 1038 831 891 
Q 831 666 1001 516 
Q 1172 366 1500 366 
Q 1825 366 2078 508 
Q 2331 650 2450 897 
Q 2541 1088 2541 1459 
L 2541 1666 
z
" transform="scale(0.015625)"/>
       <path id="ArialMT-6e" d="M 422 0 
L 422 3319 
L 928 3319 
L 928 2847 
Q 1294 3394 1984 3394 
Q 2284 3394 2536 3286 
Q 2788 3178 2913 3003 
Q 3038 2828 3088 2588 
Q 3119 2431 3119 2041 
L 3119 0 
L 2556 0 
L 2556 2019 
Q 2556 2363 2490 2533 
Q 2425 2703 2258 2804 
Q 2091 2906 1866 2906 
Q 1506 2906 1245 2678 
Q 984 2450 984 1813 
L 984 0 
L 422 0 
z
" transform="scale(0.015625)"/>
       <path id="ArialMT-64" d="M 2575 0 
L 2575 419 
Q 2259 -75 1647 -75 
Q 1250 -75 917 144 
Q 584 363 401 755 
Q 219 1147 219 1656 
Q 219 2153 384 2558 
Q 550 2963 881 3178 
Q 1213 3394 1622 3394 
Q 1922 3394 2156 3267 
Q 2391 3141 2538 2938 
L 2538 4581 
L 3097 4581 
L 3097 0 
L 2575 0 
z
M 797 1656 
Q 797 1019 1065 703 
Q 1334 388 1700 388 
Q 2069 388 2326 689 
Q 2584 991 2584 1609 
Q 2584 2291 2321 2609 
Q 2059 2928 1675 2928 
Q 1300 2928 1048 2622 
Q 797 2316 797 1656 
z
" transform="scale(0.015625)"/>
       <path id="ArialMT-73" d="M 197 991 
L 753 1078 
Q 800 744 1014 566 
Q 1228 388 1613 388 
Q 2000 388 2187 545 
Q 2375 703 2375 916 
Q 2375 1106 2209 1216 
Q 2094 1291 1634 1406 
Q 1016 1563 777 1677 
Q 538 1791 414 1992 
Q 291 2194 291 2438 
Q 291 2659 392 2848 
Q 494 3038 669 3163 
Q 800 3259 1026 3326 
Q 1253 3394 1513 3394 
Q 1903 3394 2198 3281 
Q 2494 3169 2634 2976 
Q 2775 2784 2828 2463 
L 2278 2388 
Q 2241 2644 2061 2787 
Q 1881 2931 1553 2931 
Q 1166 2931 1000 2803 
Q 834 2675 834 2503 
Q 834 2394 903 2306 
Q 972 2216 1119 2156 
Q 1203 2125 1616 2013 
Q 2213 1853 2448 1751 
Q 2684 1650 2818 1456 
Q 2953 1263 2953 975 
Q 2953 694 2789 445 
Q 2625 197 2315 61 
Q 2006 -75 1616 -75 
Q 969 -75 630 194 
Q 291 463 197 991 
z
" transform="scale(0.015625)"/>
       <path id="ArialMT-68" d="M 422 0 
L 422 4581 
L 984 4581 
L 984 2938 
Q 1378 3394 1978 3394 
Q 2347 3394 2619 3248 
Q 2891 3103 3008 2847 
Q 3125 2591 3125 2103 
L 3125 0 
L 2563 0 
L 2563 2103 
Q 2563 2525 2380 2717 
Q 2197 2909 1863 2909 
Q 1613 2909 1392 2779 
Q 1172 2650 1078 2428 
Q 984 2206 984 1816 
L 984 0 
L 422 0 
z
" transform="scale(0.015625)"/>
       <path id="ArialMT-20" transform="scale(0.015625)"/>
       <path id="ArialMT-75" d="M 2597 0 
L 2597 488 
Q 2209 -75 1544 -75 
Q 1250 -75 995 37 
Q 741 150 617 320 
Q 494 491 444 738 
Q 409 903 409 1263 
L 409 3319 
L 972 3319 
L 972 1478 
Q 972 1038 1006 884 
Q 1059 663 1231 536 
Q 1403 409 1656 409 
Q 1909 409 2131 539 
Q 2353 669 2445 892 
Q 2538 1116 2538 1541 
L 2538 3319 
L 3100 3319 
L 3100 0 
L 2597 0 
z
" transform="scale(0.015625)"/>
       <path id="ArialMT-72" d="M 416 0 
L 416 3319 
L 922 3319 
L 922 2816 
Q 1116 3169 1280 3281 
Q 1444 3394 1641 3394 
Q 1925 3394 2219 3213 
L 2025 2691 
Q 1819 2813 1613 2813 
Q 1428 2813 1281 2702 
Q 1134 2591 1072 2394 
Q 978 2094 978 1738 
L 978 0 
L 416 0 
z
" transform="scale(0.015625)"/>
       <path id="ArialMT-74" d="M 1650 503 
L 1731 6 
Q 1494 -44 1306 -44 
Q 1000 -44 831 53 
Q 663 150 594 308 
Q 525 466 525 972 
L 525 2881 
L 113 2881 
L 113 3319 
L 525 3319 
L 525 4141 
L 1084 4478 
L 1084 3319 
L 1650 3319 
L 1650 2881 
L 1084 2881 
L 1084 941 
Q 1084 700 1114 631 
Q 1144 563 1211 522 
Q 1278 481 1403 481 
Q 1497 481 1650 503 
z
" transform="scale(0.015625)"/>
       <path id="ArialMT-69" d="M 425 3934 
L 425 4581 
L 988 4581 
L 988 3934 
L 425 3934 
z
M 425 0 
L 425 3319 
L 988 3319 
L 988 0 
L 425 0 
z
" transform="scale(0.015625)"/>
       <path id="ArialMT-6f" d="M 213 1659 
Q 213 2581 725 3025 
Q 1153 3394 1769 3394 
Q 2453 3394 2887 2945 
Q 3322 2497 3322 1706 
Q 3322 1066 3130 698 
Q 2938 331 2570 128 
Q 2203 -75 1769 -75 
Q 1072 -75 642 372 
Q 213 819 213 1659 
z
M 791 1659 
Q 791 1022 1069 705 
Q 1347 388 1769 388 
Q 2188 388 2466 706 
Q 2744 1025 2744 1678 
Q 2744 2294 2464 2611 
Q 2184 2928 1769 2928 
Q 1347 2928 1069 2612 
Q 791 2297 791 1659 
z
" transform="scale(0.015625)"/>
       <path id="ArialMT-28" d="M 1497 -1347 
Q 1031 -759 709 28 
Q 388 816 388 1659 
Q 388 2403 628 3084 
Q 909 3875 1497 4659 
L 1900 4659 
Q 1522 4009 1400 3731 
Q 1209 3300 1100 2831 
Q 966 2247 966 1656 
Q 966 153 1900 -1347 
L 1497 -1347 
z
" transform="scale(0.015625)"/>
       <path id="ArialMT-29" d="M 791 -1347 
L 388 -1347 
Q 1322 153 1322 1656 
Q 1322 2244 1188 2822 
Q 1081 3291 891 3722 
Q 769 4003 388 4659 
L 791 4659 
Q 1378 3875 1659 3084 
Q 1900 2403 1900 1659 
Q 1900 816 1576 28 
Q 1253 -759 791 -1347 
z
" transform="scale(0.015625)"/>
      </defs>
      <use xlink:href="#ArialMT-48"/>
      <use xlink:href="#ArialMT-61" transform="translate(72.216797 0)"/>
      <use xlink:href="#ArialMT-6e" transform="translate(127.832031 0)"/>
      <use xlink:href="#ArialMT-64" transform="translate(183.447266 0)"/>
      <use xlink:href="#ArialMT-73" transform="translate(239.0625 0)"/>
      <use xlink:href="#ArialMT-68" transform="translate(289.0625 0)"/>
      <use xlink:href="#ArialMT-61" transform="translate(344.677734 0)"/>
      <use xlink:href="#ArialMT-6b" transform="translate(400.292969 0)"/>
      <use xlink:href="#ArialMT-65" transform="translate(450.292969 0)"/>
      <use xlink:href="#ArialMT-20" transform="translate(505.908203 0)"/>
      <use xlink:href="#ArialMT-64" transform="translate(533.691406 0)"/>
      <use xlink:href="#ArialMT-75" transform="translate(589.306641 0)"/>
      <use xlink:href="#ArialMT-72" transform="translate(644.921875 0)"/>
      <use xlink:href="#ArialMT-61" transform="translate(678.222656 0)"/>
      <use xlink:href="#ArialMT-74" transform="translate(733.837891 0)"/>
      <use xlink:href="#ArialMT-69" transform="translate(761.621094 0)"/>
      <use xlink:href="#ArialMT-6f" transform="translate(783.837891 0)"/>
      <use xlink:href="#ArialMT-6e" transform="translate(839.453125 0)"/>
      <use xlink:href="#ArialMT-20" transform="translate(895.068359 0)"/>
      <use xlink:href="#ArialMT-28" transform="translate(922.851562 0)"/>
      <use xlink:href="#ArialMT-6d" transform="translate(956.152344 0)"/>
      <use xlink:href="#ArialMT-73" transform="translate(1039.453125 0)"/>
      <use xlink:href="#ArialMT-29" transform="translate(1089.453125 0)"/>
     </g>
    </g>
   </g>
   <g id="FillBetweenPolyCollection_1">
    <defs>
     <path id="m8cd269c097" d="M 155.773675 -96.307546 
L 155.536325 -96.307546 
L 155.389808 -97.004214 
L 155.114304 -97.700883 
L 154.641151 -98.397551 
L 153.889605 -99.094219 
L 152.767663 -99.790888 
L 151.165051 -100.487556 
L 148.940595 -101.184224 
L 145.918485 -101.880892 
L 141.915205 -102.577561 
L 136.809743 -103.274229 
L 130.641809 -103.970897 
L 123.690604 -104.667565 
L 116.475491 -105.364234 
L 109.648361 -106.060902 
L 103.808425 -106.75757 
L 99.327078 -107.454239 
L 96.278864 -108.150907 
L 94.517168 -108.847575 
L 93.843 -109.544243 
L 94.156202 -110.240912 
L 95.49498 -110.93758 
L 97.947998 -111.634248 
L 101.504489 -112.330917 
L 105.9386 -113.027585 
L 110.795371 -113.724253 
L 115.487455 -114.420921 
L 119.460153 -115.11759 
L 122.35511 -115.814258 
L 124.103441 -116.510926 
L 124.908245 -117.207595 
L 125.130281 -117.904263 
L 125.143774 -118.600931 
L 125.241937 -119.297599 
L 125.62617 -119.994268 
L 126.445055 -120.690936 
L 127.820413 -121.387604 
L 129.829367 -122.084272 
L 132.462693 -122.780941 
L 135.599424 -123.477609 
L 139.018856 -124.174277 
L 142.44348 -124.870946 
L 145.593806 -125.567614 
L 148.239153 -126.264282 
L 150.237027 -126.96095 
L 151.558285 -127.657619 
L 152.292393 -128.354287 
L 152.623373 -129.050955 
L 152.773675 -129.747624 
L 152.932403 -130.444292 
L 153.200663 -131.14096 
L 153.581647 -131.837628 
L 154.01562 -132.534297 
L 154.431986 -133.230965 
L 154.78547 -133.927633 
L 155.062898 -134.624302 
L 155.270555 -135.32097 
L 155.420025 -136.017638 
L 155.521994 -136.714306 
L 155.58632 -137.410975 
L 155.623022 -138.107643 
L 155.641682 -138.804311 
L 155.650065 -139.50098 
L 155.653378 -140.197648 
L 155.654528 -140.894316 
L 155.654879 -141.590984 
L 155.654972 -142.287653 
L 155.654994 -142.984321 
L 155.654999 -143.680989 
L 155.655 -144.377657 
L 155.655 -145.074326 
L 155.655 -145.770994 
L 155.655 -146.467662 
L 155.655 -147.164331 
L 155.655 -147.860999 
L 155.655 -148.557667 
L 155.655 -149.254335 
L 155.655 -149.951004 
L 155.655 -150.647672 
L 155.654999 -151.34434 
L 155.654995 -152.041009 
L 155.654973 -152.737677 
L 155.654881 -153.434345 
L 155.654537 -154.131013 
L 155.653413 -154.827682 
L 155.650203 -155.52435 
L 155.642207 -156.221018 
L 155.624893 -156.917687 
L 155.592475 -157.614355 
L 155.540411 -158.311023 
L 155.469681 -159.007691 
L 155.390523 -159.70436 
L 155.32192 -160.401028 
L 155.284831 -161.097696 
L 155.29197 -161.794364 
L 155.340821 -162.491033 
L 155.41506 -163.187701 
L 155.493296 -163.884369 
L 155.558832 -164.581038 
L 155.60453 -165.277706 
L 155.70547 -165.277706 
L 155.70547 -165.277706 
L 155.751168 -164.581038 
L 155.816704 -163.884369 
L 155.89494 -163.187701 
L 155.969179 -162.491033 
L 156.01803 -161.794364 
L 156.025169 -161.097696 
L 155.98808 -160.401028 
L 155.919477 -159.70436 
L 155.840319 -159.007691 
L 155.769589 -158.311023 
L 155.717525 -157.614355 
L 155.685107 -156.917687 
L 155.667793 -156.221018 
L 155.659797 -155.52435 
L 155.656587 -154.827682 
L 155.655463 -154.131013 
L 155.655119 -153.434345 
L 155.655027 -152.737677 
L 155.655005 -152.041009 
L 155.655001 -151.34434 
L 155.655 -150.647672 
L 155.655 -149.951004 
L 155.655 -149.254335 
L 155.655 -148.557667 
L 155.655 -147.860999 
L 155.655 -147.164331 
L 155.655 -146.467662 
L 155.655 -145.770994 
L 155.655 -145.074326 
L 155.655 -144.377657 
L 155.655001 -143.680989 
L 155.655006 -142.984321 
L 155.655028 -142.287653 
L 155.655121 -141.590984 
L 155.655472 -140.894316 
L 155.656622 -140.197648 
L 155.659935 -139.50098 
L 155.668318 -138.804311 
L 155.686978 -138.107643 
L 155.72368 -137.410975 
L 155.788006 -136.714306 
L 155.889975 -136.017638 
L 156.039445 -135.32097 
L 156.247102 -134.624302 
L 156.52453 -133.927633 
L 156.878014 -133.230965 
L 157.29438 -132.534297 
L 157.728353 -131.837628 
L 158.109337 -131.14096 
L 158.377597 -130.444292 
L 158.536325 -129.747624 
L 158.686627 -129.050955 
L 159.017607 -128.354287 
L 159.751715 -127.657619 
L 161.072973 -126.96095 
L 163.070847 -126.264282 
L 165.716194 -125.567614 
L 168.86652 -124.870946 
L 172.291144 -124.174277 
L 175.710576 -123.477609 
L 178.847307 -122.780941 
L 181.480633 -122.084272 
L 183.489587 -121.387604 
L 184.864945 -120.690936 
L 185.68383 -119.994268 
L 186.068063 -119.297599 
L 186.166226 -118.600931 
L 186.179719 -117.904263 
L 186.401755 -117.207595 
L 187.206559 -116.510926 
L 188.95489 -115.814258 
L 191.849847 -115.11759 
L 195.822545 -114.420921 
L 200.514629 -113.724253 
L 205.3714 -113.027585 
L 209.805511 -112.330917 
L 213.362002 -111.634248 
L 215.81502 -110.93758 
L 217.153798 -110.240912 
L 217.467 -109.544243 
L 216.792832 -108.847575 
L 215.031136 -108.150907 
L 211.982922 -107.454239 
L 207.501575 -106.75757 
L 201.661639 -106.060902 
L 194.834509 -105.364234 
L 187.619396 -104.667565 
L 180.668191 -103.970897 
L 174.500257 -103.274229 
L 169.394795 -102.577561 
L 165.391515 -101.880892 
L 162.369405 -101.184224 
L 160.144949 -100.487556 
L 158.542337 -99.790888 
L 157.420395 -99.094219 
L 156.668849 -98.397551 
L 156.195696 -97.700883 
L 155.920192 -97.004214 
L 155.773675 -96.307546 
z
" style="stroke: #595959; stroke-width: 1.25"/>
    </defs>
    <g clip-path="url(#p33ddf2bd3e)">
     <use xlink:href="#m8cd269c097" x="0" y="432" style="fill: #72b6a1; stroke: #595959; stroke-width: 1.25"/>
    </g>
   </g>
   <g id="FillBetweenPolyCollection_2">
    <defs>
     <path id="mb528bb0628" d="M 310.438029 -93.181636 
L 309.931971 -93.181636 
L 309.653314 -93.738062 
L 309.150147 -94.294489 
L 308.316764 -94.850915 
L 307.050918 -95.407342 
L 305.286938 -95.963768 
L 303.027801 -96.520195 
L 300.356841 -97.076621 
L 297.413821 -97.633048 
L 294.337545 -98.189474 
L 291.19973 -98.745901 
L 287.96631 -99.302327 
L 284.51161 -99.858754 
L 280.682507 -100.41518 
L 276.382564 -100.971607 
L 271.638023 -101.528033 
L 266.620894 -102.08446 
L 261.626402 -102.640886 
L 257.017976 -103.197313 
L 253.157698 -103.753739 
L 250.338601 -104.310166 
L 248.733448 -104.866592 
L 248.373 -105.423019 
L 249.161126 -105.979445 
L 250.921424 -106.535872 
L 253.454573 -107.092299 
L 256.577709 -107.648725 
L 260.12603 -108.205152 
L 263.921179 -108.761578 
L 267.735935 -109.318005 
L 271.291446 -109.874431 
L 274.304073 -110.430858 
L 276.565209 -110.987284 
L 278.012651 -111.543711 
L 278.753744 -112.100137 
L 279.027174 -112.656564 
L 279.123542 -113.21299 
L 279.303315 -113.769417 
L 279.745681 -114.325843 
L 280.540437 -114.88227 
L 281.712485 -115.438696 
L 283.256574 -115.995123 
L 285.160814 -116.551549 
L 287.407532 -117.107976 
L 289.953937 -117.664402 
L 292.707752 -118.220829 
L 295.518425 -118.777255 
L 298.197761 -119.333682 
L 300.566497 -119.890108 
L 302.505885 -120.446535 
L 303.988324 -121.002961 
L 305.072574 -121.559388 
L 305.868933 -122.115814 
L 306.494034 -122.672241 
L 307.035809 -123.228667 
L 307.539241 -123.785094 
L 308.011549 -124.34152 
L 308.438355 -124.897947 
L 308.801372 -125.454373 
L 309.090855 -126.0108 
L 309.309873 -126.567226 
L 309.471022 -127.123653 
L 309.589158 -127.680079 
L 309.674959 -128.236506 
L 309.733015 -128.792932 
L 309.76496 -129.349359 
L 309.774799 -129.905785 
L 309.772251 -130.462212 
L 309.771503 -131.018638 
L 309.786068 -131.575065 
L 309.823108 -132.131491 
L 309.880761 -132.687918 
L 309.949863 -133.244344 
L 310.018638 -133.800771 
L 310.077485 -134.357197 
L 310.121601 -134.913624 
L 310.150908 -135.470051 
L 310.168282 -136.026477 
L 310.177509 -136.582904 
L 310.181873 -137.13933 
L 310.183586 -137.695757 
L 310.183754 -138.252183 
L 310.182499 -138.80861 
L 310.178976 -139.365036 
L 310.171266 -139.921463 
L 310.156337 -140.477889 
L 310.130455 -141.034316 
L 310.090396 -141.590742 
L 310.035456 -142.147169 
L 309.969559 -142.703595 
L 309.902129 -143.260022 
L 309.846508 -143.816448 
L 309.815846 -144.372875 
L 309.818084 -144.929301 
L 309.852627 -145.485728 
L 309.910599 -146.042154 
L 309.978536 -146.598581 
L 310.043419 -147.155007 
L 310.096516 -147.711434 
L 310.134601 -148.26786 
L 310.235399 -148.26786 
L 310.235399 -148.26786 
L 310.273484 -147.711434 
L 310.326581 -147.155007 
L 310.391464 -146.598581 
L 310.459401 -146.042154 
L 310.517373 -145.485728 
L 310.551916 -144.929301 
L 310.554154 -144.372875 
L 310.523492 -143.816448 
L 310.467871 -143.260022 
L 310.400441 -142.703595 
L 310.334544 -142.147169 
L 310.279604 -141.590742 
L 310.239545 -141.034316 
L 310.213663 -140.477889 
L 310.198734 -139.921463 
L 310.191024 -139.365036 
L 310.187501 -138.80861 
L 310.186246 -138.252183 
L 310.186414 -137.695757 
L 310.188127 -137.13933 
L 310.192491 -136.582904 
L 310.201718 -136.026477 
L 310.219092 -135.470051 
L 310.248399 -134.913624 
L 310.292515 -134.357197 
L 310.351362 -133.800771 
L 310.420137 -133.244344 
L 310.489239 -132.687918 
L 310.546892 -132.131491 
L 310.583932 -131.575065 
L 310.598497 -131.018638 
L 310.597749 -130.462212 
L 310.595201 -129.905785 
L 310.60504 -129.349359 
L 310.636985 -128.792932 
L 310.695041 -128.236506 
L 310.780842 -127.680079 
L 310.898978 -127.123653 
L 311.060127 -126.567226 
L 311.279145 -126.0108 
L 311.568628 -125.454373 
L 311.931645 -124.897947 
L 312.358451 -124.34152 
L 312.830759 -123.785094 
L 313.334191 -123.228667 
L 313.875966 -122.672241 
L 314.501067 -122.115814 
L 315.297426 -121.559388 
L 316.381676 -121.002961 
L 317.864115 -120.446535 
L 319.803503 -119.890108 
L 322.172239 -119.333682 
L 324.851575 -118.777255 
L 327.662248 -118.220829 
L 330.416063 -117.664402 
L 332.962468 -117.107976 
L 335.209186 -116.551549 
L 337.113426 -115.995123 
L 338.657515 -115.438696 
L 339.829563 -114.88227 
L 340.624319 -114.325843 
L 341.066685 -113.769417 
L 341.246458 -113.21299 
L 341.342826 -112.656564 
L 341.616256 -112.100137 
L 342.357349 -111.543711 
L 343.804791 -110.987284 
L 346.065927 -110.430858 
L 349.078554 -109.874431 
L 352.634065 -109.318005 
L 356.448821 -108.761578 
L 360.24397 -108.205152 
L 363.792291 -107.648725 
L 366.915427 -107.092299 
L 369.448576 -106.535872 
L 371.208874 -105.979445 
L 371.997 -105.423019 
L 371.636552 -104.866592 
L 370.031399 -104.310166 
L 367.212302 -103.753739 
L 363.352024 -103.197313 
L 358.743598 -102.640886 
L 353.749106 -102.08446 
L 348.731977 -101.528033 
L 343.987436 -100.971607 
L 339.687493 -100.41518 
L 335.85839 -99.858754 
L 332.40369 -99.302327 
L 329.17027 -98.745901 
L 326.032455 -98.189474 
L 322.956179 -97.633048 
L 320.013159 -97.076621 
L 317.342199 -96.520195 
L 315.083062 -95.963768 
L 313.319082 -95.407342 
L 312.053236 -94.850915 
L 311.219853 -94.294489 
L 310.716686 -93.738062 
L 310.438029 -93.181636 
z
" style="stroke: #595959; stroke-width: 1.25"/>
    </defs>
    <g clip-path="url(#p33ddf2bd3e)">
     <use xlink:href="#mb528bb0628" x="0" y="432" style="fill: #e99675; stroke: #595959; stroke-width: 1.25"/>
    </g>
   </g>
   <g id="FillBetweenPolyCollection_3">
    <defs>
     <path id="m9ed56c1728" d="M 464.962476 -178.746562 
L 464.467524 -178.746562 
L 464.310591 -180.23573 
L 464.077924 -181.724898 
L 463.745852 -183.214065 
L 463.288286 -184.703233 
L 462.677274 -186.192401 
L 461.882811 -187.681569 
L 460.871511 -189.170737 
L 459.604239 -190.659905 
L 458.03357 -192.149073 
L 456.102754 -193.638241 
L 453.748244 -195.127408 
L 450.907428 -196.616576 
L 447.531899 -198.105744 
L 443.604487 -199.594912 
L 439.15628 -201.08408 
L 434.278674 -202.573248 
L 429.12586 -204.062416 
L 423.905251 -205.551584 
L 418.856539 -207.040752 
L 414.223297 -208.529919 
L 410.223203 -210.019087 
L 407.023249 -211.508255 
L 404.724795 -212.997423 
L 403.360609 -214.486591 
L 402.903 -215.975759 
L 403.279789 -217.464927 
L 404.393508 -218.954095 
L 406.13917 -220.443263 
L 408.416891 -221.93243 
L 411.137399 -223.421598 
L 414.220555 -224.910766 
L 417.588969 -226.399934 
L 421.160158 -227.889102 
L 424.840931 -229.37827 
L 428.526726 -230.867438 
L 432.106762 -232.356606 
L 435.473727 -233.845773 
L 438.53513 -235.334941 
L 441.223 -236.824109 
L 443.499331 -238.313277 
L 445.356252 -239.802445 
L 446.811517 -241.291613 
L 447.901092 -242.780781 
L 448.670896 -244.269949 
L 449.169395 -245.759117 
L 449.441978 -247.248284 
L 449.527427 -248.737452 
L 449.456405 -250.22662 
L 449.251815 -251.715788 
L 448.930836 -253.204956 
L 448.508306 -254.694124 
L 448.000816 -256.183292 
L 447.430595 -257.67246 
L 446.828175 -259.161627 
L 446.233119 -260.650795 
L 445.692587 -262.139963 
L 445.25817 -263.629131 
L 444.981732 -265.118299 
L 444.911043 -266.607467 
L 445.085684 -268.096635 
L 445.533353 -269.585803 
L 446.266545 -271.074971 
L 447.279739 -272.564138 
L 448.547538 -274.053306 
L 450.024567 -275.542474 
L 451.647859 -277.031642 
L 453.342063 -278.52081 
L 455.02703 -280.009978 
L 456.626576 -281.499146 
L 458.076794 -282.988314 
L 459.33232 -284.477481 
L 460.3695 -285.966649 
L 461.186191 -287.455817 
L 461.798694 -288.944985 
L 462.236763 -290.434153 
L 462.537838 -291.923321 
L 462.741446 -293.412489 
L 462.884455 -294.901657 
L 462.997582 -296.390825 
L 463.103298 -297.879992 
L 463.215159 -299.36916 
L 463.338442 -300.858328 
L 463.471859 -302.347496 
L 463.609957 -303.836664 
L 463.745725 -305.325832 
L 463.872855 -306.815 
L 463.987261 -308.304168 
L 464.087612 -309.793336 
L 464.174973 -311.282503 
L 464.251834 -312.771671 
L 464.320969 -314.260839 
L 464.384505 -315.750007 
L 464.443455 -317.239175 
L 464.497738 -318.728343 
L 464.546564 -320.217511 
L 464.588961 -321.706679 
L 464.624232 -323.195846 
L 464.652224 -324.685014 
L 464.673366 -326.174182 
L 464.756634 -326.174182 
L 464.756634 -326.174182 
L 464.777776 -324.685014 
L 464.805768 -323.195846 
L 464.841039 -321.706679 
L 464.883436 -320.217511 
L 464.932262 -318.728343 
L 464.986545 -317.239175 
L 465.045495 -315.750007 
L 465.109031 -314.260839 
L 465.178166 -312.771671 
L 465.255027 -311.282503 
L 465.342388 -309.793336 
L 465.442739 -308.304168 
L 465.557145 -306.815 
L 465.684275 -305.325832 
L 465.820043 -303.836664 
L 465.958141 -302.347496 
L 466.091558 -300.858328 
L 466.214841 -299.36916 
L 466.326702 -297.879992 
L 466.432418 -296.390825 
L 466.545545 -294.901657 
L 466.688554 -293.412489 
L 466.892162 -291.923321 
L 467.193237 -290.434153 
L 467.631306 -288.944985 
L 468.243809 -287.455817 
L 469.0605 -285.966649 
L 470.09768 -284.477481 
L 471.353206 -282.988314 
L 472.803424 -281.499146 
L 474.40297 -280.009978 
L 476.087937 -278.52081 
L 477.782141 -277.031642 
L 479.405433 -275.542474 
L 480.882462 -274.053306 
L 482.150261 -272.564138 
L 483.163455 -271.074971 
L 483.896647 -269.585803 
L 484.344316 -268.096635 
L 484.518957 -266.607467 
L 484.448268 -265.118299 
L 484.17183 -263.629131 
L 483.737413 -262.139963 
L 483.196881 -260.650795 
L 482.601825 -259.161627 
L 481.999405 -257.67246 
L 481.429184 -256.183292 
L 480.921694 -254.694124 
L 480.499164 -253.204956 
L 480.178185 -251.715788 
L 479.973595 -250.22662 
L 479.902573 -248.737452 
L 479.988022 -247.248284 
L 480.260605 -245.759117 
L 480.759104 -244.269949 
L 481.528908 -242.780781 
L 482.618483 -241.291613 
L 484.073748 -239.802445 
L 485.930669 -238.313277 
L 488.207 -236.824109 
L 490.89487 -235.334941 
L 493.956273 -233.845773 
L 497.323238 -232.356606 
L 500.903274 -230.867438 
L 504.589069 -229.37827 
L 508.269842 -227.889102 
L 511.841031 -226.399934 
L 515.209445 -224.910766 
L 518.292601 -223.421598 
L 521.013109 -221.93243 
L 523.29083 -220.443263 
L 525.036492 -218.954095 
L 526.150211 -217.464927 
L 526.527 -215.975759 
L 526.069391 -214.486591 
L 524.705205 -212.997423 
L 522.406751 -211.508255 
L 519.206797 -210.019087 
L 515.206703 -208.529919 
L 510.573461 -207.040752 
L 505.524749 -205.551584 
L 500.30414 -204.062416 
L 495.151326 -202.573248 
L 490.27372 -201.08408 
L 485.825513 -199.594912 
L 481.898101 -198.105744 
L 478.522572 -196.616576 
L 475.681756 -195.127408 
L 473.327246 -193.638241 
L 471.39643 -192.149073 
L 469.825761 -190.659905 
L 468.558489 -189.170737 
L 467.547189 -187.681569 
L 466.752726 -186.192401 
L 466.141714 -184.703233 
L 465.684148 -183.214065 
L 465.352076 -181.724898 
L 465.119409 -180.23573 
L 464.962476 -178.746562 
z
" style="stroke: #595959; stroke-width: 1.25"/>
    </defs>
    <g clip-path="url(#p33ddf2bd3e)">
     <use xlink:href="#m9ed56c1728" x="0" y="432" style="fill: #95a3c3; stroke: #595959; stroke-width: 1.25"/>
    </g>
   </g>
   <g id="FillBetweenPolyCollection_4">
    <defs>
     <path id="me7978ea834" d="M 619.816556 -100.405811 
L 618.673444 -100.405811 
L 618.203096 -100.942122 
L 617.435559 -101.478432 
L 616.248078 -102.014743 
L 614.505244 -102.551053 
L 612.077011 -103.087364 
L 608.862832 -103.623674 
L 604.817448 -104.159985 
L 599.972265 -104.696295 
L 594.446501 -105.232606 
L 588.444646 -105.768916 
L 582.240306 -106.305227 
L 576.14973 -106.841537 
L 570.500046 -107.377848 
L 565.597192 -107.914158 
L 561.697484 -108.450469 
L 558.985575 -108.986779 
L 557.560766 -109.52309 
L 557.433 -110.0594 
L 558.528735 -110.595711 
L 560.705379 -111.132021 
L 563.771393 -111.668332 
L 567.508385 -112.204642 
L 571.691868 -112.740953 
L 576.108452 -113.277263 
L 580.568486 -113.813574 
L 584.913989 -114.349884 
L 589.022078 -114.886195 
L 592.804345 -115.422505 
L 596.203024 -115.958816 
L 599.185294 -116.495126 
L 601.737507 -117.031437 
L 603.861049 -117.567747 
L 605.570836 -118.104058 
L 606.896181 -118.640368 
L 607.882474 -119.176679 
L 608.591402 -119.712989 
L 609.097727 -120.2493 
L 609.482031 -120.78561 
L 609.820668 -121.321921 
L 610.175562 -121.858231 
L 610.586807 -122.394542 
L 611.069956 -122.930852 
L 611.618222 -123.467163 
L 612.208227 -124.003473 
L 612.807282 -124.539784 
L 613.380435 -125.076094 
L 613.89635 -125.612405 
L 614.331737 -126.148715 
L 614.674362 -126.685026 
L 614.924483 -127.221336 
L 615.094449 -127.757647 
L 615.206249 -128.293957 
L 615.287291 -128.830268 
L 615.365204 -129.366578 
L 615.462931 -129.902889 
L 615.595295 -130.439199 
L 615.767745 -130.97551 
L 615.977254 -131.51182 
L 616.214589 -132.048131 
L 616.466944 -132.584441 
L 616.720057 -133.120752 
L 616.959577 -133.657062 
L 617.171987 -134.193373 
L 617.345656 -134.729683 
L 617.472368 -135.265994 
L 617.549128 -135.802304 
L 617.579538 -136.338615 
L 617.573921 -136.874925 
L 617.547713 -137.411236 
L 617.518339 -137.947546 
L 617.501424 -138.483857 
L 617.507481 -139.020167 
L 617.540094 -139.556478 
L 617.596048 -140.092788 
L 617.66725 -140.629099 
L 617.743708 -141.165409 
L 617.816619 -141.70172 
L 617.880634 -142.23803 
L 617.934766 -142.774341 
L 617.981846 -143.310651 
L 618.026917 -143.846962 
L 618.075249 -144.383272 
L 618.130667 -144.919583 
L 618.194708 -145.455893 
L 618.26671 -145.992204 
L 618.344622 -146.528514 
L 618.426058 -147.064825 
L 618.509125 -147.601135 
L 618.592725 -148.137446 
L 618.676314 -148.673756 
L 618.759346 -149.210067 
L 618.840745 -149.746377 
L 618.918693 -150.282688 
L 618.990833 -150.818998 
L 619.054783 -151.355309 
L 619.108724 -151.891619 
L 619.151821 -152.42793 
L 619.18434 -152.96424 
L 619.207474 -153.500551 
L 619.282526 -153.500551 
L 619.282526 -153.500551 
L 619.30566 -152.96424 
L 619.338179 -152.42793 
L 619.381276 -151.891619 
L 619.435217 -151.355309 
L 619.499167 -150.818998 
L 619.571307 -150.282688 
L 619.649255 -149.746377 
L 619.730654 -149.210067 
L 619.813686 -148.673756 
L 619.897275 -148.137446 
L 619.980875 -147.601135 
L 620.063942 -147.064825 
L 620.145378 -146.528514 
L 620.22329 -145.992204 
L 620.295292 -145.455893 
L 620.359333 -144.919583 
L 620.414751 -144.383272 
L 620.463083 -143.846962 
L 620.508154 -143.310651 
L 620.555234 -142.774341 
L 620.609366 -142.23803 
L 620.673381 -141.70172 
L 620.746292 -141.165409 
L 620.82275 -140.629099 
L 620.893952 -140.092788 
L 620.949906 -139.556478 
L 620.982519 -139.020167 
L 620.988576 -138.483857 
L 620.971661 -137.947546 
L 620.942287 -137.411236 
L 620.916079 -136.874925 
L 620.910462 -136.338615 
L 620.940872 -135.802304 
L 621.017632 -135.265994 
L 621.144344 -134.729683 
L 621.318013 -134.193373 
L 621.530423 -133.657062 
L 621.769943 -133.120752 
L 622.023056 -132.584441 
L 622.275411 -132.048131 
L 622.512746 -131.51182 
L 622.722255 -130.97551 
L 622.894705 -130.439199 
L 623.027069 -129.902889 
L 623.124796 -129.366578 
L 623.202709 -128.830268 
L 623.283751 -128.293957 
L 623.395551 -127.757647 
L 623.565517 -127.221336 
L 623.815638 -126.685026 
L 624.158263 -126.148715 
L 624.59365 -125.612405 
L 625.109565 -125.076094 
L 625.682718 -124.539784 
L 626.281773 -124.003473 
L 626.871778 -123.467163 
L 627.420044 -122.930852 
L 627.903193 -122.394542 
L 628.314438 -121.858231 
L 628.669332 -121.321921 
L 629.007969 -120.78561 
L 629.392273 -120.2493 
L 629.898598 -119.712989 
L 630.607526 -119.176679 
L 631.593819 -118.640368 
L 632.919164 -118.104058 
L 634.628951 -117.567747 
L 636.752493 -117.031437 
L 639.304706 -116.495126 
L 642.286976 -115.958816 
L 645.685655 -115.422505 
L 649.467922 -114.886195 
L 653.576011 -114.349884 
L 657.921514 -113.813574 
L 662.381548 -113.277263 
L 666.798132 -112.740953 
L 670.981615 -112.204642 
L 674.718607 -111.668332 
L 677.784621 -111.132021 
L 679.961265 -110.595711 
L 681.057 -110.0594 
L 680.929234 -109.52309 
L 679.504425 -108.986779 
L 676.792516 -108.450469 
L 672.892808 -107.914158 
L 667.989954 -107.377848 
L 662.34027 -106.841537 
L 656.249694 -106.305227 
L 650.045354 -105.768916 
L 644.043499 -105.232606 
L 638.517735 -104.696295 
L 633.672552 -104.159985 
L 629.627168 -103.623674 
L 626.412989 -103.087364 
L 623.984756 -102.551053 
L 622.241922 -102.014743 
L 621.054441 -101.478432 
L 620.286904 -100.942122 
L 619.816556 -100.405811 
z
" style="stroke: #595959; stroke-width: 1.25"/>
    </defs>
    <g clip-path="url(#p33ddf2bd3e)">
     <use xlink:href="#me7978ea834" x="0" y="432" style="fill: #db96c0; stroke: #595959; stroke-width: 1.25"/>
    </g>
   </g>
   <g id="FillBetweenPolyCollection_5">
    <defs>
     <path id="m882290b96b" d="M 773.904465 -97.27232 
L 773.645535 -97.27232 
L 773.56261 -97.680607 
L 773.439845 -98.088895 
L 773.265228 -98.497182 
L 773.025841 -98.90547 
L 772.708269 -99.313757 
L 772.298638 -99.722044 
L 771.782082 -100.130332 
L 771.141647 -100.538619 
L 770.356909 -100.946907 
L 769.402858 -101.355194 
L 768.249723 -101.763482 
L 766.864235 -102.171769 
L 765.212479 -102.580057 
L 763.263878 -102.988344 
L 760.995425 -103.396632 
L 758.395062 -103.804919 
L 755.463416 -104.213207 
L 752.213776 -104.621494 
L 748.671054 -105.029782 
L 744.871102 -105.438069 
L 740.861713 -105.846357 
L 736.705875 -106.254644 
L 732.486507 -106.662932 
L 728.310553 -107.071219 
L 724.309635 -107.479507 
L 720.634838 -107.887794 
L 717.444751 -108.296082 
L 714.888032 -108.704369 
L 713.083768 -109.112657 
L 712.104054 -109.520944 
L 711.963 -109.929232 
L 712.614976 -110.337519 
L 713.962655 -110.745807 
L 715.87311 -111.154094 
L 718.198386 -111.562381 
L 720.796102 -111.970669 
L 723.545839 -112.378956 
L 726.358311 -112.787244 
L 729.176129 -113.195531 
L 731.967103 -113.603819 
L 734.712732 -114.012106 
L 737.395565 -114.420394 
L 739.989062 -114.828681 
L 742.452554 -115.236969 
L 744.732268 -115.645256 
L 746.76762 -116.053544 
L 748.5007 -116.461831 
L 749.886421 -116.870119 
L 750.901064 -117.278406 
L 751.547787 -117.686694 
L 751.858542 -118.094981 
L 751.892483 -118.503269 
L 751.731265 -118.911556 
L 751.471677 -119.319844 
L 751.216141 -119.728131 
L 751.061896 -120.136419 
L 751.090209 -120.544706 
L 751.357432 -120.952994 
L 751.889794 -121.361281 
L 752.683236 -121.769569 
L 753.708366 -122.177856 
L 754.919159 -122.586144 
L 756.26296 -122.994431 
L 757.689078 -123.402719 
L 759.153989 -123.811006 
L 760.622537 -124.219293 
L 762.06598 -124.627581 
L 763.45868 -125.035868 
L 764.775402 -125.444156 
L 765.990565 -125.852443 
L 767.079768 -126.260731 
L 768.022906 -126.669018 
L 768.807646 -127.077306 
L 769.432 -127.485593 
L 769.905192 -127.893881 
L 770.246637 -128.302168 
L 770.483385 -128.710456 
L 770.646624 -129.118743 
L 770.767856 -129.527031 
L 770.875276 -129.935318 
L 770.990799 -130.343606 
L 771.128172 -130.751893 
L 771.292509 -131.160181 
L 771.481389 -131.568468 
L 771.687276 -131.976756 
L 771.900596 -132.385043 
L 772.112596 -132.793331 
L 772.31718 -133.201618 
L 772.511346 -133.609906 
L 772.694395 -134.018193 
L 772.866501 -134.426481 
L 773.027412 -134.834768 
L 773.175789 -135.243056 
L 773.309351 -135.651343 
L 773.425606 -136.05963 
L 773.522726 -136.467918 
L 773.600194 -136.876205 
L 773.658997 -137.284493 
L 773.701392 -137.69278 
L 773.848608 -137.69278 
L 773.848608 -137.69278 
L 773.891003 -137.284493 
L 773.949806 -136.876205 
L 774.027274 -136.467918 
L 774.124394 -136.05963 
L 774.240649 -135.651343 
L 774.374211 -135.243056 
L 774.522588 -134.834768 
L 774.683499 -134.426481 
L 774.855605 -134.018193 
L 775.038654 -133.609906 
L 775.23282 -133.201618 
L 775.437404 -132.793331 
L 775.649404 -132.385043 
L 775.862724 -131.976756 
L 776.068611 -131.568468 
L 776.257491 -131.160181 
L 776.421828 -130.751893 
L 776.559201 -130.343606 
L 776.674724 -129.935318 
L 776.782144 -129.527031 
L 776.903376 -129.118743 
L 777.066615 -128.710456 
L 777.303363 -128.302168 
L 777.644808 -127.893881 
L 778.118 -127.485593 
L 778.742354 -127.077306 
L 779.527094 -126.669018 
L 780.470232 -126.260731 
L 781.559435 -125.852443 
L 782.774598 -125.444156 
L 784.09132 -125.035868 
L 785.48402 -124.627581 
L 786.927463 -124.219293 
L 788.396011 -123.811006 
L 789.860922 -123.402719 
L 791.28704 -122.994431 
L 792.630841 -122.586144 
L 793.841634 -122.177856 
L 794.866764 -121.769569 
L 795.660206 -121.361281 
L 796.192568 -120.952994 
L 796.459791 -120.544706 
L 796.488104 -120.136419 
L 796.333859 -119.728131 
L 796.078323 -119.319844 
L 795.818735 -118.911556 
L 795.657517 -118.503269 
L 795.691458 -118.094981 
L 796.002213 -117.686694 
L 796.648936 -117.278406 
L 797.663579 -116.870119 
L 799.0493 -116.461831 
L 800.78238 -116.053544 
L 802.817732 -115.645256 
L 805.097446 -115.236969 
L 807.560938 -114.828681 
L 810.154435 -114.420394 
L 812.837268 -114.012106 
L 815.582897 -113.603819 
L 818.373871 -113.195531 
L 821.191689 -112.787244 
L 824.004161 -112.378956 
L 826.753898 -111.970669 
L 829.351614 -111.562381 
L 831.67689 -111.154094 
L 833.587345 -110.745807 
L 834.935024 -110.337519 
L 835.587 -109.929232 
L 835.445946 -109.520944 
L 834.466232 -109.112657 
L 832.661968 -108.704369 
L 830.105249 -108.296082 
L 826.915162 -107.887794 
L 823.240365 -107.479507 
L 819.239447 -107.071219 
L 815.063493 -106.662932 
L 810.844125 -106.254644 
L 806.688287 -105.846357 
L 802.678898 -105.438069 
L 798.878946 -105.029782 
L 795.336224 -104.621494 
L 792.086584 -104.213207 
L 789.154938 -103.804919 
L 786.554575 -103.396632 
L 784.286122 -102.988344 
L 782.337521 -102.580057 
L 780.685765 -102.171769 
L 779.300277 -101.763482 
L 778.147142 -101.355194 
L 777.193091 -100.946907 
L 776.408353 -100.538619 
L 775.767918 -100.130332 
L 775.251362 -99.722044 
L 774.841731 -99.313757 
L 774.524159 -98.90547 
L 774.284772 -98.497182 
L 774.110155 -98.088895 
L 773.98739 -97.680607 
L 773.904465 -97.27232 
z
" style="stroke: #595959; stroke-width: 1.25"/>
    </defs>
    <g clip-path="url(#p33ddf2bd3e)">
     <use xlink:href="#m882290b96b" x="0" y="432" style="fill: #a2c865; stroke: #595959; stroke-width: 1.25"/>
    </g>
   </g>
   <g id="line2d_10">
    <path d="M 155.655 323.94542 
L 155.655 331.752292 
" clip-path="url(#p33ddf2bd3e)" style="fill: none; stroke: #000000"/>
   </g>
   <g id="line2d_11">
    <path d="M 155.655 314.304147 
L 155.655 300.86609 
" clip-path="url(#p33ddf2bd3e)" style="fill: none; stroke: #000000"/>
   </g>
   <g id="line2d_12">
    <path d="M 149.860125 331.752292 
L 161.449875 331.752292 
" clip-path="url(#p33ddf2bd3e)" style="fill: none; stroke: #000000; stroke-linecap: round"/>
   </g>
   <g id="line2d_13">
    <path d="M 149.860125 300.86609 
L 161.449875 300.86609 
" clip-path="url(#p33ddf2bd3e)" style="fill: none; stroke: #000000; stroke-linecap: round"/>
   </g>
   <g id="line2d_14">
    <path d="M 310.185 328.339452 
L 310.185 335.165132 
" clip-path="url(#p33ddf2bd3e)" style="fill: none; stroke: #000000"/>
   </g>
   <g id="line2d_15">
    <path d="M 310.185 319.63671 
L 310.185 307.179844 
" clip-path="url(#p33ddf2bd3e)" style="fill: none; stroke: #000000"/>
   </g>
   <g id="line2d_16">
    <path d="M 304.390125 335.165132 
L 315.979875 335.165132 
" clip-path="url(#p33ddf2bd3e)" style="fill: none; stroke: #000000; stroke-linecap: round"/>
   </g>
   <g id="line2d_17">
    <path d="M 304.390125 307.179844 
L 315.979875 307.179844 
" clip-path="url(#p33ddf2bd3e)" style="fill: none; stroke: #000000; stroke-linecap: round"/>
   </g>
   <g id="line2d_18">
    <path d="M 464.715 219.128572 
L 464.715 239.264328 
" clip-path="url(#p33ddf2bd3e)" style="fill: none; stroke: #000000"/>
   </g>
   <g id="line2d_19">
    <path d="M 464.715 186.621271 
L 464.715 139.6094 
" clip-path="url(#p33ddf2bd3e)" style="fill: none; stroke: #000000"/>
   </g>
   <g id="line2d_20">
    <path d="M 458.920125 239.264328 
L 470.509875 239.264328 
" clip-path="url(#p33ddf2bd3e)" style="fill: none; stroke: #000000; stroke-linecap: round"/>
   </g>
   <g id="line2d_21">
    <path d="M 458.920125 139.6094 
L 470.509875 139.6094 
" clip-path="url(#p33ddf2bd3e)" style="fill: none; stroke: #000000; stroke-linecap: round"/>
   </g>
   <g id="line2d_22">
    <path d="M 619.245 323.220192 
L 619.245 327.144958 
" clip-path="url(#p33ddf2bd3e)" style="fill: none; stroke: #000000"/>
   </g>
   <g id="line2d_23">
    <path d="M 619.245 317.418364 
L 619.245 309.227548 
" clip-path="url(#p33ddf2bd3e)" style="fill: none; stroke: #000000"/>
   </g>
   <g id="line2d_24">
    <path d="M 613.450125 327.144958 
L 625.039875 327.144958 
" clip-path="url(#p33ddf2bd3e)" style="fill: none; stroke: #000000; stroke-linecap: round"/>
   </g>
   <g id="line2d_25">
    <path d="M 613.450125 309.227548 
L 625.039875 309.227548 
" clip-path="url(#p33ddf2bd3e)" style="fill: none; stroke: #000000; stroke-linecap: round"/>
   </g>
   <g id="line2d_26">
    <path d="M 773.775 323.390834 
L 773.775 331.069724 
" clip-path="url(#p33ddf2bd3e)" style="fill: none; stroke: #000000"/>
   </g>
   <g id="line2d_27">
    <path d="M 773.775 315.37066 
L 773.775 303.937646 
" clip-path="url(#p33ddf2bd3e)" style="fill: none; stroke: #000000"/>
   </g>
   <g id="line2d_28">
    <path d="M 767.980125 331.069724 
L 779.569875 331.069724 
" clip-path="url(#p33ddf2bd3e)" style="fill: none; stroke: #000000; stroke-linecap: round"/>
   </g>
   <g id="line2d_29">
    <path d="M 767.980125 303.937646 
L 779.569875 303.937646 
" clip-path="url(#p33ddf2bd3e)" style="fill: none; stroke: #000000; stroke-linecap: round"/>
   </g>
   <g id="line2d_30">
    <path d="M 144.06525 320.319278 
L 167.24475 320.319278 
" clip-path="url(#p33ddf2bd3e)" style="fill: none; stroke: #ff0000; stroke-width: 2"/>
   </g>
   <g id="line2d_31">
    <path d="M 298.59525 325.011933 
L 321.77475 325.011933 
" clip-path="url(#p33ddf2bd3e)" style="fill: none; stroke: #ff0000; stroke-width: 2"/>
   </g>
   <g id="line2d_32">
    <path d="M 453.12525 209.060694 
L 476.30475 209.060694 
" clip-path="url(#p33ddf2bd3e)" style="fill: none; stroke: #ff0000; stroke-width: 2"/>
   </g>
   <g id="line2d_33">
    <path d="M 607.65525 321.001846 
L 630.83475 321.001846 
" clip-path="url(#p33ddf2bd3e)" style="fill: none; stroke: #ff0000; stroke-width: 2"/>
   </g>
   <g id="line2d_34">
    <path d="M 762.18525 320.48992 
L 785.36475 320.48992 
" clip-path="url(#p33ddf2bd3e)" style="fill: none; stroke: #ff0000; stroke-width: 2"/>
   </g>
   <g id="patch_3">
    <path d="M 78.39 361.444 
L 78.39 20.16 
" style="fill: none; stroke: #cccccc; stroke-width: 1.25; stroke-linejoin: miter; stroke-linecap: square"/>
   </g>
   <g id="patch_4">
    <path d="M 851.04 361.444 
L 851.04 20.16 
" style="fill: none; stroke: #cccccc; stroke-width: 1.25; stroke-linejoin: miter; stroke-linecap: square"/>
   </g>
   <g id="patch_5">
    <path d="M 78.39 361.444 
L 851.04 361.444 
" style="fill: none; stroke: #cccccc; stroke-width: 1.25; stroke-linejoin: miter; stroke-linecap: square"/>
   </g>
   <g id="patch_6">
    <path d="M 78.39 20.16 
L 851.04 20.16 
" style="fill: none; stroke: #cccccc; stroke-width: 1.25; stroke-linejoin: miter; stroke-linecap: square"/>
   </g>
   <g id="text_16">
    <g id="patch_7">
     <path d="M 646.29 63.116075 
L 821.4075 63.116075 
L 821.4075 28.2242 
L 646.29 28.2242 
z
" style="fill: #ffffff; opacity: 0.8; stroke: #808080; stroke-linejoin: miter"/>
    </g>
    <!-- Signature: ed25519 -->
    <g style="fill: #262626" transform="translate(655.29 50.327638) scale(0.18 -0.18)">
     <defs>
      <path id="ArialMT-53" d="M 288 1472 
L 859 1522 
Q 900 1178 1048 958 
Q 1197 738 1509 602 
Q 1822 466 2213 466 
Q 2559 466 2825 569 
Q 3091 672 3220 851 
Q 3350 1031 3350 1244 
Q 3350 1459 3225 1620 
Q 3100 1781 2813 1891 
Q 2628 1963 1997 2114 
Q 1366 2266 1113 2400 
Q 784 2572 623 2826 
Q 463 3081 463 3397 
Q 463 3744 659 4045 
Q 856 4347 1234 4503 
Q 1613 4659 2075 4659 
Q 2584 4659 2973 4495 
Q 3363 4331 3572 4012 
Q 3781 3694 3797 3291 
L 3216 3247 
Q 3169 3681 2898 3903 
Q 2628 4125 2100 4125 
Q 1550 4125 1298 3923 
Q 1047 3722 1047 3438 
Q 1047 3191 1225 3031 
Q 1400 2872 2139 2705 
Q 2878 2538 3153 2413 
Q 3553 2228 3743 1945 
Q 3934 1663 3934 1294 
Q 3934 928 3725 604 
Q 3516 281 3123 101 
Q 2731 -78 2241 -78 
Q 1619 -78 1198 103 
Q 778 284 539 648 
Q 300 1013 288 1472 
z
" transform="scale(0.015625)"/>
      <path id="ArialMT-67" d="M 319 -275 
L 866 -356 
Q 900 -609 1056 -725 
Q 1266 -881 1628 -881 
Q 2019 -881 2231 -725 
Q 2444 -569 2519 -288 
Q 2563 -116 2559 434 
Q 2191 0 1641 0 
Q 956 0 581 494 
Q 206 988 206 1678 
Q 206 2153 378 2554 
Q 550 2956 876 3175 
Q 1203 3394 1644 3394 
Q 2231 3394 2613 2919 
L 2613 3319 
L 3131 3319 
L 3131 450 
Q 3131 -325 2973 -648 
Q 2816 -972 2473 -1159 
Q 2131 -1347 1631 -1347 
Q 1038 -1347 672 -1080 
Q 306 -813 319 -275 
z
M 784 1719 
Q 784 1066 1043 766 
Q 1303 466 1694 466 
Q 2081 466 2343 764 
Q 2606 1063 2606 1700 
Q 2606 2309 2336 2618 
Q 2066 2928 1684 2928 
Q 1309 2928 1046 2623 
Q 784 2319 784 1719 
z
" transform="scale(0.015625)"/>
      <path id="ArialMT-3a" d="M 578 2678 
L 578 3319 
L 1219 3319 
L 1219 2678 
L 578 2678 
z
M 578 0 
L 578 641 
L 1219 641 
L 1219 0 
L 578 0 
z
" transform="scale(0.015625)"/>
     </defs>
     <use xlink:href="#ArialMT-53"/>
     <use xlink:href="#ArialMT-69" transform="translate(66.699219 0)"/>
     <use xlink:href="#ArialMT-67" transform="translate(88.916016 0)"/>
     <use xlink:href="#ArialMT-6e" transform="translate(144.53125 0)"/>
     <use xlink:href="#ArialMT-61" transform="translate(200.146484 0)"/>
     <use xlink:href="#ArialMT-74" transform="translate(255.761719 0)"/>
     <use xlink:href="#ArialMT-75" transform="translate(283.544922 0)"/>
     <use xlink:href="#ArialMT-72" transform="translate(339.160156 0)"/>
     <use xlink:href="#ArialMT-65" transform="translate(372.460938 0)"/>
     <use xlink:href="#ArialMT-3a" transform="translate(428.076172 0)"/>
     <use xlink:href="#ArialMT-20" transform="translate(455.859375 0)"/>
     <use xlink:href="#ArialMT-65" transform="translate(483.642578 0)"/>
     <use xlink:href="#ArialMT-64" transform="translate(539.257812 0)"/>
     <use xlink:href="#ArialMT-32" transform="translate(594.873047 0)"/>
     <use xlink:href="#ArialMT-35" transform="translate(650.488281 0)"/>
     <use xlink:href="#ArialMT-35" transform="translate(706.103516 0)"/>
     <use xlink:href="#ArialMT-31" transform="translate(761.71875 0)"/>
     <use xlink:href="#ArialMT-39" transform="translate(817.333984 0)"/>
    </g>
   </g>
  </g>
 </g>
 <defs>
  <clipPath id="p33ddf2bd3e">
   <rect x="78.39" y="20.16" width="772.65" height="341.284"/>
  </clipPath>
 </defs>
</svg>
