<?xml version="1.0" encoding="utf-8" standalone="no"?>
<!DOCTYPE svg PUBLIC "-//W3C//DTD SVG 1.1//EN"
  "http://www.w3.org/Graphics/SVG/1.1/DTD/svg11.dtd">
<svg xmlns:xlink="http://www.w3.org/1999/xlink" width="864pt" height="432pt" viewBox="0 0 864 432" xmlns="http://www.w3.org/2000/svg" version="1.1">
 <metadata>
  <rdf:RDF xmlns:dc="http://purl.org/dc/elements/1.1/" xmlns:cc="http://creativecommons.org/ns#" xmlns:rdf="http://www.w3.org/1999/02/22-rdf-syntax-ns#">
   <cc:Work>
    <dc:type rdf:resource="http://purl.org/dc/dcmitype/StillImage"/>
    <dc:date>2025-10-07T07:40:24.992862</dc:date>
    <dc:format>image/svg+xml</dc:format>
    <dc:creator>
     <cc:Agent>
      <dc:title>Matplotlib v3.10.3, https://matplotlib.org/</dc:title>
     </cc:Agent>
    </dc:creator>
   </cc:Work>
  </rdf:RDF>
 </metadata>
 <defs>
  <style type="text/css">*{stroke-linejoin: round; stroke-linecap: butt}</style>
 </defs>
 <g id="figure_1">
  <g id="patch_1">
   <path d="M 0 432 
L 864 432 
L 864 0 
L 0 0 
z
" style="fill: #ffffff"/>
  </g>
  <g id="axes_1">
   <g id="patch_2">
    <path d="M 78.39 361.444 
L 851.04 361.444 
L 851.04 20.16 
L 78.39 20.16 
z
" style="fill: #ffffff"/>
   </g>
   <g id="matplotlib.axis_1">
    <g id="xtick_1">
     <g id="text_1">
      <!-- P-256 -->
      <g style="fill: #262626" transform="translate(123.635625 388.12275) scale(0.24 -0.24)">
       <defs>
        <path id="ArialMT-50" d="M 494 0 
L 494 4581 
L 2222 4581 
Q 2678 4581 2919 4538 
Q 3256 4481 3484 4323 
Q 3713 4166 3852 3881 
Q 3991 3597 3991 3256 
Q 3991 2672 3619 2267 
Q 3247 1863 2275 1863 
L 1100 1863 
L 1100 0 
L 494 0 
z
M 1100 2403 
L 2284 2403 
Q 2872 2403 3119 2622 
Q 3366 2841 3366 3238 
Q 3366 3525 3220 3729 
Q 3075 3934 2838 4000 
Q 2684 4041 2272 4041 
L 1100 4041 
L 1100 2403 
z
" transform="scale(0.015625)"/>
        <path id="ArialMT-2d" d="M 203 1375 
L 203 1941 
L 1931 1941 
L 1931 1375 
L 203 1375 
z
" transform="scale(0.015625)"/>
        <path id="ArialMT-32" d="M 3222 541 
L 3222 0 
L 194 0 
Q 188 203 259 391 
Q 375 700 629 1000 
Q 884 1300 1366 1694 
Q 2113 2306 2375 2664 
Q 2638 3022 2638 3341 
Q 2638 3675 2398 3904 
Q 2159 4134 1775 4134 
Q 1369 4134 1125 3890 
Q 881 3647 878 3216 
L 300 3275 
Q 359 3922 746 4261 
Q 1134 4600 1788 4600 
Q 2447 4600 2831 4234 
Q 3216 3869 3216 3328 
Q 3216 3053 3103 2787 
Q 2991 2522 2730 2228 
Q 2469 1934 1863 1422 
Q 1356 997 1212 845 
Q 1069 694 975 541 
L 3222 541 
z
" transform="scale(0.015625)"/>
        <path id="ArialMT-35" d="M 266 1200 
L 856 1250 
Q 922 819 1161 601 
Q 1400 384 1738 384 
Q 2144 384 2425 690 
Q 2706 997 2706 1503 
Q 2706 1984 2436 2262 
Q 2166 2541 1728 2541 
Q 1456 2541 1237 2417 
Q 1019 2294 894 2097 
L 366 2166 
L 809 4519 
L 3088 4519 
L 3088 3981 
L 1259 3981 
L 1013 2750 
Q 1425 3038 1878 3038 
Q 2478 3038 2890 2622 
Q 3303 2206 3303 1553 
Q 3303 931 2941 478 
Q 2500 -78 1738 -78 
Q 1113 -78 717 272 
Q 322 622 266 1200 
z
" transform="scale(0.015625)"/>
        <path id="ArialMT-36" d="M 3184 3459 
L 2625 3416 
Q 2550 3747 2413 3897 
Q 2184 4138 1850 4138 
Q 1581 4138 1378 3988 
Q 1113 3794 959 3422 
Q 806 3050 800 2363 
Q 1003 2672 1297 2822 
Q 1591 2972 1913 2972 
Q 2475 2972 2870 2558 
Q 3266 2144 3266 1488 
Q 3266 1056 3080 686 
Q 2894 316 2569 119 
Q 2244 -78 1831 -78 
Q 1128 -78 684 439 
Q 241 956 241 2144 
Q 241 3472 731 4075 
Q 1159 4600 1884 4600 
Q 2425 4600 2770 4297 
Q 3116 3994 3184 3459 
z
M 888 1484 
Q 888 1194 1011 928 
Q 1134 663 1356 523 
Q 1578 384 1822 384 
Q 2178 384 2434 671 
Q 2691 959 2691 1453 
Q 2691 1928 2437 2201 
Q 2184 2475 1800 2475 
Q 1419 2475 1153 2201 
Q 888 1928 888 1484 
z
" transform="scale(0.015625)"/>
       </defs>
       <use xlink:href="#ArialMT-50"/>
       <use xlink:href="#ArialMT-2d" transform="translate(66.699219 0)"/>
       <use xlink:href="#ArialMT-32" transform="translate(100 0)"/>
       <use xlink:href="#ArialMT-35" transform="translate(155.615234 0)"/>
       <use xlink:href="#ArialMT-36" transform="translate(211.230469 0)"/>
      </g>
     </g>
    </g>
    <g id="xtick_2">
     <g id="text_2">
      <!-- x25519 -->
      <g style="fill: #262626" transform="translate(270.819375 388.12275) scale(0.24 -0.24)">
       <defs>
        <path id="ArialMT-78" d="M 47 0 
L 1259 1725 
L 138 3319 
L 841 3319 
L 1350 2541 
Q 1494 2319 1581 2169 
Q 1719 2375 1834 2534 
L 2394 3319 
L 3066 3319 
L 1919 1756 
L 3153 0 
L 2463 0 
L 1781 1031 
L 1600 1309 
L 728 0 
L 47 0 
z
" transform="scale(0.015625)"/>
        <path id="ArialMT-31" d="M 2384 0 
L 1822 0 
L 1822 3584 
Q 1619 3391 1289 3197 
Q 959 3003 697 2906 
L 697 3450 
Q 1169 3672 1522 3987 
Q 1875 4303 2022 4600 
L 2384 4600 
L 2384 0 
z
" transform="scale(0.015625)"/>
        <path id="ArialMT-39" d="M 350 1059 
L 891 1109 
Q 959 728 1153 556 
Q 1347 384 1650 384 
Q 1909 384 2104 503 
Q 2300 622 2425 820 
Q 2550 1019 2634 1356 
Q 2719 1694 2719 2044 
Q 2719 2081 2716 2156 
Q 2547 1888 2255 1720 
Q 1963 1553 1622 1553 
Q 1053 1553 659 1965 
Q 266 2378 266 3053 
Q 266 3750 677 4175 
Q 1088 4600 1706 4600 
Q 2153 4600 2523 4359 
Q 2894 4119 3086 3673 
Q 3278 3228 3278 2384 
Q 3278 1506 3087 986 
Q 2897 466 2520 194 
Q 2144 -78 1638 -78 
Q 1100 -78 759 220 
Q 419 519 350 1059 
z
M 2653 3081 
Q 2653 3566 2395 3850 
Q 2138 4134 1775 4134 
Q 1400 4134 1122 3828 
Q 844 3522 844 3034 
Q 844 2597 1108 2323 
Q 1372 2050 1759 2050 
Q 2150 2050 2401 2323 
Q 2653 2597 2653 3081 
z
" transform="scale(0.015625)"/>
       </defs>
       <use xlink:href="#ArialMT-78"/>
       <use xlink:href="#ArialMT-32" transform="translate(50 0)"/>
       <use xlink:href="#ArialMT-35" transform="translate(105.615234 0)"/>
       <use xlink:href="#ArialMT-35" transform="translate(161.230469 0)"/>
       <use xlink:href="#ArialMT-31" transform="translate(216.845703 0)"/>
       <use xlink:href="#ArialMT-39" transform="translate(272.460938 0)"/>
      </g>
     </g>
    </g>
    <g id="xtick_3">
     <g id="text_3">
      <!-- P-256 -->
      <g style="fill: #262626" transform="translate(432.695625 388.12275) scale(0.24 -0.24)">
       <use xlink:href="#ArialMT-50"/>
       <use xlink:href="#ArialMT-2d" transform="translate(66.699219 0)"/>
       <use xlink:href="#ArialMT-32" transform="translate(100 0)"/>
       <use xlink:href="#ArialMT-35" transform="translate(155.615234 0)"/>
       <use xlink:href="#ArialMT-36" transform="translate(211.230469 0)"/>
      </g>
      <!-- mlkem512 -->
      <g style="fill: #262626" transform="translate(409.365 413.50725) scale(0.24 -0.24)">
       <defs>
        <path id="ArialMT-6d" d="M 422 0 
L 422 3319 
L 925 3319 
L 925 2853 
Q 1081 3097 1340 3245 
Q 1600 3394 1931 3394 
Q 2300 3394 2536 3241 
Q 2772 3088 2869 2813 
Q 3263 3394 3894 3394 
Q 4388 3394 4653 3120 
Q 4919 2847 4919 2278 
L 4919 0 
L 4359 0 
L 4359 2091 
Q 4359 2428 4304 2576 
Q 4250 2725 4106 2815 
Q 3963 2906 3769 2906 
Q 3419 2906 3187 2673 
Q 2956 2441 2956 1928 
L 2956 0 
L 2394 0 
L 2394 2156 
Q 2394 2531 2256 2718 
Q 2119 2906 1806 2906 
Q 1569 2906 1367 2781 
Q 1166 2656 1075 2415 
Q 984 2175 984 1722 
L 984 0 
L 422 0 
z
" transform="scale(0.015625)"/>
        <path id="ArialMT-6c" d="M 409 0 
L 409 4581 
L 972 4581 
L 972 0 
L 409 0 
z
" transform="scale(0.015625)"/>
        <path id="ArialMT-6b" d="M 425 0 
L 425 4581 
L 988 4581 
L 988 1969 
L 2319 3319 
L 3047 3319 
L 1778 2088 
L 3175 0 
L 2481 0 
L 1384 1697 
L 988 1316 
L 988 0 
L 425 0 
z
" transform="scale(0.015625)"/>
        <path id="ArialMT-65" d="M 2694 1069 
L 3275 997 
Q 3138 488 2766 206 
Q 2394 -75 1816 -75 
Q 1088 -75 661 373 
Q 234 822 234 1631 
Q 234 2469 665 2931 
Q 1097 3394 1784 3394 
Q 2450 3394 2872 2941 
Q 3294 2488 3294 1666 
Q 3294 1616 3291 1516 
L 816 1516 
Q 847 969 1125 678 
Q 1403 388 1819 388 
Q 2128 388 2347 550 
Q 2566 713 2694 1069 
z
M 847 1978 
L 2700 1978 
Q 2663 2397 2488 2606 
Q 2219 2931 1791 2931 
Q 1403 2931 1139 2672 
Q 875 2413 847 1978 
z
" transform="scale(0.015625)"/>
       </defs>
       <use xlink:href="#ArialMT-6d"/>
       <use xlink:href="#ArialMT-6c" transform="translate(83.300781 0)"/>
       <use xlink:href="#ArialMT-6b" transform="translate(105.517578 0)"/>
       <use xlink:href="#ArialMT-65" transform="translate(155.517578 0)"/>
       <use xlink:href="#ArialMT-6d" transform="translate(211.132812 0)"/>
       <use xlink:href="#ArialMT-35" transform="translate(294.433594 0)"/>
       <use xlink:href="#ArialMT-31" transform="translate(350.048828 0)"/>
       <use xlink:href="#ArialMT-32" transform="translate(405.664062 0)"/>
      </g>
     </g>
    </g>
    <g id="xtick_4">
     <g id="text_4">
      <!-- x25519 -->
      <g style="fill: #262626" transform="translate(579.879375 388.12275) scale(0.24 -0.24)">
       <use xlink:href="#ArialMT-78"/>
       <use xlink:href="#ArialMT-32" transform="translate(50 0)"/>
       <use xlink:href="#ArialMT-35" transform="translate(105.615234 0)"/>
       <use xlink:href="#ArialMT-35" transform="translate(161.230469 0)"/>
       <use xlink:href="#ArialMT-31" transform="translate(216.845703 0)"/>
       <use xlink:href="#ArialMT-39" transform="translate(272.460938 0)"/>
      </g>
      <!-- mlkem512 -->
      <g style="fill: #262626" transform="translate(563.895 413.50725) scale(0.24 -0.24)">
       <use xlink:href="#ArialMT-6d"/>
       <use xlink:href="#ArialMT-6c" transform="translate(83.300781 0)"/>
       <use xlink:href="#ArialMT-6b" transform="translate(105.517578 0)"/>
       <use xlink:href="#ArialMT-65" transform="translate(155.517578 0)"/>
       <use xlink:href="#ArialMT-6d" transform="translate(211.132812 0)"/>
       <use xlink:href="#ArialMT-35" transform="translate(294.433594 0)"/>
       <use xlink:href="#ArialMT-31" transform="translate(350.048828 0)"/>
       <use xlink:href="#ArialMT-32" transform="translate(405.664062 0)"/>
      </g>
     </g>
    </g>
    <g id="xtick_5">
     <g id="text_5">
      <!-- mlkem512 -->
      <g style="fill: #262626" transform="translate(718.425 388.12275) scale(0.24 -0.24)">
       <use xlink:href="#ArialMT-6d"/>
       <use xlink:href="#ArialMT-6c" transform="translate(83.300781 0)"/>
       <use xlink:href="#ArialMT-6b" transform="translate(105.517578 0)"/>
       <use xlink:href="#ArialMT-65" transform="translate(155.517578 0)"/>
       <use xlink:href="#ArialMT-6d" transform="translate(211.132812 0)"/>
       <use xlink:href="#ArialMT-35" transform="translate(294.433594 0)"/>
       <use xlink:href="#ArialMT-31" transform="translate(350.048828 0)"/>
       <use xlink:href="#ArialMT-32" transform="translate(405.664062 0)"/>
      </g>
     </g>
    </g>
   </g>
   <g id="matplotlib.axis_2">
    <g id="ytick_1">
     <g id="line2d_1">
      <path d="M 78.39 361.444 
L 851.04 361.444 
" clip-path="url(#pd459b3b50b)" style="fill: none; stroke: #cccccc; stroke-linecap: round"/>
     </g>
     <g id="text_6">
      <!-- 0.0 -->
      <g style="fill: #262626" transform="translate(41.09 368.601812) scale(0.2 -0.2)">
       <defs>
        <path id="ArialMT-30" d="M 266 2259 
Q 266 3072 433 3567 
Q 600 4063 929 4331 
Q 1259 4600 1759 4600 
Q 2128 4600 2406 4451 
Q 2684 4303 2865 4023 
Q 3047 3744 3150 3342 
Q 3253 2941 3253 2259 
Q 3253 1453 3087 958 
Q 2922 463 2592 192 
Q 2263 -78 1759 -78 
Q 1097 -78 719 397 
Q 266 969 266 2259 
z
M 844 2259 
Q 844 1131 1108 757 
Q 1372 384 1759 384 
Q 2147 384 2411 759 
Q 2675 1134 2675 2259 
Q 2675 3391 2411 3762 
Q 2147 4134 1753 4134 
Q 1366 4134 1134 3806 
Q 844 3388 844 2259 
z
" transform="scale(0.015625)"/>
        <path id="ArialMT-2e" d="M 581 0 
L 581 641 
L 1222 641 
L 1222 0 
L 581 0 
z
" transform="scale(0.015625)"/>
       </defs>
       <use xlink:href="#ArialMT-30"/>
       <use xlink:href="#ArialMT-2e" transform="translate(55.615234 0)"/>
       <use xlink:href="#ArialMT-30" transform="translate(83.398438 0)"/>
      </g>
     </g>
    </g>
    <g id="ytick_2">
     <g id="line2d_2">
      <path d="M 78.39 318.7835 
L 851.04 318.7835 
" clip-path="url(#pd459b3b50b)" style="fill: none; stroke: #cccccc; stroke-linecap: round"/>
     </g>
     <g id="text_7">
      <!-- 2.5 -->
      <g style="fill: #262626" transform="translate(41.09 325.941312) scale(0.2 -0.2)">
       <use xlink:href="#ArialMT-32"/>
       <use xlink:href="#ArialMT-2e" transform="translate(55.615234 0)"/>
       <use xlink:href="#ArialMT-35" transform="translate(83.398438 0)"/>
      </g>
     </g>
    </g>
    <g id="ytick_3">
     <g id="line2d_3">
      <path d="M 78.39 276.123 
L 851.04 276.123 
" clip-path="url(#pd459b3b50b)" style="fill: none; stroke: #cccccc; stroke-linecap: round"/>
     </g>
     <g id="text_8">
      <!-- 5.0 -->
      <g style="fill: #262626" transform="translate(41.09 283.280813) scale(0.2 -0.2)">
       <use xlink:href="#ArialMT-35"/>
       <use xlink:href="#ArialMT-2e" transform="translate(55.615234 0)"/>
       <use xlink:href="#ArialMT-30" transform="translate(83.398438 0)"/>
      </g>
     </g>
    </g>
    <g id="ytick_4">
     <g id="line2d_4">
      <path d="M 78.39 233.4625 
L 851.04 233.4625 
" clip-path="url(#pd459b3b50b)" style="fill: none; stroke: #cccccc; stroke-linecap: round"/>
     </g>
     <g id="text_9">
      <!-- 7.5 -->
      <g style="fill: #262626" transform="translate(41.09 240.620313) scale(0.2 -0.2)">
       <defs>
        <path id="ArialMT-37" d="M 303 3981 
L 303 4522 
L 3269 4522 
L 3269 4084 
Q 2831 3619 2401 2847 
Q 1972 2075 1738 1259 
Q 1569 684 1522 0 
L 944 0 
Q 953 541 1156 1306 
Q 1359 2072 1739 2783 
Q 2119 3494 2547 3981 
L 303 3981 
z
" transform="scale(0.015625)"/>
       </defs>
       <use xlink:href="#ArialMT-37"/>
       <use xlink:href="#ArialMT-2e" transform="translate(55.615234 0)"/>
       <use xlink:href="#ArialMT-35" transform="translate(83.398438 0)"/>
      </g>
     </g>
    </g>
    <g id="ytick_5">
     <g id="line2d_5">
      <path d="M 78.39 190.802 
L 851.04 190.802 
" clip-path="url(#pd459b3b50b)" style="fill: none; stroke: #cccccc; stroke-linecap: round"/>
     </g>
     <g id="text_10">
      <!-- 10.0 -->
      <g style="fill: #262626" transform="translate(29.968125 197.959813) scale(0.2 -0.2)">
       <use xlink:href="#ArialMT-31"/>
       <use xlink:href="#ArialMT-30" transform="translate(55.615234 0)"/>
       <use xlink:href="#ArialMT-2e" transform="translate(111.230469 0)"/>
       <use xlink:href="#ArialMT-30" transform="translate(139.013672 0)"/>
      </g>
     </g>
    </g>
    <g id="ytick_6">
     <g id="line2d_6">
      <path d="M 78.39 148.1415 
L 851.04 148.1415 
" clip-path="url(#pd459b3b50b)" style="fill: none; stroke: #cccccc; stroke-linecap: round"/>
     </g>
     <g id="text_11">
      <!-- 12.5 -->
      <g style="fill: #262626" transform="translate(29.968125 155.299312) scale(0.2 -0.2)">
       <use xlink:href="#ArialMT-31"/>
       <use xlink:href="#ArialMT-32" transform="translate(55.615234 0)"/>
       <use xlink:href="#ArialMT-2e" transform="translate(111.230469 0)"/>
       <use xlink:href="#ArialMT-35" transform="translate(139.013672 0)"/>
      </g>
     </g>
    </g>
    <g id="ytick_7">
     <g id="line2d_7">
      <path d="M 78.39 105.481 
L 851.04 105.481 
" clip-path="url(#pd459b3b50b)" style="fill: none; stroke: #cccccc; stroke-linecap: round"/>
     </g>
     <g id="text_12">
      <!-- 15.0 -->
      <g style="fill: #262626" transform="translate(29.968125 112.638813) scale(0.2 -0.2)">
       <use xlink:href="#ArialMT-31"/>
       <use xlink:href="#ArialMT-35" transform="translate(55.615234 0)"/>
       <use xlink:href="#ArialMT-2e" transform="translate(111.230469 0)"/>
       <use xlink:href="#ArialMT-30" transform="translate(139.013672 0)"/>
      </g>
     </g>
    </g>
    <g id="ytick_8">
     <g id="line2d_8">
      <path d="M 78.39 62.8205 
L 851.04 62.8205 
" clip-path="url(#pd459b3b50b)" style="fill: none; stroke: #cccccc; stroke-linecap: round"/>
     </g>
     <g id="text_13">
      <!-- 17.5 -->
      <g style="fill: #262626" transform="translate(29.968125 69.978313) scale(0.2 -0.2)">
       <use xlink:href="#ArialMT-31"/>
       <use xlink:href="#ArialMT-37" transform="translate(55.615234 0)"/>
       <use xlink:href="#ArialMT-2e" transform="translate(111.230469 0)"/>
       <use xlink:href="#ArialMT-35" transform="translate(139.013672 0)"/>
      </g>
     </g>
    </g>
    <g id="ytick_9">
     <g id="line2d_9">
      <path d="M 78.39 20.16 
L 851.04 20.16 
" clip-path="url(#pd459b3b50b)" style="fill: none; stroke: #cccccc; stroke-linecap: round"/>
     </g>
     <g id="text_14">
      <!-- 20.0 -->
      <g style="fill: #262626" transform="translate(29.968125 27.317813) scale(0.2 -0.2)">
       <use xlink:href="#ArialMT-32"/>
       <use xlink:href="#ArialMT-30" transform="translate(55.615234 0)"/>
       <use xlink:href="#ArialMT-2e" transform="translate(111.230469 0)"/>
       <use xlink:href="#ArialMT-30" transform="translate(139.013672 0)"/>
      </g>
     </g>
    </g>
    <g id="text_15">
     <!-- Handshake duration (ms) -->
     <g style="fill: #262626" transform="translate(23.021563 269.389031) rotate(-90) scale(0.14 -0.14)">
      <defs>
       <path id="ArialMT-48" d="M 513 0 
L 513 4581 
L 1119 4581 
L 1119 2700 
L 3500 2700 
L 3500 4581 
L 4106 4581 
L 4106 0 
L 3500 0 
L 3500 2159 
L 1119 2159 
L 1119 0 
L 513 0 
z
" transform="scale(0.015625)"/>
       <path id="ArialMT-61" d="M 2588 409 
Q 2275 144 1986 34 
Q 1697 -75 1366 -75 
Q 819 -75 525 192 
Q 231 459 231 875 
Q 231 1119 342 1320 
Q 453 1522 633 1644 
Q 813 1766 1038 1828 
Q 1203 1872 1538 1913 
Q 2219 1994 2541 2106 
Q 2544 2222 2544 2253 
Q 2544 2597 2384 2738 
Q 2169 2928 1744 2928 
Q 1347 2928 1158 2789 
Q 969 2650 878 2297 
L 328 2372 
Q 403 2725 575 2942 
Q 747 3159 1072 3276 
Q 1397 3394 1825 3394 
Q 2250 3394 2515 3294 
Q 2781 3194 2906 3042 
Q 3031 2891 3081 2659 
Q 3109 2516 3109 2141 
L 3109 1391 
Q 3109 606 3145 398 
Q 3181 191 3288 0 
L 2700 0 
Q 2613 175 2588 409 
z
M 2541 1666 
Q 2234 1541 1622 1453 
Q 1275 1403 1131 1340 
Q 988 1278 909 1158 
Q 831 1038 831 891 
Q 831 666 1001 516 
Q 1172 366 1500 366 
Q 1825 366 2078 508 
Q 2331 650 2450 897 
Q 2541 1088 2541 1459 
L 2541 1666 
z
" transform="scale(0.015625)"/>
       <path id="ArialMT-6e" d="M 422 0 
L 422 3319 
L 928 3319 
L 928 2847 
Q 1294 3394 1984 3394 
Q 2284 3394 2536 3286 
Q 2788 3178 2913 3003 
Q 3038 2828 3088 2588 
Q 3119 2431 3119 2041 
L 3119 0 
L 2556 0 
L 2556 2019 
Q 2556 2363 2490 2533 
Q 2425 2703 2258 2804 
Q 2091 2906 1866 2906 
Q 1506 2906 1245 2678 
Q 984 2450 984 1813 
L 984 0 
L 422 0 
z
" transform="scale(0.015625)"/>
       <path id="ArialMT-64" d="M 2575 0 
L 2575 419 
Q 2259 -75 1647 -75 
Q 1250 -75 917 144 
Q 584 363 401 755 
Q 219 1147 219 1656 
Q 219 2153 384 2558 
Q 550 2963 881 3178 
Q 1213 3394 1622 3394 
Q 1922 3394 2156 3267 
Q 2391 3141 2538 2938 
L 2538 4581 
L 3097 4581 
L 3097 0 
L 2575 0 
z
M 797 1656 
Q 797 1019 1065 703 
Q 1334 388 1700 388 
Q 2069 388 2326 689 
Q 2584 991 2584 1609 
Q 2584 2291 2321 2609 
Q 2059 2928 1675 2928 
Q 1300 2928 1048 2622 
Q 797 2316 797 1656 
z
" transform="scale(0.015625)"/>
       <path id="ArialMT-73" d="M 197 991 
L 753 1078 
Q 800 744 1014 566 
Q 1228 388 1613 388 
Q 2000 388 2187 545 
Q 2375 703 2375 916 
Q 2375 1106 2209 1216 
Q 2094 1291 1634 1406 
Q 1016 1563 777 1677 
Q 538 1791 414 1992 
Q 291 2194 291 2438 
Q 291 2659 392 2848 
Q 494 3038 669 3163 
Q 800 3259 1026 3326 
Q 1253 3394 1513 3394 
Q 1903 3394 2198 3281 
Q 2494 3169 2634 2976 
Q 2775 2784 2828 2463 
L 2278 2388 
Q 2241 2644 2061 2787 
Q 1881 2931 1553 2931 
Q 1166 2931 1000 2803 
Q 834 2675 834 2503 
Q 834 2394 903 2306 
Q 972 2216 1119 2156 
Q 1203 2125 1616 2013 
Q 2213 1853 2448 1751 
Q 2684 1650 2818 1456 
Q 2953 1263 2953 975 
Q 2953 694 2789 445 
Q 2625 197 2315 61 
Q 2006 -75 1616 -75 
Q 969 -75 630 194 
Q 291 463 197 991 
z
" transform="scale(0.015625)"/>
       <path id="ArialMT-68" d="M 422 0 
L 422 4581 
L 984 4581 
L 984 2938 
Q 1378 3394 1978 3394 
Q 2347 3394 2619 3248 
Q 2891 3103 3008 2847 
Q 3125 2591 3125 2103 
L 3125 0 
L 2563 0 
L 2563 2103 
Q 2563 2525 2380 2717 
Q 2197 2909 1863 2909 
Q 1613 2909 1392 2779 
Q 1172 2650 1078 2428 
Q 984 2206 984 1816 
L 984 0 
L 422 0 
z
" transform="scale(0.015625)"/>
       <path id="ArialMT-20" transform="scale(0.015625)"/>
       <path id="ArialMT-75" d="M 2597 0 
L 2597 488 
Q 2209 -75 1544 -75 
Q 1250 -75 995 37 
Q 741 150 617 320 
Q 494 491 444 738 
Q 409 903 409 1263 
L 409 3319 
L 972 3319 
L 972 1478 
Q 972 1038 1006 884 
Q 1059 663 1231 536 
Q 1403 409 1656 409 
Q 1909 409 2131 539 
Q 2353 669 2445 892 
Q 2538 1116 2538 1541 
L 2538 3319 
L 3100 3319 
L 3100 0 
L 2597 0 
z
" transform="scale(0.015625)"/>
       <path id="ArialMT-72" d="M 416 0 
L 416 3319 
L 922 3319 
L 922 2816 
Q 1116 3169 1280 3281 
Q 1444 3394 1641 3394 
Q 1925 3394 2219 3213 
L 2025 2691 
Q 1819 2813 1613 2813 
Q 1428 2813 1281 2702 
Q 1134 2591 1072 2394 
Q 978 2094 978 1738 
L 978 0 
L 416 0 
z
" transform="scale(0.015625)"/>
       <path id="ArialMT-74" d="M 1650 503 
L 1731 6 
Q 1494 -44 1306 -44 
Q 1000 -44 831 53 
Q 663 150 594 308 
Q 525 466 525 972 
L 525 2881 
L 113 2881 
L 113 3319 
L 525 3319 
L 525 4141 
L 1084 4478 
L 1084 3319 
L 1650 3319 
L 1650 2881 
L 1084 2881 
L 1084 941 
Q 1084 700 1114 631 
Q 1144 563 1211 522 
Q 1278 481 1403 481 
Q 1497 481 1650 503 
z
" transform="scale(0.015625)"/>
       <path id="ArialMT-69" d="M 425 3934 
L 425 4581 
L 988 4581 
L 988 3934 
L 425 3934 
z
M 425 0 
L 425 3319 
L 988 3319 
L 988 0 
L 425 0 
z
" transform="scale(0.015625)"/>
       <path id="ArialMT-6f" d="M 213 1659 
Q 213 2581 725 3025 
Q 1153 3394 1769 3394 
Q 2453 3394 2887 2945 
Q 3322 2497 3322 1706 
Q 3322 1066 3130 698 
Q 2938 331 2570 128 
Q 2203 -75 1769 -75 
Q 1072 -75 642 372 
Q 213 819 213 1659 
z
M 791 1659 
Q 791 1022 1069 705 
Q 1347 388 1769 388 
Q 2188 388 2466 706 
Q 2744 1025 2744 1678 
Q 2744 2294 2464 2611 
Q 2184 2928 1769 2928 
Q 1347 2928 1069 2612 
Q 791 2297 791 1659 
z
" transform="scale(0.015625)"/>
       <path id="ArialMT-28" d="M 1497 -1347 
Q 1031 -759 709 28 
Q 388 816 388 1659 
Q 388 2403 628 3084 
Q 909 3875 1497 4659 
L 1900 4659 
Q 1522 4009 1400 3731 
Q 1209 3300 1100 2831 
Q 966 2247 966 1656 
Q 966 153 1900 -1347 
L 1497 -1347 
z
" transform="scale(0.015625)"/>
       <path id="ArialMT-29" d="M 791 -1347 
L 388 -1347 
Q 1322 153 1322 1656 
Q 1322 2244 1188 2822 
Q 1081 3291 891 3722 
Q 769 4003 388 4659 
L 791 4659 
Q 1378 3875 1659 3084 
Q 1900 2403 1900 1659 
Q 1900 816 1576 28 
Q 1253 -759 791 -1347 
z
" transform="scale(0.015625)"/>
      </defs>
      <use xlink:href="#ArialMT-48"/>
      <use xlink:href="#ArialMT-61" transform="translate(72.216797 0)"/>
      <use xlink:href="#ArialMT-6e" transform="translate(127.832031 0)"/>
      <use xlink:href="#ArialMT-64" transform="translate(183.447266 0)"/>
      <use xlink:href="#ArialMT-73" transform="translate(239.0625 0)"/>
      <use xlink:href="#ArialMT-68" transform="translate(289.0625 0)"/>
      <use xlink:href="#ArialMT-61" transform="translate(344.677734 0)"/>
      <use xlink:href="#ArialMT-6b" transform="translate(400.292969 0)"/>
      <use xlink:href="#ArialMT-65" transform="translate(450.292969 0)"/>
      <use xlink:href="#ArialMT-20" transform="translate(505.908203 0)"/>
      <use xlink:href="#ArialMT-64" transform="translate(533.691406 0)"/>
      <use xlink:href="#ArialMT-75" transform="translate(589.306641 0)"/>
      <use xlink:href="#ArialMT-72" transform="translate(644.921875 0)"/>
      <use xlink:href="#ArialMT-61" transform="translate(678.222656 0)"/>
      <use xlink:href="#ArialMT-74" transform="translate(733.837891 0)"/>
      <use xlink:href="#ArialMT-69" transform="translate(761.621094 0)"/>
      <use xlink:href="#ArialMT-6f" transform="translate(783.837891 0)"/>
      <use xlink:href="#ArialMT-6e" transform="translate(839.453125 0)"/>
      <use xlink:href="#ArialMT-20" transform="translate(895.068359 0)"/>
      <use xlink:href="#ArialMT-28" transform="translate(922.851562 0)"/>
      <use xlink:href="#ArialMT-6d" transform="translate(956.152344 0)"/>
      <use xlink:href="#ArialMT-73" transform="translate(1039.453125 0)"/>
      <use xlink:href="#ArialMT-29" transform="translate(1089.453125 0)"/>
     </g>
    </g>
   </g>
   <g id="FillBetweenPolyCollection_1">
    <defs>
     <path id="m6dcabfff6d" d="M 155.904058 -104.870544 
L 155.405942 -104.870544 
L 155.198449 -105.325276 
L 154.856265 -105.780008 
L 154.319487 -106.23474 
L 153.51741 -106.689473 
L 152.373777 -107.144205 
L 150.814434 -107.598937 
L 148.775955 -108.053669 
L 146.21332 -108.508401 
L 143.10504 -108.963133 
L 139.455284 -109.417866 
L 135.294119 -109.872598 
L 130.67799 -110.32733 
L 125.692373 -110.782062 
L 120.456809 -111.236794 
L 115.130208 -111.691526 
L 109.912462 -112.146259 
L 105.038458 -112.600991 
L 100.762625 -113.055723 
L 97.335344 -113.510455 
L 94.975309 -113.965187 
L 93.843 -114.419919 
L 94.019646 -114.874652 
L 95.49437 -115.329384 
L 98.160665 -115.784116 
L 101.822588 -116.238848 
L 106.210696 -116.69358 
L 111.00699 -117.148312 
L 115.876708 -117.603045 
L 120.503066 -118.057777 
L 124.619954 -118.512509 
L 128.0377 -118.967241 
L 130.658373 -119.421973 
L 132.478829 -119.876705 
L 133.581299 -120.331437 
L 134.112737 -120.78617 
L 134.255736 -121.240902 
L 134.195769 -121.695634 
L 134.091245 -122.150366 
L 134.053091 -122.605098 
L 134.138441 -123.05983 
L 134.358719 -123.514563 
L 134.697646 -123.969295 
L 135.131645 -124.424027 
L 135.645132 -124.878759 
L 136.236332 -125.333491 
L 136.913688 -125.788223 
L 137.68681 -126.242956 
L 138.557448 -126.697688 
L 139.514952 -127.15242 
L 140.537878 -127.607152 
L 141.600268 -128.061884 
L 142.679056 -128.516616 
L 143.758812 -128.971349 
L 144.831563 -129.426081 
L 145.891947 -129.880813 
L 146.930249 -130.335545 
L 147.927018 -130.790277 
L 148.852336 -131.245009 
L 149.670841 -131.699742 
L 150.351075 -132.154474 
L 150.875818 -132.609206 
L 151.249521 -133.063938 
L 151.499937 -133.51867 
L 151.673139 -133.973402 
L 151.823369 -134.428135 
L 152.000826 -134.882867 
L 152.24098 -135.337599 
L 152.558273 -135.792331 
L 152.945514 -136.247063 
L 153.378475 -136.701795 
L 153.823758 -137.156527 
L 154.247389 -137.61126 
L 154.621787 -138.065992 
L 154.929691 -138.520724 
L 155.164776 -138.975456 
L 155.329706 -139.430188 
L 155.432907 -139.88492 
L 155.485361 -140.339653 
L 155.498276 -140.794385 
L 155.481922 -141.249117 
L 155.445395 -141.703849 
L 155.396806 -142.158581 
L 155.34345 -142.613313 
L 155.291719 -143.068046 
L 155.246834 -143.522778 
L 155.212616 -143.97751 
L 155.191482 -144.432242 
L 155.184682 -144.886974 
L 155.192586 -145.341706 
L 155.214828 -145.796439 
L 155.250196 -146.251171 
L 155.296428 -146.705903 
L 155.350131 -147.160635 
L 155.407056 -147.615367 
L 155.462722 -148.070099 
L 155.5132 -148.524832 
L 155.555771 -148.979564 
L 155.589223 -149.434296 
L 155.613751 -149.889028 
L 155.696249 -149.889028 
L 155.696249 -149.889028 
L 155.720777 -149.434296 
L 155.754229 -148.979564 
L 155.7968 -148.524832 
L 155.847278 -148.070099 
L 155.902944 -147.615367 
L 155.959869 -147.160635 
L 156.013572 -146.705903 
L 156.059804 -146.251171 
L 156.095172 -145.796439 
L 156.117414 -145.341706 
L 156.125318 -144.886974 
L 156.118518 -144.432242 
L 156.097384 -143.97751 
L 156.063166 -143.522778 
L 156.018281 -143.068046 
L 155.96655 -142.613313 
L 155.913194 -142.158581 
L 155.864605 -141.703849 
L 155.828078 -141.249117 
L 155.811724 -140.794385 
L 155.824639 -140.339653 
L 155.877093 -139.88492 
L 155.980294 -139.430188 
L 156.145224 -138.975456 
L 156.380309 -138.520724 
L 156.688213 -138.065992 
L 157.062611 -137.61126 
L 157.486242 -137.156527 
L 157.931525 -136.701795 
L 158.364486 -136.247063 
L 158.751727 -135.792331 
L 159.06902 -135.337599 
L 159.309174 -134.882867 
L 159.486631 -134.428135 
L 159.636861 -133.973402 
L 159.810063 -133.51867 
L 160.060479 -133.063938 
L 160.434182 -132.609206 
L 160.958925 -132.154474 
L 161.639159 -131.699742 
L 162.457664 -131.245009 
L 163.382982 -130.790277 
L 164.379751 -130.335545 
L 165.418053 -129.880813 
L 166.478437 -129.426081 
L 167.551188 -128.971349 
L 168.630944 -128.516616 
L 169.709732 -128.061884 
L 170.772122 -127.607152 
L 171.795048 -127.15242 
L 172.752552 -126.697688 
L 173.62319 -126.242956 
L 174.396312 -125.788223 
L 175.073668 -125.333491 
L 175.664868 -124.878759 
L 176.178355 -124.424027 
L 176.612354 -123.969295 
L 176.951281 -123.514563 
L 177.171559 -123.05983 
L 177.256909 -122.605098 
L 177.218755 -122.150366 
L 177.114231 -121.695634 
L 177.054264 -121.240902 
L 177.197263 -120.78617 
L 177.728701 -120.331437 
L 178.831171 -119.876705 
L 180.651627 -119.421973 
L 183.2723 -118.967241 
L 186.690046 -118.512509 
L 190.806934 -118.057777 
L 195.433292 -117.603045 
L 200.30301 -117.148312 
L 205.099304 -116.69358 
L 209.487412 -116.238848 
L 213.149335 -115.784116 
L 215.81563 -115.329384 
L 217.290354 -114.874652 
L 217.467 -114.419919 
L 216.334691 -113.965187 
L 213.974656 -113.510455 
L 210.547375 -113.055723 
L 206.271542 -112.600991 
L 201.397538 -112.146259 
L 196.179792 -111.691526 
L 190.853191 -111.236794 
L 185.617627 -110.782062 
L 180.63201 -110.32733 
L 176.015881 -109.872598 
L 171.854716 -109.417866 
L 168.20496 -108.963133 
L 165.09668 -108.508401 
L 162.534045 -108.053669 
L 160.495566 -107.598937 
L 158.936223 -107.144205 
L 157.79259 -106.689473 
L 156.990513 -106.23474 
L 156.453735 -105.780008 
L 156.111551 -105.325276 
L 155.904058 -104.870544 
z
" style="stroke: #595959; stroke-width: 1.25"/>
    </defs>
    <g clip-path="url(#pd459b3b50b)">
     <use xlink:href="#m6dcabfff6d" x="0" y="432" style="fill: #72b6a1; stroke: #595959; stroke-width: 1.25"/>
    </g>
   </g>
   <g id="FillBetweenPolyCollection_2">
    <defs>
     <path id="m89e3457b32" d="M 310.577217 -100.872516 
L 309.792783 -100.872516 
L 309.525447 -101.196007 
L 309.11648 -101.519498 
L 308.515126 -101.842988 
L 307.664031 -102.166479 
L 306.50286 -102.489969 
L 304.973114 -102.81346 
L 303.023562 -103.136951 
L 300.615574 -103.460441 
L 297.727738 -103.783932 
L 294.359437 -104.107423 
L 290.533436 -104.430913 
L 286.297713 -104.754404 
L 281.726787 -105.077895 
L 276.922438 -105.401385 
L 272.013258 -105.724876 
L 267.152088 -106.048367 
L 262.510346 -106.371857 
L 258.268735 -106.695348 
L 254.604677 -107.018838 
L 251.677873 -107.342329 
L 249.616097 -107.66582 
L 248.503484 -107.98931 
L 248.373 -108.312801 
L 249.203805 -108.636292 
L 250.923262 -108.959782 
L 253.412824 -109.283273 
L 256.517038 -109.606764 
L 260.055188 -109.930254 
L 263.83522 -110.253745 
L 267.669244 -110.577236 
L 271.389112 -110.900726 
L 274.859817 -111.224217 
L 277.98817 -111.547707 
L 280.724943 -111.871198 
L 283.060119 -112.194689 
L 285.012786 -112.518179 
L 286.61869 -112.84167 
L 287.918987 -113.165161 
L 288.953035 -113.488651 
L 289.756427 -113.812142 
L 290.363488 -114.135633 
L 290.811905 -114.459123 
L 291.146617 -114.782614 
L 291.42068 -115.106104 
L 291.692211 -115.429595 
L 292.018041 -115.753086 
L 292.445869 -116.076576 
L 293.007015 -116.400067 
L 293.711576 -116.723558 
L 294.547018 -117.047048 
L 295.480471 -117.370539 
L 296.464318 -117.69403 
L 297.444187 -118.01752 
L 298.368045 -118.341011 
L 299.194822 -118.664502 
L 299.900909 -118.987992 
L 300.48317 -119.311483 
L 300.957784 -119.634973 
L 301.355208 -119.958464 
L 301.71251 -120.281955 
L 302.065015 -120.605445 
L 302.439278 -120.928936 
L 302.84895 -121.252427 
L 303.2942 -121.575917 
L 303.764314 -121.899408 
L 304.242308 -122.222899 
L 304.710008 -122.546389 
L 305.15219 -122.86988 
L 305.558964 -123.19337 
L 305.926258 -123.516861 
L 306.254862 -123.840352 
L 306.548793 -124.163842 
L 306.813646 -124.487333 
L 307.055322 -124.810824 
L 307.279214 -125.134314 
L 307.489707 -125.457805 
L 307.689872 -125.781296 
L 307.881295 -126.104786 
L 308.064123 -126.428277 
L 308.237378 -126.751768 
L 308.399543 -127.075258 
L 308.549287 -127.398749 
L 308.686126 -127.722239 
L 308.810838 -128.04573 
L 308.92551 -128.369221 
L 309.033214 -128.692711 
L 309.137395 -129.016202 
L 309.241129 -129.339693 
L 309.346429 -129.663183 
L 309.453762 -129.986674 
L 309.561929 -130.310165 
L 309.668316 -130.633655 
L 309.769478 -130.957146 
L 309.861894 -131.280637 
L 309.942674 -131.604127 
L 310.010067 -131.927618 
L 310.063649 -132.251108 
L 310.104215 -132.574599 
L 310.133446 -132.89809 
L 310.236554 -132.89809 
L 310.236554 -132.89809 
L 310.265785 -132.574599 
L 310.306351 -132.251108 
L 310.359933 -131.927618 
L 310.427326 -131.604127 
L 310.508106 -131.280637 
L 310.600522 -130.957146 
L 310.701684 -130.633655 
L 310.808071 -130.310165 
L 310.916238 -129.986674 
L 311.023571 -129.663183 
L 311.128871 -129.339693 
L 311.232605 -129.016202 
L 311.336786 -128.692711 
L 311.44449 -128.369221 
L 311.559162 -128.04573 
L 311.683874 -127.722239 
L 311.820713 -127.398749 
L 311.970457 -127.075258 
L 312.132622 -126.751768 
L 312.305877 -126.428277 
L 312.488705 -126.104786 
L 312.680128 -125.781296 
L 312.880293 -125.457805 
L 313.090786 -125.134314 
L 313.314678 -124.810824 
L 313.556354 -124.487333 
L 313.821207 -124.163842 
L 314.115138 -123.840352 
L 314.443742 -123.516861 
L 314.811036 -123.19337 
L 315.21781 -122.86988 
L 315.659992 -122.546389 
L 316.127692 -122.222899 
L 316.605686 -121.899408 
L 317.0758 -121.575917 
L 317.52105 -121.252427 
L 317.930722 -120.928936 
L 318.304985 -120.605445 
L 318.65749 -120.281955 
L 319.014792 -119.958464 
L 319.412216 -119.634973 
L 319.88683 -119.311483 
L 320.469091 -118.987992 
L 321.175178 -118.664502 
L 322.001955 -118.341011 
L 322.925813 -118.01752 
L 323.905682 -117.69403 
L 324.889529 -117.370539 
L 325.822982 -117.047048 
L 326.658424 -116.723558 
L 327.362985 -116.400067 
L 327.924131 -116.076576 
L 328.351959 -115.753086 
L 328.677789 -115.429595 
L 328.94932 -115.106104 
L 329.223383 -114.782614 
L 329.558095 -114.459123 
L 330.006512 -114.135633 
L 330.613573 -113.812142 
L 331.416965 -113.488651 
L 332.451013 -113.165161 
L 333.75131 -112.84167 
L 335.357214 -112.518179 
L 337.309881 -112.194689 
L 339.645057 -111.871198 
L 342.38183 -111.547707 
L 345.510183 -111.224217 
L 348.980888 -110.900726 
L 352.700756 -110.577236 
L 356.53478 -110.253745 
L 360.314812 -109.930254 
L 363.852962 -109.606764 
L 366.957176 -109.283273 
L 369.446738 -108.959782 
L 371.166195 -108.636292 
L 371.997 -108.312801 
L 371.866516 -107.98931 
L 370.753903 -107.66582 
L 368.692127 -107.342329 
L 365.765323 -107.018838 
L 362.101265 -106.695348 
L 357.859654 -106.371857 
L 353.217912 -106.048367 
L 348.356742 -105.724876 
L 343.447562 -105.401385 
L 338.643213 -105.077895 
L 334.072287 -104.754404 
L 329.836564 -104.430913 
L 326.010563 -104.107423 
L 322.642262 -103.783932 
L 319.754426 -103.460441 
L 317.346438 -103.136951 
L 315.396886 -102.81346 
L 313.86714 -102.489969 
L 312.705969 -102.166479 
L 311.854874 -101.842988 
L 311.25352 -101.519498 
L 310.844553 -101.196007 
L 310.577217 -100.872516 
z
" style="stroke: #595959; stroke-width: 1.25"/>
    </defs>
    <g clip-path="url(#pd459b3b50b)">
     <use xlink:href="#m89e3457b32" x="0" y="432" style="fill: #e99675; stroke: #595959; stroke-width: 1.25"/>
    </g>
   </g>
   <g id="FillBetweenPolyCollection_3">
    <defs>
     <path id="me779486ac9" d="M 465.895316 -222.192309 
L 463.534684 -222.192309 
L 462.868958 -223.996555 
L 461.905528 -225.800802 
L 460.554211 -227.605048 
L 458.718138 -229.409294 
L 456.30295 -231.213541 
L 453.229662 -233.017787 
L 449.4503 -234.822033 
L 444.964463 -236.62628 
L 439.834132 -238.430526 
L 434.193472 -240.234773 
L 428.25054 -242.039019 
L 422.278638 -243.843265 
L 416.596681 -245.647512 
L 411.540014 -247.451758 
L 407.425244 -249.256004 
L 404.514287 -251.060251 
L 402.983469 -252.864497 
L 402.903 -254.668743 
L 404.230366 -256.47299 
L 406.818656 -258.277236 
L 410.438086 -260.081483 
L 414.806621 -261.885729 
L 419.624264 -263.689975 
L 424.605376 -265.494222 
L 429.504405 -267.298468 
L 434.132165 -269.102714 
L 438.361915 -270.906961 
L 442.126346 -272.711207 
L 445.407949 -274.515454 
L 448.225767 -276.3197 
L 450.621455 -278.123946 
L 452.646889 -279.928193 
L 454.354706 -281.732439 
L 455.792213 -283.536685 
L 456.998417 -285.340932 
L 458.00345 -287.145178 
L 458.829539 -288.949424 
L 459.492685 -290.753671 
L 460.004494 -292.557917 
L 460.373781 -294.362164 
L 460.607882 -296.16641 
L 460.713686 -297.970656 
L 460.698503 -299.774903 
L 460.570864 -301.579149 
L 460.341233 -303.383395 
L 460.022575 -305.187642 
L 459.630644 -306.991888 
L 459.183835 -308.796134 
L 458.70252 -310.600381 
L 458.207872 -312.404627 
L 457.720285 -314.208874 
L 457.257619 -316.01312 
L 456.833562 -317.817366 
L 456.456414 -319.621613 
L 456.128556 -321.425859 
L 455.84677 -323.230105 
L 455.603446 -325.034352 
L 455.388562 -326.838598 
L 455.192156 -328.642844 
L 455.006922 -330.447091 
L 454.830465 -332.251337 
L 454.666773 -334.055584 
L 454.526571 -335.85983 
L 454.426385 -337.664076 
L 454.386388 -339.468323 
L 454.427362 -341.272569 
L 454.56728 -343.076815 
L 454.818143 -344.881062 
L 455.183666 -346.685308 
L 455.658222 -348.489554 
L 456.227232 -350.293801 
L 456.868867 -352.098047 
L 457.556706 -353.902294 
L 458.262816 -355.70654 
L 458.960718 -357.510786 
L 459.627788 -359.315033 
L 460.246823 -361.119279 
L 460.806685 -362.923525 
L 461.302146 -364.727772 
L 461.733119 -366.532018 
L 462.10354 -368.336265 
L 462.420117 -370.140511 
L 462.691111 -371.944757 
L 462.925259 -373.749004 
L 463.130875 -375.55325 
L 463.315179 -377.357496 
L 463.483842 -379.161743 
L 463.640773 -380.965989 
L 463.788134 -382.770235 
L 463.926565 -384.574482 
L 464.055568 -386.378728 
L 464.173981 -388.182975 
L 464.280455 -389.987221 
L 464.373865 -391.791467 
L 464.453601 -393.595714 
L 464.519703 -395.39996 
L 464.572858 -397.204206 
L 464.614288 -399.008453 
L 464.645573 -400.812699 
L 464.784427 -400.812699 
L 464.784427 -400.812699 
L 464.815712 -399.008453 
L 464.857142 -397.204206 
L 464.910297 -395.39996 
L 464.976399 -393.595714 
L 465.056135 -391.791467 
L 465.149545 -389.987221 
L 465.256019 -388.182975 
L 465.374432 -386.378728 
L 465.503435 -384.574482 
L 465.641866 -382.770235 
L 465.789227 -380.965989 
L 465.946158 -379.161743 
L 466.114821 -377.357496 
L 466.299125 -375.55325 
L 466.504741 -373.749004 
L 466.738889 -371.944757 
L 467.009883 -370.140511 
L 467.32646 -368.336265 
L 467.696881 -366.532018 
L 468.127854 -364.727772 
L 468.623315 -362.923525 
L 469.183177 -361.119279 
L 469.802212 -359.315033 
L 470.469282 -357.510786 
L 471.167184 -355.70654 
L 471.873294 -353.902294 
L 472.561133 -352.098047 
L 473.202768 -350.293801 
L 473.771778 -348.489554 
L 474.246334 -346.685308 
L 474.611857 -344.881062 
L 474.86272 -343.076815 
L 475.002638 -341.272569 
L 475.043612 -339.468323 
L 475.003615 -337.664076 
L 474.903429 -335.85983 
L 474.763227 -334.055584 
L 474.599535 -332.251337 
L 474.423078 -330.447091 
L 474.237844 -328.642844 
L 474.041438 -326.838598 
L 473.826554 -325.034352 
L 473.58323 -323.230105 
L 473.301444 -321.425859 
L 472.973586 -319.621613 
L 472.596438 -317.817366 
L 472.172381 -316.01312 
L 471.709715 -314.208874 
L 471.222128 -312.404627 
L 470.72748 -310.600381 
L 470.246165 -308.796134 
L 469.799356 -306.991888 
L 469.407425 -305.187642 
L 469.088767 -303.383395 
L 468.859136 -301.579149 
L 468.731497 -299.774903 
L 468.716314 -297.970656 
L 468.822118 -296.16641 
L 469.056219 -294.362164 
L 469.425506 -292.557917 
L 469.937315 -290.753671 
L 470.600461 -288.949424 
L 471.42655 -287.145178 
L 472.431583 -285.340932 
L 473.637787 -283.536685 
L 475.075294 -281.732439 
L 476.783111 -279.928193 
L 478.808545 -278.123946 
L 481.204233 -276.3197 
L 484.022051 -274.515454 
L 487.303654 -272.711207 
L 491.068085 -270.906961 
L 495.297835 -269.102714 
L 499.925595 -267.298468 
L 504.824624 -265.494222 
L 509.805736 -263.689975 
L 514.623379 -261.885729 
L 518.991914 -260.081483 
L 522.611344 -258.277236 
L 525.199634 -256.47299 
L 526.527 -254.668743 
L 526.446531 -252.864497 
L 524.915713 -251.060251 
L 522.004756 -249.256004 
L 517.889986 -247.451758 
L 512.833319 -245.647512 
L 507.151362 -243.843265 
L 501.17946 -242.039019 
L 495.236528 -240.234773 
L 489.595868 -238.430526 
L 484.465537 -236.62628 
L 479.9797 -234.822033 
L 476.200338 -233.017787 
L 473.12705 -231.213541 
L 470.711862 -229.409294 
L 468.875789 -227.605048 
L 467.524472 -225.800802 
L 466.561042 -223.996555 
L 465.895316 -222.192309 
z
" style="stroke: #595959; stroke-width: 1.25"/>
    </defs>
    <g clip-path="url(#pd459b3b50b)">
     <use xlink:href="#me779486ac9" x="0" y="432" style="fill: #95a3c3; stroke: #595959; stroke-width: 1.25"/>
    </g>
   </g>
   <g id="FillBetweenPolyCollection_4">
    <defs>
     <path id="md88a8148d5" d="M 619.54416 -132.432025 
L 618.94584 -132.432025 
L 618.666398 -133.148696 
L 618.174525 -133.865368 
L 617.3506 -134.582039 
L 616.038282 -135.298711 
L 614.05264 -136.015382 
L 611.20166 -136.732054 
L 607.322528 -137.448725 
L 602.329431 -138.165396 
L 596.263712 -138.882068 
L 589.332442 -139.598739 
L 581.920253 -140.315411 
L 574.563485 -141.032082 
L 567.885067 -141.748754 
L 562.500346 -142.465425 
L 558.914064 -143.182096 
L 557.433 -143.898768 
L 558.115427 -144.615439 
L 560.768818 -145.332111 
L 564.994423 -146.048782 
L 570.265882 -146.765454 
L 576.022073 -147.482125 
L 581.753447 -148.198796 
L 587.06544 -148.915468 
L 591.710252 -149.632139 
L 595.58669 -150.348811 
L 598.714799 -151.065482 
L 601.196026 -151.782154 
L 603.170383 -152.498825 
L 604.779937 -153.215497 
L 606.144123 -153.932168 
L 607.34817 -154.648839 
L 608.442518 -155.365511 
L 609.449137 -156.082182 
L 610.370383 -156.798854 
L 611.196993 -157.515525 
L 611.913546 -158.232197 
L 612.501388 -158.948868 
L 612.940129 -159.665539 
L 613.209194 -160.382211 
L 613.290519 -161.098882 
L 613.172735 -161.815554 
L 612.856352 -162.532225 
L 612.358735 -163.248897 
L 611.717345 -163.965568 
L 610.989784 -164.68224 
L 610.249723 -165.398911 
L 609.578812 -166.115582 
L 609.055813 -166.832254 
L 608.745107 -167.548925 
L 608.687085 -168.265597 
L 608.892462 -168.982268 
L 609.341614 -169.69894 
L 609.988844 -170.415611 
L 610.770541 -171.132282 
L 611.615581 -171.848954 
L 612.456135 -172.565625 
L 613.237088 -173.282297 
L 613.922567 -173.998968 
L 614.498555 -174.71564 
L 614.971299 -175.432311 
L 615.362096 -176.148983 
L 615.69981 -176.865654 
L 616.013019 -177.582325 
L 616.323639 -178.298997 
L 616.643353 -179.015668 
L 616.973249 -179.73234 
L 617.306137 -180.449011 
L 617.630352 -181.165683 
L 617.933674 -181.882354 
L 618.206284 -182.599025 
L 618.44226 -183.315697 
L 618.639686 -184.032368 
L 618.799859 -184.74904 
L 618.92614 -185.465711 
L 619.022909 -186.182383 
L 619.094805 -186.899054 
L 619.146268 -187.615726 
L 619.181266 -188.332397 
L 619.203119 -189.049068 
L 619.214376 -189.76574 
L 619.216772 -190.482411 
L 619.211311 -191.199083 
L 619.198525 -191.915754 
L 619.178891 -192.632426 
L 619.153321 -193.349097 
L 619.123591 -194.065768 
L 619.092523 -194.78244 
L 619.063802 -195.499111 
L 619.041395 -196.215783 
L 619.028724 -196.932454 
L 619.027838 -197.649126 
L 619.038889 -198.365797 
L 619.06009 -199.082468 
L 619.088196 -199.79914 
L 619.119312 -200.515811 
L 619.149771 -201.232483 
L 619.1768 -201.949154 
L 619.198833 -202.665826 
L 619.215459 -203.382497 
L 619.274541 -203.382497 
L 619.274541 -203.382497 
L 619.291167 -202.665826 
L 619.3132 -201.949154 
L 619.340229 -201.232483 
L 619.370688 -200.515811 
L 619.401804 -199.79914 
L 619.42991 -199.082468 
L 619.451111 -198.365797 
L 619.462162 -197.649126 
L 619.461276 -196.932454 
L 619.448605 -196.215783 
L 619.426198 -195.499111 
L 619.397477 -194.78244 
L 619.366409 -194.065768 
L 619.336679 -193.349097 
L 619.311109 -192.632426 
L 619.291475 -191.915754 
L 619.278689 -191.199083 
L 619.273228 -190.482411 
L 619.275624 -189.76574 
L 619.286881 -189.049068 
L 619.308734 -188.332397 
L 619.343732 -187.615726 
L 619.395195 -186.899054 
L 619.467091 -186.182383 
L 619.56386 -185.465711 
L 619.690141 -184.74904 
L 619.850314 -184.032368 
L 620.04774 -183.315697 
L 620.283716 -182.599025 
L 620.556326 -181.882354 
L 620.859648 -181.165683 
L 621.183863 -180.449011 
L 621.516751 -179.73234 
L 621.846647 -179.015668 
L 622.166361 -178.298997 
L 622.476981 -177.582325 
L 622.79019 -176.865654 
L 623.127904 -176.148983 
L 623.518701 -175.432311 
L 623.991445 -174.71564 
L 624.567433 -173.998968 
L 625.252912 -173.282297 
L 626.033865 -172.565625 
L 626.874419 -171.848954 
L 627.719459 -171.132282 
L 628.501156 -170.415611 
L 629.148386 -169.69894 
L 629.597538 -168.982268 
L 629.802915 -168.265597 
L 629.744893 -167.548925 
L 629.434187 -166.832254 
L 628.911188 -166.115582 
L 628.240277 -165.398911 
L 627.500216 -164.68224 
L 626.772655 -163.965568 
L 626.131265 -163.248897 
L 625.633648 -162.532225 
L 625.317265 -161.815554 
L 625.199481 -161.098882 
L 625.280806 -160.382211 
L 625.549871 -159.665539 
L 625.988612 -158.948868 
L 626.576454 -158.232197 
L 627.293007 -157.515525 
L 628.119617 -156.798854 
L 629.040863 -156.082182 
L 630.047482 -155.365511 
L 631.14183 -154.648839 
L 632.345877 -153.932168 
L 633.710063 -153.215497 
L 635.319617 -152.498825 
L 637.293974 -151.782154 
L 639.775201 -151.065482 
L 642.90331 -150.348811 
L 646.779748 -149.632139 
L 651.42456 -148.915468 
L 656.736553 -148.198796 
L 662.467927 -147.482125 
L 668.224118 -146.765454 
L 673.495577 -146.048782 
L 677.721182 -145.332111 
L 680.374573 -144.615439 
L 681.057 -143.898768 
L 679.575936 -143.182096 
L 675.989654 -142.465425 
L 670.604933 -141.748754 
L 663.926515 -141.032082 
L 656.569747 -140.315411 
L 649.157558 -139.598739 
L 642.226288 -138.882068 
L 636.160569 -138.165396 
L 631.167472 -137.448725 
L 627.28834 -136.732054 
L 624.43736 -136.015382 
L 622.451718 -135.298711 
L 621.1394 -134.582039 
L 620.315475 -133.865368 
L 619.823602 -133.148696 
L 619.54416 -132.432025 
z
" style="stroke: #595959; stroke-width: 1.25"/>
    </defs>
    <g clip-path="url(#pd459b3b50b)">
     <use xlink:href="#md88a8148d5" x="0" y="432" style="fill: #db96c0; stroke: #595959; stroke-width: 1.25"/>
    </g>
   </g>
   <g id="FillBetweenPolyCollection_5">
    <defs>
     <path id="m947582d091" d="M 773.898611 -102.127508 
L 773.651389 -102.127508 
L 773.501182 -102.689365 
L 773.214575 -103.251222 
L 772.711462 -103.813078 
L 771.897143 -104.374935 
L 770.679901 -104.936792 
L 768.997828 -105.498648 
L 766.847167 -106.060505 
L 764.297759 -106.622362 
L 761.479367 -107.184219 
L 758.531412 -107.746075 
L 755.528297 -108.307932 
L 752.413483 -108.869789 
L 748.98298 -109.431646 
L 744.944485 -109.993502 
L 740.04755 -110.555359 
L 734.246737 -111.117216 
L 727.835592 -111.679072 
L 721.483015 -112.240929 
L 716.125391 -112.802786 
L 712.723207 -113.364643 
L 711.963 -113.926499 
L 714.030733 -114.488356 
L 718.559966 -115.050213 
L 724.771012 -115.612069 
L 731.721139 -116.173926 
L 738.545298 -116.735783 
L 744.601718 -117.29764 
L 749.509816 -117.859496 
L 753.122719 -118.421353 
L 755.483955 -118.98321 
L 756.790344 -119.545067 
L 757.35353 -120.106923 
L 757.543885 -120.66878 
L 757.71378 -121.230637 
L 758.118335 -121.792493 
L 758.864088 -122.35435 
L 759.90933 -122.916207 
L 761.116128 -123.478064 
L 762.327425 -124.03992 
L 763.430752 -124.601777 
L 764.38155 -125.163634 
L 765.185966 -125.725491 
L 765.866357 -126.287347 
L 766.437123 -126.849204 
L 766.903725 -127.411061 
L 767.277991 -127.972917 
L 767.592941 -128.534774 
L 767.904093 -129.096631 
L 768.274675 -129.658488 
L 768.751683 -130.220344 
L 769.344971 -130.782201 
L 770.021236 -131.344058 
L 770.717633 -131.905915 
L 771.368148 -132.467771 
L 771.927876 -133.029628 
L 772.382657 -133.591485 
L 772.74237 -134.153341 
L 773.026288 -134.715198 
L 773.251028 -135.277055 
L 773.426371 -135.838912 
L 773.557525 -136.400768 
L 773.649238 -136.962625 
L 773.70815 -137.524482 
L 773.742538 -138.086339 
L 773.760663 -138.648195 
L 773.769261 -139.210052 
L 773.772922 -139.771909 
L 773.774321 -140.333765 
L 773.7748 -140.895622 
L 773.774947 -141.457479 
L 773.774987 -142.019336 
L 773.774997 -142.581192 
L 773.774999 -143.143049 
L 773.775 -143.704906 
L 773.775 -144.266763 
L 773.775 -144.828619 
L 773.775 -145.390476 
L 773.774998 -145.952333 
L 773.774993 -146.514189 
L 773.774968 -147.076046 
L 773.774876 -147.637903 
L 773.774571 -148.19976 
L 773.773669 -148.761616 
L 773.771295 -149.323473 
L 773.765744 -149.88533 
L 773.754259 -150.447186 
L 773.733304 -151.009043 
L 773.699804 -151.5709 
L 773.653343 -152.132757 
L 773.598427 -152.694613 
L 773.545094 -153.25647 
L 773.506455 -153.818327 
L 773.493599 -154.380184 
L 773.510469 -154.94204 
L 773.551916 -155.503897 
L 773.606227 -156.065754 
L 773.660455 -156.62761 
L 773.705258 -157.189467 
L 773.736907 -157.751324 
L 773.813093 -157.751324 
L 773.813093 -157.751324 
L 773.844742 -157.189467 
L 773.889545 -156.62761 
L 773.943773 -156.065754 
L 773.998084 -155.503897 
L 774.039531 -154.94204 
L 774.056401 -154.380184 
L 774.043545 -153.818327 
L 774.004906 -153.25647 
L 773.951573 -152.694613 
L 773.896657 -152.132757 
L 773.850196 -151.5709 
L 773.816696 -151.009043 
L 773.795741 -150.447186 
L 773.784256 -149.88533 
L 773.778705 -149.323473 
L 773.776331 -148.761616 
L 773.775429 -148.19976 
L 773.775124 -147.637903 
L 773.775032 -147.076046 
L 773.775007 -146.514189 
L 773.775002 -145.952333 
L 773.775 -145.390476 
L 773.775 -144.828619 
L 773.775 -144.266763 
L 773.775 -143.704906 
L 773.775001 -143.143049 
L 773.775003 -142.581192 
L 773.775013 -142.019336 
L 773.775053 -141.457479 
L 773.7752 -140.895622 
L 773.775679 -140.333765 
L 773.777078 -139.771909 
L 773.780739 -139.210052 
L 773.789337 -138.648195 
L 773.807462 -138.086339 
L 773.84185 -137.524482 
L 773.900762 -136.962625 
L 773.992475 -136.400768 
L 774.123629 -135.838912 
L 774.298972 -135.277055 
L 774.523712 -134.715198 
L 774.80763 -134.153341 
L 775.167343 -133.591485 
L 775.622124 -133.029628 
L 776.181852 -132.467771 
L 776.832367 -131.905915 
L 777.528764 -131.344058 
L 778.205029 -130.782201 
L 778.798317 -130.220344 
L 779.275325 -129.658488 
L 779.645907 -129.096631 
L 779.957059 -128.534774 
L 780.272009 -127.972917 
L 780.646275 -127.411061 
L 781.112877 -126.849204 
L 781.683643 -126.287347 
L 782.364034 -125.725491 
L 783.16845 -125.163634 
L 784.119248 -124.601777 
L 785.222575 -124.03992 
L 786.433872 -123.478064 
L 787.64067 -122.916207 
L 788.685912 -122.35435 
L 789.431665 -121.792493 
L 789.83622 -121.230637 
L 790.006115 -120.66878 
L 790.19647 -120.106923 
L 790.759656 -119.545067 
L 792.066045 -118.98321 
L 794.427281 -118.421353 
L 798.040184 -117.859496 
L 802.948282 -117.29764 
L 809.004702 -116.735783 
L 815.828861 -116.173926 
L 822.778988 -115.612069 
L 828.990034 -115.050213 
L 833.519267 -114.488356 
L 835.587 -113.926499 
L 834.826793 -113.364643 
L 831.424609 -112.802786 
L 826.066985 -112.240929 
L 819.714408 -111.679072 
L 813.303263 -111.117216 
L 807.50245 -110.555359 
L 802.605515 -109.993502 
L 798.56702 -109.431646 
L 795.136517 -108.869789 
L 792.021703 -108.307932 
L 789.018588 -107.746075 
L 786.070633 -107.184219 
L 783.252241 -106.622362 
L 780.702833 -106.060505 
L 778.552172 -105.498648 
L 776.870099 -104.936792 
L 775.652857 -104.374935 
L 774.838538 -103.813078 
L 774.335425 -103.251222 
L 774.048818 -102.689365 
L 773.898611 -102.127508 
z
" style="stroke: #595959; stroke-width: 1.25"/>
    </defs>
    <g clip-path="url(#pd459b3b50b)">
     <use xlink:href="#m947582d091" x="0" y="432" style="fill: #a2c865; stroke: #595959; stroke-width: 1.25"/>
    </g>
   </g>
   <g id="line2d_10">
    <path d="M 155.655 318.442216 
L 155.655 323.390834 
" clip-path="url(#pd459b3b50b)" style="fill: none; stroke: #000000"/>
   </g>
   <g id="line2d_11">
    <path d="M 155.655 309.910116 
L 155.655 297.282608 
" clip-path="url(#pd459b3b50b)" style="fill: none; stroke: #000000"/>
   </g>
   <g id="line2d_12">
    <path d="M 149.860125 323.390834 
L 161.449875 323.390834 
" clip-path="url(#pd459b3b50b)" style="fill: none; stroke: #000000; stroke-linecap: round"/>
   </g>
   <g id="line2d_13">
    <path d="M 149.860125 297.282608 
L 161.449875 297.282608 
" clip-path="url(#pd459b3b50b)" style="fill: none; stroke: #000000; stroke-linecap: round"/>
   </g>
   <g id="line2d_14">
    <path d="M 310.185 324.457346 
L 310.185 328.16881 
" clip-path="url(#pd459b3b50b)" style="fill: none; stroke: #000000"/>
   </g>
   <g id="line2d_15">
    <path d="M 310.185 318.740839 
L 310.185 310.2514 
" clip-path="url(#pd459b3b50b)" style="fill: none; stroke: #000000"/>
   </g>
   <g id="line2d_16">
    <path d="M 304.390125 328.16881 
L 315.979875 328.16881 
" clip-path="url(#pd459b3b50b)" style="fill: none; stroke: #000000; stroke-linecap: round"/>
   </g>
   <g id="line2d_17">
    <path d="M 304.390125 310.2514 
L 315.979875 310.2514 
" clip-path="url(#pd459b3b50b)" style="fill: none; stroke: #000000; stroke-linecap: round"/>
   </g>
   <g id="line2d_18">
    <path d="M 464.715 180.222196 
L 464.715 189.09558 
" clip-path="url(#pd459b3b50b)" style="fill: none; stroke: #000000"/>
   </g>
   <g id="line2d_19">
    <path d="M 464.715 153.559384 
L 464.715 113.671816 
" clip-path="url(#pd459b3b50b)" style="fill: none; stroke: #000000"/>
   </g>
   <g id="line2d_20">
    <path d="M 458.920125 189.09558 
L 470.509875 189.09558 
" clip-path="url(#pd459b3b50b)" style="fill: none; stroke: #000000; stroke-linecap: round"/>
   </g>
   <g id="line2d_21">
    <path d="M 458.920125 113.671816 
L 470.509875 113.671816 
" clip-path="url(#pd459b3b50b)" style="fill: none; stroke: #000000; stroke-linecap: round"/>
   </g>
   <g id="line2d_22">
    <path d="M 619.245 288.92115 
L 619.245 293.528484 
" clip-path="url(#pd459b3b50b)" style="fill: none; stroke: #000000"/>
   </g>
   <g id="line2d_23">
    <path d="M 619.245 279.151895 
L 619.245 264.519344 
" clip-path="url(#pd459b3b50b)" style="fill: none; stroke: #000000"/>
   </g>
   <g id="line2d_24">
    <path d="M 613.450125 293.528484 
L 625.039875 293.528484 
" clip-path="url(#pd459b3b50b)" style="fill: none; stroke: #000000; stroke-linecap: round"/>
   </g>
   <g id="line2d_25">
    <path d="M 613.450125 264.519344 
L 625.039875 264.519344 
" clip-path="url(#pd459b3b50b)" style="fill: none; stroke: #000000; stroke-linecap: round"/>
   </g>
   <g id="line2d_26">
    <path d="M 773.775 319.63671 
L 773.775 326.46239 
" clip-path="url(#pd459b3b50b)" style="fill: none; stroke: #000000"/>
   </g>
   <g id="line2d_27">
    <path d="M 773.775 314.346808 
L 773.775 306.497276 
" clip-path="url(#pd459b3b50b)" style="fill: none; stroke: #000000"/>
   </g>
   <g id="line2d_28">
    <path d="M 767.980125 326.46239 
L 779.569875 326.46239 
" clip-path="url(#pd459b3b50b)" style="fill: none; stroke: #000000; stroke-linecap: round"/>
   </g>
   <g id="line2d_29">
    <path d="M 767.980125 306.497276 
L 779.569875 306.497276 
" clip-path="url(#pd459b3b50b)" style="fill: none; stroke: #000000; stroke-linecap: round"/>
   </g>
   <g id="line2d_30">
    <path d="M 144.06525 315.967907 
L 167.24475 315.967907 
" clip-path="url(#pd459b3b50b)" style="fill: none; stroke: #ff0000; stroke-width: 2"/>
   </g>
   <g id="line2d_31">
    <path d="M 298.59525 322.622945 
L 321.77475 322.622945 
" clip-path="url(#pd459b3b50b)" style="fill: none; stroke: #ff0000; stroke-width: 2"/>
   </g>
   <g id="line2d_32">
    <path d="M 453.12525 176.126788 
L 476.30475 176.126788 
" clip-path="url(#pd459b3b50b)" style="fill: none; stroke: #ff0000; stroke-width: 2"/>
   </g>
   <g id="line2d_33">
    <path d="M 607.65525 286.702804 
L 630.83475 286.702804 
" clip-path="url(#pd459b3b50b)" style="fill: none; stroke: #ff0000; stroke-width: 2"/>
   </g>
   <g id="line2d_34">
    <path d="M 762.18525 317.759648 
L 785.36475 317.759648 
" clip-path="url(#pd459b3b50b)" style="fill: none; stroke: #ff0000; stroke-width: 2"/>
   </g>
   <g id="patch_3">
    <path d="M 78.39 361.444 
L 78.39 20.16 
" style="fill: none; stroke: #cccccc; stroke-width: 1.25; stroke-linejoin: miter; stroke-linecap: square"/>
   </g>
   <g id="patch_4">
    <path d="M 851.04 361.444 
L 851.04 20.16 
" style="fill: none; stroke: #cccccc; stroke-width: 1.25; stroke-linejoin: miter; stroke-linecap: square"/>
   </g>
   <g id="patch_5">
    <path d="M 78.39 361.444 
L 851.04 361.444 
" style="fill: none; stroke: #cccccc; stroke-width: 1.25; stroke-linejoin: miter; stroke-linecap: square"/>
   </g>
   <g id="patch_6">
    <path d="M 78.39 20.16 
L 851.04 20.16 
" style="fill: none; stroke: #cccccc; stroke-width: 1.25; stroke-linejoin: miter; stroke-linecap: square"/>
   </g>
   <g id="text_16">
    <g id="patch_7">
     <path d="M 646.29 63.116075 
L 821.4075 63.116075 
L 821.4075 28.2242 
L 646.29 28.2242 
z
" style="fill: #ffffff; opacity: 0.8; stroke: #808080; stroke-linejoin: miter"/>
    </g>
    <!-- Signature: ed25519 -->
    <g style="fill: #262626" transform="translate(655.29 50.327638) scale(0.18 -0.18)">
     <defs>
      <path id="ArialMT-53" d="M 288 1472 
L 859 1522 
Q 900 1178 1048 958 
Q 1197 738 1509 602 
Q 1822 466 2213 466 
Q 2559 466 2825 569 
Q 3091 672 3220 851 
Q 3350 1031 3350 1244 
Q 3350 1459 3225 1620 
Q 3100 1781 2813 1891 
Q 2628 1963 1997 2114 
Q 1366 2266 1113 2400 
Q 784 2572 623 2826 
Q 463 3081 463 3397 
Q 463 3744 659 4045 
Q 856 4347 1234 4503 
Q 1613 4659 2075 4659 
Q 2584 4659 2973 4495 
Q 3363 4331 3572 4012 
Q 3781 3694 3797 3291 
L 3216 3247 
Q 3169 3681 2898 3903 
Q 2628 4125 2100 4125 
Q 1550 4125 1298 3923 
Q 1047 3722 1047 3438 
Q 1047 3191 1225 3031 
Q 1400 2872 2139 2705 
Q 2878 2538 3153 2413 
Q 3553 2228 3743 1945 
Q 3934 1663 3934 1294 
Q 3934 928 3725 604 
Q 3516 281 3123 101 
Q 2731 -78 2241 -78 
Q 1619 -78 1198 103 
Q 778 284 539 648 
Q 300 1013 288 1472 
z
" transform="scale(0.015625)"/>
      <path id="ArialMT-67" d="M 319 -275 
L 866 -356 
Q 900 -609 1056 -725 
Q 1266 -881 1628 -881 
Q 2019 -881 2231 -725 
Q 2444 -569 2519 -288 
Q 2563 -116 2559 434 
Q 2191 0 1641 0 
Q 956 0 581 494 
Q 206 988 206 1678 
Q 206 2153 378 2554 
Q 550 2956 876 3175 
Q 1203 3394 1644 3394 
Q 2231 3394 2613 2919 
L 2613 3319 
L 3131 3319 
L 3131 450 
Q 3131 -325 2973 -648 
Q 2816 -972 2473 -1159 
Q 2131 -1347 1631 -1347 
Q 1038 -1347 672 -1080 
Q 306 -813 319 -275 
z
M 784 1719 
Q 784 1066 1043 766 
Q 1303 466 1694 466 
Q 2081 466 2343 764 
Q 2606 1063 2606 1700 
Q 2606 2309 2336 2618 
Q 2066 2928 1684 2928 
Q 1309 2928 1046 2623 
Q 784 2319 784 1719 
z
" transform="scale(0.015625)"/>
      <path id="ArialMT-3a" d="M 578 2678 
L 578 3319 
L 1219 3319 
L 1219 2678 
L 578 2678 
z
M 578 0 
L 578 641 
L 1219 641 
L 1219 0 
L 578 0 
z
" transform="scale(0.015625)"/>
     </defs>
     <use xlink:href="#ArialMT-53"/>
     <use xlink:href="#ArialMT-69" transform="translate(66.699219 0)"/>
     <use xlink:href="#ArialMT-67" transform="translate(88.916016 0)"/>
     <use xlink:href="#ArialMT-6e" transform="translate(144.53125 0)"/>
     <use xlink:href="#ArialMT-61" transform="translate(200.146484 0)"/>
     <use xlink:href="#ArialMT-74" transform="translate(255.761719 0)"/>
     <use xlink:href="#ArialMT-75" transform="translate(283.544922 0)"/>
     <use xlink:href="#ArialMT-72" transform="translate(339.160156 0)"/>
     <use xlink:href="#ArialMT-65" transform="translate(372.460938 0)"/>
     <use xlink:href="#ArialMT-3a" transform="translate(428.076172 0)"/>
     <use xlink:href="#ArialMT-20" transform="translate(455.859375 0)"/>
     <use xlink:href="#ArialMT-65" transform="translate(483.642578 0)"/>
     <use xlink:href="#ArialMT-64" transform="translate(539.257812 0)"/>
     <use xlink:href="#ArialMT-32" transform="translate(594.873047 0)"/>
     <use xlink:href="#ArialMT-35" transform="translate(650.488281 0)"/>
     <use xlink:href="#ArialMT-35" transform="translate(706.103516 0)"/>
     <use xlink:href="#ArialMT-31" transform="translate(761.71875 0)"/>
     <use xlink:href="#ArialMT-39" transform="translate(817.333984 0)"/>
    </g>
   </g>
  </g>
 </g>
 <defs>
  <clipPath id="pd459b3b50b">
   <rect x="78.39" y="20.16" width="772.65" height="341.284"/>
  </clipPath>
 </defs>
</svg>
