<?xml version="1.0" encoding="utf-8" standalone="no"?>
<!DOCTYPE svg PUBLIC "-//W3C//DTD SVG 1.1//EN"
  "http://www.w3.org/Graphics/SVG/1.1/DTD/svg11.dtd">
<svg xmlns:xlink="http://www.w3.org/1999/xlink" width="864pt" height="432pt" viewBox="0 0 864 432" xmlns="http://www.w3.org/2000/svg" version="1.1">
 <metadata>
  <rdf:RDF xmlns:dc="http://purl.org/dc/elements/1.1/" xmlns:cc="http://creativecommons.org/ns#" xmlns:rdf="http://www.w3.org/1999/02/22-rdf-syntax-ns#">
   <cc:Work>
    <dc:type rdf:resource="http://purl.org/dc/dcmitype/StillImage"/>
    <dc:date>2025-10-07T07:40:25.488490</dc:date>
    <dc:format>image/svg+xml</dc:format>
    <dc:creator>
     <cc:Agent>
      <dc:title>Matplotlib v3.10.3, https://matplotlib.org/</dc:title>
     </cc:Agent>
    </dc:creator>
   </cc:Work>
  </rdf:RDF>
 </metadata>
 <defs>
  <style type="text/css">*{stroke-linejoin: round; stroke-linecap: butt}</style>
 </defs>
 <g id="figure_1">
  <g id="patch_1">
   <path d="M 0 432 
L 864 432 
L 864 0 
L 0 0 
z
" style="fill: #ffffff"/>
  </g>
  <g id="axes_1">
   <g id="patch_2">
    <path d="M 61.74 361.444 
L 851.04 361.444 
L 851.04 20.16 
L 61.74 20.16 
z
" style="fill: #ffffff"/>
   </g>
   <g id="matplotlib.axis_1">
    <g id="xtick_1">
     <g id="text_1">
      <!-- P-384 -->
      <g style="fill: #262626" transform="translate(108.650625 388.12275) scale(0.24 -0.24)">
       <defs>
        <path id="ArialMT-50" d="M 494 0 
L 494 4581 
L 2222 4581 
Q 2678 4581 2919 4538 
Q 3256 4481 3484 4323 
Q 3713 4166 3852 3881 
Q 3991 3597 3991 3256 
Q 3991 2672 3619 2267 
Q 3247 1863 2275 1863 
L 1100 1863 
L 1100 0 
L 494 0 
z
M 1100 2403 
L 2284 2403 
Q 2872 2403 3119 2622 
Q 3366 2841 3366 3238 
Q 3366 3525 3220 3729 
Q 3075 3934 2838 4000 
Q 2684 4041 2272 4041 
L 1100 4041 
L 1100 2403 
z
" transform="scale(0.015625)"/>
        <path id="ArialMT-2d" d="M 203 1375 
L 203 1941 
L 1931 1941 
L 1931 1375 
L 203 1375 
z
" transform="scale(0.015625)"/>
        <path id="ArialMT-33" d="M 269 1209 
L 831 1284 
Q 928 806 1161 595 
Q 1394 384 1728 384 
Q 2125 384 2398 659 
Q 2672 934 2672 1341 
Q 2672 1728 2419 1979 
Q 2166 2231 1775 2231 
Q 1616 2231 1378 2169 
L 1441 2663 
Q 1497 2656 1531 2656 
Q 1891 2656 2178 2843 
Q 2466 3031 2466 3422 
Q 2466 3731 2256 3934 
Q 2047 4138 1716 4138 
Q 1388 4138 1169 3931 
Q 950 3725 888 3313 
L 325 3413 
Q 428 3978 793 4289 
Q 1159 4600 1703 4600 
Q 2078 4600 2393 4439 
Q 2709 4278 2876 4000 
Q 3044 3722 3044 3409 
Q 3044 3113 2884 2869 
Q 2725 2625 2413 2481 
Q 2819 2388 3044 2092 
Q 3269 1797 3269 1353 
Q 3269 753 2831 336 
Q 2394 -81 1725 -81 
Q 1122 -81 723 278 
Q 325 638 269 1209 
z
" transform="scale(0.015625)"/>
        <path id="ArialMT-38" d="M 1131 2484 
Q 781 2613 612 2850 
Q 444 3088 444 3419 
Q 444 3919 803 4259 
Q 1163 4600 1759 4600 
Q 2359 4600 2725 4251 
Q 3091 3903 3091 3403 
Q 3091 3084 2923 2848 
Q 2756 2613 2416 2484 
Q 2838 2347 3058 2040 
Q 3278 1734 3278 1309 
Q 3278 722 2862 322 
Q 2447 -78 1769 -78 
Q 1091 -78 675 323 
Q 259 725 259 1325 
Q 259 1772 486 2073 
Q 713 2375 1131 2484 
z
M 1019 3438 
Q 1019 3113 1228 2906 
Q 1438 2700 1772 2700 
Q 2097 2700 2305 2904 
Q 2513 3109 2513 3406 
Q 2513 3716 2298 3927 
Q 2084 4138 1766 4138 
Q 1444 4138 1231 3931 
Q 1019 3725 1019 3438 
z
M 838 1322 
Q 838 1081 952 856 
Q 1066 631 1291 507 
Q 1516 384 1775 384 
Q 2178 384 2440 643 
Q 2703 903 2703 1303 
Q 2703 1709 2433 1975 
Q 2163 2241 1756 2241 
Q 1359 2241 1098 1978 
Q 838 1716 838 1322 
z
" transform="scale(0.015625)"/>
        <path id="ArialMT-34" d="M 2069 0 
L 2069 1097 
L 81 1097 
L 81 1613 
L 2172 4581 
L 2631 4581 
L 2631 1613 
L 3250 1613 
L 3250 1097 
L 2631 1097 
L 2631 0 
L 2069 0 
z
M 2069 1613 
L 2069 3678 
L 634 1613 
L 2069 1613 
z
" transform="scale(0.015625)"/>
       </defs>
       <use xlink:href="#ArialMT-50"/>
       <use xlink:href="#ArialMT-2d" transform="translate(66.699219 0)"/>
       <use xlink:href="#ArialMT-33" transform="translate(100 0)"/>
       <use xlink:href="#ArialMT-38" transform="translate(155.615234 0)"/>
       <use xlink:href="#ArialMT-34" transform="translate(211.230469 0)"/>
      </g>
     </g>
    </g>
    <g id="xtick_2">
     <g id="text_2">
      <!-- x448 -->
      <g style="fill: #262626" transform="translate(272.510625 388.12275) scale(0.24 -0.24)">
       <defs>
        <path id="ArialMT-78" d="M 47 0 
L 1259 1725 
L 138 3319 
L 841 3319 
L 1350 2541 
Q 1494 2319 1581 2169 
Q 1719 2375 1834 2534 
L 2394 3319 
L 3066 3319 
L 1919 1756 
L 3153 0 
L 2463 0 
L 1781 1031 
L 1600 1309 
L 728 0 
L 47 0 
z
" transform="scale(0.015625)"/>
       </defs>
       <use xlink:href="#ArialMT-78"/>
       <use xlink:href="#ArialMT-34" transform="translate(50 0)"/>
       <use xlink:href="#ArialMT-34" transform="translate(105.615234 0)"/>
       <use xlink:href="#ArialMT-38" transform="translate(161.230469 0)"/>
      </g>
     </g>
    </g>
    <g id="xtick_3">
     <g id="text_3">
      <!-- P-384 -->
      <g style="fill: #262626" transform="translate(424.370625 388.12275) scale(0.24 -0.24)">
       <use xlink:href="#ArialMT-50"/>
       <use xlink:href="#ArialMT-2d" transform="translate(66.699219 0)"/>
       <use xlink:href="#ArialMT-33" transform="translate(100 0)"/>
       <use xlink:href="#ArialMT-38" transform="translate(155.615234 0)"/>
       <use xlink:href="#ArialMT-34" transform="translate(211.230469 0)"/>
      </g>
      <!-- mlkem768 -->
      <g style="fill: #262626" transform="translate(401.04 413.50725) scale(0.24 -0.24)">
       <defs>
        <path id="ArialMT-6d" d="M 422 0 
L 422 3319 
L 925 3319 
L 925 2853 
Q 1081 3097 1340 3245 
Q 1600 3394 1931 3394 
Q 2300 3394 2536 3241 
Q 2772 3088 2869 2813 
Q 3263 3394 3894 3394 
Q 4388 3394 4653 3120 
Q 4919 2847 4919 2278 
L 4919 0 
L 4359 0 
L 4359 2091 
Q 4359 2428 4304 2576 
Q 4250 2725 4106 2815 
Q 3963 2906 3769 2906 
Q 3419 2906 3187 2673 
Q 2956 2441 2956 1928 
L 2956 0 
L 2394 0 
L 2394 2156 
Q 2394 2531 2256 2718 
Q 2119 2906 1806 2906 
Q 1569 2906 1367 2781 
Q 1166 2656 1075 2415 
Q 984 2175 984 1722 
L 984 0 
L 422 0 
z
" transform="scale(0.015625)"/>
        <path id="ArialMT-6c" d="M 409 0 
L 409 4581 
L 972 4581 
L 972 0 
L 409 0 
z
" transform="scale(0.015625)"/>
        <path id="ArialMT-6b" d="M 425 0 
L 425 4581 
L 988 4581 
L 988 1969 
L 2319 3319 
L 3047 3319 
L 1778 2088 
L 3175 0 
L 2481 0 
L 1384 1697 
L 988 1316 
L 988 0 
L 425 0 
z
" transform="scale(0.015625)"/>
        <path id="ArialMT-65" d="M 2694 1069 
L 3275 997 
Q 3138 488 2766 206 
Q 2394 -75 1816 -75 
Q 1088 -75 661 373 
Q 234 822 234 1631 
Q 234 2469 665 2931 
Q 1097 3394 1784 3394 
Q 2450 3394 2872 2941 
Q 3294 2488 3294 1666 
Q 3294 1616 3291 1516 
L 816 1516 
Q 847 969 1125 678 
Q 1403 388 1819 388 
Q 2128 388 2347 550 
Q 2566 713 2694 1069 
z
M 847 1978 
L 2700 1978 
Q 2663 2397 2488 2606 
Q 2219 2931 1791 2931 
Q 1403 2931 1139 2672 
Q 875 2413 847 1978 
z
" transform="scale(0.015625)"/>
        <path id="ArialMT-37" d="M 303 3981 
L 303 4522 
L 3269 4522 
L 3269 4084 
Q 2831 3619 2401 2847 
Q 1972 2075 1738 1259 
Q 1569 684 1522 0 
L 944 0 
Q 953 541 1156 1306 
Q 1359 2072 1739 2783 
Q 2119 3494 2547 3981 
L 303 3981 
z
" transform="scale(0.015625)"/>
        <path id="ArialMT-36" d="M 3184 3459 
L 2625 3416 
Q 2550 3747 2413 3897 
Q 2184 4138 1850 4138 
Q 1581 4138 1378 3988 
Q 1113 3794 959 3422 
Q 806 3050 800 2363 
Q 1003 2672 1297 2822 
Q 1591 2972 1913 2972 
Q 2475 2972 2870 2558 
Q 3266 2144 3266 1488 
Q 3266 1056 3080 686 
Q 2894 316 2569 119 
Q 2244 -78 1831 -78 
Q 1128 -78 684 439 
Q 241 956 241 2144 
Q 241 3472 731 4075 
Q 1159 4600 1884 4600 
Q 2425 4600 2770 4297 
Q 3116 3994 3184 3459 
z
M 888 1484 
Q 888 1194 1011 928 
Q 1134 663 1356 523 
Q 1578 384 1822 384 
Q 2178 384 2434 671 
Q 2691 959 2691 1453 
Q 2691 1928 2437 2201 
Q 2184 2475 1800 2475 
Q 1419 2475 1153 2201 
Q 888 1928 888 1484 
z
" transform="scale(0.015625)"/>
       </defs>
       <use xlink:href="#ArialMT-6d"/>
       <use xlink:href="#ArialMT-6c" transform="translate(83.300781 0)"/>
       <use xlink:href="#ArialMT-6b" transform="translate(105.517578 0)"/>
       <use xlink:href="#ArialMT-65" transform="translate(155.517578 0)"/>
       <use xlink:href="#ArialMT-6d" transform="translate(211.132812 0)"/>
       <use xlink:href="#ArialMT-37" transform="translate(294.433594 0)"/>
       <use xlink:href="#ArialMT-36" transform="translate(350.048828 0)"/>
       <use xlink:href="#ArialMT-38" transform="translate(405.664062 0)"/>
      </g>
     </g>
    </g>
    <g id="xtick_4">
     <g id="text_4">
      <!-- x448 -->
      <g style="fill: #262626" transform="translate(588.230625 388.12275) scale(0.24 -0.24)">
       <use xlink:href="#ArialMT-78"/>
       <use xlink:href="#ArialMT-34" transform="translate(50 0)"/>
       <use xlink:href="#ArialMT-34" transform="translate(105.615234 0)"/>
       <use xlink:href="#ArialMT-38" transform="translate(161.230469 0)"/>
      </g>
      <!-- mlkem768 -->
      <g style="fill: #262626" transform="translate(558.9 413.50725) scale(0.24 -0.24)">
       <use xlink:href="#ArialMT-6d"/>
       <use xlink:href="#ArialMT-6c" transform="translate(83.300781 0)"/>
       <use xlink:href="#ArialMT-6b" transform="translate(105.517578 0)"/>
       <use xlink:href="#ArialMT-65" transform="translate(155.517578 0)"/>
       <use xlink:href="#ArialMT-6d" transform="translate(211.132812 0)"/>
       <use xlink:href="#ArialMT-37" transform="translate(294.433594 0)"/>
       <use xlink:href="#ArialMT-36" transform="translate(350.048828 0)"/>
       <use xlink:href="#ArialMT-38" transform="translate(405.664062 0)"/>
      </g>
     </g>
    </g>
    <g id="xtick_5">
     <g id="text_5">
      <!-- mlkem768 -->
      <g style="fill: #262626" transform="translate(716.76 388.12275) scale(0.24 -0.24)">
       <use xlink:href="#ArialMT-6d"/>
       <use xlink:href="#ArialMT-6c" transform="translate(83.300781 0)"/>
       <use xlink:href="#ArialMT-6b" transform="translate(105.517578 0)"/>
       <use xlink:href="#ArialMT-65" transform="translate(155.517578 0)"/>
       <use xlink:href="#ArialMT-6d" transform="translate(211.132812 0)"/>
       <use xlink:href="#ArialMT-37" transform="translate(294.433594 0)"/>
       <use xlink:href="#ArialMT-36" transform="translate(350.048828 0)"/>
       <use xlink:href="#ArialMT-38" transform="translate(405.664062 0)"/>
      </g>
     </g>
    </g>
   </g>
   <g id="matplotlib.axis_2">
    <g id="ytick_1">
     <g id="line2d_1">
      <path d="M 61.74 361.444 
L 851.04 361.444 
" clip-path="url(#peac03cb479)" style="fill: none; stroke: #cccccc; stroke-linecap: round"/>
     </g>
     <g id="text_6">
      <!-- 0 -->
      <g style="fill: #262626" transform="translate(41.118125 368.601812) scale(0.2 -0.2)">
       <defs>
        <path id="ArialMT-30" d="M 266 2259 
Q 266 3072 433 3567 
Q 600 4063 929 4331 
Q 1259 4600 1759 4600 
Q 2128 4600 2406 4451 
Q 2684 4303 2865 4023 
Q 3047 3744 3150 3342 
Q 3253 2941 3253 2259 
Q 3253 1453 3087 958 
Q 2922 463 2592 192 
Q 2263 -78 1759 -78 
Q 1097 -78 719 397 
Q 266 969 266 2259 
z
M 844 2259 
Q 844 1131 1108 757 
Q 1372 384 1759 384 
Q 2147 384 2411 759 
Q 2675 1134 2675 2259 
Q 2675 3391 2411 3762 
Q 2147 4134 1753 4134 
Q 1366 4134 1134 3806 
Q 844 3388 844 2259 
z
" transform="scale(0.015625)"/>
       </defs>
       <use xlink:href="#ArialMT-30"/>
      </g>
     </g>
    </g>
    <g id="ytick_2">
     <g id="line2d_2">
      <path d="M 61.74 312.689143 
L 851.04 312.689143 
" clip-path="url(#peac03cb479)" style="fill: none; stroke: #cccccc; stroke-linecap: round"/>
     </g>
     <g id="text_7">
      <!-- 5 -->
      <g style="fill: #262626" transform="translate(41.118125 319.846955) scale(0.2 -0.2)">
       <defs>
        <path id="ArialMT-35" d="M 266 1200 
L 856 1250 
Q 922 819 1161 601 
Q 1400 384 1738 384 
Q 2144 384 2425 690 
Q 2706 997 2706 1503 
Q 2706 1984 2436 2262 
Q 2166 2541 1728 2541 
Q 1456 2541 1237 2417 
Q 1019 2294 894 2097 
L 366 2166 
L 809 4519 
L 3088 4519 
L 3088 3981 
L 1259 3981 
L 1013 2750 
Q 1425 3038 1878 3038 
Q 2478 3038 2890 2622 
Q 3303 2206 3303 1553 
Q 3303 931 2941 478 
Q 2500 -78 1738 -78 
Q 1113 -78 717 272 
Q 322 622 266 1200 
z
" transform="scale(0.015625)"/>
       </defs>
       <use xlink:href="#ArialMT-35"/>
      </g>
     </g>
    </g>
    <g id="ytick_3">
     <g id="line2d_3">
      <path d="M 61.74 263.934286 
L 851.04 263.934286 
" clip-path="url(#peac03cb479)" style="fill: none; stroke: #cccccc; stroke-linecap: round"/>
     </g>
     <g id="text_8">
      <!-- 10 -->
      <g style="fill: #262626" transform="translate(29.99625 271.092098) scale(0.2 -0.2)">
       <defs>
        <path id="ArialMT-31" d="M 2384 0 
L 1822 0 
L 1822 3584 
Q 1619 3391 1289 3197 
Q 959 3003 697 2906 
L 697 3450 
Q 1169 3672 1522 3987 
Q 1875 4303 2022 4600 
L 2384 4600 
L 2384 0 
z
" transform="scale(0.015625)"/>
       </defs>
       <use xlink:href="#ArialMT-31"/>
       <use xlink:href="#ArialMT-30" transform="translate(55.615234 0)"/>
      </g>
     </g>
    </g>
    <g id="ytick_4">
     <g id="line2d_4">
      <path d="M 61.74 215.179429 
L 851.04 215.179429 
" clip-path="url(#peac03cb479)" style="fill: none; stroke: #cccccc; stroke-linecap: round"/>
     </g>
     <g id="text_9">
      <!-- 15 -->
      <g style="fill: #262626" transform="translate(29.99625 222.337241) scale(0.2 -0.2)">
       <use xlink:href="#ArialMT-31"/>
       <use xlink:href="#ArialMT-35" transform="translate(55.615234 0)"/>
      </g>
     </g>
    </g>
    <g id="ytick_5">
     <g id="line2d_5">
      <path d="M 61.74 166.424571 
L 851.04 166.424571 
" clip-path="url(#peac03cb479)" style="fill: none; stroke: #cccccc; stroke-linecap: round"/>
     </g>
     <g id="text_10">
      <!-- 20 -->
      <g style="fill: #262626" transform="translate(29.99625 173.582384) scale(0.2 -0.2)">
       <defs>
        <path id="ArialMT-32" d="M 3222 541 
L 3222 0 
L 194 0 
Q 188 203 259 391 
Q 375 700 629 1000 
Q 884 1300 1366 1694 
Q 2113 2306 2375 2664 
Q 2638 3022 2638 3341 
Q 2638 3675 2398 3904 
Q 2159 4134 1775 4134 
Q 1369 4134 1125 3890 
Q 881 3647 878 3216 
L 300 3275 
Q 359 3922 746 4261 
Q 1134 4600 1788 4600 
Q 2447 4600 2831 4234 
Q 3216 3869 3216 3328 
Q 3216 3053 3103 2787 
Q 2991 2522 2730 2228 
Q 2469 1934 1863 1422 
Q 1356 997 1212 845 
Q 1069 694 975 541 
L 3222 541 
z
" transform="scale(0.015625)"/>
       </defs>
       <use xlink:href="#ArialMT-32"/>
       <use xlink:href="#ArialMT-30" transform="translate(55.615234 0)"/>
      </g>
     </g>
    </g>
    <g id="ytick_6">
     <g id="line2d_6">
      <path d="M 61.74 117.669714 
L 851.04 117.669714 
" clip-path="url(#peac03cb479)" style="fill: none; stroke: #cccccc; stroke-linecap: round"/>
     </g>
     <g id="text_11">
      <!-- 25 -->
      <g style="fill: #262626" transform="translate(29.99625 124.827527) scale(0.2 -0.2)">
       <use xlink:href="#ArialMT-32"/>
       <use xlink:href="#ArialMT-35" transform="translate(55.615234 0)"/>
      </g>
     </g>
    </g>
    <g id="ytick_7">
     <g id="line2d_7">
      <path d="M 61.74 68.914857 
L 851.04 68.914857 
" clip-path="url(#peac03cb479)" style="fill: none; stroke: #cccccc; stroke-linecap: round"/>
     </g>
     <g id="text_12">
      <!-- 30 -->
      <g style="fill: #262626" transform="translate(29.99625 76.07267) scale(0.2 -0.2)">
       <use xlink:href="#ArialMT-33"/>
       <use xlink:href="#ArialMT-30" transform="translate(55.615234 0)"/>
      </g>
     </g>
    </g>
    <g id="ytick_8">
     <g id="line2d_8">
      <path d="M 61.74 20.16 
L 851.04 20.16 
" clip-path="url(#peac03cb479)" style="fill: none; stroke: #cccccc; stroke-linecap: round"/>
     </g>
     <g id="text_13">
      <!-- 35 -->
      <g style="fill: #262626" transform="translate(29.99625 27.317813) scale(0.2 -0.2)">
       <use xlink:href="#ArialMT-33"/>
       <use xlink:href="#ArialMT-35" transform="translate(55.615234 0)"/>
      </g>
     </g>
    </g>
    <g id="text_14">
     <!-- Handshake duration (ms) -->
     <g style="fill: #262626" transform="translate(23.049688 269.389031) rotate(-90) scale(0.14 -0.14)">
      <defs>
       <path id="ArialMT-48" d="M 513 0 
L 513 4581 
L 1119 4581 
L 1119 2700 
L 3500 2700 
L 3500 4581 
L 4106 4581 
L 4106 0 
L 3500 0 
L 3500 2159 
L 1119 2159 
L 1119 0 
L 513 0 
z
" transform="scale(0.015625)"/>
       <path id="ArialMT-61" d="M 2588 409 
Q 2275 144 1986 34 
Q 1697 -75 1366 -75 
Q 819 -75 525 192 
Q 231 459 231 875 
Q 231 1119 342 1320 
Q 453 1522 633 1644 
Q 813 1766 1038 1828 
Q 1203 1872 1538 1913 
Q 2219 1994 2541 2106 
Q 2544 2222 2544 2253 
Q 2544 2597 2384 2738 
Q 2169 2928 1744 2928 
Q 1347 2928 1158 2789 
Q 969 2650 878 2297 
L 328 2372 
Q 403 2725 575 2942 
Q 747 3159 1072 3276 
Q 1397 3394 1825 3394 
Q 2250 3394 2515 3294 
Q 2781 3194 2906 3042 
Q 3031 2891 3081 2659 
Q 3109 2516 3109 2141 
L 3109 1391 
Q 3109 606 3145 398 
Q 3181 191 3288 0 
L 2700 0 
Q 2613 175 2588 409 
z
M 2541 1666 
Q 2234 1541 1622 1453 
Q 1275 1403 1131 1340 
Q 988 1278 909 1158 
Q 831 1038 831 891 
Q 831 666 1001 516 
Q 1172 366 1500 366 
Q 1825 366 2078 508 
Q 2331 650 2450 897 
Q 2541 1088 2541 1459 
L 2541 1666 
z
" transform="scale(0.015625)"/>
       <path id="ArialMT-6e" d="M 422 0 
L 422 3319 
L 928 3319 
L 928 2847 
Q 1294 3394 1984 3394 
Q 2284 3394 2536 3286 
Q 2788 3178 2913 3003 
Q 3038 2828 3088 2588 
Q 3119 2431 3119 2041 
L 3119 0 
L 2556 0 
L 2556 2019 
Q 2556 2363 2490 2533 
Q 2425 2703 2258 2804 
Q 2091 2906 1866 2906 
Q 1506 2906 1245 2678 
Q 984 2450 984 1813 
L 984 0 
L 422 0 
z
" transform="scale(0.015625)"/>
       <path id="ArialMT-64" d="M 2575 0 
L 2575 419 
Q 2259 -75 1647 -75 
Q 1250 -75 917 144 
Q 584 363 401 755 
Q 219 1147 219 1656 
Q 219 2153 384 2558 
Q 550 2963 881 3178 
Q 1213 3394 1622 3394 
Q 1922 3394 2156 3267 
Q 2391 3141 2538 2938 
L 2538 4581 
L 3097 4581 
L 3097 0 
L 2575 0 
z
M 797 1656 
Q 797 1019 1065 703 
Q 1334 388 1700 388 
Q 2069 388 2326 689 
Q 2584 991 2584 1609 
Q 2584 2291 2321 2609 
Q 2059 2928 1675 2928 
Q 1300 2928 1048 2622 
Q 797 2316 797 1656 
z
" transform="scale(0.015625)"/>
       <path id="ArialMT-73" d="M 197 991 
L 753 1078 
Q 800 744 1014 566 
Q 1228 388 1613 388 
Q 2000 388 2187 545 
Q 2375 703 2375 916 
Q 2375 1106 2209 1216 
Q 2094 1291 1634 1406 
Q 1016 1563 777 1677 
Q 538 1791 414 1992 
Q 291 2194 291 2438 
Q 291 2659 392 2848 
Q 494 3038 669 3163 
Q 800 3259 1026 3326 
Q 1253 3394 1513 3394 
Q 1903 3394 2198 3281 
Q 2494 3169 2634 2976 
Q 2775 2784 2828 2463 
L 2278 2388 
Q 2241 2644 2061 2787 
Q 1881 2931 1553 2931 
Q 1166 2931 1000 2803 
Q 834 2675 834 2503 
Q 834 2394 903 2306 
Q 972 2216 1119 2156 
Q 1203 2125 1616 2013 
Q 2213 1853 2448 1751 
Q 2684 1650 2818 1456 
Q 2953 1263 2953 975 
Q 2953 694 2789 445 
Q 2625 197 2315 61 
Q 2006 -75 1616 -75 
Q 969 -75 630 194 
Q 291 463 197 991 
z
" transform="scale(0.015625)"/>
       <path id="ArialMT-68" d="M 422 0 
L 422 4581 
L 984 4581 
L 984 2938 
Q 1378 3394 1978 3394 
Q 2347 3394 2619 3248 
Q 2891 3103 3008 2847 
Q 3125 2591 3125 2103 
L 3125 0 
L 2563 0 
L 2563 2103 
Q 2563 2525 2380 2717 
Q 2197 2909 1863 2909 
Q 1613 2909 1392 2779 
Q 1172 2650 1078 2428 
Q 984 2206 984 1816 
L 984 0 
L 422 0 
z
" transform="scale(0.015625)"/>
       <path id="ArialMT-20" transform="scale(0.015625)"/>
       <path id="ArialMT-75" d="M 2597 0 
L 2597 488 
Q 2209 -75 1544 -75 
Q 1250 -75 995 37 
Q 741 150 617 320 
Q 494 491 444 738 
Q 409 903 409 1263 
L 409 3319 
L 972 3319 
L 972 1478 
Q 972 1038 1006 884 
Q 1059 663 1231 536 
Q 1403 409 1656 409 
Q 1909 409 2131 539 
Q 2353 669 2445 892 
Q 2538 1116 2538 1541 
L 2538 3319 
L 3100 3319 
L 3100 0 
L 2597 0 
z
" transform="scale(0.015625)"/>
       <path id="ArialMT-72" d="M 416 0 
L 416 3319 
L 922 3319 
L 922 2816 
Q 1116 3169 1280 3281 
Q 1444 3394 1641 3394 
Q 1925 3394 2219 3213 
L 2025 2691 
Q 1819 2813 1613 2813 
Q 1428 2813 1281 2702 
Q 1134 2591 1072 2394 
Q 978 2094 978 1738 
L 978 0 
L 416 0 
z
" transform="scale(0.015625)"/>
       <path id="ArialMT-74" d="M 1650 503 
L 1731 6 
Q 1494 -44 1306 -44 
Q 1000 -44 831 53 
Q 663 150 594 308 
Q 525 466 525 972 
L 525 2881 
L 113 2881 
L 113 3319 
L 525 3319 
L 525 4141 
L 1084 4478 
L 1084 3319 
L 1650 3319 
L 1650 2881 
L 1084 2881 
L 1084 941 
Q 1084 700 1114 631 
Q 1144 563 1211 522 
Q 1278 481 1403 481 
Q 1497 481 1650 503 
z
" transform="scale(0.015625)"/>
       <path id="ArialMT-69" d="M 425 3934 
L 425 4581 
L 988 4581 
L 988 3934 
L 425 3934 
z
M 425 0 
L 425 3319 
L 988 3319 
L 988 0 
L 425 0 
z
" transform="scale(0.015625)"/>
       <path id="ArialMT-6f" d="M 213 1659 
Q 213 2581 725 3025 
Q 1153 3394 1769 3394 
Q 2453 3394 2887 2945 
Q 3322 2497 3322 1706 
Q 3322 1066 3130 698 
Q 2938 331 2570 128 
Q 2203 -75 1769 -75 
Q 1072 -75 642 372 
Q 213 819 213 1659 
z
M 791 1659 
Q 791 1022 1069 705 
Q 1347 388 1769 388 
Q 2188 388 2466 706 
Q 2744 1025 2744 1678 
Q 2744 2294 2464 2611 
Q 2184 2928 1769 2928 
Q 1347 2928 1069 2612 
Q 791 2297 791 1659 
z
" transform="scale(0.015625)"/>
       <path id="ArialMT-28" d="M 1497 -1347 
Q 1031 -759 709 28 
Q 388 816 388 1659 
Q 388 2403 628 3084 
Q 909 3875 1497 4659 
L 1900 4659 
Q 1522 4009 1400 3731 
Q 1209 3300 1100 2831 
Q 966 2247 966 1656 
Q 966 153 1900 -1347 
L 1497 -1347 
z
" transform="scale(0.015625)"/>
       <path id="ArialMT-29" d="M 791 -1347 
L 388 -1347 
Q 1322 153 1322 1656 
Q 1322 2244 1188 2822 
Q 1081 3291 891 3722 
Q 769 4003 388 4659 
L 791 4659 
Q 1378 3875 1659 3084 
Q 1900 2403 1900 1659 
Q 1900 816 1576 28 
Q 1253 -759 791 -1347 
z
" transform="scale(0.015625)"/>
      </defs>
      <use xlink:href="#ArialMT-48"/>
      <use xlink:href="#ArialMT-61" transform="translate(72.216797 0)"/>
      <use xlink:href="#ArialMT-6e" transform="translate(127.832031 0)"/>
      <use xlink:href="#ArialMT-64" transform="translate(183.447266 0)"/>
      <use xlink:href="#ArialMT-73" transform="translate(239.0625 0)"/>
      <use xlink:href="#ArialMT-68" transform="translate(289.0625 0)"/>
      <use xlink:href="#ArialMT-61" transform="translate(344.677734 0)"/>
      <use xlink:href="#ArialMT-6b" transform="translate(400.292969 0)"/>
      <use xlink:href="#ArialMT-65" transform="translate(450.292969 0)"/>
      <use xlink:href="#ArialMT-20" transform="translate(505.908203 0)"/>
      <use xlink:href="#ArialMT-64" transform="translate(533.691406 0)"/>
      <use xlink:href="#ArialMT-75" transform="translate(589.306641 0)"/>
      <use xlink:href="#ArialMT-72" transform="translate(644.921875 0)"/>
      <use xlink:href="#ArialMT-61" transform="translate(678.222656 0)"/>
      <use xlink:href="#ArialMT-74" transform="translate(733.837891 0)"/>
      <use xlink:href="#ArialMT-69" transform="translate(761.621094 0)"/>
      <use xlink:href="#ArialMT-6f" transform="translate(783.837891 0)"/>
      <use xlink:href="#ArialMT-6e" transform="translate(839.453125 0)"/>
      <use xlink:href="#ArialMT-20" transform="translate(895.068359 0)"/>
      <use xlink:href="#ArialMT-28" transform="translate(922.851562 0)"/>
      <use xlink:href="#ArialMT-6d" transform="translate(956.152344 0)"/>
      <use xlink:href="#ArialMT-73" transform="translate(1039.453125 0)"/>
      <use xlink:href="#ArialMT-29" transform="translate(1089.453125 0)"/>
     </g>
    </g>
   </g>
   <g id="FillBetweenPolyCollection_1">
    <defs>
     <path id="m9e1bf28dd8" d="M 142.625319 -122.589819 
L 138.714681 -122.589819 
L 137.511217 -123.217965 
L 135.747728 -123.846111 
L 133.270719 -124.474256 
L 129.939276 -125.102402 
L 125.655014 -125.730548 
L 120.396785 -126.358693 
L 114.253644 -126.986839 
L 107.447399 -127.614985 
L 100.33599 -128.243131 
L 93.39146 -128.871276 
L 87.151537 -129.499422 
L 82.150527 -130.127568 
L 78.841558 -130.755713 
L 77.526 -131.383859 
L 78.305488 -132.012005 
L 81.067332 -132.64015 
L 85.506242 -133.268296 
L 91.176705 -133.896442 
L 97.563612 -134.524588 
L 104.15564 -135.152733 
L 110.507192 -135.780879 
L 116.279263 -136.409025 
L 121.255884 -137.03717 
L 125.338602 -137.665316 
L 128.525397 -138.293462 
L 130.881934 -138.921607 
L 132.512358 -139.549753 
L 133.534754 -140.177899 
L 134.063896 -140.806045 
L 134.201686 -141.43419 
L 134.03411 -142.062336 
L 133.632763 -142.690482 
L 133.058741 -143.318627 
L 132.36696 -143.946773 
L 131.60943 -144.574919 
L 130.836647 -145.203064 
L 130.096928 -145.83121 
L 129.43411 -146.459356 
L 128.884467 -147.087502 
L 128.47387 -147.715647 
L 128.216057 -148.343793 
L 128.112485 -148.971939 
L 128.153701 -149.600084 
L 128.321712 -150.22823 
L 128.592601 -150.856376 
L 128.938749 -151.484521 
L 129.330412 -152.112667 
L 129.736856 -152.740813 
L 130.127643 -153.368959 
L 130.474653 -153.997104 
L 130.755147 -154.62525 
L 130.955562 -155.253396 
L 131.075152 -155.881541 
L 131.128248 -156.509687 
L 131.144012 -157.137833 
L 131.163082 -157.765978 
L 131.231401 -158.394124 
L 131.39235 -159.02227 
L 131.678885 -159.650416 
L 132.1075 -160.278561 
L 132.675357 -160.906707 
L 133.361133 -161.534853 
L 134.129201 -162.162998 
L 134.935986 -162.791144 
L 135.736972 -163.41929 
L 136.492891 -164.047436 
L 137.174043 -164.675581 
L 137.762317 -165.303727 
L 138.251045 -165.931873 
L 138.643243 -166.560018 
L 138.948972 -167.188164 
L 139.182472 -167.81631 
L 139.359585 -168.444455 
L 139.495718 -169.072601 
L 139.604426 -169.700747 
L 139.696576 -170.328893 
L 139.779984 -170.957038 
L 139.859435 -171.585184 
L 139.937018 -172.21333 
L 140.012683 -172.841475 
L 140.084975 -173.469621 
L 140.151825 -174.097767 
L 140.211305 -174.725912 
L 140.262219 -175.354058 
L 140.304437 -175.982204 
L 140.338935 -176.61035 
L 140.367556 -177.238495 
L 140.392584 -177.866641 
L 140.416234 -178.494787 
L 140.440224 -179.122932 
L 140.465487 -179.751078 
L 140.492114 -180.379224 
L 140.519483 -181.007369 
L 140.546521 -181.635515 
L 140.572028 -182.263661 
L 140.594945 -182.891807 
L 140.614548 -183.519952 
L 140.630523 -184.148098 
L 140.642933 -184.776244 
L 140.697067 -184.776244 
L 140.697067 -184.776244 
L 140.709477 -184.148098 
L 140.725452 -183.519952 
L 140.745055 -182.891807 
L 140.767972 -182.263661 
L 140.793479 -181.635515 
L 140.820517 -181.007369 
L 140.847886 -180.379224 
L 140.874513 -179.751078 
L 140.899776 -179.122932 
L 140.923766 -178.494787 
L 140.947416 -177.866641 
L 140.972444 -177.238495 
L 141.001065 -176.61035 
L 141.035563 -175.982204 
L 141.077781 -175.354058 
L 141.128695 -174.725912 
L 141.188175 -174.097767 
L 141.255025 -173.469621 
L 141.327317 -172.841475 
L 141.402982 -172.21333 
L 141.480565 -171.585184 
L 141.560016 -170.957038 
L 141.643424 -170.328893 
L 141.735574 -169.700747 
L 141.844282 -169.072601 
L 141.980415 -168.444455 
L 142.157528 -167.81631 
L 142.391028 -167.188164 
L 142.696757 -166.560018 
L 143.088955 -165.931873 
L 143.577683 -165.303727 
L 144.165957 -164.675581 
L 144.847109 -164.047436 
L 145.603028 -163.41929 
L 146.404014 -162.791144 
L 147.210799 -162.162998 
L 147.978867 -161.534853 
L 148.664643 -160.906707 
L 149.2325 -160.278561 
L 149.661115 -159.650416 
L 149.94765 -159.02227 
L 150.108599 -158.394124 
L 150.176918 -157.765978 
L 150.195988 -157.137833 
L 150.211752 -156.509687 
L 150.264848 -155.881541 
L 150.384438 -155.253396 
L 150.584853 -154.62525 
L 150.865347 -153.997104 
L 151.212357 -153.368959 
L 151.603144 -152.740813 
L 152.009588 -152.112667 
L 152.401251 -151.484521 
L 152.747399 -150.856376 
L 153.018288 -150.22823 
L 153.186299 -149.600084 
L 153.227515 -148.971939 
L 153.123943 -148.343793 
L 152.86613 -147.715647 
L 152.455533 -147.087502 
L 151.90589 -146.459356 
L 151.243072 -145.83121 
L 150.503353 -145.203064 
L 149.73057 -144.574919 
L 148.97304 -143.946773 
L 148.281259 -143.318627 
L 147.707237 -142.690482 
L 147.30589 -142.062336 
L 147.138314 -141.43419 
L 147.276104 -140.806045 
L 147.805246 -140.177899 
L 148.827642 -139.549753 
L 150.458066 -138.921607 
L 152.814603 -138.293462 
L 156.001398 -137.665316 
L 160.084116 -137.03717 
L 165.060737 -136.409025 
L 170.832808 -135.780879 
L 177.18436 -135.152733 
L 183.776388 -134.524588 
L 190.163295 -133.896442 
L 195.833758 -133.268296 
L 200.272668 -132.64015 
L 203.034512 -132.012005 
L 203.814 -131.383859 
L 202.498442 -130.755713 
L 199.189473 -130.127568 
L 194.188463 -129.499422 
L 187.94854 -128.871276 
L 181.00401 -128.243131 
L 173.892601 -127.614985 
L 167.086356 -126.986839 
L 160.943215 -126.358693 
L 155.684986 -125.730548 
L 151.400724 -125.102402 
L 148.069281 -124.474256 
L 145.592272 -123.846111 
L 143.828783 -123.217965 
L 142.625319 -122.589819 
z
" style="stroke: #595959; stroke-width: 1.25"/>
    </defs>
    <g clip-path="url(#peac03cb479)">
     <use xlink:href="#m9e1bf28dd8" x="0" y="432" style="fill: #72b6a1; stroke: #595959; stroke-width: 1.25"/>
    </g>
   </g>
   <g id="FillBetweenPolyCollection_2">
    <defs>
     <path id="m66792d6b29" d="M 299.385608 -109.518862 
L 297.674392 -109.518862 
L 297.00835 -109.98163 
L 295.93693 -110.444399 
L 294.294687 -110.907168 
L 291.898012 -111.369937 
L 288.571159 -111.832705 
L 284.18475 -112.295474 
L 278.701959 -112.758243 
L 272.222683 -113.221012 
L 265.012619 -113.68378 
L 257.504258 -114.146549 
L 250.261674 -114.609318 
L 243.909983 -115.072086 
L 239.041079 -115.534855 
L 236.115836 -115.997624 
L 235.386 -116.460393 
L 236.854765 -116.923161 
L 240.284729 -117.38593 
L 245.249153 -117.848699 
L 251.211591 -118.311468 
L 257.613512 -118.774236 
L 263.950629 -119.237005 
L 269.824926 -119.699774 
L 274.967894 -120.162542 
L 279.238211 -120.625311 
L 282.601847 -121.08808 
L 285.103899 -121.550849 
L 286.839958 -122.013617 
L 287.931951 -122.476386 
L 288.510444 -122.939155 
L 288.703198 -123.401924 
L 288.628617 -123.864692 
L 288.392453 -124.327461 
L 288.086285 -124.79023 
L 287.786749 -125.252998 
L 287.554878 -125.715767 
L 287.43538 -126.178536 
L 287.456028 -126.641305 
L 287.627632 -127.104073 
L 287.945109 -127.566842 
L 288.389995 -128.029611 
L 288.934273 -128.49238 
L 289.544966 -128.955148 
L 290.188624 -129.417917 
L 290.834867 -129.880686 
L 291.45847 -130.343454 
L 292.039944 -130.806223 
L 292.564997 -131.268992 
L 293.023465 -131.731761 
L 293.408286 -132.194529 
L 293.71494 -132.657298 
L 293.941495 -133.120067 
L 294.089238 -133.582836 
L 294.163641 -134.045604 
L 294.175298 -134.508373 
L 294.140365 -134.971142 
L 294.080062 -135.43391 
L 294.018986 -135.896679 
L 293.982294 -136.359448 
L 293.992259 -136.822217 
L 294.064995 -137.284985 
L 294.208202 -137.747754 
L 294.420547 -138.210523 
L 294.692817 -138.673292 
L 295.010403 -139.13606 
L 295.356329 -139.598829 
L 295.71394 -140.061598 
L 296.068659 -140.524366 
L 296.408608 -140.987135 
L 296.724399 -141.449904 
L 297.008568 -141.912673 
L 297.255155 -142.375441 
L 297.459689 -142.83821 
L 297.619544 -143.300979 
L 297.734462 -143.763748 
L 297.806951 -144.226516 
L 297.842364 -144.689285 
L 297.848568 -145.152054 
L 297.835239 -145.614822 
L 297.812836 -146.077591 
L 297.791395 -146.54036 
L 297.779281 -147.003129 
L 297.782148 -147.465897 
L 297.802345 -147.928666 
L 297.838962 -148.391435 
L 297.88855 -148.854203 
L 297.946327 -149.316972 
L 298.007499 -149.779741 
L 298.068311 -150.24251 
L 298.126537 -150.705278 
L 298.181365 -151.168047 
L 298.232861 -151.630816 
L 298.281299 -152.093585 
L 298.326674 -152.556353 
L 298.368515 -153.019122 
L 298.406024 -153.481891 
L 298.438375 -153.944659 
L 298.465026 -154.407428 
L 298.485898 -154.870197 
L 298.5014 -155.332966 
L 298.5586 -155.332966 
L 298.5586 -155.332966 
L 298.574102 -154.870197 
L 298.594974 -154.407428 
L 298.621625 -153.944659 
L 298.653976 -153.481891 
L 298.691485 -153.019122 
L 298.733326 -152.556353 
L 298.778701 -152.093585 
L 298.827139 -151.630816 
L 298.878635 -151.168047 
L 298.933463 -150.705278 
L 298.991689 -150.24251 
L 299.052501 -149.779741 
L 299.113673 -149.316972 
L 299.17145 -148.854203 
L 299.221038 -148.391435 
L 299.257655 -147.928666 
L 299.277852 -147.465897 
L 299.280719 -147.003129 
L 299.268605 -146.54036 
L 299.247164 -146.077591 
L 299.224761 -145.614822 
L 299.211432 -145.152054 
L 299.217636 -144.689285 
L 299.253049 -144.226516 
L 299.325538 -143.763748 
L 299.440456 -143.300979 
L 299.600311 -142.83821 
L 299.804845 -142.375441 
L 300.051432 -141.912673 
L 300.335601 -141.449904 
L 300.651392 -140.987135 
L 300.991341 -140.524366 
L 301.34606 -140.061598 
L 301.703671 -139.598829 
L 302.049597 -139.13606 
L 302.367183 -138.673292 
L 302.639453 -138.210523 
L 302.851798 -137.747754 
L 302.995005 -137.284985 
L 303.067741 -136.822217 
L 303.077706 -136.359448 
L 303.041014 -135.896679 
L 302.979938 -135.43391 
L 302.919635 -134.971142 
L 302.884702 -134.508373 
L 302.896359 -134.045604 
L 302.970762 -133.582836 
L 303.118505 -133.120067 
L 303.34506 -132.657298 
L 303.651714 -132.194529 
L 304.036535 -131.731761 
L 304.495003 -131.268992 
L 305.020056 -130.806223 
L 305.60153 -130.343454 
L 306.225133 -129.880686 
L 306.871376 -129.417917 
L 307.515034 -128.955148 
L 308.125727 -128.49238 
L 308.670005 -128.029611 
L 309.114891 -127.566842 
L 309.432368 -127.104073 
L 309.603972 -126.641305 
L 309.62462 -126.178536 
L 309.505122 -125.715767 
L 309.273251 -125.252998 
L 308.973715 -124.79023 
L 308.667547 -124.327461 
L 308.431383 -123.864692 
L 308.356802 -123.401924 
L 308.549556 -122.939155 
L 309.128049 -122.476386 
L 310.220042 -122.013617 
L 311.956101 -121.550849 
L 314.458153 -121.08808 
L 317.821789 -120.625311 
L 322.092106 -120.162542 
L 327.235074 -119.699774 
L 333.109371 -119.237005 
L 339.446488 -118.774236 
L 345.848409 -118.311468 
L 351.810847 -117.848699 
L 356.775271 -117.38593 
L 360.205235 -116.923161 
L 361.674 -116.460393 
L 360.944164 -115.997624 
L 358.018921 -115.534855 
L 353.150017 -115.072086 
L 346.798326 -114.609318 
L 339.555742 -114.146549 
L 332.047381 -113.68378 
L 324.837317 -113.221012 
L 318.358041 -112.758243 
L 312.87525 -112.295474 
L 308.488841 -111.832705 
L 305.161988 -111.369937 
L 302.765313 -110.907168 
L 301.12307 -110.444399 
L 300.05165 -109.98163 
L 299.385608 -109.518862 
z
" style="stroke: #595959; stroke-width: 1.25"/>
    </defs>
    <g clip-path="url(#peac03cb479)">
     <use xlink:href="#m66792d6b29" x="0" y="432" style="fill: #e99675; stroke: #595959; stroke-width: 1.25"/>
    </g>
   </g>
   <g id="FillBetweenPolyCollection_3">
    <defs>
     <path id="m85aa643537" d="M 457.409282 -198.903919 
L 455.370718 -198.903919 
L 454.231514 -199.937605 
L 452.158908 -200.971291 
L 448.708208 -202.004977 
L 443.464453 -203.038663 
L 436.220252 -204.072349 
L 427.179542 -205.106036 
L 417.095129 -206.139722 
L 407.237407 -207.173408 
L 399.14424 -208.207094 
L 394.206699 -209.24078 
L 393.246 -210.274466 
L 396.264738 -211.308153 
L 402.481156 -212.341839 
L 410.618534 -213.375525 
L 419.306826 -214.409211 
L 427.426563 -215.442897 
L 434.28806 -216.476584 
L 439.637137 -217.51027 
L 443.548708 -218.543956 
L 446.284815 -219.577642 
L 448.169526 -220.611328 
L 449.501366 -221.645014 
L 450.504583 -222.678701 
L 451.31414 -223.712387 
L 451.987307 -224.746073 
L 452.531908 -225.779759 
L 452.938721 -226.813445 
L 453.206531 -227.847131 
L 453.353554 -228.880818 
L 453.415634 -229.914504 
L 453.436338 -230.94819 
L 453.455147 -231.981876 
L 453.498345 -233.015562 
L 453.574944 -234.049248 
L 453.678293 -235.082935 
L 453.792706 -236.116621 
L 453.902824 -237.150307 
L 454.001877 -238.183993 
L 454.094922 -239.217679 
L 454.195491 -240.251365 
L 454.317808 -241.285052 
L 454.469206 -242.318738 
L 454.646706 -243.352424 
L 454.838584 -244.38611 
L 455.028764 -245.419796 
L 455.201299 -246.453482 
L 455.343677 -247.487169 
L 455.449212 -248.520855 
L 455.518744 -249.554541 
L 455.560789 -250.588227 
L 455.588973 -251.621913 
L 455.616863 -252.655599 
L 455.652335 -253.689286 
L 455.694434 -254.722972 
L 455.734567 -255.756658 
L 455.761545 -256.790344 
L 455.767937 -257.82403 
L 455.754626 -258.857716 
L 455.731434 -259.891403 
L 455.713615 -260.925089 
L 455.716011 -261.958775 
L 455.747618 -262.992461 
L 455.808841 -264.026147 
L 455.89211 -265.059833 
L 455.984905 -266.09352 
L 456.073499 -267.127206 
L 456.146106 -268.160892 
L 456.194855 -269.194578 
L 456.216604 -270.228264 
L 456.212712 -271.26195 
L 456.187899 -272.295637 
L 456.148506 -273.329323 
L 456.100787 -274.363009 
L 456.050027 -275.396695 
L 456.000789 -276.430381 
L 455.957763 -277.464067 
L 455.926121 -278.497754 
L 455.910704 -279.53144 
L 455.914424 -280.565126 
L 455.937081 -281.598812 
L 455.975496 -282.632498 
L 456.024729 -283.666184 
L 456.079355 -284.699871 
L 456.134007 -285.733557 
L 456.183322 -286.767243 
L 456.222072 -287.800929 
L 456.246073 -288.834615 
L 456.253675 -289.868302 
L 456.246982 -290.901988 
L 456.231903 -291.935674 
L 456.216664 -292.96936 
L 456.209187 -294.003046 
L 456.214436 -295.036732 
L 456.232937 -296.070419 
L 456.26112 -297.104105 
L 456.293189 -298.137791 
L 456.323484 -299.171477 
L 456.348214 -300.205163 
L 456.366002 -301.238849 
L 456.413998 -301.238849 
L 456.413998 -301.238849 
L 456.431786 -300.205163 
L 456.456516 -299.171477 
L 456.486811 -298.137791 
L 456.51888 -297.104105 
L 456.547063 -296.070419 
L 456.565564 -295.036732 
L 456.570813 -294.003046 
L 456.563336 -292.96936 
L 456.548097 -291.935674 
L 456.533018 -290.901988 
L 456.526325 -289.868302 
L 456.533927 -288.834615 
L 456.557928 -287.800929 
L 456.596678 -286.767243 
L 456.645993 -285.733557 
L 456.700645 -284.699871 
L 456.755271 -283.666184 
L 456.804504 -282.632498 
L 456.842919 -281.598812 
L 456.865576 -280.565126 
L 456.869296 -279.53144 
L 456.853879 -278.497754 
L 456.822237 -277.464067 
L 456.779211 -276.430381 
L 456.729973 -275.396695 
L 456.679213 -274.363009 
L 456.631494 -273.329323 
L 456.592101 -272.295637 
L 456.567288 -271.26195 
L 456.563396 -270.228264 
L 456.585145 -269.194578 
L 456.633894 -268.160892 
L 456.706501 -267.127206 
L 456.795095 -266.09352 
L 456.88789 -265.059833 
L 456.971159 -264.026147 
L 457.032382 -262.992461 
L 457.063989 -261.958775 
L 457.066385 -260.925089 
L 457.048566 -259.891403 
L 457.025374 -258.857716 
L 457.012063 -257.82403 
L 457.018455 -256.790344 
L 457.045433 -255.756658 
L 457.085566 -254.722972 
L 457.127665 -253.689286 
L 457.163137 -252.655599 
L 457.191027 -251.621913 
L 457.219211 -250.588227 
L 457.261256 -249.554541 
L 457.330788 -248.520855 
L 457.436323 -247.487169 
L 457.578701 -246.453482 
L 457.751236 -245.419796 
L 457.941416 -244.38611 
L 458.133294 -243.352424 
L 458.310794 -242.318738 
L 458.462192 -241.285052 
L 458.584509 -240.251365 
L 458.685078 -239.217679 
L 458.778123 -238.183993 
L 458.877176 -237.150307 
L 458.987294 -236.116621 
L 459.101707 -235.082935 
L 459.205056 -234.049248 
L 459.281655 -233.015562 
L 459.324853 -231.981876 
L 459.343662 -230.94819 
L 459.364366 -229.914504 
L 459.426446 -228.880818 
L 459.573469 -227.847131 
L 459.841279 -226.813445 
L 460.248092 -225.779759 
L 460.792693 -224.746073 
L 461.46586 -223.712387 
L 462.275417 -222.678701 
L 463.278634 -221.645014 
L 464.610474 -220.611328 
L 466.495185 -219.577642 
L 469.231292 -218.543956 
L 473.142863 -217.51027 
L 478.49194 -216.476584 
L 485.353437 -215.442897 
L 493.473174 -214.409211 
L 502.161466 -213.375525 
L 510.298844 -212.341839 
L 516.515262 -211.308153 
L 519.534 -210.274466 
L 518.573301 -209.24078 
L 513.63576 -208.207094 
L 505.542593 -207.173408 
L 495.684871 -206.139722 
L 485.600458 -205.106036 
L 476.559748 -204.072349 
L 469.315547 -203.038663 
L 464.071792 -202.004977 
L 460.621092 -200.971291 
L 458.548486 -199.937605 
L 457.409282 -198.903919 
z
" style="stroke: #595959; stroke-width: 1.25"/>
    </defs>
    <g clip-path="url(#peac03cb479)">
     <use xlink:href="#m85aa643537" x="0" y="432" style="fill: #95a3c3; stroke: #595959; stroke-width: 1.25"/>
    </g>
   </g>
   <g id="FillBetweenPolyCollection_4">
    <defs>
     <path id="m9e7df64239" d="M 615.184724 -132.138154 
L 613.315276 -132.138154 
L 612.526385 -132.630531 
L 611.233224 -133.122908 
L 609.233226 -133.615285 
L 606.315038 -134.107662 
L 602.299562 -134.600038 
L 597.093291 -135.092415 
L 590.743311 -135.584792 
L 583.478592 -136.077169 
L 575.721565 -136.569546 
L 568.058833 -137.061923 
L 561.169543 -137.5543 
L 555.722044 -138.046677 
L 552.260174 -138.539054 
L 551.106 -139.031431 
L 552.303562 -139.523808 
L 555.618127 -140.016185 
L 560.590426 -140.508562 
L 566.630435 -141.000939 
L 573.125568 -141.493316 
L 579.53684 -141.985693 
L 585.463292 -142.47807 
L 590.666423 -142.970447 
L 595.058042 -143.462824 
L 598.663247 -143.955201 
L 601.573426 -144.447578 
L 603.902719 -144.939955 
L 605.756798 -145.432332 
L 607.217099 -145.924709 
L 608.33874 -146.417085 
L 609.157363 -146.909462 
L 609.699506 -147.401839 
L 609.992202 -147.894216 
L 610.06935 -148.386593 
L 609.974103 -148.87897 
L 609.757543 -149.371347 
L 609.47456 -149.863724 
L 609.178197 -150.356101 
L 608.914017 -150.848478 
L 608.716064 -151.340855 
L 608.605459 -151.833232 
L 608.591714 -152.325609 
L 608.675753 -152.817986 
L 608.853033 -153.310363 
L 609.115498 -153.80274 
L 609.452002 -154.295117 
L 609.847943 -154.787494 
L 610.285291 -155.279871 
L 610.743828 -155.772248 
L 611.203522 -156.264625 
L 611.647129 -156.757002 
L 612.061906 -157.249379 
L 612.439787 -157.741756 
L 612.776214 -158.234132 
L 613.068447 -158.726509 
L 613.314334 -159.218886 
L 613.512079 -159.711263 
L 613.660938 -160.20364 
L 613.762233 -160.696017 
L 613.819984 -161.188394 
L 613.840697 -161.680771 
L 613.832321 -162.173148 
L 613.802769 -162.665525 
L 613.75858 -163.157902 
L 613.704197 -163.650279 
L 613.642055 -164.142656 
L 613.573365 -164.635033 
L 613.499239 -165.12741 
L 613.421701 -165.619787 
L 613.34423 -166.112164 
L 613.271653 -166.604541 
L 613.209454 -167.096918 
L 613.162761 -167.589295 
L 613.135366 -168.081672 
L 613.12905 -168.574049 
L 613.143342 -169.066426 
L 613.175677 -169.558803 
L 613.221805 -170.05118 
L 613.276319 -170.543556 
L 613.333239 -171.035933 
L 613.38666 -171.52831 
L 613.431472 -172.020687 
L 613.464151 -172.513064 
L 613.483465 -173.005441 
L 613.49094 -173.497818 
L 613.490837 -173.990195 
L 613.489562 -174.482572 
L 613.4945 -174.974949 
L 613.512508 -175.467326 
L 613.548405 -175.959703 
L 613.60384 -176.45208 
L 613.676888 -176.944457 
L 613.762473 -177.436834 
L 613.853537 -177.929211 
L 613.942593 -178.421588 
L 614.023221 -178.913965 
L 614.09111 -179.406342 
L 614.144428 -179.898719 
L 614.183562 -180.391096 
L 614.210443 -180.883473 
L 614.289557 -180.883473 
L 614.289557 -180.883473 
L 614.316438 -180.391096 
L 614.355572 -179.898719 
L 614.40889 -179.406342 
L 614.476779 -178.913965 
L 614.557407 -178.421588 
L 614.646463 -177.929211 
L 614.737527 -177.436834 
L 614.823112 -176.944457 
L 614.89616 -176.45208 
L 614.951595 -175.959703 
L 614.987492 -175.467326 
L 615.0055 -174.974949 
L 615.010438 -174.482572 
L 615.009163 -173.990195 
L 615.00906 -173.497818 
L 615.016535 -173.005441 
L 615.035849 -172.513064 
L 615.068528 -172.020687 
L 615.11334 -171.52831 
L 615.166761 -171.035933 
L 615.223681 -170.543556 
L 615.278195 -170.05118 
L 615.324323 -169.558803 
L 615.356658 -169.066426 
L 615.37095 -168.574049 
L 615.364634 -168.081672 
L 615.337239 -167.589295 
L 615.290546 -167.096918 
L 615.228347 -166.604541 
L 615.15577 -166.112164 
L 615.078299 -165.619787 
L 615.000761 -165.12741 
L 614.926635 -164.635033 
L 614.857945 -164.142656 
L 614.795803 -163.650279 
L 614.74142 -163.157902 
L 614.697231 -162.665525 
L 614.667679 -162.173148 
L 614.659303 -161.680771 
L 614.680016 -161.188394 
L 614.737767 -160.696017 
L 614.839062 -160.20364 
L 614.987921 -159.711263 
L 615.185666 -159.218886 
L 615.431553 -158.726509 
L 615.723786 -158.234132 
L 616.060213 -157.741756 
L 616.438094 -157.249379 
L 616.852871 -156.757002 
L 617.296478 -156.264625 
L 617.756172 -155.772248 
L 618.214709 -155.279871 
L 618.652057 -154.787494 
L 619.047998 -154.295117 
L 619.384502 -153.80274 
L 619.646967 -153.310363 
L 619.824247 -152.817986 
L 619.908286 -152.325609 
L 619.894541 -151.833232 
L 619.783936 -151.340855 
L 619.585983 -150.848478 
L 619.321803 -150.356101 
L 619.02544 -149.863724 
L 618.742457 -149.371347 
L 618.525897 -148.87897 
L 618.43065 -148.386593 
L 618.507798 -147.894216 
L 618.800494 -147.401839 
L 619.342637 -146.909462 
L 620.16126 -146.417085 
L 621.282901 -145.924709 
L 622.743202 -145.432332 
L 624.597281 -144.939955 
L 626.926574 -144.447578 
L 629.836753 -143.955201 
L 633.441958 -143.462824 
L 637.833577 -142.970447 
L 643.036708 -142.47807 
L 648.96316 -141.985693 
L 655.374432 -141.493316 
L 661.869565 -141.000939 
L 667.909574 -140.508562 
L 672.881873 -140.016185 
L 676.196438 -139.523808 
L 677.394 -139.031431 
L 676.239826 -138.539054 
L 672.777956 -138.046677 
L 667.330457 -137.5543 
L 660.441167 -137.061923 
L 652.778435 -136.569546 
L 645.021408 -136.077169 
L 637.756689 -135.584792 
L 631.406709 -135.092415 
L 626.200438 -134.600038 
L 622.184962 -134.107662 
L 619.266774 -133.615285 
L 617.266776 -133.122908 
L 615.973615 -132.630531 
L 615.184724 -132.138154 
z
" style="stroke: #595959; stroke-width: 1.25"/>
    </defs>
    <g clip-path="url(#peac03cb479)">
     <use xlink:href="#m9e7df64239" x="0" y="432" style="fill: #db96c0; stroke: #595959; stroke-width: 1.25"/>
    </g>
   </g>
   <g id="FillBetweenPolyCollection_5">
    <defs>
     <path id="m8f2130592c" d="M 772.45227 -102.087678 
L 771.76773 -102.087678 
L 771.399945 -102.430696 
L 770.723596 -102.773714 
L 769.560455 -103.116733 
L 767.69046 -103.459751 
L 764.880911 -103.802769 
L 760.937905 -104.145788 
L 755.771794 -104.488806 
L 749.457983 -104.831824 
L 742.269118 -105.174842 
L 734.660048 -105.517861 
L 727.202934 -105.860879 
L 720.48986 -106.203897 
L 715.033823 -106.546916 
L 711.198054 -106.889934 
L 709.168712 -107.232952 
L 708.966 -107.57597 
L 710.475233 -107.918989 
L 713.479122 -108.262007 
L 717.682895 -108.605025 
L 722.735926 -108.948043 
L 728.258594 -109.291062 
L 733.878762 -109.63408 
L 739.273143 -109.977098 
L 744.202138 -110.320117 
L 748.526983 -110.663135 
L 752.204541 -111.006153 
L 755.263463 -111.349171 
L 757.771416 -111.69219 
L 759.804485 -112.035208 
L 761.427267 -112.378226 
L 762.687159 -112.721245 
L 763.620989 -113.064263 
L 764.267951 -113.407281 
L 764.681257 -113.750299 
L 764.932351 -114.093318 
L 765.105412 -114.436336 
L 765.284348 -114.779354 
L 765.53746 -115.122373 
L 765.905296 -115.465391 
L 766.395279 -115.808409 
L 766.983836 -116.151427 
L 767.624442 -116.494446 
L 768.258838 -116.837464 
L 768.828666 -117.180482 
L 769.285438 -117.523501 
L 769.597809 -117.866519 
L 769.755994 -118.209537 
L 769.77347 -118.552555 
L 769.685703 -118.895574 
L 769.545174 -119.238592 
L 769.412227 -119.58161 
L 769.342722 -119.924629 
L 769.375404 -120.267647 
L 769.523092 -120.610665 
L 769.771007 -120.953683 
L 770.082978 -121.296702 
L 770.413185 -121.63972 
L 770.719052 -121.982738 
L 770.971053 -122.325757 
L 771.156985 -122.668775 
L 771.280622 -123.011793 
L 771.356456 -123.354811 
L 771.402893 -123.69783 
L 771.43616 -124.040848 
L 771.466494 -124.383866 
L 771.497216 -124.726885 
L 771.526271 -125.069903 
L 771.548987 -125.412921 
L 771.560642 -125.755939 
L 771.55792 -126.098958 
L 771.539199 -126.441976 
L 771.504218 -126.784994 
L 771.453803 -127.128013 
L 771.38996 -127.471031 
L 771.316277 -127.814049 
L 771.238321 -128.157067 
L 771.16375 -128.500086 
L 771.1019 -128.843104 
L 771.062769 -129.186122 
L 771.055355 -129.52914 
L 771.08554 -129.872159 
L 771.15401 -130.215177 
L 771.254978 -130.558195 
L 771.376484 -130.901214 
L 771.502647 -131.244232 
L 771.617425 -131.58725 
L 771.70872 -131.930268 
L 771.771354 -132.273287 
L 771.807824 -132.616305 
L 771.826596 -132.959323 
L 771.838666 -133.302342 
L 771.853757 -133.64536 
L 771.877533 -133.988378 
L 771.910708 -134.331396 
L 771.950015 -134.674415 
L 771.990308 -135.017433 
L 772.02675 -135.360451 
L 772.056234 -135.70347 
L 772.077776 -136.046488 
L 772.142224 -136.046488 
L 772.142224 -136.046488 
L 772.163766 -135.70347 
L 772.19325 -135.360451 
L 772.229692 -135.017433 
L 772.269985 -134.674415 
L 772.309292 -134.331396 
L 772.342467 -133.988378 
L 772.366243 -133.64536 
L 772.381334 -133.302342 
L 772.393404 -132.959323 
L 772.412176 -132.616305 
L 772.448646 -132.273287 
L 772.51128 -131.930268 
L 772.602575 -131.58725 
L 772.717353 -131.244232 
L 772.843516 -130.901214 
L 772.965022 -130.558195 
L 773.06599 -130.215177 
L 773.13446 -129.872159 
L 773.164645 -129.52914 
L 773.157231 -129.186122 
L 773.1181 -128.843104 
L 773.05625 -128.500086 
L 772.981679 -128.157067 
L 772.903723 -127.814049 
L 772.83004 -127.471031 
L 772.766197 -127.128013 
L 772.715782 -126.784994 
L 772.680801 -126.441976 
L 772.66208 -126.098958 
L 772.659358 -125.755939 
L 772.671013 -125.412921 
L 772.693729 -125.069903 
L 772.722784 -124.726885 
L 772.753506 -124.383866 
L 772.78384 -124.040848 
L 772.817107 -123.69783 
L 772.863544 -123.354811 
L 772.939378 -123.011793 
L 773.063015 -122.668775 
L 773.248947 -122.325757 
L 773.500948 -121.982738 
L 773.806815 -121.63972 
L 774.137022 -121.296702 
L 774.448993 -120.953683 
L 774.696908 -120.610665 
L 774.844596 -120.267647 
L 774.877278 -119.924629 
L 774.807773 -119.58161 
L 774.674826 -119.238592 
L 774.534297 -118.895574 
L 774.44653 -118.552555 
L 774.464006 -118.209537 
L 774.622191 -117.866519 
L 774.934562 -117.523501 
L 775.391334 -117.180482 
L 775.961162 -116.837464 
L 776.595558 -116.494446 
L 777.236164 -116.151427 
L 777.824721 -115.808409 
L 778.314704 -115.465391 
L 778.68254 -115.122373 
L 778.935652 -114.779354 
L 779.114588 -114.436336 
L 779.287649 -114.093318 
L 779.538743 -113.750299 
L 779.952049 -113.407281 
L 780.599011 -113.064263 
L 781.532841 -112.721245 
L 782.792733 -112.378226 
L 784.415515 -112.035208 
L 786.448584 -111.69219 
L 788.956537 -111.349171 
L 792.015459 -111.006153 
L 795.693017 -110.663135 
L 800.017862 -110.320117 
L 804.946857 -109.977098 
L 810.341238 -109.63408 
L 815.961406 -109.291062 
L 821.484074 -108.948043 
L 826.537105 -108.605025 
L 830.740878 -108.262007 
L 833.744767 -107.918989 
L 835.254 -107.57597 
L 835.051288 -107.232952 
L 833.021946 -106.889934 
L 829.186177 -106.546916 
L 823.73014 -106.203897 
L 817.017066 -105.860879 
L 809.559952 -105.517861 
L 801.950882 -105.174842 
L 794.762017 -104.831824 
L 788.448206 -104.488806 
L 783.282095 -104.145788 
L 779.339089 -103.802769 
L 776.52954 -103.459751 
L 774.659545 -103.116733 
L 773.496404 -102.773714 
L 772.820055 -102.430696 
L 772.45227 -102.087678 
z
" style="stroke: #595959; stroke-width: 1.25"/>
    </defs>
    <g clip-path="url(#peac03cb479)">
     <use xlink:href="#m8f2130592c" x="0" y="432" style="fill: #a2c865; stroke: #595959; stroke-width: 1.25"/>
    </g>
   </g>
   <g id="line2d_9">
    <path d="M 140.67 300.987977 
L 140.67 303.035681 
" clip-path="url(#peac03cb479)" style="fill: none; stroke: #000000"/>
   </g>
   <g id="line2d_10">
    <path d="M 140.67 285.264536 
L 140.67 261.886582 
" clip-path="url(#peac03cb479)" style="fill: none; stroke: #000000"/>
   </g>
   <g id="line2d_11">
    <path d="M 134.75025 303.035681 
L 146.58975 303.035681 
" clip-path="url(#peac03cb479)" style="fill: none; stroke: #000000; stroke-linecap: round"/>
   </g>
   <g id="line2d_12">
    <path d="M 134.75025 261.886582 
L 146.58975 261.886582 
" clip-path="url(#peac03cb479)" style="fill: none; stroke: #000000; stroke-linecap: round"/>
   </g>
   <g id="line2d_13">
    <path d="M 298.53 316.101983 
L 298.53 318.344706 
" clip-path="url(#peac03cb479)" style="fill: none; stroke: #000000"/>
   </g>
   <g id="line2d_14">
    <path d="M 298.53 309.617587 
L 298.53 300.11039 
" clip-path="url(#peac03cb479)" style="fill: none; stroke: #000000"/>
   </g>
   <g id="line2d_15">
    <path d="M 292.61025 318.344706 
L 304.44975 318.344706 
" clip-path="url(#peac03cb479)" style="fill: none; stroke: #000000; stroke-linecap: round"/>
   </g>
   <g id="line2d_16">
    <path d="M 292.61025 300.11039 
L 304.44975 300.11039 
" clip-path="url(#peac03cb479)" style="fill: none; stroke: #000000; stroke-linecap: round"/>
   </g>
   <g id="line2d_17">
    <path d="M 456.39 222.980206 
L 456.39 226.198026 
" clip-path="url(#peac03cb479)" style="fill: none; stroke: #000000"/>
   </g>
   <g id="line2d_18">
    <path d="M 456.39 218.397249 
L 456.39 211.669079 
" clip-path="url(#peac03cb479)" style="fill: none; stroke: #000000"/>
   </g>
   <g id="line2d_19">
    <path d="M 450.47025 226.198026 
L 462.30975 226.198026 
" clip-path="url(#peac03cb479)" style="fill: none; stroke: #000000; stroke-linecap: round"/>
   </g>
   <g id="line2d_20">
    <path d="M 450.47025 211.669079 
L 462.30975 211.669079 
" clip-path="url(#peac03cb479)" style="fill: none; stroke: #000000; stroke-linecap: round"/>
   </g>
   <g id="line2d_21">
    <path d="M 614.25 293.674749 
L 614.25 295.917472 
" clip-path="url(#peac03cb479)" style="fill: none; stroke: #000000"/>
   </g>
   <g id="line2d_22">
    <path d="M 614.25 290.432551 
L 614.25 285.581442 
" clip-path="url(#peac03cb479)" style="fill: none; stroke: #000000"/>
   </g>
   <g id="line2d_23">
    <path d="M 608.33025 295.917472 
L 620.16975 295.917472 
" clip-path="url(#peac03cb479)" style="fill: none; stroke: #000000; stroke-linecap: round"/>
   </g>
   <g id="line2d_24">
    <path d="M 608.33025 285.581442 
L 620.16975 285.581442 
" clip-path="url(#peac03cb479)" style="fill: none; stroke: #000000; stroke-linecap: round"/>
   </g>
   <g id="line2d_25">
    <path d="M 772.11 325.267896 
L 772.11 327.41311 
" clip-path="url(#peac03cb479)" style="fill: none; stroke: #000000"/>
   </g>
   <g id="line2d_26">
    <path d="M 772.11 322.245095 
L 772.11 317.857158 
" clip-path="url(#peac03cb479)" style="fill: none; stroke: #000000"/>
   </g>
   <g id="line2d_27">
    <path d="M 766.19025 327.41311 
L 778.02975 327.41311 
" clip-path="url(#peac03cb479)" style="fill: none; stroke: #000000; stroke-linecap: round"/>
   </g>
   <g id="line2d_28">
    <path d="M 766.19025 317.857158 
L 778.02975 317.857158 
" clip-path="url(#peac03cb479)" style="fill: none; stroke: #000000; stroke-linecap: round"/>
   </g>
   <g id="line2d_29">
    <path d="M 128.8305 300.01288 
L 152.5095 300.01288 
" clip-path="url(#peac03cb479)" style="fill: none; stroke: #ff0000; stroke-width: 2"/>
   </g>
   <g id="line2d_30">
    <path d="M 286.6905 314.931866 
L 310.3695 314.931866 
" clip-path="url(#peac03cb479)" style="fill: none; stroke: #ff0000; stroke-width: 2"/>
   </g>
   <g id="line2d_31">
    <path d="M 444.5505 221.566315 
L 468.2295 221.566315 
" clip-path="url(#peac03cb479)" style="fill: none; stroke: #ff0000; stroke-width: 2"/>
   </g>
   <g id="line2d_32">
    <path d="M 602.4105 292.504632 
L 626.0895 292.504632 
" clip-path="url(#peac03cb479)" style="fill: none; stroke: #ff0000; stroke-width: 2"/>
   </g>
   <g id="line2d_33">
    <path d="M 760.2705 323.90276 
L 783.9495 323.90276 
" clip-path="url(#peac03cb479)" style="fill: none; stroke: #ff0000; stroke-width: 2"/>
   </g>
   <g id="patch_3">
    <path d="M 61.74 361.444 
L 61.74 20.16 
" style="fill: none; stroke: #cccccc; stroke-width: 1.25; stroke-linejoin: miter; stroke-linecap: square"/>
   </g>
   <g id="patch_4">
    <path d="M 851.04 361.444 
L 851.04 20.16 
" style="fill: none; stroke: #cccccc; stroke-width: 1.25; stroke-linejoin: miter; stroke-linecap: square"/>
   </g>
   <g id="patch_5">
    <path d="M 61.74 361.444 
L 851.04 361.444 
" style="fill: none; stroke: #cccccc; stroke-width: 1.25; stroke-linejoin: miter; stroke-linecap: square"/>
   </g>
   <g id="patch_6">
    <path d="M 61.74 20.16 
L 851.04 20.16 
" style="fill: none; stroke: #cccccc; stroke-width: 1.25; stroke-linejoin: miter; stroke-linecap: square"/>
   </g>
   <g id="text_15">
    <g id="patch_7">
     <path d="M 631.47375 63.116075 
L 820.575 63.116075 
L 820.575 28.2242 
L 631.47375 28.2242 
z
" style="fill: #ffffff; opacity: 0.8; stroke: #808080; stroke-linejoin: miter"/>
    </g>
    <!-- Signature: secp384r1 -->
    <g style="fill: #262626" transform="translate(640.47375 50.327638) scale(0.18 -0.18)">
     <defs>
      <path id="ArialMT-53" d="M 288 1472 
L 859 1522 
Q 900 1178 1048 958 
Q 1197 738 1509 602 
Q 1822 466 2213 466 
Q 2559 466 2825 569 
Q 3091 672 3220 851 
Q 3350 1031 3350 1244 
Q 3350 1459 3225 1620 
Q 3100 1781 2813 1891 
Q 2628 1963 1997 2114 
Q 1366 2266 1113 2400 
Q 784 2572 623 2826 
Q 463 3081 463 3397 
Q 463 3744 659 4045 
Q 856 4347 1234 4503 
Q 1613 4659 2075 4659 
Q 2584 4659 2973 4495 
Q 3363 4331 3572 4012 
Q 3781 3694 3797 3291 
L 3216 3247 
Q 3169 3681 2898 3903 
Q 2628 4125 2100 4125 
Q 1550 4125 1298 3923 
Q 1047 3722 1047 3438 
Q 1047 3191 1225 3031 
Q 1400 2872 2139 2705 
Q 2878 2538 3153 2413 
Q 3553 2228 3743 1945 
Q 3934 1663 3934 1294 
Q 3934 928 3725 604 
Q 3516 281 3123 101 
Q 2731 -78 2241 -78 
Q 1619 -78 1198 103 
Q 778 284 539 648 
Q 300 1013 288 1472 
z
" transform="scale(0.015625)"/>
      <path id="ArialMT-67" d="M 319 -275 
L 866 -356 
Q 900 -609 1056 -725 
Q 1266 -881 1628 -881 
Q 2019 -881 2231 -725 
Q 2444 -569 2519 -288 
Q 2563 -116 2559 434 
Q 2191 0 1641 0 
Q 956 0 581 494 
Q 206 988 206 1678 
Q 206 2153 378 2554 
Q 550 2956 876 3175 
Q 1203 3394 1644 3394 
Q 2231 3394 2613 2919 
L 2613 3319 
L 3131 3319 
L 3131 450 
Q 3131 -325 2973 -648 
Q 2816 -972 2473 -1159 
Q 2131 -1347 1631 -1347 
Q 1038 -1347 672 -1080 
Q 306 -813 319 -275 
z
M 784 1719 
Q 784 1066 1043 766 
Q 1303 466 1694 466 
Q 2081 466 2343 764 
Q 2606 1063 2606 1700 
Q 2606 2309 2336 2618 
Q 2066 2928 1684 2928 
Q 1309 2928 1046 2623 
Q 784 2319 784 1719 
z
" transform="scale(0.015625)"/>
      <path id="ArialMT-3a" d="M 578 2678 
L 578 3319 
L 1219 3319 
L 1219 2678 
L 578 2678 
z
M 578 0 
L 578 641 
L 1219 641 
L 1219 0 
L 578 0 
z
" transform="scale(0.015625)"/>
      <path id="ArialMT-63" d="M 2588 1216 
L 3141 1144 
Q 3050 572 2676 248 
Q 2303 -75 1759 -75 
Q 1078 -75 664 370 
Q 250 816 250 1647 
Q 250 2184 428 2587 
Q 606 2991 970 3192 
Q 1334 3394 1763 3394 
Q 2303 3394 2647 3120 
Q 2991 2847 3088 2344 
L 2541 2259 
Q 2463 2594 2264 2762 
Q 2066 2931 1784 2931 
Q 1359 2931 1093 2626 
Q 828 2322 828 1663 
Q 828 994 1084 691 
Q 1341 388 1753 388 
Q 2084 388 2306 591 
Q 2528 794 2588 1216 
z
" transform="scale(0.015625)"/>
      <path id="ArialMT-70" d="M 422 -1272 
L 422 3319 
L 934 3319 
L 934 2888 
Q 1116 3141 1344 3267 
Q 1572 3394 1897 3394 
Q 2322 3394 2647 3175 
Q 2972 2956 3137 2557 
Q 3303 2159 3303 1684 
Q 3303 1175 3120 767 
Q 2938 359 2589 142 
Q 2241 -75 1856 -75 
Q 1575 -75 1351 44 
Q 1128 163 984 344 
L 984 -1272 
L 422 -1272 
z
M 931 1641 
Q 931 1000 1190 694 
Q 1450 388 1819 388 
Q 2194 388 2461 705 
Q 2728 1022 2728 1688 
Q 2728 2322 2467 2637 
Q 2206 2953 1844 2953 
Q 1484 2953 1207 2617 
Q 931 2281 931 1641 
z
" transform="scale(0.015625)"/>
     </defs>
     <use xlink:href="#ArialMT-53"/>
     <use xlink:href="#ArialMT-69" transform="translate(66.699219 0)"/>
     <use xlink:href="#ArialMT-67" transform="translate(88.916016 0)"/>
     <use xlink:href="#ArialMT-6e" transform="translate(144.53125 0)"/>
     <use xlink:href="#ArialMT-61" transform="translate(200.146484 0)"/>
     <use xlink:href="#ArialMT-74" transform="translate(255.761719 0)"/>
     <use xlink:href="#ArialMT-75" transform="translate(283.544922 0)"/>
     <use xlink:href="#ArialMT-72" transform="translate(339.160156 0)"/>
     <use xlink:href="#ArialMT-65" transform="translate(372.460938 0)"/>
     <use xlink:href="#ArialMT-3a" transform="translate(428.076172 0)"/>
     <use xlink:href="#ArialMT-20" transform="translate(455.859375 0)"/>
     <use xlink:href="#ArialMT-73" transform="translate(483.642578 0)"/>
     <use xlink:href="#ArialMT-65" transform="translate(533.642578 0)"/>
     <use xlink:href="#ArialMT-63" transform="translate(589.257812 0)"/>
     <use xlink:href="#ArialMT-70" transform="translate(639.257812 0)"/>
     <use xlink:href="#ArialMT-33" transform="translate(694.873047 0)"/>
     <use xlink:href="#ArialMT-38" transform="translate(750.488281 0)"/>
     <use xlink:href="#ArialMT-34" transform="translate(806.103516 0)"/>
     <use xlink:href="#ArialMT-72" transform="translate(861.71875 0)"/>
     <use xlink:href="#ArialMT-31" transform="translate(895.019531 0)"/>
    </g>
   </g>
  </g>
 </g>
 <defs>
  <clipPath id="peac03cb479">
   <rect x="61.74" y="20.16" width="789.3" height="341.284"/>
  </clipPath>
 </defs>
</svg>
