<?xml version="1.0" encoding="utf-8" standalone="no"?>
<!DOCTYPE svg PUBLIC "-//W3C//DTD SVG 1.1//EN"
  "http://www.w3.org/Graphics/SVG/1.1/DTD/svg11.dtd">
<svg xmlns:xlink="http://www.w3.org/1999/xlink" width="864pt" height="432pt" viewBox="0 0 864 432" xmlns="http://www.w3.org/2000/svg" version="1.1">
 <metadata>
  <rdf:RDF xmlns:dc="http://purl.org/dc/elements/1.1/" xmlns:cc="http://creativecommons.org/ns#" xmlns:rdf="http://www.w3.org/1999/02/22-rdf-syntax-ns#">
   <cc:Work>
    <dc:type rdf:resource="http://purl.org/dc/dcmitype/StillImage"/>
    <dc:date>2025-10-07T07:40:25.108714</dc:date>
    <dc:format>image/svg+xml</dc:format>
    <dc:creator>
     <cc:Agent>
      <dc:title>Matplotlib v3.10.3, https://matplotlib.org/</dc:title>
     </cc:Agent>
    </dc:creator>
   </cc:Work>
  </rdf:RDF>
 </metadata>
 <defs>
  <style type="text/css">*{stroke-linejoin: round; stroke-linecap: butt}</style>
 </defs>
 <g id="figure_1">
  <g id="patch_1">
   <path d="M 0 432 
L 864 432 
L 864 0 
L 0 0 
z
" style="fill: #ffffff"/>
  </g>
  <g id="axes_1">
   <g id="patch_2">
    <path d="M 61.74 361.444 
L 851.04 361.444 
L 851.04 20.16 
L 61.74 20.16 
z
" style="fill: #ffffff"/>
   </g>
   <g id="matplotlib.axis_1">
    <g id="xtick_1">
     <g id="text_1">
      <!-- P-521 -->
      <g style="fill: #262626" transform="translate(161.270625 388.12275) scale(0.24 -0.24)">
       <defs>
        <path id="ArialMT-50" d="M 494 0 
L 494 4581 
L 2222 4581 
Q 2678 4581 2919 4538 
Q 3256 4481 3484 4323 
Q 3713 4166 3852 3881 
Q 3991 3597 3991 3256 
Q 3991 2672 3619 2267 
Q 3247 1863 2275 1863 
L 1100 1863 
L 1100 0 
L 494 0 
z
M 1100 2403 
L 2284 2403 
Q 2872 2403 3119 2622 
Q 3366 2841 3366 3238 
Q 3366 3525 3220 3729 
Q 3075 3934 2838 4000 
Q 2684 4041 2272 4041 
L 1100 4041 
L 1100 2403 
z
" transform="scale(0.015625)"/>
        <path id="ArialMT-2d" d="M 203 1375 
L 203 1941 
L 1931 1941 
L 1931 1375 
L 203 1375 
z
" transform="scale(0.015625)"/>
        <path id="ArialMT-35" d="M 266 1200 
L 856 1250 
Q 922 819 1161 601 
Q 1400 384 1738 384 
Q 2144 384 2425 690 
Q 2706 997 2706 1503 
Q 2706 1984 2436 2262 
Q 2166 2541 1728 2541 
Q 1456 2541 1237 2417 
Q 1019 2294 894 2097 
L 366 2166 
L 809 4519 
L 3088 4519 
L 3088 3981 
L 1259 3981 
L 1013 2750 
Q 1425 3038 1878 3038 
Q 2478 3038 2890 2622 
Q 3303 2206 3303 1553 
Q 3303 931 2941 478 
Q 2500 -78 1738 -78 
Q 1113 -78 717 272 
Q 322 622 266 1200 
z
" transform="scale(0.015625)"/>
        <path id="ArialMT-32" d="M 3222 541 
L 3222 0 
L 194 0 
Q 188 203 259 391 
Q 375 700 629 1000 
Q 884 1300 1366 1694 
Q 2113 2306 2375 2664 
Q 2638 3022 2638 3341 
Q 2638 3675 2398 3904 
Q 2159 4134 1775 4134 
Q 1369 4134 1125 3890 
Q 881 3647 878 3216 
L 300 3275 
Q 359 3922 746 4261 
Q 1134 4600 1788 4600 
Q 2447 4600 2831 4234 
Q 3216 3869 3216 3328 
Q 3216 3053 3103 2787 
Q 2991 2522 2730 2228 
Q 2469 1934 1863 1422 
Q 1356 997 1212 845 
Q 1069 694 975 541 
L 3222 541 
z
" transform="scale(0.015625)"/>
        <path id="ArialMT-31" d="M 2384 0 
L 1822 0 
L 1822 3584 
Q 1619 3391 1289 3197 
Q 959 3003 697 2906 
L 697 3450 
Q 1169 3672 1522 3987 
Q 1875 4303 2022 4600 
L 2384 4600 
L 2384 0 
z
" transform="scale(0.015625)"/>
       </defs>
       <use xlink:href="#ArialMT-50"/>
       <use xlink:href="#ArialMT-2d" transform="translate(66.699219 0)"/>
       <use xlink:href="#ArialMT-35" transform="translate(100 0)"/>
       <use xlink:href="#ArialMT-32" transform="translate(155.615234 0)"/>
       <use xlink:href="#ArialMT-31" transform="translate(211.230469 0)"/>
      </g>
     </g>
    </g>
    <g id="xtick_2">
     <g id="text_2">
      <!-- P-521 -->
      <g style="fill: #262626" transform="translate(424.370625 388.12275) scale(0.24 -0.24)">
       <use xlink:href="#ArialMT-50"/>
       <use xlink:href="#ArialMT-2d" transform="translate(66.699219 0)"/>
       <use xlink:href="#ArialMT-35" transform="translate(100 0)"/>
       <use xlink:href="#ArialMT-32" transform="translate(155.615234 0)"/>
       <use xlink:href="#ArialMT-31" transform="translate(211.230469 0)"/>
      </g>
      <!-- mlkem1024 -->
      <g style="fill: #262626" transform="translate(394.366875 413.50725) scale(0.24 -0.24)">
       <defs>
        <path id="ArialMT-6d" d="M 422 0 
L 422 3319 
L 925 3319 
L 925 2853 
Q 1081 3097 1340 3245 
Q 1600 3394 1931 3394 
Q 2300 3394 2536 3241 
Q 2772 3088 2869 2813 
Q 3263 3394 3894 3394 
Q 4388 3394 4653 3120 
Q 4919 2847 4919 2278 
L 4919 0 
L 4359 0 
L 4359 2091 
Q 4359 2428 4304 2576 
Q 4250 2725 4106 2815 
Q 3963 2906 3769 2906 
Q 3419 2906 3187 2673 
Q 2956 2441 2956 1928 
L 2956 0 
L 2394 0 
L 2394 2156 
Q 2394 2531 2256 2718 
Q 2119 2906 1806 2906 
Q 1569 2906 1367 2781 
Q 1166 2656 1075 2415 
Q 984 2175 984 1722 
L 984 0 
L 422 0 
z
" transform="scale(0.015625)"/>
        <path id="ArialMT-6c" d="M 409 0 
L 409 4581 
L 972 4581 
L 972 0 
L 409 0 
z
" transform="scale(0.015625)"/>
        <path id="ArialMT-6b" d="M 425 0 
L 425 4581 
L 988 4581 
L 988 1969 
L 2319 3319 
L 3047 3319 
L 1778 2088 
L 3175 0 
L 2481 0 
L 1384 1697 
L 988 1316 
L 988 0 
L 425 0 
z
" transform="scale(0.015625)"/>
        <path id="ArialMT-65" d="M 2694 1069 
L 3275 997 
Q 3138 488 2766 206 
Q 2394 -75 1816 -75 
Q 1088 -75 661 373 
Q 234 822 234 1631 
Q 234 2469 665 2931 
Q 1097 3394 1784 3394 
Q 2450 3394 2872 2941 
Q 3294 2488 3294 1666 
Q 3294 1616 3291 1516 
L 816 1516 
Q 847 969 1125 678 
Q 1403 388 1819 388 
Q 2128 388 2347 550 
Q 2566 713 2694 1069 
z
M 847 1978 
L 2700 1978 
Q 2663 2397 2488 2606 
Q 2219 2931 1791 2931 
Q 1403 2931 1139 2672 
Q 875 2413 847 1978 
z
" transform="scale(0.015625)"/>
        <path id="ArialMT-30" d="M 266 2259 
Q 266 3072 433 3567 
Q 600 4063 929 4331 
Q 1259 4600 1759 4600 
Q 2128 4600 2406 4451 
Q 2684 4303 2865 4023 
Q 3047 3744 3150 3342 
Q 3253 2941 3253 2259 
Q 3253 1453 3087 958 
Q 2922 463 2592 192 
Q 2263 -78 1759 -78 
Q 1097 -78 719 397 
Q 266 969 266 2259 
z
M 844 2259 
Q 844 1131 1108 757 
Q 1372 384 1759 384 
Q 2147 384 2411 759 
Q 2675 1134 2675 2259 
Q 2675 3391 2411 3762 
Q 2147 4134 1753 4134 
Q 1366 4134 1134 3806 
Q 844 3388 844 2259 
z
" transform="scale(0.015625)"/>
        <path id="ArialMT-34" d="M 2069 0 
L 2069 1097 
L 81 1097 
L 81 1613 
L 2172 4581 
L 2631 4581 
L 2631 1613 
L 3250 1613 
L 3250 1097 
L 2631 1097 
L 2631 0 
L 2069 0 
z
M 2069 1613 
L 2069 3678 
L 634 1613 
L 2069 1613 
z
" transform="scale(0.015625)"/>
       </defs>
       <use xlink:href="#ArialMT-6d"/>
       <use xlink:href="#ArialMT-6c" transform="translate(83.300781 0)"/>
       <use xlink:href="#ArialMT-6b" transform="translate(105.517578 0)"/>
       <use xlink:href="#ArialMT-65" transform="translate(155.517578 0)"/>
       <use xlink:href="#ArialMT-6d" transform="translate(211.132812 0)"/>
       <use xlink:href="#ArialMT-31" transform="translate(294.433594 0)"/>
       <use xlink:href="#ArialMT-30" transform="translate(350.048828 0)"/>
       <use xlink:href="#ArialMT-32" transform="translate(405.664062 0)"/>
       <use xlink:href="#ArialMT-34" transform="translate(461.279297 0)"/>
      </g>
     </g>
    </g>
    <g id="xtick_3">
     <g id="text_3">
      <!-- mlkem1024 -->
      <g style="fill: #262626" transform="translate(657.466875 388.12275) scale(0.24 -0.24)">
       <use xlink:href="#ArialMT-6d"/>
       <use xlink:href="#ArialMT-6c" transform="translate(83.300781 0)"/>
       <use xlink:href="#ArialMT-6b" transform="translate(105.517578 0)"/>
       <use xlink:href="#ArialMT-65" transform="translate(155.517578 0)"/>
       <use xlink:href="#ArialMT-6d" transform="translate(211.132812 0)"/>
       <use xlink:href="#ArialMT-31" transform="translate(294.433594 0)"/>
       <use xlink:href="#ArialMT-30" transform="translate(350.048828 0)"/>
       <use xlink:href="#ArialMT-32" transform="translate(405.664062 0)"/>
       <use xlink:href="#ArialMT-34" transform="translate(461.279297 0)"/>
      </g>
     </g>
    </g>
   </g>
   <g id="matplotlib.axis_2">
    <g id="ytick_1">
     <g id="line2d_1">
      <path d="M 61.74 361.444 
L 851.04 361.444 
" clip-path="url(#pb83111d7a8)" style="fill: none; stroke: #cccccc; stroke-linecap: round"/>
     </g>
     <g id="text_4">
      <!-- 0 -->
      <g style="fill: #262626" transform="translate(41.118125 368.601812) scale(0.2 -0.2)">
       <use xlink:href="#ArialMT-30"/>
      </g>
     </g>
    </g>
    <g id="ytick_2">
     <g id="line2d_2">
      <path d="M 61.74 304.563333 
L 851.04 304.563333 
" clip-path="url(#pb83111d7a8)" style="fill: none; stroke: #cccccc; stroke-linecap: round"/>
     </g>
     <g id="text_5">
      <!-- 10 -->
      <g style="fill: #262626" transform="translate(29.99625 311.721146) scale(0.2 -0.2)">
       <use xlink:href="#ArialMT-31"/>
       <use xlink:href="#ArialMT-30" transform="translate(55.615234 0)"/>
      </g>
     </g>
    </g>
    <g id="ytick_3">
     <g id="line2d_3">
      <path d="M 61.74 247.682667 
L 851.04 247.682667 
" clip-path="url(#pb83111d7a8)" style="fill: none; stroke: #cccccc; stroke-linecap: round"/>
     </g>
     <g id="text_6">
      <!-- 20 -->
      <g style="fill: #262626" transform="translate(29.99625 254.840479) scale(0.2 -0.2)">
       <use xlink:href="#ArialMT-32"/>
       <use xlink:href="#ArialMT-30" transform="translate(55.615234 0)"/>
      </g>
     </g>
    </g>
    <g id="ytick_4">
     <g id="line2d_4">
      <path d="M 61.74 190.802 
L 851.04 190.802 
" clip-path="url(#pb83111d7a8)" style="fill: none; stroke: #cccccc; stroke-linecap: round"/>
     </g>
     <g id="text_7">
      <!-- 30 -->
      <g style="fill: #262626" transform="translate(29.99625 197.959813) scale(0.2 -0.2)">
       <defs>
        <path id="ArialMT-33" d="M 269 1209 
L 831 1284 
Q 928 806 1161 595 
Q 1394 384 1728 384 
Q 2125 384 2398 659 
Q 2672 934 2672 1341 
Q 2672 1728 2419 1979 
Q 2166 2231 1775 2231 
Q 1616 2231 1378 2169 
L 1441 2663 
Q 1497 2656 1531 2656 
Q 1891 2656 2178 2843 
Q 2466 3031 2466 3422 
Q 2466 3731 2256 3934 
Q 2047 4138 1716 4138 
Q 1388 4138 1169 3931 
Q 950 3725 888 3313 
L 325 3413 
Q 428 3978 793 4289 
Q 1159 4600 1703 4600 
Q 2078 4600 2393 4439 
Q 2709 4278 2876 4000 
Q 3044 3722 3044 3409 
Q 3044 3113 2884 2869 
Q 2725 2625 2413 2481 
Q 2819 2388 3044 2092 
Q 3269 1797 3269 1353 
Q 3269 753 2831 336 
Q 2394 -81 1725 -81 
Q 1122 -81 723 278 
Q 325 638 269 1209 
z
" transform="scale(0.015625)"/>
       </defs>
       <use xlink:href="#ArialMT-33"/>
       <use xlink:href="#ArialMT-30" transform="translate(55.615234 0)"/>
      </g>
     </g>
    </g>
    <g id="ytick_5">
     <g id="line2d_5">
      <path d="M 61.74 133.921333 
L 851.04 133.921333 
" clip-path="url(#pb83111d7a8)" style="fill: none; stroke: #cccccc; stroke-linecap: round"/>
     </g>
     <g id="text_8">
      <!-- 40 -->
      <g style="fill: #262626" transform="translate(29.99625 141.079146) scale(0.2 -0.2)">
       <use xlink:href="#ArialMT-34"/>
       <use xlink:href="#ArialMT-30" transform="translate(55.615234 0)"/>
      </g>
     </g>
    </g>
    <g id="ytick_6">
     <g id="line2d_6">
      <path d="M 61.74 77.040667 
L 851.04 77.040667 
" clip-path="url(#pb83111d7a8)" style="fill: none; stroke: #cccccc; stroke-linecap: round"/>
     </g>
     <g id="text_9">
      <!-- 50 -->
      <g style="fill: #262626" transform="translate(29.99625 84.198479) scale(0.2 -0.2)">
       <use xlink:href="#ArialMT-35"/>
       <use xlink:href="#ArialMT-30" transform="translate(55.615234 0)"/>
      </g>
     </g>
    </g>
    <g id="ytick_7">
     <g id="line2d_7">
      <path d="M 61.74 20.16 
L 851.04 20.16 
" clip-path="url(#pb83111d7a8)" style="fill: none; stroke: #cccccc; stroke-linecap: round"/>
     </g>
     <g id="text_10">
      <!-- 60 -->
      <g style="fill: #262626" transform="translate(29.99625 27.317813) scale(0.2 -0.2)">
       <defs>
        <path id="ArialMT-36" d="M 3184 3459 
L 2625 3416 
Q 2550 3747 2413 3897 
Q 2184 4138 1850 4138 
Q 1581 4138 1378 3988 
Q 1113 3794 959 3422 
Q 806 3050 800 2363 
Q 1003 2672 1297 2822 
Q 1591 2972 1913 2972 
Q 2475 2972 2870 2558 
Q 3266 2144 3266 1488 
Q 3266 1056 3080 686 
Q 2894 316 2569 119 
Q 2244 -78 1831 -78 
Q 1128 -78 684 439 
Q 241 956 241 2144 
Q 241 3472 731 4075 
Q 1159 4600 1884 4600 
Q 2425 4600 2770 4297 
Q 3116 3994 3184 3459 
z
M 888 1484 
Q 888 1194 1011 928 
Q 1134 663 1356 523 
Q 1578 384 1822 384 
Q 2178 384 2434 671 
Q 2691 959 2691 1453 
Q 2691 1928 2437 2201 
Q 2184 2475 1800 2475 
Q 1419 2475 1153 2201 
Q 888 1928 888 1484 
z
" transform="scale(0.015625)"/>
       </defs>
       <use xlink:href="#ArialMT-36"/>
       <use xlink:href="#ArialMT-30" transform="translate(55.615234 0)"/>
      </g>
     </g>
    </g>
    <g id="text_11">
     <!-- Handshake duration (ms) -->
     <g style="fill: #262626" transform="translate(23.049688 269.389031) rotate(-90) scale(0.14 -0.14)">
      <defs>
       <path id="ArialMT-48" d="M 513 0 
L 513 4581 
L 1119 4581 
L 1119 2700 
L 3500 2700 
L 3500 4581 
L 4106 4581 
L 4106 0 
L 3500 0 
L 3500 2159 
L 1119 2159 
L 1119 0 
L 513 0 
z
" transform="scale(0.015625)"/>
       <path id="ArialMT-61" d="M 2588 409 
Q 2275 144 1986 34 
Q 1697 -75 1366 -75 
Q 819 -75 525 192 
Q 231 459 231 875 
Q 231 1119 342 1320 
Q 453 1522 633 1644 
Q 813 1766 1038 1828 
Q 1203 1872 1538 1913 
Q 2219 1994 2541 2106 
Q 2544 2222 2544 2253 
Q 2544 2597 2384 2738 
Q 2169 2928 1744 2928 
Q 1347 2928 1158 2789 
Q 969 2650 878 2297 
L 328 2372 
Q 403 2725 575 2942 
Q 747 3159 1072 3276 
Q 1397 3394 1825 3394 
Q 2250 3394 2515 3294 
Q 2781 3194 2906 3042 
Q 3031 2891 3081 2659 
Q 3109 2516 3109 2141 
L 3109 1391 
Q 3109 606 3145 398 
Q 3181 191 3288 0 
L 2700 0 
Q 2613 175 2588 409 
z
M 2541 1666 
Q 2234 1541 1622 1453 
Q 1275 1403 1131 1340 
Q 988 1278 909 1158 
Q 831 1038 831 891 
Q 831 666 1001 516 
Q 1172 366 1500 366 
Q 1825 366 2078 508 
Q 2331 650 2450 897 
Q 2541 1088 2541 1459 
L 2541 1666 
z
" transform="scale(0.015625)"/>
       <path id="ArialMT-6e" d="M 422 0 
L 422 3319 
L 928 3319 
L 928 2847 
Q 1294 3394 1984 3394 
Q 2284 3394 2536 3286 
Q 2788 3178 2913 3003 
Q 3038 2828 3088 2588 
Q 3119 2431 3119 2041 
L 3119 0 
L 2556 0 
L 2556 2019 
Q 2556 2363 2490 2533 
Q 2425 2703 2258 2804 
Q 2091 2906 1866 2906 
Q 1506 2906 1245 2678 
Q 984 2450 984 1813 
L 984 0 
L 422 0 
z
" transform="scale(0.015625)"/>
       <path id="ArialMT-64" d="M 2575 0 
L 2575 419 
Q 2259 -75 1647 -75 
Q 1250 -75 917 144 
Q 584 363 401 755 
Q 219 1147 219 1656 
Q 219 2153 384 2558 
Q 550 2963 881 3178 
Q 1213 3394 1622 3394 
Q 1922 3394 2156 3267 
Q 2391 3141 2538 2938 
L 2538 4581 
L 3097 4581 
L 3097 0 
L 2575 0 
z
M 797 1656 
Q 797 1019 1065 703 
Q 1334 388 1700 388 
Q 2069 388 2326 689 
Q 2584 991 2584 1609 
Q 2584 2291 2321 2609 
Q 2059 2928 1675 2928 
Q 1300 2928 1048 2622 
Q 797 2316 797 1656 
z
" transform="scale(0.015625)"/>
       <path id="ArialMT-73" d="M 197 991 
L 753 1078 
Q 800 744 1014 566 
Q 1228 388 1613 388 
Q 2000 388 2187 545 
Q 2375 703 2375 916 
Q 2375 1106 2209 1216 
Q 2094 1291 1634 1406 
Q 1016 1563 777 1677 
Q 538 1791 414 1992 
Q 291 2194 291 2438 
Q 291 2659 392 2848 
Q 494 3038 669 3163 
Q 800 3259 1026 3326 
Q 1253 3394 1513 3394 
Q 1903 3394 2198 3281 
Q 2494 3169 2634 2976 
Q 2775 2784 2828 2463 
L 2278 2388 
Q 2241 2644 2061 2787 
Q 1881 2931 1553 2931 
Q 1166 2931 1000 2803 
Q 834 2675 834 2503 
Q 834 2394 903 2306 
Q 972 2216 1119 2156 
Q 1203 2125 1616 2013 
Q 2213 1853 2448 1751 
Q 2684 1650 2818 1456 
Q 2953 1263 2953 975 
Q 2953 694 2789 445 
Q 2625 197 2315 61 
Q 2006 -75 1616 -75 
Q 969 -75 630 194 
Q 291 463 197 991 
z
" transform="scale(0.015625)"/>
       <path id="ArialMT-68" d="M 422 0 
L 422 4581 
L 984 4581 
L 984 2938 
Q 1378 3394 1978 3394 
Q 2347 3394 2619 3248 
Q 2891 3103 3008 2847 
Q 3125 2591 3125 2103 
L 3125 0 
L 2563 0 
L 2563 2103 
Q 2563 2525 2380 2717 
Q 2197 2909 1863 2909 
Q 1613 2909 1392 2779 
Q 1172 2650 1078 2428 
Q 984 2206 984 1816 
L 984 0 
L 422 0 
z
" transform="scale(0.015625)"/>
       <path id="ArialMT-20" transform="scale(0.015625)"/>
       <path id="ArialMT-75" d="M 2597 0 
L 2597 488 
Q 2209 -75 1544 -75 
Q 1250 -75 995 37 
Q 741 150 617 320 
Q 494 491 444 738 
Q 409 903 409 1263 
L 409 3319 
L 972 3319 
L 972 1478 
Q 972 1038 1006 884 
Q 1059 663 1231 536 
Q 1403 409 1656 409 
Q 1909 409 2131 539 
Q 2353 669 2445 892 
Q 2538 1116 2538 1541 
L 2538 3319 
L 3100 3319 
L 3100 0 
L 2597 0 
z
" transform="scale(0.015625)"/>
       <path id="ArialMT-72" d="M 416 0 
L 416 3319 
L 922 3319 
L 922 2816 
Q 1116 3169 1280 3281 
Q 1444 3394 1641 3394 
Q 1925 3394 2219 3213 
L 2025 2691 
Q 1819 2813 1613 2813 
Q 1428 2813 1281 2702 
Q 1134 2591 1072 2394 
Q 978 2094 978 1738 
L 978 0 
L 416 0 
z
" transform="scale(0.015625)"/>
       <path id="ArialMT-74" d="M 1650 503 
L 1731 6 
Q 1494 -44 1306 -44 
Q 1000 -44 831 53 
Q 663 150 594 308 
Q 525 466 525 972 
L 525 2881 
L 113 2881 
L 113 3319 
L 525 3319 
L 525 4141 
L 1084 4478 
L 1084 3319 
L 1650 3319 
L 1650 2881 
L 1084 2881 
L 1084 941 
Q 1084 700 1114 631 
Q 1144 563 1211 522 
Q 1278 481 1403 481 
Q 1497 481 1650 503 
z
" transform="scale(0.015625)"/>
       <path id="ArialMT-69" d="M 425 3934 
L 425 4581 
L 988 4581 
L 988 3934 
L 425 3934 
z
M 425 0 
L 425 3319 
L 988 3319 
L 988 0 
L 425 0 
z
" transform="scale(0.015625)"/>
       <path id="ArialMT-6f" d="M 213 1659 
Q 213 2581 725 3025 
Q 1153 3394 1769 3394 
Q 2453 3394 2887 2945 
Q 3322 2497 3322 1706 
Q 3322 1066 3130 698 
Q 2938 331 2570 128 
Q 2203 -75 1769 -75 
Q 1072 -75 642 372 
Q 213 819 213 1659 
z
M 791 1659 
Q 791 1022 1069 705 
Q 1347 388 1769 388 
Q 2188 388 2466 706 
Q 2744 1025 2744 1678 
Q 2744 2294 2464 2611 
Q 2184 2928 1769 2928 
Q 1347 2928 1069 2612 
Q 791 2297 791 1659 
z
" transform="scale(0.015625)"/>
       <path id="ArialMT-28" d="M 1497 -1347 
Q 1031 -759 709 28 
Q 388 816 388 1659 
Q 388 2403 628 3084 
Q 909 3875 1497 4659 
L 1900 4659 
Q 1522 4009 1400 3731 
Q 1209 3300 1100 2831 
Q 966 2247 966 1656 
Q 966 153 1900 -1347 
L 1497 -1347 
z
" transform="scale(0.015625)"/>
       <path id="ArialMT-29" d="M 791 -1347 
L 388 -1347 
Q 1322 153 1322 1656 
Q 1322 2244 1188 2822 
Q 1081 3291 891 3722 
Q 769 4003 388 4659 
L 791 4659 
Q 1378 3875 1659 3084 
Q 1900 2403 1900 1659 
Q 1900 816 1576 28 
Q 1253 -759 791 -1347 
z
" transform="scale(0.015625)"/>
      </defs>
      <use xlink:href="#ArialMT-48"/>
      <use xlink:href="#ArialMT-61" transform="translate(72.216797 0)"/>
      <use xlink:href="#ArialMT-6e" transform="translate(127.832031 0)"/>
      <use xlink:href="#ArialMT-64" transform="translate(183.447266 0)"/>
      <use xlink:href="#ArialMT-73" transform="translate(239.0625 0)"/>
      <use xlink:href="#ArialMT-68" transform="translate(289.0625 0)"/>
      <use xlink:href="#ArialMT-61" transform="translate(344.677734 0)"/>
      <use xlink:href="#ArialMT-6b" transform="translate(400.292969 0)"/>
      <use xlink:href="#ArialMT-65" transform="translate(450.292969 0)"/>
      <use xlink:href="#ArialMT-20" transform="translate(505.908203 0)"/>
      <use xlink:href="#ArialMT-64" transform="translate(533.691406 0)"/>
      <use xlink:href="#ArialMT-75" transform="translate(589.306641 0)"/>
      <use xlink:href="#ArialMT-72" transform="translate(644.921875 0)"/>
      <use xlink:href="#ArialMT-61" transform="translate(678.222656 0)"/>
      <use xlink:href="#ArialMT-74" transform="translate(733.837891 0)"/>
      <use xlink:href="#ArialMT-69" transform="translate(761.621094 0)"/>
      <use xlink:href="#ArialMT-6f" transform="translate(783.837891 0)"/>
      <use xlink:href="#ArialMT-6e" transform="translate(839.453125 0)"/>
      <use xlink:href="#ArialMT-20" transform="translate(895.068359 0)"/>
      <use xlink:href="#ArialMT-28" transform="translate(922.851562 0)"/>
      <use xlink:href="#ArialMT-6d" transform="translate(956.152344 0)"/>
      <use xlink:href="#ArialMT-73" transform="translate(1039.453125 0)"/>
      <use xlink:href="#ArialMT-29" transform="translate(1089.453125 0)"/>
     </g>
    </g>
   </g>
   <g id="FillBetweenPolyCollection_1">
    <defs>
     <path id="mb442c1d720" d="M 194.5885 -161.506429 
L 191.9915 -161.506429 
L 191.198051 -162.658442 
L 190.020298 -163.810454 
L 188.329419 -164.962467 
L 185.981098 -166.11448 
L 182.825912 -167.266492 
L 178.724708 -168.418505 
L 173.568215 -169.570517 
L 167.299036 -170.72253 
L 159.933212 -171.874543 
L 151.577843 -173.026555 
L 142.441108 -174.178568 
L 132.831522 -175.330581 
L 123.144473 -176.482593 
L 113.835814 -177.634606 
L 105.384391 -178.786618 
L 98.247495 -179.938631 
L 92.814878 -181.090644 
L 89.367893 -182.242656 
L 88.05 -183.394669 
L 88.853452 -184.546682 
L 91.624339 -185.698694 
L 96.085081 -186.850707 
L 101.870345 -188.00272 
L 108.57018 -189.154732 
L 115.773247 -190.306745 
L 123.103726 -191.458757 
L 130.247409 -192.61077 
L 136.965125 -193.762783 
L 143.094239 -194.914795 
L 148.540897 -196.066808 
L 153.266642 -197.218821 
L 157.273017 -198.370833 
L 160.587095 -199.522846 
L 163.249859 -200.674859 
L 165.308371 -201.826871 
L 166.811809 -202.978884 
L 167.810808 -204.130896 
L 168.35906 -205.282909 
L 168.51581 -206.434922 
L 168.347808 -207.586934 
L 167.929525 -208.738947 
L 167.340999 -209.89096 
L 166.663477 -211.042972 
L 165.973798 -212.194985 
L 165.338982 -213.346997 
L 164.812465 -214.49901 
L 164.432919 -215.651023 
L 164.225704 -216.803035 
L 164.206101 -217.955048 
L 164.382901 -219.107061 
L 164.76092 -220.259073 
L 165.341549 -221.411086 
L 166.121372 -222.563099 
L 167.089714 -223.715111 
L 168.226521 -224.867124 
L 169.50186 -226.019136 
L 170.87775 -227.171149 
L 172.312095 -228.323162 
L 173.763712 -229.475174 
L 175.196987 -230.627187 
L 176.584855 -231.7792 
L 177.909394 -232.931212 
L 179.160162 -234.083225 
L 180.331153 -235.235238 
L 181.417616 -236.38725 
L 182.413891 -237.539263 
L 183.31293 -238.691275 
L 184.107527 -239.843288 
L 184.792658 -240.995301 
L 185.368018 -242.147313 
L 185.83982 -243.299326 
L 186.221192 -244.451339 
L 186.530995 -245.603351 
L 186.791337 -246.755364 
L 187.024406 -247.907376 
L 187.249454 -249.059389 
L 187.480622 -250.211402 
L 187.726077 -251.363414 
L 187.988525 -252.515427 
L 188.266789 -253.66744 
L 188.557875 -254.819452 
L 188.858869 -255.971465 
L 189.168122 -257.123478 
L 189.485483 -258.27549 
L 189.811638 -259.427503 
L 190.146936 -260.579515 
L 190.490156 -261.731528 
L 190.837703 -262.883541 
L 191.183479 -264.035553 
L 191.519475 -265.187566 
L 191.836895 -266.339579 
L 192.127482 -267.491591 
L 192.384713 -268.643604 
L 192.604598 -269.795617 
L 192.785967 -270.947629 
L 192.930261 -272.099642 
L 193.040973 -273.251654 
L 193.122891 -274.403667 
L 193.181347 -275.55568 
L 193.398653 -275.55568 
L 193.398653 -275.55568 
L 193.457109 -274.403667 
L 193.539027 -273.251654 
L 193.649739 -272.099642 
L 193.794033 -270.947629 
L 193.975402 -269.795617 
L 194.195287 -268.643604 
L 194.452518 -267.491591 
L 194.743105 -266.339579 
L 195.060525 -265.187566 
L 195.396521 -264.035553 
L 195.742297 -262.883541 
L 196.089844 -261.731528 
L 196.433064 -260.579515 
L 196.768362 -259.427503 
L 197.094517 -258.27549 
L 197.411878 -257.123478 
L 197.721131 -255.971465 
L 198.022125 -254.819452 
L 198.313211 -253.66744 
L 198.591475 -252.515427 
L 198.853923 -251.363414 
L 199.099378 -250.211402 
L 199.330546 -249.059389 
L 199.555594 -247.907376 
L 199.788663 -246.755364 
L 200.049005 -245.603351 
L 200.358808 -244.451339 
L 200.74018 -243.299326 
L 201.211982 -242.147313 
L 201.787342 -240.995301 
L 202.472473 -239.843288 
L 203.26707 -238.691275 
L 204.166109 -237.539263 
L 205.162384 -236.38725 
L 206.248847 -235.235238 
L 207.419838 -234.083225 
L 208.670606 -232.931212 
L 209.995145 -231.7792 
L 211.383013 -230.627187 
L 212.816288 -229.475174 
L 214.267905 -228.323162 
L 215.70225 -227.171149 
L 217.07814 -226.019136 
L 218.353479 -224.867124 
L 219.490286 -223.715111 
L 220.458628 -222.563099 
L 221.238451 -221.411086 
L 221.81908 -220.259073 
L 222.197099 -219.107061 
L 222.373899 -217.955048 
L 222.354296 -216.803035 
L 222.147081 -215.651023 
L 221.767535 -214.49901 
L 221.241018 -213.346997 
L 220.606202 -212.194985 
L 219.916523 -211.042972 
L 219.239001 -209.89096 
L 218.650475 -208.738947 
L 218.232192 -207.586934 
L 218.06419 -206.434922 
L 218.22094 -205.282909 
L 218.769192 -204.130896 
L 219.768191 -202.978884 
L 221.271629 -201.826871 
L 223.330141 -200.674859 
L 225.992905 -199.522846 
L 229.306983 -198.370833 
L 233.313358 -197.218821 
L 238.039103 -196.066808 
L 243.485761 -194.914795 
L 249.614875 -193.762783 
L 256.332591 -192.61077 
L 263.476274 -191.458757 
L 270.806753 -190.306745 
L 278.00982 -189.154732 
L 284.709655 -188.00272 
L 290.494919 -186.850707 
L 294.955661 -185.698694 
L 297.726548 -184.546682 
L 298.53 -183.394669 
L 297.212107 -182.242656 
L 293.765122 -181.090644 
L 288.332505 -179.938631 
L 281.195609 -178.786618 
L 272.744186 -177.634606 
L 263.435527 -176.482593 
L 253.748478 -175.330581 
L 244.138892 -174.178568 
L 235.002157 -173.026555 
L 226.646788 -171.874543 
L 219.280964 -170.72253 
L 213.011785 -169.570517 
L 207.855292 -168.418505 
L 203.754088 -167.266492 
L 200.598902 -166.11448 
L 198.250581 -164.962467 
L 196.559702 -163.810454 
L 195.381949 -162.658442 
L 194.5885 -161.506429 
z
" style="stroke: #595959; stroke-width: 1.25"/>
    </defs>
    <g clip-path="url(#pb83111d7a8)">
     <use xlink:href="#mb442c1d720" x="0" y="432" style="fill: #72b6a1; stroke: #595959; stroke-width: 1.25"/>
    </g>
   </g>
   <g id="FillBetweenPolyCollection_2">
    <defs>
     <path id="mae9f2d3637" d="M 457.828311 -205.729715 
L 454.951689 -205.729715 
L 454.004866 -207.397705 
L 452.572057 -209.065694 
L 450.486396 -210.733684 
L 447.565367 -212.401673 
L 443.628823 -214.069662 
L 438.524322 -215.737652 
L 432.157613 -217.405641 
L 424.524256 -219.073631 
L 415.736748 -220.74162 
L 406.040765 -222.40961 
L 395.814593 -224.077599 
L 385.54776 -225.745588 
L 375.798259 -227.413578 
L 367.1321 -229.081567 
L 360.053387 -230.749557 
L 354.93662 -232.417546 
L 351.974138 -234.085536 
L 351.15 -235.753525 
L 352.246877 -237.421514 
L 354.88576 -239.089504 
L 358.591013 -240.757493 
L 362.867516 -242.425483 
L 367.274047 -244.093472 
L 371.478343 -245.761462 
L 375.284257 -247.429451 
L 378.628561 -249.09744 
L 381.552299 -250.76543 
L 384.157097 -252.433419 
L 386.559141 -254.101409 
L 388.852149 -255.769398 
L 391.086482 -257.437388 
L 393.265901 -259.105377 
L 395.358378 -260.773366 
L 397.314195 -262.441356 
L 399.084044 -264.109345 
L 400.631695 -265.777335 
L 401.939008 -267.445324 
L 403.004285 -269.113314 
L 403.837182 -270.781303 
L 404.453927 -272.449292 
L 404.875692 -274.117282 
L 405.131011 -275.785271 
L 405.261065 -277.453261 
L 405.325107 -279.12125 
L 405.402838 -280.78924 
L 405.591324 -282.457229 
L 405.995824 -284.125218 
L 406.716029 -285.793208 
L 407.83091 -287.461197 
L 409.386044 -289.129187 
L 411.386506 -290.797176 
L 413.796704 -292.465166 
L 416.546484 -294.133155 
L 419.541276 -295.801144 
L 422.673627 -297.469134 
L 425.833928 -299.137123 
L 428.919246 -300.805113 
L 431.840151 -302.473102 
L 434.525913 -304.141092 
L 436.92835 -305.809081 
L 439.02422 -307.47707 
L 440.81567 -309.14506 
L 442.328225 -310.813049 
L 443.606067 -312.481039 
L 444.704899 -314.149028 
L 445.68328 -315.817018 
L 446.593715 -317.485007 
L 447.475042 -319.152996 
L 448.34751 -320.820986 
L 449.211563 -322.488975 
L 450.050604 -324.156965 
L 450.837164 -325.824954 
L 451.541066 -327.492944 
L 452.137648 -329.160933 
L 452.614059 -330.828922 
L 452.972191 -332.496912 
L 453.227722 -334.164901 
L 453.405865 -335.832891 
L 453.535275 -337.50088 
L 453.641968 -339.16887 
L 453.744924 -340.836859 
L 453.854343 -342.504848 
L 453.972635 -344.172838 
L 454.097338 -345.840827 
L 454.224716 -347.508817 
L 454.3527 -349.176806 
L 454.4823 -350.844796 
L 454.617235 -352.512785 
L 454.762205 -354.180774 
L 454.920659 -355.848764 
L 455.092969 -357.516753 
L 455.275676 -359.184743 
L 455.461982 -360.852732 
L 455.643237 -362.520722 
L 455.810824 -364.188711 
L 455.957856 -365.8567 
L 456.080233 -367.52469 
L 456.176895 -369.192679 
L 456.2494 -370.860669 
L 456.5306 -370.860669 
L 456.5306 -370.860669 
L 456.603105 -369.192679 
L 456.699767 -367.52469 
L 456.822144 -365.8567 
L 456.969176 -364.188711 
L 457.136763 -362.520722 
L 457.318018 -360.852732 
L 457.504324 -359.184743 
L 457.687031 -357.516753 
L 457.859341 -355.848764 
L 458.017795 -354.180774 
L 458.162765 -352.512785 
L 458.2977 -350.844796 
L 458.4273 -349.176806 
L 458.555284 -347.508817 
L 458.682662 -345.840827 
L 458.807365 -344.172838 
L 458.925657 -342.504848 
L 459.035076 -340.836859 
L 459.138032 -339.16887 
L 459.244725 -337.50088 
L 459.374135 -335.832891 
L 459.552278 -334.164901 
L 459.807809 -332.496912 
L 460.165941 -330.828922 
L 460.642352 -329.160933 
L 461.238934 -327.492944 
L 461.942836 -325.824954 
L 462.729396 -324.156965 
L 463.568437 -322.488975 
L 464.43249 -320.820986 
L 465.304958 -319.152996 
L 466.186285 -317.485007 
L 467.09672 -315.817018 
L 468.075101 -314.149028 
L 469.173933 -312.481039 
L 470.451775 -310.813049 
L 471.96433 -309.14506 
L 473.75578 -307.47707 
L 475.85165 -305.809081 
L 478.254087 -304.141092 
L 480.939849 -302.473102 
L 483.860754 -300.805113 
L 486.946072 -299.137123 
L 490.106373 -297.469134 
L 493.238724 -295.801144 
L 496.233516 -294.133155 
L 498.983296 -292.465166 
L 501.393494 -290.797176 
L 503.393956 -289.129187 
L 504.94909 -287.461197 
L 506.063971 -285.793208 
L 506.784176 -284.125218 
L 507.188676 -282.457229 
L 507.377162 -280.78924 
L 507.454893 -279.12125 
L 507.518935 -277.453261 
L 507.648989 -275.785271 
L 507.904308 -274.117282 
L 508.326073 -272.449292 
L 508.942818 -270.781303 
L 509.775715 -269.113314 
L 510.840992 -267.445324 
L 512.148305 -265.777335 
L 513.695956 -264.109345 
L 515.465805 -262.441356 
L 517.421622 -260.773366 
L 519.514099 -259.105377 
L 521.693518 -257.437388 
L 523.927851 -255.769398 
L 526.220859 -254.101409 
L 528.622903 -252.433419 
L 531.227701 -250.76543 
L 534.151439 -249.09744 
L 537.495743 -247.429451 
L 541.301657 -245.761462 
L 545.505953 -244.093472 
L 549.912484 -242.425483 
L 554.188987 -240.757493 
L 557.89424 -239.089504 
L 560.533123 -237.421514 
L 561.63 -235.753525 
L 560.805862 -234.085536 
L 557.84338 -232.417546 
L 552.726613 -230.749557 
L 545.6479 -229.081567 
L 536.981741 -227.413578 
L 527.23224 -225.745588 
L 516.965407 -224.077599 
L 506.739235 -222.40961 
L 497.043252 -220.74162 
L 488.255744 -219.073631 
L 480.622387 -217.405641 
L 474.255678 -215.737652 
L 469.151177 -214.069662 
L 465.214633 -212.401673 
L 462.293604 -210.733684 
L 460.207943 -209.065694 
L 458.775134 -207.397705 
L 457.828311 -205.729715 
z
" style="stroke: #595959; stroke-width: 1.25"/>
    </defs>
    <g clip-path="url(#pb83111d7a8)">
     <use xlink:href="#mae9f2d3637" x="0" y="432" style="fill: #e99675; stroke: #595959; stroke-width: 1.25"/>
    </g>
   </g>
   <g id="FillBetweenPolyCollection_3">
    <defs>
     <path id="ma62b46a871" d="M 721.389792 -112.895901 
L 717.590208 -112.895901 
L 716.257535 -113.667107 
L 714.210389 -114.438313 
L 711.207282 -115.209518 
L 707.000968 -115.980724 
L 701.377792 -116.75193 
L 694.207414 -117.523135 
L 685.494759 -118.294341 
L 675.422617 -119.065547 
L 664.372351 -119.836753 
L 652.912843 -120.607958 
L 641.75375 -121.379164 
L 631.667128 -122.15037 
L 623.389281 -122.921575 
L 617.520074 -123.692781 
L 614.438429 -124.463987 
L 614.25 -125.235193 
L 616.776759 -126.006398 
L 621.590035 -126.777604 
L 628.080173 -127.54881 
L 635.549195 -128.320015 
L 643.308988 -129.091221 
L 650.767425 -129.862427 
L 657.488441 -130.633632 
L 663.218493 -131.404838 
L 667.879515 -132.176044 
L 671.535253 -132.94725 
L 674.342304 -133.718455 
L 676.498246 -134.489661 
L 678.197196 -135.260867 
L 679.599196 -136.032072 
L 680.815306 -136.803278 
L 681.906641 -137.574484 
L 682.893503 -138.34569 
L 683.770145 -139.116895 
L 684.521108 -139.888101 
L 685.135888 -140.659307 
L 685.619459 -141.430512 
L 685.996975 -142.201718 
L 686.311958 -142.972924 
L 686.618641 -143.744129 
L 686.970667 -144.515335 
L 687.409622 -145.286541 
L 687.957133 -146.057747 
L 688.613239 -146.828952 
L 689.36158 -147.600158 
L 690.179389 -148.371364 
L 691.048447 -149.142569 
L 691.962815 -149.913775 
L 692.930505 -150.684981 
L 693.968737 -151.456187 
L 695.094966 -152.227392 
L 696.317428 -152.998598 
L 697.628923 -153.769804 
L 699.00608 -154.541009 
L 700.4141 -155.312215 
L 701.814954 -156.083421 
L 703.175903 -156.854626 
L 704.47548 -157.625832 
L 705.705309 -158.397038 
L 706.867861 -159.168244 
L 707.971675 -159.939449 
L 709.026146 -160.710655 
L 710.037725 -161.481861 
L 711.008406 -162.253066 
L 711.936303 -163.024272 
L 712.817418 -163.795478 
L 713.647481 -164.566684 
L 714.423117 -165.337889 
L 715.142119 -166.109095 
L 715.803113 -166.880301 
L 716.405073 -167.651506 
L 716.947054 -168.422712 
L 717.428285 -169.193918 
L 717.848494 -169.965123 
L 718.208269 -170.736329 
L 718.509262 -171.507535 
L 718.754167 -172.278741 
L 718.946528 -173.049946 
L 719.09045 -173.821152 
L 719.190351 -174.592358 
L 719.250828 -175.363563 
L 719.276698 -176.134769 
L 719.273203 -176.905975 
L 719.246314 -177.677181 
L 719.202975 -178.448386 
L 719.15112 -179.219592 
L 719.099298 -179.990798 
L 719.055876 -180.762003 
L 719.027956 -181.533209 
L 719.020274 -182.304415 
L 719.034429 -183.07562 
L 719.068717 -183.846826 
L 719.118644 -184.618032 
L 719.178 -185.389238 
L 719.240169 -186.160443 
L 719.299342 -186.931649 
L 719.351332 -187.702855 
L 719.393881 -188.47406 
L 719.426504 -189.245266 
L 719.553496 -189.245266 
L 719.553496 -189.245266 
L 719.586119 -188.47406 
L 719.628668 -187.702855 
L 719.680658 -186.931649 
L 719.739831 -186.160443 
L 719.802 -185.389238 
L 719.861356 -184.618032 
L 719.911283 -183.846826 
L 719.945571 -183.07562 
L 719.959726 -182.304415 
L 719.952044 -181.533209 
L 719.924124 -180.762003 
L 719.880702 -179.990798 
L 719.82888 -179.219592 
L 719.777025 -178.448386 
L 719.733686 -177.677181 
L 719.706797 -176.905975 
L 719.703302 -176.134769 
L 719.729172 -175.363563 
L 719.789649 -174.592358 
L 719.88955 -173.821152 
L 720.033472 -173.049946 
L 720.225833 -172.278741 
L 720.470738 -171.507535 
L 720.771731 -170.736329 
L 721.131506 -169.965123 
L 721.551715 -169.193918 
L 722.032946 -168.422712 
L 722.574927 -167.651506 
L 723.176887 -166.880301 
L 723.837881 -166.109095 
L 724.556883 -165.337889 
L 725.332519 -164.566684 
L 726.162582 -163.795478 
L 727.043697 -163.024272 
L 727.971594 -162.253066 
L 728.942275 -161.481861 
L 729.953854 -160.710655 
L 731.008325 -159.939449 
L 732.112139 -159.168244 
L 733.274691 -158.397038 
L 734.50452 -157.625832 
L 735.804097 -156.854626 
L 737.165046 -156.083421 
L 738.5659 -155.312215 
L 739.97392 -154.541009 
L 741.351077 -153.769804 
L 742.662572 -152.998598 
L 743.885034 -152.227392 
L 745.011263 -151.456187 
L 746.049495 -150.684981 
L 747.017185 -149.913775 
L 747.931553 -149.142569 
L 748.800611 -148.371364 
L 749.61842 -147.600158 
L 750.366761 -146.828952 
L 751.022867 -146.057747 
L 751.570378 -145.286541 
L 752.009333 -144.515335 
L 752.361359 -143.744129 
L 752.668042 -142.972924 
L 752.983025 -142.201718 
L 753.360541 -141.430512 
L 753.844112 -140.659307 
L 754.458892 -139.888101 
L 755.209855 -139.116895 
L 756.086497 -138.34569 
L 757.073359 -137.574484 
L 758.164694 -136.803278 
L 759.380804 -136.032072 
L 760.782804 -135.260867 
L 762.481754 -134.489661 
L 764.637696 -133.718455 
L 767.444747 -132.94725 
L 771.100485 -132.176044 
L 775.761507 -131.404838 
L 781.491559 -130.633632 
L 788.212575 -129.862427 
L 795.671012 -129.091221 
L 803.430805 -128.320015 
L 810.899827 -127.54881 
L 817.389965 -126.777604 
L 822.203241 -126.006398 
L 824.73 -125.235193 
L 824.541571 -124.463987 
L 821.459926 -123.692781 
L 815.590719 -122.921575 
L 807.312872 -122.15037 
L 797.22625 -121.379164 
L 786.067157 -120.607958 
L 774.607649 -119.836753 
L 763.557383 -119.065547 
L 753.485241 -118.294341 
L 744.772586 -117.523135 
L 737.602208 -116.75193 
L 731.979032 -115.980724 
L 727.772718 -115.209518 
L 724.769611 -114.438313 
L 722.722465 -113.667107 
L 721.389792 -112.895901 
z
" style="stroke: #595959; stroke-width: 1.25"/>
    </defs>
    <g clip-path="url(#pb83111d7a8)">
     <use xlink:href="#ma62b46a871" x="0" y="432" style="fill: #95a3c3; stroke: #595959; stroke-width: 1.25"/>
    </g>
   </g>
   <g id="line2d_8">
    <path d="M 193.29 249.915233 
L 193.29 258.546874 
" clip-path="url(#pb83111d7a8)" style="fill: none; stroke: #000000"/>
   </g>
   <g id="line2d_9">
    <path d="M 193.29 220.806552 
L 193.29 178.231373 
" clip-path="url(#pb83111d7a8)" style="fill: none; stroke: #000000"/>
   </g>
   <g id="line2d_10">
    <path d="M 183.42375 258.546874 
L 203.15625 258.546874 
" clip-path="url(#pb83111d7a8)" style="fill: none; stroke: #000000; stroke-linecap: round"/>
   </g>
   <g id="line2d_11">
    <path d="M 183.42375 178.231373 
L 203.15625 178.231373 
" clip-path="url(#pb83111d7a8)" style="fill: none; stroke: #000000; stroke-linecap: round"/>
   </g>
   <g id="line2d_12">
    <path d="M 456.39 196.660709 
L 456.39 210.368949 
" clip-path="url(#pb83111d7a8)" style="fill: none; stroke: #000000"/>
   </g>
   <g id="line2d_13">
    <path d="M 456.39 154.625896 
L 456.39 92.910373 
" clip-path="url(#pb83111d7a8)" style="fill: none; stroke: #000000"/>
   </g>
   <g id="line2d_14">
    <path d="M 446.52375 210.368949 
L 466.25625 210.368949 
" clip-path="url(#pb83111d7a8)" style="fill: none; stroke: #000000; stroke-linecap: round"/>
   </g>
   <g id="line2d_15">
    <path d="M 446.52375 92.910373 
L 466.25625 92.910373 
" clip-path="url(#pb83111d7a8)" style="fill: none; stroke: #000000; stroke-linecap: round"/>
   </g>
   <g id="line2d_16">
    <path d="M 719.49 307.634889 
L 719.49 312.071581 
" clip-path="url(#pb83111d7a8)" style="fill: none; stroke: #000000"/>
   </g>
   <g id="line2d_17">
    <path d="M 719.49 290.556469 
L 719.49 265.543196 
" clip-path="url(#pb83111d7a8)" style="fill: none; stroke: #000000"/>
   </g>
   <g id="line2d_18">
    <path d="M 709.62375 312.071581 
L 729.35625 312.071581 
" clip-path="url(#pb83111d7a8)" style="fill: none; stroke: #000000; stroke-linecap: round"/>
   </g>
   <g id="line2d_19">
    <path d="M 709.62375 265.543196 
L 729.35625 265.543196 
" clip-path="url(#pb83111d7a8)" style="fill: none; stroke: #000000; stroke-linecap: round"/>
   </g>
   <g id="line2d_20">
    <path d="M 173.5575 244.468909 
L 213.0225 244.468909 
" clip-path="url(#pb83111d7a8)" style="fill: none; stroke: #ff0000; stroke-width: 2"/>
   </g>
   <g id="line2d_21">
    <path d="M 436.6575 179.368986 
L 476.1225 179.368986 
" clip-path="url(#pb83111d7a8)" style="fill: none; stroke: #ff0000; stroke-width: 2"/>
   </g>
   <g id="line2d_22">
    <path d="M 699.7575 303.567922 
L 739.2225 303.567922 
" clip-path="url(#pb83111d7a8)" style="fill: none; stroke: #ff0000; stroke-width: 2"/>
   </g>
   <g id="patch_3">
    <path d="M 61.74 361.444 
L 61.74 20.16 
" style="fill: none; stroke: #cccccc; stroke-width: 1.25; stroke-linejoin: miter; stroke-linecap: square"/>
   </g>
   <g id="patch_4">
    <path d="M 851.04 361.444 
L 851.04 20.16 
" style="fill: none; stroke: #cccccc; stroke-width: 1.25; stroke-linejoin: miter; stroke-linecap: square"/>
   </g>
   <g id="patch_5">
    <path d="M 61.74 361.444 
L 851.04 361.444 
" style="fill: none; stroke: #cccccc; stroke-width: 1.25; stroke-linejoin: miter; stroke-linecap: square"/>
   </g>
   <g id="patch_6">
    <path d="M 61.74 20.16 
L 851.04 20.16 
" style="fill: none; stroke: #cccccc; stroke-width: 1.25; stroke-linejoin: miter; stroke-linecap: square"/>
   </g>
   <g id="text_12">
    <g id="patch_7">
     <path d="M 631.47375 63.116075 
L 820.575 63.116075 
L 820.575 28.2242 
L 631.47375 28.2242 
z
" style="fill: #ffffff; opacity: 0.8; stroke: #808080; stroke-linejoin: miter"/>
    </g>
    <!-- Signature: secp521r1 -->
    <g style="fill: #262626" transform="translate(640.47375 50.327638) scale(0.18 -0.18)">
     <defs>
      <path id="ArialMT-53" d="M 288 1472 
L 859 1522 
Q 900 1178 1048 958 
Q 1197 738 1509 602 
Q 1822 466 2213 466 
Q 2559 466 2825 569 
Q 3091 672 3220 851 
Q 3350 1031 3350 1244 
Q 3350 1459 3225 1620 
Q 3100 1781 2813 1891 
Q 2628 1963 1997 2114 
Q 1366 2266 1113 2400 
Q 784 2572 623 2826 
Q 463 3081 463 3397 
Q 463 3744 659 4045 
Q 856 4347 1234 4503 
Q 1613 4659 2075 4659 
Q 2584 4659 2973 4495 
Q 3363 4331 3572 4012 
Q 3781 3694 3797 3291 
L 3216 3247 
Q 3169 3681 2898 3903 
Q 2628 4125 2100 4125 
Q 1550 4125 1298 3923 
Q 1047 3722 1047 3438 
Q 1047 3191 1225 3031 
Q 1400 2872 2139 2705 
Q 2878 2538 3153 2413 
Q 3553 2228 3743 1945 
Q 3934 1663 3934 1294 
Q 3934 928 3725 604 
Q 3516 281 3123 101 
Q 2731 -78 2241 -78 
Q 1619 -78 1198 103 
Q 778 284 539 648 
Q 300 1013 288 1472 
z
" transform="scale(0.015625)"/>
      <path id="ArialMT-67" d="M 319 -275 
L 866 -356 
Q 900 -609 1056 -725 
Q 1266 -881 1628 -881 
Q 2019 -881 2231 -725 
Q 2444 -569 2519 -288 
Q 2563 -116 2559 434 
Q 2191 0 1641 0 
Q 956 0 581 494 
Q 206 988 206 1678 
Q 206 2153 378 2554 
Q 550 2956 876 3175 
Q 1203 3394 1644 3394 
Q 2231 3394 2613 2919 
L 2613 3319 
L 3131 3319 
L 3131 450 
Q 3131 -325 2973 -648 
Q 2816 -972 2473 -1159 
Q 2131 -1347 1631 -1347 
Q 1038 -1347 672 -1080 
Q 306 -813 319 -275 
z
M 784 1719 
Q 784 1066 1043 766 
Q 1303 466 1694 466 
Q 2081 466 2343 764 
Q 2606 1063 2606 1700 
Q 2606 2309 2336 2618 
Q 2066 2928 1684 2928 
Q 1309 2928 1046 2623 
Q 784 2319 784 1719 
z
" transform="scale(0.015625)"/>
      <path id="ArialMT-3a" d="M 578 2678 
L 578 3319 
L 1219 3319 
L 1219 2678 
L 578 2678 
z
M 578 0 
L 578 641 
L 1219 641 
L 1219 0 
L 578 0 
z
" transform="scale(0.015625)"/>
      <path id="ArialMT-63" d="M 2588 1216 
L 3141 1144 
Q 3050 572 2676 248 
Q 2303 -75 1759 -75 
Q 1078 -75 664 370 
Q 250 816 250 1647 
Q 250 2184 428 2587 
Q 606 2991 970 3192 
Q 1334 3394 1763 3394 
Q 2303 3394 2647 3120 
Q 2991 2847 3088 2344 
L 2541 2259 
Q 2463 2594 2264 2762 
Q 2066 2931 1784 2931 
Q 1359 2931 1093 2626 
Q 828 2322 828 1663 
Q 828 994 1084 691 
Q 1341 388 1753 388 
Q 2084 388 2306 591 
Q 2528 794 2588 1216 
z
" transform="scale(0.015625)"/>
      <path id="ArialMT-70" d="M 422 -1272 
L 422 3319 
L 934 3319 
L 934 2888 
Q 1116 3141 1344 3267 
Q 1572 3394 1897 3394 
Q 2322 3394 2647 3175 
Q 2972 2956 3137 2557 
Q 3303 2159 3303 1684 
Q 3303 1175 3120 767 
Q 2938 359 2589 142 
Q 2241 -75 1856 -75 
Q 1575 -75 1351 44 
Q 1128 163 984 344 
L 984 -1272 
L 422 -1272 
z
M 931 1641 
Q 931 1000 1190 694 
Q 1450 388 1819 388 
Q 2194 388 2461 705 
Q 2728 1022 2728 1688 
Q 2728 2322 2467 2637 
Q 2206 2953 1844 2953 
Q 1484 2953 1207 2617 
Q 931 2281 931 1641 
z
" transform="scale(0.015625)"/>
     </defs>
     <use xlink:href="#ArialMT-53"/>
     <use xlink:href="#ArialMT-69" transform="translate(66.699219 0)"/>
     <use xlink:href="#ArialMT-67" transform="translate(88.916016 0)"/>
     <use xlink:href="#ArialMT-6e" transform="translate(144.53125 0)"/>
     <use xlink:href="#ArialMT-61" transform="translate(200.146484 0)"/>
     <use xlink:href="#ArialMT-74" transform="translate(255.761719 0)"/>
     <use xlink:href="#ArialMT-75" transform="translate(283.544922 0)"/>
     <use xlink:href="#ArialMT-72" transform="translate(339.160156 0)"/>
     <use xlink:href="#ArialMT-65" transform="translate(372.460938 0)"/>
     <use xlink:href="#ArialMT-3a" transform="translate(428.076172 0)"/>
     <use xlink:href="#ArialMT-20" transform="translate(455.859375 0)"/>
     <use xlink:href="#ArialMT-73" transform="translate(483.642578 0)"/>
     <use xlink:href="#ArialMT-65" transform="translate(533.642578 0)"/>
     <use xlink:href="#ArialMT-63" transform="translate(589.257812 0)"/>
     <use xlink:href="#ArialMT-70" transform="translate(639.257812 0)"/>
     <use xlink:href="#ArialMT-35" transform="translate(694.873047 0)"/>
     <use xlink:href="#ArialMT-32" transform="translate(750.488281 0)"/>
     <use xlink:href="#ArialMT-31" transform="translate(806.103516 0)"/>
     <use xlink:href="#ArialMT-72" transform="translate(861.71875 0)"/>
     <use xlink:href="#ArialMT-31" transform="translate(895.019531 0)"/>
    </g>
   </g>
  </g>
 </g>
 <defs>
  <clipPath id="pb83111d7a8">
   <rect x="61.74" y="20.16" width="789.3" height="341.284"/>
  </clipPath>
 </defs>
</svg>
