<?xml version="1.0" encoding="utf-8" standalone="no"?>
<!DOCTYPE svg PUBLIC "-//W3C//DTD SVG 1.1//EN"
  "http://www.w3.org/Graphics/SVG/1.1/DTD/svg11.dtd">
<svg xmlns:xlink="http://www.w3.org/1999/xlink" width="864pt" height="432pt" viewBox="0 0 864 432" xmlns="http://www.w3.org/2000/svg" version="1.1">
 <metadata>
  <rdf:RDF xmlns:dc="http://purl.org/dc/elements/1.1/" xmlns:cc="http://creativecommons.org/ns#" xmlns:rdf="http://www.w3.org/1999/02/22-rdf-syntax-ns#">
   <cc:Work>
    <dc:type rdf:resource="http://purl.org/dc/dcmitype/StillImage"/>
    <dc:date>2025-10-07T07:40:25.371494</dc:date>
    <dc:format>image/svg+xml</dc:format>
    <dc:creator>
     <cc:Agent>
      <dc:title>Matplotlib v3.10.3, https://matplotlib.org/</dc:title>
     </cc:Agent>
    </dc:creator>
   </cc:Work>
  </rdf:RDF>
 </metadata>
 <defs>
  <style type="text/css">*{stroke-linejoin: round; stroke-linecap: butt}</style>
 </defs>
 <g id="figure_1">
  <g id="patch_1">
   <path d="M 0 432 
L 864 432 
L 864 0 
L 0 0 
z
" style="fill: #ffffff"/>
  </g>
  <g id="axes_1">
   <g id="patch_2">
    <path d="M 61.74 361.444 
L 851.04 361.444 
L 851.04 20.16 
L 61.74 20.16 
z
" style="fill: #ffffff"/>
   </g>
   <g id="matplotlib.axis_1">
    <g id="xtick_1">
     <g id="text_1">
      <!-- P-384 -->
      <g style="fill: #262626" transform="translate(108.650625 388.12275) scale(0.24 -0.24)">
       <defs>
        <path id="ArialMT-50" d="M 494 0 
L 494 4581 
L 2222 4581 
Q 2678 4581 2919 4538 
Q 3256 4481 3484 4323 
Q 3713 4166 3852 3881 
Q 3991 3597 3991 3256 
Q 3991 2672 3619 2267 
Q 3247 1863 2275 1863 
L 1100 1863 
L 1100 0 
L 494 0 
z
M 1100 2403 
L 2284 2403 
Q 2872 2403 3119 2622 
Q 3366 2841 3366 3238 
Q 3366 3525 3220 3729 
Q 3075 3934 2838 4000 
Q 2684 4041 2272 4041 
L 1100 4041 
L 1100 2403 
z
" transform="scale(0.015625)"/>
        <path id="ArialMT-2d" d="M 203 1375 
L 203 1941 
L 1931 1941 
L 1931 1375 
L 203 1375 
z
" transform="scale(0.015625)"/>
        <path id="ArialMT-33" d="M 269 1209 
L 831 1284 
Q 928 806 1161 595 
Q 1394 384 1728 384 
Q 2125 384 2398 659 
Q 2672 934 2672 1341 
Q 2672 1728 2419 1979 
Q 2166 2231 1775 2231 
Q 1616 2231 1378 2169 
L 1441 2663 
Q 1497 2656 1531 2656 
Q 1891 2656 2178 2843 
Q 2466 3031 2466 3422 
Q 2466 3731 2256 3934 
Q 2047 4138 1716 4138 
Q 1388 4138 1169 3931 
Q 950 3725 888 3313 
L 325 3413 
Q 428 3978 793 4289 
Q 1159 4600 1703 4600 
Q 2078 4600 2393 4439 
Q 2709 4278 2876 4000 
Q 3044 3722 3044 3409 
Q 3044 3113 2884 2869 
Q 2725 2625 2413 2481 
Q 2819 2388 3044 2092 
Q 3269 1797 3269 1353 
Q 3269 753 2831 336 
Q 2394 -81 1725 -81 
Q 1122 -81 723 278 
Q 325 638 269 1209 
z
" transform="scale(0.015625)"/>
        <path id="ArialMT-38" d="M 1131 2484 
Q 781 2613 612 2850 
Q 444 3088 444 3419 
Q 444 3919 803 4259 
Q 1163 4600 1759 4600 
Q 2359 4600 2725 4251 
Q 3091 3903 3091 3403 
Q 3091 3084 2923 2848 
Q 2756 2613 2416 2484 
Q 2838 2347 3058 2040 
Q 3278 1734 3278 1309 
Q 3278 722 2862 322 
Q 2447 -78 1769 -78 
Q 1091 -78 675 323 
Q 259 725 259 1325 
Q 259 1772 486 2073 
Q 713 2375 1131 2484 
z
M 1019 3438 
Q 1019 3113 1228 2906 
Q 1438 2700 1772 2700 
Q 2097 2700 2305 2904 
Q 2513 3109 2513 3406 
Q 2513 3716 2298 3927 
Q 2084 4138 1766 4138 
Q 1444 4138 1231 3931 
Q 1019 3725 1019 3438 
z
M 838 1322 
Q 838 1081 952 856 
Q 1066 631 1291 507 
Q 1516 384 1775 384 
Q 2178 384 2440 643 
Q 2703 903 2703 1303 
Q 2703 1709 2433 1975 
Q 2163 2241 1756 2241 
Q 1359 2241 1098 1978 
Q 838 1716 838 1322 
z
" transform="scale(0.015625)"/>
        <path id="ArialMT-34" d="M 2069 0 
L 2069 1097 
L 81 1097 
L 81 1613 
L 2172 4581 
L 2631 4581 
L 2631 1613 
L 3250 1613 
L 3250 1097 
L 2631 1097 
L 2631 0 
L 2069 0 
z
M 2069 1613 
L 2069 3678 
L 634 1613 
L 2069 1613 
z
" transform="scale(0.015625)"/>
       </defs>
       <use xlink:href="#ArialMT-50"/>
       <use xlink:href="#ArialMT-2d" transform="translate(66.699219 0)"/>
       <use xlink:href="#ArialMT-33" transform="translate(100 0)"/>
       <use xlink:href="#ArialMT-38" transform="translate(155.615234 0)"/>
       <use xlink:href="#ArialMT-34" transform="translate(211.230469 0)"/>
      </g>
     </g>
    </g>
    <g id="xtick_2">
     <g id="text_2">
      <!-- x448 -->
      <g style="fill: #262626" transform="translate(272.510625 388.12275) scale(0.24 -0.24)">
       <defs>
        <path id="ArialMT-78" d="M 47 0 
L 1259 1725 
L 138 3319 
L 841 3319 
L 1350 2541 
Q 1494 2319 1581 2169 
Q 1719 2375 1834 2534 
L 2394 3319 
L 3066 3319 
L 1919 1756 
L 3153 0 
L 2463 0 
L 1781 1031 
L 1600 1309 
L 728 0 
L 47 0 
z
" transform="scale(0.015625)"/>
       </defs>
       <use xlink:href="#ArialMT-78"/>
       <use xlink:href="#ArialMT-34" transform="translate(50 0)"/>
       <use xlink:href="#ArialMT-34" transform="translate(105.615234 0)"/>
       <use xlink:href="#ArialMT-38" transform="translate(161.230469 0)"/>
      </g>
     </g>
    </g>
    <g id="xtick_3">
     <g id="text_3">
      <!-- P-384 -->
      <g style="fill: #262626" transform="translate(424.370625 388.12275) scale(0.24 -0.24)">
       <use xlink:href="#ArialMT-50"/>
       <use xlink:href="#ArialMT-2d" transform="translate(66.699219 0)"/>
       <use xlink:href="#ArialMT-33" transform="translate(100 0)"/>
       <use xlink:href="#ArialMT-38" transform="translate(155.615234 0)"/>
       <use xlink:href="#ArialMT-34" transform="translate(211.230469 0)"/>
      </g>
      <!-- mlkem768 -->
      <g style="fill: #262626" transform="translate(401.04 413.50725) scale(0.24 -0.24)">
       <defs>
        <path id="ArialMT-6d" d="M 422 0 
L 422 3319 
L 925 3319 
L 925 2853 
Q 1081 3097 1340 3245 
Q 1600 3394 1931 3394 
Q 2300 3394 2536 3241 
Q 2772 3088 2869 2813 
Q 3263 3394 3894 3394 
Q 4388 3394 4653 3120 
Q 4919 2847 4919 2278 
L 4919 0 
L 4359 0 
L 4359 2091 
Q 4359 2428 4304 2576 
Q 4250 2725 4106 2815 
Q 3963 2906 3769 2906 
Q 3419 2906 3187 2673 
Q 2956 2441 2956 1928 
L 2956 0 
L 2394 0 
L 2394 2156 
Q 2394 2531 2256 2718 
Q 2119 2906 1806 2906 
Q 1569 2906 1367 2781 
Q 1166 2656 1075 2415 
Q 984 2175 984 1722 
L 984 0 
L 422 0 
z
" transform="scale(0.015625)"/>
        <path id="ArialMT-6c" d="M 409 0 
L 409 4581 
L 972 4581 
L 972 0 
L 409 0 
z
" transform="scale(0.015625)"/>
        <path id="ArialMT-6b" d="M 425 0 
L 425 4581 
L 988 4581 
L 988 1969 
L 2319 3319 
L 3047 3319 
L 1778 2088 
L 3175 0 
L 2481 0 
L 1384 1697 
L 988 1316 
L 988 0 
L 425 0 
z
" transform="scale(0.015625)"/>
        <path id="ArialMT-65" d="M 2694 1069 
L 3275 997 
Q 3138 488 2766 206 
Q 2394 -75 1816 -75 
Q 1088 -75 661 373 
Q 234 822 234 1631 
Q 234 2469 665 2931 
Q 1097 3394 1784 3394 
Q 2450 3394 2872 2941 
Q 3294 2488 3294 1666 
Q 3294 1616 3291 1516 
L 816 1516 
Q 847 969 1125 678 
Q 1403 388 1819 388 
Q 2128 388 2347 550 
Q 2566 713 2694 1069 
z
M 847 1978 
L 2700 1978 
Q 2663 2397 2488 2606 
Q 2219 2931 1791 2931 
Q 1403 2931 1139 2672 
Q 875 2413 847 1978 
z
" transform="scale(0.015625)"/>
        <path id="ArialMT-37" d="M 303 3981 
L 303 4522 
L 3269 4522 
L 3269 4084 
Q 2831 3619 2401 2847 
Q 1972 2075 1738 1259 
Q 1569 684 1522 0 
L 944 0 
Q 953 541 1156 1306 
Q 1359 2072 1739 2783 
Q 2119 3494 2547 3981 
L 303 3981 
z
" transform="scale(0.015625)"/>
        <path id="ArialMT-36" d="M 3184 3459 
L 2625 3416 
Q 2550 3747 2413 3897 
Q 2184 4138 1850 4138 
Q 1581 4138 1378 3988 
Q 1113 3794 959 3422 
Q 806 3050 800 2363 
Q 1003 2672 1297 2822 
Q 1591 2972 1913 2972 
Q 2475 2972 2870 2558 
Q 3266 2144 3266 1488 
Q 3266 1056 3080 686 
Q 2894 316 2569 119 
Q 2244 -78 1831 -78 
Q 1128 -78 684 439 
Q 241 956 241 2144 
Q 241 3472 731 4075 
Q 1159 4600 1884 4600 
Q 2425 4600 2770 4297 
Q 3116 3994 3184 3459 
z
M 888 1484 
Q 888 1194 1011 928 
Q 1134 663 1356 523 
Q 1578 384 1822 384 
Q 2178 384 2434 671 
Q 2691 959 2691 1453 
Q 2691 1928 2437 2201 
Q 2184 2475 1800 2475 
Q 1419 2475 1153 2201 
Q 888 1928 888 1484 
z
" transform="scale(0.015625)"/>
       </defs>
       <use xlink:href="#ArialMT-6d"/>
       <use xlink:href="#ArialMT-6c" transform="translate(83.300781 0)"/>
       <use xlink:href="#ArialMT-6b" transform="translate(105.517578 0)"/>
       <use xlink:href="#ArialMT-65" transform="translate(155.517578 0)"/>
       <use xlink:href="#ArialMT-6d" transform="translate(211.132812 0)"/>
       <use xlink:href="#ArialMT-37" transform="translate(294.433594 0)"/>
       <use xlink:href="#ArialMT-36" transform="translate(350.048828 0)"/>
       <use xlink:href="#ArialMT-38" transform="translate(405.664062 0)"/>
      </g>
     </g>
    </g>
    <g id="xtick_4">
     <g id="text_4">
      <!-- x448 -->
      <g style="fill: #262626" transform="translate(588.230625 388.12275) scale(0.24 -0.24)">
       <use xlink:href="#ArialMT-78"/>
       <use xlink:href="#ArialMT-34" transform="translate(50 0)"/>
       <use xlink:href="#ArialMT-34" transform="translate(105.615234 0)"/>
       <use xlink:href="#ArialMT-38" transform="translate(161.230469 0)"/>
      </g>
      <!-- mlkem768 -->
      <g style="fill: #262626" transform="translate(558.9 413.50725) scale(0.24 -0.24)">
       <use xlink:href="#ArialMT-6d"/>
       <use xlink:href="#ArialMT-6c" transform="translate(83.300781 0)"/>
       <use xlink:href="#ArialMT-6b" transform="translate(105.517578 0)"/>
       <use xlink:href="#ArialMT-65" transform="translate(155.517578 0)"/>
       <use xlink:href="#ArialMT-6d" transform="translate(211.132812 0)"/>
       <use xlink:href="#ArialMT-37" transform="translate(294.433594 0)"/>
       <use xlink:href="#ArialMT-36" transform="translate(350.048828 0)"/>
       <use xlink:href="#ArialMT-38" transform="translate(405.664062 0)"/>
      </g>
     </g>
    </g>
    <g id="xtick_5">
     <g id="text_5">
      <!-- mlkem768 -->
      <g style="fill: #262626" transform="translate(716.76 388.12275) scale(0.24 -0.24)">
       <use xlink:href="#ArialMT-6d"/>
       <use xlink:href="#ArialMT-6c" transform="translate(83.300781 0)"/>
       <use xlink:href="#ArialMT-6b" transform="translate(105.517578 0)"/>
       <use xlink:href="#ArialMT-65" transform="translate(155.517578 0)"/>
       <use xlink:href="#ArialMT-6d" transform="translate(211.132812 0)"/>
       <use xlink:href="#ArialMT-37" transform="translate(294.433594 0)"/>
       <use xlink:href="#ArialMT-36" transform="translate(350.048828 0)"/>
       <use xlink:href="#ArialMT-38" transform="translate(405.664062 0)"/>
      </g>
     </g>
    </g>
   </g>
   <g id="matplotlib.axis_2">
    <g id="ytick_1">
     <g id="line2d_1">
      <path d="M 61.74 361.444 
L 851.04 361.444 
" clip-path="url(#p58a291a600)" style="fill: none; stroke: #cccccc; stroke-linecap: round"/>
     </g>
     <g id="text_6">
      <!-- 0 -->
      <g style="fill: #262626" transform="translate(41.118125 368.601812) scale(0.2 -0.2)">
       <defs>
        <path id="ArialMT-30" d="M 266 2259 
Q 266 3072 433 3567 
Q 600 4063 929 4331 
Q 1259 4600 1759 4600 
Q 2128 4600 2406 4451 
Q 2684 4303 2865 4023 
Q 3047 3744 3150 3342 
Q 3253 2941 3253 2259 
Q 3253 1453 3087 958 
Q 2922 463 2592 192 
Q 2263 -78 1759 -78 
Q 1097 -78 719 397 
Q 266 969 266 2259 
z
M 844 2259 
Q 844 1131 1108 757 
Q 1372 384 1759 384 
Q 2147 384 2411 759 
Q 2675 1134 2675 2259 
Q 2675 3391 2411 3762 
Q 2147 4134 1753 4134 
Q 1366 4134 1134 3806 
Q 844 3388 844 2259 
z
" transform="scale(0.015625)"/>
       </defs>
       <use xlink:href="#ArialMT-30"/>
      </g>
     </g>
    </g>
    <g id="ytick_2">
     <g id="line2d_2">
      <path d="M 61.74 312.689143 
L 851.04 312.689143 
" clip-path="url(#p58a291a600)" style="fill: none; stroke: #cccccc; stroke-linecap: round"/>
     </g>
     <g id="text_7">
      <!-- 5 -->
      <g style="fill: #262626" transform="translate(41.118125 319.846955) scale(0.2 -0.2)">
       <defs>
        <path id="ArialMT-35" d="M 266 1200 
L 856 1250 
Q 922 819 1161 601 
Q 1400 384 1738 384 
Q 2144 384 2425 690 
Q 2706 997 2706 1503 
Q 2706 1984 2436 2262 
Q 2166 2541 1728 2541 
Q 1456 2541 1237 2417 
Q 1019 2294 894 2097 
L 366 2166 
L 809 4519 
L 3088 4519 
L 3088 3981 
L 1259 3981 
L 1013 2750 
Q 1425 3038 1878 3038 
Q 2478 3038 2890 2622 
Q 3303 2206 3303 1553 
Q 3303 931 2941 478 
Q 2500 -78 1738 -78 
Q 1113 -78 717 272 
Q 322 622 266 1200 
z
" transform="scale(0.015625)"/>
       </defs>
       <use xlink:href="#ArialMT-35"/>
      </g>
     </g>
    </g>
    <g id="ytick_3">
     <g id="line2d_3">
      <path d="M 61.74 263.934286 
L 851.04 263.934286 
" clip-path="url(#p58a291a600)" style="fill: none; stroke: #cccccc; stroke-linecap: round"/>
     </g>
     <g id="text_8">
      <!-- 10 -->
      <g style="fill: #262626" transform="translate(29.99625 271.092098) scale(0.2 -0.2)">
       <defs>
        <path id="ArialMT-31" d="M 2384 0 
L 1822 0 
L 1822 3584 
Q 1619 3391 1289 3197 
Q 959 3003 697 2906 
L 697 3450 
Q 1169 3672 1522 3987 
Q 1875 4303 2022 4600 
L 2384 4600 
L 2384 0 
z
" transform="scale(0.015625)"/>
       </defs>
       <use xlink:href="#ArialMT-31"/>
       <use xlink:href="#ArialMT-30" transform="translate(55.615234 0)"/>
      </g>
     </g>
    </g>
    <g id="ytick_4">
     <g id="line2d_4">
      <path d="M 61.74 215.179429 
L 851.04 215.179429 
" clip-path="url(#p58a291a600)" style="fill: none; stroke: #cccccc; stroke-linecap: round"/>
     </g>
     <g id="text_9">
      <!-- 15 -->
      <g style="fill: #262626" transform="translate(29.99625 222.337241) scale(0.2 -0.2)">
       <use xlink:href="#ArialMT-31"/>
       <use xlink:href="#ArialMT-35" transform="translate(55.615234 0)"/>
      </g>
     </g>
    </g>
    <g id="ytick_5">
     <g id="line2d_5">
      <path d="M 61.74 166.424571 
L 851.04 166.424571 
" clip-path="url(#p58a291a600)" style="fill: none; stroke: #cccccc; stroke-linecap: round"/>
     </g>
     <g id="text_10">
      <!-- 20 -->
      <g style="fill: #262626" transform="translate(29.99625 173.582384) scale(0.2 -0.2)">
       <defs>
        <path id="ArialMT-32" d="M 3222 541 
L 3222 0 
L 194 0 
Q 188 203 259 391 
Q 375 700 629 1000 
Q 884 1300 1366 1694 
Q 2113 2306 2375 2664 
Q 2638 3022 2638 3341 
Q 2638 3675 2398 3904 
Q 2159 4134 1775 4134 
Q 1369 4134 1125 3890 
Q 881 3647 878 3216 
L 300 3275 
Q 359 3922 746 4261 
Q 1134 4600 1788 4600 
Q 2447 4600 2831 4234 
Q 3216 3869 3216 3328 
Q 3216 3053 3103 2787 
Q 2991 2522 2730 2228 
Q 2469 1934 1863 1422 
Q 1356 997 1212 845 
Q 1069 694 975 541 
L 3222 541 
z
" transform="scale(0.015625)"/>
       </defs>
       <use xlink:href="#ArialMT-32"/>
       <use xlink:href="#ArialMT-30" transform="translate(55.615234 0)"/>
      </g>
     </g>
    </g>
    <g id="ytick_6">
     <g id="line2d_6">
      <path d="M 61.74 117.669714 
L 851.04 117.669714 
" clip-path="url(#p58a291a600)" style="fill: none; stroke: #cccccc; stroke-linecap: round"/>
     </g>
     <g id="text_11">
      <!-- 25 -->
      <g style="fill: #262626" transform="translate(29.99625 124.827527) scale(0.2 -0.2)">
       <use xlink:href="#ArialMT-32"/>
       <use xlink:href="#ArialMT-35" transform="translate(55.615234 0)"/>
      </g>
     </g>
    </g>
    <g id="ytick_7">
     <g id="line2d_7">
      <path d="M 61.74 68.914857 
L 851.04 68.914857 
" clip-path="url(#p58a291a600)" style="fill: none; stroke: #cccccc; stroke-linecap: round"/>
     </g>
     <g id="text_12">
      <!-- 30 -->
      <g style="fill: #262626" transform="translate(29.99625 76.07267) scale(0.2 -0.2)">
       <use xlink:href="#ArialMT-33"/>
       <use xlink:href="#ArialMT-30" transform="translate(55.615234 0)"/>
      </g>
     </g>
    </g>
    <g id="ytick_8">
     <g id="line2d_8">
      <path d="M 61.74 20.16 
L 851.04 20.16 
" clip-path="url(#p58a291a600)" style="fill: none; stroke: #cccccc; stroke-linecap: round"/>
     </g>
     <g id="text_13">
      <!-- 35 -->
      <g style="fill: #262626" transform="translate(29.99625 27.317813) scale(0.2 -0.2)">
       <use xlink:href="#ArialMT-33"/>
       <use xlink:href="#ArialMT-35" transform="translate(55.615234 0)"/>
      </g>
     </g>
    </g>
    <g id="text_14">
     <!-- Handshake duration (ms) -->
     <g style="fill: #262626" transform="translate(23.049688 269.389031) rotate(-90) scale(0.14 -0.14)">
      <defs>
       <path id="ArialMT-48" d="M 513 0 
L 513 4581 
L 1119 4581 
L 1119 2700 
L 3500 2700 
L 3500 4581 
L 4106 4581 
L 4106 0 
L 3500 0 
L 3500 2159 
L 1119 2159 
L 1119 0 
L 513 0 
z
" transform="scale(0.015625)"/>
       <path id="ArialMT-61" d="M 2588 409 
Q 2275 144 1986 34 
Q 1697 -75 1366 -75 
Q 819 -75 525 192 
Q 231 459 231 875 
Q 231 1119 342 1320 
Q 453 1522 633 1644 
Q 813 1766 1038 1828 
Q 1203 1872 1538 1913 
Q 2219 1994 2541 2106 
Q 2544 2222 2544 2253 
Q 2544 2597 2384 2738 
Q 2169 2928 1744 2928 
Q 1347 2928 1158 2789 
Q 969 2650 878 2297 
L 328 2372 
Q 403 2725 575 2942 
Q 747 3159 1072 3276 
Q 1397 3394 1825 3394 
Q 2250 3394 2515 3294 
Q 2781 3194 2906 3042 
Q 3031 2891 3081 2659 
Q 3109 2516 3109 2141 
L 3109 1391 
Q 3109 606 3145 398 
Q 3181 191 3288 0 
L 2700 0 
Q 2613 175 2588 409 
z
M 2541 1666 
Q 2234 1541 1622 1453 
Q 1275 1403 1131 1340 
Q 988 1278 909 1158 
Q 831 1038 831 891 
Q 831 666 1001 516 
Q 1172 366 1500 366 
Q 1825 366 2078 508 
Q 2331 650 2450 897 
Q 2541 1088 2541 1459 
L 2541 1666 
z
" transform="scale(0.015625)"/>
       <path id="ArialMT-6e" d="M 422 0 
L 422 3319 
L 928 3319 
L 928 2847 
Q 1294 3394 1984 3394 
Q 2284 3394 2536 3286 
Q 2788 3178 2913 3003 
Q 3038 2828 3088 2588 
Q 3119 2431 3119 2041 
L 3119 0 
L 2556 0 
L 2556 2019 
Q 2556 2363 2490 2533 
Q 2425 2703 2258 2804 
Q 2091 2906 1866 2906 
Q 1506 2906 1245 2678 
Q 984 2450 984 1813 
L 984 0 
L 422 0 
z
" transform="scale(0.015625)"/>
       <path id="ArialMT-64" d="M 2575 0 
L 2575 419 
Q 2259 -75 1647 -75 
Q 1250 -75 917 144 
Q 584 363 401 755 
Q 219 1147 219 1656 
Q 219 2153 384 2558 
Q 550 2963 881 3178 
Q 1213 3394 1622 3394 
Q 1922 3394 2156 3267 
Q 2391 3141 2538 2938 
L 2538 4581 
L 3097 4581 
L 3097 0 
L 2575 0 
z
M 797 1656 
Q 797 1019 1065 703 
Q 1334 388 1700 388 
Q 2069 388 2326 689 
Q 2584 991 2584 1609 
Q 2584 2291 2321 2609 
Q 2059 2928 1675 2928 
Q 1300 2928 1048 2622 
Q 797 2316 797 1656 
z
" transform="scale(0.015625)"/>
       <path id="ArialMT-73" d="M 197 991 
L 753 1078 
Q 800 744 1014 566 
Q 1228 388 1613 388 
Q 2000 388 2187 545 
Q 2375 703 2375 916 
Q 2375 1106 2209 1216 
Q 2094 1291 1634 1406 
Q 1016 1563 777 1677 
Q 538 1791 414 1992 
Q 291 2194 291 2438 
Q 291 2659 392 2848 
Q 494 3038 669 3163 
Q 800 3259 1026 3326 
Q 1253 3394 1513 3394 
Q 1903 3394 2198 3281 
Q 2494 3169 2634 2976 
Q 2775 2784 2828 2463 
L 2278 2388 
Q 2241 2644 2061 2787 
Q 1881 2931 1553 2931 
Q 1166 2931 1000 2803 
Q 834 2675 834 2503 
Q 834 2394 903 2306 
Q 972 2216 1119 2156 
Q 1203 2125 1616 2013 
Q 2213 1853 2448 1751 
Q 2684 1650 2818 1456 
Q 2953 1263 2953 975 
Q 2953 694 2789 445 
Q 2625 197 2315 61 
Q 2006 -75 1616 -75 
Q 969 -75 630 194 
Q 291 463 197 991 
z
" transform="scale(0.015625)"/>
       <path id="ArialMT-68" d="M 422 0 
L 422 4581 
L 984 4581 
L 984 2938 
Q 1378 3394 1978 3394 
Q 2347 3394 2619 3248 
Q 2891 3103 3008 2847 
Q 3125 2591 3125 2103 
L 3125 0 
L 2563 0 
L 2563 2103 
Q 2563 2525 2380 2717 
Q 2197 2909 1863 2909 
Q 1613 2909 1392 2779 
Q 1172 2650 1078 2428 
Q 984 2206 984 1816 
L 984 0 
L 422 0 
z
" transform="scale(0.015625)"/>
       <path id="ArialMT-20" transform="scale(0.015625)"/>
       <path id="ArialMT-75" d="M 2597 0 
L 2597 488 
Q 2209 -75 1544 -75 
Q 1250 -75 995 37 
Q 741 150 617 320 
Q 494 491 444 738 
Q 409 903 409 1263 
L 409 3319 
L 972 3319 
L 972 1478 
Q 972 1038 1006 884 
Q 1059 663 1231 536 
Q 1403 409 1656 409 
Q 1909 409 2131 539 
Q 2353 669 2445 892 
Q 2538 1116 2538 1541 
L 2538 3319 
L 3100 3319 
L 3100 0 
L 2597 0 
z
" transform="scale(0.015625)"/>
       <path id="ArialMT-72" d="M 416 0 
L 416 3319 
L 922 3319 
L 922 2816 
Q 1116 3169 1280 3281 
Q 1444 3394 1641 3394 
Q 1925 3394 2219 3213 
L 2025 2691 
Q 1819 2813 1613 2813 
Q 1428 2813 1281 2702 
Q 1134 2591 1072 2394 
Q 978 2094 978 1738 
L 978 0 
L 416 0 
z
" transform="scale(0.015625)"/>
       <path id="ArialMT-74" d="M 1650 503 
L 1731 6 
Q 1494 -44 1306 -44 
Q 1000 -44 831 53 
Q 663 150 594 308 
Q 525 466 525 972 
L 525 2881 
L 113 2881 
L 113 3319 
L 525 3319 
L 525 4141 
L 1084 4478 
L 1084 3319 
L 1650 3319 
L 1650 2881 
L 1084 2881 
L 1084 941 
Q 1084 700 1114 631 
Q 1144 563 1211 522 
Q 1278 481 1403 481 
Q 1497 481 1650 503 
z
" transform="scale(0.015625)"/>
       <path id="ArialMT-69" d="M 425 3934 
L 425 4581 
L 988 4581 
L 988 3934 
L 425 3934 
z
M 425 0 
L 425 3319 
L 988 3319 
L 988 0 
L 425 0 
z
" transform="scale(0.015625)"/>
       <path id="ArialMT-6f" d="M 213 1659 
Q 213 2581 725 3025 
Q 1153 3394 1769 3394 
Q 2453 3394 2887 2945 
Q 3322 2497 3322 1706 
Q 3322 1066 3130 698 
Q 2938 331 2570 128 
Q 2203 -75 1769 -75 
Q 1072 -75 642 372 
Q 213 819 213 1659 
z
M 791 1659 
Q 791 1022 1069 705 
Q 1347 388 1769 388 
Q 2188 388 2466 706 
Q 2744 1025 2744 1678 
Q 2744 2294 2464 2611 
Q 2184 2928 1769 2928 
Q 1347 2928 1069 2612 
Q 791 2297 791 1659 
z
" transform="scale(0.015625)"/>
       <path id="ArialMT-28" d="M 1497 -1347 
Q 1031 -759 709 28 
Q 388 816 388 1659 
Q 388 2403 628 3084 
Q 909 3875 1497 4659 
L 1900 4659 
Q 1522 4009 1400 3731 
Q 1209 3300 1100 2831 
Q 966 2247 966 1656 
Q 966 153 1900 -1347 
L 1497 -1347 
z
" transform="scale(0.015625)"/>
       <path id="ArialMT-29" d="M 791 -1347 
L 388 -1347 
Q 1322 153 1322 1656 
Q 1322 2244 1188 2822 
Q 1081 3291 891 3722 
Q 769 4003 388 4659 
L 791 4659 
Q 1378 3875 1659 3084 
Q 1900 2403 1900 1659 
Q 1900 816 1576 28 
Q 1253 -759 791 -1347 
z
" transform="scale(0.015625)"/>
      </defs>
      <use xlink:href="#ArialMT-48"/>
      <use xlink:href="#ArialMT-61" transform="translate(72.216797 0)"/>
      <use xlink:href="#ArialMT-6e" transform="translate(127.832031 0)"/>
      <use xlink:href="#ArialMT-64" transform="translate(183.447266 0)"/>
      <use xlink:href="#ArialMT-73" transform="translate(239.0625 0)"/>
      <use xlink:href="#ArialMT-68" transform="translate(289.0625 0)"/>
      <use xlink:href="#ArialMT-61" transform="translate(344.677734 0)"/>
      <use xlink:href="#ArialMT-6b" transform="translate(400.292969 0)"/>
      <use xlink:href="#ArialMT-65" transform="translate(450.292969 0)"/>
      <use xlink:href="#ArialMT-20" transform="translate(505.908203 0)"/>
      <use xlink:href="#ArialMT-64" transform="translate(533.691406 0)"/>
      <use xlink:href="#ArialMT-75" transform="translate(589.306641 0)"/>
      <use xlink:href="#ArialMT-72" transform="translate(644.921875 0)"/>
      <use xlink:href="#ArialMT-61" transform="translate(678.222656 0)"/>
      <use xlink:href="#ArialMT-74" transform="translate(733.837891 0)"/>
      <use xlink:href="#ArialMT-69" transform="translate(761.621094 0)"/>
      <use xlink:href="#ArialMT-6f" transform="translate(783.837891 0)"/>
      <use xlink:href="#ArialMT-6e" transform="translate(839.453125 0)"/>
      <use xlink:href="#ArialMT-20" transform="translate(895.068359 0)"/>
      <use xlink:href="#ArialMT-28" transform="translate(922.851562 0)"/>
      <use xlink:href="#ArialMT-6d" transform="translate(956.152344 0)"/>
      <use xlink:href="#ArialMT-73" transform="translate(1039.453125 0)"/>
      <use xlink:href="#ArialMT-29" transform="translate(1089.453125 0)"/>
     </g>
    </g>
   </g>
   <g id="FillBetweenPolyCollection_1">
    <defs>
     <path id="mf3ac8840b8" d="M 141.068518 -140.783716 
L 140.271482 -140.783716 
L 139.99276 -141.922881 
L 139.552231 -143.062046 
L 138.8782 -144.20121 
L 137.880413 -145.340375 
L 136.452384 -146.479539 
L 134.478156 -147.618704 
L 131.844441 -148.757869 
L 128.458191 -149.897033 
L 124.268218 -151.036198 
L 119.287774 -152.175362 
L 113.613533 -153.314527 
L 107.435682 -154.453692 
L 101.034457 -155.592856 
L 94.760574 -156.732021 
L 89.000413 -157.871185 
L 84.130607 -159.01035 
L 80.469893 -160.149515 
L 78.237447 -161.288679 
L 77.526 -162.427844 
L 78.294836 -163.567008 
L 80.383235 -164.706173 
L 83.540348 -165.845338 
L 87.464192 -166.984502 
L 91.841331 -168.123667 
L 96.379852 -169.262831 
L 100.831074 -170.401996 
L 104.998779 -171.541161 
L 108.73789 -172.680325 
L 111.946397 -173.81949 
L 114.554956 -174.958654 
L 116.517927 -176.097819 
L 117.80822 -177.236984 
L 118.416656 -178.376148 
L 118.355065 -179.515313 
L 117.66128 -180.654477 
L 116.403716 -181.793642 
L 114.683309 -182.932807 
L 112.631242 -184.071971 
L 110.401875 -185.211136 
L 108.161493 -186.3503 
L 106.074534 -187.489465 
L 104.289634 -188.62863 
L 102.927864 -189.767794 
L 102.074982 -190.906959 
L 101.778467 -192.046123 
L 102.048985 -193.185288 
L 102.865038 -194.324453 
L 104.179155 -195.463617 
L 105.924227 -196.602782 
L 108.019155 -197.741946 
L 110.373734 -198.881111 
L 112.893149 -200.020275 
L 115.482614 -201.15944 
L 118.052378 -202.298605 
L 120.522859 -203.437769 
L 122.829261 -204.576934 
L 124.924848 -205.716098 
L 126.782217 -206.855263 
L 128.392339 -207.994428 
L 129.761636 -209.133592 
L 130.907784 -210.272757 
L 131.855113 -211.411921 
L 132.630414 -212.551086 
L 133.259721 -213.690251 
L 133.766331 -214.829415 
L 134.170028 -215.96858 
L 134.487309 -217.107744 
L 134.732303 -218.246909 
L 134.918077 -219.386074 
L 135.057952 -220.525238 
L 135.166536 -221.664403 
L 135.26012 -222.803567 
L 135.356254 -223.942732 
L 135.472448 -225.081897 
L 135.624197 -226.221061 
L 135.822784 -227.360226 
L 136.073396 -228.49939 
L 136.374138 -229.638555 
L 136.71627 -230.77772 
L 137.085697 -231.916884 
L 137.465425 -233.056049 
L 137.838406 -234.195213 
L 138.190171 -235.334378 
L 138.510681 -236.473543 
L 138.795109 -237.612707 
L 139.043523 -238.751872 
L 139.259684 -239.891036 
L 139.449378 -241.030201 
L 139.618703 -242.169366 
L 139.772712 -243.30853 
L 139.914623 -244.447695 
L 140.045676 -245.586859 
L 140.165512 -246.726024 
L 140.272865 -247.865189 
L 140.366326 -249.004353 
L 140.444962 -250.143518 
L 140.508673 -251.282682 
L 140.558273 -252.421847 
L 140.59533 -253.561012 
L 140.74467 -253.561012 
L 140.74467 -253.561012 
L 140.781727 -252.421847 
L 140.831327 -251.282682 
L 140.895038 -250.143518 
L 140.973674 -249.004353 
L 141.067135 -247.865189 
L 141.174488 -246.726024 
L 141.294324 -245.586859 
L 141.425377 -244.447695 
L 141.567288 -243.30853 
L 141.721297 -242.169366 
L 141.890622 -241.030201 
L 142.080316 -239.891036 
L 142.296477 -238.751872 
L 142.544891 -237.612707 
L 142.829319 -236.473543 
L 143.149829 -235.334378 
L 143.501594 -234.195213 
L 143.874575 -233.056049 
L 144.254303 -231.916884 
L 144.62373 -230.77772 
L 144.965862 -229.638555 
L 145.266604 -228.49939 
L 145.517216 -227.360226 
L 145.715803 -226.221061 
L 145.867552 -225.081897 
L 145.983746 -223.942732 
L 146.07988 -222.803567 
L 146.173464 -221.664403 
L 146.282048 -220.525238 
L 146.421923 -219.386074 
L 146.607697 -218.246909 
L 146.852691 -217.107744 
L 147.169972 -215.96858 
L 147.573669 -214.829415 
L 148.080279 -213.690251 
L 148.709586 -212.551086 
L 149.484887 -211.411921 
L 150.432216 -210.272757 
L 151.578364 -209.133592 
L 152.947661 -207.994428 
L 154.557783 -206.855263 
L 156.415152 -205.716098 
L 158.510739 -204.576934 
L 160.817141 -203.437769 
L 163.287622 -202.298605 
L 165.857386 -201.15944 
L 168.446851 -200.020275 
L 170.966266 -198.881111 
L 173.320845 -197.741946 
L 175.415773 -196.602782 
L 177.160845 -195.463617 
L 178.474962 -194.324453 
L 179.291015 -193.185288 
L 179.561533 -192.046123 
L 179.265018 -190.906959 
L 178.412136 -189.767794 
L 177.050366 -188.62863 
L 175.265466 -187.489465 
L 173.178507 -186.3503 
L 170.938125 -185.211136 
L 168.708758 -184.071971 
L 166.656691 -182.932807 
L 164.936284 -181.793642 
L 163.67872 -180.654477 
L 162.984935 -179.515313 
L 162.923344 -178.376148 
L 163.53178 -177.236984 
L 164.822073 -176.097819 
L 166.785044 -174.958654 
L 169.393603 -173.81949 
L 172.60211 -172.680325 
L 176.341221 -171.541161 
L 180.508926 -170.401996 
L 184.960148 -169.262831 
L 189.498669 -168.123667 
L 193.875808 -166.984502 
L 197.799652 -165.845338 
L 200.956765 -164.706173 
L 203.045164 -163.567008 
L 203.814 -162.427844 
L 203.102553 -161.288679 
L 200.870107 -160.149515 
L 197.209393 -159.01035 
L 192.339587 -157.871185 
L 186.579426 -156.732021 
L 180.305543 -155.592856 
L 173.904318 -154.453692 
L 167.726467 -153.314527 
L 162.052226 -152.175362 
L 157.071782 -151.036198 
L 152.881809 -149.897033 
L 149.495559 -148.757869 
L 146.861844 -147.618704 
L 144.887616 -146.479539 
L 143.459587 -145.340375 
L 142.4618 -144.20121 
L 141.787769 -143.062046 
L 141.34724 -141.922881 
L 141.068518 -140.783716 
z
" style="stroke: #595959; stroke-width: 1.25"/>
    </defs>
    <g clip-path="url(#p58a291a600)">
     <use xlink:href="#mf3ac8840b8" x="0" y="432" style="fill: #72b6a1; stroke: #595959; stroke-width: 1.25"/>
    </g>
   </g>
   <g id="FillBetweenPolyCollection_2">
    <defs>
     <path id="mbfe7cc0270" d="M 298.767768 -113.960599 
L 298.292232 -113.960599 
L 298.12585 -114.660638 
L 297.863974 -115.360677 
L 297.465048 -116.060716 
L 296.876509 -116.760755 
L 296.035064 -117.460794 
L 294.868516 -118.160832 
L 293.299495 -118.860871 
L 291.251322 -119.56091 
L 288.655983 -120.260949 
L 285.463893 -120.960988 
L 281.654694 -121.661027 
L 277.247911 -122.361066 
L 272.311797 -123.061105 
L 266.968441 -123.761144 
L 261.393201 -124.461183 
L 255.807049 -125.161222 
L 250.461452 -125.861261 
L 245.616855 -126.5613 
L 241.517378 -127.261339 
L 238.365475 -127.961378 
L 236.300693 -128.661417 
L 235.386 -129.361455 
L 235.603639 -130.061494 
L 236.860393 -130.761533 
L 239.000255 -131.461572 
L 241.821323 -132.161611 
L 245.093587 -132.86165 
L 248.575194 -133.561689 
L 252.026181 -134.261728 
L 255.220098 -134.961767 
L 257.9547 -135.661806 
L 260.06278 -136.361845 
L 261.423361 -137.061884 
L 261.972299 -137.761923 
L 261.710397 -138.461962 
L 260.706811 -139.162001 
L 259.095931 -139.86204 
L 257.066944 -140.562078 
L 254.846551 -141.262117 
L 252.676616 -141.962156 
L 250.78953 -142.662195 
L 249.384598 -143.362234 
L 248.608817 -144.062273 
L 248.544801 -144.762312 
L 249.207516 -145.462351 
L 250.550004 -146.16239 
L 252.476664 -146.862429 
L 254.861326 -147.562468 
L 257.566518 -148.262507 
L 260.460341 -148.962546 
L 263.428127 -149.662585 
L 266.377519 -150.362624 
L 269.237352 -151.062663 
L 271.952271 -151.762702 
L 274.475987 -152.46274 
L 276.766061 -153.162779 
L 278.78222 -153.862818 
L 280.488697 -154.562857 
L 281.859553 -155.262896 
L 282.884888 -155.962935 
L 283.575633 -156.662974 
L 283.965281 -157.363013 
L 284.107987 -158.063052 
L 284.073615 -158.763091 
L 283.941025 -159.46313 
L 283.790987 -160.163169 
L 283.699744 -160.863208 
L 283.733683 -161.563247 
L 283.945101 -162.263286 
L 284.368914 -162.963325 
L 285.020304 -163.663363 
L 285.893571 -164.363402 
L 286.96266 -165.063441 
L 288.183757 -165.76348 
L 289.500012 -166.463519 
L 290.847924 -167.163558 
L 292.164485 -167.863597 
L 293.393904 -168.563636 
L 294.492824 -169.263675 
L 295.433329 -169.963714 
L 296.203534 -170.663753 
L 296.806069 -171.363792 
L 297.25511 -172.063831 
L 297.572698 -172.76387 
L 297.785013 -173.463909 
L 297.91907 -174.163948 
L 298.000095 -174.863986 
L 298.049649 -175.564025 
L 298.084515 -176.264064 
L 298.116291 -176.964103 
L 298.151616 -177.664142 
L 298.192907 -178.364181 
L 298.239456 -179.06422 
L 298.288677 -179.764259 
L 298.337277 -180.464298 
L 298.382207 -181.164337 
L 298.421245 -181.864376 
L 298.453239 -182.564415 
L 298.478045 -183.264454 
L 298.581955 -183.264454 
L 298.581955 -183.264454 
L 298.606761 -182.564415 
L 298.638755 -181.864376 
L 298.677793 -181.164337 
L 298.722723 -180.464298 
L 298.771323 -179.764259 
L 298.820544 -179.06422 
L 298.867093 -178.364181 
L 298.908384 -177.664142 
L 298.943709 -176.964103 
L 298.975485 -176.264064 
L 299.010351 -175.564025 
L 299.059905 -174.863986 
L 299.14093 -174.163948 
L 299.274987 -173.463909 
L 299.487302 -172.76387 
L 299.80489 -172.063831 
L 300.253931 -171.363792 
L 300.856466 -170.663753 
L 301.626671 -169.963714 
L 302.567176 -169.263675 
L 303.666096 -168.563636 
L 304.895515 -167.863597 
L 306.212076 -167.163558 
L 307.559988 -166.463519 
L 308.876243 -165.76348 
L 310.09734 -165.063441 
L 311.166429 -164.363402 
L 312.039696 -163.663363 
L 312.691086 -162.963325 
L 313.114899 -162.263286 
L 313.326317 -161.563247 
L 313.360256 -160.863208 
L 313.269013 -160.163169 
L 313.118975 -159.46313 
L 312.986385 -158.763091 
L 312.952013 -158.063052 
L 313.094719 -157.363013 
L 313.484367 -156.662974 
L 314.175112 -155.962935 
L 315.200447 -155.262896 
L 316.571303 -154.562857 
L 318.27778 -153.862818 
L 320.293939 -153.162779 
L 322.584013 -152.46274 
L 325.107729 -151.762702 
L 327.822648 -151.062663 
L 330.682481 -150.362624 
L 333.631873 -149.662585 
L 336.599659 -148.962546 
L 339.493482 -148.262507 
L 342.198674 -147.562468 
L 344.583336 -146.862429 
L 346.509996 -146.16239 
L 347.852484 -145.462351 
L 348.515199 -144.762312 
L 348.451183 -144.062273 
L 347.675402 -143.362234 
L 346.27047 -142.662195 
L 344.383384 -141.962156 
L 342.213449 -141.262117 
L 339.993056 -140.562078 
L 337.964069 -139.86204 
L 336.353189 -139.162001 
L 335.349603 -138.461962 
L 335.087701 -137.761923 
L 335.636639 -137.061884 
L 336.99722 -136.361845 
L 339.1053 -135.661806 
L 341.839902 -134.961767 
L 345.033819 -134.261728 
L 348.484806 -133.561689 
L 351.966413 -132.86165 
L 355.238677 -132.161611 
L 358.059745 -131.461572 
L 360.199607 -130.761533 
L 361.456361 -130.061494 
L 361.674 -129.361455 
L 360.759307 -128.661417 
L 358.694525 -127.961378 
L 355.542622 -127.261339 
L 351.443145 -126.5613 
L 346.598548 -125.861261 
L 341.252951 -125.161222 
L 335.666799 -124.461183 
L 330.091559 -123.761144 
L 324.748203 -123.061105 
L 319.812089 -122.361066 
L 315.405306 -121.661027 
L 311.596107 -120.960988 
L 308.404017 -120.260949 
L 305.808678 -119.56091 
L 303.760505 -118.860871 
L 302.191484 -118.160832 
L 301.024936 -117.460794 
L 300.183491 -116.760755 
L 299.594952 -116.060716 
L 299.196026 -115.360677 
L 298.93415 -114.660638 
L 298.767768 -113.960599 
z
" style="stroke: #595959; stroke-width: 1.25"/>
    </defs>
    <g clip-path="url(#p58a291a600)">
     <use xlink:href="#mbfe7cc0270" x="0" y="432" style="fill: #e99675; stroke: #595959; stroke-width: 1.25"/>
    </g>
   </g>
   <g id="FillBetweenPolyCollection_3">
    <defs>
     <path id="m2059af9121" d="M 456.745728 -203.254422 
L 456.034272 -203.254422 
L 455.804338 -205.046289 
L 455.453685 -206.838155 
L 454.93456 -208.630022 
L 454.187577 -210.421888 
L 453.141846 -212.213754 
L 451.71664 -214.005621 
L 449.825282 -215.797487 
L 447.381972 -217.589353 
L 444.312074 -219.38122 
L 440.565773 -221.173086 
L 436.134108 -222.964952 
L 431.065105 -224.756819 
L 425.476633 -226.548685 
L 419.561931 -228.340551 
L 413.584189 -230.132418 
L 407.858093 -231.924284 
L 402.718952 -233.71615 
L 398.483152 -235.508017 
L 395.406395 -237.299883 
L 393.647623 -239.091749 
L 393.246 -240.883616 
L 394.115917 -242.675482 
L 396.061202 -244.467348 
L 398.805611 -246.259215 
L 402.033397 -248.051081 
L 405.432041 -249.842947 
L 408.729494 -251.634814 
L 411.720146 -253.42668 
L 414.276625 -255.218546 
L 416.347619 -257.010413 
L 417.944529 -258.802279 
L 419.121463 -260.594145 
L 419.953667 -262.386012 
L 420.518959 -264.177878 
L 420.885308 -265.969744 
L 421.105659 -267.761611 
L 421.219059 -269.553477 
L 421.255528 -271.345343 
L 421.241525 -273.13721 
L 421.203325 -274.929076 
L 421.16703 -276.720942 
L 421.155688 -278.512809 
L 421.185342 -280.304675 
L 421.262392 -282.096541 
L 421.384099 -283.888408 
L 421.542715 -285.680274 
L 421.732203 -287.47214 
L 421.955297 -289.264007 
L 422.228323 -291.055873 
L 422.581832 -292.847739 
L 423.056397 -294.639606 
L 423.694503 -296.431472 
L 424.530719 -298.223338 
L 425.582943 -300.015205 
L 426.84714 -301.807071 
L 428.297019 -303.598937 
L 429.888595 -305.390804 
L 431.568256 -307.18267 
L 433.282055 -308.974537 
L 434.983819 -310.766403 
L 436.640206 -312.558269 
L 438.231901 -314.350136 
L 439.751305 -316.142002 
L 441.197965 -317.933868 
L 442.573457 -319.725735 
L 443.877265 -321.517601 
L 445.104715 -323.309467 
L 446.247216 -325.101334 
L 447.294408 -326.8932 
L 448.2373 -328.685066 
L 449.071369 -330.476933 
L 449.798694 -332.268799 
L 450.42858 -334.060665 
L 450.976545 -335.852532 
L 451.461954 -337.644398 
L 451.904893 -339.436264 
L 452.322986 -341.228131 
L 452.72885 -343.019997 
L 453.128677 -344.811863 
L 453.522181 -346.60373 
L 453.903804 -348.395596 
L 454.264845 -350.187462 
L 454.595957 -351.979329 
L 454.889463 -353.771195 
L 455.140999 -355.563061 
L 455.350219 -357.354928 
L 455.520529 -359.146794 
L 455.658046 -360.93866 
L 455.770153 -362.730527 
L 455.864034 -364.522393 
L 455.94555 -366.314259 
L 456.018639 -368.106126 
L 456.085281 -369.897992 
L 456.145901 -371.689858 
L 456.2 -373.481725 
L 456.24681 -375.273591 
L 456.285789 -377.065457 
L 456.316896 -378.857324 
L 456.340634 -380.64919 
L 456.439366 -380.64919 
L 456.439366 -380.64919 
L 456.463104 -378.857324 
L 456.494211 -377.065457 
L 456.53319 -375.273591 
L 456.58 -373.481725 
L 456.634099 -371.689858 
L 456.694719 -369.897992 
L 456.761361 -368.106126 
L 456.83445 -366.314259 
L 456.915966 -364.522393 
L 457.009847 -362.730527 
L 457.121954 -360.93866 
L 457.259471 -359.146794 
L 457.429781 -357.354928 
L 457.639001 -355.563061 
L 457.890537 -353.771195 
L 458.184043 -351.979329 
L 458.515155 -350.187462 
L 458.876196 -348.395596 
L 459.257819 -346.60373 
L 459.651323 -344.811863 
L 460.05115 -343.019997 
L 460.457014 -341.228131 
L 460.875107 -339.436264 
L 461.318046 -337.644398 
L 461.803455 -335.852532 
L 462.35142 -334.060665 
L 462.981306 -332.268799 
L 463.708631 -330.476933 
L 464.5427 -328.685066 
L 465.485592 -326.8932 
L 466.532784 -325.101334 
L 467.675285 -323.309467 
L 468.902735 -321.517601 
L 470.206543 -319.725735 
L 471.582035 -317.933868 
L 473.028695 -316.142002 
L 474.548099 -314.350136 
L 476.139794 -312.558269 
L 477.796181 -310.766403 
L 479.497945 -308.974537 
L 481.211744 -307.18267 
L 482.891405 -305.390804 
L 484.482981 -303.598937 
L 485.93286 -301.807071 
L 487.197057 -300.015205 
L 488.249281 -298.223338 
L 489.085497 -296.431472 
L 489.723603 -294.639606 
L 490.198168 -292.847739 
L 490.551677 -291.055873 
L 490.824703 -289.264007 
L 491.047797 -287.47214 
L 491.237285 -285.680274 
L 491.395901 -283.888408 
L 491.517608 -282.096541 
L 491.594658 -280.304675 
L 491.624312 -278.512809 
L 491.61297 -276.720942 
L 491.576675 -274.929076 
L 491.538475 -273.13721 
L 491.524472 -271.345343 
L 491.560941 -269.553477 
L 491.674341 -267.761611 
L 491.894692 -265.969744 
L 492.261041 -264.177878 
L 492.826333 -262.386012 
L 493.658537 -260.594145 
L 494.835471 -258.802279 
L 496.432381 -257.010413 
L 498.503375 -255.218546 
L 501.059854 -253.42668 
L 504.050506 -251.634814 
L 507.347959 -249.842947 
L 510.746603 -248.051081 
L 513.974389 -246.259215 
L 516.718798 -244.467348 
L 518.664083 -242.675482 
L 519.534 -240.883616 
L 519.132377 -239.091749 
L 517.373605 -237.299883 
L 514.296848 -235.508017 
L 510.061048 -233.71615 
L 504.921907 -231.924284 
L 499.195811 -230.132418 
L 493.218069 -228.340551 
L 487.303367 -226.548685 
L 481.714895 -224.756819 
L 476.645892 -222.964952 
L 472.214227 -221.173086 
L 468.467926 -219.38122 
L 465.398028 -217.589353 
L 462.954718 -215.797487 
L 461.06336 -214.005621 
L 459.638154 -212.213754 
L 458.592423 -210.421888 
L 457.84544 -208.630022 
L 457.326315 -206.838155 
L 456.975662 -205.046289 
L 456.745728 -203.254422 
z
" style="stroke: #595959; stroke-width: 1.25"/>
    </defs>
    <g clip-path="url(#p58a291a600)">
     <use xlink:href="#m2059af9121" x="0" y="432" style="fill: #95a3c3; stroke: #595959; stroke-width: 1.25"/>
    </g>
   </g>
   <g id="FillBetweenPolyCollection_4">
    <defs>
     <path id="m8dc9fe3c38" d="M 614.730218 -123.289004 
L 613.769782 -123.289004 
L 613.443902 -124.161081 
L 612.940389 -125.033158 
L 612.189379 -125.905234 
L 611.107586 -126.777311 
L 609.602125 -127.649388 
L 607.577477 -128.521465 
L 604.94566 -129.393541 
L 601.639112 -130.265618 
L 597.625183 -131.137695 
L 592.920502 -132.009772 
L 587.603063 -132.881848 
L 581.819588 -133.753925 
L 575.785851 -134.626002 
L 569.778133 -135.498079 
L 564.115068 -136.370156 
L 559.130575 -137.242232 
L 555.140449 -138.114309 
L 552.406839 -138.986386 
L 551.106 -139.858463 
L 551.304822 -140.730539 
L 552.950504 -141.602616 
L 555.875539 -142.474693 
L 559.817353 -143.34677 
L 564.449299 -144.218846 
L 569.417774 -145.090923 
L 574.379572 -145.963 
L 579.034112 -146.835077 
L 583.14672 -147.707154 
L 586.561098 -148.57923 
L 589.201114 -149.451307 
L 591.063598 -150.323384 
L 592.204809 -151.195461 
L 592.723589 -152.067537 
L 592.744002 -152.939614 
L 592.39967 -153.811691 
L 591.821218 -154.683768 
L 591.127389 -155.555844 
L 590.419759 -156.427921 
L 589.780475 -157.299998 
L 589.272314 -158.172075 
L 588.940282 -159.044151 
L 588.814112 -159.916228 
L 588.911069 -160.788305 
L 589.238527 -161.660382 
L 589.795891 -162.532459 
L 590.575576 -163.404535 
L 591.563013 -164.276612 
L 592.735981 -165.148689 
L 594.06383 -166.020766 
L 595.507269 -166.892842 
L 597.019251 -167.764919 
L 598.547187 -168.636996 
L 600.036303 -169.509073 
L 601.433651 -170.381149 
L 602.692152 -171.253226 
L 603.774163 -172.125303 
L 604.654271 -172.99738 
L 605.321273 -173.869457 
L 605.779351 -174.741533 
L 606.048395 -175.61361 
L 606.163257 -176.485687 
L 606.171556 -177.357764 
L 606.129725 -178.22984 
L 606.097281 -179.101917 
L 606.129786 -179.973994 
L 606.271534 -180.846071 
L 606.549342 -181.718147 
L 606.968864 -182.590224 
L 607.51442 -183.462301 
L 608.152574 -184.334378 
L 608.838785 -185.206454 
L 609.525693 -186.078531 
L 610.171204 -186.950608 
L 610.744664 -187.822685 
L 611.229985 -188.694762 
L 611.625422 -189.566838 
L 611.940544 -190.438915 
L 612.191547 -191.310992 
L 612.396288 -192.183069 
L 612.570259 -193.055145 
L 612.724273 -193.927222 
L 612.864036 -194.799299 
L 612.991265 -195.671376 
L 613.105646 -196.543452 
L 613.206817 -197.415529 
L 613.29576 -198.287606 
L 613.375223 -199.159683 
L 613.449248 -200.03176 
L 613.522103 -200.903836 
L 613.597105 -201.775913 
L 613.675757 -202.64799 
L 613.757471 -203.520067 
L 613.839882 -204.392143 
L 613.919607 -205.26422 
L 613.993143 -206.136297 
L 614.057649 -207.008374 
L 614.111429 -207.88045 
L 614.154054 -208.752527 
L 614.186191 -209.624604 
L 614.313809 -209.624604 
L 614.313809 -209.624604 
L 614.345946 -208.752527 
L 614.388571 -207.88045 
L 614.442351 -207.008374 
L 614.506857 -206.136297 
L 614.580393 -205.26422 
L 614.660118 -204.392143 
L 614.742529 -203.520067 
L 614.824243 -202.64799 
L 614.902895 -201.775913 
L 614.977897 -200.903836 
L 615.050752 -200.03176 
L 615.124777 -199.159683 
L 615.20424 -198.287606 
L 615.293183 -197.415529 
L 615.394354 -196.543452 
L 615.508735 -195.671376 
L 615.635964 -194.799299 
L 615.775727 -193.927222 
L 615.929741 -193.055145 
L 616.103712 -192.183069 
L 616.308453 -191.310992 
L 616.559456 -190.438915 
L 616.874578 -189.566838 
L 617.270015 -188.694762 
L 617.755336 -187.822685 
L 618.328796 -186.950608 
L 618.974307 -186.078531 
L 619.661215 -185.206454 
L 620.347426 -184.334378 
L 620.98558 -183.462301 
L 621.531136 -182.590224 
L 621.950658 -181.718147 
L 622.228466 -180.846071 
L 622.370214 -179.973994 
L 622.402719 -179.101917 
L 622.370275 -178.22984 
L 622.328444 -177.357764 
L 622.336743 -176.485687 
L 622.451605 -175.61361 
L 622.720649 -174.741533 
L 623.178727 -173.869457 
L 623.845729 -172.99738 
L 624.725837 -172.125303 
L 625.807848 -171.253226 
L 627.066349 -170.381149 
L 628.463697 -169.509073 
L 629.952813 -168.636996 
L 631.480749 -167.764919 
L 632.992731 -166.892842 
L 634.43617 -166.020766 
L 635.764019 -165.148689 
L 636.936987 -164.276612 
L 637.924424 -163.404535 
L 638.704109 -162.532459 
L 639.261473 -161.660382 
L 639.588931 -160.788305 
L 639.685888 -159.916228 
L 639.559718 -159.044151 
L 639.227686 -158.172075 
L 638.719525 -157.299998 
L 638.080241 -156.427921 
L 637.372611 -155.555844 
L 636.678782 -154.683768 
L 636.10033 -153.811691 
L 635.755998 -152.939614 
L 635.776411 -152.067537 
L 636.295191 -151.195461 
L 637.436402 -150.323384 
L 639.298886 -149.451307 
L 641.938902 -148.57923 
L 645.35328 -147.707154 
L 649.465888 -146.835077 
L 654.120428 -145.963 
L 659.082226 -145.090923 
L 664.050701 -144.218846 
L 668.682647 -143.34677 
L 672.624461 -142.474693 
L 675.549496 -141.602616 
L 677.195178 -140.730539 
L 677.394 -139.858463 
L 676.093161 -138.986386 
L 673.359551 -138.114309 
L 669.369425 -137.242232 
L 664.384932 -136.370156 
L 658.721867 -135.498079 
L 652.714149 -134.626002 
L 646.680412 -133.753925 
L 640.896937 -132.881848 
L 635.579498 -132.009772 
L 630.874817 -131.137695 
L 626.860888 -130.265618 
L 623.55434 -129.393541 
L 620.922523 -128.521465 
L 618.897875 -127.649388 
L 617.392414 -126.777311 
L 616.310621 -125.905234 
L 615.559611 -125.033158 
L 615.056098 -124.161081 
L 614.730218 -123.289004 
z
" style="stroke: #595959; stroke-width: 1.25"/>
    </defs>
    <g clip-path="url(#p58a291a600)">
     <use xlink:href="#m8dc9fe3c38" x="0" y="432" style="fill: #db96c0; stroke: #595959; stroke-width: 1.25"/>
    </g>
   </g>
   <g id="FillBetweenPolyCollection_5">
    <defs>
     <path id="m9e1c9b874d" d="M 772.448996 -109.940247 
L 771.771004 -109.940247 
L 771.497178 -110.540275 
L 771.043818 -111.140303 
L 770.324391 -111.740331 
L 769.230488 -112.340359 
L 767.637253 -112.940387 
L 765.415293 -113.540415 
L 762.449282 -114.140443 
L 758.661543 -114.740471 
L 754.036781 -115.340499 
L 748.642548 -115.940527 
L 742.639778 -116.540555 
L 736.279205 -117.140583 
L 729.882505 -117.740611 
L 723.810607 -118.340639 
L 718.424692 -118.940667 
L 714.046771 -119.540695 
L 710.926253 -120.140723 
L 709.21689 -120.740751 
L 708.966 -121.340779 
L 710.115741 -121.940807 
L 712.514921 -122.540835 
L 715.939144 -123.140863 
L 720.116687 -123.740891 
L 724.756972 -124.340919 
L 729.578063 -124.940947 
L 734.329575 -125.540975 
L 738.808242 -126.141003 
L 742.865004 -126.741031 
L 746.404525 -127.341059 
L 749.37966 -127.941087 
L 751.783931 -128.541115 
L 753.644444 -129.141143 
L 755.016154 -129.741171 
L 755.976844 -130.341199 
L 756.621307 -130.941227 
L 757.053453 -131.541255 
L 757.376156 -132.141283 
L 757.680094 -132.741311 
L 758.033872 -133.341339 
L 758.477768 -133.941367 
L 759.022646 -134.541395 
L 759.654073 -135.141423 
L 760.34027 -135.741451 
L 761.041618 -136.341479 
L 761.719441 -136.941507 
L 762.342431 -137.541535 
L 762.890149 -138.141563 
L 763.353923 -138.741591 
L 763.735988 -139.341619 
L 764.047633 -139.941647 
L 764.306831 -140.541675 
L 764.535405 -141.141703 
L 764.755738 -141.741731 
L 764.987154 -142.341759 
L 765.242531 -142.941787 
L 765.525902 -143.541815 
L 765.831843 -144.141843 
L 766.146989 -144.741871 
L 766.453458 -145.341899 
L 766.73333 -145.941927 
L 766.973003 -146.541955 
L 767.166292 -147.141983 
L 767.315504 -147.742011 
L 767.430399 -148.342039 
L 767.525505 -148.942067 
L 767.61675 -149.542095 
L 767.718408 -150.142123 
L 767.841135 -150.742151 
L 767.991322 -151.342179 
L 768.171507 -151.942207 
L 768.381226 -152.542235 
L 768.617761 -153.142263 
L 768.876491 -153.742291 
L 769.150998 -154.342319 
L 769.433286 -154.942347 
L 769.714456 -155.542375 
L 769.985856 -156.142403 
L 770.240388 -156.742431 
L 770.473482 -157.342459 
L 770.683333 -157.942487 
L 770.870344 -158.542515 
L 771.036074 -159.142543 
L 771.182186 -159.742571 
L 771.309861 -160.342598 
L 771.41983 -160.942626 
L 771.512885 -161.542654 
L 771.590474 -162.142682 
L 771.655033 -162.74271 
L 771.709826 -163.342738 
L 771.758364 -163.942766 
L 771.803655 -164.542794 
L 771.847596 -165.142822 
L 771.890728 -165.74285 
L 771.932409 -166.342878 
L 771.971293 -166.942906 
L 772.005909 -167.542934 
L 772.035144 -168.142962 
L 772.058505 -168.74299 
L 772.076156 -169.343018 
L 772.143844 -169.343018 
L 772.143844 -169.343018 
L 772.161495 -168.74299 
L 772.184856 -168.142962 
L 772.214091 -167.542934 
L 772.248707 -166.942906 
L 772.287591 -166.342878 
L 772.329272 -165.74285 
L 772.372404 -165.142822 
L 772.416345 -164.542794 
L 772.461636 -163.942766 
L 772.510174 -163.342738 
L 772.564967 -162.74271 
L 772.629526 -162.142682 
L 772.707115 -161.542654 
L 772.80017 -160.942626 
L 772.910139 -160.342598 
L 773.037814 -159.742571 
L 773.183926 -159.142543 
L 773.349656 -158.542515 
L 773.536667 -157.942487 
L 773.746518 -157.342459 
L 773.979612 -156.742431 
L 774.234144 -156.142403 
L 774.505544 -155.542375 
L 774.786714 -154.942347 
L 775.069002 -154.342319 
L 775.343509 -153.742291 
L 775.602239 -153.142263 
L 775.838774 -152.542235 
L 776.048493 -151.942207 
L 776.228678 -151.342179 
L 776.378865 -150.742151 
L 776.501592 -150.142123 
L 776.60325 -149.542095 
L 776.694495 -148.942067 
L 776.789601 -148.342039 
L 776.904496 -147.742011 
L 777.053708 -147.141983 
L 777.246997 -146.541955 
L 777.48667 -145.941927 
L 777.766542 -145.341899 
L 778.073011 -144.741871 
L 778.388157 -144.141843 
L 778.694098 -143.541815 
L 778.977469 -142.941787 
L 779.232846 -142.341759 
L 779.464262 -141.741731 
L 779.684595 -141.141703 
L 779.913169 -140.541675 
L 780.172367 -139.941647 
L 780.484012 -139.341619 
L 780.866077 -138.741591 
L 781.329851 -138.141563 
L 781.877569 -137.541535 
L 782.500559 -136.941507 
L 783.178382 -136.341479 
L 783.87973 -135.741451 
L 784.565927 -135.141423 
L 785.197354 -134.541395 
L 785.742232 -133.941367 
L 786.186128 -133.341339 
L 786.539906 -132.741311 
L 786.843844 -132.141283 
L 787.166547 -131.541255 
L 787.598693 -130.941227 
L 788.243156 -130.341199 
L 789.203846 -129.741171 
L 790.575556 -129.141143 
L 792.436069 -128.541115 
L 794.84034 -127.941087 
L 797.815475 -127.341059 
L 801.354996 -126.741031 
L 805.411758 -126.141003 
L 809.890425 -125.540975 
L 814.641937 -124.940947 
L 819.463028 -124.340919 
L 824.103313 -123.740891 
L 828.280856 -123.140863 
L 831.705079 -122.540835 
L 834.104259 -121.940807 
L 835.254 -121.340779 
L 835.00311 -120.740751 
L 833.293747 -120.140723 
L 830.173229 -119.540695 
L 825.795308 -118.940667 
L 820.409393 -118.340639 
L 814.337495 -117.740611 
L 807.940795 -117.140583 
L 801.580222 -116.540555 
L 795.577452 -115.940527 
L 790.183219 -115.340499 
L 785.558457 -114.740471 
L 781.770718 -114.140443 
L 778.804707 -113.540415 
L 776.582747 -112.940387 
L 774.989512 -112.340359 
L 773.895609 -111.740331 
L 773.176182 -111.140303 
L 772.722822 -110.540275 
L 772.448996 -109.940247 
z
" style="stroke: #595959; stroke-width: 1.25"/>
    </defs>
    <g clip-path="url(#p58a291a600)">
     <use xlink:href="#m9e1c9b874d" x="0" y="432" style="fill: #a2c865; stroke: #595959; stroke-width: 1.25"/>
    </g>
   </g>
   <g id="line2d_9">
    <path d="M 140.67 269.979888 
L 140.67 279.730859 
" clip-path="url(#p58a291a600)" style="fill: none; stroke: #000000"/>
   </g>
   <g id="line2d_10">
    <path d="M 140.67 239.142441 
L 140.67 196.945112 
" clip-path="url(#p58a291a600)" style="fill: none; stroke: #000000"/>
   </g>
   <g id="line2d_11">
    <path d="M 134.75025 279.730859 
L 146.58975 279.730859 
" clip-path="url(#p58a291a600)" style="fill: none; stroke: #000000; stroke-linecap: round"/>
   </g>
   <g id="line2d_12">
    <path d="M 134.75025 196.945112 
L 146.58975 196.945112 
" clip-path="url(#p58a291a600)" style="fill: none; stroke: #000000; stroke-linecap: round"/>
   </g>
   <g id="line2d_13">
    <path d="M 298.53 302.182471 
L 298.53 311.226497 
" clip-path="url(#p58a291a600)" style="fill: none; stroke: #000000"/>
   </g>
   <g id="line2d_14">
    <path d="M 298.53 285.069516 
L 298.53 264.031795 
" clip-path="url(#p58a291a600)" style="fill: none; stroke: #000000"/>
   </g>
   <g id="line2d_15">
    <path d="M 292.61025 311.226497 
L 304.44975 311.226497 
" clip-path="url(#p58a291a600)" style="fill: none; stroke: #000000; stroke-linecap: round"/>
   </g>
   <g id="line2d_16">
    <path d="M 292.61025 264.031795 
L 304.44975 264.031795 
" clip-path="url(#p58a291a600)" style="fill: none; stroke: #000000; stroke-linecap: round"/>
   </g>
   <g id="line2d_17">
    <path d="M 456.39 191.240794 
L 456.39 211.084021 
" clip-path="url(#p58a291a600)" style="fill: none; stroke: #000000"/>
   </g>
   <g id="line2d_18">
    <path d="M 456.39 141.998388 
L 456.39 69.012367 
" clip-path="url(#p58a291a600)" style="fill: none; stroke: #000000"/>
   </g>
   <g id="line2d_19">
    <path d="M 450.47025 211.084021 
L 462.30975 211.084021 
" clip-path="url(#p58a291a600)" style="fill: none; stroke: #000000; stroke-linecap: round"/>
   </g>
   <g id="line2d_20">
    <path d="M 450.47025 69.012367 
L 462.30975 69.012367 
" clip-path="url(#p58a291a600)" style="fill: none; stroke: #000000; stroke-linecap: round"/>
   </g>
   <g id="line2d_21">
    <path d="M 614.25 292.602142 
L 614.25 300.207899 
" clip-path="url(#p58a291a600)" style="fill: none; stroke: #000000"/>
   </g>
   <g id="line2d_22">
    <path d="M 614.25 271.905705 
L 614.25 242.287129 
" clip-path="url(#p58a291a600)" style="fill: none; stroke: #000000"/>
   </g>
   <g id="line2d_23">
    <path d="M 608.33025 300.207899 
L 620.16975 300.207899 
" clip-path="url(#p58a291a600)" style="fill: none; stroke: #000000; stroke-linecap: round"/>
   </g>
   <g id="line2d_24">
    <path d="M 608.33025 242.287129 
L 620.16975 242.287129 
" clip-path="url(#p58a291a600)" style="fill: none; stroke: #000000; stroke-linecap: round"/>
   </g>
   <g id="line2d_25">
    <path d="M 772.11 311.835933 
L 772.11 316.589531 
" clip-path="url(#p58a291a600)" style="fill: none; stroke: #000000"/>
   </g>
   <g id="line2d_26">
    <path d="M 772.11 302.231226 
L 772.11 287.921675 
" clip-path="url(#p58a291a600)" style="fill: none; stroke: #000000"/>
   </g>
   <g id="line2d_27">
    <path d="M 766.19025 316.589531 
L 778.02975 316.589531 
" clip-path="url(#p58a291a600)" style="fill: none; stroke: #000000; stroke-linecap: round"/>
   </g>
   <g id="line2d_28">
    <path d="M 766.19025 287.921675 
L 778.02975 287.921675 
" clip-path="url(#p58a291a600)" style="fill: none; stroke: #000000; stroke-linecap: round"/>
   </g>
   <g id="line2d_29">
    <path d="M 128.8305 259.205065 
L 152.5095 259.205065 
" clip-path="url(#p58a291a600)" style="fill: none; stroke: #ff0000; stroke-width: 2"/>
   </g>
   <g id="line2d_30">
    <path d="M 286.6905 292.992181 
L 310.3695 292.992181 
" clip-path="url(#p58a291a600)" style="fill: none; stroke: #ff0000; stroke-width: 2"/>
   </g>
   <g id="line2d_31">
    <path d="M 444.5505 169.739902 
L 468.2295 169.739902 
" clip-path="url(#p58a291a600)" style="fill: none; stroke: #ff0000; stroke-width: 2"/>
   </g>
   <g id="line2d_32">
    <path d="M 602.4105 287.921675 
L 626.0895 287.921675 
" clip-path="url(#p58a291a600)" style="fill: none; stroke: #ff0000; stroke-width: 2"/>
   </g>
   <g id="line2d_33">
    <path d="M 760.2705 309.276303 
L 783.9495 309.276303 
" clip-path="url(#p58a291a600)" style="fill: none; stroke: #ff0000; stroke-width: 2"/>
   </g>
   <g id="patch_3">
    <path d="M 61.74 361.444 
L 61.74 20.16 
" style="fill: none; stroke: #cccccc; stroke-width: 1.25; stroke-linejoin: miter; stroke-linecap: square"/>
   </g>
   <g id="patch_4">
    <path d="M 851.04 361.444 
L 851.04 20.16 
" style="fill: none; stroke: #cccccc; stroke-width: 1.25; stroke-linejoin: miter; stroke-linecap: square"/>
   </g>
   <g id="patch_5">
    <path d="M 61.74 361.444 
L 851.04 361.444 
" style="fill: none; stroke: #cccccc; stroke-width: 1.25; stroke-linejoin: miter; stroke-linecap: square"/>
   </g>
   <g id="patch_6">
    <path d="M 61.74 20.16 
L 851.04 20.16 
" style="fill: none; stroke: #cccccc; stroke-width: 1.25; stroke-linejoin: miter; stroke-linecap: square"/>
   </g>
   <g id="text_15">
    <g id="patch_7">
     <path d="M 631.47375 63.116075 
L 820.575 63.116075 
L 820.575 28.2242 
L 631.47375 28.2242 
z
" style="fill: #ffffff; opacity: 0.8; stroke: #808080; stroke-linejoin: miter"/>
    </g>
    <!-- Signature: secp384r1 -->
    <g style="fill: #262626" transform="translate(640.47375 50.327638) scale(0.18 -0.18)">
     <defs>
      <path id="ArialMT-53" d="M 288 1472 
L 859 1522 
Q 900 1178 1048 958 
Q 1197 738 1509 602 
Q 1822 466 2213 466 
Q 2559 466 2825 569 
Q 3091 672 3220 851 
Q 3350 1031 3350 1244 
Q 3350 1459 3225 1620 
Q 3100 1781 2813 1891 
Q 2628 1963 1997 2114 
Q 1366 2266 1113 2400 
Q 784 2572 623 2826 
Q 463 3081 463 3397 
Q 463 3744 659 4045 
Q 856 4347 1234 4503 
Q 1613 4659 2075 4659 
Q 2584 4659 2973 4495 
Q 3363 4331 3572 4012 
Q 3781 3694 3797 3291 
L 3216 3247 
Q 3169 3681 2898 3903 
Q 2628 4125 2100 4125 
Q 1550 4125 1298 3923 
Q 1047 3722 1047 3438 
Q 1047 3191 1225 3031 
Q 1400 2872 2139 2705 
Q 2878 2538 3153 2413 
Q 3553 2228 3743 1945 
Q 3934 1663 3934 1294 
Q 3934 928 3725 604 
Q 3516 281 3123 101 
Q 2731 -78 2241 -78 
Q 1619 -78 1198 103 
Q 778 284 539 648 
Q 300 1013 288 1472 
z
" transform="scale(0.015625)"/>
      <path id="ArialMT-67" d="M 319 -275 
L 866 -356 
Q 900 -609 1056 -725 
Q 1266 -881 1628 -881 
Q 2019 -881 2231 -725 
Q 2444 -569 2519 -288 
Q 2563 -116 2559 434 
Q 2191 0 1641 0 
Q 956 0 581 494 
Q 206 988 206 1678 
Q 206 2153 378 2554 
Q 550 2956 876 3175 
Q 1203 3394 1644 3394 
Q 2231 3394 2613 2919 
L 2613 3319 
L 3131 3319 
L 3131 450 
Q 3131 -325 2973 -648 
Q 2816 -972 2473 -1159 
Q 2131 -1347 1631 -1347 
Q 1038 -1347 672 -1080 
Q 306 -813 319 -275 
z
M 784 1719 
Q 784 1066 1043 766 
Q 1303 466 1694 466 
Q 2081 466 2343 764 
Q 2606 1063 2606 1700 
Q 2606 2309 2336 2618 
Q 2066 2928 1684 2928 
Q 1309 2928 1046 2623 
Q 784 2319 784 1719 
z
" transform="scale(0.015625)"/>
      <path id="ArialMT-3a" d="M 578 2678 
L 578 3319 
L 1219 3319 
L 1219 2678 
L 578 2678 
z
M 578 0 
L 578 641 
L 1219 641 
L 1219 0 
L 578 0 
z
" transform="scale(0.015625)"/>
      <path id="ArialMT-63" d="M 2588 1216 
L 3141 1144 
Q 3050 572 2676 248 
Q 2303 -75 1759 -75 
Q 1078 -75 664 370 
Q 250 816 250 1647 
Q 250 2184 428 2587 
Q 606 2991 970 3192 
Q 1334 3394 1763 3394 
Q 2303 3394 2647 3120 
Q 2991 2847 3088 2344 
L 2541 2259 
Q 2463 2594 2264 2762 
Q 2066 2931 1784 2931 
Q 1359 2931 1093 2626 
Q 828 2322 828 1663 
Q 828 994 1084 691 
Q 1341 388 1753 388 
Q 2084 388 2306 591 
Q 2528 794 2588 1216 
z
" transform="scale(0.015625)"/>
      <path id="ArialMT-70" d="M 422 -1272 
L 422 3319 
L 934 3319 
L 934 2888 
Q 1116 3141 1344 3267 
Q 1572 3394 1897 3394 
Q 2322 3394 2647 3175 
Q 2972 2956 3137 2557 
Q 3303 2159 3303 1684 
Q 3303 1175 3120 767 
Q 2938 359 2589 142 
Q 2241 -75 1856 -75 
Q 1575 -75 1351 44 
Q 1128 163 984 344 
L 984 -1272 
L 422 -1272 
z
M 931 1641 
Q 931 1000 1190 694 
Q 1450 388 1819 388 
Q 2194 388 2461 705 
Q 2728 1022 2728 1688 
Q 2728 2322 2467 2637 
Q 2206 2953 1844 2953 
Q 1484 2953 1207 2617 
Q 931 2281 931 1641 
z
" transform="scale(0.015625)"/>
     </defs>
     <use xlink:href="#ArialMT-53"/>
     <use xlink:href="#ArialMT-69" transform="translate(66.699219 0)"/>
     <use xlink:href="#ArialMT-67" transform="translate(88.916016 0)"/>
     <use xlink:href="#ArialMT-6e" transform="translate(144.53125 0)"/>
     <use xlink:href="#ArialMT-61" transform="translate(200.146484 0)"/>
     <use xlink:href="#ArialMT-74" transform="translate(255.761719 0)"/>
     <use xlink:href="#ArialMT-75" transform="translate(283.544922 0)"/>
     <use xlink:href="#ArialMT-72" transform="translate(339.160156 0)"/>
     <use xlink:href="#ArialMT-65" transform="translate(372.460938 0)"/>
     <use xlink:href="#ArialMT-3a" transform="translate(428.076172 0)"/>
     <use xlink:href="#ArialMT-20" transform="translate(455.859375 0)"/>
     <use xlink:href="#ArialMT-73" transform="translate(483.642578 0)"/>
     <use xlink:href="#ArialMT-65" transform="translate(533.642578 0)"/>
     <use xlink:href="#ArialMT-63" transform="translate(589.257812 0)"/>
     <use xlink:href="#ArialMT-70" transform="translate(639.257812 0)"/>
     <use xlink:href="#ArialMT-33" transform="translate(694.873047 0)"/>
     <use xlink:href="#ArialMT-38" transform="translate(750.488281 0)"/>
     <use xlink:href="#ArialMT-34" transform="translate(806.103516 0)"/>
     <use xlink:href="#ArialMT-72" transform="translate(861.71875 0)"/>
     <use xlink:href="#ArialMT-31" transform="translate(895.019531 0)"/>
    </g>
   </g>
  </g>
 </g>
 <defs>
  <clipPath id="p58a291a600">
   <rect x="61.74" y="20.16" width="789.3" height="341.284"/>
  </clipPath>
 </defs>
</svg>
