<?xml version="1.0" encoding="utf-8" standalone="no"?>
<!DOCTYPE svg PUBLIC "-//W3C//DTD SVG 1.1//EN"
  "http://www.w3.org/Graphics/SVG/1.1/DTD/svg11.dtd">
<svg xmlns:xlink="http://www.w3.org/1999/xlink" width="864pt" height="432pt" viewBox="0 0 864 432" xmlns="http://www.w3.org/2000/svg" version="1.1">
 <metadata>
  <rdf:RDF xmlns:dc="http://purl.org/dc/elements/1.1/" xmlns:cc="http://creativecommons.org/ns#" xmlns:rdf="http://www.w3.org/1999/02/22-rdf-syntax-ns#">
   <cc:Work>
    <dc:type rdf:resource="http://purl.org/dc/dcmitype/StillImage"/>
    <dc:date>2025-10-07T07:40:25.209320</dc:date>
    <dc:format>image/svg+xml</dc:format>
    <dc:creator>
     <cc:Agent>
      <dc:title>Matplotlib v3.10.3, https://matplotlib.org/</dc:title>
     </cc:Agent>
    </dc:creator>
   </cc:Work>
  </rdf:RDF>
 </metadata>
 <defs>
  <style type="text/css">*{stroke-linejoin: round; stroke-linecap: butt}</style>
 </defs>
 <g id="figure_1">
  <g id="patch_1">
   <path d="M 0 432 
L 864 432 
L 864 0 
L 0 0 
z
" style="fill: #ffffff"/>
  </g>
  <g id="axes_1">
   <g id="patch_2">
    <path d="M 61.74 361.444 
L 851.04 361.444 
L 851.04 20.16 
L 61.74 20.16 
z
" style="fill: #ffffff"/>
   </g>
   <g id="matplotlib.axis_1">
    <g id="xtick_1">
     <g id="text_1">
      <!-- P-521 -->
      <g style="fill: #262626" transform="translate(161.270625 388.12275) scale(0.24 -0.24)">
       <defs>
        <path id="ArialMT-50" d="M 494 0 
L 494 4581 
L 2222 4581 
Q 2678 4581 2919 4538 
Q 3256 4481 3484 4323 
Q 3713 4166 3852 3881 
Q 3991 3597 3991 3256 
Q 3991 2672 3619 2267 
Q 3247 1863 2275 1863 
L 1100 1863 
L 1100 0 
L 494 0 
z
M 1100 2403 
L 2284 2403 
Q 2872 2403 3119 2622 
Q 3366 2841 3366 3238 
Q 3366 3525 3220 3729 
Q 3075 3934 2838 4000 
Q 2684 4041 2272 4041 
L 1100 4041 
L 1100 2403 
z
" transform="scale(0.015625)"/>
        <path id="ArialMT-2d" d="M 203 1375 
L 203 1941 
L 1931 1941 
L 1931 1375 
L 203 1375 
z
" transform="scale(0.015625)"/>
        <path id="ArialMT-35" d="M 266 1200 
L 856 1250 
Q 922 819 1161 601 
Q 1400 384 1738 384 
Q 2144 384 2425 690 
Q 2706 997 2706 1503 
Q 2706 1984 2436 2262 
Q 2166 2541 1728 2541 
Q 1456 2541 1237 2417 
Q 1019 2294 894 2097 
L 366 2166 
L 809 4519 
L 3088 4519 
L 3088 3981 
L 1259 3981 
L 1013 2750 
Q 1425 3038 1878 3038 
Q 2478 3038 2890 2622 
Q 3303 2206 3303 1553 
Q 3303 931 2941 478 
Q 2500 -78 1738 -78 
Q 1113 -78 717 272 
Q 322 622 266 1200 
z
" transform="scale(0.015625)"/>
        <path id="ArialMT-32" d="M 3222 541 
L 3222 0 
L 194 0 
Q 188 203 259 391 
Q 375 700 629 1000 
Q 884 1300 1366 1694 
Q 2113 2306 2375 2664 
Q 2638 3022 2638 3341 
Q 2638 3675 2398 3904 
Q 2159 4134 1775 4134 
Q 1369 4134 1125 3890 
Q 881 3647 878 3216 
L 300 3275 
Q 359 3922 746 4261 
Q 1134 4600 1788 4600 
Q 2447 4600 2831 4234 
Q 3216 3869 3216 3328 
Q 3216 3053 3103 2787 
Q 2991 2522 2730 2228 
Q 2469 1934 1863 1422 
Q 1356 997 1212 845 
Q 1069 694 975 541 
L 3222 541 
z
" transform="scale(0.015625)"/>
        <path id="ArialMT-31" d="M 2384 0 
L 1822 0 
L 1822 3584 
Q 1619 3391 1289 3197 
Q 959 3003 697 2906 
L 697 3450 
Q 1169 3672 1522 3987 
Q 1875 4303 2022 4600 
L 2384 4600 
L 2384 0 
z
" transform="scale(0.015625)"/>
       </defs>
       <use xlink:href="#ArialMT-50"/>
       <use xlink:href="#ArialMT-2d" transform="translate(66.699219 0)"/>
       <use xlink:href="#ArialMT-35" transform="translate(100 0)"/>
       <use xlink:href="#ArialMT-32" transform="translate(155.615234 0)"/>
       <use xlink:href="#ArialMT-31" transform="translate(211.230469 0)"/>
      </g>
     </g>
    </g>
    <g id="xtick_2">
     <g id="text_2">
      <!-- P-521 -->
      <g style="fill: #262626" transform="translate(424.370625 388.12275) scale(0.24 -0.24)">
       <use xlink:href="#ArialMT-50"/>
       <use xlink:href="#ArialMT-2d" transform="translate(66.699219 0)"/>
       <use xlink:href="#ArialMT-35" transform="translate(100 0)"/>
       <use xlink:href="#ArialMT-32" transform="translate(155.615234 0)"/>
       <use xlink:href="#ArialMT-31" transform="translate(211.230469 0)"/>
      </g>
      <!-- mlkem1024 -->
      <g style="fill: #262626" transform="translate(394.366875 413.50725) scale(0.24 -0.24)">
       <defs>
        <path id="ArialMT-6d" d="M 422 0 
L 422 3319 
L 925 3319 
L 925 2853 
Q 1081 3097 1340 3245 
Q 1600 3394 1931 3394 
Q 2300 3394 2536 3241 
Q 2772 3088 2869 2813 
Q 3263 3394 3894 3394 
Q 4388 3394 4653 3120 
Q 4919 2847 4919 2278 
L 4919 0 
L 4359 0 
L 4359 2091 
Q 4359 2428 4304 2576 
Q 4250 2725 4106 2815 
Q 3963 2906 3769 2906 
Q 3419 2906 3187 2673 
Q 2956 2441 2956 1928 
L 2956 0 
L 2394 0 
L 2394 2156 
Q 2394 2531 2256 2718 
Q 2119 2906 1806 2906 
Q 1569 2906 1367 2781 
Q 1166 2656 1075 2415 
Q 984 2175 984 1722 
L 984 0 
L 422 0 
z
" transform="scale(0.015625)"/>
        <path id="ArialMT-6c" d="M 409 0 
L 409 4581 
L 972 4581 
L 972 0 
L 409 0 
z
" transform="scale(0.015625)"/>
        <path id="ArialMT-6b" d="M 425 0 
L 425 4581 
L 988 4581 
L 988 1969 
L 2319 3319 
L 3047 3319 
L 1778 2088 
L 3175 0 
L 2481 0 
L 1384 1697 
L 988 1316 
L 988 0 
L 425 0 
z
" transform="scale(0.015625)"/>
        <path id="ArialMT-65" d="M 2694 1069 
L 3275 997 
Q 3138 488 2766 206 
Q 2394 -75 1816 -75 
Q 1088 -75 661 373 
Q 234 822 234 1631 
Q 234 2469 665 2931 
Q 1097 3394 1784 3394 
Q 2450 3394 2872 2941 
Q 3294 2488 3294 1666 
Q 3294 1616 3291 1516 
L 816 1516 
Q 847 969 1125 678 
Q 1403 388 1819 388 
Q 2128 388 2347 550 
Q 2566 713 2694 1069 
z
M 847 1978 
L 2700 1978 
Q 2663 2397 2488 2606 
Q 2219 2931 1791 2931 
Q 1403 2931 1139 2672 
Q 875 2413 847 1978 
z
" transform="scale(0.015625)"/>
        <path id="ArialMT-30" d="M 266 2259 
Q 266 3072 433 3567 
Q 600 4063 929 4331 
Q 1259 4600 1759 4600 
Q 2128 4600 2406 4451 
Q 2684 4303 2865 4023 
Q 3047 3744 3150 3342 
Q 3253 2941 3253 2259 
Q 3253 1453 3087 958 
Q 2922 463 2592 192 
Q 2263 -78 1759 -78 
Q 1097 -78 719 397 
Q 266 969 266 2259 
z
M 844 2259 
Q 844 1131 1108 757 
Q 1372 384 1759 384 
Q 2147 384 2411 759 
Q 2675 1134 2675 2259 
Q 2675 3391 2411 3762 
Q 2147 4134 1753 4134 
Q 1366 4134 1134 3806 
Q 844 3388 844 2259 
z
" transform="scale(0.015625)"/>
        <path id="ArialMT-34" d="M 2069 0 
L 2069 1097 
L 81 1097 
L 81 1613 
L 2172 4581 
L 2631 4581 
L 2631 1613 
L 3250 1613 
L 3250 1097 
L 2631 1097 
L 2631 0 
L 2069 0 
z
M 2069 1613 
L 2069 3678 
L 634 1613 
L 2069 1613 
z
" transform="scale(0.015625)"/>
       </defs>
       <use xlink:href="#ArialMT-6d"/>
       <use xlink:href="#ArialMT-6c" transform="translate(83.300781 0)"/>
       <use xlink:href="#ArialMT-6b" transform="translate(105.517578 0)"/>
       <use xlink:href="#ArialMT-65" transform="translate(155.517578 0)"/>
       <use xlink:href="#ArialMT-6d" transform="translate(211.132812 0)"/>
       <use xlink:href="#ArialMT-31" transform="translate(294.433594 0)"/>
       <use xlink:href="#ArialMT-30" transform="translate(350.048828 0)"/>
       <use xlink:href="#ArialMT-32" transform="translate(405.664062 0)"/>
       <use xlink:href="#ArialMT-34" transform="translate(461.279297 0)"/>
      </g>
     </g>
    </g>
    <g id="xtick_3">
     <g id="text_3">
      <!-- mlkem1024 -->
      <g style="fill: #262626" transform="translate(657.466875 388.12275) scale(0.24 -0.24)">
       <use xlink:href="#ArialMT-6d"/>
       <use xlink:href="#ArialMT-6c" transform="translate(83.300781 0)"/>
       <use xlink:href="#ArialMT-6b" transform="translate(105.517578 0)"/>
       <use xlink:href="#ArialMT-65" transform="translate(155.517578 0)"/>
       <use xlink:href="#ArialMT-6d" transform="translate(211.132812 0)"/>
       <use xlink:href="#ArialMT-31" transform="translate(294.433594 0)"/>
       <use xlink:href="#ArialMT-30" transform="translate(350.048828 0)"/>
       <use xlink:href="#ArialMT-32" transform="translate(405.664062 0)"/>
       <use xlink:href="#ArialMT-34" transform="translate(461.279297 0)"/>
      </g>
     </g>
    </g>
   </g>
   <g id="matplotlib.axis_2">
    <g id="ytick_1">
     <g id="line2d_1">
      <path d="M 61.74 361.444 
L 851.04 361.444 
" clip-path="url(#pfa4a4e4cc3)" style="fill: none; stroke: #cccccc; stroke-linecap: round"/>
     </g>
     <g id="text_4">
      <!-- 0 -->
      <g style="fill: #262626" transform="translate(41.118125 368.601812) scale(0.2 -0.2)">
       <use xlink:href="#ArialMT-30"/>
      </g>
     </g>
    </g>
    <g id="ytick_2">
     <g id="line2d_2">
      <path d="M 61.74 304.563333 
L 851.04 304.563333 
" clip-path="url(#pfa4a4e4cc3)" style="fill: none; stroke: #cccccc; stroke-linecap: round"/>
     </g>
     <g id="text_5">
      <!-- 10 -->
      <g style="fill: #262626" transform="translate(29.99625 311.721146) scale(0.2 -0.2)">
       <use xlink:href="#ArialMT-31"/>
       <use xlink:href="#ArialMT-30" transform="translate(55.615234 0)"/>
      </g>
     </g>
    </g>
    <g id="ytick_3">
     <g id="line2d_3">
      <path d="M 61.74 247.682667 
L 851.04 247.682667 
" clip-path="url(#pfa4a4e4cc3)" style="fill: none; stroke: #cccccc; stroke-linecap: round"/>
     </g>
     <g id="text_6">
      <!-- 20 -->
      <g style="fill: #262626" transform="translate(29.99625 254.840479) scale(0.2 -0.2)">
       <use xlink:href="#ArialMT-32"/>
       <use xlink:href="#ArialMT-30" transform="translate(55.615234 0)"/>
      </g>
     </g>
    </g>
    <g id="ytick_4">
     <g id="line2d_4">
      <path d="M 61.74 190.802 
L 851.04 190.802 
" clip-path="url(#pfa4a4e4cc3)" style="fill: none; stroke: #cccccc; stroke-linecap: round"/>
     </g>
     <g id="text_7">
      <!-- 30 -->
      <g style="fill: #262626" transform="translate(29.99625 197.959813) scale(0.2 -0.2)">
       <defs>
        <path id="ArialMT-33" d="M 269 1209 
L 831 1284 
Q 928 806 1161 595 
Q 1394 384 1728 384 
Q 2125 384 2398 659 
Q 2672 934 2672 1341 
Q 2672 1728 2419 1979 
Q 2166 2231 1775 2231 
Q 1616 2231 1378 2169 
L 1441 2663 
Q 1497 2656 1531 2656 
Q 1891 2656 2178 2843 
Q 2466 3031 2466 3422 
Q 2466 3731 2256 3934 
Q 2047 4138 1716 4138 
Q 1388 4138 1169 3931 
Q 950 3725 888 3313 
L 325 3413 
Q 428 3978 793 4289 
Q 1159 4600 1703 4600 
Q 2078 4600 2393 4439 
Q 2709 4278 2876 4000 
Q 3044 3722 3044 3409 
Q 3044 3113 2884 2869 
Q 2725 2625 2413 2481 
Q 2819 2388 3044 2092 
Q 3269 1797 3269 1353 
Q 3269 753 2831 336 
Q 2394 -81 1725 -81 
Q 1122 -81 723 278 
Q 325 638 269 1209 
z
" transform="scale(0.015625)"/>
       </defs>
       <use xlink:href="#ArialMT-33"/>
       <use xlink:href="#ArialMT-30" transform="translate(55.615234 0)"/>
      </g>
     </g>
    </g>
    <g id="ytick_5">
     <g id="line2d_5">
      <path d="M 61.74 133.921333 
L 851.04 133.921333 
" clip-path="url(#pfa4a4e4cc3)" style="fill: none; stroke: #cccccc; stroke-linecap: round"/>
     </g>
     <g id="text_8">
      <!-- 40 -->
      <g style="fill: #262626" transform="translate(29.99625 141.079146) scale(0.2 -0.2)">
       <use xlink:href="#ArialMT-34"/>
       <use xlink:href="#ArialMT-30" transform="translate(55.615234 0)"/>
      </g>
     </g>
    </g>
    <g id="ytick_6">
     <g id="line2d_6">
      <path d="M 61.74 77.040667 
L 851.04 77.040667 
" clip-path="url(#pfa4a4e4cc3)" style="fill: none; stroke: #cccccc; stroke-linecap: round"/>
     </g>
     <g id="text_9">
      <!-- 50 -->
      <g style="fill: #262626" transform="translate(29.99625 84.198479) scale(0.2 -0.2)">
       <use xlink:href="#ArialMT-35"/>
       <use xlink:href="#ArialMT-30" transform="translate(55.615234 0)"/>
      </g>
     </g>
    </g>
    <g id="ytick_7">
     <g id="line2d_7">
      <path d="M 61.74 20.16 
L 851.04 20.16 
" clip-path="url(#pfa4a4e4cc3)" style="fill: none; stroke: #cccccc; stroke-linecap: round"/>
     </g>
     <g id="text_10">
      <!-- 60 -->
      <g style="fill: #262626" transform="translate(29.99625 27.317813) scale(0.2 -0.2)">
       <defs>
        <path id="ArialMT-36" d="M 3184 3459 
L 2625 3416 
Q 2550 3747 2413 3897 
Q 2184 4138 1850 4138 
Q 1581 4138 1378 3988 
Q 1113 3794 959 3422 
Q 806 3050 800 2363 
Q 1003 2672 1297 2822 
Q 1591 2972 1913 2972 
Q 2475 2972 2870 2558 
Q 3266 2144 3266 1488 
Q 3266 1056 3080 686 
Q 2894 316 2569 119 
Q 2244 -78 1831 -78 
Q 1128 -78 684 439 
Q 241 956 241 2144 
Q 241 3472 731 4075 
Q 1159 4600 1884 4600 
Q 2425 4600 2770 4297 
Q 3116 3994 3184 3459 
z
M 888 1484 
Q 888 1194 1011 928 
Q 1134 663 1356 523 
Q 1578 384 1822 384 
Q 2178 384 2434 671 
Q 2691 959 2691 1453 
Q 2691 1928 2437 2201 
Q 2184 2475 1800 2475 
Q 1419 2475 1153 2201 
Q 888 1928 888 1484 
z
" transform="scale(0.015625)"/>
       </defs>
       <use xlink:href="#ArialMT-36"/>
       <use xlink:href="#ArialMT-30" transform="translate(55.615234 0)"/>
      </g>
     </g>
    </g>
    <g id="text_11">
     <!-- Handshake duration (ms) -->
     <g style="fill: #262626" transform="translate(23.049688 269.389031) rotate(-90) scale(0.14 -0.14)">
      <defs>
       <path id="ArialMT-48" d="M 513 0 
L 513 4581 
L 1119 4581 
L 1119 2700 
L 3500 2700 
L 3500 4581 
L 4106 4581 
L 4106 0 
L 3500 0 
L 3500 2159 
L 1119 2159 
L 1119 0 
L 513 0 
z
" transform="scale(0.015625)"/>
       <path id="ArialMT-61" d="M 2588 409 
Q 2275 144 1986 34 
Q 1697 -75 1366 -75 
Q 819 -75 525 192 
Q 231 459 231 875 
Q 231 1119 342 1320 
Q 453 1522 633 1644 
Q 813 1766 1038 1828 
Q 1203 1872 1538 1913 
Q 2219 1994 2541 2106 
Q 2544 2222 2544 2253 
Q 2544 2597 2384 2738 
Q 2169 2928 1744 2928 
Q 1347 2928 1158 2789 
Q 969 2650 878 2297 
L 328 2372 
Q 403 2725 575 2942 
Q 747 3159 1072 3276 
Q 1397 3394 1825 3394 
Q 2250 3394 2515 3294 
Q 2781 3194 2906 3042 
Q 3031 2891 3081 2659 
Q 3109 2516 3109 2141 
L 3109 1391 
Q 3109 606 3145 398 
Q 3181 191 3288 0 
L 2700 0 
Q 2613 175 2588 409 
z
M 2541 1666 
Q 2234 1541 1622 1453 
Q 1275 1403 1131 1340 
Q 988 1278 909 1158 
Q 831 1038 831 891 
Q 831 666 1001 516 
Q 1172 366 1500 366 
Q 1825 366 2078 508 
Q 2331 650 2450 897 
Q 2541 1088 2541 1459 
L 2541 1666 
z
" transform="scale(0.015625)"/>
       <path id="ArialMT-6e" d="M 422 0 
L 422 3319 
L 928 3319 
L 928 2847 
Q 1294 3394 1984 3394 
Q 2284 3394 2536 3286 
Q 2788 3178 2913 3003 
Q 3038 2828 3088 2588 
Q 3119 2431 3119 2041 
L 3119 0 
L 2556 0 
L 2556 2019 
Q 2556 2363 2490 2533 
Q 2425 2703 2258 2804 
Q 2091 2906 1866 2906 
Q 1506 2906 1245 2678 
Q 984 2450 984 1813 
L 984 0 
L 422 0 
z
" transform="scale(0.015625)"/>
       <path id="ArialMT-64" d="M 2575 0 
L 2575 419 
Q 2259 -75 1647 -75 
Q 1250 -75 917 144 
Q 584 363 401 755 
Q 219 1147 219 1656 
Q 219 2153 384 2558 
Q 550 2963 881 3178 
Q 1213 3394 1622 3394 
Q 1922 3394 2156 3267 
Q 2391 3141 2538 2938 
L 2538 4581 
L 3097 4581 
L 3097 0 
L 2575 0 
z
M 797 1656 
Q 797 1019 1065 703 
Q 1334 388 1700 388 
Q 2069 388 2326 689 
Q 2584 991 2584 1609 
Q 2584 2291 2321 2609 
Q 2059 2928 1675 2928 
Q 1300 2928 1048 2622 
Q 797 2316 797 1656 
z
" transform="scale(0.015625)"/>
       <path id="ArialMT-73" d="M 197 991 
L 753 1078 
Q 800 744 1014 566 
Q 1228 388 1613 388 
Q 2000 388 2187 545 
Q 2375 703 2375 916 
Q 2375 1106 2209 1216 
Q 2094 1291 1634 1406 
Q 1016 1563 777 1677 
Q 538 1791 414 1992 
Q 291 2194 291 2438 
Q 291 2659 392 2848 
Q 494 3038 669 3163 
Q 800 3259 1026 3326 
Q 1253 3394 1513 3394 
Q 1903 3394 2198 3281 
Q 2494 3169 2634 2976 
Q 2775 2784 2828 2463 
L 2278 2388 
Q 2241 2644 2061 2787 
Q 1881 2931 1553 2931 
Q 1166 2931 1000 2803 
Q 834 2675 834 2503 
Q 834 2394 903 2306 
Q 972 2216 1119 2156 
Q 1203 2125 1616 2013 
Q 2213 1853 2448 1751 
Q 2684 1650 2818 1456 
Q 2953 1263 2953 975 
Q 2953 694 2789 445 
Q 2625 197 2315 61 
Q 2006 -75 1616 -75 
Q 969 -75 630 194 
Q 291 463 197 991 
z
" transform="scale(0.015625)"/>
       <path id="ArialMT-68" d="M 422 0 
L 422 4581 
L 984 4581 
L 984 2938 
Q 1378 3394 1978 3394 
Q 2347 3394 2619 3248 
Q 2891 3103 3008 2847 
Q 3125 2591 3125 2103 
L 3125 0 
L 2563 0 
L 2563 2103 
Q 2563 2525 2380 2717 
Q 2197 2909 1863 2909 
Q 1613 2909 1392 2779 
Q 1172 2650 1078 2428 
Q 984 2206 984 1816 
L 984 0 
L 422 0 
z
" transform="scale(0.015625)"/>
       <path id="ArialMT-20" transform="scale(0.015625)"/>
       <path id="ArialMT-75" d="M 2597 0 
L 2597 488 
Q 2209 -75 1544 -75 
Q 1250 -75 995 37 
Q 741 150 617 320 
Q 494 491 444 738 
Q 409 903 409 1263 
L 409 3319 
L 972 3319 
L 972 1478 
Q 972 1038 1006 884 
Q 1059 663 1231 536 
Q 1403 409 1656 409 
Q 1909 409 2131 539 
Q 2353 669 2445 892 
Q 2538 1116 2538 1541 
L 2538 3319 
L 3100 3319 
L 3100 0 
L 2597 0 
z
" transform="scale(0.015625)"/>
       <path id="ArialMT-72" d="M 416 0 
L 416 3319 
L 922 3319 
L 922 2816 
Q 1116 3169 1280 3281 
Q 1444 3394 1641 3394 
Q 1925 3394 2219 3213 
L 2025 2691 
Q 1819 2813 1613 2813 
Q 1428 2813 1281 2702 
Q 1134 2591 1072 2394 
Q 978 2094 978 1738 
L 978 0 
L 416 0 
z
" transform="scale(0.015625)"/>
       <path id="ArialMT-74" d="M 1650 503 
L 1731 6 
Q 1494 -44 1306 -44 
Q 1000 -44 831 53 
Q 663 150 594 308 
Q 525 466 525 972 
L 525 2881 
L 113 2881 
L 113 3319 
L 525 3319 
L 525 4141 
L 1084 4478 
L 1084 3319 
L 1650 3319 
L 1650 2881 
L 1084 2881 
L 1084 941 
Q 1084 700 1114 631 
Q 1144 563 1211 522 
Q 1278 481 1403 481 
Q 1497 481 1650 503 
z
" transform="scale(0.015625)"/>
       <path id="ArialMT-69" d="M 425 3934 
L 425 4581 
L 988 4581 
L 988 3934 
L 425 3934 
z
M 425 0 
L 425 3319 
L 988 3319 
L 988 0 
L 425 0 
z
" transform="scale(0.015625)"/>
       <path id="ArialMT-6f" d="M 213 1659 
Q 213 2581 725 3025 
Q 1153 3394 1769 3394 
Q 2453 3394 2887 2945 
Q 3322 2497 3322 1706 
Q 3322 1066 3130 698 
Q 2938 331 2570 128 
Q 2203 -75 1769 -75 
Q 1072 -75 642 372 
Q 213 819 213 1659 
z
M 791 1659 
Q 791 1022 1069 705 
Q 1347 388 1769 388 
Q 2188 388 2466 706 
Q 2744 1025 2744 1678 
Q 2744 2294 2464 2611 
Q 2184 2928 1769 2928 
Q 1347 2928 1069 2612 
Q 791 2297 791 1659 
z
" transform="scale(0.015625)"/>
       <path id="ArialMT-28" d="M 1497 -1347 
Q 1031 -759 709 28 
Q 388 816 388 1659 
Q 388 2403 628 3084 
Q 909 3875 1497 4659 
L 1900 4659 
Q 1522 4009 1400 3731 
Q 1209 3300 1100 2831 
Q 966 2247 966 1656 
Q 966 153 1900 -1347 
L 1497 -1347 
z
" transform="scale(0.015625)"/>
       <path id="ArialMT-29" d="M 791 -1347 
L 388 -1347 
Q 1322 153 1322 1656 
Q 1322 2244 1188 2822 
Q 1081 3291 891 3722 
Q 769 4003 388 4659 
L 791 4659 
Q 1378 3875 1659 3084 
Q 1900 2403 1900 1659 
Q 1900 816 1576 28 
Q 1253 -759 791 -1347 
z
" transform="scale(0.015625)"/>
      </defs>
      <use xlink:href="#ArialMT-48"/>
      <use xlink:href="#ArialMT-61" transform="translate(72.216797 0)"/>
      <use xlink:href="#ArialMT-6e" transform="translate(127.832031 0)"/>
      <use xlink:href="#ArialMT-64" transform="translate(183.447266 0)"/>
      <use xlink:href="#ArialMT-73" transform="translate(239.0625 0)"/>
      <use xlink:href="#ArialMT-68" transform="translate(289.0625 0)"/>
      <use xlink:href="#ArialMT-61" transform="translate(344.677734 0)"/>
      <use xlink:href="#ArialMT-6b" transform="translate(400.292969 0)"/>
      <use xlink:href="#ArialMT-65" transform="translate(450.292969 0)"/>
      <use xlink:href="#ArialMT-20" transform="translate(505.908203 0)"/>
      <use xlink:href="#ArialMT-64" transform="translate(533.691406 0)"/>
      <use xlink:href="#ArialMT-75" transform="translate(589.306641 0)"/>
      <use xlink:href="#ArialMT-72" transform="translate(644.921875 0)"/>
      <use xlink:href="#ArialMT-61" transform="translate(678.222656 0)"/>
      <use xlink:href="#ArialMT-74" transform="translate(733.837891 0)"/>
      <use xlink:href="#ArialMT-69" transform="translate(761.621094 0)"/>
      <use xlink:href="#ArialMT-6f" transform="translate(783.837891 0)"/>
      <use xlink:href="#ArialMT-6e" transform="translate(839.453125 0)"/>
      <use xlink:href="#ArialMT-20" transform="translate(895.068359 0)"/>
      <use xlink:href="#ArialMT-28" transform="translate(922.851562 0)"/>
      <use xlink:href="#ArialMT-6d" transform="translate(956.152344 0)"/>
      <use xlink:href="#ArialMT-73" transform="translate(1039.453125 0)"/>
      <use xlink:href="#ArialMT-29" transform="translate(1089.453125 0)"/>
     </g>
    </g>
   </g>
   <g id="FillBetweenPolyCollection_1">
    <defs>
     <path id="m02db3eacb0" d="M 195.424099 -99.631634 
L 191.155901 -99.631634 
L 189.593701 -99.954913 
L 187.184247 -100.278191 
L 183.661603 -100.60147 
L 178.778812 -100.924749 
L 172.360865 -101.248027 
L 164.360648 -101.571306 
L 154.90374 -101.894585 
L 144.30838 -102.217863 
L 133.072487 -102.541142 
L 121.828437 -102.864421 
L 111.274685 -103.1877 
L 102.097853 -103.510978 
L 94.898356 -103.834257 
L 90.128763 -104.157536 
L 88.05 -104.480814 
L 88.708348 -104.804093 
L 91.93586 -105.127372 
L 97.376026 -105.45065 
L 104.533393 -105.773929 
L 112.840413 -106.097208 
L 121.729469 -106.420486 
L 130.69583 -106.743765 
L 139.339889 -107.067044 
L 147.383546 -107.390322 
L 154.663156 -107.713601 
L 161.107041 -108.03688 
L 166.707445 -108.360158 
L 171.495066 -108.683437 
L 175.520585 -109.006716 
L 178.843878 -109.329994 
L 181.529074 -109.653273 
L 183.642903 -109.976552 
L 185.254194 -110.29983 
L 186.433301 -110.623109 
L 187.250938 -110.946388 
L 187.776243 -111.269666 
L 188.074051 -111.592945 
L 188.20164 -111.916224 
L 188.205603 -112.239502 
L 188.119872 -112.562781 
L 187.965866 -112.88606 
L 187.755109 -113.209338 
L 187.493758 -113.532617 
L 187.187605 -113.855896 
L 186.845876 -114.179174 
L 186.48265 -114.502453 
L 186.115775 -114.825732 
L 185.764177 -115.14901 
L 185.445058 -115.472289 
L 185.172157 -115.795568 
L 184.955419 -116.118846 
L 184.801435 -116.442125 
L 184.713596 -116.765404 
L 184.691291 -117.088682 
L 184.72847 -117.411961 
L 184.812897 -117.73524 
L 184.927616 -118.058518 
L 185.055344 -118.381797 
L 185.184862 -118.705076 
L 185.317005 -119.028354 
L 185.467316 -119.351633 
L 185.663403 -119.674912 
L 185.937164 -119.99819 
L 186.314329 -120.321469 
L 186.805071 -120.644748 
L 187.399171 -120.968026 
L 188.06739 -121.291305 
L 188.768303 -121.614584 
L 189.457885 -121.937862 
L 190.098506 -122.261141 
L 190.66469 -122.58442 
L 191.144649 -122.907698 
L 191.538218 -123.230977 
L 191.852922 -123.554256 
L 192.09998 -123.877534 
L 192.291442 -124.200813 
L 192.438745 -124.524092 
L 192.552238 -124.84737 
L 192.640996 -125.170649 
L 192.712453 -125.493928 
L 192.771845 -125.817206 
L 192.821797 -126.140485 
L 192.862496 -126.463764 
L 192.892595 -126.787042 
L 192.910696 -127.110321 
L 192.916857 -127.4336 
L 192.913555 -127.756878 
L 192.905693 -128.080157 
L 192.89963 -128.403436 
L 192.901567 -128.726715 
L 192.91591 -129.049993 
L 192.944166 -129.373272 
L 192.984724 -129.696551 
L 193.033528 -130.019829 
L 193.085327 -130.343108 
L 193.135028 -130.666387 
L 193.178743 -130.989665 
L 193.214299 -131.312944 
L 193.241193 -131.636223 
L 193.338807 -131.636223 
L 193.338807 -131.636223 
L 193.365701 -131.312944 
L 193.401257 -130.989665 
L 193.444972 -130.666387 
L 193.494673 -130.343108 
L 193.546472 -130.019829 
L 193.595276 -129.696551 
L 193.635834 -129.373272 
L 193.66409 -129.049993 
L 193.678433 -128.726715 
L 193.68037 -128.403436 
L 193.674307 -128.080157 
L 193.666445 -127.756878 
L 193.663143 -127.4336 
L 193.669304 -127.110321 
L 193.687405 -126.787042 
L 193.717504 -126.463764 
L 193.758203 -126.140485 
L 193.808155 -125.817206 
L 193.867547 -125.493928 
L 193.939004 -125.170649 
L 194.027762 -124.84737 
L 194.141255 -124.524092 
L 194.288558 -124.200813 
L 194.48002 -123.877534 
L 194.727078 -123.554256 
L 195.041782 -123.230977 
L 195.435351 -122.907698 
L 195.91531 -122.58442 
L 196.481494 -122.261141 
L 197.122115 -121.937862 
L 197.811697 -121.614584 
L 198.51261 -121.291305 
L 199.180829 -120.968026 
L 199.774929 -120.644748 
L 200.265671 -120.321469 
L 200.642836 -119.99819 
L 200.916597 -119.674912 
L 201.112684 -119.351633 
L 201.262995 -119.028354 
L 201.395138 -118.705076 
L 201.524656 -118.381797 
L 201.652384 -118.058518 
L 201.767103 -117.73524 
L 201.85153 -117.411961 
L 201.888709 -117.088682 
L 201.866404 -116.765404 
L 201.778565 -116.442125 
L 201.624581 -116.118846 
L 201.407843 -115.795568 
L 201.134942 -115.472289 
L 200.815823 -115.14901 
L 200.464225 -114.825732 
L 200.09735 -114.502453 
L 199.734124 -114.179174 
L 199.392395 -113.855896 
L 199.086242 -113.532617 
L 198.824891 -113.209338 
L 198.614134 -112.88606 
L 198.460128 -112.562781 
L 198.374397 -112.239502 
L 198.37836 -111.916224 
L 198.505949 -111.592945 
L 198.803757 -111.269666 
L 199.329062 -110.946388 
L 200.146699 -110.623109 
L 201.325806 -110.29983 
L 202.937097 -109.976552 
L 205.050926 -109.653273 
L 207.736122 -109.329994 
L 211.059415 -109.006716 
L 215.084934 -108.683437 
L 219.872555 -108.360158 
L 225.472959 -108.03688 
L 231.916844 -107.713601 
L 239.196454 -107.390322 
L 247.240111 -107.067044 
L 255.88417 -106.743765 
L 264.850531 -106.420486 
L 273.739587 -106.097208 
L 282.046607 -105.773929 
L 289.203974 -105.45065 
L 294.64414 -105.127372 
L 297.871652 -104.804093 
L 298.53 -104.480814 
L 296.451237 -104.157536 
L 291.681644 -103.834257 
L 284.482147 -103.510978 
L 275.305315 -103.1877 
L 264.751563 -102.864421 
L 253.507513 -102.541142 
L 242.27162 -102.217863 
L 231.67626 -101.894585 
L 222.219352 -101.571306 
L 214.219135 -101.248027 
L 207.801188 -100.924749 
L 202.918397 -100.60147 
L 199.395753 -100.278191 
L 196.986299 -99.954913 
L 195.424099 -99.631634 
z
" style="stroke: #595959; stroke-width: 1.25"/>
    </defs>
    <g clip-path="url(#pfa4a4e4cc3)">
     <use xlink:href="#m02db3eacb0" x="0" y="432" style="fill: #72b6a1; stroke: #595959; stroke-width: 1.25"/>
    </g>
   </g>
   <g id="FillBetweenPolyCollection_2">
    <defs>
     <path id="md907d4673c" d="M 458.61165 -141.671874 
L 454.16835 -141.671874 
L 452.632943 -142.328283 
L 450.295532 -142.984693 
L 446.90275 -143.641102 
L 442.209399 -144.297511 
L 436.025678 -144.95392 
L 428.272166 -145.61033 
L 419.030886 -146.266739 
L 408.577995 -146.923148 
L 397.385165 -147.579558 
L 386.083163 -148.235967 
L 375.390959 -148.892376 
L 366.023736 -149.548786 
L 358.599522 -150.205195 
L 353.564384 -150.861604 
L 351.15 -151.518013 
L 351.367726 -152.174423 
L 354.033779 -152.830832 
L 358.814276 -153.487241 
L 365.277937 -154.143651 
L 372.947083 -154.80006 
L 381.341823 -155.456469 
L 390.01564 -156.112879 
L 398.582062 -156.769288 
L 406.732135 -157.425697 
L 414.242234 -158.082106 
L 420.972298 -158.738516 
L 426.855921 -159.394925 
L 431.885211 -160.051334 
L 436.094111 -160.707744 
L 439.543445 -161.364153 
L 442.309578 -162.020562 
L 444.476871 -162.676972 
L 446.132916 -163.333381 
L 447.365174 -163.98979 
L 448.25804 -164.646199 
L 448.890115 -165.302609 
L 449.331998 -165.959018 
L 449.645048 -166.615427 
L 449.881199 -167.271837 
L 450.083453 -167.928246 
L 450.286358 -168.584655 
L 450.515883 -169.241065 
L 450.788508 -169.897474 
L 451.109975 -170.553883 
L 451.474521 -171.210292 
L 451.865532 -171.866702 
L 452.258152 -172.523111 
L 452.62377 -173.17952 
L 452.935596 -173.83593 
L 453.174062 -174.492339 
L 453.330695 -175.148748 
L 453.409481 -175.805158 
L 453.425379 -176.461567 
L 453.400454 -177.117976 
L 453.358722 -177.774385 
L 453.321085 -178.430795 
L 453.301606 -179.087204 
L 453.305858 -179.743613 
L 453.331447 -180.400023 
L 453.370168 -181.056432 
L 453.410982 -181.712841 
L 453.442941 -182.369251 
L 453.457462 -183.02566 
L 453.449692 -183.682069 
L 453.418979 -184.338478 
L 453.368583 -184.994888 
L 453.304796 -185.651297 
L 453.235554 -186.307706 
L 453.168658 -186.964116 
L 453.109806 -187.620525 
L 453.060832 -188.276934 
L 453.018647 -188.933344 
L 452.975417 -189.589753 
L 452.920258 -190.246162 
L 452.842334 -190.902571 
L 452.734739 -191.558981 
L 452.598154 -192.21539 
L 452.443118 -192.871799 
L 452.29 -193.528209 
L 452.166327 -194.184618 
L 452.10186 -194.841027 
L 452.122567 -195.497437 
L 452.244999 -196.153846 
L 452.472579 -196.810255 
L 452.794772 -197.466665 
L 453.189271 -198.123074 
L 453.626482 -198.779483 
L 454.075014 -199.435892 
L 454.506737 -200.092302 
L 454.900285 -200.748711 
L 455.242542 -201.40512 
L 455.528259 -202.06153 
L 455.758413 -202.717939 
L 455.938076 -203.374348 
L 456.07441 -204.030758 
L 456.175146 -204.687167 
L 456.24764 -205.343576 
L 456.298392 -205.999985 
L 456.332884 -206.656395 
L 456.447116 -206.656395 
L 456.447116 -206.656395 
L 456.481608 -205.999985 
L 456.53236 -205.343576 
L 456.604854 -204.687167 
L 456.70559 -204.030758 
L 456.841924 -203.374348 
L 457.021587 -202.717939 
L 457.251741 -202.06153 
L 457.537458 -201.40512 
L 457.879715 -200.748711 
L 458.273263 -200.092302 
L 458.704986 -199.435892 
L 459.153518 -198.779483 
L 459.590729 -198.123074 
L 459.985228 -197.466665 
L 460.307421 -196.810255 
L 460.535001 -196.153846 
L 460.657433 -195.497437 
L 460.67814 -194.841027 
L 460.613673 -194.184618 
L 460.49 -193.528209 
L 460.336882 -192.871799 
L 460.181846 -192.21539 
L 460.045261 -191.558981 
L 459.937666 -190.902571 
L 459.859742 -190.246162 
L 459.804583 -189.589753 
L 459.761353 -188.933344 
L 459.719168 -188.276934 
L 459.670194 -187.620525 
L 459.611342 -186.964116 
L 459.544446 -186.307706 
L 459.475204 -185.651297 
L 459.411417 -184.994888 
L 459.361021 -184.338478 
L 459.330308 -183.682069 
L 459.322538 -183.02566 
L 459.337059 -182.369251 
L 459.369018 -181.712841 
L 459.409832 -181.056432 
L 459.448553 -180.400023 
L 459.474142 -179.743613 
L 459.478394 -179.087204 
L 459.458915 -178.430795 
L 459.421278 -177.774385 
L 459.379546 -177.117976 
L 459.354621 -176.461567 
L 459.370519 -175.805158 
L 459.449305 -175.148748 
L 459.605938 -174.492339 
L 459.844404 -173.83593 
L 460.15623 -173.17952 
L 460.521848 -172.523111 
L 460.914468 -171.866702 
L 461.305479 -171.210292 
L 461.670025 -170.553883 
L 461.991492 -169.897474 
L 462.264117 -169.241065 
L 462.493642 -168.584655 
L 462.696547 -167.928246 
L 462.898801 -167.271837 
L 463.134952 -166.615427 
L 463.448002 -165.959018 
L 463.889885 -165.302609 
L 464.52196 -164.646199 
L 465.414826 -163.98979 
L 466.647084 -163.333381 
L 468.303129 -162.676972 
L 470.470422 -162.020562 
L 473.236555 -161.364153 
L 476.685889 -160.707744 
L 480.894789 -160.051334 
L 485.924079 -159.394925 
L 491.807702 -158.738516 
L 498.537766 -158.082106 
L 506.047865 -157.425697 
L 514.197938 -156.769288 
L 522.76436 -156.112879 
L 531.438177 -155.456469 
L 539.832917 -154.80006 
L 547.502063 -154.143651 
L 553.965724 -153.487241 
L 558.746221 -152.830832 
L 561.412274 -152.174423 
L 561.63 -151.518013 
L 559.215616 -150.861604 
L 554.180478 -150.205195 
L 546.756264 -149.548786 
L 537.389041 -148.892376 
L 526.696837 -148.235967 
L 515.394835 -147.579558 
L 504.202005 -146.923148 
L 493.749114 -146.266739 
L 484.507834 -145.61033 
L 476.754322 -144.95392 
L 470.570601 -144.297511 
L 465.87725 -143.641102 
L 462.484468 -142.984693 
L 460.147057 -142.328283 
L 458.61165 -141.671874 
z
" style="stroke: #595959; stroke-width: 1.25"/>
    </defs>
    <g clip-path="url(#pfa4a4e4cc3)">
     <use xlink:href="#md907d4673c" x="0" y="432" style="fill: #e99675; stroke: #595959; stroke-width: 1.25"/>
    </g>
   </g>
   <g id="FillBetweenPolyCollection_3">
    <defs>
     <path id="maf9cf75105" d="M 719.728137 -90.068161 
L 719.251863 -90.068161 
L 719.090509 -90.2853 
L 718.833345 -90.502438 
L 718.432372 -90.719577 
L 717.821133 -90.936715 
L 716.910993 -91.153854 
L 715.588672 -91.370992 
L 713.716428 -91.58813 
L 711.136514 -91.805269 
L 707.681529 -92.022407 
L 703.191706 -92.239546 
L 697.539105 -92.456684 
L 690.656931 -92.673823 
L 682.570293 -92.890961 
L 673.422856 -93.1081 
L 663.492867 -93.325238 
L 653.19239 -93.542377 
L 643.045639 -93.759515 
L 633.645891 -93.976653 
L 625.595002 -94.193792 
L 619.433862 -94.41093 
L 615.575107 -94.628069 
L 614.25 -94.845207 
L 615.479268 -95.062346 
L 619.073235 -95.279484 
L 624.660854 -95.496623 
L 631.741726 -95.713761 
L 639.751202 -95.9309 
L 648.127114 -96.148038 
L 656.367703 -96.365176 
L 664.073336 -96.582315 
L 670.968646 -96.799453 
L 676.905661 -97.016592 
L 681.851477 -97.23373 
L 685.865591 -97.450869 
L 689.072243 -97.668007 
L 691.632348 -97.885146 
L 693.718263 -98.102284 
L 695.493304 -98.319422 
L 697.096788 -98.536561 
L 698.634574 -98.753699 
L 700.174641 -98.970838 
L 701.747018 -99.187976 
L 703.34727 -99.405115 
L 704.942748 -99.622253 
L 706.480752 -99.839392 
L 707.897734 -100.05653 
L 709.128653 -100.273669 
L 710.115567 -100.490807 
L 710.814638 -100.707945 
L 711.200871 -100.925084 
L 711.270153 -101.142222 
L 711.038519 -101.359361 
L 710.538978 -101.576499 
L 709.816604 -101.793638 
L 708.922912 -102.010776 
L 707.910591 -102.227915 
L 706.829587 -102.445053 
L 705.725144 -102.662192 
L 704.637886 -102.87933 
L 703.605491 -103.096468 
L 702.665005 -103.313607 
L 701.854692 -103.530745 
L 701.214346 -103.747884 
L 700.783499 -103.965022 
L 700.597522 -104.182161 
L 700.68237 -104.399299 
L 701.049204 -104.616438 
L 701.690346 -104.833576 
L 702.577802 -105.050714 
L 703.665012 -105.267853 
L 704.891701 -105.484991 
L 706.19094 -105.70213 
L 707.496991 -105.919268 
L 708.752389 -106.136407 
L 709.912999 -106.353545 
L 710.950384 -106.570684 
L 711.851519 -106.787822 
L 712.616491 -107.004961 
L 713.255153 -107.222099 
L 713.783665 -107.439237 
L 714.221612 -107.656376 
L 714.589923 -107.873514 
L 714.909496 -108.090653 
L 715.200181 -108.307791 
L 715.479802 -108.52493 
L 715.763064 -108.742068 
L 716.060412 -108.959207 
L 716.377115 -109.176345 
L 716.71289 -109.393483 
L 717.062275 -109.610622 
L 717.415801 -109.82776 
L 717.761746 -110.044899 
L 718.088132 -110.262037 
L 718.384559 -110.479176 
L 718.643546 -110.696314 
L 718.861184 -110.913453 
L 719.037113 -111.130591 
L 719.173949 -111.34773 
L 719.276384 -111.564868 
L 719.703616 -111.564868 
L 719.703616 -111.564868 
L 719.806051 -111.34773 
L 719.942887 -111.130591 
L 720.118816 -110.913453 
L 720.336454 -110.696314 
L 720.595441 -110.479176 
L 720.891868 -110.262037 
L 721.218254 -110.044899 
L 721.564199 -109.82776 
L 721.917725 -109.610622 
L 722.26711 -109.393483 
L 722.602885 -109.176345 
L 722.919588 -108.959207 
L 723.216936 -108.742068 
L 723.500198 -108.52493 
L 723.779819 -108.307791 
L 724.070504 -108.090653 
L 724.390077 -107.873514 
L 724.758388 -107.656376 
L 725.196335 -107.439237 
L 725.724847 -107.222099 
L 726.363509 -107.004961 
L 727.128481 -106.787822 
L 728.029616 -106.570684 
L 729.067001 -106.353545 
L 730.227611 -106.136407 
L 731.483009 -105.919268 
L 732.78906 -105.70213 
L 734.088299 -105.484991 
L 735.314988 -105.267853 
L 736.402198 -105.050714 
L 737.289654 -104.833576 
L 737.930796 -104.616438 
L 738.29763 -104.399299 
L 738.382478 -104.182161 
L 738.196501 -103.965022 
L 737.765654 -103.747884 
L 737.125308 -103.530745 
L 736.314995 -103.313607 
L 735.374509 -103.096468 
L 734.342114 -102.87933 
L 733.254856 -102.662192 
L 732.150413 -102.445053 
L 731.069409 -102.227915 
L 730.057088 -102.010776 
L 729.163396 -101.793638 
L 728.441022 -101.576499 
L 727.941481 -101.359361 
L 727.709847 -101.142222 
L 727.779129 -100.925084 
L 728.165362 -100.707945 
L 728.864433 -100.490807 
L 729.851347 -100.273669 
L 731.082266 -100.05653 
L 732.499248 -99.839392 
L 734.037252 -99.622253 
L 735.63273 -99.405115 
L 737.232982 -99.187976 
L 738.805359 -98.970838 
L 740.345426 -98.753699 
L 741.883212 -98.536561 
L 743.486696 -98.319422 
L 745.261737 -98.102284 
L 747.347652 -97.885146 
L 749.907757 -97.668007 
L 753.114409 -97.450869 
L 757.128523 -97.23373 
L 762.074339 -97.016592 
L 768.011354 -96.799453 
L 774.906664 -96.582315 
L 782.612297 -96.365176 
L 790.852886 -96.148038 
L 799.228798 -95.9309 
L 807.238274 -95.713761 
L 814.319146 -95.496623 
L 819.906765 -95.279484 
L 823.500732 -95.062346 
L 824.73 -94.845207 
L 823.404893 -94.628069 
L 819.546138 -94.41093 
L 813.384998 -94.193792 
L 805.334109 -93.976653 
L 795.934361 -93.759515 
L 785.78761 -93.542377 
L 775.487133 -93.325238 
L 765.557144 -93.1081 
L 756.409707 -92.890961 
L 748.323069 -92.673823 
L 741.440895 -92.456684 
L 735.788294 -92.239546 
L 731.298471 -92.022407 
L 727.843486 -91.805269 
L 725.263572 -91.58813 
L 723.391328 -91.370992 
L 722.069007 -91.153854 
L 721.158867 -90.936715 
L 720.547628 -90.719577 
L 720.146655 -90.502438 
L 719.889491 -90.2853 
L 719.728137 -90.068161 
z
" style="stroke: #595959; stroke-width: 1.25"/>
    </defs>
    <g clip-path="url(#pfa4a4e4cc3)">
     <use xlink:href="#maf9cf75105" x="0" y="432" style="fill: #95a3c3; stroke: #595959; stroke-width: 1.25"/>
    </g>
   </g>
   <g id="line2d_8">
    <path d="M 193.29 328.012388 
L 193.29 329.590827 
" clip-path="url(#pfa4a4e4cc3)" style="fill: none; stroke: #000000"/>
   </g>
   <g id="line2d_9">
    <path d="M 193.29 325.253676 
L 193.29 321.286249 
" clip-path="url(#pfa4a4e4cc3)" style="fill: none; stroke: #000000"/>
   </g>
   <g id="line2d_10">
    <path d="M 183.42375 329.590827 
L 203.15625 329.590827 
" clip-path="url(#pfa4a4e4cc3)" style="fill: none; stroke: #000000; stroke-linecap: round"/>
   </g>
   <g id="line2d_11">
    <path d="M 183.42375 321.286249 
L 203.15625 321.286249 
" clip-path="url(#pfa4a4e4cc3)" style="fill: none; stroke: #000000; stroke-linecap: round"/>
   </g>
   <g id="line2d_12">
    <path d="M 456.39 281.654645 
L 456.39 284.256935 
" clip-path="url(#pfa4a4e4cc3)" style="fill: none; stroke: #000000"/>
   </g>
   <g id="line2d_13">
    <path d="M 456.39 276.293642 
L 456.39 268.728513 
" clip-path="url(#pfa4a4e4cc3)" style="fill: none; stroke: #000000"/>
   </g>
   <g id="line2d_14">
    <path d="M 446.52375 284.256935 
L 466.25625 284.256935 
" clip-path="url(#pfa4a4e4cc3)" style="fill: none; stroke: #000000; stroke-linecap: round"/>
   </g>
   <g id="line2d_15">
    <path d="M 446.52375 268.728513 
L 466.25625 268.728513 
" clip-path="url(#pfa4a4e4cc3)" style="fill: none; stroke: #000000; stroke-linecap: round"/>
   </g>
   <g id="line2d_16">
    <path d="M 719.49 337.383478 
L 719.49 339.601824 
" clip-path="url(#pfa4a4e4cc3)" style="fill: none; stroke: #000000"/>
   </g>
   <g id="line2d_17">
    <path d="M 719.49 333.629354 
L 719.49 328.055049 
" clip-path="url(#pfa4a4e4cc3)" style="fill: none; stroke: #000000"/>
   </g>
   <g id="line2d_18">
    <path d="M 709.62375 339.601824 
L 729.35625 339.601824 
" clip-path="url(#pfa4a4e4cc3)" style="fill: none; stroke: #000000; stroke-linecap: round"/>
   </g>
   <g id="line2d_19">
    <path d="M 709.62375 328.055049 
L 729.35625 328.055049 
" clip-path="url(#pfa4a4e4cc3)" style="fill: none; stroke: #000000; stroke-linecap: round"/>
   </g>
   <g id="line2d_20">
    <path d="M 173.5575 327.002756 
L 213.0225 327.002756 
" clip-path="url(#pfa4a4e4cc3)" style="fill: none; stroke: #ff0000; stroke-width: 2"/>
   </g>
   <g id="line2d_21">
    <path d="M 436.6575 279.222996 
L 476.1225 279.222996 
" clip-path="url(#pfa4a4e4cc3)" style="fill: none; stroke: #ff0000; stroke-width: 2"/>
   </g>
   <g id="line2d_22">
    <path d="M 699.7575 336.757791 
L 739.2225 336.757791 
" clip-path="url(#pfa4a4e4cc3)" style="fill: none; stroke: #ff0000; stroke-width: 2"/>
   </g>
   <g id="patch_3">
    <path d="M 61.74 361.444 
L 61.74 20.16 
" style="fill: none; stroke: #cccccc; stroke-width: 1.25; stroke-linejoin: miter; stroke-linecap: square"/>
   </g>
   <g id="patch_4">
    <path d="M 851.04 361.444 
L 851.04 20.16 
" style="fill: none; stroke: #cccccc; stroke-width: 1.25; stroke-linejoin: miter; stroke-linecap: square"/>
   </g>
   <g id="patch_5">
    <path d="M 61.74 361.444 
L 851.04 361.444 
" style="fill: none; stroke: #cccccc; stroke-width: 1.25; stroke-linejoin: miter; stroke-linecap: square"/>
   </g>
   <g id="patch_6">
    <path d="M 61.74 20.16 
L 851.04 20.16 
" style="fill: none; stroke: #cccccc; stroke-width: 1.25; stroke-linejoin: miter; stroke-linecap: square"/>
   </g>
   <g id="text_12">
    <g id="patch_7">
     <path d="M 631.47375 63.116075 
L 820.575 63.116075 
L 820.575 28.2242 
L 631.47375 28.2242 
z
" style="fill: #ffffff; opacity: 0.8; stroke: #808080; stroke-linejoin: miter"/>
    </g>
    <!-- Signature: secp521r1 -->
    <g style="fill: #262626" transform="translate(640.47375 50.327638) scale(0.18 -0.18)">
     <defs>
      <path id="ArialMT-53" d="M 288 1472 
L 859 1522 
Q 900 1178 1048 958 
Q 1197 738 1509 602 
Q 1822 466 2213 466 
Q 2559 466 2825 569 
Q 3091 672 3220 851 
Q 3350 1031 3350 1244 
Q 3350 1459 3225 1620 
Q 3100 1781 2813 1891 
Q 2628 1963 1997 2114 
Q 1366 2266 1113 2400 
Q 784 2572 623 2826 
Q 463 3081 463 3397 
Q 463 3744 659 4045 
Q 856 4347 1234 4503 
Q 1613 4659 2075 4659 
Q 2584 4659 2973 4495 
Q 3363 4331 3572 4012 
Q 3781 3694 3797 3291 
L 3216 3247 
Q 3169 3681 2898 3903 
Q 2628 4125 2100 4125 
Q 1550 4125 1298 3923 
Q 1047 3722 1047 3438 
Q 1047 3191 1225 3031 
Q 1400 2872 2139 2705 
Q 2878 2538 3153 2413 
Q 3553 2228 3743 1945 
Q 3934 1663 3934 1294 
Q 3934 928 3725 604 
Q 3516 281 3123 101 
Q 2731 -78 2241 -78 
Q 1619 -78 1198 103 
Q 778 284 539 648 
Q 300 1013 288 1472 
z
" transform="scale(0.015625)"/>
      <path id="ArialMT-67" d="M 319 -275 
L 866 -356 
Q 900 -609 1056 -725 
Q 1266 -881 1628 -881 
Q 2019 -881 2231 -725 
Q 2444 -569 2519 -288 
Q 2563 -116 2559 434 
Q 2191 0 1641 0 
Q 956 0 581 494 
Q 206 988 206 1678 
Q 206 2153 378 2554 
Q 550 2956 876 3175 
Q 1203 3394 1644 3394 
Q 2231 3394 2613 2919 
L 2613 3319 
L 3131 3319 
L 3131 450 
Q 3131 -325 2973 -648 
Q 2816 -972 2473 -1159 
Q 2131 -1347 1631 -1347 
Q 1038 -1347 672 -1080 
Q 306 -813 319 -275 
z
M 784 1719 
Q 784 1066 1043 766 
Q 1303 466 1694 466 
Q 2081 466 2343 764 
Q 2606 1063 2606 1700 
Q 2606 2309 2336 2618 
Q 2066 2928 1684 2928 
Q 1309 2928 1046 2623 
Q 784 2319 784 1719 
z
" transform="scale(0.015625)"/>
      <path id="ArialMT-3a" d="M 578 2678 
L 578 3319 
L 1219 3319 
L 1219 2678 
L 578 2678 
z
M 578 0 
L 578 641 
L 1219 641 
L 1219 0 
L 578 0 
z
" transform="scale(0.015625)"/>
      <path id="ArialMT-63" d="M 2588 1216 
L 3141 1144 
Q 3050 572 2676 248 
Q 2303 -75 1759 -75 
Q 1078 -75 664 370 
Q 250 816 250 1647 
Q 250 2184 428 2587 
Q 606 2991 970 3192 
Q 1334 3394 1763 3394 
Q 2303 3394 2647 3120 
Q 2991 2847 3088 2344 
L 2541 2259 
Q 2463 2594 2264 2762 
Q 2066 2931 1784 2931 
Q 1359 2931 1093 2626 
Q 828 2322 828 1663 
Q 828 994 1084 691 
Q 1341 388 1753 388 
Q 2084 388 2306 591 
Q 2528 794 2588 1216 
z
" transform="scale(0.015625)"/>
      <path id="ArialMT-70" d="M 422 -1272 
L 422 3319 
L 934 3319 
L 934 2888 
Q 1116 3141 1344 3267 
Q 1572 3394 1897 3394 
Q 2322 3394 2647 3175 
Q 2972 2956 3137 2557 
Q 3303 2159 3303 1684 
Q 3303 1175 3120 767 
Q 2938 359 2589 142 
Q 2241 -75 1856 -75 
Q 1575 -75 1351 44 
Q 1128 163 984 344 
L 984 -1272 
L 422 -1272 
z
M 931 1641 
Q 931 1000 1190 694 
Q 1450 388 1819 388 
Q 2194 388 2461 705 
Q 2728 1022 2728 1688 
Q 2728 2322 2467 2637 
Q 2206 2953 1844 2953 
Q 1484 2953 1207 2617 
Q 931 2281 931 1641 
z
" transform="scale(0.015625)"/>
     </defs>
     <use xlink:href="#ArialMT-53"/>
     <use xlink:href="#ArialMT-69" transform="translate(66.699219 0)"/>
     <use xlink:href="#ArialMT-67" transform="translate(88.916016 0)"/>
     <use xlink:href="#ArialMT-6e" transform="translate(144.53125 0)"/>
     <use xlink:href="#ArialMT-61" transform="translate(200.146484 0)"/>
     <use xlink:href="#ArialMT-74" transform="translate(255.761719 0)"/>
     <use xlink:href="#ArialMT-75" transform="translate(283.544922 0)"/>
     <use xlink:href="#ArialMT-72" transform="translate(339.160156 0)"/>
     <use xlink:href="#ArialMT-65" transform="translate(372.460938 0)"/>
     <use xlink:href="#ArialMT-3a" transform="translate(428.076172 0)"/>
     <use xlink:href="#ArialMT-20" transform="translate(455.859375 0)"/>
     <use xlink:href="#ArialMT-73" transform="translate(483.642578 0)"/>
     <use xlink:href="#ArialMT-65" transform="translate(533.642578 0)"/>
     <use xlink:href="#ArialMT-63" transform="translate(589.257812 0)"/>
     <use xlink:href="#ArialMT-70" transform="translate(639.257812 0)"/>
     <use xlink:href="#ArialMT-35" transform="translate(694.873047 0)"/>
     <use xlink:href="#ArialMT-32" transform="translate(750.488281 0)"/>
     <use xlink:href="#ArialMT-31" transform="translate(806.103516 0)"/>
     <use xlink:href="#ArialMT-72" transform="translate(861.71875 0)"/>
     <use xlink:href="#ArialMT-31" transform="translate(895.019531 0)"/>
    </g>
   </g>
  </g>
 </g>
 <defs>
  <clipPath id="pfa4a4e4cc3">
   <rect x="61.74" y="20.16" width="789.3" height="341.284"/>
  </clipPath>
 </defs>
</svg>
