<?xml version="1.0" encoding="utf-8" standalone="no"?>
<!DOCTYPE svg PUBLIC "-//W3C//DTD SVG 1.1//EN"
  "http://www.w3.org/Graphics/SVG/1.1/DTD/svg11.dtd">
<svg xmlns:xlink="http://www.w3.org/1999/xlink" width="864pt" height="432pt" viewBox="0 0 864 432" xmlns="http://www.w3.org/2000/svg" version="1.1">
 <metadata>
  <rdf:RDF xmlns:dc="http://purl.org/dc/elements/1.1/" xmlns:cc="http://creativecommons.org/ns#" xmlns:rdf="http://www.w3.org/1999/02/22-rdf-syntax-ns#">
   <cc:Work>
    <dc:type rdf:resource="http://purl.org/dc/dcmitype/StillImage"/>
    <dc:date>2025-05-11T15:46:35.111710</dc:date>
    <dc:format>image/svg+xml</dc:format>
    <dc:creator>
     <cc:Agent>
      <dc:title>Matplotlib v3.8.0, https://matplotlib.org/</dc:title>
     </cc:Agent>
    </dc:creator>
   </cc:Work>
  </rdf:RDF>
 </metadata>
 <defs>
  <style type="text/css">*{stroke-linejoin: round; stroke-linecap: butt}</style>
 </defs>
 <g id="figure_1">
  <g id="patch_1">
   <path d="M 0 432 
L 864 432 
L 864 0 
L 0 0 
z
" style="fill: #ffffff"/>
  </g>
  <g id="axes_1">
   <g id="patch_2">
    <path d="M 49.910625 396.58 
L 851.04 396.58 
L 851.04 27.650625 
L 49.910625 27.650625 
z
" style="fill: #ffffff"/>
   </g>
   <g id="matplotlib.axis_1">
    <g id="xtick_1">
     <g id="text_1">
      <!-- P-256 -->
      <g style="fill: #262626" transform="translate(111.345594 416.100937) scale(0.14 -0.14)">
       <defs>
        <path id="ArialMT-50" d="M 494 0 
L 494 4581 
L 2222 4581 
Q 2678 4581 2919 4538 
Q 3256 4481 3484 4323 
Q 3713 4166 3852 3881 
Q 3991 3597 3991 3256 
Q 3991 2672 3619 2267 
Q 3247 1863 2275 1863 
L 1100 1863 
L 1100 0 
L 494 0 
z
M 1100 2403 
L 2284 2403 
Q 2872 2403 3119 2622 
Q 3366 2841 3366 3238 
Q 3366 3525 3220 3729 
Q 3075 3934 2838 4000 
Q 2684 4041 2272 4041 
L 1100 4041 
L 1100 2403 
z
" transform="scale(0.015625)"/>
        <path id="ArialMT-2d" d="M 203 1375 
L 203 1941 
L 1931 1941 
L 1931 1375 
L 203 1375 
z
" transform="scale(0.015625)"/>
        <path id="ArialMT-32" d="M 3222 541 
L 3222 0 
L 194 0 
Q 188 203 259 391 
Q 375 700 629 1000 
Q 884 1300 1366 1694 
Q 2113 2306 2375 2664 
Q 2638 3022 2638 3341 
Q 2638 3675 2398 3904 
Q 2159 4134 1775 4134 
Q 1369 4134 1125 3890 
Q 881 3647 878 3216 
L 300 3275 
Q 359 3922 746 4261 
Q 1134 4600 1788 4600 
Q 2447 4600 2831 4234 
Q 3216 3869 3216 3328 
Q 3216 3053 3103 2787 
Q 2991 2522 2730 2228 
Q 2469 1934 1863 1422 
Q 1356 997 1212 845 
Q 1069 694 975 541 
L 3222 541 
z
" transform="scale(0.015625)"/>
        <path id="ArialMT-35" d="M 266 1200 
L 856 1250 
Q 922 819 1161 601 
Q 1400 384 1738 384 
Q 2144 384 2425 690 
Q 2706 997 2706 1503 
Q 2706 1984 2436 2262 
Q 2166 2541 1728 2541 
Q 1456 2541 1237 2417 
Q 1019 2294 894 2097 
L 366 2166 
L 809 4519 
L 3088 4519 
L 3088 3981 
L 1259 3981 
L 1013 2750 
Q 1425 3038 1878 3038 
Q 2478 3038 2890 2622 
Q 3303 2206 3303 1553 
Q 3303 931 2941 478 
Q 2500 -78 1738 -78 
Q 1113 -78 717 272 
Q 322 622 266 1200 
z
" transform="scale(0.015625)"/>
        <path id="ArialMT-36" d="M 3184 3459 
L 2625 3416 
Q 2550 3747 2413 3897 
Q 2184 4138 1850 4138 
Q 1581 4138 1378 3988 
Q 1113 3794 959 3422 
Q 806 3050 800 2363 
Q 1003 2672 1297 2822 
Q 1591 2972 1913 2972 
Q 2475 2972 2870 2558 
Q 3266 2144 3266 1488 
Q 3266 1056 3080 686 
Q 2894 316 2569 119 
Q 2244 -78 1831 -78 
Q 1128 -78 684 439 
Q 241 956 241 2144 
Q 241 3472 731 4075 
Q 1159 4600 1884 4600 
Q 2425 4600 2770 4297 
Q 3116 3994 3184 3459 
z
M 888 1484 
Q 888 1194 1011 928 
Q 1134 663 1356 523 
Q 1578 384 1822 384 
Q 2178 384 2434 671 
Q 2691 959 2691 1453 
Q 2691 1928 2437 2201 
Q 2184 2475 1800 2475 
Q 1419 2475 1153 2201 
Q 888 1928 888 1484 
z
" transform="scale(0.015625)"/>
       </defs>
       <use xlink:href="#ArialMT-50"/>
       <use xlink:href="#ArialMT-2d" x="66.699219"/>
       <use xlink:href="#ArialMT-32" x="100"/>
       <use xlink:href="#ArialMT-35" x="155.615234"/>
       <use xlink:href="#ArialMT-36" x="211.230469"/>
      </g>
     </g>
    </g>
    <g id="xtick_2">
     <g id="text_2">
      <!-- x25519 -->
      <g style="fill: #262626" transform="translate(267.286156 416.100937) scale(0.14 -0.14)">
       <defs>
        <path id="ArialMT-78" d="M 47 0 
L 1259 1725 
L 138 3319 
L 841 3319 
L 1350 2541 
Q 1494 2319 1581 2169 
Q 1719 2375 1834 2534 
L 2394 3319 
L 3066 3319 
L 1919 1756 
L 3153 0 
L 2463 0 
L 1781 1031 
L 1600 1309 
L 728 0 
L 47 0 
z
" transform="scale(0.015625)"/>
        <path id="ArialMT-31" d="M 2384 0 
L 1822 0 
L 1822 3584 
Q 1619 3391 1289 3197 
Q 959 3003 697 2906 
L 697 3450 
Q 1169 3672 1522 3987 
Q 1875 4303 2022 4600 
L 2384 4600 
L 2384 0 
z
" transform="scale(0.015625)"/>
        <path id="ArialMT-39" d="M 350 1059 
L 891 1109 
Q 959 728 1153 556 
Q 1347 384 1650 384 
Q 1909 384 2104 503 
Q 2300 622 2425 820 
Q 2550 1019 2634 1356 
Q 2719 1694 2719 2044 
Q 2719 2081 2716 2156 
Q 2547 1888 2255 1720 
Q 1963 1553 1622 1553 
Q 1053 1553 659 1965 
Q 266 2378 266 3053 
Q 266 3750 677 4175 
Q 1088 4600 1706 4600 
Q 2153 4600 2523 4359 
Q 2894 4119 3086 3673 
Q 3278 3228 3278 2384 
Q 3278 1506 3087 986 
Q 2897 466 2520 194 
Q 2144 -78 1638 -78 
Q 1100 -78 759 220 
Q 419 519 350 1059 
z
M 2653 3081 
Q 2653 3566 2395 3850 
Q 2138 4134 1775 4134 
Q 1400 4134 1122 3828 
Q 844 3522 844 3034 
Q 844 2597 1108 2323 
Q 1372 2050 1759 2050 
Q 2150 2050 2401 2323 
Q 2653 2597 2653 3081 
z
" transform="scale(0.015625)"/>
       </defs>
       <use xlink:href="#ArialMT-78"/>
       <use xlink:href="#ArialMT-32" x="50"/>
       <use xlink:href="#ArialMT-35" x="105.615234"/>
       <use xlink:href="#ArialMT-35" x="161.230469"/>
       <use xlink:href="#ArialMT-31" x="216.845703"/>
       <use xlink:href="#ArialMT-39" x="272.460938"/>
      </g>
     </g>
    </g>
    <g id="xtick_3">
     <g id="text_3">
      <!-- p256_mlkem512 -->
      <g style="fill: #262626" transform="translate(398.724531 416.1425) scale(0.14 -0.14)">
       <defs>
        <path id="ArialMT-70" d="M 422 -1272 
L 422 3319 
L 934 3319 
L 934 2888 
Q 1116 3141 1344 3267 
Q 1572 3394 1897 3394 
Q 2322 3394 2647 3175 
Q 2972 2956 3137 2557 
Q 3303 2159 3303 1684 
Q 3303 1175 3120 767 
Q 2938 359 2589 142 
Q 2241 -75 1856 -75 
Q 1575 -75 1351 44 
Q 1128 163 984 344 
L 984 -1272 
L 422 -1272 
z
M 931 1641 
Q 931 1000 1190 694 
Q 1450 388 1819 388 
Q 2194 388 2461 705 
Q 2728 1022 2728 1688 
Q 2728 2322 2467 2637 
Q 2206 2953 1844 2953 
Q 1484 2953 1207 2617 
Q 931 2281 931 1641 
z
" transform="scale(0.015625)"/>
        <path id="ArialMT-5f" d="M -97 -1272 
L -97 -866 
L 3631 -866 
L 3631 -1272 
L -97 -1272 
z
" transform="scale(0.015625)"/>
        <path id="ArialMT-6d" d="M 422 0 
L 422 3319 
L 925 3319 
L 925 2853 
Q 1081 3097 1340 3245 
Q 1600 3394 1931 3394 
Q 2300 3394 2536 3241 
Q 2772 3088 2869 2813 
Q 3263 3394 3894 3394 
Q 4388 3394 4653 3120 
Q 4919 2847 4919 2278 
L 4919 0 
L 4359 0 
L 4359 2091 
Q 4359 2428 4304 2576 
Q 4250 2725 4106 2815 
Q 3963 2906 3769 2906 
Q 3419 2906 3187 2673 
Q 2956 2441 2956 1928 
L 2956 0 
L 2394 0 
L 2394 2156 
Q 2394 2531 2256 2718 
Q 2119 2906 1806 2906 
Q 1569 2906 1367 2781 
Q 1166 2656 1075 2415 
Q 984 2175 984 1722 
L 984 0 
L 422 0 
z
" transform="scale(0.015625)"/>
        <path id="ArialMT-6c" d="M 409 0 
L 409 4581 
L 972 4581 
L 972 0 
L 409 0 
z
" transform="scale(0.015625)"/>
        <path id="ArialMT-6b" d="M 425 0 
L 425 4581 
L 988 4581 
L 988 1969 
L 2319 3319 
L 3047 3319 
L 1778 2088 
L 3175 0 
L 2481 0 
L 1384 1697 
L 988 1316 
L 988 0 
L 425 0 
z
" transform="scale(0.015625)"/>
        <path id="ArialMT-65" d="M 2694 1069 
L 3275 997 
Q 3138 488 2766 206 
Q 2394 -75 1816 -75 
Q 1088 -75 661 373 
Q 234 822 234 1631 
Q 234 2469 665 2931 
Q 1097 3394 1784 3394 
Q 2450 3394 2872 2941 
Q 3294 2488 3294 1666 
Q 3294 1616 3291 1516 
L 816 1516 
Q 847 969 1125 678 
Q 1403 388 1819 388 
Q 2128 388 2347 550 
Q 2566 713 2694 1069 
z
M 847 1978 
L 2700 1978 
Q 2663 2397 2488 2606 
Q 2219 2931 1791 2931 
Q 1403 2931 1139 2672 
Q 875 2413 847 1978 
z
" transform="scale(0.015625)"/>
       </defs>
       <use xlink:href="#ArialMT-70"/>
       <use xlink:href="#ArialMT-32" x="55.615234"/>
       <use xlink:href="#ArialMT-35" x="111.230469"/>
       <use xlink:href="#ArialMT-36" x="166.845703"/>
       <use xlink:href="#ArialMT-5f" x="222.460938"/>
       <use xlink:href="#ArialMT-6d" x="278.076172"/>
       <use xlink:href="#ArialMT-6c" x="361.376953"/>
       <use xlink:href="#ArialMT-6b" x="383.59375"/>
       <use xlink:href="#ArialMT-65" x="433.59375"/>
       <use xlink:href="#ArialMT-6d" x="489.208984"/>
       <use xlink:href="#ArialMT-35" x="572.509766"/>
       <use xlink:href="#ArialMT-31" x="628.125"/>
       <use xlink:href="#ArialMT-32" x="683.740234"/>
      </g>
     </g>
    </g>
    <g id="xtick_4">
     <g id="text_4">
      <!-- x25519_mlkem512 -->
      <g style="fill: #262626" transform="translate(551.55775 416.1425) scale(0.14 -0.14)">
       <use xlink:href="#ArialMT-78"/>
       <use xlink:href="#ArialMT-32" x="50"/>
       <use xlink:href="#ArialMT-35" x="105.615234"/>
       <use xlink:href="#ArialMT-35" x="161.230469"/>
       <use xlink:href="#ArialMT-31" x="216.845703"/>
       <use xlink:href="#ArialMT-39" x="272.460938"/>
       <use xlink:href="#ArialMT-5f" x="328.076172"/>
       <use xlink:href="#ArialMT-6d" x="383.691406"/>
       <use xlink:href="#ArialMT-6c" x="466.992188"/>
       <use xlink:href="#ArialMT-6b" x="489.208984"/>
       <use xlink:href="#ArialMT-65" x="539.208984"/>
       <use xlink:href="#ArialMT-6d" x="594.824219"/>
       <use xlink:href="#ArialMT-35" x="678.125"/>
       <use xlink:href="#ArialMT-31" x="733.740234"/>
       <use xlink:href="#ArialMT-32" x="789.355469"/>
      </g>
     </g>
    </g>
    <g id="xtick_5">
     <g id="text_5">
      <!-- mlkem512 -->
      <g style="fill: #262626" transform="translate(738.639563 416.100937) scale(0.14 -0.14)">
       <use xlink:href="#ArialMT-6d"/>
       <use xlink:href="#ArialMT-6c" x="83.300781"/>
       <use xlink:href="#ArialMT-6b" x="105.517578"/>
       <use xlink:href="#ArialMT-65" x="155.517578"/>
       <use xlink:href="#ArialMT-6d" x="211.132812"/>
       <use xlink:href="#ArialMT-35" x="294.433594"/>
       <use xlink:href="#ArialMT-31" x="350.048828"/>
       <use xlink:href="#ArialMT-32" x="405.664062"/>
      </g>
     </g>
    </g>
   </g>
   <g id="matplotlib.axis_2">
    <g id="ytick_1">
     <g id="line2d_1">
      <path d="M 49.910625 363.252374 
L 851.04 363.252374 
" clip-path="url(#pca9bab0907)" style="fill: none; stroke: #cccccc; stroke-linecap: round"/>
     </g>
     <g id="text_6">
      <!-- 2 -->
      <g style="fill: #262626" transform="translate(34.293594 367.189171) scale(0.11 -0.11)">
       <use xlink:href="#ArialMT-32"/>
      </g>
     </g>
    </g>
    <g id="ytick_2">
     <g id="line2d_2">
      <path d="M 49.910625 314.124898 
L 851.04 314.124898 
" clip-path="url(#pca9bab0907)" style="fill: none; stroke: #cccccc; stroke-linecap: round"/>
     </g>
     <g id="text_7">
      <!-- 4 -->
      <g style="fill: #262626" transform="translate(34.293594 318.061695) scale(0.11 -0.11)">
       <defs>
        <path id="ArialMT-34" d="M 2069 0 
L 2069 1097 
L 81 1097 
L 81 1613 
L 2172 4581 
L 2631 4581 
L 2631 1613 
L 3250 1613 
L 3250 1097 
L 2631 1097 
L 2631 0 
L 2069 0 
z
M 2069 1613 
L 2069 3678 
L 634 1613 
L 2069 1613 
z
" transform="scale(0.015625)"/>
       </defs>
       <use xlink:href="#ArialMT-34"/>
      </g>
     </g>
    </g>
    <g id="ytick_3">
     <g id="line2d_3">
      <path d="M 49.910625 264.997422 
L 851.04 264.997422 
" clip-path="url(#pca9bab0907)" style="fill: none; stroke: #cccccc; stroke-linecap: round"/>
     </g>
     <g id="text_8">
      <!-- 6 -->
      <g style="fill: #262626" transform="translate(34.293594 268.934219) scale(0.11 -0.11)">
       <use xlink:href="#ArialMT-36"/>
      </g>
     </g>
    </g>
    <g id="ytick_4">
     <g id="line2d_4">
      <path d="M 49.910625 215.869946 
L 851.04 215.869946 
" clip-path="url(#pca9bab0907)" style="fill: none; stroke: #cccccc; stroke-linecap: round"/>
     </g>
     <g id="text_9">
      <!-- 8 -->
      <g style="fill: #262626" transform="translate(34.293594 219.806743) scale(0.11 -0.11)">
       <defs>
        <path id="ArialMT-38" d="M 1131 2484 
Q 781 2613 612 2850 
Q 444 3088 444 3419 
Q 444 3919 803 4259 
Q 1163 4600 1759 4600 
Q 2359 4600 2725 4251 
Q 3091 3903 3091 3403 
Q 3091 3084 2923 2848 
Q 2756 2613 2416 2484 
Q 2838 2347 3058 2040 
Q 3278 1734 3278 1309 
Q 3278 722 2862 322 
Q 2447 -78 1769 -78 
Q 1091 -78 675 323 
Q 259 725 259 1325 
Q 259 1772 486 2073 
Q 713 2375 1131 2484 
z
M 1019 3438 
Q 1019 3113 1228 2906 
Q 1438 2700 1772 2700 
Q 2097 2700 2305 2904 
Q 2513 3109 2513 3406 
Q 2513 3716 2298 3927 
Q 2084 4138 1766 4138 
Q 1444 4138 1231 3931 
Q 1019 3725 1019 3438 
z
M 838 1322 
Q 838 1081 952 856 
Q 1066 631 1291 507 
Q 1516 384 1775 384 
Q 2178 384 2440 643 
Q 2703 903 2703 1303 
Q 2703 1709 2433 1975 
Q 2163 2241 1756 2241 
Q 1359 2241 1098 1978 
Q 838 1716 838 1322 
z
" transform="scale(0.015625)"/>
       </defs>
       <use xlink:href="#ArialMT-38"/>
      </g>
     </g>
    </g>
    <g id="ytick_5">
     <g id="line2d_5">
      <path d="M 49.910625 166.74247 
L 851.04 166.74247 
" clip-path="url(#pca9bab0907)" style="fill: none; stroke: #cccccc; stroke-linecap: round"/>
     </g>
     <g id="text_10">
      <!-- 10 -->
      <g style="fill: #262626" transform="translate(28.176563 170.679267) scale(0.11 -0.11)">
       <defs>
        <path id="ArialMT-30" d="M 266 2259 
Q 266 3072 433 3567 
Q 600 4063 929 4331 
Q 1259 4600 1759 4600 
Q 2128 4600 2406 4451 
Q 2684 4303 2865 4023 
Q 3047 3744 3150 3342 
Q 3253 2941 3253 2259 
Q 3253 1453 3087 958 
Q 2922 463 2592 192 
Q 2263 -78 1759 -78 
Q 1097 -78 719 397 
Q 266 969 266 2259 
z
M 844 2259 
Q 844 1131 1108 757 
Q 1372 384 1759 384 
Q 2147 384 2411 759 
Q 2675 1134 2675 2259 
Q 2675 3391 2411 3762 
Q 2147 4134 1753 4134 
Q 1366 4134 1134 3806 
Q 844 3388 844 2259 
z
" transform="scale(0.015625)"/>
       </defs>
       <use xlink:href="#ArialMT-31"/>
       <use xlink:href="#ArialMT-30" x="55.615234"/>
      </g>
     </g>
    </g>
    <g id="ytick_6">
     <g id="line2d_6">
      <path d="M 49.910625 117.614994 
L 851.04 117.614994 
" clip-path="url(#pca9bab0907)" style="fill: none; stroke: #cccccc; stroke-linecap: round"/>
     </g>
     <g id="text_11">
      <!-- 12 -->
      <g style="fill: #262626" transform="translate(28.176563 121.551791) scale(0.11 -0.11)">
       <use xlink:href="#ArialMT-31"/>
       <use xlink:href="#ArialMT-32" x="55.615234"/>
      </g>
     </g>
    </g>
    <g id="ytick_7">
     <g id="line2d_7">
      <path d="M 49.910625 68.487518 
L 851.04 68.487518 
" clip-path="url(#pca9bab0907)" style="fill: none; stroke: #cccccc; stroke-linecap: round"/>
     </g>
     <g id="text_12">
      <!-- 14 -->
      <g style="fill: #262626" transform="translate(28.176563 72.424315) scale(0.11 -0.11)">
       <use xlink:href="#ArialMT-31"/>
       <use xlink:href="#ArialMT-34" x="55.615234"/>
      </g>
     </g>
    </g>
    <g id="text_13">
     <!-- Handshake duration (ms) -->
     <g style="fill: #262626" transform="translate(21.650937 279.475625) rotate(-90) scale(0.12 -0.12)">
      <defs>
       <path id="ArialMT-48" d="M 513 0 
L 513 4581 
L 1119 4581 
L 1119 2700 
L 3500 2700 
L 3500 4581 
L 4106 4581 
L 4106 0 
L 3500 0 
L 3500 2159 
L 1119 2159 
L 1119 0 
L 513 0 
z
" transform="scale(0.015625)"/>
       <path id="ArialMT-61" d="M 2588 409 
Q 2275 144 1986 34 
Q 1697 -75 1366 -75 
Q 819 -75 525 192 
Q 231 459 231 875 
Q 231 1119 342 1320 
Q 453 1522 633 1644 
Q 813 1766 1038 1828 
Q 1203 1872 1538 1913 
Q 2219 1994 2541 2106 
Q 2544 2222 2544 2253 
Q 2544 2597 2384 2738 
Q 2169 2928 1744 2928 
Q 1347 2928 1158 2789 
Q 969 2650 878 2297 
L 328 2372 
Q 403 2725 575 2942 
Q 747 3159 1072 3276 
Q 1397 3394 1825 3394 
Q 2250 3394 2515 3294 
Q 2781 3194 2906 3042 
Q 3031 2891 3081 2659 
Q 3109 2516 3109 2141 
L 3109 1391 
Q 3109 606 3145 398 
Q 3181 191 3288 0 
L 2700 0 
Q 2613 175 2588 409 
z
M 2541 1666 
Q 2234 1541 1622 1453 
Q 1275 1403 1131 1340 
Q 988 1278 909 1158 
Q 831 1038 831 891 
Q 831 666 1001 516 
Q 1172 366 1500 366 
Q 1825 366 2078 508 
Q 2331 650 2450 897 
Q 2541 1088 2541 1459 
L 2541 1666 
z
" transform="scale(0.015625)"/>
       <path id="ArialMT-6e" d="M 422 0 
L 422 3319 
L 928 3319 
L 928 2847 
Q 1294 3394 1984 3394 
Q 2284 3394 2536 3286 
Q 2788 3178 2913 3003 
Q 3038 2828 3088 2588 
Q 3119 2431 3119 2041 
L 3119 0 
L 2556 0 
L 2556 2019 
Q 2556 2363 2490 2533 
Q 2425 2703 2258 2804 
Q 2091 2906 1866 2906 
Q 1506 2906 1245 2678 
Q 984 2450 984 1813 
L 984 0 
L 422 0 
z
" transform="scale(0.015625)"/>
       <path id="ArialMT-64" d="M 2575 0 
L 2575 419 
Q 2259 -75 1647 -75 
Q 1250 -75 917 144 
Q 584 363 401 755 
Q 219 1147 219 1656 
Q 219 2153 384 2558 
Q 550 2963 881 3178 
Q 1213 3394 1622 3394 
Q 1922 3394 2156 3267 
Q 2391 3141 2538 2938 
L 2538 4581 
L 3097 4581 
L 3097 0 
L 2575 0 
z
M 797 1656 
Q 797 1019 1065 703 
Q 1334 388 1700 388 
Q 2069 388 2326 689 
Q 2584 991 2584 1609 
Q 2584 2291 2321 2609 
Q 2059 2928 1675 2928 
Q 1300 2928 1048 2622 
Q 797 2316 797 1656 
z
" transform="scale(0.015625)"/>
       <path id="ArialMT-73" d="M 197 991 
L 753 1078 
Q 800 744 1014 566 
Q 1228 388 1613 388 
Q 2000 388 2187 545 
Q 2375 703 2375 916 
Q 2375 1106 2209 1216 
Q 2094 1291 1634 1406 
Q 1016 1563 777 1677 
Q 538 1791 414 1992 
Q 291 2194 291 2438 
Q 291 2659 392 2848 
Q 494 3038 669 3163 
Q 800 3259 1026 3326 
Q 1253 3394 1513 3394 
Q 1903 3394 2198 3281 
Q 2494 3169 2634 2976 
Q 2775 2784 2828 2463 
L 2278 2388 
Q 2241 2644 2061 2787 
Q 1881 2931 1553 2931 
Q 1166 2931 1000 2803 
Q 834 2675 834 2503 
Q 834 2394 903 2306 
Q 972 2216 1119 2156 
Q 1203 2125 1616 2013 
Q 2213 1853 2448 1751 
Q 2684 1650 2818 1456 
Q 2953 1263 2953 975 
Q 2953 694 2789 445 
Q 2625 197 2315 61 
Q 2006 -75 1616 -75 
Q 969 -75 630 194 
Q 291 463 197 991 
z
" transform="scale(0.015625)"/>
       <path id="ArialMT-68" d="M 422 0 
L 422 4581 
L 984 4581 
L 984 2938 
Q 1378 3394 1978 3394 
Q 2347 3394 2619 3248 
Q 2891 3103 3008 2847 
Q 3125 2591 3125 2103 
L 3125 0 
L 2563 0 
L 2563 2103 
Q 2563 2525 2380 2717 
Q 2197 2909 1863 2909 
Q 1613 2909 1392 2779 
Q 1172 2650 1078 2428 
Q 984 2206 984 1816 
L 984 0 
L 422 0 
z
" transform="scale(0.015625)"/>
       <path id="ArialMT-20" transform="scale(0.015625)"/>
       <path id="ArialMT-75" d="M 2597 0 
L 2597 488 
Q 2209 -75 1544 -75 
Q 1250 -75 995 37 
Q 741 150 617 320 
Q 494 491 444 738 
Q 409 903 409 1263 
L 409 3319 
L 972 3319 
L 972 1478 
Q 972 1038 1006 884 
Q 1059 663 1231 536 
Q 1403 409 1656 409 
Q 1909 409 2131 539 
Q 2353 669 2445 892 
Q 2538 1116 2538 1541 
L 2538 3319 
L 3100 3319 
L 3100 0 
L 2597 0 
z
" transform="scale(0.015625)"/>
       <path id="ArialMT-72" d="M 416 0 
L 416 3319 
L 922 3319 
L 922 2816 
Q 1116 3169 1280 3281 
Q 1444 3394 1641 3394 
Q 1925 3394 2219 3213 
L 2025 2691 
Q 1819 2813 1613 2813 
Q 1428 2813 1281 2702 
Q 1134 2591 1072 2394 
Q 978 2094 978 1738 
L 978 0 
L 416 0 
z
" transform="scale(0.015625)"/>
       <path id="ArialMT-74" d="M 1650 503 
L 1731 6 
Q 1494 -44 1306 -44 
Q 1000 -44 831 53 
Q 663 150 594 308 
Q 525 466 525 972 
L 525 2881 
L 113 2881 
L 113 3319 
L 525 3319 
L 525 4141 
L 1084 4478 
L 1084 3319 
L 1650 3319 
L 1650 2881 
L 1084 2881 
L 1084 941 
Q 1084 700 1114 631 
Q 1144 563 1211 522 
Q 1278 481 1403 481 
Q 1497 481 1650 503 
z
" transform="scale(0.015625)"/>
       <path id="ArialMT-69" d="M 425 3934 
L 425 4581 
L 988 4581 
L 988 3934 
L 425 3934 
z
M 425 0 
L 425 3319 
L 988 3319 
L 988 0 
L 425 0 
z
" transform="scale(0.015625)"/>
       <path id="ArialMT-6f" d="M 213 1659 
Q 213 2581 725 3025 
Q 1153 3394 1769 3394 
Q 2453 3394 2887 2945 
Q 3322 2497 3322 1706 
Q 3322 1066 3130 698 
Q 2938 331 2570 128 
Q 2203 -75 1769 -75 
Q 1072 -75 642 372 
Q 213 819 213 1659 
z
M 791 1659 
Q 791 1022 1069 705 
Q 1347 388 1769 388 
Q 2188 388 2466 706 
Q 2744 1025 2744 1678 
Q 2744 2294 2464 2611 
Q 2184 2928 1769 2928 
Q 1347 2928 1069 2612 
Q 791 2297 791 1659 
z
" transform="scale(0.015625)"/>
       <path id="ArialMT-28" d="M 1497 -1347 
Q 1031 -759 709 28 
Q 388 816 388 1659 
Q 388 2403 628 3084 
Q 909 3875 1497 4659 
L 1900 4659 
Q 1522 4009 1400 3731 
Q 1209 3300 1100 2831 
Q 966 2247 966 1656 
Q 966 153 1900 -1347 
L 1497 -1347 
z
" transform="scale(0.015625)"/>
       <path id="ArialMT-29" d="M 791 -1347 
L 388 -1347 
Q 1322 153 1322 1656 
Q 1322 2244 1188 2822 
Q 1081 3291 891 3722 
Q 769 4003 388 4659 
L 791 4659 
Q 1378 3875 1659 3084 
Q 1900 2403 1900 1659 
Q 1900 816 1576 28 
Q 1253 -759 791 -1347 
z
" transform="scale(0.015625)"/>
      </defs>
      <use xlink:href="#ArialMT-48"/>
      <use xlink:href="#ArialMT-61" x="72.216797"/>
      <use xlink:href="#ArialMT-6e" x="127.832031"/>
      <use xlink:href="#ArialMT-64" x="183.447266"/>
      <use xlink:href="#ArialMT-73" x="239.0625"/>
      <use xlink:href="#ArialMT-68" x="289.0625"/>
      <use xlink:href="#ArialMT-61" x="344.677734"/>
      <use xlink:href="#ArialMT-6b" x="400.292969"/>
      <use xlink:href="#ArialMT-65" x="450.292969"/>
      <use xlink:href="#ArialMT-20" x="505.908203"/>
      <use xlink:href="#ArialMT-64" x="533.691406"/>
      <use xlink:href="#ArialMT-75" x="589.306641"/>
      <use xlink:href="#ArialMT-72" x="644.921875"/>
      <use xlink:href="#ArialMT-61" x="678.222656"/>
      <use xlink:href="#ArialMT-74" x="733.837891"/>
      <use xlink:href="#ArialMT-69" x="761.621094"/>
      <use xlink:href="#ArialMT-6f" x="783.837891"/>
      <use xlink:href="#ArialMT-6e" x="839.453125"/>
      <use xlink:href="#ArialMT-20" x="895.068359"/>
      <use xlink:href="#ArialMT-28" x="922.851562"/>
      <use xlink:href="#ArialMT-6d" x="956.152344"/>
      <use xlink:href="#ArialMT-73" x="1039.453125"/>
      <use xlink:href="#ArialMT-29" x="1089.453125"/>
     </g>
    </g>
   </g>
   <g id="PolyCollection_1">
    <defs>
     <path id="m967ede10d2" d="M 130.116456 -56.689232 
L 129.930669 -56.689232 
L 129.815983 -57.692079 
L 129.600332 -58.694926 
L 129.22997 -59.697773 
L 128.641695 -60.700619 
L 127.763493 -61.703466 
L 126.509046 -62.706313 
L 124.767848 -63.709159 
L 122.402284 -64.712006 
L 119.268708 -65.714853 
L 115.272397 -66.7177 
L 110.444434 -67.720546 
L 105.003364 -68.723393 
L 99.355718 -69.72624 
L 94.011768 -70.729087 
L 89.440545 -71.731933 
L 85.932761 -72.73478 
L 83.546766 -73.737627 
L 82.167794 -74.740473 
L 81.640088 -75.74332 
L 81.885247 -76.746167 
L 82.933178 -77.749014 
L 84.853284 -78.75186 
L 87.637134 -79.754707 
L 91.107945 -80.757554 
L 94.909592 -81.760401 
L 98.582331 -82.763247 
L 101.691969 -83.766094 
L 103.958003 -84.768941 
L 105.326512 -85.771787 
L 105.956475 -86.774634 
L 106.130274 -87.777481 
L 106.140836 -88.780328 
L 106.217673 -89.783174 
L 106.518432 -90.786021 
L 107.159416 -91.788868 
L 108.23598 -92.791714 
L 109.808493 -93.794561 
L 111.869734 -94.797408 
L 114.325018 -95.800255 
L 117.001585 -96.803101 
L 119.682217 -97.805948 
L 122.148142 -98.808795 
L 124.218792 -99.811642 
L 125.782633 -100.814488 
L 126.81685 -101.817335 
L 127.391475 -102.820182 
L 127.65055 -103.823028 
L 127.768199 -104.825875 
L 127.892444 -105.828722 
L 128.102425 -106.831569 
L 128.400641 -107.834415 
L 128.740334 -108.837262 
L 129.066245 -109.840109 
L 129.342936 -110.842956 
L 129.560093 -111.845802 
L 129.722637 -112.848649 
L 129.839636 -113.851496 
L 129.919452 -114.854342 
L 129.969803 -115.857189 
L 129.998532 -116.860036 
L 130.013138 -117.862883 
L 130.019699 -118.865729 
L 130.022293 -119.868576 
L 130.023193 -120.871423 
L 130.023467 -121.874269 
L 130.023541 -122.877116 
L 130.023558 -123.879963 
L 130.023562 -124.88281 
L 130.023562 -125.885656 
L 130.023562 -126.888503 
L 130.023562 -127.89135 
L 130.023562 -128.894197 
L 130.023562 -129.897043 
L 130.023562 -130.89989 
L 130.023562 -131.902737 
L 130.023562 -132.905583 
L 130.023562 -133.90843 
L 130.023562 -134.911277 
L 130.023562 -135.914124 
L 130.023558 -136.91697 
L 130.023541 -137.919817 
L 130.023469 -138.922664 
L 130.0232 -139.925511 
L 130.02232 -140.928357 
L 130.019808 -141.931204 
L 130.013549 -142.934051 
L 129.999996 -143.936897 
L 129.974621 -144.939744 
L 129.933868 -145.942591 
L 129.878504 -146.945438 
L 129.816542 -147.948284 
L 129.762844 -148.951131 
L 129.733812 -149.953978 
L 129.7394 -150.956825 
L 129.777638 -151.959671 
L 129.835749 -152.962518 
L 129.896988 -153.965365 
L 129.948287 -154.968211 
L 129.984057 -155.971058 
L 130.063068 -155.971058 
L 130.063068 -155.971058 
L 130.098838 -154.968211 
L 130.150137 -153.965365 
L 130.211376 -152.962518 
L 130.269487 -151.959671 
L 130.307725 -150.956825 
L 130.313313 -149.953978 
L 130.284281 -148.951131 
L 130.230583 -147.948284 
L 130.168621 -146.945438 
L 130.113257 -145.942591 
L 130.072504 -144.939744 
L 130.047129 -143.936897 
L 130.033576 -142.934051 
L 130.027317 -141.931204 
L 130.024805 -140.928357 
L 130.023925 -139.925511 
L 130.023656 -138.922664 
L 130.023584 -137.919817 
L 130.023567 -136.91697 
L 130.023563 -135.914124 
L 130.023563 -134.911277 
L 130.023563 -133.90843 
L 130.023563 -132.905583 
L 130.023563 -131.902737 
L 130.023563 -130.89989 
L 130.023563 -129.897043 
L 130.023563 -128.894197 
L 130.023563 -127.89135 
L 130.023563 -126.888503 
L 130.023563 -125.885656 
L 130.023563 -124.88281 
L 130.023567 -123.879963 
L 130.023584 -122.877116 
L 130.023658 -121.874269 
L 130.023932 -120.871423 
L 130.024832 -119.868576 
L 130.027426 -118.865729 
L 130.033987 -117.862883 
L 130.048593 -116.860036 
L 130.077322 -115.857189 
L 130.127673 -114.854342 
L 130.207489 -113.851496 
L 130.324488 -112.848649 
L 130.487032 -111.845802 
L 130.704189 -110.842956 
L 130.98088 -109.840109 
L 131.306791 -108.837262 
L 131.646484 -107.834415 
L 131.9447 -106.831569 
L 132.154681 -105.828722 
L 132.278926 -104.825875 
L 132.396575 -103.823028 
L 132.65565 -102.820182 
L 133.230275 -101.817335 
L 134.264492 -100.814488 
L 135.828333 -99.811642 
L 137.898983 -98.808795 
L 140.364908 -97.805948 
L 143.04554 -96.803101 
L 145.722107 -95.800255 
L 148.177391 -94.797408 
L 150.238632 -93.794561 
L 151.811145 -92.791714 
L 152.887709 -91.788868 
L 153.528693 -90.786021 
L 153.829452 -89.783174 
L 153.906289 -88.780328 
L 153.916851 -87.777481 
L 154.09065 -86.774634 
L 154.720613 -85.771787 
L 156.089122 -84.768941 
L 158.355156 -83.766094 
L 161.464794 -82.763247 
L 165.137533 -81.760401 
L 168.93918 -80.757554 
L 172.409991 -79.754707 
L 175.193841 -78.75186 
L 177.113947 -77.749014 
L 178.161878 -76.746167 
L 178.407037 -75.74332 
L 177.879331 -74.740473 
L 176.500359 -73.737627 
L 174.114364 -72.73478 
L 170.60658 -71.731933 
L 166.035357 -70.729087 
L 160.691407 -69.72624 
L 155.043761 -68.723393 
L 149.602691 -67.720546 
L 144.774728 -66.7177 
L 140.778417 -65.714853 
L 137.644841 -64.712006 
L 135.279277 -63.709159 
L 133.538079 -62.706313 
L 132.283632 -61.703466 
L 131.40543 -60.700619 
L 130.817155 -59.697773 
L 130.446793 -58.694926 
L 130.231142 -57.692079 
L 130.116456 -56.689232 
z
" style="stroke: #595959; stroke-width: 1.5"/>
    </defs>
    <g clip-path="url(#pca9bab0907)">
     <use xlink:href="#m967ede10d2" x="0" y="432" style="fill: #72b6a1; stroke: #595959; stroke-width: 1.5"/>
    </g>
   </g>
   <g id="PolyCollection_2">
    <defs>
     <path id="m6ec7387dc4" d="M 290.463351 -52.189517 
L 290.035524 -52.189517 
L 289.799944 -52.990487 
L 289.37456 -53.791457 
L 288.670008 -54.592428 
L 287.599847 -55.393398 
L 286.108557 -56.194368 
L 284.198655 -56.995338 
L 281.940594 -57.796308 
L 279.45253 -58.597278 
L 276.851809 -59.398248 
L 274.199062 -60.199219 
L 271.46549 -61.000189 
L 268.544845 -61.801159 
L 265.307676 -62.602129 
L 261.672452 -63.403099 
L 257.66136 -64.204069 
L 253.419819 -65.00504 
L 249.197416 -65.80601 
L 245.301397 -66.60698 
L 242.037871 -67.40795 
L 239.654573 -68.20892 
L 238.297557 -69.00989 
L 237.992831 -69.810861 
L 238.659122 -70.611831 
L 240.147299 -71.412801 
L 242.288854 -72.213771 
L 244.92919 -73.014741 
L 247.928983 -73.815711 
L 251.137448 -74.616681 
L 254.362488 -75.417652 
L 257.36836 -76.218622 
L 259.915271 -77.019592 
L 261.826862 -77.820562 
L 263.050548 -78.621532 
L 263.677076 -79.422502 
L 263.908237 -80.223473 
L 263.989708 -81.024443 
L 264.14169 -81.825413 
L 264.515672 -82.626383 
L 265.187568 -83.427353 
L 266.178431 -84.228323 
L 267.483823 -85.029294 
L 269.09369 -85.830264 
L 270.993093 -86.631234 
L 273.145854 -87.432204 
L 275.473962 -88.233174 
L 277.850139 -89.034144 
L 280.115282 -89.835114 
L 282.11784 -90.636085 
L 283.757422 -91.437055 
L 285.010693 -92.238025 
L 285.927331 -93.038995 
L 286.600582 -93.839965 
L 287.12905 -94.640935 
L 287.587074 -95.441906 
L 288.012681 -96.242876 
L 288.411976 -97.043846 
L 288.772803 -97.844816 
L 289.079702 -98.645786 
L 289.324434 -99.446756 
L 289.509595 -100.247727 
L 289.645832 -101.048697 
L 289.745705 -101.849667 
L 289.818243 -102.650637 
L 289.867324 -103.451607 
L 289.894331 -104.252577 
L 289.902648 -105.053547 
L 289.900494 -105.854518 
L 289.899862 -106.655488 
L 289.912176 -107.456458 
L 289.943489 -108.257428 
L 289.99223 -109.058398 
L 290.05065 -109.859368 
L 290.108793 -110.660339 
L 290.158543 -111.461309 
L 290.195839 -112.262279 
L 290.220615 -113.063249 
L 290.235304 -113.864219 
L 290.243104 -114.665189 
L 290.246794 -115.46616 
L 290.248242 -116.26713 
L 290.248384 -117.0681 
L 290.247323 -117.86907 
L 290.244345 -118.67004 
L 290.237827 -119.47101 
L 290.225205 -120.27198 
L 290.203325 -121.072951 
L 290.169458 -121.873921 
L 290.123011 -122.674891 
L 290.067301 -123.475861 
L 290.010295 -124.276831 
L 289.963273 -125.077801 
L 289.937351 -125.878772 
L 289.939242 -126.679742 
L 289.968445 -127.480712 
L 290.017456 -128.281682 
L 290.07489 -129.082652 
L 290.129744 -129.883622 
L 290.174632 -130.684593 
L 290.20683 -131.485563 
L 290.292045 -131.485563 
L 290.292045 -131.485563 
L 290.324243 -130.684593 
L 290.369131 -129.883622 
L 290.423985 -129.082652 
L 290.481419 -128.281682 
L 290.53043 -127.480712 
L 290.559633 -126.679742 
L 290.561524 -125.878772 
L 290.535602 -125.077801 
L 290.48858 -124.276831 
L 290.431574 -123.475861 
L 290.375864 -122.674891 
L 290.329417 -121.873921 
L 290.29555 -121.072951 
L 290.27367 -120.27198 
L 290.261048 -119.47101 
L 290.25453 -118.67004 
L 290.251552 -117.86907 
L 290.250491 -117.0681 
L 290.250633 -116.26713 
L 290.252081 -115.46616 
L 290.255771 -114.665189 
L 290.263571 -113.864219 
L 290.27826 -113.063249 
L 290.303036 -112.262279 
L 290.340332 -111.461309 
L 290.390082 -110.660339 
L 290.448225 -109.859368 
L 290.506645 -109.058398 
L 290.555386 -108.257428 
L 290.586699 -107.456458 
L 290.599013 -106.655488 
L 290.598381 -105.854518 
L 290.596227 -105.053547 
L 290.604544 -104.252577 
L 290.631551 -103.451607 
L 290.680632 -102.650637 
L 290.75317 -101.849667 
L 290.853043 -101.048697 
L 290.98928 -100.247727 
L 291.174441 -99.446756 
L 291.419173 -98.645786 
L 291.726072 -97.844816 
L 292.086899 -97.043846 
L 292.486194 -96.242876 
L 292.911801 -95.441906 
L 293.369825 -94.640935 
L 293.898293 -93.839965 
L 294.571544 -93.038995 
L 295.488182 -92.238025 
L 296.741453 -91.437055 
L 298.381035 -90.636085 
L 300.383593 -89.835114 
L 302.648736 -89.034144 
L 305.024913 -88.233174 
L 307.353021 -87.432204 
L 309.505782 -86.631234 
L 311.405185 -85.830264 
L 313.015052 -85.029294 
L 314.320444 -84.228323 
L 315.311307 -83.427353 
L 315.983203 -82.626383 
L 316.357185 -81.825413 
L 316.509167 -81.024443 
L 316.590638 -80.223473 
L 316.821799 -79.422502 
L 317.448327 -78.621532 
L 318.672013 -77.820562 
L 320.583604 -77.019592 
L 323.130515 -76.218622 
L 326.136387 -75.417652 
L 329.361427 -74.616681 
L 332.569892 -73.815711 
L 335.569685 -73.014741 
L 338.210021 -72.213771 
L 340.351576 -71.412801 
L 341.839753 -70.611831 
L 342.506044 -69.810861 
L 342.201318 -69.00989 
L 340.844302 -68.20892 
L 338.461004 -67.40795 
L 335.197478 -66.60698 
L 331.301459 -65.80601 
L 327.079056 -65.00504 
L 322.837515 -64.204069 
L 318.826423 -63.403099 
L 315.191199 -62.602129 
L 311.95403 -61.801159 
L 309.033385 -61.000189 
L 306.299813 -60.199219 
L 303.647066 -59.398248 
L 301.046345 -58.597278 
L 298.558281 -57.796308 
L 296.30022 -56.995338 
L 294.390318 -56.194368 
L 292.899028 -55.393398 
L 291.828867 -54.592428 
L 291.124315 -53.791457 
L 290.698931 -52.990487 
L 290.463351 -52.189517 
z
" style="stroke: #595959; stroke-width: 1.5"/>
    </defs>
    <g clip-path="url(#pca9bab0907)">
     <use xlink:href="#m6ec7387dc4" x="0" y="432" style="fill: #e99675; stroke: #595959; stroke-width: 1.5"/>
    </g>
   </g>
   <g id="PolyCollection_3">
    <defs>
     <path id="m6945f0c9cf" d="M 450.542558 -175.359336 
L 450.408067 -175.359336 
L 450.365425 -177.502977 
L 450.302204 -179.646619 
L 450.211972 -181.790261 
L 450.08764 -183.933902 
L 449.921613 -186.077544 
L 449.705739 -188.221186 
L 449.430944 -190.364827 
L 449.086596 -192.508469 
L 448.659807 -194.65211 
L 448.135158 -196.795752 
L 447.495381 -198.939394 
L 446.723463 -201.083035 
L 445.80625 -203.226677 
L 444.739078 -205.370319 
L 443.530393 -207.51396 
L 442.20503 -209.657602 
L 440.804886 -211.801244 
L 439.386321 -213.944885 
L 438.014465 -216.088527 
L 436.755501 -218.232169 
L 435.668579 -220.37581 
L 434.799075 -222.519452 
L 434.17453 -224.663093 
L 433.803847 -226.806735 
L 433.679504 -228.950377 
L 433.781887 -231.094018 
L 434.084511 -233.23766 
L 434.558849 -235.381302 
L 435.177761 -237.524943 
L 435.916988 -239.668585 
L 436.754756 -241.812227 
L 437.670035 -243.955868 
L 438.640413 -246.09951 
L 439.640568 -248.243151 
L 440.642087 -250.386793 
L 441.614869 -252.530435 
L 442.529755 -254.674076 
L 443.361612 -256.817718 
L 444.09197 -258.96136 
L 444.710504 -261.105001 
L 445.215075 -263.248643 
L 445.610505 -265.392285 
L 445.906569 -267.535926 
L 446.115743 -269.679568 
L 446.251197 -271.823209 
L 446.325265 -273.966851 
L 446.348483 -276.110493 
L 446.329185 -278.254134 
L 446.273593 -280.397776 
L 446.186375 -282.541418 
L 446.071564 -284.685059 
L 445.933666 -286.828701 
L 445.778723 -288.972343 
L 445.615032 -291.115984 
L 445.45334 -293.259626 
L 445.306465 -295.403267 
L 445.188423 -297.546909 
L 445.113309 -299.690551 
L 445.094101 -301.834192 
L 445.141555 -303.977834 
L 445.263197 -306.121476 
L 445.462423 -308.265117 
L 445.737732 -310.408759 
L 446.082224 -312.552401 
L 446.483568 -314.696042 
L 446.924656 -316.839684 
L 447.385012 -318.983326 
L 447.842858 -321.126967 
L 448.277493 -323.270609 
L 448.671552 -325.41425 
L 449.012709 -327.557892 
L 449.294535 -329.701534 
L 449.51645 -331.845175 
L 449.682882 -333.988817 
L 449.801916 -336.132459 
L 449.883725 -338.2761 
L 449.93905 -340.419742 
L 449.977909 -342.563384 
L 450.008649 -344.707025 
L 450.037374 -346.850667 
L 450.067769 -348.994308 
L 450.101269 -351.13795 
L 450.137521 -353.281592 
L 450.175046 -355.425233 
L 450.211937 -357.568875 
L 450.246482 -359.712517 
L 450.277568 -361.856158 
L 450.304836 -363.9998 
L 450.328574 -366.143442 
L 450.349459 -368.287083 
L 450.368245 -370.430725 
L 450.385509 -372.574366 
L 450.401527 -374.718008 
L 450.416277 -376.86165 
L 450.429544 -379.005291 
L 450.441065 -381.148933 
L 450.450649 -383.292575 
L 450.458255 -385.436216 
L 450.463999 -387.579858 
L 450.486626 -387.579858 
L 450.486626 -387.579858 
L 450.49237 -385.436216 
L 450.499976 -383.292575 
L 450.50956 -381.148933 
L 450.521081 -379.005291 
L 450.534348 -376.86165 
L 450.549098 -374.718008 
L 450.565116 -372.574366 
L 450.58238 -370.430725 
L 450.601166 -368.287083 
L 450.622051 -366.143442 
L 450.645789 -363.9998 
L 450.673057 -361.856158 
L 450.704143 -359.712517 
L 450.738688 -357.568875 
L 450.775579 -355.425233 
L 450.813104 -353.281592 
L 450.849356 -351.13795 
L 450.882856 -348.994308 
L 450.913251 -346.850667 
L 450.941976 -344.707025 
L 450.972716 -342.563384 
L 451.011575 -340.419742 
L 451.0669 -338.2761 
L 451.148709 -336.132459 
L 451.267743 -333.988817 
L 451.434175 -331.845175 
L 451.65609 -329.701534 
L 451.937916 -327.557892 
L 452.279073 -325.41425 
L 452.673132 -323.270609 
L 453.107767 -321.126967 
L 453.565613 -318.983326 
L 454.025969 -316.839684 
L 454.467057 -314.696042 
L 454.868401 -312.552401 
L 455.212893 -310.408759 
L 455.488202 -308.265117 
L 455.687428 -306.121476 
L 455.80907 -303.977834 
L 455.856524 -301.834192 
L 455.837316 -299.690551 
L 455.762202 -297.546909 
L 455.64416 -295.403267 
L 455.497285 -293.259626 
L 455.335593 -291.115984 
L 455.171902 -288.972343 
L 455.016959 -286.828701 
L 454.879061 -284.685059 
L 454.76425 -282.541418 
L 454.677032 -280.397776 
L 454.62144 -278.254134 
L 454.602142 -276.110493 
L 454.62536 -273.966851 
L 454.699428 -271.823209 
L 454.834882 -269.679568 
L 455.044056 -267.535926 
L 455.34012 -265.392285 
L 455.73555 -263.248643 
L 456.240121 -261.105001 
L 456.858655 -258.96136 
L 457.589013 -256.817718 
L 458.42087 -254.674076 
L 459.335756 -252.530435 
L 460.308538 -250.386793 
L 461.310057 -248.243151 
L 462.310212 -246.09951 
L 463.28059 -243.955868 
L 464.195869 -241.812227 
L 465.033637 -239.668585 
L 465.772864 -237.524943 
L 466.391776 -235.381302 
L 466.866114 -233.23766 
L 467.168738 -231.094018 
L 467.271121 -228.950377 
L 467.146778 -226.806735 
L 466.776095 -224.663093 
L 466.15155 -222.519452 
L 465.282046 -220.37581 
L 464.195124 -218.232169 
L 462.93616 -216.088527 
L 461.564304 -213.944885 
L 460.145739 -211.801244 
L 458.745595 -209.657602 
L 457.420232 -207.51396 
L 456.211547 -205.370319 
L 455.144375 -203.226677 
L 454.227162 -201.083035 
L 453.455244 -198.939394 
L 452.815467 -196.795752 
L 452.290818 -194.65211 
L 451.864029 -192.508469 
L 451.519681 -190.364827 
L 451.244886 -188.221186 
L 451.029012 -186.077544 
L 450.862985 -183.933902 
L 450.738653 -181.790261 
L 450.648421 -179.646619 
L 450.5852 -177.502977 
L 450.542558 -175.359336 
z
" style="stroke: #595959; stroke-width: 1.5"/>
    </defs>
    <g clip-path="url(#pca9bab0907)">
     <use xlink:href="#m6945f0c9cf" x="0" y="432" style="fill: #95a3c3; stroke: #595959; stroke-width: 1.5"/>
    </g>
   </g>
   <g id="PolyCollection_4">
    <defs>
     <path id="ma58b51ba72" d="M 611.293811 -62.588642 
L 610.108564 -62.588642 
L 609.62088 -63.360656 
L 608.825052 -64.132669 
L 607.593801 -64.904683 
L 605.786727 -65.676696 
L 603.268991 -66.448709 
L 599.936339 -67.220723 
L 595.741845 -67.992736 
L 590.718072 -68.764749 
L 584.988632 -69.536763 
L 578.765553 -70.308776 
L 572.332524 -71.08079 
L 566.017454 -71.852803 
L 560.159526 -72.624816 
L 555.075956 -73.39683 
L 551.032508 -74.168843 
L 548.220639 -74.940856 
L 546.743313 -75.71287 
L 546.610838 -76.484883 
L 547.74696 -77.256896 
L 550.003834 -78.02891 
L 553.18286 -78.800923 
L 557.057595 -79.572937 
L 561.395278 -80.34495 
L 565.974654 -81.116963 
L 570.599082 -81.888977 
L 575.104758 -82.66099 
L 579.364268 -83.433003 
L 583.285947 -84.205017 
L 586.809899 -84.97703 
L 589.902094 -85.749044 
L 592.54838 -86.521057 
L 594.750194 -87.29307 
L 596.523003 -88.065084 
L 597.897199 -88.837097 
L 598.919847 -89.60911 
L 599.654905 -90.381124 
L 600.179893 -91.153137 
L 600.578362 -91.92515 
L 600.92948 -92.697164 
L 601.297456 -93.469177 
L 601.723859 -94.241191 
L 602.224816 -95.013204 
L 602.793291 -95.785217 
L 603.405044 -96.557231 
L 604.026179 -97.329244 
L 604.620459 -98.101257 
L 605.155389 -98.873271 
L 605.606825 -99.645284 
L 605.962079 -100.417298 
L 606.22142 -101.189311 
L 606.397649 -101.961324 
L 606.513571 -102.733338 
L 606.5976 -103.505351 
L 606.678385 -104.277364 
L 606.779714 -105.049378 
L 606.916956 -105.821391 
L 607.095763 -106.593404 
L 607.312994 -107.365418 
L 607.559078 -108.137431 
L 607.820735 -108.909445 
L 608.083177 -109.681458 
L 608.331525 -110.453471 
L 608.551764 -111.225485 
L 608.731835 -111.997498 
L 608.863217 -112.769511 
L 608.942807 -113.541525 
L 608.974338 -114.313538 
L 608.968514 -115.085552 
L 608.941339 -115.857565 
L 608.910883 -116.629578 
L 608.893344 -117.401592 
L 608.899625 -118.173605 
L 608.93344 -118.945618 
L 608.991456 -119.717632 
L 609.065282 -120.489645 
L 609.144559 -121.261659 
L 609.220157 -122.033672 
L 609.286532 -122.805685 
L 609.342659 -123.577699 
L 609.391474 -124.349712 
L 609.438207 -125.121725 
L 609.48832 -125.893739 
L 609.545781 -126.665752 
L 609.612182 -127.437765 
L 609.686838 -128.209779 
L 609.767622 -128.981792 
L 609.85206 -129.753806 
L 609.938188 -130.525819 
L 610.02487 -131.297832 
L 610.11154 -132.069846 
L 610.197633 -132.841859 
L 610.282032 -133.613872 
L 610.362853 -134.385886 
L 610.437652 -135.157899 
L 610.50396 -135.929913 
L 610.559889 -136.701926 
L 610.604574 -137.473939 
L 610.638292 -138.245953 
L 610.662279 -139.017966 
L 610.740096 -139.017966 
L 610.740096 -139.017966 
L 610.764083 -138.245953 
L 610.797801 -137.473939 
L 610.842486 -136.701926 
L 610.898415 -135.929913 
L 610.964723 -135.157899 
L 611.039522 -134.385886 
L 611.120343 -133.613872 
L 611.204742 -132.841859 
L 611.290835 -132.069846 
L 611.377505 -131.297832 
L 611.464187 -130.525819 
L 611.550315 -129.753806 
L 611.634753 -128.981792 
L 611.715537 -128.209779 
L 611.790193 -127.437765 
L 611.856594 -126.665752 
L 611.914055 -125.893739 
L 611.964168 -125.121725 
L 612.010901 -124.349712 
L 612.059716 -123.577699 
L 612.115843 -122.805685 
L 612.182218 -122.033672 
L 612.257816 -121.261659 
L 612.337093 -120.489645 
L 612.410919 -119.717632 
L 612.468935 -118.945618 
L 612.50275 -118.173605 
L 612.509031 -117.401592 
L 612.491492 -116.629578 
L 612.461036 -115.857565 
L 612.433861 -115.085552 
L 612.428037 -114.313538 
L 612.459568 -113.541525 
L 612.539158 -112.769511 
L 612.67054 -111.997498 
L 612.850611 -111.225485 
L 613.07085 -110.453471 
L 613.319198 -109.681458 
L 613.58164 -108.909445 
L 613.843297 -108.137431 
L 614.089381 -107.365418 
L 614.306612 -106.593404 
L 614.485419 -105.821391 
L 614.622661 -105.049378 
L 614.72399 -104.277364 
L 614.804775 -103.505351 
L 614.888804 -102.733338 
L 615.004726 -101.961324 
L 615.180955 -101.189311 
L 615.440296 -100.417298 
L 615.79555 -99.645284 
L 616.246986 -98.873271 
L 616.781916 -98.101257 
L 617.376196 -97.329244 
L 617.997331 -96.557231 
L 618.609084 -95.785217 
L 619.177559 -95.013204 
L 619.678516 -94.241191 
L 620.104919 -93.469177 
L 620.472895 -92.697164 
L 620.824013 -91.92515 
L 621.222482 -91.153137 
L 621.74747 -90.381124 
L 622.482528 -89.60911 
L 623.505176 -88.837097 
L 624.879372 -88.065084 
L 626.652181 -87.29307 
L 628.853995 -86.521057 
L 631.500281 -85.749044 
L 634.592476 -84.97703 
L 638.116428 -84.205017 
L 642.038107 -83.433003 
L 646.297617 -82.66099 
L 650.803293 -81.888977 
L 655.427721 -81.116963 
L 660.007097 -80.34495 
L 664.34478 -79.572937 
L 668.219515 -78.800923 
L 671.398541 -78.02891 
L 673.655415 -77.256896 
L 674.791538 -76.484883 
L 674.659062 -75.71287 
L 673.181736 -74.940856 
L 670.369867 -74.168843 
L 666.326419 -73.39683 
L 661.242849 -72.624816 
L 655.384921 -71.852803 
L 649.069851 -71.08079 
L 642.636822 -70.308776 
L 636.413743 -69.536763 
L 630.684303 -68.764749 
L 625.66053 -67.992736 
L 621.466036 -67.220723 
L 618.133384 -66.448709 
L 615.615648 -65.676696 
L 613.808574 -64.904683 
L 612.577323 -64.132669 
L 611.781495 -63.360656 
L 611.293811 -62.588642 
z
" style="stroke: #595959; stroke-width: 1.5"/>
    </defs>
    <g clip-path="url(#pca9bab0907)">
     <use xlink:href="#ma58b51ba72" x="0" y="432" style="fill: #db96c0; stroke: #595959; stroke-width: 1.5"/>
    </g>
   </g>
   <g id="PolyCollection_5">
    <defs>
     <path id="m41a0cbe017" d="M 771.046271 -58.078014 
L 770.807854 -58.078014 
L 770.731498 -58.665739 
L 770.618459 -59.253465 
L 770.457676 -59.84119 
L 770.237253 -60.428916 
L 769.94484 -61.016642 
L 769.56766 -61.604367 
L 769.092027 -62.192093 
L 768.502328 -62.779818 
L 767.779758 -63.367544 
L 766.901289 -63.955269 
L 765.839506 -64.542995 
L 764.563779 -65.130721 
L 763.042878 -65.718446 
L 761.248649 -66.306172 
L 759.159906 -66.893897 
L 756.765548 -67.481623 
L 754.066152 -68.069348 
L 751.073953 -68.657074 
L 747.811891 -69.2448 
L 744.312978 -69.832525 
L 740.621219 -70.420251 
L 736.794613 -71.007976 
L 732.90951 -71.595702 
L 729.064382 -72.183428 
L 725.380424 -72.771153 
L 721.996749 -73.358879 
L 719.059386 -73.946604 
L 716.705215 -74.53433 
L 715.043888 -75.122055 
L 714.141788 -75.709781 
L 714.011909 -76.297507 
L 714.612234 -76.885232 
L 715.853148 -77.472958 
L 717.612253 -78.060683 
L 719.753318 -78.648409 
L 722.145238 -79.236134 
L 724.677136 -79.82386 
L 727.2668 -80.411586 
L 729.861386 -80.999311 
L 732.431254 -81.587037 
L 734.95937 -82.174762 
L 737.429665 -82.762488 
L 739.817701 -83.350213 
L 742.086031 -83.937939 
L 744.185143 -84.525665 
L 746.059251 -85.11339 
L 747.655033 -85.701116 
L 748.930975 -86.288841 
L 749.865236 -86.876567 
L 750.460725 -87.464292 
L 750.746862 -88.052018 
L 750.778114 -88.639744 
L 750.629668 -89.227469 
L 750.390645 -89.815195 
L 750.155353 -90.40292 
L 750.013327 -90.990646 
L 750.039397 -91.578371 
L 750.28545 -92.166097 
L 750.775637 -92.753823 
L 751.506222 -93.341548 
L 752.45014 -93.929274 
L 753.565012 -94.516999 
L 754.802354 -95.104725 
L 756.115493 -95.69245 
L 757.464352 -96.280176 
L 758.816559 -96.867902 
L 760.14565 -97.455627 
L 761.428018 -98.043353 
L 762.640427 -98.631078 
L 763.759323 -99.218804 
L 764.762238 -99.80653 
L 765.630658 -100.394255 
L 766.35323 -100.981981 
L 766.928122 -101.569706 
L 767.363827 -102.157432 
L 767.678222 -102.745157 
L 767.896214 -103.332883 
L 768.046521 -103.920609 
L 768.158149 -104.508334 
L 768.257059 -105.09606 
L 768.36343 -105.683785 
L 768.489921 -106.271511 
L 768.641238 -106.859236 
L 768.815155 -107.446962 
L 769.004731 -108.034688 
L 769.201152 -108.622413 
L 769.396356 -109.210139 
L 769.584733 -109.797864 
L 769.763518 -110.38559 
L 769.932065 -110.973315 
L 770.090536 -111.561041 
L 770.2387 -112.148767 
L 770.375322 -112.736492 
L 770.498303 -113.324218 
L 770.605348 -113.911943 
L 770.694774 -114.499669 
L 770.766105 -115.087394 
L 770.82025 -115.67512 
L 770.859286 -116.262846 
L 770.994839 -116.262846 
L 770.994839 -116.262846 
L 771.033875 -115.67512 
L 771.08802 -115.087394 
L 771.159351 -114.499669 
L 771.248777 -113.911943 
L 771.355822 -113.324218 
L 771.478803 -112.736492 
L 771.615425 -112.148767 
L 771.763589 -111.561041 
L 771.92206 -110.973315 
L 772.090607 -110.38559 
L 772.269392 -109.797864 
L 772.457769 -109.210139 
L 772.652973 -108.622413 
L 772.849394 -108.034688 
L 773.03897 -107.446962 
L 773.212887 -106.859236 
L 773.364204 -106.271511 
L 773.490695 -105.683785 
L 773.597066 -105.09606 
L 773.695976 -104.508334 
L 773.807604 -103.920609 
L 773.957911 -103.332883 
L 774.175903 -102.745157 
L 774.490298 -102.157432 
L 774.926003 -101.569706 
L 775.500895 -100.981981 
L 776.223467 -100.394255 
L 777.091887 -99.80653 
L 778.094802 -99.218804 
L 779.213698 -98.631078 
L 780.426107 -98.043353 
L 781.708475 -97.455627 
L 783.037566 -96.867902 
L 784.389773 -96.280176 
L 785.738632 -95.69245 
L 787.051771 -95.104725 
L 788.289113 -94.516999 
L 789.403985 -93.929274 
L 790.347903 -93.341548 
L 791.078488 -92.753823 
L 791.568675 -92.166097 
L 791.814728 -91.578371 
L 791.840798 -90.990646 
L 791.698772 -90.40292 
L 791.46348 -89.815195 
L 791.224457 -89.227469 
L 791.076011 -88.639744 
L 791.107263 -88.052018 
L 791.3934 -87.464292 
L 791.988889 -86.876567 
L 792.92315 -86.288841 
L 794.199092 -85.701116 
L 795.794874 -85.11339 
L 797.668982 -84.525665 
L 799.768094 -83.937939 
L 802.036424 -83.350213 
L 804.42446 -82.762488 
L 806.894755 -82.174762 
L 809.422871 -81.587037 
L 811.992739 -80.999311 
L 814.587325 -80.411586 
L 817.176989 -79.82386 
L 819.708887 -79.236134 
L 822.100807 -78.648409 
L 824.241872 -78.060683 
L 826.000977 -77.472958 
L 827.241891 -76.885232 
L 827.842216 -76.297507 
L 827.712337 -75.709781 
L 826.810237 -75.122055 
L 825.14891 -74.53433 
L 822.794739 -73.946604 
L 819.857376 -73.358879 
L 816.473701 -72.771153 
L 812.789743 -72.183428 
L 808.944615 -71.595702 
L 805.059512 -71.007976 
L 801.232906 -70.420251 
L 797.541147 -69.832525 
L 794.042234 -69.2448 
L 790.780172 -68.657074 
L 787.787973 -68.069348 
L 785.088577 -67.481623 
L 782.694219 -66.893897 
L 780.605476 -66.306172 
L 778.811247 -65.718446 
L 777.290346 -65.130721 
L 776.014619 -64.542995 
L 774.952836 -63.955269 
L 774.074367 -63.367544 
L 773.351797 -62.779818 
L 772.762098 -62.192093 
L 772.286465 -61.604367 
L 771.909285 -61.016642 
L 771.616872 -60.428916 
L 771.396449 -59.84119 
L 771.235666 -59.253465 
L 771.122627 -58.665739 
L 771.046271 -58.078014 
z
" style="stroke: #595959; stroke-width: 1.5"/>
    </defs>
    <g clip-path="url(#pca9bab0907)">
     <use xlink:href="#m41a0cbe017" x="0" y="432" style="fill: #a2c865; stroke: #595959; stroke-width: 1.5"/>
    </g>
   </g>
   <g id="line2d_8">
    <path d="M 130.023562 358.401036 
L 130.023562 369.638946 
" clip-path="url(#pca9bab0907)" style="fill: none; stroke: #000000; stroke-width: 1.5; stroke-linecap: round"/>
   </g>
   <g id="line2d_9">
    <path d="M 130.023562 344.522524 
L 130.023562 325.17858 
" clip-path="url(#pca9bab0907)" style="fill: none; stroke: #000000; stroke-width: 1.5; stroke-linecap: round"/>
   </g>
   <g id="line2d_10">
    <path d="M 124.015092 369.638946 
L 136.032033 369.638946 
" clip-path="url(#pca9bab0907)" style="fill: none; stroke: #000000; stroke-width: 1.5; stroke-linecap: round"/>
   </g>
   <g id="line2d_11">
    <path d="M 124.015092 325.17858 
L 136.032033 325.17858 
" clip-path="url(#pca9bab0907)" style="fill: none; stroke: #000000; stroke-width: 1.5; stroke-linecap: round"/>
   </g>
   <g id="line2d_12">
    <path d="M 290.249437 364.726198 
L 290.249437 374.551693 
" clip-path="url(#pca9bab0907)" style="fill: none; stroke: #000000; stroke-width: 1.5; stroke-linecap: round"/>
   </g>
   <g id="line2d_13">
    <path d="M 290.249437 352.198692 
L 290.249437 334.267163 
" clip-path="url(#pca9bab0907)" style="fill: none; stroke: #000000; stroke-width: 1.5; stroke-linecap: round"/>
   </g>
   <g id="line2d_14">
    <path d="M 284.240967 374.551693 
L 296.257908 374.551693 
" clip-path="url(#pca9bab0907)" style="fill: none; stroke: #000000; stroke-width: 1.5; stroke-linecap: round"/>
   </g>
   <g id="line2d_15">
    <path d="M 284.240967 334.267163 
L 296.257908 334.267163 
" clip-path="url(#pca9bab0907)" style="fill: none; stroke: #000000; stroke-width: 1.5; stroke-linecap: round"/>
   </g>
   <g id="line2d_16">
    <path d="M 450.475312 207.518275 
L 450.475312 236.503486 
" clip-path="url(#pca9bab0907)" style="fill: none; stroke: #000000; stroke-width: 1.5; stroke-linecap: round"/>
   </g>
   <g id="line2d_17">
    <path d="M 450.475312 160.724354 
L 450.475312 93.051256 
" clip-path="url(#pca9bab0907)" style="fill: none; stroke: #000000; stroke-width: 1.5; stroke-linecap: round"/>
   </g>
   <g id="line2d_18">
    <path d="M 444.466842 236.503486 
L 456.483783 236.503486 
" clip-path="url(#pca9bab0907)" style="fill: none; stroke: #000000; stroke-width: 1.5; stroke-linecap: round"/>
   </g>
   <g id="line2d_19">
    <path d="M 444.466842 93.051256 
L 456.483783 93.051256 
" clip-path="url(#pca9bab0907)" style="fill: none; stroke: #000000; stroke-width: 1.5; stroke-linecap: round"/>
   </g>
   <g id="line2d_20">
    <path d="M 610.701188 357.357077 
L 610.701188 363.006736 
" clip-path="url(#pca9bab0907)" style="fill: none; stroke: #000000; stroke-width: 1.5; stroke-linecap: round"/>
   </g>
   <g id="line2d_21">
    <path d="M 610.701188 349.005406 
L 610.701188 337.214812 
" clip-path="url(#pca9bab0907)" style="fill: none; stroke: #000000; stroke-width: 1.5; stroke-linecap: round"/>
   </g>
   <g id="line2d_22">
    <path d="M 604.692717 363.006736 
L 616.709658 363.006736 
" clip-path="url(#pca9bab0907)" style="fill: none; stroke: #000000; stroke-width: 1.5; stroke-linecap: round"/>
   </g>
   <g id="line2d_23">
    <path d="M 604.692717 337.214812 
L 616.709658 337.214812 
" clip-path="url(#pca9bab0907)" style="fill: none; stroke: #000000; stroke-width: 1.5; stroke-linecap: round"/>
   </g>
   <g id="line2d_24">
    <path d="M 770.927063 357.602714 
L 770.927063 368.656396 
" clip-path="url(#pca9bab0907)" style="fill: none; stroke: #000000; stroke-width: 1.5; stroke-linecap: round"/>
   </g>
   <g id="line2d_25">
    <path d="M 770.927063 346.057757 
L 770.927063 329.600053 
" clip-path="url(#pca9bab0907)" style="fill: none; stroke: #000000; stroke-width: 1.5; stroke-linecap: round"/>
   </g>
   <g id="line2d_26">
    <path d="M 764.918592 368.656396 
L 776.935533 368.656396 
" clip-path="url(#pca9bab0907)" style="fill: none; stroke: #000000; stroke-width: 1.5; stroke-linecap: round"/>
   </g>
   <g id="line2d_27">
    <path d="M 764.918592 329.600053 
L 776.935533 329.600053 
" clip-path="url(#pca9bab0907)" style="fill: none; stroke: #000000; stroke-width: 1.5; stroke-linecap: round"/>
   </g>
   <g id="line2d_28">
    <path d="M 118.006622 353.181241 
L 142.040503 353.181241 
" clip-path="url(#pca9bab0907)" style="fill: none; stroke: #ff0000; stroke-width: 2"/>
   </g>
   <g id="line2d_29">
    <path d="M 278.232497 359.936269 
L 302.266378 359.936269 
" clip-path="url(#pca9bab0907)" style="fill: none; stroke: #ff0000; stroke-width: 2"/>
   </g>
   <g id="line2d_30">
    <path d="M 438.458372 193.02567 
L 462.492253 193.02567 
" clip-path="url(#pca9bab0907)" style="fill: none; stroke: #ff0000; stroke-width: 2"/>
   </g>
   <g id="line2d_31">
    <path d="M 598.684247 354.163791 
L 622.718128 354.163791 
" clip-path="url(#pca9bab0907)" style="fill: none; stroke: #ff0000; stroke-width: 2"/>
   </g>
   <g id="line2d_32">
    <path d="M 758.910122 353.426879 
L 782.944003 353.426879 
" clip-path="url(#pca9bab0907)" style="fill: none; stroke: #ff0000; stroke-width: 2"/>
   </g>
   <g id="patch_3">
    <path d="M 49.910625 396.58 
L 49.910625 27.650625 
" style="fill: none; stroke: #cccccc; stroke-width: 1.25; stroke-linejoin: miter; stroke-linecap: square"/>
   </g>
   <g id="patch_4">
    <path d="M 851.04 396.58 
L 851.04 27.650625 
" style="fill: none; stroke: #cccccc; stroke-width: 1.25; stroke-linejoin: miter; stroke-linecap: square"/>
   </g>
   <g id="patch_5">
    <path d="M 49.910625 396.58 
L 851.04 396.58 
" style="fill: none; stroke: #cccccc; stroke-width: 1.25; stroke-linejoin: miter; stroke-linecap: square"/>
   </g>
   <g id="patch_6">
    <path d="M 49.910625 27.650625 
L 851.04 27.650625 
" style="fill: none; stroke: #cccccc; stroke-width: 1.25; stroke-linejoin: miter; stroke-linecap: square"/>
   </g>
   <g id="text_14">
    <!-- Handshake duration on TLS with ed25519 signature algorithm -->
    <g style="fill: #262626" transform="translate(285.82125 21.650625) scale(0.12 -0.12)">
     <defs>
      <path id="ArialMT-54" d="M 1659 0 
L 1659 4041 
L 150 4041 
L 150 4581 
L 3781 4581 
L 3781 4041 
L 2266 4041 
L 2266 0 
L 1659 0 
z
" transform="scale(0.015625)"/>
      <path id="ArialMT-4c" d="M 469 0 
L 469 4581 
L 1075 4581 
L 1075 541 
L 3331 541 
L 3331 0 
L 469 0 
z
" transform="scale(0.015625)"/>
      <path id="ArialMT-53" d="M 288 1472 
L 859 1522 
Q 900 1178 1048 958 
Q 1197 738 1509 602 
Q 1822 466 2213 466 
Q 2559 466 2825 569 
Q 3091 672 3220 851 
Q 3350 1031 3350 1244 
Q 3350 1459 3225 1620 
Q 3100 1781 2813 1891 
Q 2628 1963 1997 2114 
Q 1366 2266 1113 2400 
Q 784 2572 623 2826 
Q 463 3081 463 3397 
Q 463 3744 659 4045 
Q 856 4347 1234 4503 
Q 1613 4659 2075 4659 
Q 2584 4659 2973 4495 
Q 3363 4331 3572 4012 
Q 3781 3694 3797 3291 
L 3216 3247 
Q 3169 3681 2898 3903 
Q 2628 4125 2100 4125 
Q 1550 4125 1298 3923 
Q 1047 3722 1047 3438 
Q 1047 3191 1225 3031 
Q 1400 2872 2139 2705 
Q 2878 2538 3153 2413 
Q 3553 2228 3743 1945 
Q 3934 1663 3934 1294 
Q 3934 928 3725 604 
Q 3516 281 3123 101 
Q 2731 -78 2241 -78 
Q 1619 -78 1198 103 
Q 778 284 539 648 
Q 300 1013 288 1472 
z
" transform="scale(0.015625)"/>
      <path id="ArialMT-77" d="M 1034 0 
L 19 3319 
L 600 3319 
L 1128 1403 
L 1325 691 
Q 1338 744 1497 1375 
L 2025 3319 
L 2603 3319 
L 3100 1394 
L 3266 759 
L 3456 1400 
L 4025 3319 
L 4572 3319 
L 3534 0 
L 2950 0 
L 2422 1988 
L 2294 2553 
L 1622 0 
L 1034 0 
z
" transform="scale(0.015625)"/>
      <path id="ArialMT-67" d="M 319 -275 
L 866 -356 
Q 900 -609 1056 -725 
Q 1266 -881 1628 -881 
Q 2019 -881 2231 -725 
Q 2444 -569 2519 -288 
Q 2563 -116 2559 434 
Q 2191 0 1641 0 
Q 956 0 581 494 
Q 206 988 206 1678 
Q 206 2153 378 2554 
Q 550 2956 876 3175 
Q 1203 3394 1644 3394 
Q 2231 3394 2613 2919 
L 2613 3319 
L 3131 3319 
L 3131 450 
Q 3131 -325 2973 -648 
Q 2816 -972 2473 -1159 
Q 2131 -1347 1631 -1347 
Q 1038 -1347 672 -1080 
Q 306 -813 319 -275 
z
M 784 1719 
Q 784 1066 1043 766 
Q 1303 466 1694 466 
Q 2081 466 2343 764 
Q 2606 1063 2606 1700 
Q 2606 2309 2336 2618 
Q 2066 2928 1684 2928 
Q 1309 2928 1046 2623 
Q 784 2319 784 1719 
z
" transform="scale(0.015625)"/>
     </defs>
     <use xlink:href="#ArialMT-48"/>
     <use xlink:href="#ArialMT-61" x="72.216797"/>
     <use xlink:href="#ArialMT-6e" x="127.832031"/>
     <use xlink:href="#ArialMT-64" x="183.447266"/>
     <use xlink:href="#ArialMT-73" x="239.0625"/>
     <use xlink:href="#ArialMT-68" x="289.0625"/>
     <use xlink:href="#ArialMT-61" x="344.677734"/>
     <use xlink:href="#ArialMT-6b" x="400.292969"/>
     <use xlink:href="#ArialMT-65" x="450.292969"/>
     <use xlink:href="#ArialMT-20" x="505.908203"/>
     <use xlink:href="#ArialMT-64" x="533.691406"/>
     <use xlink:href="#ArialMT-75" x="589.306641"/>
     <use xlink:href="#ArialMT-72" x="644.921875"/>
     <use xlink:href="#ArialMT-61" x="678.222656"/>
     <use xlink:href="#ArialMT-74" x="733.837891"/>
     <use xlink:href="#ArialMT-69" x="761.621094"/>
     <use xlink:href="#ArialMT-6f" x="783.837891"/>
     <use xlink:href="#ArialMT-6e" x="839.453125"/>
     <use xlink:href="#ArialMT-20" x="895.068359"/>
     <use xlink:href="#ArialMT-6f" x="922.851562"/>
     <use xlink:href="#ArialMT-6e" x="978.466797"/>
     <use xlink:href="#ArialMT-20" x="1034.082031"/>
     <use xlink:href="#ArialMT-54" x="1060.115234"/>
     <use xlink:href="#ArialMT-4c" x="1121.199219"/>
     <use xlink:href="#ArialMT-53" x="1176.814453"/>
     <use xlink:href="#ArialMT-20" x="1243.513672"/>
     <use xlink:href="#ArialMT-77" x="1271.296875"/>
     <use xlink:href="#ArialMT-69" x="1343.513672"/>
     <use xlink:href="#ArialMT-74" x="1365.730469"/>
     <use xlink:href="#ArialMT-68" x="1393.513672"/>
     <use xlink:href="#ArialMT-20" x="1449.128906"/>
     <use xlink:href="#ArialMT-65" x="1476.912109"/>
     <use xlink:href="#ArialMT-64" x="1532.527344"/>
     <use xlink:href="#ArialMT-32" x="1588.142578"/>
     <use xlink:href="#ArialMT-35" x="1643.757812"/>
     <use xlink:href="#ArialMT-35" x="1699.373047"/>
     <use xlink:href="#ArialMT-31" x="1754.988281"/>
     <use xlink:href="#ArialMT-39" x="1810.603516"/>
     <use xlink:href="#ArialMT-20" x="1866.21875"/>
     <use xlink:href="#ArialMT-73" x="1894.001953"/>
     <use xlink:href="#ArialMT-69" x="1944.001953"/>
     <use xlink:href="#ArialMT-67" x="1966.21875"/>
     <use xlink:href="#ArialMT-6e" x="2021.833984"/>
     <use xlink:href="#ArialMT-61" x="2077.449219"/>
     <use xlink:href="#ArialMT-74" x="2133.064453"/>
     <use xlink:href="#ArialMT-75" x="2160.847656"/>
     <use xlink:href="#ArialMT-72" x="2216.462891"/>
     <use xlink:href="#ArialMT-65" x="2249.763672"/>
     <use xlink:href="#ArialMT-20" x="2305.378906"/>
     <use xlink:href="#ArialMT-61" x="2333.162109"/>
     <use xlink:href="#ArialMT-6c" x="2388.777344"/>
     <use xlink:href="#ArialMT-67" x="2410.994141"/>
     <use xlink:href="#ArialMT-6f" x="2466.609375"/>
     <use xlink:href="#ArialMT-72" x="2522.224609"/>
     <use xlink:href="#ArialMT-69" x="2555.525391"/>
     <use xlink:href="#ArialMT-74" x="2577.742188"/>
     <use xlink:href="#ArialMT-68" x="2605.525391"/>
     <use xlink:href="#ArialMT-6d" x="2661.140625"/>
    </g>
   </g>
  </g>
 </g>
 <defs>
  <clipPath id="pca9bab0907">
   <rect x="49.910625" y="27.650625" width="801.129375" height="368.929375"/>
  </clipPath>
 </defs>
</svg>
