<?xml version="1.0" encoding="utf-8" standalone="no"?>
<!DOCTYPE svg PUBLIC "-//W3C//DTD SVG 1.1//EN"
  "http://www.w3.org/Graphics/SVG/1.1/DTD/svg11.dtd">
<svg xmlns:xlink="http://www.w3.org/1999/xlink" width="864pt" height="432pt" viewBox="0 0 864 432" xmlns="http://www.w3.org/2000/svg" version="1.1">
 <metadata>
  <rdf:RDF xmlns:dc="http://purl.org/dc/elements/1.1/" xmlns:cc="http://creativecommons.org/ns#" xmlns:rdf="http://www.w3.org/1999/02/22-rdf-syntax-ns#">
   <cc:Work>
    <dc:type rdf:resource="http://purl.org/dc/dcmitype/StillImage"/>
    <dc:date>2025-05-11T15:46:35.266779</dc:date>
    <dc:format>image/svg+xml</dc:format>
    <dc:creator>
     <cc:Agent>
      <dc:title>Matplotlib v3.8.0, https://matplotlib.org/</dc:title>
     </cc:Agent>
    </dc:creator>
   </cc:Work>
  </rdf:RDF>
 </metadata>
 <defs>
  <style type="text/css">*{stroke-linejoin: round; stroke-linecap: butt}</style>
 </defs>
 <g id="figure_1">
  <g id="patch_1">
   <path d="M 0 432 
L 864 432 
L 864 0 
L 0 0 
z
" style="fill: #ffffff"/>
  </g>
  <g id="axes_1">
   <g id="patch_2">
    <path d="M 49.910625 396.58 
L 851.04 396.58 
L 851.04 27.650625 
L 49.910625 27.650625 
z
" style="fill: #ffffff"/>
   </g>
   <g id="matplotlib.axis_1">
    <g id="xtick_1">
     <g id="text_1">
      <!-- P-521 -->
      <g style="fill: #262626" transform="translate(164.754219 416.100937) scale(0.14 -0.14)">
       <defs>
        <path id="ArialMT-50" d="M 494 0 
L 494 4581 
L 2222 4581 
Q 2678 4581 2919 4538 
Q 3256 4481 3484 4323 
Q 3713 4166 3852 3881 
Q 3991 3597 3991 3256 
Q 3991 2672 3619 2267 
Q 3247 1863 2275 1863 
L 1100 1863 
L 1100 0 
L 494 0 
z
M 1100 2403 
L 2284 2403 
Q 2872 2403 3119 2622 
Q 3366 2841 3366 3238 
Q 3366 3525 3220 3729 
Q 3075 3934 2838 4000 
Q 2684 4041 2272 4041 
L 1100 4041 
L 1100 2403 
z
" transform="scale(0.015625)"/>
        <path id="ArialMT-2d" d="M 203 1375 
L 203 1941 
L 1931 1941 
L 1931 1375 
L 203 1375 
z
" transform="scale(0.015625)"/>
        <path id="ArialMT-35" d="M 266 1200 
L 856 1250 
Q 922 819 1161 601 
Q 1400 384 1738 384 
Q 2144 384 2425 690 
Q 2706 997 2706 1503 
Q 2706 1984 2436 2262 
Q 2166 2541 1728 2541 
Q 1456 2541 1237 2417 
Q 1019 2294 894 2097 
L 366 2166 
L 809 4519 
L 3088 4519 
L 3088 3981 
L 1259 3981 
L 1013 2750 
Q 1425 3038 1878 3038 
Q 2478 3038 2890 2622 
Q 3303 2206 3303 1553 
Q 3303 931 2941 478 
Q 2500 -78 1738 -78 
Q 1113 -78 717 272 
Q 322 622 266 1200 
z
" transform="scale(0.015625)"/>
        <path id="ArialMT-32" d="M 3222 541 
L 3222 0 
L 194 0 
Q 188 203 259 391 
Q 375 700 629 1000 
Q 884 1300 1366 1694 
Q 2113 2306 2375 2664 
Q 2638 3022 2638 3341 
Q 2638 3675 2398 3904 
Q 2159 4134 1775 4134 
Q 1369 4134 1125 3890 
Q 881 3647 878 3216 
L 300 3275 
Q 359 3922 746 4261 
Q 1134 4600 1788 4600 
Q 2447 4600 2831 4234 
Q 3216 3869 3216 3328 
Q 3216 3053 3103 2787 
Q 2991 2522 2730 2228 
Q 2469 1934 1863 1422 
Q 1356 997 1212 845 
Q 1069 694 975 541 
L 3222 541 
z
" transform="scale(0.015625)"/>
        <path id="ArialMT-31" d="M 2384 0 
L 1822 0 
L 1822 3584 
Q 1619 3391 1289 3197 
Q 959 3003 697 2906 
L 697 3450 
Q 1169 3672 1522 3987 
Q 1875 4303 2022 4600 
L 2384 4600 
L 2384 0 
z
" transform="scale(0.015625)"/>
       </defs>
       <use xlink:href="#ArialMT-50"/>
       <use xlink:href="#ArialMT-2d" x="66.699219"/>
       <use xlink:href="#ArialMT-35" x="100"/>
       <use xlink:href="#ArialMT-32" x="155.615234"/>
       <use xlink:href="#ArialMT-31" x="211.230469"/>
      </g>
     </g>
    </g>
    <g id="xtick_2">
     <g id="text_2">
      <!-- p521_mlkem1024 -->
      <g style="fill: #262626" transform="translate(394.831875 416.1425) scale(0.14 -0.14)">
       <defs>
        <path id="ArialMT-70" d="M 422 -1272 
L 422 3319 
L 934 3319 
L 934 2888 
Q 1116 3141 1344 3267 
Q 1572 3394 1897 3394 
Q 2322 3394 2647 3175 
Q 2972 2956 3137 2557 
Q 3303 2159 3303 1684 
Q 3303 1175 3120 767 
Q 2938 359 2589 142 
Q 2241 -75 1856 -75 
Q 1575 -75 1351 44 
Q 1128 163 984 344 
L 984 -1272 
L 422 -1272 
z
M 931 1641 
Q 931 1000 1190 694 
Q 1450 388 1819 388 
Q 2194 388 2461 705 
Q 2728 1022 2728 1688 
Q 2728 2322 2467 2637 
Q 2206 2953 1844 2953 
Q 1484 2953 1207 2617 
Q 931 2281 931 1641 
z
" transform="scale(0.015625)"/>
        <path id="ArialMT-5f" d="M -97 -1272 
L -97 -866 
L 3631 -866 
L 3631 -1272 
L -97 -1272 
z
" transform="scale(0.015625)"/>
        <path id="ArialMT-6d" d="M 422 0 
L 422 3319 
L 925 3319 
L 925 2853 
Q 1081 3097 1340 3245 
Q 1600 3394 1931 3394 
Q 2300 3394 2536 3241 
Q 2772 3088 2869 2813 
Q 3263 3394 3894 3394 
Q 4388 3394 4653 3120 
Q 4919 2847 4919 2278 
L 4919 0 
L 4359 0 
L 4359 2091 
Q 4359 2428 4304 2576 
Q 4250 2725 4106 2815 
Q 3963 2906 3769 2906 
Q 3419 2906 3187 2673 
Q 2956 2441 2956 1928 
L 2956 0 
L 2394 0 
L 2394 2156 
Q 2394 2531 2256 2718 
Q 2119 2906 1806 2906 
Q 1569 2906 1367 2781 
Q 1166 2656 1075 2415 
Q 984 2175 984 1722 
L 984 0 
L 422 0 
z
" transform="scale(0.015625)"/>
        <path id="ArialMT-6c" d="M 409 0 
L 409 4581 
L 972 4581 
L 972 0 
L 409 0 
z
" transform="scale(0.015625)"/>
        <path id="ArialMT-6b" d="M 425 0 
L 425 4581 
L 988 4581 
L 988 1969 
L 2319 3319 
L 3047 3319 
L 1778 2088 
L 3175 0 
L 2481 0 
L 1384 1697 
L 988 1316 
L 988 0 
L 425 0 
z
" transform="scale(0.015625)"/>
        <path id="ArialMT-65" d="M 2694 1069 
L 3275 997 
Q 3138 488 2766 206 
Q 2394 -75 1816 -75 
Q 1088 -75 661 373 
Q 234 822 234 1631 
Q 234 2469 665 2931 
Q 1097 3394 1784 3394 
Q 2450 3394 2872 2941 
Q 3294 2488 3294 1666 
Q 3294 1616 3291 1516 
L 816 1516 
Q 847 969 1125 678 
Q 1403 388 1819 388 
Q 2128 388 2347 550 
Q 2566 713 2694 1069 
z
M 847 1978 
L 2700 1978 
Q 2663 2397 2488 2606 
Q 2219 2931 1791 2931 
Q 1403 2931 1139 2672 
Q 875 2413 847 1978 
z
" transform="scale(0.015625)"/>
        <path id="ArialMT-30" d="M 266 2259 
Q 266 3072 433 3567 
Q 600 4063 929 4331 
Q 1259 4600 1759 4600 
Q 2128 4600 2406 4451 
Q 2684 4303 2865 4023 
Q 3047 3744 3150 3342 
Q 3253 2941 3253 2259 
Q 3253 1453 3087 958 
Q 2922 463 2592 192 
Q 2263 -78 1759 -78 
Q 1097 -78 719 397 
Q 266 969 266 2259 
z
M 844 2259 
Q 844 1131 1108 757 
Q 1372 384 1759 384 
Q 2147 384 2411 759 
Q 2675 1134 2675 2259 
Q 2675 3391 2411 3762 
Q 2147 4134 1753 4134 
Q 1366 4134 1134 3806 
Q 844 3388 844 2259 
z
" transform="scale(0.015625)"/>
        <path id="ArialMT-34" d="M 2069 0 
L 2069 1097 
L 81 1097 
L 81 1613 
L 2172 4581 
L 2631 4581 
L 2631 1613 
L 3250 1613 
L 3250 1097 
L 2631 1097 
L 2631 0 
L 2069 0 
z
M 2069 1613 
L 2069 3678 
L 634 1613 
L 2069 1613 
z
" transform="scale(0.015625)"/>
       </defs>
       <use xlink:href="#ArialMT-70"/>
       <use xlink:href="#ArialMT-35" x="55.615234"/>
       <use xlink:href="#ArialMT-32" x="111.230469"/>
       <use xlink:href="#ArialMT-31" x="166.845703"/>
       <use xlink:href="#ArialMT-5f" x="222.460938"/>
       <use xlink:href="#ArialMT-6d" x="278.076172"/>
       <use xlink:href="#ArialMT-6c" x="361.376953"/>
       <use xlink:href="#ArialMT-6b" x="383.59375"/>
       <use xlink:href="#ArialMT-65" x="433.59375"/>
       <use xlink:href="#ArialMT-6d" x="489.208984"/>
       <use xlink:href="#ArialMT-31" x="572.509766"/>
       <use xlink:href="#ArialMT-30" x="628.125"/>
       <use xlink:href="#ArialMT-32" x="683.740234"/>
       <use xlink:href="#ArialMT-34" x="739.355469"/>
      </g>
     </g>
    </g>
    <g id="xtick_3">
     <g id="text_3">
      <!-- mlkem1024 -->
      <g style="fill: #262626" transform="translate(681.338281 416.100937) scale(0.14 -0.14)">
       <use xlink:href="#ArialMT-6d"/>
       <use xlink:href="#ArialMT-6c" x="83.300781"/>
       <use xlink:href="#ArialMT-6b" x="105.517578"/>
       <use xlink:href="#ArialMT-65" x="155.517578"/>
       <use xlink:href="#ArialMT-6d" x="211.132812"/>
       <use xlink:href="#ArialMT-31" x="294.433594"/>
       <use xlink:href="#ArialMT-30" x="350.048828"/>
       <use xlink:href="#ArialMT-32" x="405.664062"/>
       <use xlink:href="#ArialMT-34" x="461.279297"/>
      </g>
     </g>
    </g>
   </g>
   <g id="matplotlib.axis_2">
    <g id="ytick_1">
     <g id="line2d_1">
      <path d="M 49.910625 360.905451 
L 851.04 360.905451 
" clip-path="url(#p0e4a2ffcad)" style="fill: none; stroke: #cccccc; stroke-linecap: round"/>
     </g>
     <g id="text_4">
      <!-- 10 -->
      <g style="fill: #262626" transform="translate(28.176563 364.842248) scale(0.11 -0.11)">
       <use xlink:href="#ArialMT-31"/>
       <use xlink:href="#ArialMT-30" x="55.615234"/>
      </g>
     </g>
    </g>
    <g id="ytick_2">
     <g id="line2d_2">
      <path d="M 49.910625 286.952614 
L 851.04 286.952614 
" clip-path="url(#p0e4a2ffcad)" style="fill: none; stroke: #cccccc; stroke-linecap: round"/>
     </g>
     <g id="text_5">
      <!-- 20 -->
      <g style="fill: #262626" transform="translate(28.176563 290.889411) scale(0.11 -0.11)">
       <use xlink:href="#ArialMT-32"/>
       <use xlink:href="#ArialMT-30" x="55.615234"/>
      </g>
     </g>
    </g>
    <g id="ytick_3">
     <g id="line2d_3">
      <path d="M 49.910625 212.999778 
L 851.04 212.999778 
" clip-path="url(#p0e4a2ffcad)" style="fill: none; stroke: #cccccc; stroke-linecap: round"/>
     </g>
     <g id="text_6">
      <!-- 30 -->
      <g style="fill: #262626" transform="translate(28.176563 216.936575) scale(0.11 -0.11)">
       <defs>
        <path id="ArialMT-33" d="M 269 1209 
L 831 1284 
Q 928 806 1161 595 
Q 1394 384 1728 384 
Q 2125 384 2398 659 
Q 2672 934 2672 1341 
Q 2672 1728 2419 1979 
Q 2166 2231 1775 2231 
Q 1616 2231 1378 2169 
L 1441 2663 
Q 1497 2656 1531 2656 
Q 1891 2656 2178 2843 
Q 2466 3031 2466 3422 
Q 2466 3731 2256 3934 
Q 2047 4138 1716 4138 
Q 1388 4138 1169 3931 
Q 950 3725 888 3313 
L 325 3413 
Q 428 3978 793 4289 
Q 1159 4600 1703 4600 
Q 2078 4600 2393 4439 
Q 2709 4278 2876 4000 
Q 3044 3722 3044 3409 
Q 3044 3113 2884 2869 
Q 2725 2625 2413 2481 
Q 2819 2388 3044 2092 
Q 3269 1797 3269 1353 
Q 3269 753 2831 336 
Q 2394 -81 1725 -81 
Q 1122 -81 723 278 
Q 325 638 269 1209 
z
" transform="scale(0.015625)"/>
       </defs>
       <use xlink:href="#ArialMT-33"/>
       <use xlink:href="#ArialMT-30" x="55.615234"/>
      </g>
     </g>
    </g>
    <g id="ytick_4">
     <g id="line2d_4">
      <path d="M 49.910625 139.046942 
L 851.04 139.046942 
" clip-path="url(#p0e4a2ffcad)" style="fill: none; stroke: #cccccc; stroke-linecap: round"/>
     </g>
     <g id="text_7">
      <!-- 40 -->
      <g style="fill: #262626" transform="translate(28.176563 142.983739) scale(0.11 -0.11)">
       <use xlink:href="#ArialMT-34"/>
       <use xlink:href="#ArialMT-30" x="55.615234"/>
      </g>
     </g>
    </g>
    <g id="ytick_5">
     <g id="line2d_5">
      <path d="M 49.910625 65.094106 
L 851.04 65.094106 
" clip-path="url(#p0e4a2ffcad)" style="fill: none; stroke: #cccccc; stroke-linecap: round"/>
     </g>
     <g id="text_8">
      <!-- 50 -->
      <g style="fill: #262626" transform="translate(28.176563 69.030903) scale(0.11 -0.11)">
       <use xlink:href="#ArialMT-35"/>
       <use xlink:href="#ArialMT-30" x="55.615234"/>
      </g>
     </g>
    </g>
    <g id="text_9">
     <!-- Handshake duration (ms) -->
     <g style="fill: #262626" transform="translate(21.650937 279.475625) rotate(-90) scale(0.12 -0.12)">
      <defs>
       <path id="ArialMT-48" d="M 513 0 
L 513 4581 
L 1119 4581 
L 1119 2700 
L 3500 2700 
L 3500 4581 
L 4106 4581 
L 4106 0 
L 3500 0 
L 3500 2159 
L 1119 2159 
L 1119 0 
L 513 0 
z
" transform="scale(0.015625)"/>
       <path id="ArialMT-61" d="M 2588 409 
Q 2275 144 1986 34 
Q 1697 -75 1366 -75 
Q 819 -75 525 192 
Q 231 459 231 875 
Q 231 1119 342 1320 
Q 453 1522 633 1644 
Q 813 1766 1038 1828 
Q 1203 1872 1538 1913 
Q 2219 1994 2541 2106 
Q 2544 2222 2544 2253 
Q 2544 2597 2384 2738 
Q 2169 2928 1744 2928 
Q 1347 2928 1158 2789 
Q 969 2650 878 2297 
L 328 2372 
Q 403 2725 575 2942 
Q 747 3159 1072 3276 
Q 1397 3394 1825 3394 
Q 2250 3394 2515 3294 
Q 2781 3194 2906 3042 
Q 3031 2891 3081 2659 
Q 3109 2516 3109 2141 
L 3109 1391 
Q 3109 606 3145 398 
Q 3181 191 3288 0 
L 2700 0 
Q 2613 175 2588 409 
z
M 2541 1666 
Q 2234 1541 1622 1453 
Q 1275 1403 1131 1340 
Q 988 1278 909 1158 
Q 831 1038 831 891 
Q 831 666 1001 516 
Q 1172 366 1500 366 
Q 1825 366 2078 508 
Q 2331 650 2450 897 
Q 2541 1088 2541 1459 
L 2541 1666 
z
" transform="scale(0.015625)"/>
       <path id="ArialMT-6e" d="M 422 0 
L 422 3319 
L 928 3319 
L 928 2847 
Q 1294 3394 1984 3394 
Q 2284 3394 2536 3286 
Q 2788 3178 2913 3003 
Q 3038 2828 3088 2588 
Q 3119 2431 3119 2041 
L 3119 0 
L 2556 0 
L 2556 2019 
Q 2556 2363 2490 2533 
Q 2425 2703 2258 2804 
Q 2091 2906 1866 2906 
Q 1506 2906 1245 2678 
Q 984 2450 984 1813 
L 984 0 
L 422 0 
z
" transform="scale(0.015625)"/>
       <path id="ArialMT-64" d="M 2575 0 
L 2575 419 
Q 2259 -75 1647 -75 
Q 1250 -75 917 144 
Q 584 363 401 755 
Q 219 1147 219 1656 
Q 219 2153 384 2558 
Q 550 2963 881 3178 
Q 1213 3394 1622 3394 
Q 1922 3394 2156 3267 
Q 2391 3141 2538 2938 
L 2538 4581 
L 3097 4581 
L 3097 0 
L 2575 0 
z
M 797 1656 
Q 797 1019 1065 703 
Q 1334 388 1700 388 
Q 2069 388 2326 689 
Q 2584 991 2584 1609 
Q 2584 2291 2321 2609 
Q 2059 2928 1675 2928 
Q 1300 2928 1048 2622 
Q 797 2316 797 1656 
z
" transform="scale(0.015625)"/>
       <path id="ArialMT-73" d="M 197 991 
L 753 1078 
Q 800 744 1014 566 
Q 1228 388 1613 388 
Q 2000 388 2187 545 
Q 2375 703 2375 916 
Q 2375 1106 2209 1216 
Q 2094 1291 1634 1406 
Q 1016 1563 777 1677 
Q 538 1791 414 1992 
Q 291 2194 291 2438 
Q 291 2659 392 2848 
Q 494 3038 669 3163 
Q 800 3259 1026 3326 
Q 1253 3394 1513 3394 
Q 1903 3394 2198 3281 
Q 2494 3169 2634 2976 
Q 2775 2784 2828 2463 
L 2278 2388 
Q 2241 2644 2061 2787 
Q 1881 2931 1553 2931 
Q 1166 2931 1000 2803 
Q 834 2675 834 2503 
Q 834 2394 903 2306 
Q 972 2216 1119 2156 
Q 1203 2125 1616 2013 
Q 2213 1853 2448 1751 
Q 2684 1650 2818 1456 
Q 2953 1263 2953 975 
Q 2953 694 2789 445 
Q 2625 197 2315 61 
Q 2006 -75 1616 -75 
Q 969 -75 630 194 
Q 291 463 197 991 
z
" transform="scale(0.015625)"/>
       <path id="ArialMT-68" d="M 422 0 
L 422 4581 
L 984 4581 
L 984 2938 
Q 1378 3394 1978 3394 
Q 2347 3394 2619 3248 
Q 2891 3103 3008 2847 
Q 3125 2591 3125 2103 
L 3125 0 
L 2563 0 
L 2563 2103 
Q 2563 2525 2380 2717 
Q 2197 2909 1863 2909 
Q 1613 2909 1392 2779 
Q 1172 2650 1078 2428 
Q 984 2206 984 1816 
L 984 0 
L 422 0 
z
" transform="scale(0.015625)"/>
       <path id="ArialMT-20" transform="scale(0.015625)"/>
       <path id="ArialMT-75" d="M 2597 0 
L 2597 488 
Q 2209 -75 1544 -75 
Q 1250 -75 995 37 
Q 741 150 617 320 
Q 494 491 444 738 
Q 409 903 409 1263 
L 409 3319 
L 972 3319 
L 972 1478 
Q 972 1038 1006 884 
Q 1059 663 1231 536 
Q 1403 409 1656 409 
Q 1909 409 2131 539 
Q 2353 669 2445 892 
Q 2538 1116 2538 1541 
L 2538 3319 
L 3100 3319 
L 3100 0 
L 2597 0 
z
" transform="scale(0.015625)"/>
       <path id="ArialMT-72" d="M 416 0 
L 416 3319 
L 922 3319 
L 922 2816 
Q 1116 3169 1280 3281 
Q 1444 3394 1641 3394 
Q 1925 3394 2219 3213 
L 2025 2691 
Q 1819 2813 1613 2813 
Q 1428 2813 1281 2702 
Q 1134 2591 1072 2394 
Q 978 2094 978 1738 
L 978 0 
L 416 0 
z
" transform="scale(0.015625)"/>
       <path id="ArialMT-74" d="M 1650 503 
L 1731 6 
Q 1494 -44 1306 -44 
Q 1000 -44 831 53 
Q 663 150 594 308 
Q 525 466 525 972 
L 525 2881 
L 113 2881 
L 113 3319 
L 525 3319 
L 525 4141 
L 1084 4478 
L 1084 3319 
L 1650 3319 
L 1650 2881 
L 1084 2881 
L 1084 941 
Q 1084 700 1114 631 
Q 1144 563 1211 522 
Q 1278 481 1403 481 
Q 1497 481 1650 503 
z
" transform="scale(0.015625)"/>
       <path id="ArialMT-69" d="M 425 3934 
L 425 4581 
L 988 4581 
L 988 3934 
L 425 3934 
z
M 425 0 
L 425 3319 
L 988 3319 
L 988 0 
L 425 0 
z
" transform="scale(0.015625)"/>
       <path id="ArialMT-6f" d="M 213 1659 
Q 213 2581 725 3025 
Q 1153 3394 1769 3394 
Q 2453 3394 2887 2945 
Q 3322 2497 3322 1706 
Q 3322 1066 3130 698 
Q 2938 331 2570 128 
Q 2203 -75 1769 -75 
Q 1072 -75 642 372 
Q 213 819 213 1659 
z
M 791 1659 
Q 791 1022 1069 705 
Q 1347 388 1769 388 
Q 2188 388 2466 706 
Q 2744 1025 2744 1678 
Q 2744 2294 2464 2611 
Q 2184 2928 1769 2928 
Q 1347 2928 1069 2612 
Q 791 2297 791 1659 
z
" transform="scale(0.015625)"/>
       <path id="ArialMT-28" d="M 1497 -1347 
Q 1031 -759 709 28 
Q 388 816 388 1659 
Q 388 2403 628 3084 
Q 909 3875 1497 4659 
L 1900 4659 
Q 1522 4009 1400 3731 
Q 1209 3300 1100 2831 
Q 966 2247 966 1656 
Q 966 153 1900 -1347 
L 1497 -1347 
z
" transform="scale(0.015625)"/>
       <path id="ArialMT-29" d="M 791 -1347 
L 388 -1347 
Q 1322 153 1322 1656 
Q 1322 2244 1188 2822 
Q 1081 3291 891 3722 
Q 769 4003 388 4659 
L 791 4659 
Q 1378 3875 1659 3084 
Q 1900 2403 1900 1659 
Q 1900 816 1576 28 
Q 1253 -759 791 -1347 
z
" transform="scale(0.015625)"/>
      </defs>
      <use xlink:href="#ArialMT-48"/>
      <use xlink:href="#ArialMT-61" x="72.216797"/>
      <use xlink:href="#ArialMT-6e" x="127.832031"/>
      <use xlink:href="#ArialMT-64" x="183.447266"/>
      <use xlink:href="#ArialMT-73" x="239.0625"/>
      <use xlink:href="#ArialMT-68" x="289.0625"/>
      <use xlink:href="#ArialMT-61" x="344.677734"/>
      <use xlink:href="#ArialMT-6b" x="400.292969"/>
      <use xlink:href="#ArialMT-65" x="450.292969"/>
      <use xlink:href="#ArialMT-20" x="505.908203"/>
      <use xlink:href="#ArialMT-64" x="533.691406"/>
      <use xlink:href="#ArialMT-75" x="589.306641"/>
      <use xlink:href="#ArialMT-72" x="644.921875"/>
      <use xlink:href="#ArialMT-61" x="678.222656"/>
      <use xlink:href="#ArialMT-74" x="733.837891"/>
      <use xlink:href="#ArialMT-69" x="761.621094"/>
      <use xlink:href="#ArialMT-6f" x="783.837891"/>
      <use xlink:href="#ArialMT-6e" x="839.453125"/>
      <use xlink:href="#ArialMT-20" x="895.068359"/>
      <use xlink:href="#ArialMT-28" x="922.851562"/>
      <use xlink:href="#ArialMT-6d" x="956.152344"/>
      <use xlink:href="#ArialMT-73" x="1039.453125"/>
      <use xlink:href="#ArialMT-29" x="1089.453125"/>
     </g>
    </g>
   </g>
   <g id="PolyCollection_1">
    <defs>
     <path id="m22949a1e68" d="M 184.280027 -115.390014 
L 182.584348 -115.390014 
L 182.066276 -116.887792 
L 181.297277 -118.38557 
L 180.193239 -119.883347 
L 178.659932 -121.381125 
L 176.599793 -122.878903 
L 173.921964 -124.376681 
L 170.555097 -125.874459 
L 166.461716 -127.372237 
L 161.652294 -128.870014 
L 156.196762 -130.367792 
L 150.231046 -131.86557 
L 143.956588 -133.363348 
L 137.631552 -134.861126 
L 131.55358 -136.358903 
L 126.035331 -137.856681 
L 121.375384 -139.354459 
L 117.828226 -140.852237 
L 115.57756 -142.350015 
L 114.717059 -143.847793 
L 115.241663 -145.34557 
L 117.050879 -146.843348 
L 119.963464 -148.341126 
L 123.740879 -149.838904 
L 128.115451 -151.336682 
L 132.818603 -152.83446 
L 137.604947 -154.332237 
L 142.269324 -155.830015 
L 146.655572 -157.327793 
L 150.657499 -158.825571 
L 154.213826 -160.323349 
L 157.299442 -161.821127 
L 159.915354 -163.318904 
L 162.079239 -164.816682 
L 163.817857 -166.31446 
L 165.161937 -167.812238 
L 166.143587 -169.310016 
L 166.795871 -170.807794 
L 167.153845 -172.305571 
L 167.256193 -173.803349 
L 167.146498 -175.301127 
L 166.873386 -176.798905 
L 166.489115 -178.296683 
L 166.046735 -179.794461 
L 165.596418 -181.292238 
L 165.181923 -182.790016 
L 164.838141 -184.287794 
L 164.590321 -185.785572 
L 164.455022 -187.28335 
L 164.442223 -188.781128 
L 164.557663 -190.278905 
L 164.804485 -191.776683 
L 165.1836 -193.274461 
L 165.692775 -194.772239 
L 166.325042 -196.270017 
L 167.067305 -197.767795 
L 167.900022 -199.265572 
L 168.798392 -200.76335 
L 169.73493 -202.261128 
L 170.682744 -203.758906 
L 171.618583 -205.256684 
L 172.524774 -206.754462 
L 173.389615 -208.252239 
L 174.206288 -209.750017 
L 174.970872 -211.247795 
L 175.680265 -212.745573 
L 176.33077 -214.243351 
L 176.917786 -215.741129 
L 177.436608 -217.238906 
L 177.883955 -218.736684 
L 178.25963 -220.234462 
L 178.567687 -221.73224 
L 178.816698 -223.230018 
L 179.018981 -224.727795 
L 179.188967 -226.225573 
L 179.341147 -227.723351 
L 179.488089 -229.221129 
L 179.639028 -230.718907 
L 179.799294 -232.216685 
L 179.970656 -233.714462 
L 180.152345 -235.21224 
L 180.342406 -236.710018 
L 180.538937 -238.207796 
L 180.74086 -239.705574 
L 180.948076 -241.203352 
L 181.161035 -242.701129 
L 181.379963 -244.198907 
L 181.604065 -245.696685 
L 181.830991 -247.194463 
L 182.056761 -248.692241 
L 182.276146 -250.190019 
L 182.483401 -251.687796 
L 182.673136 -253.185574 
L 182.841092 -254.683352 
L 182.984663 -256.18113 
L 183.103085 -257.678908 
L 183.197301 -259.176686 
L 183.269589 -260.674463 
L 183.323076 -262.172241 
L 183.361244 -263.670019 
L 183.503131 -263.670019 
L 183.503131 -263.670019 
L 183.541299 -262.172241 
L 183.594786 -260.674463 
L 183.667074 -259.176686 
L 183.76129 -257.678908 
L 183.879712 -256.18113 
L 184.023283 -254.683352 
L 184.191239 -253.185574 
L 184.380974 -251.687796 
L 184.588229 -250.190019 
L 184.807614 -248.692241 
L 185.033384 -247.194463 
L 185.26031 -245.696685 
L 185.484412 -244.198907 
L 185.70334 -242.701129 
L 185.916299 -241.203352 
L 186.123515 -239.705574 
L 186.325438 -238.207796 
L 186.521969 -236.710018 
L 186.71203 -235.21224 
L 186.893719 -233.714462 
L 187.065081 -232.216685 
L 187.225347 -230.718907 
L 187.376286 -229.221129 
L 187.523228 -227.723351 
L 187.675408 -226.225573 
L 187.845394 -224.727795 
L 188.047677 -223.230018 
L 188.296688 -221.73224 
L 188.604745 -220.234462 
L 188.98042 -218.736684 
L 189.427767 -217.238906 
L 189.946589 -215.741129 
L 190.533605 -214.243351 
L 191.18411 -212.745573 
L 191.893503 -211.247795 
L 192.658087 -209.750017 
L 193.47476 -208.252239 
L 194.339601 -206.754462 
L 195.245792 -205.256684 
L 196.181631 -203.758906 
L 197.129445 -202.261128 
L 198.065983 -200.76335 
L 198.964353 -199.265572 
L 199.79707 -197.767795 
L 200.539333 -196.270017 
L 201.1716 -194.772239 
L 201.680775 -193.274461 
L 202.05989 -191.776683 
L 202.306712 -190.278905 
L 202.422152 -188.781128 
L 202.409353 -187.28335 
L 202.274054 -185.785572 
L 202.026234 -184.287794 
L 201.682452 -182.790016 
L 201.267957 -181.292238 
L 200.81764 -179.794461 
L 200.37526 -178.296683 
L 199.990989 -176.798905 
L 199.717877 -175.301127 
L 199.608182 -173.803349 
L 199.71053 -172.305571 
L 200.068504 -170.807794 
L 200.720788 -169.310016 
L 201.702438 -167.812238 
L 203.046518 -166.31446 
L 204.785136 -164.816682 
L 206.949021 -163.318904 
L 209.564933 -161.821127 
L 212.650549 -160.323349 
L 216.206876 -158.825571 
L 220.208803 -157.327793 
L 224.595051 -155.830015 
L 229.259428 -154.332237 
L 234.045772 -152.83446 
L 238.748924 -151.336682 
L 243.123496 -149.838904 
L 246.900911 -148.341126 
L 249.813496 -146.843348 
L 251.622712 -145.34557 
L 252.147316 -143.847793 
L 251.286815 -142.350015 
L 249.036149 -140.852237 
L 245.488991 -139.354459 
L 240.829044 -137.856681 
L 235.310795 -136.358903 
L 229.232823 -134.861126 
L 222.907787 -133.363348 
L 216.633329 -131.86557 
L 210.667613 -130.367792 
L 205.212081 -128.870014 
L 200.402659 -127.372237 
L 196.309278 -125.874459 
L 192.942411 -124.376681 
L 190.264582 -122.878903 
L 188.204443 -121.381125 
L 186.671136 -119.883347 
L 185.567098 -118.38557 
L 184.798099 -116.887792 
L 184.280027 -115.390014 
z
" style="stroke: #595959; stroke-width: 1.5"/>
    </defs>
    <g clip-path="url(#p0e4a2ffcad)">
     <use xlink:href="#m22949a1e68" x="0" y="432" style="fill: #72b6a1; stroke: #595959; stroke-width: 1.5"/>
    </g>
   </g>
   <g id="PolyCollection_2">
    <defs>
     <path id="m74becda86d" d="M 450.991469 -172.886482 
L 449.959156 -172.886482 
L 449.619376 -175.055102 
L 449.105193 -177.223722 
L 448.356726 -179.392342 
L 447.308476 -181.560962 
L 445.895796 -183.729582 
L 444.063978 -185.898202 
L 441.779201 -188.066822 
L 439.03987 -190.235442 
L 435.886357 -192.404062 
L 432.406825 -194.572682 
L 428.737029 -196.741302 
L 425.05264 -198.909922 
L 421.553903 -201.078542 
L 418.443937 -203.247161 
L 415.903648 -205.415781 
L 414.067429 -207.584401 
L 413.004303 -209.753021 
L 412.70855 -211.921641 
L 413.102179 -214.090261 
L 414.049177 -216.258881 
L 415.378856 -218.427501 
L 416.913535 -220.596121 
L 418.494877 -222.764741 
L 420.003644 -224.933361 
L 421.369447 -227.101981 
L 422.569594 -229.270601 
L 423.618816 -231.439221 
L 424.553582 -233.607841 
L 425.415588 -235.776461 
L 426.238464 -237.945081 
L 427.040284 -240.113701 
L 427.822397 -242.282321 
L 428.57331 -244.450941 
L 429.27518 -246.619561 
L 429.910314 -248.788181 
L 430.465709 -250.956801 
L 430.934856 -253.125421 
L 431.317145 -255.29404 
L 431.61604 -257.46266 
L 431.837368 -259.63128 
L 431.988724 -261.7999 
L 432.080348 -263.96852 
L 432.12702 -266.13714 
L 432.150002 -268.30576 
L 432.177897 -270.47438 
L 432.245537 -272.643 
L 432.390698 -274.81162 
L 432.649153 -276.98024 
L 433.049242 -279.14886 
L 433.607323 -281.31748 
L 434.325215 -283.4861 
L 435.190146 -285.65472 
L 436.176941 -287.82334 
L 437.251662 -289.99196 
L 438.375747 -292.16058 
L 439.509863 -294.3292 
L 440.61707 -296.49782 
L 441.665275 -298.66644 
L 442.629096 -300.83506 
L 443.491243 -303.00368 
L 444.243373 -305.1723 
L 444.886259 -307.340919 
L 445.429059 -309.509539 
L 445.887629 -311.678159 
L 446.28196 -313.846779 
L 446.633065 -316.015399 
L 446.959786 -318.184019 
L 447.276062 -320.352639 
L 447.589159 -322.521259 
L 447.899236 -324.689879 
L 448.200337 -326.858499 
L 448.482604 -329.027119 
L 448.735209 -331.195739 
L 448.9493 -333.364359 
L 449.120266 -335.532979 
L 449.248787 -337.701599 
L 449.340487 -339.870219 
L 449.404416 -342.038839 
L 449.450857 -344.207459 
L 449.489145 -346.376079 
L 449.526092 -348.544699 
L 449.565359 -350.713319 
L 449.607809 -352.881939 
L 449.652561 -355.050559 
L 449.698272 -357.219179 
L 449.744201 -359.387798 
L 449.790709 -361.556418 
L 449.839132 -363.725038 
L 449.891157 -365.893658 
L 449.94802 -368.062278 
L 450.009856 -370.230898 
L 450.075422 -372.399518 
L 450.142281 -374.568138 
L 450.207327 -376.736758 
L 450.267468 -378.905378 
L 450.320232 -381.073998 
L 450.364148 -383.242618 
L 450.398837 -385.411238 
L 450.424856 -387.579858 
L 450.525769 -387.579858 
L 450.525769 -387.579858 
L 450.551788 -385.411238 
L 450.586477 -383.242618 
L 450.630393 -381.073998 
L 450.683157 -378.905378 
L 450.743298 -376.736758 
L 450.808344 -374.568138 
L 450.875203 -372.399518 
L 450.940769 -370.230898 
L 451.002605 -368.062278 
L 451.059468 -365.893658 
L 451.111493 -363.725038 
L 451.159916 -361.556418 
L 451.206424 -359.387798 
L 451.252353 -357.219179 
L 451.298064 -355.050559 
L 451.342816 -352.881939 
L 451.385266 -350.713319 
L 451.424533 -348.544699 
L 451.46148 -346.376079 
L 451.499768 -344.207459 
L 451.546209 -342.038839 
L 451.610138 -339.870219 
L 451.701838 -337.701599 
L 451.830359 -335.532979 
L 452.001325 -333.364359 
L 452.215416 -331.195739 
L 452.468021 -329.027119 
L 452.750288 -326.858499 
L 453.051389 -324.689879 
L 453.361466 -322.521259 
L 453.674563 -320.352639 
L 453.990839 -318.184019 
L 454.31756 -316.015399 
L 454.668665 -313.846779 
L 455.062996 -311.678159 
L 455.521566 -309.509539 
L 456.064366 -307.340919 
L 456.707252 -305.1723 
L 457.459382 -303.00368 
L 458.321529 -300.83506 
L 459.28535 -298.66644 
L 460.333555 -296.49782 
L 461.440762 -294.3292 
L 462.574878 -292.16058 
L 463.698963 -289.99196 
L 464.773684 -287.82334 
L 465.760479 -285.65472 
L 466.62541 -283.4861 
L 467.343302 -281.31748 
L 467.901383 -279.14886 
L 468.301472 -276.98024 
L 468.559927 -274.81162 
L 468.705088 -272.643 
L 468.772728 -270.47438 
L 468.800623 -268.30576 
L 468.823605 -266.13714 
L 468.870277 -263.96852 
L 468.961901 -261.7999 
L 469.113257 -259.63128 
L 469.334585 -257.46266 
L 469.63348 -255.29404 
L 470.015769 -253.125421 
L 470.484916 -250.956801 
L 471.040311 -248.788181 
L 471.675445 -246.619561 
L 472.377315 -244.450941 
L 473.128228 -242.282321 
L 473.910341 -240.113701 
L 474.712161 -237.945081 
L 475.535037 -235.776461 
L 476.397043 -233.607841 
L 477.331809 -231.439221 
L 478.381031 -229.270601 
L 479.581178 -227.101981 
L 480.946981 -224.933361 
L 482.455748 -222.764741 
L 484.03709 -220.596121 
L 485.571769 -218.427501 
L 486.901448 -216.258881 
L 487.848446 -214.090261 
L 488.242075 -211.921641 
L 487.946322 -209.753021 
L 486.883196 -207.584401 
L 485.046977 -205.415781 
L 482.506688 -203.247161 
L 479.396722 -201.078542 
L 475.897985 -198.909922 
L 472.213596 -196.741302 
L 468.5438 -194.572682 
L 465.064268 -192.404062 
L 461.910755 -190.235442 
L 459.171424 -188.066822 
L 456.886647 -185.898202 
L 455.054829 -183.729582 
L 453.642149 -181.560962 
L 452.593899 -179.392342 
L 451.845432 -177.223722 
L 451.331249 -175.055102 
L 450.991469 -172.886482 
z
" style="stroke: #595959; stroke-width: 1.5"/>
    </defs>
    <g clip-path="url(#p0e4a2ffcad)">
     <use xlink:href="#m74becda86d" x="0" y="432" style="fill: #e99675; stroke: #595959; stroke-width: 1.5"/>
    </g>
   </g>
   <g id="PolyCollection_3">
    <defs>
     <path id="m481af61d06" d="M 719.446702 -52.189517 
L 715.590173 -52.189517 
L 714.237527 -53.192193 
L 712.1597 -54.194868 
L 709.111585 -55.197543 
L 704.84223 -56.200219 
L 699.134779 -57.202894 
L 691.856937 -58.20557 
L 683.013704 -59.208245 
L 672.790609 -60.210921 
L 661.574731 -61.213596 
L 649.943478 -62.216272 
L 638.617141 -63.218947 
L 628.379349 -64.221623 
L 619.97744 -65.224298 
L 614.020271 -66.226974 
L 610.892441 -67.229649 
L 610.701188 -68.232325 
L 613.265816 -69.235 
L 618.151229 -70.237676 
L 624.738636 -71.240351 
L 632.319598 -72.243026 
L 640.195687 -73.245702 
L 647.765906 -74.248377 
L 654.58765 -75.251053 
L 660.40358 -76.253728 
L 665.134458 -77.256404 
L 668.844984 -78.259079 
L 671.694106 -79.261755 
L 673.882359 -80.26443 
L 675.606771 -81.267106 
L 677.029783 -82.269781 
L 678.264119 -83.272457 
L 679.37181 -84.275132 
L 680.373462 -85.277808 
L 681.263243 -86.280483 
L 682.025461 -87.283158 
L 682.649455 -88.285834 
L 683.140273 -89.288509 
L 683.523447 -90.291185 
L 683.843151 -91.29386 
L 684.15443 -92.296536 
L 684.511732 -93.299211 
L 684.957266 -94.301887 
L 685.512982 -95.304562 
L 686.178921 -96.307238 
L 686.938478 -97.309913 
L 687.768543 -98.312589 
L 688.650626 -99.315264 
L 689.578697 -100.31794 
L 690.560891 -101.320615 
L 691.614683 -102.323291 
L 692.757791 -103.325966 
L 693.998574 -104.328641 
L 695.329725 -105.331317 
L 696.727521 -106.333992 
L 698.156644 -107.336668 
L 699.578492 -108.339343 
L 700.959838 -109.342019 
L 702.278892 -110.344694 
L 703.527153 -111.34737 
L 704.707129 -112.350045 
L 705.827485 -113.352721 
L 706.89776 -114.355396 
L 707.9245 -115.358072 
L 708.909728 -116.360747 
L 709.851532 -117.363423 
L 710.745852 -118.366098 
L 711.588356 -119.368774 
L 712.375616 -120.371449 
L 713.105394 -121.374124 
L 713.776295 -122.3768 
L 714.387276 -123.379475 
L 714.93738 -124.382151 
L 715.425823 -125.384826 
L 715.85233 -126.387502 
L 716.217497 -127.390177 
L 716.523001 -128.392853 
L 716.771577 -129.395528 
L 716.966821 -130.398204 
L 717.1129 -131.400879 
L 717.214298 -132.403555 
L 717.275681 -133.40623 
L 717.301938 -134.408906 
L 717.298391 -135.411581 
L 717.271099 -136.414257 
L 717.227111 -137.416932 
L 717.174479 -138.419607 
L 717.12188 -139.422283 
L 717.077807 -140.424958 
L 717.049469 -141.427634 
L 717.041671 -142.430309 
L 717.056039 -143.432985 
L 717.09084 -144.43566 
L 717.141516 -145.438336 
L 717.201762 -146.441011 
L 717.264862 -147.443687 
L 717.324922 -148.446362 
L 717.377691 -149.449038 
L 717.420878 -150.451713 
L 717.45399 -151.454389 
L 717.582885 -151.454389 
L 717.582885 -151.454389 
L 717.615997 -150.451713 
L 717.659184 -149.449038 
L 717.711953 -148.446362 
L 717.772013 -147.443687 
L 717.835113 -146.441011 
L 717.895359 -145.438336 
L 717.946035 -144.43566 
L 717.980836 -143.432985 
L 717.995204 -142.430309 
L 717.987406 -141.427634 
L 717.959068 -140.424958 
L 717.914995 -139.422283 
L 717.862396 -138.419607 
L 717.809764 -137.416932 
L 717.765776 -136.414257 
L 717.738484 -135.411581 
L 717.734937 -134.408906 
L 717.761194 -133.40623 
L 717.822577 -132.403555 
L 717.923975 -131.400879 
L 718.070054 -130.398204 
L 718.265298 -129.395528 
L 718.513874 -128.392853 
L 718.819378 -127.390177 
L 719.184545 -126.387502 
L 719.611052 -125.384826 
L 720.099495 -124.382151 
L 720.649599 -123.379475 
L 721.26058 -122.3768 
L 721.931481 -121.374124 
L 722.661259 -120.371449 
L 723.448519 -119.368774 
L 724.291023 -118.366098 
L 725.185343 -117.363423 
L 726.127147 -116.360747 
L 727.112375 -115.358072 
L 728.139115 -114.355396 
L 729.20939 -113.352721 
L 730.329746 -112.350045 
L 731.509722 -111.34737 
L 732.757983 -110.344694 
L 734.077037 -109.342019 
L 735.458383 -108.339343 
L 736.880231 -107.336668 
L 738.309354 -106.333992 
L 739.70715 -105.331317 
L 741.038301 -104.328641 
L 742.279084 -103.325966 
L 743.422192 -102.323291 
L 744.475984 -101.320615 
L 745.458178 -100.31794 
L 746.386249 -99.315264 
L 747.268332 -98.312589 
L 748.098397 -97.309913 
L 748.857954 -96.307238 
L 749.523893 -95.304562 
L 750.079609 -94.301887 
L 750.525143 -93.299211 
L 750.882445 -92.296536 
L 751.193724 -91.29386 
L 751.513428 -90.291185 
L 751.896602 -89.288509 
L 752.38742 -88.285834 
L 753.011414 -87.283158 
L 753.773632 -86.280483 
L 754.663413 -85.277808 
L 755.665065 -84.275132 
L 756.772756 -83.272457 
L 758.007092 -82.269781 
L 759.430104 -81.267106 
L 761.154516 -80.26443 
L 763.342769 -79.261755 
L 766.191891 -78.259079 
L 769.902417 -77.256404 
L 774.633295 -76.253728 
L 780.449225 -75.251053 
L 787.270969 -74.248377 
L 794.841188 -73.245702 
L 802.717277 -72.243026 
L 810.298239 -71.240351 
L 816.885646 -70.237676 
L 821.771059 -69.235 
L 824.335687 -68.232325 
L 824.144434 -67.229649 
L 821.016604 -66.226974 
L 815.059435 -65.224298 
L 806.657526 -64.221623 
L 796.419734 -63.218947 
L 785.093397 -62.216272 
L 773.462144 -61.213596 
L 762.246266 -60.210921 
L 752.023171 -59.208245 
L 743.179938 -58.20557 
L 735.902096 -57.202894 
L 730.194645 -56.200219 
L 725.92529 -55.197543 
L 722.877175 -54.194868 
L 720.799348 -53.192193 
L 719.446702 -52.189517 
z
" style="stroke: #595959; stroke-width: 1.5"/>
    </defs>
    <g clip-path="url(#p0e4a2ffcad)">
     <use xlink:href="#m481af61d06" x="0" y="432" style="fill: #95a3c3; stroke: #595959; stroke-width: 1.5"/>
    </g>
   </g>
   <g id="line2d_6">
    <path d="M 183.432187 289.855263 
L 183.432187 301.077606 
" clip-path="url(#p0e4a2ffcad)" style="fill: none; stroke: #000000; stroke-width: 1.5; stroke-linecap: round"/>
   </g>
   <g id="line2d_7">
    <path d="M 183.432187 252.009899 
L 183.432187 196.656202 
" clip-path="url(#p0e4a2ffcad)" style="fill: none; stroke: #000000; stroke-width: 1.5; stroke-linecap: round"/>
   </g>
   <g id="line2d_8">
    <path d="M 173.41807 301.077606 
L 193.446305 301.077606 
" clip-path="url(#p0e4a2ffcad)" style="fill: none; stroke: #000000; stroke-width: 1.5; stroke-linecap: round"/>
   </g>
   <g id="line2d_9">
    <path d="M 173.41807 196.656202 
L 193.446305 196.656202 
" clip-path="url(#p0e4a2ffcad)" style="fill: none; stroke: #000000; stroke-width: 1.5; stroke-linecap: round"/>
   </g>
   <g id="line2d_10">
    <path d="M 450.475312 220.61692 
L 450.475312 238.439554 
" clip-path="url(#p0e4a2ffcad)" style="fill: none; stroke: #000000; stroke-width: 1.5; stroke-linecap: round"/>
   </g>
   <g id="line2d_11">
    <path d="M 450.475312 165.965775 
L 450.475312 85.726947 
" clip-path="url(#p0e4a2ffcad)" style="fill: none; stroke: #000000; stroke-width: 1.5; stroke-linecap: round"/>
   </g>
   <g id="line2d_12">
    <path d="M 440.461195 238.439554 
L 460.48943 238.439554 
" clip-path="url(#p0e4a2ffcad)" style="fill: none; stroke: #000000; stroke-width: 1.5; stroke-linecap: round"/>
   </g>
   <g id="line2d_13">
    <path d="M 440.461195 85.726947 
L 460.48943 85.726947 
" clip-path="url(#p0e4a2ffcad)" style="fill: none; stroke: #000000; stroke-width: 1.5; stroke-linecap: round"/>
   </g>
   <g id="line2d_14">
    <path d="M 717.518437 364.898904 
L 717.518437 370.667225 
" clip-path="url(#p0e4a2ffcad)" style="fill: none; stroke: #000000; stroke-width: 1.5; stroke-linecap: round"/>
   </g>
   <g id="line2d_15">
    <path d="M 717.518437 342.694565 
L 717.518437 310.173805 
" clip-path="url(#p0e4a2ffcad)" style="fill: none; stroke: #000000; stroke-width: 1.5; stroke-linecap: round"/>
   </g>
   <g id="line2d_16">
    <path d="M 707.50432 370.667225 
L 727.532555 370.667225 
" clip-path="url(#p0e4a2ffcad)" style="fill: none; stroke: #000000; stroke-width: 1.5; stroke-linecap: round"/>
   </g>
   <g id="line2d_17">
    <path d="M 707.50432 310.173805 
L 727.532555 310.173805 
" clip-path="url(#p0e4a2ffcad)" style="fill: none; stroke: #000000; stroke-width: 1.5; stroke-linecap: round"/>
   </g>
   <g id="line2d_18">
    <path d="M 163.403953 282.774279 
L 203.460422 282.774279 
" clip-path="url(#p0e4a2ffcad)" style="fill: none; stroke: #ff0000; stroke-width: 2"/>
   </g>
   <g id="line2d_19">
    <path d="M 430.447078 198.135258 
L 470.503547 198.135258 
" clip-path="url(#p0e4a2ffcad)" style="fill: none; stroke: #ff0000; stroke-width: 2"/>
   </g>
   <g id="line2d_20">
    <path d="M 697.490203 359.611276 
L 737.546672 359.611276 
" clip-path="url(#p0e4a2ffcad)" style="fill: none; stroke: #ff0000; stroke-width: 2"/>
   </g>
   <g id="patch_3">
    <path d="M 49.910625 396.58 
L 49.910625 27.650625 
" style="fill: none; stroke: #cccccc; stroke-width: 1.25; stroke-linejoin: miter; stroke-linecap: square"/>
   </g>
   <g id="patch_4">
    <path d="M 851.04 396.58 
L 851.04 27.650625 
" style="fill: none; stroke: #cccccc; stroke-width: 1.25; stroke-linejoin: miter; stroke-linecap: square"/>
   </g>
   <g id="patch_5">
    <path d="M 49.910625 396.58 
L 851.04 396.58 
" style="fill: none; stroke: #cccccc; stroke-width: 1.25; stroke-linejoin: miter; stroke-linecap: square"/>
   </g>
   <g id="patch_6">
    <path d="M 49.910625 27.650625 
L 851.04 27.650625 
" style="fill: none; stroke: #cccccc; stroke-width: 1.25; stroke-linejoin: miter; stroke-linecap: square"/>
   </g>
   <g id="text_10">
    <!-- Handshake duration on TLS with secp521r1 signature algorithm -->
    <g style="fill: #262626" transform="translate(281.16 21.650625) scale(0.12 -0.12)">
     <defs>
      <path id="ArialMT-54" d="M 1659 0 
L 1659 4041 
L 150 4041 
L 150 4581 
L 3781 4581 
L 3781 4041 
L 2266 4041 
L 2266 0 
L 1659 0 
z
" transform="scale(0.015625)"/>
      <path id="ArialMT-4c" d="M 469 0 
L 469 4581 
L 1075 4581 
L 1075 541 
L 3331 541 
L 3331 0 
L 469 0 
z
" transform="scale(0.015625)"/>
      <path id="ArialMT-53" d="M 288 1472 
L 859 1522 
Q 900 1178 1048 958 
Q 1197 738 1509 602 
Q 1822 466 2213 466 
Q 2559 466 2825 569 
Q 3091 672 3220 851 
Q 3350 1031 3350 1244 
Q 3350 1459 3225 1620 
Q 3100 1781 2813 1891 
Q 2628 1963 1997 2114 
Q 1366 2266 1113 2400 
Q 784 2572 623 2826 
Q 463 3081 463 3397 
Q 463 3744 659 4045 
Q 856 4347 1234 4503 
Q 1613 4659 2075 4659 
Q 2584 4659 2973 4495 
Q 3363 4331 3572 4012 
Q 3781 3694 3797 3291 
L 3216 3247 
Q 3169 3681 2898 3903 
Q 2628 4125 2100 4125 
Q 1550 4125 1298 3923 
Q 1047 3722 1047 3438 
Q 1047 3191 1225 3031 
Q 1400 2872 2139 2705 
Q 2878 2538 3153 2413 
Q 3553 2228 3743 1945 
Q 3934 1663 3934 1294 
Q 3934 928 3725 604 
Q 3516 281 3123 101 
Q 2731 -78 2241 -78 
Q 1619 -78 1198 103 
Q 778 284 539 648 
Q 300 1013 288 1472 
z
" transform="scale(0.015625)"/>
      <path id="ArialMT-77" d="M 1034 0 
L 19 3319 
L 600 3319 
L 1128 1403 
L 1325 691 
Q 1338 744 1497 1375 
L 2025 3319 
L 2603 3319 
L 3100 1394 
L 3266 759 
L 3456 1400 
L 4025 3319 
L 4572 3319 
L 3534 0 
L 2950 0 
L 2422 1988 
L 2294 2553 
L 1622 0 
L 1034 0 
z
" transform="scale(0.015625)"/>
      <path id="ArialMT-63" d="M 2588 1216 
L 3141 1144 
Q 3050 572 2676 248 
Q 2303 -75 1759 -75 
Q 1078 -75 664 370 
Q 250 816 250 1647 
Q 250 2184 428 2587 
Q 606 2991 970 3192 
Q 1334 3394 1763 3394 
Q 2303 3394 2647 3120 
Q 2991 2847 3088 2344 
L 2541 2259 
Q 2463 2594 2264 2762 
Q 2066 2931 1784 2931 
Q 1359 2931 1093 2626 
Q 828 2322 828 1663 
Q 828 994 1084 691 
Q 1341 388 1753 388 
Q 2084 388 2306 591 
Q 2528 794 2588 1216 
z
" transform="scale(0.015625)"/>
      <path id="ArialMT-67" d="M 319 -275 
L 866 -356 
Q 900 -609 1056 -725 
Q 1266 -881 1628 -881 
Q 2019 -881 2231 -725 
Q 2444 -569 2519 -288 
Q 2563 -116 2559 434 
Q 2191 0 1641 0 
Q 956 0 581 494 
Q 206 988 206 1678 
Q 206 2153 378 2554 
Q 550 2956 876 3175 
Q 1203 3394 1644 3394 
Q 2231 3394 2613 2919 
L 2613 3319 
L 3131 3319 
L 3131 450 
Q 3131 -325 2973 -648 
Q 2816 -972 2473 -1159 
Q 2131 -1347 1631 -1347 
Q 1038 -1347 672 -1080 
Q 306 -813 319 -275 
z
M 784 1719 
Q 784 1066 1043 766 
Q 1303 466 1694 466 
Q 2081 466 2343 764 
Q 2606 1063 2606 1700 
Q 2606 2309 2336 2618 
Q 2066 2928 1684 2928 
Q 1309 2928 1046 2623 
Q 784 2319 784 1719 
z
" transform="scale(0.015625)"/>
     </defs>
     <use xlink:href="#ArialMT-48"/>
     <use xlink:href="#ArialMT-61" x="72.216797"/>
     <use xlink:href="#ArialMT-6e" x="127.832031"/>
     <use xlink:href="#ArialMT-64" x="183.447266"/>
     <use xlink:href="#ArialMT-73" x="239.0625"/>
     <use xlink:href="#ArialMT-68" x="289.0625"/>
     <use xlink:href="#ArialMT-61" x="344.677734"/>
     <use xlink:href="#ArialMT-6b" x="400.292969"/>
     <use xlink:href="#ArialMT-65" x="450.292969"/>
     <use xlink:href="#ArialMT-20" x="505.908203"/>
     <use xlink:href="#ArialMT-64" x="533.691406"/>
     <use xlink:href="#ArialMT-75" x="589.306641"/>
     <use xlink:href="#ArialMT-72" x="644.921875"/>
     <use xlink:href="#ArialMT-61" x="678.222656"/>
     <use xlink:href="#ArialMT-74" x="733.837891"/>
     <use xlink:href="#ArialMT-69" x="761.621094"/>
     <use xlink:href="#ArialMT-6f" x="783.837891"/>
     <use xlink:href="#ArialMT-6e" x="839.453125"/>
     <use xlink:href="#ArialMT-20" x="895.068359"/>
     <use xlink:href="#ArialMT-6f" x="922.851562"/>
     <use xlink:href="#ArialMT-6e" x="978.466797"/>
     <use xlink:href="#ArialMT-20" x="1034.082031"/>
     <use xlink:href="#ArialMT-54" x="1060.115234"/>
     <use xlink:href="#ArialMT-4c" x="1121.199219"/>
     <use xlink:href="#ArialMT-53" x="1176.814453"/>
     <use xlink:href="#ArialMT-20" x="1243.513672"/>
     <use xlink:href="#ArialMT-77" x="1271.296875"/>
     <use xlink:href="#ArialMT-69" x="1343.513672"/>
     <use xlink:href="#ArialMT-74" x="1365.730469"/>
     <use xlink:href="#ArialMT-68" x="1393.513672"/>
     <use xlink:href="#ArialMT-20" x="1449.128906"/>
     <use xlink:href="#ArialMT-73" x="1476.912109"/>
     <use xlink:href="#ArialMT-65" x="1526.912109"/>
     <use xlink:href="#ArialMT-63" x="1582.527344"/>
     <use xlink:href="#ArialMT-70" x="1632.527344"/>
     <use xlink:href="#ArialMT-35" x="1688.142578"/>
     <use xlink:href="#ArialMT-32" x="1743.757812"/>
     <use xlink:href="#ArialMT-31" x="1799.373047"/>
     <use xlink:href="#ArialMT-72" x="1854.988281"/>
     <use xlink:href="#ArialMT-31" x="1888.289062"/>
     <use xlink:href="#ArialMT-20" x="1943.904297"/>
     <use xlink:href="#ArialMT-73" x="1971.6875"/>
     <use xlink:href="#ArialMT-69" x="2021.6875"/>
     <use xlink:href="#ArialMT-67" x="2043.904297"/>
     <use xlink:href="#ArialMT-6e" x="2099.519531"/>
     <use xlink:href="#ArialMT-61" x="2155.134766"/>
     <use xlink:href="#ArialMT-74" x="2210.75"/>
     <use xlink:href="#ArialMT-75" x="2238.533203"/>
     <use xlink:href="#ArialMT-72" x="2294.148438"/>
     <use xlink:href="#ArialMT-65" x="2327.449219"/>
     <use xlink:href="#ArialMT-20" x="2383.064453"/>
     <use xlink:href="#ArialMT-61" x="2410.847656"/>
     <use xlink:href="#ArialMT-6c" x="2466.462891"/>
     <use xlink:href="#ArialMT-67" x="2488.679688"/>
     <use xlink:href="#ArialMT-6f" x="2544.294922"/>
     <use xlink:href="#ArialMT-72" x="2599.910156"/>
     <use xlink:href="#ArialMT-69" x="2633.210938"/>
     <use xlink:href="#ArialMT-74" x="2655.427734"/>
     <use xlink:href="#ArialMT-68" x="2683.210938"/>
     <use xlink:href="#ArialMT-6d" x="2738.826172"/>
    </g>
   </g>
  </g>
 </g>
 <defs>
  <clipPath id="p0e4a2ffcad">
   <rect x="49.910625" y="27.650625" width="801.129375" height="368.929375"/>
  </clipPath>
 </defs>
</svg>
