<?xml version="1.0" encoding="utf-8" standalone="no"?>
<!DOCTYPE svg PUBLIC "-//W3C//DTD SVG 1.1//EN"
  "http://www.w3.org/Graphics/SVG/1.1/DTD/svg11.dtd">
<svg xmlns:xlink="http://www.w3.org/1999/xlink" width="864pt" height="432pt" viewBox="0 0 864 432" xmlns="http://www.w3.org/2000/svg" version="1.1">
 <metadata>
  <rdf:RDF xmlns:dc="http://purl.org/dc/elements/1.1/" xmlns:cc="http://creativecommons.org/ns#" xmlns:rdf="http://www.w3.org/1999/02/22-rdf-syntax-ns#">
   <cc:Work>
    <dc:type rdf:resource="http://purl.org/dc/dcmitype/StillImage"/>
    <dc:date>2025-05-11T15:46:35.195958</dc:date>
    <dc:format>image/svg+xml</dc:format>
    <dc:creator>
     <cc:Agent>
      <dc:title>Matplotlib v3.8.0, https://matplotlib.org/</dc:title>
     </cc:Agent>
    </dc:creator>
   </cc:Work>
  </rdf:RDF>
 </metadata>
 <defs>
  <style type="text/css">*{stroke-linejoin: round; stroke-linecap: butt}</style>
 </defs>
 <g id="figure_1">
  <g id="patch_1">
   <path d="M 0 432 
L 864 432 
L 864 0 
L 0 0 
z
" style="fill: #ffffff"/>
  </g>
  <g id="axes_1">
   <g id="patch_2">
    <path d="M 49.910625 396.58 
L 851.04 396.58 
L 851.04 27.650625 
L 49.910625 27.650625 
z
" style="fill: #ffffff"/>
   </g>
   <g id="matplotlib.axis_1">
    <g id="xtick_1">
     <g id="text_1">
      <!-- P-384 -->
      <g style="fill: #262626" transform="translate(111.345594 416.100937) scale(0.14 -0.14)">
       <defs>
        <path id="ArialMT-50" d="M 494 0 
L 494 4581 
L 2222 4581 
Q 2678 4581 2919 4538 
Q 3256 4481 3484 4323 
Q 3713 4166 3852 3881 
Q 3991 3597 3991 3256 
Q 3991 2672 3619 2267 
Q 3247 1863 2275 1863 
L 1100 1863 
L 1100 0 
L 494 0 
z
M 1100 2403 
L 2284 2403 
Q 2872 2403 3119 2622 
Q 3366 2841 3366 3238 
Q 3366 3525 3220 3729 
Q 3075 3934 2838 4000 
Q 2684 4041 2272 4041 
L 1100 4041 
L 1100 2403 
z
" transform="scale(0.015625)"/>
        <path id="ArialMT-2d" d="M 203 1375 
L 203 1941 
L 1931 1941 
L 1931 1375 
L 203 1375 
z
" transform="scale(0.015625)"/>
        <path id="ArialMT-33" d="M 269 1209 
L 831 1284 
Q 928 806 1161 595 
Q 1394 384 1728 384 
Q 2125 384 2398 659 
Q 2672 934 2672 1341 
Q 2672 1728 2419 1979 
Q 2166 2231 1775 2231 
Q 1616 2231 1378 2169 
L 1441 2663 
Q 1497 2656 1531 2656 
Q 1891 2656 2178 2843 
Q 2466 3031 2466 3422 
Q 2466 3731 2256 3934 
Q 2047 4138 1716 4138 
Q 1388 4138 1169 3931 
Q 950 3725 888 3313 
L 325 3413 
Q 428 3978 793 4289 
Q 1159 4600 1703 4600 
Q 2078 4600 2393 4439 
Q 2709 4278 2876 4000 
Q 3044 3722 3044 3409 
Q 3044 3113 2884 2869 
Q 2725 2625 2413 2481 
Q 2819 2388 3044 2092 
Q 3269 1797 3269 1353 
Q 3269 753 2831 336 
Q 2394 -81 1725 -81 
Q 1122 -81 723 278 
Q 325 638 269 1209 
z
" transform="scale(0.015625)"/>
        <path id="ArialMT-38" d="M 1131 2484 
Q 781 2613 612 2850 
Q 444 3088 444 3419 
Q 444 3919 803 4259 
Q 1163 4600 1759 4600 
Q 2359 4600 2725 4251 
Q 3091 3903 3091 3403 
Q 3091 3084 2923 2848 
Q 2756 2613 2416 2484 
Q 2838 2347 3058 2040 
Q 3278 1734 3278 1309 
Q 3278 722 2862 322 
Q 2447 -78 1769 -78 
Q 1091 -78 675 323 
Q 259 725 259 1325 
Q 259 1772 486 2073 
Q 713 2375 1131 2484 
z
M 1019 3438 
Q 1019 3113 1228 2906 
Q 1438 2700 1772 2700 
Q 2097 2700 2305 2904 
Q 2513 3109 2513 3406 
Q 2513 3716 2298 3927 
Q 2084 4138 1766 4138 
Q 1444 4138 1231 3931 
Q 1019 3725 1019 3438 
z
M 838 1322 
Q 838 1081 952 856 
Q 1066 631 1291 507 
Q 1516 384 1775 384 
Q 2178 384 2440 643 
Q 2703 903 2703 1303 
Q 2703 1709 2433 1975 
Q 2163 2241 1756 2241 
Q 1359 2241 1098 1978 
Q 838 1716 838 1322 
z
" transform="scale(0.015625)"/>
        <path id="ArialMT-34" d="M 2069 0 
L 2069 1097 
L 81 1097 
L 81 1613 
L 2172 4581 
L 2631 4581 
L 2631 1613 
L 3250 1613 
L 3250 1097 
L 2631 1097 
L 2631 0 
L 2069 0 
z
M 2069 1613 
L 2069 3678 
L 634 1613 
L 2069 1613 
z
" transform="scale(0.015625)"/>
       </defs>
       <use xlink:href="#ArialMT-50"/>
       <use xlink:href="#ArialMT-2d" x="66.699219"/>
       <use xlink:href="#ArialMT-33" x="100"/>
       <use xlink:href="#ArialMT-38" x="155.615234"/>
       <use xlink:href="#ArialMT-34" x="211.230469"/>
      </g>
     </g>
    </g>
    <g id="xtick_2">
     <g id="text_2">
      <!-- x448 -->
      <g style="fill: #262626" transform="translate(275.071469 416.100937) scale(0.14 -0.14)">
       <defs>
        <path id="ArialMT-78" d="M 47 0 
L 1259 1725 
L 138 3319 
L 841 3319 
L 1350 2541 
Q 1494 2319 1581 2169 
Q 1719 2375 1834 2534 
L 2394 3319 
L 3066 3319 
L 1919 1756 
L 3153 0 
L 2463 0 
L 1781 1031 
L 1600 1309 
L 728 0 
L 47 0 
z
" transform="scale(0.015625)"/>
       </defs>
       <use xlink:href="#ArialMT-78"/>
       <use xlink:href="#ArialMT-34" x="50"/>
       <use xlink:href="#ArialMT-34" x="105.615234"/>
       <use xlink:href="#ArialMT-38" x="161.230469"/>
      </g>
     </g>
    </g>
    <g id="xtick_3">
     <g id="text_3">
      <!-- p384_mlkem768 -->
      <g style="fill: #262626" transform="translate(398.724531 416.1425) scale(0.14 -0.14)">
       <defs>
        <path id="ArialMT-70" d="M 422 -1272 
L 422 3319 
L 934 3319 
L 934 2888 
Q 1116 3141 1344 3267 
Q 1572 3394 1897 3394 
Q 2322 3394 2647 3175 
Q 2972 2956 3137 2557 
Q 3303 2159 3303 1684 
Q 3303 1175 3120 767 
Q 2938 359 2589 142 
Q 2241 -75 1856 -75 
Q 1575 -75 1351 44 
Q 1128 163 984 344 
L 984 -1272 
L 422 -1272 
z
M 931 1641 
Q 931 1000 1190 694 
Q 1450 388 1819 388 
Q 2194 388 2461 705 
Q 2728 1022 2728 1688 
Q 2728 2322 2467 2637 
Q 2206 2953 1844 2953 
Q 1484 2953 1207 2617 
Q 931 2281 931 1641 
z
" transform="scale(0.015625)"/>
        <path id="ArialMT-5f" d="M -97 -1272 
L -97 -866 
L 3631 -866 
L 3631 -1272 
L -97 -1272 
z
" transform="scale(0.015625)"/>
        <path id="ArialMT-6d" d="M 422 0 
L 422 3319 
L 925 3319 
L 925 2853 
Q 1081 3097 1340 3245 
Q 1600 3394 1931 3394 
Q 2300 3394 2536 3241 
Q 2772 3088 2869 2813 
Q 3263 3394 3894 3394 
Q 4388 3394 4653 3120 
Q 4919 2847 4919 2278 
L 4919 0 
L 4359 0 
L 4359 2091 
Q 4359 2428 4304 2576 
Q 4250 2725 4106 2815 
Q 3963 2906 3769 2906 
Q 3419 2906 3187 2673 
Q 2956 2441 2956 1928 
L 2956 0 
L 2394 0 
L 2394 2156 
Q 2394 2531 2256 2718 
Q 2119 2906 1806 2906 
Q 1569 2906 1367 2781 
Q 1166 2656 1075 2415 
Q 984 2175 984 1722 
L 984 0 
L 422 0 
z
" transform="scale(0.015625)"/>
        <path id="ArialMT-6c" d="M 409 0 
L 409 4581 
L 972 4581 
L 972 0 
L 409 0 
z
" transform="scale(0.015625)"/>
        <path id="ArialMT-6b" d="M 425 0 
L 425 4581 
L 988 4581 
L 988 1969 
L 2319 3319 
L 3047 3319 
L 1778 2088 
L 3175 0 
L 2481 0 
L 1384 1697 
L 988 1316 
L 988 0 
L 425 0 
z
" transform="scale(0.015625)"/>
        <path id="ArialMT-65" d="M 2694 1069 
L 3275 997 
Q 3138 488 2766 206 
Q 2394 -75 1816 -75 
Q 1088 -75 661 373 
Q 234 822 234 1631 
Q 234 2469 665 2931 
Q 1097 3394 1784 3394 
Q 2450 3394 2872 2941 
Q 3294 2488 3294 1666 
Q 3294 1616 3291 1516 
L 816 1516 
Q 847 969 1125 678 
Q 1403 388 1819 388 
Q 2128 388 2347 550 
Q 2566 713 2694 1069 
z
M 847 1978 
L 2700 1978 
Q 2663 2397 2488 2606 
Q 2219 2931 1791 2931 
Q 1403 2931 1139 2672 
Q 875 2413 847 1978 
z
" transform="scale(0.015625)"/>
        <path id="ArialMT-37" d="M 303 3981 
L 303 4522 
L 3269 4522 
L 3269 4084 
Q 2831 3619 2401 2847 
Q 1972 2075 1738 1259 
Q 1569 684 1522 0 
L 944 0 
Q 953 541 1156 1306 
Q 1359 2072 1739 2783 
Q 2119 3494 2547 3981 
L 303 3981 
z
" transform="scale(0.015625)"/>
        <path id="ArialMT-36" d="M 3184 3459 
L 2625 3416 
Q 2550 3747 2413 3897 
Q 2184 4138 1850 4138 
Q 1581 4138 1378 3988 
Q 1113 3794 959 3422 
Q 806 3050 800 2363 
Q 1003 2672 1297 2822 
Q 1591 2972 1913 2972 
Q 2475 2972 2870 2558 
Q 3266 2144 3266 1488 
Q 3266 1056 3080 686 
Q 2894 316 2569 119 
Q 2244 -78 1831 -78 
Q 1128 -78 684 439 
Q 241 956 241 2144 
Q 241 3472 731 4075 
Q 1159 4600 1884 4600 
Q 2425 4600 2770 4297 
Q 3116 3994 3184 3459 
z
M 888 1484 
Q 888 1194 1011 928 
Q 1134 663 1356 523 
Q 1578 384 1822 384 
Q 2178 384 2434 671 
Q 2691 959 2691 1453 
Q 2691 1928 2437 2201 
Q 2184 2475 1800 2475 
Q 1419 2475 1153 2201 
Q 888 1928 888 1484 
z
" transform="scale(0.015625)"/>
       </defs>
       <use xlink:href="#ArialMT-70"/>
       <use xlink:href="#ArialMT-33" x="55.615234"/>
       <use xlink:href="#ArialMT-38" x="111.230469"/>
       <use xlink:href="#ArialMT-34" x="166.845703"/>
       <use xlink:href="#ArialMT-5f" x="222.460938"/>
       <use xlink:href="#ArialMT-6d" x="278.076172"/>
       <use xlink:href="#ArialMT-6c" x="361.376953"/>
       <use xlink:href="#ArialMT-6b" x="383.59375"/>
       <use xlink:href="#ArialMT-65" x="433.59375"/>
       <use xlink:href="#ArialMT-6d" x="489.208984"/>
       <use xlink:href="#ArialMT-37" x="572.509766"/>
       <use xlink:href="#ArialMT-36" x="628.125"/>
       <use xlink:href="#ArialMT-38" x="683.740234"/>
      </g>
     </g>
    </g>
    <g id="xtick_4">
     <g id="text_4">
      <!-- x448_mlkem768 -->
      <g style="fill: #262626" transform="translate(559.343063 416.1425) scale(0.14 -0.14)">
       <use xlink:href="#ArialMT-78"/>
       <use xlink:href="#ArialMT-34" x="50"/>
       <use xlink:href="#ArialMT-34" x="105.615234"/>
       <use xlink:href="#ArialMT-38" x="161.230469"/>
       <use xlink:href="#ArialMT-5f" x="216.845703"/>
       <use xlink:href="#ArialMT-6d" x="272.460938"/>
       <use xlink:href="#ArialMT-6c" x="355.761719"/>
       <use xlink:href="#ArialMT-6b" x="377.978516"/>
       <use xlink:href="#ArialMT-65" x="427.978516"/>
       <use xlink:href="#ArialMT-6d" x="483.59375"/>
       <use xlink:href="#ArialMT-37" x="566.894531"/>
       <use xlink:href="#ArialMT-36" x="622.509766"/>
       <use xlink:href="#ArialMT-38" x="678.125"/>
      </g>
     </g>
    </g>
    <g id="xtick_5">
     <g id="text_5">
      <!-- mlkem768 -->
      <g style="fill: #262626" transform="translate(738.639563 416.100937) scale(0.14 -0.14)">
       <use xlink:href="#ArialMT-6d"/>
       <use xlink:href="#ArialMT-6c" x="83.300781"/>
       <use xlink:href="#ArialMT-6b" x="105.517578"/>
       <use xlink:href="#ArialMT-65" x="155.517578"/>
       <use xlink:href="#ArialMT-6d" x="211.132812"/>
       <use xlink:href="#ArialMT-37" x="294.433594"/>
       <use xlink:href="#ArialMT-36" x="350.048828"/>
       <use xlink:href="#ArialMT-38" x="405.664062"/>
      </g>
     </g>
    </g>
   </g>
   <g id="matplotlib.axis_2">
    <g id="ytick_1">
     <g id="line2d_1">
      <path d="M 49.910625 368.200921 
L 851.04 368.200921 
" clip-path="url(#pfb636d2c75)" style="fill: none; stroke: #cccccc; stroke-linecap: round"/>
     </g>
     <g id="text_6">
      <!-- 5 -->
      <g style="fill: #262626" transform="translate(34.293594 372.137718) scale(0.11 -0.11)">
       <defs>
        <path id="ArialMT-35" d="M 266 1200 
L 856 1250 
Q 922 819 1161 601 
Q 1400 384 1738 384 
Q 2144 384 2425 690 
Q 2706 997 2706 1503 
Q 2706 1984 2436 2262 
Q 2166 2541 1728 2541 
Q 1456 2541 1237 2417 
Q 1019 2294 894 2097 
L 366 2166 
L 809 4519 
L 3088 4519 
L 3088 3981 
L 1259 3981 
L 1013 2750 
Q 1425 3038 1878 3038 
Q 2478 3038 2890 2622 
Q 3303 2206 3303 1553 
Q 3303 931 2941 478 
Q 2500 -78 1738 -78 
Q 1113 -78 717 272 
Q 322 622 266 1200 
z
" transform="scale(0.015625)"/>
       </defs>
       <use xlink:href="#ArialMT-35"/>
      </g>
     </g>
    </g>
    <g id="ytick_2">
     <g id="line2d_2">
      <path d="M 49.910625 307.796902 
L 851.04 307.796902 
" clip-path="url(#pfb636d2c75)" style="fill: none; stroke: #cccccc; stroke-linecap: round"/>
     </g>
     <g id="text_7">
      <!-- 10 -->
      <g style="fill: #262626" transform="translate(28.176563 311.733699) scale(0.11 -0.11)">
       <defs>
        <path id="ArialMT-31" d="M 2384 0 
L 1822 0 
L 1822 3584 
Q 1619 3391 1289 3197 
Q 959 3003 697 2906 
L 697 3450 
Q 1169 3672 1522 3987 
Q 1875 4303 2022 4600 
L 2384 4600 
L 2384 0 
z
" transform="scale(0.015625)"/>
        <path id="ArialMT-30" d="M 266 2259 
Q 266 3072 433 3567 
Q 600 4063 929 4331 
Q 1259 4600 1759 4600 
Q 2128 4600 2406 4451 
Q 2684 4303 2865 4023 
Q 3047 3744 3150 3342 
Q 3253 2941 3253 2259 
Q 3253 1453 3087 958 
Q 2922 463 2592 192 
Q 2263 -78 1759 -78 
Q 1097 -78 719 397 
Q 266 969 266 2259 
z
M 844 2259 
Q 844 1131 1108 757 
Q 1372 384 1759 384 
Q 2147 384 2411 759 
Q 2675 1134 2675 2259 
Q 2675 3391 2411 3762 
Q 2147 4134 1753 4134 
Q 1366 4134 1134 3806 
Q 844 3388 844 2259 
z
" transform="scale(0.015625)"/>
       </defs>
       <use xlink:href="#ArialMT-31"/>
       <use xlink:href="#ArialMT-30" x="55.615234"/>
      </g>
     </g>
    </g>
    <g id="ytick_3">
     <g id="line2d_3">
      <path d="M 49.910625 247.392883 
L 851.04 247.392883 
" clip-path="url(#pfb636d2c75)" style="fill: none; stroke: #cccccc; stroke-linecap: round"/>
     </g>
     <g id="text_8">
      <!-- 15 -->
      <g style="fill: #262626" transform="translate(28.176563 251.32968) scale(0.11 -0.11)">
       <use xlink:href="#ArialMT-31"/>
       <use xlink:href="#ArialMT-35" x="55.615234"/>
      </g>
     </g>
    </g>
    <g id="ytick_4">
     <g id="line2d_4">
      <path d="M 49.910625 186.988864 
L 851.04 186.988864 
" clip-path="url(#pfb636d2c75)" style="fill: none; stroke: #cccccc; stroke-linecap: round"/>
     </g>
     <g id="text_9">
      <!-- 20 -->
      <g style="fill: #262626" transform="translate(28.176563 190.925661) scale(0.11 -0.11)">
       <defs>
        <path id="ArialMT-32" d="M 3222 541 
L 3222 0 
L 194 0 
Q 188 203 259 391 
Q 375 700 629 1000 
Q 884 1300 1366 1694 
Q 2113 2306 2375 2664 
Q 2638 3022 2638 3341 
Q 2638 3675 2398 3904 
Q 2159 4134 1775 4134 
Q 1369 4134 1125 3890 
Q 881 3647 878 3216 
L 300 3275 
Q 359 3922 746 4261 
Q 1134 4600 1788 4600 
Q 2447 4600 2831 4234 
Q 3216 3869 3216 3328 
Q 3216 3053 3103 2787 
Q 2991 2522 2730 2228 
Q 2469 1934 1863 1422 
Q 1356 997 1212 845 
Q 1069 694 975 541 
L 3222 541 
z
" transform="scale(0.015625)"/>
       </defs>
       <use xlink:href="#ArialMT-32"/>
       <use xlink:href="#ArialMT-30" x="55.615234"/>
      </g>
     </g>
    </g>
    <g id="ytick_5">
     <g id="line2d_5">
      <path d="M 49.910625 126.584845 
L 851.04 126.584845 
" clip-path="url(#pfb636d2c75)" style="fill: none; stroke: #cccccc; stroke-linecap: round"/>
     </g>
     <g id="text_10">
      <!-- 25 -->
      <g style="fill: #262626" transform="translate(28.176563 130.521642) scale(0.11 -0.11)">
       <use xlink:href="#ArialMT-32"/>
       <use xlink:href="#ArialMT-35" x="55.615234"/>
      </g>
     </g>
    </g>
    <g id="ytick_6">
     <g id="line2d_6">
      <path d="M 49.910625 66.180826 
L 851.04 66.180826 
" clip-path="url(#pfb636d2c75)" style="fill: none; stroke: #cccccc; stroke-linecap: round"/>
     </g>
     <g id="text_11">
      <!-- 30 -->
      <g style="fill: #262626" transform="translate(28.176563 70.117623) scale(0.11 -0.11)">
       <use xlink:href="#ArialMT-33"/>
       <use xlink:href="#ArialMT-30" x="55.615234"/>
      </g>
     </g>
    </g>
    <g id="text_12">
     <!-- Handshake duration (ms) -->
     <g style="fill: #262626" transform="translate(21.650937 279.475625) rotate(-90) scale(0.12 -0.12)">
      <defs>
       <path id="ArialMT-48" d="M 513 0 
L 513 4581 
L 1119 4581 
L 1119 2700 
L 3500 2700 
L 3500 4581 
L 4106 4581 
L 4106 0 
L 3500 0 
L 3500 2159 
L 1119 2159 
L 1119 0 
L 513 0 
z
" transform="scale(0.015625)"/>
       <path id="ArialMT-61" d="M 2588 409 
Q 2275 144 1986 34 
Q 1697 -75 1366 -75 
Q 819 -75 525 192 
Q 231 459 231 875 
Q 231 1119 342 1320 
Q 453 1522 633 1644 
Q 813 1766 1038 1828 
Q 1203 1872 1538 1913 
Q 2219 1994 2541 2106 
Q 2544 2222 2544 2253 
Q 2544 2597 2384 2738 
Q 2169 2928 1744 2928 
Q 1347 2928 1158 2789 
Q 969 2650 878 2297 
L 328 2372 
Q 403 2725 575 2942 
Q 747 3159 1072 3276 
Q 1397 3394 1825 3394 
Q 2250 3394 2515 3294 
Q 2781 3194 2906 3042 
Q 3031 2891 3081 2659 
Q 3109 2516 3109 2141 
L 3109 1391 
Q 3109 606 3145 398 
Q 3181 191 3288 0 
L 2700 0 
Q 2613 175 2588 409 
z
M 2541 1666 
Q 2234 1541 1622 1453 
Q 1275 1403 1131 1340 
Q 988 1278 909 1158 
Q 831 1038 831 891 
Q 831 666 1001 516 
Q 1172 366 1500 366 
Q 1825 366 2078 508 
Q 2331 650 2450 897 
Q 2541 1088 2541 1459 
L 2541 1666 
z
" transform="scale(0.015625)"/>
       <path id="ArialMT-6e" d="M 422 0 
L 422 3319 
L 928 3319 
L 928 2847 
Q 1294 3394 1984 3394 
Q 2284 3394 2536 3286 
Q 2788 3178 2913 3003 
Q 3038 2828 3088 2588 
Q 3119 2431 3119 2041 
L 3119 0 
L 2556 0 
L 2556 2019 
Q 2556 2363 2490 2533 
Q 2425 2703 2258 2804 
Q 2091 2906 1866 2906 
Q 1506 2906 1245 2678 
Q 984 2450 984 1813 
L 984 0 
L 422 0 
z
" transform="scale(0.015625)"/>
       <path id="ArialMT-64" d="M 2575 0 
L 2575 419 
Q 2259 -75 1647 -75 
Q 1250 -75 917 144 
Q 584 363 401 755 
Q 219 1147 219 1656 
Q 219 2153 384 2558 
Q 550 2963 881 3178 
Q 1213 3394 1622 3394 
Q 1922 3394 2156 3267 
Q 2391 3141 2538 2938 
L 2538 4581 
L 3097 4581 
L 3097 0 
L 2575 0 
z
M 797 1656 
Q 797 1019 1065 703 
Q 1334 388 1700 388 
Q 2069 388 2326 689 
Q 2584 991 2584 1609 
Q 2584 2291 2321 2609 
Q 2059 2928 1675 2928 
Q 1300 2928 1048 2622 
Q 797 2316 797 1656 
z
" transform="scale(0.015625)"/>
       <path id="ArialMT-73" d="M 197 991 
L 753 1078 
Q 800 744 1014 566 
Q 1228 388 1613 388 
Q 2000 388 2187 545 
Q 2375 703 2375 916 
Q 2375 1106 2209 1216 
Q 2094 1291 1634 1406 
Q 1016 1563 777 1677 
Q 538 1791 414 1992 
Q 291 2194 291 2438 
Q 291 2659 392 2848 
Q 494 3038 669 3163 
Q 800 3259 1026 3326 
Q 1253 3394 1513 3394 
Q 1903 3394 2198 3281 
Q 2494 3169 2634 2976 
Q 2775 2784 2828 2463 
L 2278 2388 
Q 2241 2644 2061 2787 
Q 1881 2931 1553 2931 
Q 1166 2931 1000 2803 
Q 834 2675 834 2503 
Q 834 2394 903 2306 
Q 972 2216 1119 2156 
Q 1203 2125 1616 2013 
Q 2213 1853 2448 1751 
Q 2684 1650 2818 1456 
Q 2953 1263 2953 975 
Q 2953 694 2789 445 
Q 2625 197 2315 61 
Q 2006 -75 1616 -75 
Q 969 -75 630 194 
Q 291 463 197 991 
z
" transform="scale(0.015625)"/>
       <path id="ArialMT-68" d="M 422 0 
L 422 4581 
L 984 4581 
L 984 2938 
Q 1378 3394 1978 3394 
Q 2347 3394 2619 3248 
Q 2891 3103 3008 2847 
Q 3125 2591 3125 2103 
L 3125 0 
L 2563 0 
L 2563 2103 
Q 2563 2525 2380 2717 
Q 2197 2909 1863 2909 
Q 1613 2909 1392 2779 
Q 1172 2650 1078 2428 
Q 984 2206 984 1816 
L 984 0 
L 422 0 
z
" transform="scale(0.015625)"/>
       <path id="ArialMT-20" transform="scale(0.015625)"/>
       <path id="ArialMT-75" d="M 2597 0 
L 2597 488 
Q 2209 -75 1544 -75 
Q 1250 -75 995 37 
Q 741 150 617 320 
Q 494 491 444 738 
Q 409 903 409 1263 
L 409 3319 
L 972 3319 
L 972 1478 
Q 972 1038 1006 884 
Q 1059 663 1231 536 
Q 1403 409 1656 409 
Q 1909 409 2131 539 
Q 2353 669 2445 892 
Q 2538 1116 2538 1541 
L 2538 3319 
L 3100 3319 
L 3100 0 
L 2597 0 
z
" transform="scale(0.015625)"/>
       <path id="ArialMT-72" d="M 416 0 
L 416 3319 
L 922 3319 
L 922 2816 
Q 1116 3169 1280 3281 
Q 1444 3394 1641 3394 
Q 1925 3394 2219 3213 
L 2025 2691 
Q 1819 2813 1613 2813 
Q 1428 2813 1281 2702 
Q 1134 2591 1072 2394 
Q 978 2094 978 1738 
L 978 0 
L 416 0 
z
" transform="scale(0.015625)"/>
       <path id="ArialMT-74" d="M 1650 503 
L 1731 6 
Q 1494 -44 1306 -44 
Q 1000 -44 831 53 
Q 663 150 594 308 
Q 525 466 525 972 
L 525 2881 
L 113 2881 
L 113 3319 
L 525 3319 
L 525 4141 
L 1084 4478 
L 1084 3319 
L 1650 3319 
L 1650 2881 
L 1084 2881 
L 1084 941 
Q 1084 700 1114 631 
Q 1144 563 1211 522 
Q 1278 481 1403 481 
Q 1497 481 1650 503 
z
" transform="scale(0.015625)"/>
       <path id="ArialMT-69" d="M 425 3934 
L 425 4581 
L 988 4581 
L 988 3934 
L 425 3934 
z
M 425 0 
L 425 3319 
L 988 3319 
L 988 0 
L 425 0 
z
" transform="scale(0.015625)"/>
       <path id="ArialMT-6f" d="M 213 1659 
Q 213 2581 725 3025 
Q 1153 3394 1769 3394 
Q 2453 3394 2887 2945 
Q 3322 2497 3322 1706 
Q 3322 1066 3130 698 
Q 2938 331 2570 128 
Q 2203 -75 1769 -75 
Q 1072 -75 642 372 
Q 213 819 213 1659 
z
M 791 1659 
Q 791 1022 1069 705 
Q 1347 388 1769 388 
Q 2188 388 2466 706 
Q 2744 1025 2744 1678 
Q 2744 2294 2464 2611 
Q 2184 2928 1769 2928 
Q 1347 2928 1069 2612 
Q 791 2297 791 1659 
z
" transform="scale(0.015625)"/>
       <path id="ArialMT-28" d="M 1497 -1347 
Q 1031 -759 709 28 
Q 388 816 388 1659 
Q 388 2403 628 3084 
Q 909 3875 1497 4659 
L 1900 4659 
Q 1522 4009 1400 3731 
Q 1209 3300 1100 2831 
Q 966 2247 966 1656 
Q 966 153 1900 -1347 
L 1497 -1347 
z
" transform="scale(0.015625)"/>
       <path id="ArialMT-29" d="M 791 -1347 
L 388 -1347 
Q 1322 153 1322 1656 
Q 1322 2244 1188 2822 
Q 1081 3291 891 3722 
Q 769 4003 388 4659 
L 791 4659 
Q 1378 3875 1659 3084 
Q 1900 2403 1900 1659 
Q 1900 816 1576 28 
Q 1253 -759 791 -1347 
z
" transform="scale(0.015625)"/>
      </defs>
      <use xlink:href="#ArialMT-48"/>
      <use xlink:href="#ArialMT-61" x="72.216797"/>
      <use xlink:href="#ArialMT-6e" x="127.832031"/>
      <use xlink:href="#ArialMT-64" x="183.447266"/>
      <use xlink:href="#ArialMT-73" x="239.0625"/>
      <use xlink:href="#ArialMT-68" x="289.0625"/>
      <use xlink:href="#ArialMT-61" x="344.677734"/>
      <use xlink:href="#ArialMT-6b" x="400.292969"/>
      <use xlink:href="#ArialMT-65" x="450.292969"/>
      <use xlink:href="#ArialMT-20" x="505.908203"/>
      <use xlink:href="#ArialMT-64" x="533.691406"/>
      <use xlink:href="#ArialMT-75" x="589.306641"/>
      <use xlink:href="#ArialMT-72" x="644.921875"/>
      <use xlink:href="#ArialMT-61" x="678.222656"/>
      <use xlink:href="#ArialMT-74" x="733.837891"/>
      <use xlink:href="#ArialMT-69" x="761.621094"/>
      <use xlink:href="#ArialMT-6f" x="783.837891"/>
      <use xlink:href="#ArialMT-6e" x="839.453125"/>
      <use xlink:href="#ArialMT-20" x="895.068359"/>
      <use xlink:href="#ArialMT-28" x="922.851562"/>
      <use xlink:href="#ArialMT-6d" x="956.152344"/>
      <use xlink:href="#ArialMT-73" x="1039.453125"/>
      <use xlink:href="#ArialMT-29" x="1089.453125"/>
     </g>
    </g>
   </g>
   <g id="PolyCollection_1">
    <defs>
     <path id="m56b89eeed2" d="M 130.176975 -90.402521 
L 129.87015 -90.402521 
L 129.762854 -91.81387 
L 129.593269 -93.225219 
L 129.333796 -94.636568 
L 128.94969 -96.047917 
L 128.399959 -97.459266 
L 127.639965 -98.870615 
L 126.626096 -100.281964 
L 125.322534 -101.693313 
L 123.709572 -103.104662 
L 121.792312 -104.516011 
L 119.607969 -105.92736 
L 117.229759 -107.338709 
L 114.765558 -108.750058 
L 112.350379 -110.161407 
L 110.132961 -111.572756 
L 108.258292 -112.984105 
L 106.849072 -114.395454 
L 105.989675 -115.806803 
L 105.715798 -117.218152 
L 106.011768 -118.629501 
L 106.815713 -120.04085 
L 108.031068 -121.452199 
L 109.541581 -122.863548 
L 111.226594 -124.274897 
L 112.973733 -125.686246 
L 114.687264 -127.097595 
L 116.291654 -128.508944 
L 117.731053 -129.920293 
L 118.966193 -131.331642 
L 119.970377 -132.742991 
L 120.726038 -134.15434 
L 121.222746 -135.565689 
L 121.456968 -136.977038 
L 121.433258 -138.388387 
L 121.16618 -139.799736 
L 120.682071 -141.211085 
L 120.019788 -142.622435 
L 119.229829 -144.033784 
L 118.371617 -145.445133 
L 117.509165 -146.856482 
L 116.705774 -148.267831 
L 116.018663 -149.67918 
L 115.49444 -151.090529 
L 115.166116 -152.501878 
L 115.05197 -153.913227 
L 115.156108 -155.324576 
L 115.470254 -156.735925 
L 115.976134 -158.147274 
L 116.647912 -159.558623 
L 117.454371 -160.969972 
L 118.360784 -162.381321 
L 119.330652 -163.79267 
L 120.327486 -165.204019 
L 121.316736 -166.615368 
L 122.267767 -168.026717 
L 123.155634 -169.438066 
L 123.962346 -170.849415 
L 124.677355 -172.260764 
L 125.297183 -173.672113 
L 125.824305 -175.083462 
L 126.265523 -176.494811 
L 126.630205 -177.90616 
L 126.928662 -179.317509 
L 127.170919 -180.728858 
L 127.365942 -182.140207 
L 127.521349 -183.551556 
L 127.643488 -184.962905 
L 127.737801 -186.374254 
L 127.809316 -187.785603 
L 127.863162 -189.196952 
L 127.904962 -190.608301 
L 127.940988 -192.01965 
L 127.977996 -193.430999 
L 128.022725 -194.842348 
L 128.081142 -196.253697 
L 128.15759 -197.665046 
L 128.254065 -199.076395 
L 128.369838 -200.487744 
L 128.501544 -201.899093 
L 128.643758 -203.310442 
L 128.789937 -204.721791 
L 128.933519 -206.133141 
L 129.068934 -207.54449 
L 129.192316 -208.955839 
L 129.301809 -210.367188 
L 129.397438 -211.778537 
L 129.48065 -213.189886 
L 129.553675 -214.601235 
L 129.618858 -216.012584 
L 129.678145 -217.423933 
L 129.732774 -218.835282 
L 129.783224 -220.246631 
L 129.829356 -221.65798 
L 129.870682 -223.069329 
L 129.906661 -224.480678 
L 129.936932 -225.892027 
L 129.961459 -227.303376 
L 129.980553 -228.714725 
L 129.994818 -230.126074 
L 130.052307 -230.126074 
L 130.052307 -230.126074 
L 130.066572 -228.714725 
L 130.085666 -227.303376 
L 130.110193 -225.892027 
L 130.140464 -224.480678 
L 130.176443 -223.069329 
L 130.217769 -221.65798 
L 130.263901 -220.246631 
L 130.314351 -218.835282 
L 130.36898 -217.423933 
L 130.428267 -216.012584 
L 130.49345 -214.601235 
L 130.566475 -213.189886 
L 130.649687 -211.778537 
L 130.745316 -210.367188 
L 130.854809 -208.955839 
L 130.978191 -207.54449 
L 131.113606 -206.133141 
L 131.257188 -204.721791 
L 131.403367 -203.310442 
L 131.545581 -201.899093 
L 131.677287 -200.487744 
L 131.79306 -199.076395 
L 131.889535 -197.665046 
L 131.965983 -196.253697 
L 132.0244 -194.842348 
L 132.069129 -193.430999 
L 132.106137 -192.01965 
L 132.142163 -190.608301 
L 132.183963 -189.196952 
L 132.237809 -187.785603 
L 132.309324 -186.374254 
L 132.403637 -184.962905 
L 132.525776 -183.551556 
L 132.681183 -182.140207 
L 132.876206 -180.728858 
L 133.118463 -179.317509 
L 133.41692 -177.90616 
L 133.781602 -176.494811 
L 134.22282 -175.083462 
L 134.749942 -173.672113 
L 135.36977 -172.260764 
L 136.084779 -170.849415 
L 136.891491 -169.438066 
L 137.779358 -168.026717 
L 138.730389 -166.615368 
L 139.719639 -165.204019 
L 140.716473 -163.79267 
L 141.686341 -162.381321 
L 142.592754 -160.969972 
L 143.399213 -159.558623 
L 144.070991 -158.147274 
L 144.576871 -156.735925 
L 144.891017 -155.324576 
L 144.995155 -153.913227 
L 144.881009 -152.501878 
L 144.552685 -151.090529 
L 144.028462 -149.67918 
L 143.341351 -148.267831 
L 142.53796 -146.856482 
L 141.675508 -145.445133 
L 140.817296 -144.033784 
L 140.027337 -142.622435 
L 139.365054 -141.211085 
L 138.880945 -139.799736 
L 138.613867 -138.388387 
L 138.590157 -136.977038 
L 138.824379 -135.565689 
L 139.321087 -134.15434 
L 140.076748 -132.742991 
L 141.080932 -131.331642 
L 142.316072 -129.920293 
L 143.755471 -128.508944 
L 145.359861 -127.097595 
L 147.073392 -125.686246 
L 148.820531 -124.274897 
L 150.505544 -122.863548 
L 152.016057 -121.452199 
L 153.231412 -120.04085 
L 154.035357 -118.629501 
L 154.331327 -117.218152 
L 154.05745 -115.806803 
L 153.198053 -114.395454 
L 151.788833 -112.984105 
L 149.914164 -111.572756 
L 147.696746 -110.161407 
L 145.281567 -108.750058 
L 142.817366 -107.338709 
L 140.439156 -105.92736 
L 138.254813 -104.516011 
L 136.337553 -103.104662 
L 134.724591 -101.693313 
L 133.421029 -100.281964 
L 132.40716 -98.870615 
L 131.647166 -97.459266 
L 131.097435 -96.047917 
L 130.713329 -94.636568 
L 130.453856 -93.225219 
L 130.284271 -91.81387 
L 130.176975 -90.402521 
z
" style="stroke: #595959; stroke-width: 1.5"/>
    </defs>
    <g clip-path="url(#pfb636d2c75)">
     <use xlink:href="#m56b89eeed2" x="0" y="432" style="fill: #72b6a1; stroke: #595959; stroke-width: 1.5"/>
    </g>
   </g>
   <g id="PolyCollection_2">
    <defs>
     <path id="m23bd599155" d="M 290.374474 -57.170465 
L 290.124401 -57.170465 
L 290.036905 -58.037767 
L 289.89919 -58.905069 
L 289.689405 -59.77237 
L 289.379906 -60.639672 
L 288.93741 -61.506973 
L 288.323951 -62.374275 
L 287.498841 -63.241577 
L 286.421756 -64.108878 
L 285.05693 -64.97618 
L 283.378286 -65.843481 
L 281.37512 -66.710783 
L 279.057699 -67.578085 
L 276.461915 -68.445386 
L 273.651972 -69.312688 
L 270.720088 -70.179989 
L 267.782465 -71.047291 
L 264.971344 -71.914593 
L 262.423687 -72.781894 
L 260.26787 -73.649196 
L 258.61036 -74.516497 
L 257.524541 -75.383799 
L 257.043526 -76.251101 
L 257.157977 -77.118402 
L 257.818874 -77.985704 
L 258.944176 -78.853005 
L 260.427707 -79.720307 
L 262.148513 -80.587609 
L 263.979406 -81.45491 
L 265.794197 -82.322212 
L 267.473802 -83.189513 
L 268.911863 -84.056815 
L 270.020451 -84.924116 
L 270.735948 -85.791418 
L 271.024621 -86.65872 
L 270.886894 -87.526021 
L 270.359131 -88.393323 
L 269.512008 -89.260624 
L 268.445013 -90.127926 
L 267.277362 -90.995228 
L 266.136245 -91.862529 
L 265.143872 -92.729831 
L 264.405052 -93.597132 
L 263.997088 -94.464434 
L 263.963423 -95.331736 
L 264.311929 -96.199037 
L 265.017911 -97.066339 
L 266.031095 -97.93364 
L 267.285132 -98.800942 
L 268.707727 -99.668244 
L 270.229519 -100.535545 
L 271.790206 -101.402847 
L 273.341221 -102.270148 
L 274.845138 -103.13745 
L 276.272849 -104.004752 
L 277.60001 -104.872053 
L 278.804305 -105.739355 
L 279.864555 -106.606656 
L 280.76195 -107.473958 
L 281.48285 -108.34126 
L 282.022049 -109.208561 
L 282.385295 -110.075863 
L 282.590202 -110.943164 
L 282.665248 -111.810466 
L 282.647172 -112.677767 
L 282.577446 -113.545069 
L 282.498545 -114.412371 
L 282.450563 -115.279672 
L 282.46841 -116.146974 
L 282.57959 -117.014275 
L 282.802463 -117.881577 
L 283.145013 -118.748879 
L 283.604243 -119.61618 
L 284.166451 -120.483482 
L 284.808597 -121.350783 
L 285.500784 -122.218085 
L 286.209618 -123.085387 
L 286.901966 -123.952688 
L 287.548488 -124.81999 
L 288.126384 -125.687291 
L 288.620973 -126.554593 
L 289.026005 -127.421895 
L 289.342864 -128.289196 
L 289.579004 -129.156498 
L 289.746016 -130.023799 
L 289.857667 -130.891101 
L 289.928164 -131.758403 
L 289.970773 -132.625704 
L 289.996833 -133.493006 
L 290.015168 -134.360307 
L 290.031878 -135.227609 
L 290.050454 -136.094911 
L 290.072168 -136.962212 
L 290.096648 -137.829514 
L 290.122531 -138.696815 
L 290.148089 -139.564117 
L 290.171717 -140.431418 
L 290.192246 -141.29872 
L 290.209071 -142.166022 
L 290.222116 -143.033323 
L 290.276759 -143.033323 
L 290.276759 -143.033323 
L 290.289804 -142.166022 
L 290.306629 -141.29872 
L 290.327158 -140.431418 
L 290.350786 -139.564117 
L 290.376344 -138.696815 
L 290.402227 -137.829514 
L 290.426707 -136.962212 
L 290.448421 -136.094911 
L 290.466997 -135.227609 
L 290.483707 -134.360307 
L 290.502042 -133.493006 
L 290.528102 -132.625704 
L 290.570711 -131.758403 
L 290.641208 -130.891101 
L 290.752859 -130.023799 
L 290.919871 -129.156498 
L 291.156011 -128.289196 
L 291.47287 -127.421895 
L 291.877902 -126.554593 
L 292.372491 -125.687291 
L 292.950387 -124.81999 
L 293.596909 -123.952688 
L 294.289257 -123.085387 
L 294.998091 -122.218085 
L 295.690278 -121.350783 
L 296.332424 -120.483482 
L 296.894632 -119.61618 
L 297.353862 -118.748879 
L 297.696412 -117.881577 
L 297.919285 -117.014275 
L 298.030465 -116.146974 
L 298.048312 -115.279672 
L 298.00033 -114.412371 
L 297.921429 -113.545069 
L 297.851703 -112.677767 
L 297.833627 -111.810466 
L 297.908673 -110.943164 
L 298.11358 -110.075863 
L 298.476826 -109.208561 
L 299.016025 -108.34126 
L 299.736925 -107.473958 
L 300.63432 -106.606656 
L 301.69457 -105.739355 
L 302.898865 -104.872053 
L 304.226026 -104.004752 
L 305.653737 -103.13745 
L 307.157654 -102.270148 
L 308.708669 -101.402847 
L 310.269356 -100.535545 
L 311.791148 -99.668244 
L 313.213743 -98.800942 
L 314.46778 -97.93364 
L 315.480964 -97.066339 
L 316.186946 -96.199037 
L 316.535452 -95.331736 
L 316.501787 -94.464434 
L 316.093823 -93.597132 
L 315.355003 -92.729831 
L 314.36263 -91.862529 
L 313.221513 -90.995228 
L 312.053862 -90.127926 
L 310.986867 -89.260624 
L 310.139744 -88.393323 
L 309.611981 -87.526021 
L 309.474254 -86.65872 
L 309.762927 -85.791418 
L 310.478424 -84.924116 
L 311.587012 -84.056815 
L 313.025073 -83.189513 
L 314.704678 -82.322212 
L 316.519469 -81.45491 
L 318.350362 -80.587609 
L 320.071168 -79.720307 
L 321.554699 -78.853005 
L 322.680001 -77.985704 
L 323.340898 -77.118402 
L 323.455349 -76.251101 
L 322.974334 -75.383799 
L 321.888515 -74.516497 
L 320.231005 -73.649196 
L 318.075188 -72.781894 
L 315.527531 -71.914593 
L 312.71641 -71.047291 
L 309.778787 -70.179989 
L 306.846903 -69.312688 
L 304.03696 -68.445386 
L 301.441176 -67.578085 
L 299.123755 -66.710783 
L 297.120589 -65.843481 
L 295.441945 -64.97618 
L 294.077119 -64.108878 
L 293.000034 -63.241577 
L 292.174924 -62.374275 
L 291.561465 -61.506973 
L 291.118969 -60.639672 
L 290.80947 -59.77237 
L 290.599685 -58.905069 
L 290.46197 -58.037767 
L 290.374474 -57.170465 
z
" style="stroke: #595959; stroke-width: 1.5"/>
    </defs>
    <g clip-path="url(#pfb636d2c75)">
     <use xlink:href="#m23bd599155" x="0" y="432" style="fill: #e99675; stroke: #595959; stroke-width: 1.5"/>
    </g>
   </g>
   <g id="PolyCollection_3">
    <defs>
     <path id="m5381520857" d="M 450.552759 -167.799562 
L 450.397866 -167.799562 
L 450.347806 -170.019565 
L 450.271465 -172.239568 
L 450.158444 -174.459571 
L 449.995816 -176.679574 
L 449.768147 -178.899577 
L 449.457861 -181.11958 
L 449.046088 -183.339583 
L 448.514148 -185.559586 
L 447.845791 -187.779589 
L 447.030172 -189.999592 
L 446.065341 -192.219595 
L 444.961753 -194.439598 
L 443.74507 -196.659601 
L 442.457362 -198.879604 
L 441.15593 -201.099607 
L 439.909284 -203.31961 
L 438.790427 -205.539613 
L 437.868238 -207.759616 
L 437.198388 -209.979619 
L 436.81548 -212.199622 
L 436.728042 -214.419625 
L 436.917434 -216.639628 
L 437.340948 -218.859631 
L 437.938441 -221.079634 
L 438.641172 -223.299637 
L 439.381101 -225.51964 
L 440.099 -227.739643 
L 440.750104 -229.959646 
L 441.306682 -232.179649 
L 441.757565 -234.399652 
L 442.105233 -236.619655 
L 442.361467 -238.839658 
L 442.542648 -241.059661 
L 442.66572 -243.279664 
L 442.745479 -245.499667 
L 442.793452 -247.71967 
L 442.818141 -249.939673 
L 442.826081 -252.159676 
L 442.823032 -254.379679 
L 442.814715 -256.599682 
L 442.806813 -258.819685 
L 442.804344 -261.039688 
L 442.8108 -263.259691 
L 442.827575 -265.479694 
L 442.854072 -267.699697 
L 442.888605 -269.9197 
L 442.929859 -272.139703 
L 442.978429 -274.359706 
L 443.037871 -276.579709 
L 443.114834 -278.799712 
L 443.218153 -281.019715 
L 443.357077 -283.239718 
L 443.539132 -285.459721 
L 443.768215 -287.679724 
L 444.043447 -289.899727 
L 444.359105 -292.11973 
L 444.705612 -294.339733 
L 445.071296 -296.559736 
L 445.444412 -298.779739 
L 445.814908 -300.999742 
L 446.175525 -303.219745 
L 446.522058 -305.439748 
L 446.852852 -307.659751 
L 447.167809 -309.879753 
L 447.467271 -312.099756 
L 447.751127 -314.319759 
L 448.018359 -316.539762 
L 448.267096 -318.759765 
L 448.495084 -320.979768 
L 448.700364 -323.199771 
L 448.881951 -325.419774 
L 449.040299 -327.639777 
L 449.177434 -329.85978 
L 449.296733 -332.079783 
L 449.402413 -334.299786 
L 449.498846 -336.519789 
L 449.589871 -338.739792 
L 449.678232 -340.959795 
L 449.76528 -343.179798 
L 449.850951 -345.399801 
L 449.934035 -347.619804 
L 450.012639 -349.839807 
L 450.084726 -352.05981 
L 450.148626 -354.279813 
L 450.203389 -356.499816 
L 450.248939 -358.719819 
L 450.286017 -360.939822 
L 450.315957 -363.159825 
L 450.340364 -365.379828 
L 450.360803 -367.599831 
L 450.37855 -369.819834 
L 450.394462 -372.039837 
L 450.408971 -374.25984 
L 450.422169 -376.479843 
L 450.433947 -378.699846 
L 450.444138 -380.919849 
L 450.452625 -383.139852 
L 450.459397 -385.359855 
L 450.464565 -387.579858 
L 450.48606 -387.579858 
L 450.48606 -387.579858 
L 450.491228 -385.359855 
L 450.498 -383.139852 
L 450.506487 -380.919849 
L 450.516678 -378.699846 
L 450.528456 -376.479843 
L 450.541654 -374.25984 
L 450.556163 -372.039837 
L 450.572075 -369.819834 
L 450.589822 -367.599831 
L 450.610261 -365.379828 
L 450.634668 -363.159825 
L 450.664608 -360.939822 
L 450.701686 -358.719819 
L 450.747236 -356.499816 
L 450.801999 -354.279813 
L 450.865899 -352.05981 
L 450.937986 -349.839807 
L 451.01659 -347.619804 
L 451.099674 -345.399801 
L 451.185345 -343.179798 
L 451.272393 -340.959795 
L 451.360754 -338.739792 
L 451.451779 -336.519789 
L 451.548212 -334.299786 
L 451.653892 -332.079783 
L 451.773191 -329.85978 
L 451.910326 -327.639777 
L 452.068674 -325.419774 
L 452.250261 -323.199771 
L 452.455541 -320.979768 
L 452.683529 -318.759765 
L 452.932266 -316.539762 
L 453.199498 -314.319759 
L 453.483354 -312.099756 
L 453.782816 -309.879753 
L 454.097773 -307.659751 
L 454.428567 -305.439748 
L 454.7751 -303.219745 
L 455.135717 -300.999742 
L 455.506213 -298.779739 
L 455.879329 -296.559736 
L 456.245013 -294.339733 
L 456.59152 -292.11973 
L 456.907178 -289.899727 
L 457.18241 -287.679724 
L 457.411493 -285.459721 
L 457.593548 -283.239718 
L 457.732472 -281.019715 
L 457.835791 -278.799712 
L 457.912754 -276.579709 
L 457.972196 -274.359706 
L 458.020766 -272.139703 
L 458.06202 -269.9197 
L 458.096553 -267.699697 
L 458.12305 -265.479694 
L 458.139825 -263.259691 
L 458.146281 -261.039688 
L 458.143812 -258.819685 
L 458.13591 -256.599682 
L 458.127593 -254.379679 
L 458.124544 -252.159676 
L 458.132484 -249.939673 
L 458.157173 -247.71967 
L 458.205146 -245.499667 
L 458.284905 -243.279664 
L 458.407977 -241.059661 
L 458.589158 -238.839658 
L 458.845392 -236.619655 
L 459.19306 -234.399652 
L 459.643943 -232.179649 
L 460.200521 -229.959646 
L 460.851625 -227.739643 
L 461.569524 -225.51964 
L 462.309453 -223.299637 
L 463.012184 -221.079634 
L 463.609677 -218.859631 
L 464.033191 -216.639628 
L 464.222583 -214.419625 
L 464.135145 -212.199622 
L 463.752237 -209.979619 
L 463.082387 -207.759616 
L 462.160198 -205.539613 
L 461.041341 -203.31961 
L 459.794695 -201.099607 
L 458.493263 -198.879604 
L 457.205555 -196.659601 
L 455.988872 -194.439598 
L 454.885284 -192.219595 
L 453.920453 -189.999592 
L 453.104834 -187.779589 
L 452.436477 -185.559586 
L 451.904537 -183.339583 
L 451.492764 -181.11958 
L 451.182478 -178.899577 
L 450.954809 -176.679574 
L 450.792181 -174.459571 
L 450.67916 -172.239568 
L 450.602819 -170.019565 
L 450.552759 -167.799562 
z
" style="stroke: #595959; stroke-width: 1.5"/>
    </defs>
    <g clip-path="url(#pfb636d2c75)">
     <use xlink:href="#m5381520857" x="0" y="432" style="fill: #95a3c3; stroke: #595959; stroke-width: 1.5"/>
    </g>
   </g>
   <g id="PolyCollection_4">
    <defs>
     <path id="m29c1fd0a36" d="M 610.980094 -68.727738 
L 610.422281 -68.727738 
L 610.233012 -69.808183 
L 609.940575 -70.888628 
L 609.504395 -71.969073 
L 608.876098 -73.049518 
L 608.001738 -74.129963 
L 606.825838 -75.210408 
L 605.297299 -76.290853 
L 603.376882 -77.371298 
L 601.045623 -78.451743 
L 598.313181 -79.532188 
L 595.224853 -80.612633 
L 591.865856 -81.693078 
L 588.361508 -82.773523 
L 584.872273 -83.853968 
L 581.583209 -84.934413 
L 578.688253 -86.014858 
L 576.37082 -87.095303 
L 574.78316 -88.175748 
L 574.027643 -89.256193 
L 574.143117 -90.336638 
L 575.098917 -91.417083 
L 576.797754 -92.497528 
L 579.087129 -93.577973 
L 581.777327 -94.658418 
L 584.662979 -95.738863 
L 587.544752 -96.819308 
L 590.248073 -97.899753 
L 592.636644 -98.980198 
L 594.619688 -100.060643 
L 596.152989 -101.141088 
L 597.234705 -102.221533 
L 597.897512 -103.301978 
L 598.198816 -104.382423 
L 598.210671 -105.462868 
L 598.010686 -106.543313 
L 597.674725 -107.623758 
L 597.271755 -108.704203 
L 596.860769 -109.784648 
L 596.489478 -110.865093 
L 596.194342 -111.945538 
L 596.0015 -113.025983 
L 595.928222 -114.106428 
L 595.984534 -115.186873 
L 596.174718 -116.267318 
L 596.498431 -117.347763 
L 596.951266 -118.428208 
L 597.524762 -119.508653 
L 598.206012 -120.589098 
L 598.977217 -121.669543 
L 599.815555 -122.749988 
L 600.693702 -123.830433 
L 601.581116 -124.910878 
L 602.445982 -125.991323 
L 603.257551 -127.071768 
L 603.988479 -128.152213 
L 604.616903 -129.232658 
L 605.128062 -130.313103 
L 605.515452 -131.393548 
L 605.7815 -132.473993 
L 605.937759 -133.554438 
L 606.00447 -134.634883 
L 606.00929 -135.715328 
L 605.984995 -136.795773 
L 605.966152 -137.876218 
L 605.98503 -138.956663 
L 606.067356 -140.037108 
L 606.228705 -141.117553 
L 606.47236 -142.197998 
L 606.789215 -143.278443 
L 607.15985 -144.358888 
L 607.558396 -145.439333 
L 607.957347 -146.519778 
L 608.332255 -147.600223 
L 608.665316 -148.680668 
L 608.947186 -149.761113 
L 609.176853 -150.841558 
L 609.359874 -151.922003 
L 609.505654 -153.002448 
L 609.624566 -154.082893 
L 609.725607 -155.163338 
L 609.815057 -156.243783 
L 609.89623 -157.324228 
L 609.970124 -158.404673 
L 610.036555 -159.485118 
L 610.095315 -160.565563 
L 610.146972 -161.646008 
L 610.193124 -162.726453 
L 610.236117 -163.806898 
L 610.27843 -164.887343 
L 610.321991 -165.967788 
L 610.367672 -167.048233 
L 610.41513 -168.128678 
L 610.462994 -169.209123 
L 610.509298 -170.289568 
L 610.552007 -171.370013 
L 610.589472 -172.450458 
L 610.620707 -173.530903 
L 610.645463 -174.611348 
L 610.664128 -175.691793 
L 610.738247 -175.691793 
L 610.738247 -175.691793 
L 610.756912 -174.611348 
L 610.781668 -173.530903 
L 610.812903 -172.450458 
L 610.850368 -171.370013 
L 610.893077 -170.289568 
L 610.939381 -169.209123 
L 610.987245 -168.128678 
L 611.034703 -167.048233 
L 611.080384 -165.967788 
L 611.123945 -164.887343 
L 611.166258 -163.806898 
L 611.209251 -162.726453 
L 611.255403 -161.646008 
L 611.30706 -160.565563 
L 611.36582 -159.485118 
L 611.432251 -158.404673 
L 611.506145 -157.324228 
L 611.587318 -156.243783 
L 611.676768 -155.163338 
L 611.777809 -154.082893 
L 611.896721 -153.002448 
L 612.042501 -151.922003 
L 612.225522 -150.841558 
L 612.455189 -149.761113 
L 612.737059 -148.680668 
L 613.07012 -147.600223 
L 613.445028 -146.519778 
L 613.843979 -145.439333 
L 614.242525 -144.358888 
L 614.61316 -143.278443 
L 614.930015 -142.197998 
L 615.17367 -141.117553 
L 615.335019 -140.037108 
L 615.417345 -138.956663 
L 615.436223 -137.876218 
L 615.41738 -136.795773 
L 615.393085 -135.715328 
L 615.397905 -134.634883 
L 615.464616 -133.554438 
L 615.620875 -132.473993 
L 615.886923 -131.393548 
L 616.274313 -130.313103 
L 616.785472 -129.232658 
L 617.413896 -128.152213 
L 618.144824 -127.071768 
L 618.956393 -125.991323 
L 619.821259 -124.910878 
L 620.708673 -123.830433 
L 621.58682 -122.749988 
L 622.425158 -121.669543 
L 623.196363 -120.589098 
L 623.877613 -119.508653 
L 624.451109 -118.428208 
L 624.903944 -117.347763 
L 625.227657 -116.267318 
L 625.417841 -115.186873 
L 625.474153 -114.106428 
L 625.400875 -113.025983 
L 625.208033 -111.945538 
L 624.912897 -110.865093 
L 624.541606 -109.784648 
L 624.13062 -108.704203 
L 623.72765 -107.623758 
L 623.391689 -106.543313 
L 623.191704 -105.462868 
L 623.203559 -104.382423 
L 623.504863 -103.301978 
L 624.16767 -102.221533 
L 625.249386 -101.141088 
L 626.782687 -100.060643 
L 628.765731 -98.980198 
L 631.154302 -97.899753 
L 633.857623 -96.819308 
L 636.739396 -95.738863 
L 639.625048 -94.658418 
L 642.315246 -93.577973 
L 644.604621 -92.497528 
L 646.303458 -91.417083 
L 647.259258 -90.336638 
L 647.374732 -89.256193 
L 646.619215 -88.175748 
L 645.031555 -87.095303 
L 642.714122 -86.014858 
L 639.819166 -84.934413 
L 636.530102 -83.853968 
L 633.040867 -82.773523 
L 629.536519 -81.693078 
L 626.177522 -80.612633 
L 623.089194 -79.532188 
L 620.356752 -78.451743 
L 618.025493 -77.371298 
L 616.105076 -76.290853 
L 614.576537 -75.210408 
L 613.400637 -74.129963 
L 612.526277 -73.049518 
L 611.89798 -71.969073 
L 611.4618 -70.888628 
L 611.169363 -69.808183 
L 610.980094 -68.727738 
z
" style="stroke: #595959; stroke-width: 1.5"/>
    </defs>
    <g clip-path="url(#pfb636d2c75)">
     <use xlink:href="#m29c1fd0a36" x="0" y="432" style="fill: #db96c0; stroke: #595959; stroke-width: 1.5"/>
    </g>
   </g>
   <g id="PolyCollection_5">
    <defs>
     <path id="m11a1bed1a5" d="M 771.271139 -52.189517 
L 770.582986 -52.189517 
L 770.305056 -52.932912 
L 769.844902 -53.676306 
L 769.114692 -54.419701 
L 768.004394 -55.163096 
L 766.387281 -55.906491 
L 764.132021 -56.649885 
L 761.121558 -57.39328 
L 757.277051 -58.136675 
L 752.582977 -58.880069 
L 747.1079 -59.623464 
L 741.015165 -60.366859 
L 734.559265 -61.110253 
L 728.066697 -61.853648 
L 721.903798 -62.597043 
L 716.437163 -63.340438 
L 711.99363 -64.083832 
L 708.826344 -64.827227 
L 707.091363 -65.570622 
L 706.836713 -66.314016 
L 708.003685 -67.057411 
L 710.438822 -67.800806 
L 713.914364 -68.544201 
L 718.154517 -69.287595 
L 722.864347 -70.03099 
L 727.757692 -70.774385 
L 732.580416 -71.517779 
L 737.126205 -72.261174 
L 741.243766 -73.004569 
L 744.836335 -73.747963 
L 747.856059 -74.491358 
L 750.296363 -75.234753 
L 752.18476 -75.978148 
L 753.577029 -76.721542 
L 754.552116 -77.464937 
L 755.206238 -78.208332 
L 755.644861 -78.951726 
L 755.972399 -79.695121 
L 756.280893 -80.438516 
L 756.639974 -81.18191 
L 757.090522 -81.925305 
L 757.643566 -82.6687 
L 758.284457 -83.412095 
L 758.980938 -84.155489 
L 759.692797 -84.898884 
L 760.380778 -85.642279 
L 761.013105 -86.385673 
L 761.569032 -87.129068 
L 762.039757 -87.872463 
L 762.427548 -88.615858 
L 762.743864 -89.359252 
L 763.006946 -90.102647 
L 763.238946 -90.846042 
L 763.462581 -91.589436 
L 763.697466 -92.332831 
L 763.956669 -93.076226 
L 764.244288 -93.81962 
L 764.554814 -94.563015 
L 764.874683 -95.30641 
L 765.185745 -96.049805 
L 765.469811 -96.793199 
L 765.713077 -97.536594 
L 765.909262 -98.279989 
L 766.060711 -99.023383 
L 766.177327 -99.766778 
L 766.273859 -100.510173 
L 766.366471 -101.253567 
L 766.469653 -101.996962 
L 766.594219 -102.740357 
L 766.746658 -103.483752 
L 766.929542 -104.227146 
L 767.142405 -104.970541 
L 767.382485 -105.713936 
L 767.645093 -106.45733 
L 767.923713 -107.200725 
L 768.210232 -107.94412 
L 768.495617 -108.687515 
L 768.771084 -109.430909 
L 769.029431 -110.174304 
L 769.266018 -110.917699 
L 769.479013 -111.661093 
L 769.668828 -112.404488 
L 769.837042 -113.147883 
L 769.985343 -113.891277 
L 770.114932 -114.634672 
L 770.226549 -115.378067 
L 770.320998 -116.121462 
L 770.39975 -116.864856 
L 770.465277 -117.608251 
L 770.520891 -118.351646 
L 770.570156 -119.09504 
L 770.616126 -119.838435 
L 770.660726 -120.58183 
L 770.704504 -121.325224 
L 770.74681 -122.068619 
L 770.786277 -122.812014 
L 770.821412 -123.555409 
L 770.851084 -124.298803 
L 770.874796 -125.042198 
L 770.892711 -125.785593 
L 770.961414 -125.785593 
L 770.961414 -125.785593 
L 770.979329 -125.042198 
L 771.003041 -124.298803 
L 771.032713 -123.555409 
L 771.067848 -122.812014 
L 771.107315 -122.068619 
L 771.149621 -121.325224 
L 771.193399 -120.58183 
L 771.237999 -119.838435 
L 771.283969 -119.09504 
L 771.333234 -118.351646 
L 771.388848 -117.608251 
L 771.454375 -116.864856 
L 771.533127 -116.121462 
L 771.627576 -115.378067 
L 771.739193 -114.634672 
L 771.868782 -113.891277 
L 772.017083 -113.147883 
L 772.185297 -112.404488 
L 772.375112 -111.661093 
L 772.588107 -110.917699 
L 772.824694 -110.174304 
L 773.083041 -109.430909 
L 773.358508 -108.687515 
L 773.643893 -107.94412 
L 773.930412 -107.200725 
L 774.209032 -106.45733 
L 774.47164 -105.713936 
L 774.71172 -104.970541 
L 774.924583 -104.227146 
L 775.107467 -103.483752 
L 775.259906 -102.740357 
L 775.384472 -101.996962 
L 775.487654 -101.253567 
L 775.580266 -100.510173 
L 775.676798 -99.766778 
L 775.793414 -99.023383 
L 775.944863 -98.279989 
L 776.141048 -97.536594 
L 776.384314 -96.793199 
L 776.66838 -96.049805 
L 776.979442 -95.30641 
L 777.299311 -94.563015 
L 777.609837 -93.81962 
L 777.897456 -93.076226 
L 778.156659 -92.332831 
L 778.391544 -91.589436 
L 778.615179 -90.846042 
L 778.847179 -90.102647 
L 779.110261 -89.359252 
L 779.426577 -88.615858 
L 779.814368 -87.872463 
L 780.285093 -87.129068 
L 780.84102 -86.385673 
L 781.473347 -85.642279 
L 782.161328 -84.898884 
L 782.873187 -84.155489 
L 783.569668 -83.412095 
L 784.210559 -82.6687 
L 784.763603 -81.925305 
L 785.214151 -81.18191 
L 785.573232 -80.438516 
L 785.881726 -79.695121 
L 786.209264 -78.951726 
L 786.647887 -78.208332 
L 787.302009 -77.464937 
L 788.277096 -76.721542 
L 789.669365 -75.978148 
L 791.557762 -75.234753 
L 793.998066 -74.491358 
L 797.01779 -73.747963 
L 800.610359 -73.004569 
L 804.72792 -72.261174 
L 809.273709 -71.517779 
L 814.096433 -70.774385 
L 818.989778 -70.03099 
L 823.699608 -69.287595 
L 827.939761 -68.544201 
L 831.415303 -67.800806 
L 833.85044 -67.057411 
L 835.017413 -66.314016 
L 834.762762 -65.570622 
L 833.027781 -64.827227 
L 829.860495 -64.083832 
L 825.416962 -63.340438 
L 819.950327 -62.597043 
L 813.787428 -61.853648 
L 807.29486 -61.110253 
L 800.83896 -60.366859 
L 794.746225 -59.623464 
L 789.271148 -58.880069 
L 784.577074 -58.136675 
L 780.732567 -57.39328 
L 777.722104 -56.649885 
L 775.466844 -55.906491 
L 773.849731 -55.163096 
L 772.739433 -54.419701 
L 772.009223 -53.676306 
L 771.549069 -52.932912 
L 771.271139 -52.189517 
z
" style="stroke: #595959; stroke-width: 1.5"/>
    </defs>
    <g clip-path="url(#pfb636d2c75)">
     <use xlink:href="#m11a1bed1a5" x="0" y="432" style="fill: #a2c865; stroke: #595959; stroke-width: 1.5"/>
    </g>
   </g>
   <g id="line2d_7">
    <path d="M 130.023562 315.287 
L 130.023562 327.367804 
" clip-path="url(#pfb636d2c75)" style="fill: none; stroke: #000000; stroke-width: 1.5; stroke-linecap: round"/>
   </g>
   <g id="line2d_8">
    <path d="M 130.023562 277.081458 
L 130.023562 224.80178 
" clip-path="url(#pfb636d2c75)" style="fill: none; stroke: #000000; stroke-width: 1.5; stroke-linecap: round"/>
   </g>
   <g id="line2d_9">
    <path d="M 124.015092 327.367804 
L 136.032033 327.367804 
" clip-path="url(#pfb636d2c75)" style="fill: none; stroke: #000000; stroke-width: 1.5; stroke-linecap: round"/>
   </g>
   <g id="line2d_10">
    <path d="M 124.015092 224.80178 
L 136.032033 224.80178 
" clip-path="url(#pfb636d2c75)" style="fill: none; stroke: #000000; stroke-width: 1.5; stroke-linecap: round"/>
   </g>
   <g id="line2d_11">
    <path d="M 290.249437 355.183855 
L 290.249437 366.3888 
" clip-path="url(#pfb636d2c75)" style="fill: none; stroke: #000000; stroke-width: 1.5; stroke-linecap: round"/>
   </g>
   <g id="line2d_12">
    <path d="M 290.249437 333.982044 
L 290.249437 307.91771 
" clip-path="url(#pfb636d2c75)" style="fill: none; stroke: #000000; stroke-width: 1.5; stroke-linecap: round"/>
   </g>
   <g id="line2d_13">
    <path d="M 284.240967 366.3888 
L 296.257908 366.3888 
" clip-path="url(#pfb636d2c75)" style="fill: none; stroke: #000000; stroke-width: 1.5; stroke-linecap: round"/>
   </g>
   <g id="line2d_14">
    <path d="M 284.240967 307.91771 
L 296.257908 307.91771 
" clip-path="url(#pfb636d2c75)" style="fill: none; stroke: #000000; stroke-width: 1.5; stroke-linecap: round"/>
   </g>
   <g id="line2d_15">
    <path d="M 450.475312 217.73451 
L 450.475312 242.318945 
" clip-path="url(#pfb636d2c75)" style="fill: none; stroke: #000000; stroke-width: 1.5; stroke-linecap: round"/>
   </g>
   <g id="line2d_16">
    <path d="M 450.475312 156.726451 
L 450.475312 66.301634 
" clip-path="url(#pfb636d2c75)" style="fill: none; stroke: #000000; stroke-width: 1.5; stroke-linecap: round"/>
   </g>
   <g id="line2d_17">
    <path d="M 444.466842 242.318945 
L 456.483783 242.318945 
" clip-path="url(#pfb636d2c75)" style="fill: none; stroke: #000000; stroke-width: 1.5; stroke-linecap: round"/>
   </g>
   <g id="line2d_18">
    <path d="M 444.466842 66.301634 
L 456.483783 66.301634 
" clip-path="url(#pfb636d2c75)" style="fill: none; stroke: #000000; stroke-width: 1.5; stroke-linecap: round"/>
   </g>
   <g id="line2d_19">
    <path d="M 610.701188 343.314465 
L 610.701188 352.737492 
" clip-path="url(#pfb636d2c75)" style="fill: none; stroke: #000000; stroke-width: 1.5; stroke-linecap: round"/>
   </g>
   <g id="line2d_20">
    <path d="M 610.701188 317.672959 
L 610.701188 280.977518 
" clip-path="url(#pfb636d2c75)" style="fill: none; stroke: #000000; stroke-width: 1.5; stroke-linecap: round"/>
   </g>
   <g id="line2d_21">
    <path d="M 604.692717 352.737492 
L 616.709658 352.737492 
" clip-path="url(#pfb636d2c75)" style="fill: none; stroke: #000000; stroke-width: 1.5; stroke-linecap: round"/>
   </g>
   <g id="line2d_22">
    <path d="M 604.692717 280.977518 
L 616.709658 280.977518 
" clip-path="url(#pfb636d2c75)" style="fill: none; stroke: #000000; stroke-width: 1.5; stroke-linecap: round"/>
   </g>
   <g id="line2d_23">
    <path d="M 770.927063 367.143851 
L 770.927063 373.033243 
" clip-path="url(#pfb636d2c75)" style="fill: none; stroke: #000000; stroke-width: 1.5; stroke-linecap: round"/>
   </g>
   <g id="line2d_24">
    <path d="M 770.927063 355.244259 
L 770.927063 337.515679 
" clip-path="url(#pfb636d2c75)" style="fill: none; stroke: #000000; stroke-width: 1.5; stroke-linecap: round"/>
   </g>
   <g id="line2d_25">
    <path d="M 764.918592 373.033243 
L 776.935533 373.033243 
" clip-path="url(#pfb636d2c75)" style="fill: none; stroke: #000000; stroke-width: 1.5; stroke-linecap: round"/>
   </g>
   <g id="line2d_26">
    <path d="M 764.918592 337.515679 
L 776.935533 337.515679 
" clip-path="url(#pfb636d2c75)" style="fill: none; stroke: #000000; stroke-width: 1.5; stroke-linecap: round"/>
   </g>
   <g id="line2d_27">
    <path d="M 118.006622 301.937712 
L 142.040503 301.937712 
" clip-path="url(#pfb636d2c75)" style="fill: none; stroke: #ff0000; stroke-width: 2"/>
   </g>
   <g id="line2d_28">
    <path d="M 278.232497 343.797697 
L 302.266378 343.797697 
" clip-path="url(#pfb636d2c75)" style="fill: none; stroke: #ff0000; stroke-width: 2"/>
   </g>
   <g id="line2d_29">
    <path d="M 438.458372 191.096337 
L 462.492253 191.096337 
" clip-path="url(#pfb636d2c75)" style="fill: none; stroke: #ff0000; stroke-width: 2"/>
   </g>
   <g id="line2d_30">
    <path d="M 598.684247 337.515679 
L 622.718128 337.515679 
" clip-path="url(#pfb636d2c75)" style="fill: none; stroke: #ff0000; stroke-width: 2"/>
   </g>
   <g id="line2d_31">
    <path d="M 758.910122 363.97264 
L 782.944003 363.97264 
" clip-path="url(#pfb636d2c75)" style="fill: none; stroke: #ff0000; stroke-width: 2"/>
   </g>
   <g id="patch_3">
    <path d="M 49.910625 396.58 
L 49.910625 27.650625 
" style="fill: none; stroke: #cccccc; stroke-width: 1.25; stroke-linejoin: miter; stroke-linecap: square"/>
   </g>
   <g id="patch_4">
    <path d="M 851.04 396.58 
L 851.04 27.650625 
" style="fill: none; stroke: #cccccc; stroke-width: 1.25; stroke-linejoin: miter; stroke-linecap: square"/>
   </g>
   <g id="patch_5">
    <path d="M 49.910625 396.58 
L 851.04 396.58 
" style="fill: none; stroke: #cccccc; stroke-width: 1.25; stroke-linejoin: miter; stroke-linecap: square"/>
   </g>
   <g id="patch_6">
    <path d="M 49.910625 27.650625 
L 851.04 27.650625 
" style="fill: none; stroke: #cccccc; stroke-width: 1.25; stroke-linejoin: miter; stroke-linecap: square"/>
   </g>
   <g id="text_13">
    <!-- Handshake duration on TLS with secp384r1 signature algorithm -->
    <g style="fill: #262626" transform="translate(281.16 21.650625) scale(0.12 -0.12)">
     <defs>
      <path id="ArialMT-54" d="M 1659 0 
L 1659 4041 
L 150 4041 
L 150 4581 
L 3781 4581 
L 3781 4041 
L 2266 4041 
L 2266 0 
L 1659 0 
z
" transform="scale(0.015625)"/>
      <path id="ArialMT-4c" d="M 469 0 
L 469 4581 
L 1075 4581 
L 1075 541 
L 3331 541 
L 3331 0 
L 469 0 
z
" transform="scale(0.015625)"/>
      <path id="ArialMT-53" d="M 288 1472 
L 859 1522 
Q 900 1178 1048 958 
Q 1197 738 1509 602 
Q 1822 466 2213 466 
Q 2559 466 2825 569 
Q 3091 672 3220 851 
Q 3350 1031 3350 1244 
Q 3350 1459 3225 1620 
Q 3100 1781 2813 1891 
Q 2628 1963 1997 2114 
Q 1366 2266 1113 2400 
Q 784 2572 623 2826 
Q 463 3081 463 3397 
Q 463 3744 659 4045 
Q 856 4347 1234 4503 
Q 1613 4659 2075 4659 
Q 2584 4659 2973 4495 
Q 3363 4331 3572 4012 
Q 3781 3694 3797 3291 
L 3216 3247 
Q 3169 3681 2898 3903 
Q 2628 4125 2100 4125 
Q 1550 4125 1298 3923 
Q 1047 3722 1047 3438 
Q 1047 3191 1225 3031 
Q 1400 2872 2139 2705 
Q 2878 2538 3153 2413 
Q 3553 2228 3743 1945 
Q 3934 1663 3934 1294 
Q 3934 928 3725 604 
Q 3516 281 3123 101 
Q 2731 -78 2241 -78 
Q 1619 -78 1198 103 
Q 778 284 539 648 
Q 300 1013 288 1472 
z
" transform="scale(0.015625)"/>
      <path id="ArialMT-77" d="M 1034 0 
L 19 3319 
L 600 3319 
L 1128 1403 
L 1325 691 
Q 1338 744 1497 1375 
L 2025 3319 
L 2603 3319 
L 3100 1394 
L 3266 759 
L 3456 1400 
L 4025 3319 
L 4572 3319 
L 3534 0 
L 2950 0 
L 2422 1988 
L 2294 2553 
L 1622 0 
L 1034 0 
z
" transform="scale(0.015625)"/>
      <path id="ArialMT-63" d="M 2588 1216 
L 3141 1144 
Q 3050 572 2676 248 
Q 2303 -75 1759 -75 
Q 1078 -75 664 370 
Q 250 816 250 1647 
Q 250 2184 428 2587 
Q 606 2991 970 3192 
Q 1334 3394 1763 3394 
Q 2303 3394 2647 3120 
Q 2991 2847 3088 2344 
L 2541 2259 
Q 2463 2594 2264 2762 
Q 2066 2931 1784 2931 
Q 1359 2931 1093 2626 
Q 828 2322 828 1663 
Q 828 994 1084 691 
Q 1341 388 1753 388 
Q 2084 388 2306 591 
Q 2528 794 2588 1216 
z
" transform="scale(0.015625)"/>
      <path id="ArialMT-67" d="M 319 -275 
L 866 -356 
Q 900 -609 1056 -725 
Q 1266 -881 1628 -881 
Q 2019 -881 2231 -725 
Q 2444 -569 2519 -288 
Q 2563 -116 2559 434 
Q 2191 0 1641 0 
Q 956 0 581 494 
Q 206 988 206 1678 
Q 206 2153 378 2554 
Q 550 2956 876 3175 
Q 1203 3394 1644 3394 
Q 2231 3394 2613 2919 
L 2613 3319 
L 3131 3319 
L 3131 450 
Q 3131 -325 2973 -648 
Q 2816 -972 2473 -1159 
Q 2131 -1347 1631 -1347 
Q 1038 -1347 672 -1080 
Q 306 -813 319 -275 
z
M 784 1719 
Q 784 1066 1043 766 
Q 1303 466 1694 466 
Q 2081 466 2343 764 
Q 2606 1063 2606 1700 
Q 2606 2309 2336 2618 
Q 2066 2928 1684 2928 
Q 1309 2928 1046 2623 
Q 784 2319 784 1719 
z
" transform="scale(0.015625)"/>
     </defs>
     <use xlink:href="#ArialMT-48"/>
     <use xlink:href="#ArialMT-61" x="72.216797"/>
     <use xlink:href="#ArialMT-6e" x="127.832031"/>
     <use xlink:href="#ArialMT-64" x="183.447266"/>
     <use xlink:href="#ArialMT-73" x="239.0625"/>
     <use xlink:href="#ArialMT-68" x="289.0625"/>
     <use xlink:href="#ArialMT-61" x="344.677734"/>
     <use xlink:href="#ArialMT-6b" x="400.292969"/>
     <use xlink:href="#ArialMT-65" x="450.292969"/>
     <use xlink:href="#ArialMT-20" x="505.908203"/>
     <use xlink:href="#ArialMT-64" x="533.691406"/>
     <use xlink:href="#ArialMT-75" x="589.306641"/>
     <use xlink:href="#ArialMT-72" x="644.921875"/>
     <use xlink:href="#ArialMT-61" x="678.222656"/>
     <use xlink:href="#ArialMT-74" x="733.837891"/>
     <use xlink:href="#ArialMT-69" x="761.621094"/>
     <use xlink:href="#ArialMT-6f" x="783.837891"/>
     <use xlink:href="#ArialMT-6e" x="839.453125"/>
     <use xlink:href="#ArialMT-20" x="895.068359"/>
     <use xlink:href="#ArialMT-6f" x="922.851562"/>
     <use xlink:href="#ArialMT-6e" x="978.466797"/>
     <use xlink:href="#ArialMT-20" x="1034.082031"/>
     <use xlink:href="#ArialMT-54" x="1060.115234"/>
     <use xlink:href="#ArialMT-4c" x="1121.199219"/>
     <use xlink:href="#ArialMT-53" x="1176.814453"/>
     <use xlink:href="#ArialMT-20" x="1243.513672"/>
     <use xlink:href="#ArialMT-77" x="1271.296875"/>
     <use xlink:href="#ArialMT-69" x="1343.513672"/>
     <use xlink:href="#ArialMT-74" x="1365.730469"/>
     <use xlink:href="#ArialMT-68" x="1393.513672"/>
     <use xlink:href="#ArialMT-20" x="1449.128906"/>
     <use xlink:href="#ArialMT-73" x="1476.912109"/>
     <use xlink:href="#ArialMT-65" x="1526.912109"/>
     <use xlink:href="#ArialMT-63" x="1582.527344"/>
     <use xlink:href="#ArialMT-70" x="1632.527344"/>
     <use xlink:href="#ArialMT-33" x="1688.142578"/>
     <use xlink:href="#ArialMT-38" x="1743.757812"/>
     <use xlink:href="#ArialMT-34" x="1799.373047"/>
     <use xlink:href="#ArialMT-72" x="1854.988281"/>
     <use xlink:href="#ArialMT-31" x="1888.289062"/>
     <use xlink:href="#ArialMT-20" x="1943.904297"/>
     <use xlink:href="#ArialMT-73" x="1971.6875"/>
     <use xlink:href="#ArialMT-69" x="2021.6875"/>
     <use xlink:href="#ArialMT-67" x="2043.904297"/>
     <use xlink:href="#ArialMT-6e" x="2099.519531"/>
     <use xlink:href="#ArialMT-61" x="2155.134766"/>
     <use xlink:href="#ArialMT-74" x="2210.75"/>
     <use xlink:href="#ArialMT-75" x="2238.533203"/>
     <use xlink:href="#ArialMT-72" x="2294.148438"/>
     <use xlink:href="#ArialMT-65" x="2327.449219"/>
     <use xlink:href="#ArialMT-20" x="2383.064453"/>
     <use xlink:href="#ArialMT-61" x="2410.847656"/>
     <use xlink:href="#ArialMT-6c" x="2466.462891"/>
     <use xlink:href="#ArialMT-67" x="2488.679688"/>
     <use xlink:href="#ArialMT-6f" x="2544.294922"/>
     <use xlink:href="#ArialMT-72" x="2599.910156"/>
     <use xlink:href="#ArialMT-69" x="2633.210938"/>
     <use xlink:href="#ArialMT-74" x="2655.427734"/>
     <use xlink:href="#ArialMT-68" x="2683.210938"/>
     <use xlink:href="#ArialMT-6d" x="2738.826172"/>
    </g>
   </g>
  </g>
 </g>
 <defs>
  <clipPath id="pfb636d2c75">
   <rect x="49.910625" y="27.650625" width="801.129375" height="368.929375"/>
  </clipPath>
 </defs>
</svg>
